<svg xmlns="http://www.w3.org/2000/svg" width="236.638" height="194.627" viewBox="0 0 236.638 194.627">
  <g id="Grupo_35580" data-name="Grupo 35580" transform="translate(-845.998 -1331.08)" style="isolation: isolate">
    <path id="Trazado_67889" data-name="Trazado 67889" d="M1252.677,1479.836s5.092,15.022-7.414,16.975-44.319,7.145-44.319,7.145l-13.662,32.881s6.413,60.334,7.277,62.064,8.456,37.789,8.456,37.789l109.111,3.7,28.427-89.166s8.643-39.111-49.576-53.45l-17.21.5Z" transform="translate(-301.436 -131.387)" fill="#ffb685"/>
    <path id="Trazado_67890" data-name="Trazado 67890" d="M1723.487,1366.081c.686,1.636,13.421,18.732,19.034,18.952s19.245-19,19.245-19Z" transform="translate(-775.034 -30.874)" fill="#ed784f"/>
    <path id="Trazado_67891" data-name="Trazado 67891" d="M1485.477,1395.907c-.725,1.817.136,20.338-2.533,24.455-2.428,3.746-33.865,5.72-32.6,7.906s32.652,3.041,37.072,5.086,10.477,11.222,15.41,11.034,9.667-8.724,15.6-10.105,29.316-.969,30.524-2.413-25.3-6.864-29.173-9.93c-3.28-2.6-1.579-24.587-3.1-24.977s-9.962,13.891-15.338,14.221C1497.332,1411.43,1485.841,1394.993,1485.477,1395.907Z" transform="translate(-533.754 -57.225)" fill="#ffb685"/>
    <path id="Trazado_67892" data-name="Trazado 67892" d="M2367.369,1855.765h32.53c-5.378-40.452-14.365-109.387-15.835-122.223-2.062-18.011-17.143-30.833-31.115-28.5-3.063.513-8.847,1.429-15.554,2.512l11.875,63.839C2353.262,1789.832,2361.161,1827.661,2367.369,1855.765Z" transform="translate(-1317.263 -330.057)" fill="#ff966c"/>
    <path id="Trazado_67893" data-name="Trazado 67893" d="M877.82,1819.39c6.45-28.437,15.224-69.668,19.448-89.179l11.877-63.84c-6.708-1.083-12.491-2-15.554-2.512-13.973-2.334-29.055,10.487-31.118,28.5-1.534,13.39-11.205,87.5-16.475,127.032Z" transform="translate(0 -293.682)" fill="#ff966c"/>
    <path id="Trazado_67894" data-name="Trazado 67894" d="M1185.059,1672.039c8.058-1.713,18.313,2.979,35,4.387s21.351,1.713,28.887,7.038,13.146,4.853,22.354-.726,11.74-9.184,28.4-9.42,21.192,2.6,34.233,4.934c9.555,1.715,14.1,24.592,3.775,31.568s-18.046,14.244-13.192,27.774-2.065,40.429-28.027,40.639-41.544-26.364-25.944-45.6c-14.619,7.945-17.577,30.55-6.941,41.978-4.906,2.467-19.228,1.006-22.065-1.527,10.671-9.275,10.5-33.4-2.383-41.763,8.283,8.188,7.385,38.312-16.328,41.36-24.563,3.157-44.67-10.866-41.288-28.137s11.665-29.885,1.233-34.729S1168.02,1675.662,1185.059,1672.039Z" transform="translate(-289.352 -300.821)" fill="#ffb685"/>
    <path id="Trazado_67895" data-name="Trazado 67895" d="M1718.333,1331.08a61.076,61.076,0,0,1-6.474,6.411c-5.476,4.646-11.968,8.31-18.172,8.31-3.985,0-8.1-1.509-12-3.818-1.027-.608-2.039-1.272-3.029-1.98l-.282-.2a58.59,58.59,0,0,1-9.457-8.719Z" transform="translate(-726.839 0)" fill="#ff966c"/>
    <path id="Trazado_67896" data-name="Trazado 67896" d="M1734.63,1331.08a54.114,54.114,0,0,1-4.109,4.084c-5.311,4.741-11.94,8.74-18.029,8.74s-12.723-3.974-18.06-8.7a54.336,54.336,0,0,1-4.182-4.127Z" transform="translate(-745.678 0)" fill="#ffb685"/>
    <path id="Trazado_67897" data-name="Trazado 67897" d="M2482.712,1735.056c-3.455,14.558,4.934,45.649,6.475,71.506,1.01,16.951,4.276,36.618,7.517,51.91h22.556c-1.852-12.469-3.982-28.571-5.457-42.728-2.467-23.689-10.61-59.714-10.857-76.987s-13.092-31.772-24.38-30.885C2466.522,1708.82,2486.166,1720.5,2482.712,1735.056Z" transform="translate(-1438.459 -332.764)" fill="#ffb685"/>
    <path id="Trazado_67898" data-name="Trazado 67898" d="M1396.916,2660.292a187.8,187.8,0,0,0,9.391-29.257c-8.722,1.642-28.514-5.485-33.545-12.717-7.329.65-33.277-2.669-33.277-2.669-8.172,9.772-33.37,14.917-49.379,6.765,1.151,7.888,5.413,23.3,8.175,37.877Z" transform="translate(-392.254 -1134.585)" fill="#ffb685"/>
    <path id="Trazado_67899" data-name="Trazado 67899" d="M883.2,1822.1c3.558-15.806,7.449-37.931,8.569-56.719,1.54-25.857,9.931-56.948,6.475-71.506s16.191-26.235,4.147-27.183c-11.29-.887-24.135,13.612-24.382,30.883s-8.39,53.3-10.857,76.988c-1.672,16.055-4.188,34.614-6.185,47.537Z" transform="translate(-13.224 -296.39)" fill="#ffb685"/>
    <g id="Grupo_35577" data-name="Grupo 35577" transform="translate(950.3 1421.426)">
      <path id="Trazado_67900" data-name="Trazado 67900" d="M1746.447,2104.9a19.544,19.544,0,0,0-2.442,4.286,27.858,27.858,0,0,0-1.456,4.961,28.848,28.848,0,0,0-.082,10.513c.618,3.5,2.028,6.76,2.374,10.334a25.948,25.948,0,0,1-.647,8.949,17.374,17.374,0,0,1-4.675,8.359c-.617.581.254,1.572.864,1.014,4.177-3.807,6.019-10.246,5.873-16.3a25.687,25.687,0,0,0-.483-4.389c-.373-1.871-.992-3.658-1.513-5.474a28.584,28.584,0,0,1-1.016-10.721,29.594,29.594,0,0,1,1.164-5.877,34.577,34.577,0,0,1,2.2-5.509c.059-.114-.083-.25-.16-.145Z" transform="translate(-1739.308 -2104.859)" fill="#c7795a"/>
    </g>
    <g id="Grupo_35578" data-name="Grupo 35578" transform="translate(966.609 1421.426)">
      <path id="Trazado_67901" data-name="Trazado 67901" d="M1879,2105.044a35.454,35.454,0,0,1,2.01,4.922,29.171,29.171,0,0,1,.739,15.688c-.486,1.981-1.167,3.886-1.664,5.862a25,25,0,0,0-.683,4.371,26.623,26.623,0,0,0,.908,8.973,17.97,17.97,0,0,0,4.913,8.457c.611.556,1.482-.433.865-1.015-4.063-3.824-5.745-10.161-5.412-16.115a23.971,23.971,0,0,1,.615-4.28c.469-1.947,1.1-3.835,1.552-5.789a29.024,29.024,0,0,0,.445-10.649,28.609,28.609,0,0,0-1.436-5.626,19.785,19.785,0,0,0-2.691-4.942c-.076-.1-.219.03-.16.145Z" transform="translate(-1878.989 -2104.861)" fill="#c7795a"/>
    </g>
    <g id="Grupo_35579" data-name="Grupo 35579" transform="translate(882.561 1364.972)">
      <path id="Trazado_67902" data-name="Trazado 67902" d="M2019.313,2151.734c-8.509,18.931-32.982,23.724-61.7,3.39,22.048-14.164,35.275-53.036,38.816-63.043C2012.235,2117.7,2028.436,2131.441,2019.313,2151.734Z" transform="translate(-1864.386 -2041.287)" fill="#170b08"/>
      <path id="Trazado_67903" data-name="Trazado 67903" d="M1424.225,1959.482c.857,18.066,24.263,61.542,41.077,72.111,26.077-14.87,44.086-55.079,48.65-75.087,5.367,16.638,6.256,27.986,6.256,27.986-2.018,20.125-16.146,42.1-36.96,47.682-11.356,1.378-37.168-2.039-37.168-2.039-21.387-9.492-30.081-49.716-29.187-55.7C1420.251,1962.63,1424.225,1959.482,1424.225,1959.482Z" transform="translate(-1386.744 -1917.373)" fill="#170b08" opacity="0.6"/>
      <path id="Trazado_67904" data-name="Trazado 67904" d="M1162.3,2132.92c8.591,19.443,41.1,24.422,61.471,4.708-18.388-11.83-31.251-45.229-32.772-58.368C1174.591,2090.519,1153.068,2112.025,1162.3,2132.92Z" transform="translate(-1159.144 -2025.795)" fill="#170b08"/>
      <path id="Trazado_67905" data-name="Trazado 67905" d="M1664.872,2557.482c4.863,2.74,30.86,3.685,40.91,2.787,3.906,1.929-.561,3.237-.561,3.237-12.3,2.985-36.87-1.488-41.034-2.213S1664.872,2557.482,1664.872,2557.482Z" transform="translate(-1603.73 -2448.181)" fill="#170b08"/>
      <path id="Trazado_67906" data-name="Trazado 67906" d="M2100.237,1693.927s-13.379-48.157-20.894-58.312c-3.144-2.295-3.946-2.981-3.946-2.981,5.971-1.657,9.888,1.747,28.893,60.529C2106.058,1702.5,2100.237,1693.927,2100.237,1693.927Z" transform="translate(-1968.415 -1631.054)" fill="#170b08"/>
      <path id="Trazado_67907" data-name="Trazado 67907" d="M1401.3,1679.976s17.218-45.807,25.552-55.426c3.324-2.072,4.179-2.7,4.179-2.7-5.813-2.056-9.886-.229-33.7,57.088C1394.789,1688.133,1401.3,1679.976,1401.3,1679.976Z" transform="translate(-1369.002 -1621.355)" fill="#170b08"/>
      <path id="Trazado_67908" data-name="Trazado 67908" d="M1267.259,2118.494c3.71,16.579,17.7,41.568,25.313,49.331-23.736,14.783-48.024-4.084-45.613-23.1C1249.314,2126.127,1257.474,2131.79,1267.259,2118.494Z" transform="translate(-1236.559 -2060.438)" fill="#38201b"/>
      <path id="Trazado_67909" data-name="Trazado 67909" d="M2079.251,2142.91c-4.742,16.343-19.018,38.813-27.1,46.141,22.769,16.073,45.123-1.977,44.745-18.968C2096.475,2151.359,2083.294,2156.014,2079.251,2142.91Z" transform="translate(-1947.883 -2082.011)" fill="#38201b"/>
      <path id="Trazado_67910" data-name="Trazado 67910" d="M1453.165,1668.061c.376-2.148-24.259,47.16-22.157,47.951S1452.679,1670.834,1453.165,1668.061Z" transform="translate(-1399.153 -1662.547)" fill="#38201b"/>
      <path id="Trazado_67911" data-name="Trazado 67911" d="M2129.875,1665.819c-.225-2.167,20.922,48.549,18.771,49.209S2130.167,1668.616,2129.875,1665.819Z" transform="translate(-2016.532 -1660.568)" fill="#38201b"/>
      <path id="Trazado_67912" data-name="Trazado 67912" d="M1748.359,2582.6c-15.34-.6-13.947,1.843,1.5,2.695S1761.082,2583.1,1748.359,2582.6Z" transform="translate(-1670.005 -2470.281)" fill="#38201b"/>
    </g>
  </g>
</svg>
