<svg xmlns="http://www.w3.org/2000/svg" width="224" height="187.453" viewBox="0 0 224 187.453">
  <g id="Grupo_1068193" data-name="Grupo 1068193" transform="translate(-1006 -34980.461)">
    <g id="BACKGROUND" transform="translate(1006 34980.461)">
      <g id="Grupo_32241" data-name="Grupo 32241" transform="translate(0 0)">
        <path id="Trazado_61861" data-name="Trazado 61861" d="M97.922,98.5c10.379-.358,20.415,3.278,30.343,6.325s20.554,5.551,30.6,2.93c13.511-3.523,22.937-15.368,31.4-26.472s18.039-22.882,31.614-26.15c12.676-3.052,26.352,2.419,35.578,11.632s14.55,21.666,17.873,34.274c8.23,31.229,4.258,67.233-17.126,91.435-17.108,19.363-42.934,28.874-68.443,32.985-18.4,2.965-37.533,3.46-55.427-1.756a90.556,90.556,0,0,1-52.316-40.9C68.658,159.846,56.264,99.939,97.922,98.5Z" transform="translate(-69.318 -40.214)" fill="#f3f9ff"/>
        <path id="Trazado_61862" data-name="Trazado 61862" d="M180.08,79.323c12.494.231,25.948-4.368,35.293-10.891,5.181-3.616,9.812-8.224,12.577-13.9s3.5-12.522,1.086-18.362c-3.478-8.426-12.627-13.193-21.582-14.9a53.028,53.028,0,0,0-39.75,8.492c-8.025,5.6-16.438,13.561-18.521,23.527-2.244,10.738,7,18.976,16.1,23A38.313,38.313,0,0,0,180.08,79.323Z" transform="translate(-115.85 -20.373)" fill="#f3f9ff"/>
      </g>
    </g>
    <g id="Grupo_40980" data-name="Grupo 40980" transform="translate(892.301 34647.852)" style="isolation: isolate">
      <g id="Grupo_40979" data-name="Grupo 40979" transform="translate(127.699 346.24)">
        <g id="Grupo_40972" data-name="Grupo 40972" transform="translate(0 2.697)">
          <g id="Grupo_40969" data-name="Grupo 40969">
            <g id="Grupo_40954" data-name="Grupo 40954">
              <g id="Grupo_40953" data-name="Grupo 40953">
                <g id="Grupo_40952" data-name="Grupo 40952">
                  <path id="Trazado_74622" data-name="Trazado 74622" d="M255.156,508.12l-125.864,3.74-1.568-93.581,53.824-68.74,68.808-2.045Z" transform="translate(-127.667 -347.327)" fill="#efb04b"/>
                  <path id="Trazado_74623" data-name="Trazado 74623" d="M255.2,508.233l-62.945,1.948-62.93,1.911-.139,0,0-.139L127.7,418.372v-.021l.014-.014,53.759-68.8.039-.048.064,0,68.807-2.069.164,0,0,.164,2.37,80.313Zm-.034-.034-2.519-80.29-2.43-80.318.169.16-68.807,2.021.11-.055L127.8,418.409l.009-.039,1.651,93.58-.142-.135,62.934-1.831Z" transform="translate(-127.699 -347.421)" fill="#a85a26"/>
                </g>
                <path id="Trazado_74624" data-name="Trazado 74624" d="M206.269,354.6c.628,5.832-4.387,11.4-4.775,17.126-.274,4.039.4,8.179-.372,12.184-1.158,6.028-4.471,11.691-7.044,17.188-5.7,12.194-12.321,23.956-18.736,35.793-4.935,9.106-8.46,18.7-12.719,28.1-2.943,6.494-6.891,12.584-10.091,18.969-1.614,3.222-3.421,6.369-3.841,9.979-.872,7.529,3.172,10.312,10.349,11.529,11.23,1.9,22.965-.849,34.208-1.192,4.2-.133,8.335.2,12.559.082,3.169-.084,6.158-.984,9.266-1.416a14.644,14.644,0,0,0,6.659-2.267c3.37-2.489,2.457-8.508,2.345-12.3-.454-15.235-1.6-30.4-2.055-45.637-.461-15.381-2.069-30.68-2.53-46.1-.322-10.808-.215-21.6.427-32.338.258-4.3,1.546-11.593-2.466-14.68-4.245-3.268-7.807,0-10.312,3.345a4.82,4.82,0,0,0-.678,1.809,1.486,1.486,0,0,1-.438-.626Z" transform="translate(-100.906 -346.338)" fill="#efb04b" opacity="0.4" style="mix-blend-mode: multiply;isolation: isolate"/>
                <path id="Trazado_74625" data-name="Trazado 74625" d="M151.626,351.264c12.9,11.579,19.7,28.116,26.687,43.765,4.571,10.237,6.846,21,9.23,31.886,2.434,11.132,5.6,22.127,7.857,33.3,1.21,5.971,1.057,11.826,1.445,17.861.26,4.078.888,8.316.317,12.4-.742,5.359-3.834,9.689-5.7,14.6,3.722.094,7.51-.189,11.246-.3,3.3-.1,6.359.58,9.634.63,2.487.039,6.188.847,8.264-.7,2.315-1.726,2.224-6.6,2.258-9.211.148-11.732-3.4-23.129-3.754-34.848-.484-16.233-.724-32.434-1.222-48.663-.217-6.985.582-13.877-.338-20.827a72.34,72.34,0,0,1-.5-14.267c.466-7.325,3.665-14.911,2.626-22.14-.728-5.072-1.489-7.257-6.455-6.371-6.341,1.126-5.912.174-12.417.368-8.193.237-24.887.7-32.909-.027-3.466-.313-15.295-2.295-16.459,2.973.783-.087.754-.628.852-1.375Z" transform="translate(-97.234 -346.544)" fill="#efb04b" opacity="0.4" style="mix-blend-mode: multiply;isolation: isolate"/>
                <path id="Trazado_74626" data-name="Trazado 74626" d="M240.293,352.934c0,9.033.653,17.583-.356,26.655a145.125,145.125,0,0,1-8.138,35.368,122.189,122.189,0,0,1-17.64,32A49.159,49.159,0,0,1,186.285,465.2c-6.859,1.8-17.452,4.026-24.307,1.409-5.252-2-10.419-4.439-15.607-6.6-7.042-2.936-13.039-10.093-16.628-16.662.509,10.826,1.5,21.464,2.361,32.233a79.9,79.9,0,0,1,.162,14.979c-.324,2.836-1.582,7.2-.128,9.833,2.053,3.708,7.844,3.7,11.417,4.25,6.083.929,12.3.219,18.432.646,11.449.8,22.857-.954,34.306-1.29q13.2-.394,26.394-.786c3.606-.1,7.307.16,10.869-.085,2.95-.21,7-.128,9.81-.984,8.531-2.605,4.555-19.964,5.017-26.349.406-5.59,1.475-10.917,1.3-16.562-.148-4.873-.5-9.652-.888-14.488-.468-5.873-.817-11.76-.993-17.665-.242-8.045.308-16.29-.783-24.273a294.838,294.838,0,0,1-2.784-33.4c-.1-4.647.886-9.184.738-13.861-.066-2.112.53-5.051-1.582-6.332-3.58-2.162-10.751.635-13.493,3.117-4.026,3.637-5.286,8.912-4.156,14.128.438,2.03,1.133,3.893,1.5,5.914.249,1.363-.247,6.092,2.041,5.008Z" transform="translate(-125.077 -346.116)" fill="#efb04b" opacity="0.4" style="mix-blend-mode: multiply;isolation: isolate"/>
                <path id="Trazado_74627" data-name="Trazado 74627" d="M176.1,351.319c-4.357,4.9-8.031,10.524-12.011,15.735-5.062,6.636-10.355,13.13-15,20.026-6.665,9.9-17.758,20.46-17.889,33.142-.073,7.028,4.437,14.932,10.447,18.715,8.759,5.517,23.035,1.171,31.445-3,9.253-4.583,17.548-13.146,20.741-23.138,2.016-6.323,1.806-12.885.738-19.375-1.706-10.344-5.7-20.108-9.641-29.685-1.315-3.2-2.551-6.193-5.261-8.341-1.121-.884-4.432-2.041-3.784-3.619Z" transform="translate(-123.201 -342.418)" fill="#ffbc5a"/>
                <path id="Trazado_74628" data-name="Trazado 74628" d="M168.355,353.56c-3.978,5.688-8.848,10.579-13.109,16.057a216.76,216.76,0,0,0-12.564,18.236c-3.11,4.955-7,10.3-7.113,16.338-.148,8.081,8.444,10.919,15.413,9.4,14.959-3.265,26.824-20.069,28.781-34.832.838-6.307.087-15.187-3.955-20.368a10.1,10.1,0,0,0-3.487-3.058c-1.354-.617-3.637-.26-4.4-1.073Z" transform="translate(-117.601 -339.542)" fill="#ffc476"/>
              </g>
              <path id="Trazado_74629" data-name="Trazado 74629" d="M149.5,453.27l2.685-7.656,2.72-7.643,2.722-7.645,2.768-7.624,5.56-15.244c.936-2.539,1.838-5.085,2.745-7.634l2.726-7.643.082-.24.1.235,6.028,14.9L183.61,422l2.982,7.467,2.948,7.474q2.953,7.48,5.868,14.966l-.03.018q-3.066-7.433-6.069-14.888l-3.023-7.446-2.987-7.462-5.962-14.932-5.912-14.947.178,0-2.774,7.622c-.925,2.542-1.856,5.085-2.754,7.631l-5.437,15.288-2.731,7.643-2.779,7.622-2.779,7.624-2.816,7.606Z" transform="translate(-99.719 -290.282)" fill="#894d04"/>
            </g>
            <g id="Grupo_40955" data-name="Grupo 40955" transform="translate(64.324 101.181)">
              <path id="Trazado_74630" data-name="Trazado 74630" d="M162.635,391.943a18.431,18.431,0,0,0-3.955,1.749,5.71,5.71,0,0,0,5.761,9.86c.3-.171.6-.338.9-.5q.815-.4-.393.132a6.108,6.108,0,0,1,.719-.228,5.712,5.712,0,0,0-3.035-11.013Z" transform="translate(-155.869 -391.732)" fill="#894d04"/>
            </g>
            <g id="Grupo_40956" data-name="Grupo 40956" transform="translate(67.389 107.836)">
              <path id="Trazado_74631" data-name="Trazado 74631" d="M162.792,395.066a12.334,12.334,0,0,1-2.932,1.48c-.9.4-2.313.824-2.6,1.911a1.428,1.428,0,0,0,2.752.758c-.167.644-.74.8-.228.507.215-.123.441-.221.665-.326.509-.242,1.028-.464,1.541-.692a9.149,9.149,0,0,0,2.818-1.617,1.429,1.429,0,0,0-2.019-2.021Z" transform="translate(-157.211 -394.646)" fill="#894d04"/>
            </g>
            <g id="Grupo_40957" data-name="Grupo 40957" transform="translate(65.869 110.796)">
              <path id="Trazado_74632" data-name="Trazado 74632" d="M165.891,396c-2.325.658-4.661,1.3-6.971,2.012a3.6,3.6,0,0,0-2.165,1.272,1.6,1.6,0,0,0,.772,2.256c1.667.742,3.119-1.717,1.441-2.466,2.861,1.274-1.025,2.345.178,1.872.269-.107.55-.187.827-.272.621-.192,1.249-.354,1.875-.525,1.608-.441,3.2-.943,4.8-1.4a1.428,1.428,0,0,0-.758-2.752Z" transform="translate(-156.545 -395.942)" fill="#894d04"/>
            </g>
            <g id="Grupo_40958" data-name="Grupo 40958" transform="translate(64.052 113.998)">
              <path id="Trazado_74633" data-name="Trazado 74633" d="M168.333,397.389c-3.941.934-8.812,1.551-12.086,4.115-1.448,1.135.589,3.14,2.019,2.021,1.375-1.078,3.434-1.487,5.076-1.952,1.9-.539,3.829-.973,5.75-1.432,1.79-.422,1.032-3.176-.758-2.752Z" transform="translate(-155.749 -397.345)" fill="#894d04"/>
            </g>
            <g id="Grupo_40959" data-name="Grupo 40959" transform="translate(63.173 117.593)">
              <path id="Trazado_74634" data-name="Trazado 74634" d="M169.454,399.008c-4.293,1.525-8.741,2.512-13.091,3.845-1.754.537-1,3.293.758,2.752,4.352-1.333,8.8-2.32,13.091-3.845,1.722-.61.98-3.368-.758-2.752Z" transform="translate(-155.365 -398.919)" fill="#894d04"/>
            </g>
            <g id="Grupo_40960" data-name="Grupo 40960" transform="translate(61.158 120.79)">
              <path id="Trazado_74635" data-name="Trazado 74635" d="M171.26,400.561c-4.8,3.19-10.892,3.4-16.044,5.859-1.66.795-.212,3.254,1.441,2.466,5.174-2.471,11.193-2.637,16.041-5.859,1.525-1.016.1-3.487-1.439-2.466Z" transform="translate(-154.482 -400.319)" fill="#894d04"/>
            </g>
            <g id="Grupo_40961" data-name="Grupo 40961" transform="translate(59.618 124.999)">
              <path id="Trazado_74636" data-name="Trazado 74636" d="M174.91,402.241c-3.475-.5-7.766,1.509-10.979,2.576-2.532.84-8.428,1.97-9.919,4.544a1.427,1.427,0,0,0,2.464,1.439c.733-1.263,6.439-2.628,8.214-3.229,2.493-.845,6.768-2.969,9.463-2.578,1.8.263,2.576-2.487.758-2.752Z" transform="translate(-153.808 -402.162)" fill="#894d04"/>
            </g>
            <g id="Grupo_40962" data-name="Grupo 40962" transform="translate(57.827 128.769)">
              <path id="Trazado_74637" data-name="Trazado 74637" d="M176.412,403.927c-5.416,2.245-11.182,3.558-16.8,5.193-1.843.534-5.711.941-6.519,2.957a1.422,1.422,0,0,0,1,1.754c.139.027.279.053.418.078,1.8.338,2.567-2.411.758-2.752l-.416-.078,1,1.756c-.3.738,2.357-.288,2.63-.372,1.971-.621,3.955-1.192,5.942-1.751a113.4,113.4,0,0,0,12.753-4.033c1.676-.692.943-3.455-.758-2.752Z" transform="translate(-153.024 -403.813)" fill="#894d04"/>
            </g>
            <g id="Grupo_40963" data-name="Grupo 40963" transform="translate(56.366 132.507)">
              <path id="Trazado_74638" data-name="Trazado 74638" d="M179.713,405.559c-8.551,3.418-17.245,7.271-26.3,9.129-1.8.37-1.037,3.119.758,2.751,9.058-1.856,17.749-5.711,26.3-9.129,1.687-.674.952-3.437-.758-2.752Z" transform="translate(-152.384 -405.451)" fill="#894d04"/>
            </g>
            <g id="Grupo_40964" data-name="Grupo 40964" transform="translate(53.982 137.098)">
              <path id="Trazado_74639" data-name="Trazado 74639" d="M183.172,407.552c-6.706,2.418-13.607,4.106-20.455,6.053-3.318.945-8.348,1.605-10.945,4.115-1.324,1.283.694,3.3,2.019,2.021,2.551-2.468,8.725-3.108,12.054-4.055,6.063-1.731,12.143-3.236,18.085-5.382,1.717-.619.977-3.377-.758-2.752Z" transform="translate(-151.34 -407.461)" fill="#894d04"/>
            </g>
            <g id="Grupo_40965" data-name="Grupo 40965" transform="translate(51.816 142.563)">
              <path id="Trazado_74640" data-name="Trazado 74640" d="M185.807,410.032c-6.072,3.19-12.8,4.523-19.354,6.348-5.122,1.423-9.967,3.676-15.059,5.186-1.761.523-1.009,3.277.758,2.754,5.731-1.7,11.209-4.117,16.98-5.72,6.193-1.724,12.388-3.094,18.117-6.1,1.63-.856.187-3.32-1.441-2.466Z" transform="translate(-150.391 -409.854)" fill="#894d04"/>
            </g>
            <g id="Grupo_40966" data-name="Grupo 40966" transform="translate(50.532 148.939)">
              <path id="Trazado_74641" data-name="Trazado 74641" d="M188.963,412.839c-11.908,6.649-26.2,5.674-38.455,11.488.479.822.959,1.642,1.441,2.466.327-.224.655-.445.984-.669,1.514-1.028.087-3.5-1.441-2.466-.327.222-.658.445-.984.669a1.429,1.429,0,0,0,1.441,2.466c12.258-5.816,26.5-4.816,38.456-11.488,1.605-.9.167-3.361-1.441-2.466Z" transform="translate(-149.829 -412.647)" fill="#894d04"/>
            </g>
            <g id="Grupo_40967" data-name="Grupo 40967" transform="translate(74.412 154.559)">
              <path id="Trazado_74642" data-name="Trazado 74642" d="M177.859,415.14a163.757,163.757,0,0,0-16.576,3.85c-1.751.546-1,3.3.758,2.752a163.917,163.917,0,0,1,16.576-3.85c1.8-.363,1.039-3.115-.758-2.751Z" transform="translate(-160.286 -415.108)" fill="#894d04"/>
            </g>
            <g id="Grupo_40968" data-name="Grupo 40968" transform="translate(82.665 156.948)">
              <path id="Trazado_74643" data-name="Trazado 74643" d="M174.659,416.287a36.447,36.447,0,0,1-9.723,2.907c-1.815.247-1.039,3,.758,2.752a39.007,39.007,0,0,0,10.406-3.192c1.683-.735.228-3.192-1.441-2.466Z" transform="translate(-163.901 -416.154)" fill="#894d04"/>
            </g>
          </g>
          <path id="Trazado_74644" data-name="Trazado 74644" d="M225.5,351.094c-11.088,3.432-22.282,6.912-33.384,10.349-5.259,1.63-10.593,3.6-15.925,4.674-3.332.671-7.889,3.217-11.207,2.923-1.064,2.226-.009,5.747.123,8.209.3,5.512-.957,11.164-1.26,16.658-.386,6.923-1.918,13.714-1.989,20.638-.062,6.218-.571,12.447-.808,18.7-.448,11.728-.893,23.271-.92,34.982a101.512,101.512,0,0,0,.315,12.075c.555,4.766,5.094,5.074,9.211,5.841,12.616,2.334,24.956-2.685,36.9-5.853,14.81-3.923,28.34-10.746,42.7-15.943,5.332-1.93,10.908-3.382,16.329-5.051,5.341-1.642,10.534-4.425,15.445-7.088,2.053-1.105,7.86-2.889,8.976-5.01,2.121-4.014-4.647-8.846-7.072-10.9a118.992,118.992,0,0,1-24.949-29.224c-6.563-10.655-13.778-21.446-18.943-32.857a129.428,129.428,0,0,0-9.337-16.6c-1.5-2.352-3.407-6.325-6.095-7.522Z" transform="translate(-86.117 -343.981)" fill="#52938d" opacity="0.3" style="mix-blend-mode: multiply;isolation: isolate"/>
          <g id="Grupo_40971" data-name="Grupo 40971" transform="translate(80.925 7.437)">
            <g id="Grupo_40970" data-name="Grupo 40970">
              <path id="Trazado_74645" data-name="Trazado 74645" d="M286.505,444.641s-24.177,13.609-61.311,25.15c-41.424,12.869-58.312,11.936-58.312,11.936l-3.6-112.846,58.07-18Z" transform="translate(-162.959 -350.419)" fill="#efb04b"/>
              <path id="Trazado_74646" data-name="Trazado 74646" d="M286.7,444.934q-3.442,1.9-6.974,3.663c-2.331,1.21-4.713,2.32-7.083,3.45-2.363,1.153-4.768,2.208-7.172,3.268l-3.606,1.589c-1.2.539-2.427,1.009-3.638,1.514l-7.3,2.978-7.382,2.761c-2.466.909-4.916,1.859-7.423,2.649l-7.483,2.489c-1.251.406-2.482.845-3.752,1.224l-3.779,1.11-7.558,2.224c-2.507.783-5.074,1.379-7.62,2.03l-3.827.966-1.911.477c-.642.155-1.274.336-1.92.461l-7.72,1.626c-.644.135-1.286.283-1.93.4l-1.95.324-3.891.646-1.948.322-1.959.24-3.921.47c-1.311.128-2.626.2-3.939.3-.655.064-1.318.064-1.977.08s-1.32.039-1.987.009l-.208-.009,0-.208-.393-14.107-.418-14.1-.438-14.107-.484-14.1-1.959-56.415-.009-.235.226-.073,29.018-9.058,29.029-9.022.276-.084.164.233,16.276,23.451,16.217,23.492,16.21,23.5,8.09,11.755,8.093,11.805Zm-.073-.048-8.193-11.634-8.2-11.682-16.368-23.385L237.506,374.8l-16.3-23.433.441.151L192.6,360.494l-29.057,8.942.219-.306,1.646,56.426.416,14.1.464,14.109.484,14.1.512,14.1-.212-.215c.644.02,1.3,0,1.952-.027s1.306-.027,1.959-.094c1.3-.114,2.615-.2,3.914-.338l3.9-.5,1.95-.253,1.939-.336,3.875-.676,1.939-.333c.644-.126,1.283-.269,1.925-.4l7.7-1.646c.646-.126,1.276-.3,1.914-.464l1.9-.484,3.813-.968c2.539-.665,5.094-1.251,7.608-2.021l7.565-2.2,3.784-1.1c1.249-.365,2.494-.8,3.74-1.206l7.481-2.459c2.5-.781,4.953-1.722,7.421-2.617l7.394-2.7,7.312-2.92c1.217-.5,2.446-.955,3.647-1.482l3.615-1.562,3.615-1.557c1.213-.5,2.391-1.082,3.587-1.621,2.384-1.094,4.777-2.174,7.124-3.35Q283.178,446.738,286.63,444.886Z" transform="translate(-163.139 -350.678)" fill="#7c4604"/>
            </g>
            <path id="Trazado_74647" data-name="Trazado 74647" d="M209.862,352.722c1.461,4.592,1.222,10.287.76,15.032a206.173,206.173,0,0,1-5.594,31.71c-4.1,15.808-7.734,31.3-15.258,45.87a157.34,157.34,0,0,1-13.765,21.932c-2.571,3.437-5,7.245-8.316,10,11.344-.5,22.369-3.811,33.226-7.2,12.306-3.843,24.686-7.124,36.273-12.89,8.826-4.4,18.354-6.834,27.111-11.237,2.927-1.471,6.334-3.172,7.974-6.154,1.932-3.505-.432-7.015-2.576-9.938-6.428-8.778-13.543-17.121-20.332-25.648-2.957-3.717-5.546-7.713-8.182-11.677-2.829-4.263-6.108-8.024-9.065-12.2-4.921-6.942-8.921-14.422-13.237-21.709-1.05-1.767-2.535-4.674-4.238-5.789-2.51-1.644-3.523.358-5.592.671Z" transform="translate(-157.299 -348.742)" fill="#efb04b" opacity="0.4" style="mix-blend-mode: multiply;isolation: isolate"/>
            <path id="Trazado_74648" data-name="Trazado 74648" d="M184.517,356.2c2.087,3.574,4.978,6.784,6.98,10.531a95.483,95.483,0,0,1,8.01,21.638c3.482,13.893,5.944,29.059,4.7,43.372-.735,8.437-1.708,17.713-5.868,25.278-1.991,3.619-4.809,6.181-7.266,9.36,5.012-1.836,10.351-2.551,15.228-4.919,5.056-2.45,9.917-5.236,15.164-7.35,7.908-3.188,15.916-5.11,22.385-10.97,3.105-2.8,2.585-4.839,1.391-8.837-2.158-7.229-6.512-13.335-10.584-19.569-3.676-5.629-7.047-11.376-10.6-17.067-2.978-4.77-6.485-9.25-9.1-14.214-5.149-9.759-10.449-20.407-17.025-29.244-3.738-5.015-10.828-1.455-13.714,2.859a.51.51,0,0,1-.578-.331Z" transform="translate(-136.836 -349.294)" fill="#efb04b" opacity="0.4" style="mix-blend-mode: multiply;isolation: isolate"/>
            <path id="Trazado_74649" data-name="Trazado 74649" d="M204.461,354.522c-9.7,2.736-15.189,16.6-17.361,25.454-1.907,7.773-.607,15.726.5,23.508a63.658,63.658,0,0,0,6.421,20.578c5.172,9.714,12.312,19.494,22.047,25.043a40.834,40.834,0,0,0,9.764,4.211,28.782,28.782,0,0,1,6.727,2.274,190.761,190.761,0,0,0-18.724,6.633,212.075,212.075,0,0,1-25.967,8.588c-4.414,1.114-15.9,4.578-18.832-.411-2.3-3.916-1.9-10.913-2.537-15.338-.9-6.218-1.418-12.659-1.831-18.934-1.281-19.437-.025-38.935.354-58.383.123-6.549,1.089-9.643,7.028-13.112,6.149-3.592,13.787-5.916,20.615-8.035,1.989-.617,4.035-1.473,6.076-1.884,1.735-.349,3.512.057,5.154-.32a.554.554,0,0,0-.617-.295Z" transform="translate(-161.9 -346.295)" fill="#efb04b" opacity="0.4" style="mix-blend-mode: multiply;isolation: isolate"/>
            <path id="Trazado_74650" data-name="Trazado 74650" d="M187.873,354.753c10.148,11.429,15.678,26.038,21.613,39.926a88.618,88.618,0,0,1,6.871,33.624,49.032,49.032,0,0,1-5.462,22.814c-1.678,3.448-5.227,11.57-9.531,12.447,8.976-.959,18.816-5.254,26.785-9.291,6.19-3.14,18.11-7.056,18.711-15.409.356-4.98-2.752-8.885-5.8-12.431a130.234,130.234,0,0,1-10.716-13.924c-3.281-5.04-7.266-9.6-10.584-14.642-3.491-5.3-6.085-11.1-10.031-16.117-4.989-6.348-9.474-13.42-13.879-20.193-1.461-2.245-5.113-10.652-8.682-9.182a5.466,5.466,0,0,0,.253.936Z" transform="translate(-132.296 -348.718)" fill="#efb04b" opacity="0.4" style="mix-blend-mode: multiply;isolation: isolate"/>
            <path id="Trazado_74651" data-name="Trazado 74651" d="M182.588,360.009c-3.357,2.2-4.722,8.143-5.626,11.723-1.866,7.366-4.021,19.6,2.683,25.307,11.18,9.524,16.445-18.573,16.359-25.335-.055-4.43-.92-11.235-5.839-12.737-2.153-.655-6.5-.27-7.908,1.738-.276.169-.4.009-.39-.477Z" transform="translate(-147.805 -340.415)" fill="#ffc476" opacity="0.5"/>
            <path id="Trazado_74652" data-name="Trazado 74652" d="M175.236,359.071c-2.2,2.341-2,6.478-2.229,9.5a142.333,142.333,0,0,0-.126,20.932,156.421,156.421,0,0,0,7.245,36.722c2.79,8.714,7.775,18.268,14.162,24.931,3.594,3.749,8.321,5.848,12.221,9.049-6.976,2.459-13.678,6.019-21.067,7.579-4.759,1-13.383,2.391-15.932-2.971-1.845-3.88-.5-9.086-.486-13.2.018-5.75-.543-11.529-.591-17.279-.084-10.741.158-21.083-.722-31.849-.566-6.933-1.35-13.845-2.062-20.757-.445-4.3-1.566-8.337-1.571-12.621,0-2.32.087-5.741,1.63-7.613,1.493-1.809,6.464-3.357,8.4-1.813Z" transform="translate(-161.933 -339.931)" fill="#efb04b" opacity="0.4" style="mix-blend-mode: multiply;isolation: isolate"/>
          </g>
        </g>
        <g id="Grupo_40973" data-name="Grupo 40973" transform="translate(110.188 19.869)">
          <path id="Trazado_74653" data-name="Trazado 74653" d="M176.9,357.519l-.947-2.417.4-.161.949,2.417Z" transform="translate(-175.954 -354.941)" fill="#8e3509"/>
          <path id="Trazado_74654" data-name="Trazado 74654" d="M213.524,450.974l-1.914-4.88.409-.158,1.909,4.88Zm-3.825-9.755-1.909-4.877.4-.16,1.911,4.877Zm-3.82-9.757-1.914-4.88.4-.155,1.913,4.877Zm-3.823-9.755-1.914-4.878.4-.155,1.914,4.873Zm-3.823-9.757-1.913-4.88.4-.153,1.914,4.875ZM194.41,402.2l-1.911-4.88.406-.155,1.907,4.875Zm-3.823-9.757-1.911-4.88.4-.155,1.911,4.877Zm-3.822-9.757-1.911-4.877.4-.158,1.911,4.875Zm-3.822-9.757-1.914-4.875.4-.158,1.911,4.878Zm-3.825-9.753-1.911-4.88.4-.158,1.911,4.877Z" transform="translate(-174.347 -350.841)" fill="#8e3509"/>
          <path id="Trazado_74655" data-name="Trazado 74655" d="M194.895,403.433l-.947-2.417.4-.156.948,2.417Z" transform="translate(-152.86 -296.008)" fill="#8e3509"/>
        </g>
        <g id="Grupo_40974" data-name="Grupo 40974" transform="translate(71.581 3.992)">
          <path id="Trazado_74656" data-name="Trazado 74656" d="M159.9,350.423l.044-2.435.406,0-.046,2.435Z" transform="translate(-157.956 -347.988)" fill="#8e3509"/>
          <path id="Trazado_74657" data-name="Trazado 74657" d="M159.106,444.574l.089-4.916.409.009-.091,4.914Zm.18-9.828.091-4.914.4,0-.089,4.916Zm.183-9.828L159.56,420l.4.009-.089,4.912Zm.18-9.828.089-4.914.4.007-.089,4.912Zm.18-9.83.089-4.912.4,0-.087,4.914Zm.178-9.83.091-4.909.409,0-.091,4.914Zm.183-9.821.091-4.919.4.009-.091,4.912Zm.18-9.832.089-4.912.406,0-.089,4.916Zm.18-9.83.089-4.909.406.007-.091,4.912Zm.18-9.828.089-4.912.409.009-.091,4.912Z" transform="translate(-158.971 -343.859)" fill="#8e3509"/>
          <path id="Trazado_74658" data-name="Trazado 74658" d="M159.047,396.683l.045-2.437.407.007-.045,2.435Z" transform="translate(-159.047 -288.619)" fill="#8e3509"/>
        </g>
        <g id="Grupo_40975" data-name="Grupo 40975" transform="translate(136.868)">
          <path id="Trazado_74659" data-name="Trazado 74659" d="M187.638,347.647a11.292,11.292,0,0,1,1.731-.938,3.615,3.615,0,0,1,2.325-.406,1.588,1.588,0,0,1,1.19.975,1.865,1.865,0,0,1-.591,2.133l.009.023a2.051,2.051,0,0,1,2.366,1.089,2.028,2.028,0,0,1-.009,1.713,4.368,4.368,0,0,1-2.338,1.827,13.249,13.249,0,0,1-1.564.6Zm2.283,2.482.891-.393c1.041-.464,1.425-1.235,1.119-1.925-.37-.833-1.194-.858-2.19-.422a5.053,5.053,0,0,0-.843.45Zm1.516,3.418a7.044,7.044,0,0,0,.845-.324c1.018-.452,1.8-1.215,1.34-2.254-.434-.971-1.5-.977-2.578-.5l-.815.361Z" transform="translate(-187.638 -346.24)" fill="#873c04"/>
        </g>
        <g id="Grupo_40976" data-name="Grupo 40976" transform="translate(202.256 95.917)">
          <path id="Trazado_74660" data-name="Trazado 74660" d="M216.274,390.179l2.911-1.491c2.411-1.238,3.724.386,4.364,1.628.71,1.379.836,3.379-1.235,4.439l-2.914,1.493Zm5.713,3.937c1.413-.726,1.427-2.121.765-3.4-.916-1.774-2.007-2.053-3.249-1.413l-2.124,1.085,2.482,4.816Z" transform="translate(-216.274 -388.245)" fill="#873c04"/>
        </g>
        <g id="Grupo_40977" data-name="Grupo 40977" transform="translate(74.815 21.024)">
          <path id="Trazado_74661" data-name="Trazado 74661" d="M161.488,355.659l.843-.212,4.948,7.264-1,.247L165,360.909l-3.316.838-.185,2.418-1.034.263Zm3.01,4.519-2.288-3.391-.427,4.071Z" transform="translate(-160.463 -355.447)" fill="#873c04"/>
        </g>
        <g id="Grupo_40978" data-name="Grupo 40978" transform="translate(77.331 134.363)">
          <path id="Trazado_74662" data-name="Trazado 74662" d="M163.673,405.557a22.945,22.945,0,0,1,2.934-.475l.18.678c-.009,0-1.811.359-2.889.644-1.461.39-1.815,1.187-1.069,3.964.5,1.882,1.347,3.3,2.907,2.882,1.229-.326,2.834-.838,2.834-.838l.183.674a22.127,22.127,0,0,1-2.79,1.014c-2.167.575-3.345-1.06-4.005-3.526C161.238,407.9,161.344,406.176,163.673,405.557Z" transform="translate(-161.565 -405.082)" fill="#873c04"/>
        </g>
      </g>
    </g>
  </g>
</svg>
