<svg id="Grupo_1098940" data-name="Grupo 1098940" xmlns="http://www.w3.org/2000/svg" xmlns:xlink="http://www.w3.org/1999/xlink" width="354.164" height="234.168" viewBox="0 0 354.164 234.168">
  <defs>
    <clipPath id="clip-path">
      <rect id="Rectángulo_388831" data-name="Rectángulo 388831" width="354.164" height="234.168" fill="none"/>
    </clipPath>
  </defs>
  <path id="Trazado_774349" data-name="Trazado 774349" d="M157.918,172.084l-6.154,1.126,4.052,4.766Z" transform="translate(-76.952 -87.255)"/>
  <rect id="Rectángulo_388823" data-name="Rectángulo 388823" width="13.47" height="0.925" transform="translate(67.653 95.541) rotate(-40.372)"/>
  <path id="Trazado_774350" data-name="Trazado 774350" d="M544.012,117.925l1.678-6.026-6.058,1.559Z" transform="translate(-273.62 -56.738)"/>
  <rect id="Rectángulo_388824" data-name="Rectángulo 388824" width="0.925" height="13.47" transform="matrix(0.968, -0.249, 0.249, 0.968, 265.686, 44.759)"/>
  <path id="Trazado_774351" data-name="Trazado 774351" d="M408.438,236.181h-3.88v3.6h4.324v1.081h-5.613v-9.982h5.391v1.081h-4.1v3.155h3.88Z" transform="translate(-204.477 -117.067)"/>
  <g id="Grupo_1098939" data-name="Grupo 1098939">
    <g id="Grupo_1098938" data-name="Grupo 1098938" clip-path="url(#clip-path)">
      <path id="Trazado_774352" data-name="Trazado 774352" d="M417.356,239.123a4.568,4.568,0,0,0,2.31.652c1.318,0,2.088-.7,2.088-1.7,0-.933-.533-1.466-1.881-1.984-1.629-.578-2.636-1.422-2.636-2.829,0-1.556,1.288-2.711,3.229-2.711a4.532,4.532,0,0,1,2.206.489l-.356,1.051a3.97,3.97,0,0,0-1.9-.474c-1.363,0-1.881.814-1.881,1.5,0,.933.608,1.392,1.985,1.925,1.688.651,2.548,1.466,2.548,2.932,0,1.54-1.141,2.873-3.5,2.873a5.16,5.16,0,0,1-2.548-.637Z" transform="translate(-211.455 -116.899)"/>
      <path id="Trazado_774353" data-name="Trazado 774353" d="M432.864,230.921a14.948,14.948,0,0,1,2.473-.192,4.1,4.1,0,0,1,2.8.829,2.686,2.686,0,0,1,.874,2.089,2.939,2.939,0,0,1-.77,2.133,4.137,4.137,0,0,1-3.051,1.1,4.438,4.438,0,0,1-1.037-.089v4h-1.289Zm1.289,4.814a4.325,4.325,0,0,0,1.066.1c1.555,0,2.5-.755,2.5-2.133,0-1.318-.933-1.955-2.354-1.955a5.411,5.411,0,0,0-1.215.1Z" transform="translate(-219.483 -116.991)"/>
      <path id="Trazado_774354" data-name="Trazado 774354" d="M447.162,237.722l-1.037,3.14h-1.333l3.392-9.982h1.555l3.406,9.982h-1.377l-1.066-3.14Zm3.274-1.007-.978-2.873c-.223-.652-.371-1.244-.519-1.821h-.03c-.149.593-.312,1.2-.5,1.807l-.978,2.888Z" transform="translate(-225.531 -117.067)"/>
      <path id="Trazado_774355" data-name="Trazado 774355" d="M464.713,230.879H466v8.9h4.266v1.081h-5.554Z" transform="translate(-235.632 -117.067)"/>
      <path id="Trazado_774356" data-name="Trazado 774356" d="M478.894,230.937a18.483,18.483,0,0,1,2.74-.208,5.717,5.717,0,0,1,4.043,1.244,4.6,4.6,0,0,1,1.407,3.585,5.279,5.279,0,0,1-1.437,3.88,6.149,6.149,0,0,1-4.413,1.437,20.823,20.823,0,0,1-2.34-.119Zm1.289,8.827a8.147,8.147,0,0,0,1.3.074c2.755,0,4.251-1.54,4.251-4.235.015-2.355-1.318-3.851-4.044-3.851a7.282,7.282,0,0,0-1.51.134Z" transform="translate(-242.823 -116.991)"/>
      <path id="Trazado_774357" data-name="Trazado 774357" d="M499.322,237.722l-1.037,3.14h-1.333l3.391-9.982H501.9l3.406,9.982h-1.377l-1.066-3.14Zm3.273-1.007-.978-2.873c-.222-.652-.37-1.244-.518-1.821h-.03c-.148.593-.311,1.2-.5,1.807l-.978,2.888Z" transform="translate(-251.979 -117.067)"/>
      <path id="Trazado_774358" data-name="Trazado 774358" d="M426.253,268.917l-3.258-9.982h1.392l1.555,4.917c.43,1.348.8,2.562,1.067,3.732h.03c.281-1.155.7-2.414,1.14-3.717l1.688-4.932h1.378l-3.569,9.982Z" transform="translate(-214.479 -131.293)"/>
      <rect id="Rectángulo_388825" data-name="Rectángulo 388825" width="1.289" height="9.982" transform="translate(217.846 127.642)"/>
      <path id="Trazado_774359" data-name="Trazado 774359" d="M448.408,267.179a4.568,4.568,0,0,0,2.31.652c1.318,0,2.088-.7,2.088-1.7,0-.933-.533-1.466-1.881-1.984-1.629-.578-2.636-1.422-2.636-2.829,0-1.556,1.288-2.711,3.229-2.711a4.532,4.532,0,0,1,2.206.489l-.356,1.051a3.97,3.97,0,0,0-1.9-.474c-1.363,0-1.881.814-1.881,1.5,0,.933.608,1.392,1.985,1.925,1.688.651,2.548,1.466,2.548,2.932,0,1.54-1.141,2.873-3.5,2.873a5.16,5.16,0,0,1-2.548-.637Z" transform="translate(-227.2 -131.125)"/>
      <path id="Trazado_774360" data-name="Trazado 774360" d="M464.64,260.031H461.6v-1.1h7.39v1.1h-3.05v8.886h-1.3Z" transform="translate(-234.056 -131.292)"/>
      <path id="Trazado_774361" data-name="Trazado 774361" d="M477.434,265.777l-1.037,3.14h-1.333l3.392-9.982h1.555l3.406,9.982H482.04l-1.066-3.14Zm3.273-1.007-.977-2.873c-.222-.652-.37-1.244-.518-1.821h-.03c-.148.593-.311,1.2-.5,1.807l-.978,2.888Z" transform="translate(-240.881 -131.292)"/>
      <path id="Trazado_774362" data-name="Trazado 774362" d="M391.2,129.666H530.846s-4.079,44.166,14.828,42.4L539.237,277.3s-41.5,22.125-79.681,22.125-73.581-22.527-73.581-22.527l-7.241-104.831S394.422,174.318,391.2,129.666Z" transform="translate(-192.037 -65.747)" fill="none" stroke="#000" stroke-miterlimit="10" stroke-width="2"/>
      <line id="Línea_566" data-name="Línea 566" y2="169.756" transform="translate(263.53 63.919)" fill="none" stroke="#000" stroke-miterlimit="10" stroke-width="2"/>
      <line id="Línea_567" data-name="Línea 567" y2="169.756" transform="translate(276 63.919)" fill="none" stroke="#000" stroke-miterlimit="10" stroke-width="2"/>
      <path id="Trazado_774363" data-name="Trazado 774363" d="M13.553,129.666H153.195s-4.079,44.166,14.828,42.4L161.586,277.3s-41.5,22.125-79.681,22.125S8.324,276.895,8.324,276.895L1.083,172.064S16.771,174.318,13.553,129.666Z" transform="translate(-0.549 -65.747)" fill="none" stroke="#000" stroke-miterlimit="10" stroke-width="2"/>
      <line id="Línea_568" data-name="Línea 568" y2="169.756" transform="translate(77.366 63.919)" fill="none" stroke="#000" stroke-miterlimit="10" stroke-width="2"/>
      <line id="Línea_569" data-name="Línea 569" y2="169.756" transform="translate(89.837 63.919)" fill="none" stroke="#000" stroke-miterlimit="10" stroke-width="2"/>
      <path id="Trazado_774364" data-name="Trazado 774364" d="M388.187,1.177a15.6,15.6,0,0,1,2.591-.2,4.3,4.3,0,0,1,2.933.869,2.812,2.812,0,0,1,.915,2.188,3.078,3.078,0,0,1-.807,2.235,4.333,4.333,0,0,1-3.2,1.148,4.607,4.607,0,0,1-1.086-.094v4.19h-1.35Zm1.35,5.043a4.539,4.539,0,0,0,1.118.109c1.629,0,2.622-.792,2.622-2.235,0-1.381-.978-2.049-2.468-2.049a5.7,5.7,0,0,0-1.272.108Z" transform="translate(-196.83 -0.494)"/>
      <path id="Trazado_774365" data-name="Trazado 774365" d="M403.644,9.281c0-.885-.015-1.645-.062-2.343h1.195l.047,1.474h.062a2.253,2.253,0,0,1,2.079-1.645,1.5,1.5,0,0,1,.388.046V8.1a2.078,2.078,0,0,0-.465-.046,1.916,1.916,0,0,0-1.831,1.753,3.9,3.9,0,0,0-.062.636v4h-1.35Z" transform="translate(-204.636 -3.431)"/>
      <path id="Trazado_774366" data-name="Trazado 774366" d="M413.261,10.942a2.406,2.406,0,0,0,2.576,2.607,4.928,4.928,0,0,0,2.079-.388l.233.979a6.1,6.1,0,0,1-2.5.465,3.488,3.488,0,0,1-3.694-3.786c0-2.265,1.334-4.05,3.523-4.05,2.452,0,3.1,2.157,3.1,3.538a5.075,5.075,0,0,1-.047.636Zm4-.978a1.944,1.944,0,0,0-1.893-2.219,2.263,2.263,0,0,0-2.095,2.219Z" transform="translate(-208.882 -3.432)"/>
      <path id="Trazado_774367" data-name="Trazado 774367" d="M427.473,13.053a3.579,3.579,0,0,0,1.8.543c.993,0,1.459-.5,1.459-1.118,0-.652-.388-1.009-1.4-1.381-1.35-.481-1.986-1.226-1.986-2.126a2.317,2.317,0,0,1,2.592-2.2,3.751,3.751,0,0,1,1.846.465l-.341.993a2.922,2.922,0,0,0-1.536-.434c-.806,0-1.257.465-1.257,1.024,0,.621.45.9,1.428,1.272,1.3.5,1.97,1.149,1.97,2.266,0,1.319-1.024,2.25-2.808,2.25a4.275,4.275,0,0,1-2.11-.512Z" transform="translate(-216.577 -3.432)"/>
      <path id="Trazado_774368" data-name="Trazado 774368" d="M440.241,10.942a2.406,2.406,0,0,0,2.576,2.607,4.928,4.928,0,0,0,2.079-.388l.233.979a6.1,6.1,0,0,1-2.5.465,3.488,3.488,0,0,1-3.694-3.786c0-2.265,1.334-4.05,3.523-4.05,2.452,0,3.1,2.157,3.1,3.538a5.071,5.071,0,0,1-.047.636Zm4-.978a1.944,1.944,0,0,0-1.893-2.219,2.263,2.263,0,0,0-2.095,2.219Z" transform="translate(-222.563 -3.432)"/>
      <path id="Trazado_774369" data-name="Trazado 774369" d="M455.119,8.971c0-.776-.015-1.412-.062-2.033h1.21l.078,1.242h.031a2.761,2.761,0,0,1,2.483-1.413c1.039,0,2.654.621,2.654,3.2v4.484h-1.366v-4.33c0-1.21-.45-2.219-1.738-2.219a1.94,1.94,0,0,0-1.831,1.4,1.965,1.965,0,0,0-.093.636v4.515h-1.366Z" transform="translate(-230.736 -3.431)"/>
      <path id="Trazado_774370" data-name="Trazado 774370" d="M472.667,2.738V4.895h1.955v1.04h-1.955V9.985c0,.931.264,1.459,1.024,1.459a3.046,3.046,0,0,0,.792-.093l.062,1.024a3.349,3.349,0,0,1-1.21.186,1.891,1.891,0,0,1-1.474-.574,2.783,2.783,0,0,1-.527-1.956v-4.1h-1.164V4.895h1.164V3.1Z" transform="translate(-238.399 -1.388)"/>
      <path id="Trazado_774371" data-name="Trazado 774371" d="M485.244,14.448l-.109-.946h-.046a2.8,2.8,0,0,1-2.3,1.117,2.14,2.14,0,0,1-2.3-2.157c0-1.816,1.614-2.808,4.516-2.793V9.514A1.548,1.548,0,0,0,483.3,7.776a3.74,3.74,0,0,0-1.956.559l-.311-.9a4.665,4.665,0,0,1,2.468-.667c2.3,0,2.855,1.568,2.855,3.073v2.809a10.516,10.516,0,0,0,.124,1.8Zm-.2-3.833c-1.49-.031-3.181.233-3.181,1.692a1.208,1.208,0,0,0,1.288,1.3,1.87,1.87,0,0,0,1.816-1.258,1.427,1.427,0,0,0,.077-.434Z" transform="translate(-243.634 -3.431)"/>
      <path id="Trazado_774372" data-name="Trazado 774372" d="M501.033,14.185a5.036,5.036,0,0,1-2.157.434,3.568,3.568,0,0,1-3.74-3.833A3.816,3.816,0,0,1,499.171,6.8a4.565,4.565,0,0,1,1.892.388l-.31,1.055a3.168,3.168,0,0,0-1.583-.357,2.6,2.6,0,0,0-2.654,2.84,2.575,2.575,0,0,0,2.607,2.809,3.87,3.87,0,0,0,1.676-.373Z" transform="translate(-251.058 -3.447)"/>
      <path id="Trazado_774373" data-name="Trazado 774373" d="M511.057,1.955a.846.846,0,0,1-1.691,0,.832.832,0,0,1,.853-.853.81.81,0,0,1,.838.853m-1.521,2.11H510.9v7.511h-1.366Z" transform="translate(-258.274 -0.559)"/>
      <path id="Trazado_774374" data-name="Trazado 774374" d="M522.688,7.471a3.671,3.671,0,0,1-3.74,3.988,3.571,3.571,0,0,1-3.6-3.864,3.668,3.668,0,0,1,3.724-3.988,3.557,3.557,0,0,1,3.616,3.864m-5.959.078c0,1.644.946,2.886,2.281,2.886,1.3,0,2.281-1.226,2.281-2.917,0-1.272-.636-2.886-2.25-2.886s-2.312,1.489-2.312,2.917M521.058.535l-1.893,2.219h-.977L519.553.535Z" transform="translate(-261.307 -0.271)"/>
      <path id="Trazado_774375" data-name="Trazado 774375" d="M533.04,8.971c0-.776-.015-1.412-.063-2.033h1.21l.078,1.242h.031a2.76,2.76,0,0,1,2.483-1.413c1.039,0,2.654.621,2.654,3.2v4.484h-1.366v-4.33c0-1.21-.45-2.219-1.738-2.219a2,2,0,0,0-1.924,2.033v4.515H533.04Z" transform="translate(-270.245 -3.431)"/>
      <path id="Trazado_774376" data-name="Trazado 774376" d="M561.92,0V9.077c0,.667.015,1.428.062,1.94h-1.226l-.062-1.3h-.031a2.778,2.778,0,0,1-2.561,1.474c-1.815,0-3.212-1.536-3.212-3.817-.016-2.5,1.536-4.035,3.367-4.035a2.511,2.511,0,0,1,2.266,1.149h.031V0Zm-1.366,6.563a2.419,2.419,0,0,0-.062-.574,2.009,2.009,0,0,0-1.971-1.583c-1.412,0-2.25,1.242-2.25,2.9,0,1.521.745,2.777,2.219,2.777a2.053,2.053,0,0,0,2-1.629,2.389,2.389,0,0,0,.062-.59Z" transform="translate(-281.357)"/>
      <path id="Trazado_774377" data-name="Trazado 774377" d="M573.32,10.942a2.406,2.406,0,0,0,2.576,2.607,4.928,4.928,0,0,0,2.079-.388l.233.979a6.1,6.1,0,0,1-2.5.465,3.488,3.488,0,0,1-3.694-3.786c0-2.265,1.334-4.05,3.523-4.05,2.452,0,3.1,2.157,3.1,3.538a5.071,5.071,0,0,1-.047.636Zm4-.978a1.944,1.944,0,0,0-1.893-2.219,2.263,2.263,0,0,0-2.095,2.219Z" transform="translate(-290.04 -3.432)"/>
      <path id="Trazado_774378" data-name="Trazado 774378" d="M594.243,9.389c0-.962-.031-1.738-.062-2.452h1.226l.062,1.288h.031a2.952,2.952,0,0,1,2.669-1.459c1.815,0,3.181,1.536,3.181,3.817,0,2.7-1.644,4.034-3.414,4.034a2.635,2.635,0,0,1-2.312-1.179h-.031v4.081h-1.35Zm1.35,2a3.07,3.07,0,0,0,.062.559,2.107,2.107,0,0,0,2.048,1.6c1.443,0,2.281-1.18,2.281-2.9,0-1.5-.791-2.793-2.234-2.793a2.179,2.179,0,0,0-2.064,1.692,2.223,2.223,0,0,0-.093.559Z" transform="translate(-301.279 -3.431)"/>
      <rect id="Rectángulo_388826" data-name="Rectángulo 388826" width="1.366" height="11.017" transform="translate(301.484)"/>
      <path id="Trazado_774379" data-name="Trazado 774379" d="M619.736,1.955a.846.846,0,0,1-1.691,0A.832.832,0,0,1,618.9,1.1a.811.811,0,0,1,.839.853m-1.521,2.11h1.366v7.511h-1.366Z" transform="translate(-313.379 -0.559)"/>
      <path id="Trazado_774380" data-name="Trazado 774380" d="M625.33,10.942a2.406,2.406,0,0,0,2.576,2.607,4.928,4.928,0,0,0,2.079-.388l.233.979a6.1,6.1,0,0,1-2.5.465,3.488,3.488,0,0,1-3.694-3.786c0-2.265,1.334-4.05,3.523-4.05,2.452,0,3.1,2.157,3.1,3.538a5.071,5.071,0,0,1-.047.636Zm4-.978a1.944,1.944,0,0,0-1.893-2.219,2.263,2.263,0,0,0-2.095,2.219Z" transform="translate(-316.412 -3.432)"/>
      <path id="Trazado_774381" data-name="Trazado 774381" d="M646.184,6.938c-.031.544-.062,1.149-.062,2.064v4.361c0,1.722-.341,2.777-1.071,3.429a3.984,3.984,0,0,1-2.731.9,4.849,4.849,0,0,1-2.5-.621l.341-1.04a4.237,4.237,0,0,0,2.2.59c1.4,0,2.421-.73,2.421-2.622v-.839h-.031a2.681,2.681,0,0,1-2.39,1.258c-1.862,0-3.2-1.583-3.2-3.663,0-2.545,1.66-3.987,3.383-3.987a2.5,2.5,0,0,1,2.343,1.3h.031l.062-1.133ZM644.772,9.9a1.944,1.944,0,0,0-.078-.621,1.967,1.967,0,0,0-1.908-1.443c-1.3,0-2.235,1.1-2.235,2.839,0,1.474.745,2.7,2.219,2.7a2,2,0,0,0,1.893-1.4,2.366,2.366,0,0,0,.109-.729Z" transform="translate(-324.09 -3.432)"/>
      <path id="Trazado_774382" data-name="Trazado 774382" d="M663.476,12.575c0,.776.015,1.459.062,2.048h-1.21l-.077-1.225h-.031a2.825,2.825,0,0,1-2.483,1.4c-1.18,0-2.592-.652-2.592-3.289V7.113h1.366v4.159c0,1.428.435,2.39,1.676,2.39a1.975,1.975,0,0,0,1.8-1.242,2,2,0,0,0,.123-.7V7.113h1.366Z" transform="translate(-333.205 -3.607)"/>
      <path id="Trazado_774383" data-name="Trazado 774383" d="M674.16,10.942a2.406,2.406,0,0,0,2.576,2.607,4.928,4.928,0,0,0,2.079-.388l.233.979a6.1,6.1,0,0,1-2.5.465,3.488,3.488,0,0,1-3.694-3.786c0-2.265,1.334-4.05,3.523-4.05,2.452,0,3.1,2.157,3.1,3.538a5.083,5.083,0,0,1-.047.636Zm4-.978a1.944,1.944,0,0,0-1.893-2.219,2.263,2.263,0,0,0-2.095,2.219Z" transform="translate(-341.171 -3.432)"/>
      <path id="Trazado_774384" data-name="Trazado 774384" d="M688.373,13.053a3.579,3.579,0,0,0,1.8.543c.993,0,1.459-.5,1.459-1.118,0-.652-.388-1.009-1.4-1.381-1.35-.481-1.986-1.226-1.986-2.126a2.317,2.317,0,0,1,2.592-2.2,3.751,3.751,0,0,1,1.846.465l-.341.993a2.922,2.922,0,0,0-1.537-.434c-.806,0-1.257.465-1.257,1.024,0,.621.45.9,1.428,1.272,1.3.5,1.97,1.149,1.97,2.266,0,1.319-1.024,2.25-2.808,2.25a4.275,4.275,0,0,1-2.11-.512Z" transform="translate(-348.866 -3.432)"/>
      <path id="Trazado_774385" data-name="Trazado 774385" d="M398.706,39.587a3.67,3.67,0,0,1-3.74,3.988,3.571,3.571,0,0,1-3.6-3.864,3.667,3.667,0,0,1,3.724-3.988,3.557,3.557,0,0,1,3.616,3.864m-5.959.078c0,1.644.946,2.886,2.281,2.886,1.3,0,2.281-1.226,2.281-2.917,0-1.273-.636-2.886-2.25-2.886s-2.312,1.49-2.312,2.917" transform="translate(-198.442 -18.113)"/>
      <path id="Trazado_774386" data-name="Trazado 774386" d="M415.934,31.693V33.85h1.955v1.04h-1.955V38.94c0,.931.264,1.459,1.024,1.459a3.045,3.045,0,0,0,.792-.093l.062,1.024a3.349,3.349,0,0,1-1.21.186,1.891,1.891,0,0,1-1.474-.574,2.783,2.783,0,0,1-.527-1.956v-4.1h-1.164V33.85H414.6v-1.8Z" transform="translate(-209.632 -16.07)"/>
      <path id="Trazado_774387" data-name="Trazado 774387" d="M428.51,43.4l-.109-.946h-.046a2.8,2.8,0,0,1-2.3,1.117,2.14,2.14,0,0,1-2.3-2.157c0-1.816,1.614-2.808,4.516-2.793v-.155a1.548,1.548,0,0,0-1.707-1.739,3.74,3.74,0,0,0-1.956.559l-.311-.9a4.665,4.665,0,0,1,2.468-.667c2.3,0,2.855,1.568,2.855,3.073V41.6a10.516,10.516,0,0,0,.124,1.8Zm-.2-3.833c-1.49-.031-3.181.233-3.181,1.692a1.208,1.208,0,0,0,1.288,1.3,1.87,1.87,0,0,0,1.816-1.258,1.427,1.427,0,0,0,.077-.434Z" transform="translate(-214.868 -18.113)"/>
      <path id="Trazado_774388" data-name="Trazado 774388" d="M439.377,39.972c.031-.512.062-1.272.062-1.94V28.955h1.35v4.717h.031a2.8,2.8,0,0,1,2.561-1.381c1.862,0,3.181,1.552,3.165,3.833,0,2.684-1.691,4.019-3.367,4.019a2.675,2.675,0,0,1-2.514-1.412h-.047l-.062,1.241Zm1.412-3.01a2.555,2.555,0,0,0,.062.5,2.107,2.107,0,0,0,2.048,1.6c1.428,0,2.281-1.164,2.281-2.886,0-1.5-.776-2.793-2.235-2.793a2.177,2.177,0,0,0-2.079,1.676,2.684,2.684,0,0,0-.077.559Z" transform="translate(-222.786 -14.682)"/>
      <rect id="Rectángulo_388827" data-name="Rectángulo 388827" width="1.366" height="11.017" transform="translate(225.174 14.273)"/>
      <path id="Trazado_774389" data-name="Trazado 774389" d="M469.826,39.587a3.67,3.67,0,0,1-3.74,3.988,3.571,3.571,0,0,1-3.6-3.864,3.667,3.667,0,0,1,3.724-3.988,3.557,3.557,0,0,1,3.616,3.864m-5.959.078c0,1.644.946,2.886,2.281,2.886,1.3,0,2.281-1.226,2.281-2.917,0-1.273-.636-2.886-2.25-2.886s-2.312,1.49-2.312,2.917" transform="translate(-234.503 -18.113)"/>
      <path id="Trazado_774390" data-name="Trazado 774390" d="M480.178,37.926c0-.776-.015-1.412-.062-2.033h1.21l.078,1.242h.031a2.761,2.761,0,0,1,2.483-1.413c1.039,0,2.654.621,2.654,3.2V43.4h-1.366v-4.33c0-1.21-.45-2.219-1.738-2.219a1.94,1.94,0,0,0-1.831,1.4,1.966,1.966,0,0,0-.093.636V43.4h-1.366Z" transform="translate(-243.442 -18.113)"/>
      <path id="Trazado_774391" data-name="Trazado 774391" d="M501.881,43.14a5.036,5.036,0,0,1-2.157.434,3.568,3.568,0,0,1-3.74-3.833,3.816,3.816,0,0,1,4.035-3.987,4.566,4.566,0,0,1,1.892.388L501.6,37.2a3.168,3.168,0,0,0-1.583-.357,2.6,2.6,0,0,0-2.654,2.84,2.575,2.575,0,0,0,2.607,2.809,3.87,3.87,0,0,0,1.676-.373Z" transform="translate(-251.488 -18.129)"/>
      <path id="Trazado_774392" data-name="Trazado 774392" d="M511.906,30.91a.846.846,0,0,1-1.691,0,.831.831,0,0,1,.853-.853.811.811,0,0,1,.839.853m-1.521,2.11h1.366v7.511h-1.366Z" transform="translate(-258.704 -15.24)"/>
      <path id="Trazado_774393" data-name="Trazado 774393" d="M518.065,31.693V33.85h1.955v1.04h-1.955V38.94c0,.931.264,1.459,1.024,1.459a3.046,3.046,0,0,0,.792-.093l.062,1.024a3.349,3.349,0,0,1-1.21.186,1.891,1.891,0,0,1-1.474-.574,2.783,2.783,0,0,1-.527-1.956v-4.1h-1.164V33.85h1.164v-1.8Z" transform="translate(-261.418 -16.07)"/>
      <path id="Trazado_774394" data-name="Trazado 774394" d="M533.139,39.587a3.67,3.67,0,0,1-3.74,3.988,3.571,3.571,0,0,1-3.6-3.864,3.667,3.667,0,0,1,3.724-3.988,3.557,3.557,0,0,1,3.616,3.864m-5.959.078c0,1.644.946,2.886,2.281,2.886,1.3,0,2.281-1.226,2.281-2.917,0-1.273-.636-2.886-2.25-2.886s-2.312,1.49-2.312,2.917" transform="translate(-266.606 -18.113)"/>
      <path id="Trazado_774395" data-name="Trazado 774395" d="M549.8,39.9a2.4,2.4,0,0,0,2.576,2.607,4.928,4.928,0,0,0,2.079-.388l.233.979a6.1,6.1,0,0,1-2.5.465,3.488,3.488,0,0,1-3.694-3.786c0-2.265,1.334-4.05,3.523-4.05,2.452,0,3.1,2.157,3.1,3.538a5.068,5.068,0,0,1-.047.636Zm4-.978a1.944,1.944,0,0,0-1.893-2.219,2.263,2.263,0,0,0-2.095,2.219Z" transform="translate(-278.115 -18.113)"/>
      <path id="Trazado_774396" data-name="Trazado 774396" d="M564.679,37.926c0-.776-.015-1.412-.062-2.033h1.21l.078,1.242h.031a2.761,2.761,0,0,1,2.483-1.413c1.039,0,2.654.621,2.654,3.2V43.4h-1.366v-4.33c0-1.21-.45-2.219-1.738-2.219a1.94,1.94,0,0,0-1.831,1.4,1.967,1.967,0,0,0-.093.636V43.4h-1.366Z" transform="translate(-286.288 -18.113)"/>
      <path id="Trazado_774397" data-name="Trazado 774397" d="M587.833,39.9a2.4,2.4,0,0,0,2.576,2.607,4.928,4.928,0,0,0,2.079-.388l.233.979a6.1,6.1,0,0,1-2.5.465,3.488,3.488,0,0,1-3.694-3.786c0-2.265,1.334-4.05,3.523-4.05,2.452,0,3.1,2.157,3.1,3.538a5.068,5.068,0,0,1-.047.636Zm4-.978a1.944,1.944,0,0,0-1.893-2.219,2.263,2.263,0,0,0-2.094,2.219Z" transform="translate(-297.399 -18.113)"/>
      <rect id="Rectángulo_388828" data-name="Rectángulo 388828" width="1.366" height="11.017" transform="translate(297.138 14.273)"/>
      <path id="Trazado_774398" data-name="Trazado 774398" d="M620.414,43.14a5.036,5.036,0,0,1-2.157.434,3.568,3.568,0,0,1-3.74-3.833,3.816,3.816,0,0,1,4.035-3.987,4.566,4.566,0,0,1,1.892.388l-.31,1.055a3.169,3.169,0,0,0-1.583-.357,2.6,2.6,0,0,0-2.654,2.84,2.575,2.575,0,0,0,2.607,2.809,3.87,3.87,0,0,0,1.676-.373Z" transform="translate(-311.59 -18.129)"/>
      <path id="Trazado_774399" data-name="Trazado 774399" d="M629.107,39.9a2.406,2.406,0,0,0,2.576,2.607,4.928,4.928,0,0,0,2.079-.388l.233.979a6.1,6.1,0,0,1-2.5.465,3.488,3.488,0,0,1-3.694-3.786c0-2.265,1.334-4.05,3.523-4.05,2.452,0,3.1,2.157,3.1,3.538a5.083,5.083,0,0,1-.047.636Zm4-.978a1.944,1.944,0,0,0-1.893-2.219,2.263,2.263,0,0,0-2.095,2.219Z" transform="translate(-318.327 -18.113)"/>
      <path id="Trazado_774400" data-name="Trazado 774400" d="M643.984,37.926c0-.776-.015-1.412-.062-2.033h1.21l.078,1.242h.031a2.761,2.761,0,0,1,2.483-1.413c1.039,0,2.654.621,2.654,3.2V43.4h-1.366v-4.33c0-1.21-.45-2.219-1.738-2.219a1.94,1.94,0,0,0-1.831,1.4,1.965,1.965,0,0,0-.093.636V43.4h-1.366Z" transform="translate(-326.5 -18.113)"/>
      <path id="Trazado_774401" data-name="Trazado 774401" d="M661.532,31.693V33.85h1.955v1.04h-1.955V38.94c0,.931.264,1.459,1.024,1.459a3.045,3.045,0,0,0,.792-.093l.062,1.024a3.349,3.349,0,0,1-1.21.186,1.891,1.891,0,0,1-1.474-.574,2.783,2.783,0,0,1-.527-1.956v-4.1h-1.164V33.85H660.2v-1.8Z" transform="translate(-334.162 -16.07)"/>
      <path id="Trazado_774402" data-name="Trazado 774402" d="M670.494,38.236c0-.885-.015-1.645-.062-2.343h1.195l.047,1.474h.062a2.253,2.253,0,0,1,2.079-1.645,1.5,1.5,0,0,1,.388.046v1.288a2.078,2.078,0,0,0-.465-.046,1.916,1.916,0,0,0-1.831,1.753,3.9,3.9,0,0,0-.062.636v4h-1.35Z" transform="translate(-339.942 -18.113)"/>
      <path id="Trazado_774403" data-name="Trazado 774403" d="M686.146,39.587a3.67,3.67,0,0,1-3.74,3.988,3.571,3.571,0,0,1-3.6-3.864,3.667,3.667,0,0,1,3.724-3.988,3.557,3.557,0,0,1,3.616,3.864m-5.959.078c0,1.644.946,2.886,2.281,2.886,1.3,0,2.281-1.226,2.281-2.917,0-1.273-.636-2.886-2.25-2.886s-2.312,1.49-2.312,2.917" transform="translate(-344.188 -18.113)"/>
      <path id="Trazado_774404" data-name="Trazado 774404" d="M468.949,57.911v9.077c0,.667.015,1.428.062,1.94h-1.226l-.062-1.3h-.031a2.778,2.778,0,0,1-2.561,1.474c-1.815,0-3.212-1.536-3.212-3.817-.016-2.5,1.536-4.035,3.367-4.035a2.512,2.512,0,0,1,2.266,1.149h.031V57.911Zm-1.366,6.563a2.419,2.419,0,0,0-.062-.574,2.009,2.009,0,0,0-1.971-1.583c-1.412,0-2.25,1.242-2.25,2.9,0,1.521.745,2.777,2.219,2.777a2.053,2.053,0,0,0,2-1.629,2.389,2.389,0,0,0,.062-.59Z" transform="translate(-234.216 -29.364)"/>
      <path id="Trazado_774405" data-name="Trazado 774405" d="M480.35,68.852a2.406,2.406,0,0,0,2.576,2.607A4.928,4.928,0,0,0,485,71.071l.233.979a6.1,6.1,0,0,1-2.5.465,3.488,3.488,0,0,1-3.694-3.786c0-2.265,1.334-4.05,3.523-4.05,2.452,0,3.1,2.157,3.1,3.538a5.083,5.083,0,0,1-.047.636Zm4-.978a1.945,1.945,0,0,0-1.894-2.219,2.263,2.263,0,0,0-2.095,2.219Z" transform="translate(-242.9 -32.795)"/>
      <rect id="Rectángulo_388829" data-name="Rectángulo 388829" width="1.366" height="11.017" transform="translate(247.134 28.547)"/>
      <path id="Trazado_774406" data-name="Trazado 774406" d="M511.689,72.358l-.109-.946h-.046a2.8,2.8,0,0,1-2.3,1.117,2.14,2.14,0,0,1-2.3-2.157c0-1.816,1.614-2.808,4.516-2.793v-.155a1.548,1.548,0,0,0-1.707-1.739,3.74,3.74,0,0,0-1.956.559l-.311-.9a4.665,4.665,0,0,1,2.468-.667c2.3,0,2.855,1.568,2.855,3.073v2.809a10.516,10.516,0,0,0,.124,1.8Zm-.2-3.833c-1.49-.031-3.181.233-3.181,1.692a1.208,1.208,0,0,0,1.288,1.3,1.87,1.87,0,0,0,1.816-1.258,1.427,1.427,0,0,0,.077-.434Z" transform="translate(-257.043 -32.794)"/>
      <path id="Trazado_774407" data-name="Trazado 774407" d="M528.929,68.852a2.4,2.4,0,0,0,2.576,2.607,4.928,4.928,0,0,0,2.079-.388l.233.979a6.1,6.1,0,0,1-2.5.465,3.488,3.488,0,0,1-3.694-3.786c0-2.265,1.334-4.05,3.523-4.05,2.452,0,3.1,2.157,3.1,3.538a5.083,5.083,0,0,1-.047.636Zm4-.978a1.944,1.944,0,0,0-1.893-2.219,2.263,2.263,0,0,0-2.095,2.219Z" transform="translate(-267.532 -32.795)"/>
      <path id="Trazado_774408" data-name="Trazado 774408" d="M543.14,70.963a3.58,3.58,0,0,0,1.8.543c.993,0,1.459-.5,1.459-1.118,0-.652-.388-1.009-1.4-1.381-1.35-.481-1.986-1.226-1.986-2.126a2.317,2.317,0,0,1,2.592-2.2,3.751,3.751,0,0,1,1.846.465l-.341.993a2.922,2.922,0,0,0-1.536-.434c-.806,0-1.257.465-1.257,1.024,0,.621.45.9,1.428,1.272,1.3.5,1.97,1.149,1.97,2.266,0,1.319-1.024,2.25-2.808,2.25A4.275,4.275,0,0,1,542.8,72Z" transform="translate(-275.226 -32.795)"/>
      <path id="Trazado_774409" data-name="Trazado 774409" d="M555.643,67.3c0-.962-.031-1.738-.062-2.452h1.226l.062,1.288h.031a2.952,2.952,0,0,1,2.669-1.459c1.816,0,3.181,1.536,3.181,3.817,0,2.7-1.644,4.034-3.414,4.034a2.635,2.635,0,0,1-2.312-1.179h-.031v4.081h-1.35Zm1.35,2a3.07,3.07,0,0,0,.062.559,2.107,2.107,0,0,0,2.048,1.6c1.443,0,2.281-1.18,2.281-2.9,0-1.5-.791-2.793-2.235-2.793a2.18,2.18,0,0,0-2.064,1.692,2.228,2.228,0,0,0-.093.559Z" transform="translate(-281.707 -32.795)"/>
      <path id="Trazado_774410" data-name="Trazado 774410" d="M576.544,72.358l-.109-.946h-.046a2.8,2.8,0,0,1-2.3,1.117,2.14,2.14,0,0,1-2.3-2.157c0-1.816,1.614-2.808,4.516-2.793v-.155a1.548,1.548,0,0,0-1.707-1.739,3.74,3.74,0,0,0-1.956.559l-.311-.9a4.665,4.665,0,0,1,2.468-.667c2.3,0,2.855,1.568,2.855,3.073v2.809a10.516,10.516,0,0,0,.124,1.8Zm-.2-3.833c-1.49-.031-3.181.233-3.181,1.692a1.208,1.208,0,0,0,1.288,1.3,1.87,1.87,0,0,0,1.816-1.258,1.427,1.427,0,0,0,.077-.434Z" transform="translate(-289.928 -32.794)"/>
      <rect id="Rectángulo_388830" data-name="Rectángulo 388830" width="1.366" height="11.017" transform="translate(289.626 28.547)"/>
      <path id="Trazado_774411" data-name="Trazado 774411" d="M600.265,57.911v9.077c0,.667.015,1.428.062,1.94H599.1l-.062-1.3h-.031a2.778,2.778,0,0,1-2.561,1.474c-1.815,0-3.212-1.536-3.212-3.817-.016-2.5,1.536-4.035,3.367-4.035a2.512,2.512,0,0,1,2.266,1.149h.031V57.911ZM598.9,64.474a2.419,2.419,0,0,0-.062-.574,2.009,2.009,0,0,0-1.971-1.583c-1.412,0-2.25,1.242-2.25,2.9,0,1.521.745,2.777,2.219,2.777a2.053,2.053,0,0,0,2-1.629,2.389,2.389,0,0,0,.062-.59Z" transform="translate(-300.8 -29.364)"/>
      <path id="Trazado_774412" data-name="Trazado 774412" d="M615.016,72.358l-.109-.946h-.046a2.8,2.8,0,0,1-2.3,1.117,2.14,2.14,0,0,1-2.3-2.157c0-1.816,1.614-2.808,4.516-2.793v-.155a1.548,1.548,0,0,0-1.707-1.739,3.74,3.74,0,0,0-1.955.559l-.311-.9a4.665,4.665,0,0,1,2.468-.667c2.3,0,2.855,1.568,2.855,3.073v2.809a10.523,10.523,0,0,0,.124,1.8Zm-.2-3.833c-1.49-.031-3.181.233-3.181,1.692a1.208,1.208,0,0,0,1.288,1.3,1.87,1.87,0,0,0,1.816-1.258,1.426,1.426,0,0,0,.077-.434Z" transform="translate(-309.435 -32.794)"/>
      <path id="Trazado_774413" data-name="Trazado 774413" d="M85.458,208.092v-2.746H80.772v-.9l4.5-6.44h1.474v6.269h1.412v1.071H86.746v2.746Zm0-3.817v-3.367q0-.791.047-1.583h-.047c-.31.59-.559,1.024-.838,1.489l-2.468,3.43v.031Z" transform="translate(-40.955 -100.399)"/>
      <path id="Trazado_774414" data-name="Trazado 774414" d="M108.958,210.3a5.026,5.026,0,0,1-2.157.435,3.568,3.568,0,0,1-3.74-3.833,3.816,3.816,0,0,1,4.035-3.988,4.565,4.565,0,0,1,1.892.388l-.31,1.055A3.169,3.169,0,0,0,107.1,204a2.831,2.831,0,0,0-.047,5.648,3.878,3.878,0,0,0,1.676-.372Z" transform="translate(-52.257 -102.888)"/>
      <path id="Trazado_774415" data-name="Trazado 774415" d="M117.574,205.088c0-.776-.015-1.412-.062-2.033h1.195l.062,1.21h.047a2.588,2.588,0,0,1,2.358-1.381,2.221,2.221,0,0,1,2.126,1.505h.031a3.088,3.088,0,0,1,.838-.978,2.562,2.562,0,0,1,1.66-.528c.993,0,2.467.652,2.467,3.259v4.422h-1.334v-4.252c0-1.443-.527-2.312-1.63-2.312a1.768,1.768,0,0,0-1.613,1.241,2.247,2.247,0,0,0-.109.683v4.64h-1.334v-4.5c0-1.194-.527-2.063-1.568-2.063a1.866,1.866,0,0,0-1.691,1.365,1.888,1.888,0,0,0-.109.667v4.531h-1.334Z" transform="translate(-59.584 -102.872)"/>
    </g>
  </g>
</svg>
