<svg id="Grupo_1098928" data-name="Grupo 1098928" xmlns="http://www.w3.org/2000/svg" xmlns:xlink="http://www.w3.org/1999/xlink" width="553.997" height="129.201" viewBox="0 0 553.997 129.201">
  <defs>
    <clipPath id="clip-path">
      <rect id="Rectángulo_388797" data-name="Rectángulo 388797" width="553.997" height="129.2" fill="none"/>
    </clipPath>
  </defs>
  <g id="Grupo_1098925" data-name="Grupo 1098925">
    <g id="Grupo_1098924" data-name="Grupo 1098924" clip-path="url(#clip-path)">
      <rect id="Rectángulo_388796" data-name="Rectángulo 388796" width="492.021" height="97.888" transform="translate(21.341 0.776)" fill="none" stroke="#000" stroke-miterlimit="10" stroke-width="2"/>
    </g>
  </g>
  <line id="Línea_524" data-name="Línea 524" x2="4.655" transform="translate(21.341 21.79)" fill="none" stroke="#000" stroke-miterlimit="10" stroke-width="2"/>
  <line id="Línea_525" data-name="Línea 525" x2="468.513" transform="translate(35.461 21.79)" fill="none" stroke="#000" stroke-miterlimit="10" stroke-width="2" stroke-dasharray="12.199 12.199"/>
  <line id="Línea_526" data-name="Línea 526" x2="4.655" transform="translate(508.707 21.79)" fill="none" stroke="#000" stroke-miterlimit="10" stroke-width="2"/>
  <line id="Línea_527" data-name="Línea 527" x2="4.655" transform="translate(21.341 79.192)" fill="none" stroke="#000" stroke-miterlimit="10" stroke-width="2"/>
  <line id="Línea_528" data-name="Línea 528" x2="468.513" transform="translate(35.461 79.192)" fill="none" stroke="#000" stroke-miterlimit="10" stroke-width="2" stroke-dasharray="12.199 12.199"/>
  <line id="Línea_529" data-name="Línea 529" x2="4.655" transform="translate(508.707 79.192)" fill="none" stroke="#000" stroke-miterlimit="10" stroke-width="2"/>
  <g id="Grupo_1098927" data-name="Grupo 1098927">
    <g id="Grupo_1098926" data-name="Grupo 1098926" clip-path="url(#clip-path)">
      <path id="Trazado_774098" data-name="Trazado 774098" d="M288.5,61.916l-1.632,4.942h-2.1l5.338-15.712h2.448l5.361,15.712h-2.168l-1.678-4.942Zm5.152-1.585-1.539-4.523c-.35-1.026-.583-1.958-.815-2.867h-.047c-.234.933-.49,1.888-.792,2.844l-1.539,4.546Z" transform="translate(-63.816 -11.462)"/>
      <path id="Trazado_774099" data-name="Trazado 774099" d="M304.689,51.147h2.028v14.01h6.714v1.7h-8.742Z" transform="translate(-68.28 -11.462)"/>
      <path id="Trazado_774100" data-name="Trazado 774100" d="M327,59.492H320.9v5.665H327.7v1.7H318.87V51.146h8.485v1.7H320.9v4.966H327Z" transform="translate(-71.458 -11.462)"/>
      <path id="Trazado_774101" data-name="Trazado 774101" d="M336.6,52.872h-4.779V51.146h11.632v1.726h-4.8V66.858H336.6Z" transform="translate(-74.36 -11.462)"/>
      <rect id="Rectángulo_388798" data-name="Rectángulo 388798" width="2.028" height="15.712" transform="translate(270.841 39.684)"/>
      <path id="Trazado_774102" data-name="Trazado 774102" d="M356.246,51.147h2.028v14.01h6.714v1.7h-8.742Z" transform="translate(-79.834 -11.462)"/>
      <path id="Trazado_774103" data-name="Trazado 774103" d="M370.428,51.147h2.028v14.01h6.714v1.7h-8.742Z" transform="translate(-83.012 -11.462)"/>
      <path id="Trazado_774104" data-name="Trazado 774104" d="M386.806,61.916l-1.632,4.942h-2.1l5.338-15.712h2.448l5.362,15.712h-2.168l-1.678-4.942Zm5.152-1.585-1.539-4.523c-.35-1.026-.583-1.958-.815-2.867h-.047c-.234.933-.49,1.888-.792,2.844l-1.539,4.546Z" transform="translate(-85.846 -11.462)"/>
      <path id="Trazado_774105" data-name="Trazado 774105" d="M9.264,1S-6.663,17.326,5.7,21.2" transform="translate(-0.224 -0.224)" fill="none" stroke="#000" stroke-miterlimit="10" stroke-width="2"/>
      <path id="Trazado_774106" data-name="Trazado 774106" d="M4.454,29.747l8.66-3.346L5.886,20.573Z" transform="translate(-0.998 -4.61)"/>
      <path id="Trazado_774107" data-name="Trazado 774107" d="M12.989,121.327S-2.938,105,9.429,101.129" transform="translate(-1.059 -22.663)" fill="none" stroke="#000" stroke-miterlimit="10" stroke-width="2"/>
      <path id="Trazado_774108" data-name="Trazado 774108" d="M9.611,104.939l7.228-5.827-8.66-3.346Z" transform="translate(-1.833 -21.461)"/>
      <line id="Línea_530" data-name="Línea 530" x2="13.945" transform="translate(522.587 77.65)" fill="none" stroke="#000" stroke-miterlimit="10" stroke-width="2"/>
      <line id="Línea_531" data-name="Línea 531" x2="13.945" transform="translate(522.587 98.664)" fill="none" stroke="#000" stroke-miterlimit="10" stroke-width="2"/>
      <line id="Línea_532" data-name="Línea 532" y2="19.955" transform="translate(529.56 79.192)" fill="none" stroke="#000" stroke-miterlimit="10" stroke-width="2"/>
      <path id="Trazado_774109" data-name="Trazado 774109" d="M564.628,154s147.3-12.383,108.664-39.881" transform="translate(-126.531 -25.574)" fill="none" stroke="#000" stroke-miterlimit="10" stroke-width="2"/>
      <path id="Trazado_774110" data-name="Trazado 774110" d="M706.3,110.678l-7.729-.338,3.57,6.863Z" transform="translate(-156.548 -24.727)"/>
    </g>
  </g>
</svg>
