<svg xmlns="http://www.w3.org/2000/svg" xmlns:xlink="http://www.w3.org/1999/xlink" width="281" height="265.381" viewBox="0 0 281 265.381">
  <defs>
    <linearGradient id="linear-gradient" x1="0.5" y1="0.893" x2="0.5" y2="1.796" gradientUnits="objectBoundingBox">
      <stop offset="0" stop-color="#645b94"/>
      <stop offset="0.451" stop-color="#514a78"/>
      <stop offset="1" stop-color="#756bad"/>
    </linearGradient>
    <linearGradient id="linear-gradient-2" x1="0" y1="0.5" x2="1" y2="0.5" xlink:href="#linear-gradient"/>
    <linearGradient id="linear-gradient-3" x1="0.43" y1="0.599" x2="-0.161" y2="1.416" xlink:href="#linear-gradient"/>
    <linearGradient id="linear-gradient-4" x1="0.821" y1="0.5" x2="1.821" y2="0.5" xlink:href="#linear-gradient"/>
    <linearGradient id="linear-gradient-5" x1="1.344" y1="0.599" x2="0.753" y2="1.416" xlink:href="#linear-gradient"/>
    <linearGradient id="linear-gradient-6" x1="0.5" y1="0.388" x2="0.5" y2="0.974" gradientUnits="objectBoundingBox">
      <stop offset="0" stop-color="#c5b8ff"/>
      <stop offset="1" stop-color="#735bde"/>
    </linearGradient>
  </defs>
  <g id="Grupo_1068155" data-name="Grupo 1068155" transform="translate(-222 -2217)">
    <g id="BACKGROUND" transform="translate(222 2231.553)">
      <g id="Grupo_32241" data-name="Grupo 32241">
        <path id="Trazado_61861" data-name="Trazado 61861" d="M107.593,113.449c13.888-.48,27.317,4.387,40.6,8.463s27.5,7.427,40.95,3.921c18.079-4.714,30.692-20.563,42.018-35.422s24.138-30.618,42.3-34.991c16.962-4.084,35.262,3.237,47.607,15.564s19.47,28.991,23.916,45.862c11.013,41.787,5.7,89.964-22.916,122.348-22.892,25.91-57.449,38.636-91.584,44.137-24.623,3.968-50.223,4.63-74.166-2.35a121.172,121.172,0,0,1-70-54.733C68.435,195.535,51.851,115.375,107.593,113.449Z" transform="translate(-69.318 -35.458)" fill="#673ab7"/>
        <path id="Trazado_61862" data-name="Trazado 61862" d="M190.642,99.253c16.719.31,34.721-5.844,47.226-14.573,6.933-4.839,13.13-11,16.83-18.605s4.679-16.756,1.453-24.57c-4.654-11.275-16.9-17.654-28.879-19.933a70.957,70.957,0,0,0-53.19,11.364c-10.739,7.488-22,18.146-24.783,31.482-3,14.368,9.37,25.391,21.548,30.776A51.267,51.267,0,0,0,190.642,99.253Z" transform="translate(-104.695 -20.373)" fill="#673ab7"/>
      </g>
    </g>
    <g id="Grupo_1067917" data-name="Grupo 1067917" transform="translate(20 -20)">
      <g id="Grupo_35523" data-name="Grupo 35523" transform="translate(201.791 2187)" style="isolation: isolate">
        <g id="Grupo_35522" data-name="Grupo 35522" transform="translate(143.636 50)">
          <g id="Grupo_35521" data-name="Grupo 35521">
            <path id="Trazado_67735" data-name="Trazado 67735" d="M262.61,96.427C259.969,79.061,243.16,77.435,238.9,77.711c-4.261-.276-21.069,1.35-23.711,18.716-1.887,12.409,4.659,36.952,6.057,41.032s12.981,10.475,14.445,11.038a9.436,9.436,0,0,0,6.417,0c1.462-.568,13.046-6.958,14.444-11.038S264.5,108.836,262.61,96.427Z" transform="translate(-171.474 -60.822)" fill="#f68a61"/>
            <path id="Trazado_67736" data-name="Trazado 67736" d="M194.117,336.8a52.351,52.351,0,0,0-2.673,10.8h76.611a52.346,52.346,0,0,0-2.673-10.8c-1.92-4.559-9.6-17.517-10.558-19.676s-2.639-13.917-2.639-13.917,11.758-44.87,11.758-50.149-6.958-18-6.958-18l-11.517-24.475-6-2.879-.192-19.671a54.542,54.542,0,0,1-6.316,3.594,9.436,9.436,0,0,1-6.418,0,53.828,53.828,0,0,1-6.316-3.592l-.193,19.669-6,2.879-11.518,24.475s-6.958,12.717-6.958,18,11.757,50.149,11.757,50.149-1.679,11.758-2.639,13.917S196.037,332.243,194.117,336.8Z" transform="translate(-162.324 -103.959)" fill="#f68a61"/>
            <path id="Trazado_67737" data-name="Trazado 67737" d="M291.786,249.536s6.958,12.717,6.958,18c0,2.413-2.458,13.1-5.126,23.993,2.3,17.236,5.246,38.874,5.246,38.874s1.44,16.2,1.527,20.876c0,.185.015.389.029.6a55.746,55.746,0,0,1,2.436,10.2h16.486c-.275-4.543-.658-10.079-1.042-12.957-.72-5.4-5.039-21.955-5.039-21.955l-5.4-64.787s-.36-24.475-3.239-28.793-24.148-8.518-24.148-8.518.075.325.2.869Z" transform="translate(-197.127 -118.431)" fill="#f68a61"/>
            <path id="Trazado_67738" data-name="Trazado 67738" d="M181,362.072a52.351,52.351,0,0,1,2.673-10.8c.087-4.679,1.527-20.876,1.527-20.876s2.883-21.183,5.172-38.326c-2.719-11.079-5.259-22.087-5.259-24.541,0-5.279,6.958-18,6.958-18l11.518-24.475s-21.269,4.2-24.148,8.518-3.239,28.793-3.239,28.793l-5.4,64.787s-4.319,16.557-5.039,21.955c-.384,2.878-.767,8.414-1.042,12.957Z" transform="translate(-151.878 -118.431)" fill="#f68a61"/>
            <path id="Trazado_67739" data-name="Trazado 67739" d="M209.954,316.642s-1.191,8.328-2.14,12.248a193.218,193.218,0,0,0,26.223,2.39,73.927,73.927,0,0,0,22.6-3.88c-.873-4.22-1.807-10.757-1.807-10.757s11.758-44.87,11.758-50.149-6.958-18-6.958-18l-11.518-24.475-3.355-1.61c2.792,7.187,8.822,23.462,7.521,26.8-1.68,4.319-33.833,7.918-40.552-.239-1.984-2.41,6.107-21.477,8.325-26.574l-3.373,1.619L205.155,248.5s-6.958,12.717-6.958,18S209.954,316.642,209.954,316.642Z" transform="translate(-164.964 -117.392)" fill="#ffe695"/>
            <path id="Trazado_67740" data-name="Trazado 67740" d="M206.161,432.11h46.806a63.06,63.06,0,0,1,14.632-7.9,26.828,26.828,0,0,0-1-2.9c-1.472-3.5-6.318-11.91-8.937-16.628-4.616,2.124-15.564,6.492-27.208,6.31-11.268-.176-21.351-4.478-25.933-6.76-2.547,4.611-7.667,13.468-9.186,17.079-.281.667-.535,1.409-.775,2.176A61.723,61.723,0,0,1,206.161,432.11Z" transform="translate(-163.543 -188.469)" fill="#ffe695"/>
            <path id="Trazado_67741" data-name="Trazado 67741" d="M247.217,197.632c3.8.456,7.977-4.28,10.535-7.818l-.017-1.774a54.542,54.542,0,0,1-6.316,3.594,9.436,9.436,0,0,1-6.418,0,53.828,53.828,0,0,1-6.316-3.592l-.016,1.636C240.948,193.334,244.078,197.255,247.217,197.632Z" transform="translate(-180.784 -103.959)" fill="#c66252"/>
            <g id="Grupo_35517" data-name="Grupo 35517" transform="translate(52.649 53.351)">
              <path id="Trazado_67742" data-name="Trazado 67742" d="M235.937,141.751c0,2.3-1.313,4.161-2.932,4.161s-2.932-1.863-2.932-4.161,1.313-4.161,2.932-4.161S235.937,139.453,235.937,141.751Z" transform="translate(-230.073 -137.59)" fill="#15001c"/>
              <path id="Trazado_67743" data-name="Trazado 67743" d="M274.443,141.751c0,2.3-1.313,4.161-2.932,4.161s-2.932-1.863-2.932-4.161,1.313-4.161,2.932-4.161S274.443,139.453,274.443,141.751Z" transform="translate(-245.125 -137.59)" fill="#15001c"/>
            </g>
            <g id="Grupo_35518" data-name="Grupo 35518" transform="translate(61.305 48.262)">
              <path id="Trazado_67744" data-name="Trazado 67744" d="M249.185,151.518a.357.357,0,0,1-.3-.164l-.233-.353c-1.3-1.954-2.064-3.306-1.87-4.005a3.207,3.207,0,0,1,1-1.241,4,4,0,0,0,.837-.933c1.4-2.919.71-6.756-.3-9.154l-.037-.088c-.786-1.863-1.975-4.679-3.8-5.668a.36.36,0,1,1,.343-.632c2.046,1.108,3.293,4.065,4.119,6.02l.037.087c1.071,2.538,1.791,6.612.29,9.746a4.366,4.366,0,0,1-1,1.149,3.147,3.147,0,0,0-.793.908c-.1.346.5,1.495,1.777,3.413l.238.361a.359.359,0,0,1-.3.555Z" transform="translate(-244.285 -129.234)" fill="#a33324"/>
            </g>
            <path id="Trazado_67745" data-name="Trazado 67745" d="M241.951,171.538a22.171,22.171,0,0,1,7.566-1.135,21.027,21.027,0,0,1,7.282,1.04,9.853,9.853,0,0,1-7.471,3.878C245.028,175.56,241.951,171.538,241.951,171.538Z" transform="translate(-182.067 -97.065)" fill="#dd3828"/>
            <path id="Trazado_67746" data-name="Trazado 67746" d="M237.992,170.736l.835.239c.531.164,1.286.345,2.206.532.456.106.957.186,1.487.265s1.093.122,1.67.206c1.162.1,2.4.178,3.647.157a34.2,34.2,0,0,0,6.8-.719c.914-.2,1.677-.39,2.2-.557l.83-.25-.778.388a16.884,16.884,0,0,1-2.144.83,22.3,22.3,0,0,1-3.172.752,25.462,25.462,0,0,1-3.728.312c-.638-.007-1.275-.015-1.9-.064-.627-.022-1.239-.127-1.832-.19a23.239,23.239,0,0,1-3.18-.719,15.861,15.861,0,0,1-2.154-.806Z" transform="translate(-180.52 -97.146)" fill="#bc1919"/>
            <path id="Trazado_67747" data-name="Trazado 67747" d="M262.453,125.136s1.98-3.419,5.219-2.34a40.647,40.647,0,0,1,7.019,3.419Z" transform="translate(-190.082 -78.374)" fill="#4e1815"/>
            <path id="Trazado_67748" data-name="Trazado 67748" d="M234.509,125.136s-1.98-3.419-5.219-2.34a40.656,40.656,0,0,0-7.018,3.419Z" transform="translate(-174.375 -78.374)" fill="#4e1815"/>
            <path id="Trazado_67749" data-name="Trazado 67749" d="M209.4,73.677a11.784,11.784,0,0,1,2.88-3.359c1.679-1.2-.24,2.4-.24,2.4s6.478-3.359,8.158-3.359-2.159,1.919-2.159,1.919,5.039-.719,6.238,1.92-.479,12.957,4.08,18,11.517,3.6,13.917,6.959-.72,8.878-.72,8.878l4.559-1.2s-4.185,17.978-5.339,21c-.78,2.04-7.811,7.254-7.811,7.254l.192,19.671,6,2.879s16.8,3.909,20.155,5.588,4.2,2.93,4.2,2.93l1.8,4.268s4.319-10.8,4.8-16.316-12.957-23.035-13.677-32.873,7.438-40.552,5.759-47.75S251.628,51.842,235.312,50.4s-29.034,1.2-30.234,4.559,1.68,7.918,1.68,7.918-12.477,2.159-14.637,7.918,4.079,47.749,2.159,58.068-18.236,16.8-18.956,22.8,9.6,12.237,9.6,12.237a87.776,87.776,0,0,1,14.157-5.039c6.958-1.68,8.638-2.229,8.638-2.229l6-2.879.193-19.669s-6.946-4.156-8.128-7.446-5.557-24.988-5.557-24.988,4.375-12.615,4.855-17.174-1.439-5.279-.24-7.678S209.4,73.677,209.4,73.677Z" transform="translate(-156.009 -50)" fill="#4e1815"/>
            <path id="Trazado_67750" data-name="Trazado 67750" d="M212.424,134.28c.36-.48,1.021-.273,1.742.207.848,6.116,2.178,12.325,3.35,17.1-2.019-.208-5.109-1.465-5.992-2.726C210.264,147.057,211.344,135.72,212.424,134.28Z" transform="translate(-169.952 -82.838)" fill="#f68a61"/>
            <g id="Grupo_35519" data-name="Grupo 35519" transform="translate(41.274 54.429)">
              <path id="Trazado_67751" data-name="Trazado 67751" d="M214.711,149.866l.81-.714-.139-.156c-2.73-3.051-2.643-3.937-2.552-4.135.073-.16.429-.259.945-.238l.757.018-.228-.721a28.718,28.718,0,0,0-1.949-4.561l-.956.5a29.144,29.144,0,0,1,1.656,3.73,1.509,1.509,0,0,0-1.2.816c-.61,1.322,1.137,3.53,2.728,5.308Z" transform="translate(-211.399 -139.36)" fill="#a33324"/>
            </g>
            <path id="Trazado_67752" data-name="Trazado 67752" d="M291.981,134.28c-.36-.48-1.022-.273-1.742.207-.848,6.116-2.178,12.325-3.35,17.1,2.019-.208,5.109-1.465,5.992-2.726C294.14,147.057,293.06,135.72,291.981,134.28Z" transform="translate(-199.634 -82.838)" fill="#f68a61"/>
            <g id="Grupo_35520" data-name="Grupo 35520" transform="translate(89.423 54.429)">
              <path id="Trazado_67753" data-name="Trazado 67753" d="M291.257,149.866l-.809-.714.139-.156c2.731-3.051,2.643-3.937,2.552-4.135-.074-.16-.429-.259-.945-.238l-.756.018.228-.721a28.78,28.78,0,0,1,1.949-4.561l.956.5a29.138,29.138,0,0,0-1.656,3.73,1.507,1.507,0,0,1,1.2.816c.61,1.322-1.137,3.53-2.728,5.308Z" transform="translate(-290.448 -139.36)" fill="#a33324"/>
            </g>
            <path id="Trazado_67754" data-name="Trazado 67754" d="M340.13,141.76l1.08-9.358,1.8,9,5.039,1.44L343.009,145l-.72,7.918-2.16-6.119-5.039-3.6Z" transform="translate(-218.476 -82.211)" fill="#ffd54f"/>
            <path id="Trazado_67755" data-name="Trazado 67755" d="M150.115,176.957l1.44-7.918,2.16,7.558,5.759,1.44-6.479,2.16-1.8,11.518L150.115,182l-6.479-4.679Z" transform="translate(-143.636 -96.532)" fill="#ffd54f"/>
            <path id="Trazado_67756" data-name="Trazado 67756" d="M179.865,62.681l2.16-8.278,1.08,7.558,5.759.72L183.1,65.2l-.72,10.438-2.159-10.8-4.679-2.159Z" transform="translate(-156.11 -51.721)" fill="#ffd54f"/>
          </g>
          <line id="Línea_63" data-name="Línea 63" y2="6.848" transform="translate(67.218 129.595)" fill="none" stroke="#c66252" stroke-miterlimit="10" stroke-width="1"/>
        </g>
        <path id="Trazado_67757" data-name="Trazado 67757" d="M205.19,323.308s19.251,11.384,30.045-7.837c0,0,7.6,17.019,29.844,7.745l-7.621,29.733,1.827,10.964-20.6,6.879-28.421-4.445,2.123-13.4Z" transform="translate(-24.061 -103.772)" fill="#f68a61"/>
      </g>
      <g id="Grupo_35528" data-name="Grupo 35528" transform="translate(229.715 2242)" style="isolation: isolate">
        <g id="Grupo_35524" data-name="Grupo 35524" transform="translate(2.749 0)">
          <path id="Trazado_67758" data-name="Trazado 67758" d="M13.727,55.089a1.3,1.3,0,0,1-.9-.374,1.9,1.9,0,0,1-.213-2.371c5.714-8.372,4.437-19.6,3.168-25.54-1.774-8.313-4.936-13.714-5.9-14.189a1.688,1.688,0,0,1-1.064-2,1.456,1.456,0,0,1,1.722-1.279c2.426.63,5.212,6.63,6.895,12.3,1.807,6.076,5.166,21.436-2.606,32.83A1.356,1.356,0,0,1,13.727,55.089Z" transform="translate(-8.791 -9.294)" fill="#895cd8"/>
        </g>
        <g id="Grupo_35525" data-name="Grupo 35525" transform="translate(0.94 0.004)">
          <path id="Trazado_67759" data-name="Trazado 67759" d="M12.69,47.625a1.42,1.42,0,0,1-1.058-.471C8.147,43.293,6.4,19.839,9.763,10.247a1.426,1.426,0,0,1,2.691.945c-3.333,9.509-.982,31.527,1.3,34.053a1.426,1.426,0,0,1-1.06,2.38Z" transform="translate(-7.958 -9.296)" fill="#d2bef6"/>
        </g>
        <path id="Trazado_67760" data-name="Trazado 67760" d="M19.192,34.118c10.1-4.871,25.3-1.961,26.965,2.791S48,45.045,42.177,42.73s-12-3.766-20.554.914S19.192,34.118,19.192,34.118Z" transform="translate(3.659 16.845)" fill="#895cd8"/>
        <path id="Trazado_67761" data-name="Trazado 67761" d="M8.246,34.218c.237,5.286,6.376,14.046,16.83,13.095S39.867,39,38.738,34.485,8.246,34.218,8.246,34.218Z" transform="translate(-6.681 17.785)" fill="#895cd8"/>
        <path id="Trazado_67762" data-name="Trazado 67762" d="M21.445,54.147c-14.287,0-15.77-21.106-12.413-28.487S41.819,36.346,40.1,43.71C38.075,52.776,28.55,54.147,21.445,54.147Z" transform="translate(-7.525 7.843)" fill="#d2bef6"/>
        <path id="Trazado_67763" data-name="Trazado 67763" d="M57.262,34.218c-.239,5.286-6.378,14.046-16.832,13.095S25.641,39,26.768,34.485,57.262,34.218,57.262,34.218Z" transform="translate(14.816 17.785)" fill="#895cd8"/>
        <g id="Grupo_35526" data-name="Grupo 35526" transform="translate(59.947 0)">
          <path id="Trazado_67764" data-name="Trazado 67764" d="M41.141,55.089a1.29,1.29,0,0,0,.895-.374,1.9,1.9,0,0,0,.213-2.371c-5.711-8.372-4.437-19.6-3.168-25.54,1.774-8.313,4.938-13.714,5.9-14.189a1.684,1.684,0,0,0,1.064-2,1.454,1.454,0,0,0-1.72-1.279c-2.428.63-5.212,6.63-6.9,12.3-1.8,6.076-5.166,21.436,2.608,32.83A1.35,1.35,0,0,0,41.141,55.089Z" transform="translate(-35.13 -9.294)" fill="#895cd8"/>
        </g>
        <path id="Trazado_67765" data-name="Trazado 67765" d="M45.131,54.147c14.289,0,15.772-21.106,12.415-28.487S24.757,36.346,26.473,43.71C28.5,52.776,38.028,54.147,45.131,54.147Z" transform="translate(14.59 7.843)" fill="#d2bef6"/>
        <g id="Grupo_35527" data-name="Grupo 35527" transform="translate(66.543 0.002)">
          <path id="Trazado_67766" data-name="Trazado 67766" d="M39.593,47.626a1.426,1.426,0,0,1-1.06-2.38c2.28-2.526,4.63-24.544,1.3-34.053a1.426,1.426,0,0,1,2.691-.945c3.359,9.594,1.616,33.045-1.872,36.909A1.422,1.422,0,0,1,39.593,47.626Z" transform="translate(-38.167 -9.295)" fill="#d2bef6"/>
        </g>
      </g>
      <g id="Grupo_35537" data-name="Grupo 35537" transform="translate(229.714 2322.537)" style="isolation: isolate">
        <path id="Trazado_67767" data-name="Trazado 67767" d="M219.927,82.341c8.212,6.346,23.57,3.627,26.928-.213s-.379-7.068-.379-7.068-1.273,3.655-14.392,3.495-13.544-2.293-13.544-2.293Z" transform="translate(-196.363 -17.817)" fill="url(#linear-gradient)"/>
        <path id="Trazado_67768" data-name="Trazado 67768" d="M219.927,81.125c8.212,6.346,23.57,3.625,26.928-.215s-.379-7.066-.379-7.066S245.2,77.5,232.084,77.34s-13.544-2.293-13.544-2.293Z" transform="translate(-196.363 -19.16)" fill="#080033"/>
        <g id="Grupo_35532" data-name="Grupo 35532" transform="translate(0 0)">
          <g id="Grupo_35529" data-name="Grupo 35529" transform="translate(2.931)">
            <path id="Trazado_67769" data-name="Trazado 67769" d="M213.576,95.079c-6.125-7.844-5.355-36.975,1.21-45.842.848-1.147,1.742-1.582,2.641-1.3,5.426,1.7,5.649,37.615,4.151,46.117l-1.185-.149c1.925-10.931.568-43.778-3.383-45.015-.252-.084-.728.238-1.208.886-6.251,8.442-7.042,37.291-1.225,44.739Z" transform="translate(-209.393 -47.855)" fill="url(#linear-gradient-2)"/>
          </g>
          <g id="Grupo_35531" data-name="Grupo 35531" transform="translate(0 37.716)">
            <path id="Trazado_67770" data-name="Trazado 67770" d="M209.108,78.372c-.33,3.1.421,8.229,1.595,9.456s12.477,2.773,19.943.213,5.866-10.079,5.866-10.079S209.592,73.823,209.108,78.372Z" transform="translate(-206.863 -54.234)" fill="#080033"/>
            <path id="Trazado_67771" data-name="Trazado 67771" d="M236.481,77.961s-26.92-4.139-27.4.41c-.011.1-.011.21-.019.311a18.743,18.743,0,0,0,2.535,5.559c3.783,5.037,17.561,3.388,24.288-.831A10.107,10.107,0,0,0,236.481,77.961Z" transform="translate(-206.832 -54.234)" opacity="0.3"/>
            <path id="Trazado_67772" data-name="Trazado 67772" d="M241.1,87.509a4.915,4.915,0,0,0-3.247-4.536,4.591,4.591,0,0,0,.366-1.772,5.016,5.016,0,0,0-4.667-4.852c0-.09.027-.175.027-.267a5.073,5.073,0,0,0-5.224-4.9,5.323,5.323,0,0,0-.69.065,5.148,5.148,0,0,0-5.123-3.958,5.485,5.485,0,0,0-2.222.48,5.318,5.318,0,0,0-4.177-1.984,5.2,5.2,0,0,0-4.917,3.3c-5.235,6.384-2.38,21.007,1.147,25.706,4.063,5.412,19.669,3.11,25.668-1.807C240.591,90.894,241.1,89.281,241.1,87.509Z" transform="translate(-207.611 -65.78)" fill="#361274"/>
            <path id="Trazado_67773" data-name="Trazado 67773" d="M213.449,93.367c-3.529-4.7-6.384-19.322-1.147-25.706a4.836,4.836,0,0,1,.892-1.462,4.983,4.983,0,0,0-1.972,2.422c-5.237,6.384-2.382,21.007,1.147,25.706,4.063,5.412,19.667,3.11,25.668-1.807.377-.307.694-.6.987-.892C232.964,96.5,217.493,98.753,213.449,93.367Z" transform="translate(-207.616 -65.317)" fill="#e2c4ff" opacity="0.1"/>
            <path id="Trazado_67774" data-name="Trazado 67774" d="M236.53,82.972A4.591,4.591,0,0,0,236.9,81.2a5.016,5.016,0,0,0-4.667-4.852c0-.09.027-.175.027-.267a5.073,5.073,0,0,0-5.224-4.9,5.323,5.323,0,0,0-.69.065,5.148,5.148,0,0,0-5.123-3.958,5.485,5.485,0,0,0-2.222.48,5.318,5.318,0,0,0-4.177-1.984,5.2,5.2,0,0,0-4.917,3.3c-.128.158-.231.341-.351.509,13.641,4.339,22.4,14.76,27.479,23.113,2.26-1.955,2.746-3.505,2.746-5.2A4.915,4.915,0,0,0,236.53,82.972Z" transform="translate(-206.288 -65.78)" fill="#ba68c8"/>
            <g id="Grupo_35530" data-name="Grupo 35530" transform="translate(3.263)" opacity="0.1">
              <path id="Trazado_67775" data-name="Trazado 67775" d="M214.538,67.465a5.318,5.318,0,0,1,4.179,1.986,5.444,5.444,0,0,1,2.222-.482,5.15,5.15,0,0,1,5.123,3.958,5.687,5.687,0,0,1,.688-.065,5.074,5.074,0,0,1,5.227,4.907c0,.09-.025.175-.029.265a5.023,5.023,0,0,1,4.654,4.715A4.53,4.53,0,0,0,236.9,81.2a5.016,5.016,0,0,0-4.667-4.852c0-.09.027-.175.027-.267a5.073,5.073,0,0,0-5.224-4.9,5.323,5.323,0,0,0-.69.065,5.148,5.148,0,0,0-5.123-3.958,5.485,5.485,0,0,0-2.222.48,5.318,5.318,0,0,0-4.177-1.984,5.2,5.2,0,0,0-4.917,3.3c-.128.158-.231.341-.351.509.21.067.4.164.6.234A5.214,5.214,0,0,1,214.538,67.465Z" transform="translate(-209.551 -65.78)" fill="#fff"/>
              <path id="Trazado_67776" data-name="Trazado 67776" d="M222.24,75.615a4.918,4.918,0,0,1,3.245,4.536c0,.078-.006.154-.008.231a5.909,5.909,0,0,0,.29-1.917,4.9,4.9,0,0,0-3.175-4.5A4.641,4.641,0,0,1,222.24,75.615Z" transform="translate(-195.541 -56.738)" fill="#fff"/>
            </g>
            <path id="Trazado_67777" data-name="Trazado 67777" d="M210.119,67.34l-.013.021a9.445,9.445,0,0,0-.741,1.075C222.9,72.71,231.636,83.121,236.7,91.421c.072-.055.156-.105.223-.162.282-.229.528-.45.76-.669C232.53,82.195,223.71,71.767,210.119,67.34Z" transform="translate(-206.492 -64.058)" fill="url(#linear-gradient-3)"/>
          </g>
        </g>
        <g id="Grupo_35536" data-name="Grupo 35536" transform="translate(37.874 0)">
          <g id="Grupo_35533" data-name="Grupo 35533" transform="translate(18.638)">
            <path id="Trazado_67778" data-name="Trazado 67778" d="M243.655,95.079c6.125-7.844,5.355-36.975-1.21-45.842-.848-1.147-1.742-1.582-2.641-1.3-5.426,1.7-5.649,37.615-4.151,46.117l1.185-.149c-1.925-10.931-.568-43.778,3.383-45.015.252-.084.728.238,1.208.886,6.251,8.442,7.042,37.291,1.225,44.739Z" transform="translate(-234.858 -47.855)" fill="url(#linear-gradient-4)"/>
          </g>
          <g id="Grupo_35535" data-name="Grupo 35535" transform="translate(0 37.716)">
            <path id="Trazado_67779" data-name="Trazado 67779" d="M255.808,78.372c.33,3.1-.421,8.229-1.595,9.456s-12.477,2.773-19.943.213S228.4,77.961,228.4,77.961,255.324,73.823,255.808,78.372Z" transform="translate(-223.504 -54.234)" fill="#080033"/>
            <path id="Trazado_67780" data-name="Trazado 67780" d="M228.4,77.961s26.92-4.139,27.4.41c.011.1.011.21.019.311a18.742,18.742,0,0,1-2.535,5.559c-3.783,5.037-17.561,3.388-24.288-.831A10.107,10.107,0,0,1,228.4,77.961Z" transform="translate(-223.501 -54.234)" opacity="0.3"/>
            <path id="Trazado_67781" data-name="Trazado 67781" d="M226.5,87.509a4.915,4.915,0,0,1,3.247-4.536,4.592,4.592,0,0,1-.366-1.772,5.016,5.016,0,0,1,4.667-4.852c0-.09-.027-.175-.027-.267a5.073,5.073,0,0,1,5.224-4.9,5.324,5.324,0,0,1,.69.065,5.148,5.148,0,0,1,5.123-3.958,5.485,5.485,0,0,1,2.222.48,5.321,5.321,0,0,1,4.177-1.984,5.2,5.2,0,0,1,4.917,3.3c5.235,6.384,2.38,21.007-1.147,25.706-4.063,5.412-19.669,3.11-25.668-1.807C227.013,90.894,226.5,89.281,226.5,87.509Z" transform="translate(-225.443 -65.78)" fill="#361274"/>
            <path id="Trazado_67782" data-name="Trazado 67782" d="M253.068,93.367c3.529-4.7,6.384-19.322,1.147-25.706a4.835,4.835,0,0,0-.892-1.462,4.982,4.982,0,0,1,1.972,2.422c5.237,6.384,2.382,21.007-1.147,25.706-4.063,5.412-19.667,3.11-25.668-1.807-.377-.307-.694-.6-.987-.892C233.553,96.5,249.024,98.753,253.068,93.367Z" transform="translate(-224.352 -65.317)" fill="#e2c4ff" opacity="0.1"/>
            <path id="Trazado_67783" data-name="Trazado 67783" d="M229.751,82.972a4.592,4.592,0,0,1-.366-1.772,5.016,5.016,0,0,1,4.667-4.852c0-.09-.027-.175-.027-.267a5.073,5.073,0,0,1,5.224-4.9,5.324,5.324,0,0,1,.69.065,5.148,5.148,0,0,1,5.123-3.958,5.485,5.485,0,0,1,2.222.48,5.321,5.321,0,0,1,4.177-1.984,5.2,5.2,0,0,1,4.917,3.3c.128.158.231.341.351.509-13.641,4.339-22.4,14.76-27.479,23.113-2.26-1.955-2.746-3.505-2.746-5.2A4.915,4.915,0,0,1,229.751,82.972Z" transform="translate(-225.443 -65.78)" fill="#ba68c8"/>
            <g id="Grupo_35534" data-name="Grupo 35534" transform="translate(1.06)" opacity="0.1">
              <path id="Trazado_67784" data-name="Trazado 67784" d="M250.231,67.465a5.318,5.318,0,0,0-4.179,1.986,5.444,5.444,0,0,0-2.222-.482,5.15,5.15,0,0,0-5.123,3.958,5.687,5.687,0,0,0-.688-.065,5.074,5.074,0,0,0-5.227,4.907c0,.09.025.175.029.265a5.023,5.023,0,0,0-4.654,4.715,4.531,4.531,0,0,1-.295-1.549,5.016,5.016,0,0,1,4.667-4.852c0-.09-.027-.175-.027-.267a5.073,5.073,0,0,1,5.224-4.9,5.324,5.324,0,0,1,.69.065,5.148,5.148,0,0,1,5.123-3.958,5.485,5.485,0,0,1,2.222.48,5.321,5.321,0,0,1,4.177-1.984,5.194,5.194,0,0,1,4.917,3.3c.128.158.231.341.351.509-.21.067-.4.164-.6.234A5.214,5.214,0,0,0,250.231,67.465Z" transform="translate(-224.992 -65.78)" fill="#fff"/>
              <path id="Trazado_67785" data-name="Trazado 67785" d="M230.03,75.615a4.918,4.918,0,0,0-3.245,4.536c0,.078.006.154.008.231a5.908,5.908,0,0,1-.29-1.917,4.9,4.9,0,0,1,3.175-4.5A4.641,4.641,0,0,0,230.03,75.615Z" transform="translate(-226.504 -56.738)" fill="#fff"/>
            </g>
            <path id="Trazado_67786" data-name="Trazado 67786" d="M255.158,67.34l.013.021a9.44,9.44,0,0,1,.741,1.075c-13.531,4.273-22.27,14.684-27.332,22.985-.072-.055-.156-.105-.223-.162-.282-.229-.528-.45-.76-.669C232.748,82.195,241.568,71.767,255.158,67.34Z" transform="translate(-224.237 -64.058)" fill="url(#linear-gradient-5)"/>
          </g>
        </g>
      </g>
      <g id="Grupo_35538" data-name="Grupo 35538" transform="translate(235.575 2406.065)" style="isolation: isolate">
        <path id="Trazado_67787" data-name="Trazado 67787" d="M11.8,205.076c4.153,1.108,6.585,13.006,6.408,26.906s-3.1,21.786-3.1,21.786l-2.233-3.748s3.011-7.578,3.109-24.56-3.533-18.7-3.533-18.7Z" transform="translate(-4.73 -205.068)" fill="#ffd54f"/>
        <path id="Trazado_67788" data-name="Trazado 67788" d="M9.691,247.42c-.228-17.611,2.879-40.085,3.369-41.864.23-.821,2.059-1.372,1.409,5.1s-1.688,31.923-1.4,36.767S9.749,251.842,9.691,247.42Z" transform="translate(-6.606 -205.072)" fill="#ffe695"/>
        <path id="Trazado_67789" data-name="Trazado 67789" d="M39.279,205.076c-4.153,1.108-6.585,13.006-6.408,26.906s3.1,21.786,3.1,21.786L38.2,250.02s-3.011-7.578-3.109-24.56,3.533-18.7,3.533-18.7Z" transform="translate(13.892 -205.068)" fill="#ffd54f"/>
        <path id="Trazado_67790" data-name="Trazado 67790" d="M40.69,247.42c.23-17.611-2.879-40.085-3.367-41.864-.23-.821-2.059-1.372-1.411,5.1s1.69,31.923,1.406,36.767S40.634,251.842,40.69,247.42Z" transform="translate(16.466 -205.072)" fill="#ffe695"/>
        <path id="Trazado_67791" data-name="Trazado 67791" d="M8.176,234.587c.552,8.59,1.534,14.747,2.259,16.846,1.475,4.281,17.766,1.59,29.928,1.417,12.484-.177,26.3.974,28.07-1.86s1.453-12.322,1.3-15.849-4.224,4.6-23,5.136-22.934-1.594-24.528-2.125S8.176,234.587,8.176,234.587Z" transform="translate(-7.935 -179.268)" fill="#707070"/>
        <path id="Trazado_67792" data-name="Trazado 67792" d="M69.7,234.786c-.454-2.551-4.916,4.978-22.958,5.489-18.772.531-22.934-1.594-24.528-2.125-1.569-.524-13.66-3.467-14.035-3.565.192,4.477.978,8.582,3.135,11.49,6.276,8.467,21.764,1.093,27.509.944s17.24,6.911,26.876.435C68.968,245.252,69.931,240.231,69.7,234.786Z" transform="translate(-7.935 -179.265)" fill="#b492f1" opacity="0.4"/>
        <path id="Trazado_67793" data-name="Trazado 67793" d="M13.262,224.44c2.327-.43,9.426,21.792,25.692,21.881s21.587-22.446,24.59-22.958,11.173,26.357,2.265,32.345c-9.636,6.476-21.133-.584-26.876-.435S17.7,262.8,11.423,254.328,8.724,225.279,13.262,224.44Z" transform="translate(-8.048 -188.906)" fill="#ffd54f"/>
        <path id="Trazado_67794" data-name="Trazado 67794" d="M13.259,226.624c2.327-.43,9.425,21.792,25.692,21.881s21.587-22.446,24.59-22.958c1.929-.33,5.984,10.64,6.28,20.117.354-9.88-4.2-22.657-6.28-22.3-3,.512-8.322,23.047-24.59,22.958s-23.365-22.31-25.692-21.881c-2.909.537-5.421,9.2-5.195,17.577C8.278,234.381,10.6,227.116,13.259,226.624Z" transform="translate(-8.046 -188.906)" fill="#fff" opacity="0.2"/>
        <path id="Trazado_67795" data-name="Trazado 67795" d="M65.807,246.683c-9.636,6.476-21.133-.584-26.876-.435S17.7,253.771,11.423,245.3c-2.331-3.143-3.3-7.955-3.371-12.808-.049,5.166.889,10.406,3.371,13.752,6.276,8.467,21.764,1.093,27.509.944s17.24,6.911,26.876.435c3.094-2.08,4.126-6.681,4.03-11.778C69.792,240.563,68.708,244.733,65.807,246.683Z" transform="translate(-8.046 -180.825)" fill="#fff" opacity="0.1"/>
        <path id="Trazado_67796" data-name="Trazado 67796" d="M65.808,244.489c-9.636,6.476-21.133-.582-26.876-.435s-21.233,7.523-27.509-.944c-2.118-2.854-3.109-7.086-3.327-11.473-.275,5.664.586,11.672,3.327,15.369,6.276,8.467,21.764,1.093,27.509.944s17.24,6.911,26.876.435c3.378-2.27,4.3-7.544,3.977-13.189C69.532,239.262,68.39,242.755,65.808,244.489Z" transform="translate(-8.048 -181.584)" opacity="0.1" fill="url(#linear-gradient-6)" style="mix-blend-mode: multiply;isolation: isolate"/>
      </g>
    </g>
  </g>
</svg>
