<svg xmlns="http://www.w3.org/2000/svg" width="229.107" height="247.999" viewBox="0 0 229.107 247.999">
  <g id="Grupo_1068161" data-name="Grupo 1068161" transform="translate(-227.156 -15716.453)">
    <g id="BACKGROUND" transform="translate(227.156 15733.809)">
      <g id="Grupo_32241" data-name="Grupo 32241">
        <path id="Trazado_61861" data-name="Trazado 61861" d="M100.525,102.523c11.323-.391,22.272,3.577,33.1,6.9s22.424,6.056,33.387,3.2c14.74-3.843,25.024-16.766,34.259-28.881s19.681-24.964,34.491-28.529c13.829-3.329,28.75,2.639,38.816,12.69s15.874,23.638,19.5,37.393c8.979,34.07,4.645,73.35-18.684,99.754-18.665,21.125-46.84,31.5-74.671,35.986-20.076,3.235-40.948,3.775-60.47-1.916A98.8,98.8,0,0,1,83.18,194.491C68.6,169.45,55.076,104.093,100.525,102.523Z" transform="translate(-69.318 -38.934)" fill="#ffd54f"/>
        <path id="Trazado_61862" data-name="Trazado 61862" d="M182.923,84.686c13.631.253,28.309-4.765,38.5-11.882,5.652-3.945,10.7-8.972,13.722-15.17s3.815-13.661,1.185-20.033c-3.794-9.193-13.776-14.394-23.546-16.252a57.853,57.853,0,0,0-43.367,9.265c-8.755,6.105-17.934,14.8-20.207,25.668-2.449,11.715,7.639,20.7,17.568,25.093A41.8,41.8,0,0,0,182.923,84.686Z" transform="translate(-112.848 -20.373)" fill="#ffd54f"/>
      </g>
    </g>
    <g id="Grupo_1067867" data-name="Grupo 1067867">
      <g id="Grupo_35550" data-name="Grupo 35550" transform="translate(227.156 15811.119)">
        <g id="Grupo_35547" data-name="Grupo 35547">
          <path id="Trazado_67802" data-name="Trazado 67802" d="M114.921,272.24a53.841,53.841,0,0,0-1.345-13.274,55,55,0,0,0-4.54-12.562,53.689,53.689,0,0,0-7.7-11.349c-.179-.2-.366-.4-.549-.6a29.681,29.681,0,0,0-1.247-8.8,31.387,31.387,0,0,0-4.284-8.907q-.8-1.149-1.7-2.221a17.849,17.849,0,0,0-1.981-1.988c-.133-.116-.33.094-.213.224,1.083,1.2,2.158,2.438,3.117,3.746a30.941,30.941,0,0,1,2.57,4.168,31.289,31.289,0,0,1,3.042,9.264,31.914,31.914,0,0,1,.4,4.189,55.146,55.146,0,0,0-10.16-8.587,54.382,54.382,0,0,0-13.116-6.3c-.583-.188-1.173-.356-1.765-.517-.375-.1-.6.459-.216.573a56.758,56.758,0,0,1,13.22,5.788,54.675,54.675,0,0,1,11.26,9.042c.265.279.522.564.782.848,0,.167.006.334,0,.5s.258.2.265.024c0-.076,0-.152,0-.229a53,53,0,0,1,7.046,9.934c.3.545.586,1.1.866,1.652a51.719,51.719,0,0,0-12.95-7.334,60.291,60.291,0,0,0-15.015-3.89c-1.44-.18-2.886-.31-4.336-.379-.734-.034-1.467-.057-2.2-.048s-1.441.085-2.159.158a.171.171,0,0,0,.013.337c.646.037,1.292.106,1.939.127s1.3.044,1.949.075q1.9.087,3.791.289a59.122,59.122,0,0,1,7.6,1.32,60.774,60.774,0,0,1,14.321,5.452,84.157,84.157,0,0,1,7.357,4.517,55.223,55.223,0,0,1,3.729,9.97,54.6,54.6,0,0,1,1.853,13.113q.014.819,0,1.639C114.57,272.431,114.916,272.466,114.921,272.24Z" transform="translate(-67.403 -207.31)" fill="#888a5c"/>
          <path id="Trazado_67803" data-name="Trazado 67803" d="M107.181,205.665c-.474,3.494-5.485,3.873-7.461,1.649-.871-.981-1.592-4.849.564-3.087a3.449,3.449,0,0,1,.853,1.308l.759-2.411a3.283,3.283,0,0,1,1.961,2.221,1.6,1.6,0,0,1,1.647-2.1A2.154,2.154,0,0,1,107.181,205.665Z" transform="translate(-79.439 -203.124)" fill="#a3936d"/>
          <path id="Trazado_67804" data-name="Trazado 67804" d="M75.334,220.957a4.531,4.531,0,0,1-5.5.695,3.492,3.492,0,0,1,1.936-2.111,2.288,2.288,0,0,1-2.213.007,1.481,1.481,0,0,1-.5-2.006,1.1,1.1,0,0,1,1.855.2,1.394,1.394,0,0,1,.118-2.234,2.473,2.473,0,0,1,2.529.092,4.284,4.284,0,0,1,1.4,5.882" transform="translate(-66.046 -208.51)" fill="#888a5c"/>
          <path id="Trazado_67805" data-name="Trazado 67805" d="M66.84,255.276c1.505.461,2.779-1.906,2.537-3.18-.3-1.58-2.225-2.363-3.6-2.883-.444-.311-1-.635-1.495-.412a1.1,1.1,0,0,0-.234,1.62,3.174,3.174,0,0,0,1.6.925,1.384,1.384,0,1,0,.971,1.919C65.774,253.555,65.988,255.014,66.84,255.276Z" transform="translate(-63.796 -223.465)" fill="#a3936d"/>
        </g>
        <g id="Grupo_35548" data-name="Grupo 35548" transform="translate(23.767 15.227)">
          <path id="Trazado_67806" data-name="Trazado 67806" d="M106.741,244.842a4.817,4.817,0,0,1,2.25-4.841,3.5,3.5,0,0,1,4.776,1.559c-.2-2.877.627-6.035,2.949-7.745s6.264-1.156,7.349,1.516c.546-3.676,5.267-5.726,8.666-4.224s5.15,5.593,4.71,9.284-2.689,6.955-5.42,9.476a18.964,18.964,0,0,1-9.161,4.917C117.111,255.869,107.58,251.331,106.741,244.842Z" transform="translate(-106.699 -230.611)" fill="#e2e6ff"/>
          <path id="Trazado_67807" data-name="Trazado 67807" d="M129.638,263.387a7.661,7.661,0,0,1-.66-3.989,3.239,3.239,0,0,1,2.608-2.776c1.358-.137,2.735,1.326,2.211,2.586a13.671,13.671,0,0,1,1.607-4.474,4.639,4.639,0,0,1,3.946-2.287,4.382,4.382,0,0,1,3.714,3.64,8.535,8.535,0,0,1-1.053,5.393c-4.369,8.623-18.344,13.786-22.242,2.009C122.524,261.46,126.732,261.631,129.638,263.387Z" transform="translate(-112.529 -240.348)" fill="#7986cb"/>
          <path id="Trazado_67808" data-name="Trazado 67808" d="M152.477,314.114a19.144,19.144,0,0,0,.071-2.078q-.038-1.038-.1-2.074-.124-2.072-.314-4.141-.382-4.169-1.03-8.308a128.34,128.34,0,0,0-3.6-16.227c-.433-1.479-.9-2.946-1.393-4.407-.506-1.5-1.012-3.013-1.636-4.47-.095-.22-.442-.134-.368.109.809,2.647,1.72,5.258,2.492,7.917s1.463,5.342,2.075,8.041a130.7,130.7,0,0,1,2.63,16.3q.227,2.333.37,4.674c.047.757.085,1.516.123,2.273.041.813.13,1.6.23,2.406A.227.227,0,0,0,152.477,314.114Z" transform="translate(-123.378 -249.197)" fill="#888a5c"/>
        </g>
        <g id="Grupo_35549" data-name="Grupo 35549" transform="translate(11.503 44.936)">
          <path id="Trazado_67809" data-name="Trazado 67809" d="M86.308,305.777a3.506,3.506,0,0,1-1.695-3.5A2.546,2.546,0,0,1,87.69,300.3a6.376,6.376,0,0,1-3.01-5.226c.1-2.1,2.23-4.063,4.236-3.446-1.821-2-.805-5.6,1.605-6.83s5.522-.331,7.4,1.615a11.6,11.6,0,0,1,2.85,7.415,13.8,13.8,0,0,1-1.442,7.427C97.3,305,90.352,308.289,86.308,305.777Z" transform="translate(-84.561 -284.242)" fill="#e2e6ff"/>
          <path id="Trazado_67810" data-name="Trazado 67810" d="M107.243,303.923a5.576,5.576,0,0,1-2.553-1.462,2.358,2.358,0,0,1-.366-2.748,1.52,1.52,0,0,1,2.476-.057,9.955,9.955,0,0,1-1.783-2.964,3.373,3.373,0,0,1,.526-3.277,3.187,3.187,0,0,1,3.761-.42,6.206,6.206,0,0,1,2.557,3.075c2.852,6.43-.665,16.685-9.1,13.465A6.754,6.754,0,0,1,107.243,303.923Z" transform="translate(-92.679 -287.96)" fill="#7986cb"/>
          <path id="Trazado_67811" data-name="Trazado 67811" d="M141.378,323.813a14.012,14.012,0,0,0-1.14-1q-.6-.456-1.215-.9-1.226-.883-2.479-1.728-2.527-1.7-5.158-3.242a93.482,93.482,0,0,0-10.807-5.433c-1.033-.437-2.076-.848-3.126-1.242-1.079-.4-2.164-.815-3.273-1.133-.168-.048-.279.187-.109.257,1.865.762,3.756,1.449,5.611,2.237s3.685,1.633,5.489,2.529a95.25,95.25,0,0,1,10.4,6.014q1.419.946,2.8,1.942c.449.322.894.649,1.339.977.476.351.962.663,1.462.977A.165.165,0,0,0,141.378,323.813Z" transform="translate(-97.686 -295.345)" fill="#888a5c"/>
        </g>
      </g>
      <g id="Grupo_35551" data-name="Grupo 35551" transform="translate(244.834 15747.223)">
        <path id="Trazado_67812" data-name="Trazado 67812" d="M120.011,177.512c-9.854-9.09-16.922-20.56-24.3-31.7,1.073,1.62,7.724,3.211,9.646,4.171a97.574,97.574,0,0,1,9.5,5.436,100.359,100.359,0,0,1,29.561,29.607c2.326,3.6,6.361,13.867,10.122,15.576a140.062,140.062,0,0,1-33.749-22.385Q120.4,177.868,120.011,177.512Z" transform="translate(-95.71 -113.666)" fill="#ba68c8"/>
        <path id="Trazado_67813" data-name="Trazado 67813" d="M150.739,116.949c-2.834-9.445-3.011-19.353-3.51-29.168.073,1.427,3.687,4.925,4.544,6.253a71.708,71.708,0,0,1,3.977,7,73.8,73.8,0,0,1,7.623,29.815c.122,3.153-1.167,11.161.573,13.651a103.024,103.024,0,0,1-12.979-26.812Q150.85,117.318,150.739,116.949Z" transform="translate(-118.689 -87.781)" fill="#ba68c8"/>
        <path id="Trazado_67814" data-name="Trazado 67814" d="M179.181,185.263c-.708-2.067-1.527-4.1-2.29-6.147s-1.519-4.1-2.254-6.156q-2.181-6.108-4.171-12.284-3.988-12.379-7.214-24.984-1.821-7.1-3.39-14.252c-.064-.294-.53-.229-.466.069q2.738,12.822,6.3,25.446,3.541,12.522,7.877,24.8,1.208,3.419,2.476,6.818c.86,2.3,1.707,4.629,2.709,6.876A.231.231,0,0,0,179.181,185.263Z" transform="translate(-124.114 -102.709)" fill="#888a5c"/>
      </g>
      <g id="Grupo_35554" data-name="Grupo 35554" transform="translate(362.875 15759.484)">
        <g id="Grupo_35552" data-name="Grupo 35552" transform="translate(0 35.092)">
          <path id="Trazado_67815" data-name="Trazado 67815" d="M341.991,205.241a106.125,106.125,0,0,0-9.315,10.55,125.126,125.126,0,0,0-19.855,36.944,117.989,117.989,0,0,0-3.677,13.534q-.18.865-.348,1.733c-.034.174.232.249.268.074a126.908,126.908,0,0,1,3.545-13.569,123.819,123.819,0,0,1,5.036-13.1,124.96,124.96,0,0,1,14.271-24.04,128.053,128.053,0,0,1,9.079-10.7c.393-.415.782-.835,1.176-1.25A.127.127,0,0,0,341.991,205.241Z" transform="translate(-308.793 -187.51)" fill="#888a5c"/>
          <path id="Trazado_67816" data-name="Trazado 67816" d="M357.256,182.121c.644-3.121,2.88-6.007,7.091-7.764,3.626-1.513,8.067-1.655,11.295.845,6.637,5.142,3.224,18.994-4.723,20.877C363.424,197.854,355.754,189.4,357.256,182.121Z" transform="translate(-330.324 -173.263)" fill="#e2e6ff"/>
          <path id="Trazado_67817" data-name="Trazado 67817" d="M355.575,180.772a3.979,3.979,0,0,1,1.12-1.66,1.636,1.636,0,0,1,1.883-.163,2.506,2.506,0,0,1,.694,2.151q-.032,4.925-.062,9.85a5.423,5.423,0,0,1,3.635-3.979,2.517,2.517,0,0,1,2.205.181c1.163.848.705,2.705-.128,3.878s-1.984,2.334-1.893,3.77a16.1,16.1,0,0,1,10.026-2.09c1.261.153,2.8.818,2.751,2.087-.035.894-.88,1.517-1.667,1.942-4.111,2.223-12.21,4.02-16.15.416C353.967,193.479,353.61,185.4,355.575,180.772Z" transform="translate(-329.142 -175.696)" fill="#7986cb"/>
        </g>
        <g id="Grupo_35553" data-name="Grupo 35553" transform="translate(7.144)">
          <path id="Trazado_67818" data-name="Trazado 67818" d="M338.922,148.369a118.345,118.345,0,0,0-6.834,14.128,139.494,139.494,0,0,0-10.222,45.64,131.64,131.64,0,0,0,.117,15.639q.066.983.147,1.965c.016.2.324.2.309,0a141.589,141.589,0,0,1-.27-15.637,138.215,138.215,0,0,1,1.473-15.577,139.337,139.337,0,0,1,8.1-30.1,142.763,142.763,0,0,1,6.535-14.218c.3-.564.589-1.132.887-1.7A.142.142,0,0,0,338.922,148.369Z" transform="translate(-321.689 -127.036)" fill="#888a5c"/>
          <path id="Trazado_67819" data-name="Trazado 67819" d="M335.817,123.6c-.246-3.545,1.287-7.316,5.282-10.469,3.439-2.714,8.166-4.2,12.384-2.485,8.672,3.528,9.169,19.429,1.2,23.838C347.168,138.644,336.391,131.871,335.817,123.6Z" transform="translate(-327.979 -109.915)" fill="#e2e6ff"/>
          <path id="Trazado_67820" data-name="Trazado 67820" d="M332.73,125.194a4.438,4.438,0,0,1,.7-2.119,1.825,1.825,0,0,1,1.973-.741c.825.294,1.161,1.257,1.391,2.1l2.893,10.6a6.047,6.047,0,0,1,2.709-5.365,2.806,2.806,0,0,1,2.422-.468c1.5.561,1.57,2.693,1.028,4.2s-1.429,3.1-.9,4.618a17.959,17.959,0,0,1,10.139-5.256c1.4-.214,3.254.037,3.581,1.415a2.964,2.964,0,0,1-1.207,2.586c-3.747,3.623-11.905,7.985-17.219,5.3C334.821,139.323,332.011,130.758,332.73,125.194Z" transform="translate(-326.564 -115.42)" fill="#7986cb"/>
        </g>
      </g>
      <g id="Grupo_35555" data-name="Grupo 35555" transform="translate(368.618 15826.773)">
        <path id="Trazado_67821" data-name="Trazado 67821" d="M395.251,246.041a117.368,117.368,0,0,0-18.733,7.889,130.552,130.552,0,0,0-17.2,10.722,132.96,132.96,0,0,0-15.4,13.28,129.778,129.778,0,0,0-13.144,15.428,121.729,121.729,0,0,0-10.515,17.316c-.371.749-.729,1.5-1.082,2.261a.145.145,0,0,0,.261.128,134.9,134.9,0,0,1,10.345-17.5,131.842,131.842,0,0,1,44.752-40.014,126.39,126.39,0,0,1,18.563-8.27q1.153-.405,2.309-.8A.229.229,0,0,0,395.251,246.041Z" transform="translate(-319.16 -237.916)" fill="#888a5c"/>
        <path id="Trazado_67822" data-name="Trazado 67822" d="M430.234,232.416c1.4-1.209,3.482-1.806,3.613.8.286,5.651-3.549,9.084-6.921,13.081a50.981,50.981,0,0,1,.663-6.825c.329-1.989.6-4.254,1.731-6.022A4.878,4.878,0,0,1,430.234,232.416Z" transform="translate(-367.228 -231.384)" fill="#ba68c8"/>
        <path id="Trazado_67823" data-name="Trazado 67823" d="M439.745,260.31c1.291,1.182,2.082,3.07-.348,3.482-5.276.894-8.927-2.328-13.054-5.053a48.252,48.252,0,0,1,6.484-.133c1.905.089,4.063.095,5.849.959A4.61,4.61,0,0,1,439.745,260.31Z" transform="translate(-366.967 -243.502)" fill="#673ab7"/>
        <path id="Trazado_67824" data-name="Trazado 67824" d="M423.35,269.688c1.379,1.262,2.225,3.28-.372,3.72-5.638.956-9.538-2.487-13.949-5.4a51.561,51.561,0,0,1,6.928-.143c2.035.095,4.341.1,6.249,1.024A4.947,4.947,0,0,1,423.35,269.688Z" transform="translate(-359.245 -247.632)" fill="#ba68c8"/>
        <path id="Trazado_67825" data-name="Trazado 67825" d="M410.028,282.079c1.693,1.551,2.732,4.027-.457,4.569-6.923,1.173-11.711-3.054-17.127-6.628a63.2,63.2,0,0,1,8.507-.176c2.5.117,5.33.124,7.673,1.258A6.047,6.047,0,0,1,410.028,282.079Z" transform="translate(-351.847 -252.968)" fill="#673ab7"/>
        <path id="Trazado_67826" data-name="Trazado 67826" d="M393.165,293.792c1.693,1.551,2.732,4.027-.457,4.569-6.923,1.173-11.711-3.054-17.127-6.629a63.294,63.294,0,0,1,8.507-.175c2.5.117,5.33.124,7.673,1.258A6.047,6.047,0,0,1,393.165,293.792Z" transform="translate(-344.326 -258.192)" fill="#ba68c8"/>
        <path id="Trazado_67827" data-name="Trazado 67827" d="M377.9,310.014c1.693,1.55,2.732,4.027-.457,4.568-6.922,1.174-11.711-3.053-17.127-6.628a63.284,63.284,0,0,1,8.507-.175c2.5.116,5.33.124,7.673,1.258A6.029,6.029,0,0,1,377.9,310.014Z" transform="translate(-337.519 -265.428)" fill="#673ab7"/>
        <path id="Trazado_67828" data-name="Trazado 67828" d="M363.815,327.009c2.635,1.61,4.647,4.612.576,6.15-8.837,3.337-16.251-1.008-24.323-4.33a85.135,85.135,0,0,1,11.186-2.427c3.33-.491,7.07-1.213,10.456-.32A8.13,8.13,0,0,1,363.815,327.009Z" transform="translate(-328.486 -273.434)" fill="#ba68c8"/>
        <path id="Trazado_67829" data-name="Trazado 67829" d="M455.039,238.607c1.827.206,3.667,1.319,1.858,3.172-3.928,4.023-9.02,3.545-14.21,3.784a50.621,50.621,0,0,1,5.423-4.124c1.672-1.1,3.509-2.432,5.56-2.8A4.847,4.847,0,0,1,455.039,238.607Z" transform="translate(-374.258 -234.59)" fill="#ba68c8"/>
        <path id="Trazado_67830" data-name="Trazado 67830" d="M410.135,239.152c1.387-1.533,3.611-2.482,4.115.386,1.1,6.227-2.683,10.561-5.871,15.458a57,57,0,0,1-.206-7.659c.091-2.251.082-4.8,1.09-6.916A5.439,5.439,0,0,1,410.135,239.152Z" transform="translate(-358.843 -234.196)" fill="#673ab7"/>
        <path id="Trazado_67831" data-name="Trazado 67831" d="M389.981,246.08c1.327-1.873,3.655-3.213,4.59-.116,2.027,6.722-1.57,12-4.441,17.82a63.27,63.27,0,0,1-1.235-8.419c-.2-2.494-.541-5.3.291-7.77A6.053,6.053,0,0,1,389.981,246.08Z" transform="translate(-350.157 -237.064)" fill="#ba68c8"/>
        <path id="Trazado_67832" data-name="Trazado 67832" d="M371.169,259.341c1.088-2.021,3.236-3.635,4.541-.676,2.834,6.425-.092,12.1-2.232,18.229a63.436,63.436,0,0,1-2.254-8.205c-.5-2.452-1.185-5.2-.659-7.748A6.04,6.04,0,0,1,371.169,259.341Z" transform="translate(-342.004 -242.829)" fill="#673ab7"/>
        <path id="Trazado_67833" data-name="Trazado 67833" d="M352.041,274.318c.875-2.122,2.845-3.948,4.448-1.139,3.478,6.1,1.152,12.048-.347,18.362a63.378,63.378,0,0,1-3.084-7.93c-.748-2.388-1.713-5.049-1.452-7.639A6.049,6.049,0,0,1,352.041,274.318Z" transform="translate(-333.612 -249.386)" fill="#ba68c8"/>
        <path id="Trazado_67834" data-name="Trazado 67834" d="M330.078,292.4c1.018-2.47,3.31-4.6,5.176-1.326,4.048,7.1,1.341,14.021-.4,21.369a73.716,73.716,0,0,1-3.59-9.229c-.871-2.778-1.994-5.876-1.69-8.889A7.027,7.027,0,0,1,330.078,292.4Z" transform="translate(-323.781 -257.264)" fill="#673ab7"/>
      </g>
      <path id="Trazado_67885" data-name="Trazado 67885" d="M324.591,208.559a28.17,28.17,0,0,0-.813-10.622,26.308,26.308,0,0,0-4.8-9.512c-2.672-3.338-6.221-5.785-9.433-8.557-3.064-2.644-5.839-5.732-7.051-9.67-.158-.514-.187-1.023-.32-1.541a2.725,2.725,0,0,0,.218,2.624,26.267,26.267,0,0,0,1.321,2.909,23.324,23.324,0,0,0,3.717,4.618c3.067,3.015,6.7,5.4,9.658,8.53a25.069,25.069,0,0,1,5.461,9.1,27.6,27.6,0,0,1,1.441,10.506,25.463,25.463,0,0,1-2.738,10.211c-.2.39-.406.778-.6,1.171a.324.324,0,0,0,.174.464c.01.008.013.019.025.026a1.928,1.928,0,0,0,1.613-.168,3.048,3.048,0,0,0,1.261-1.143,3.168,3.168,0,0,0-.085-3.336.432.432,0,0,0-.251-.178c.019-.059.042-.117.061-.176A26.746,26.746,0,0,0,324.591,208.559Zm-1.424,8.589a2.408,2.408,0,0,1-.971.92,2.836,2.836,0,0,1-.6.234c-.054.014-.11.024-.166.035a18.184,18.184,0,0,0,1.683-3.544A2.344,2.344,0,0,1,323.166,217.148Z" transform="translate(57.148 15623.368)" fill="#8c7b61"/>
      <path id="Trazado_67886" data-name="Trazado 67886" d="M243.612,103.082l12.672,26.028,8.694,17.857-20.538-20.213,5.392-6.054-14.125-15.23Z" transform="translate(86.682 15652.617)" fill="#673ab7"/>
      <path id="Trazado_67887" data-name="Trazado 67887" d="M288.71,103.26l-13.444,28.676,13.022-10.311Z" transform="translate(69.037 15652.538)" fill="#673ab7"/>
      <path id="Trazado_67888" data-name="Trazado 67888" d="M215.339,309.6,255.893,182.3l-4.4,118.3a81.476,81.476,0,0,0-11.331,7.657c-6.764,5.293-11.522,4.967-14.976,4.543S215.918,310.589,215.339,309.6Z" transform="translate(95.766 15617.281)" fill="#673ab7"/>
      <g id="Grupo_35574" data-name="Grupo 35574" transform="translate(263.596 15716.453)">
        <path id="Trazado_67835" data-name="Trazado 67835" d="M204.486,131.424a7.591,7.591,0,0,0-1.724-3.248,13.066,13.066,0,0,0-3.317-2.416,18.963,18.963,0,0,1-3.495-2.267,8.812,8.812,0,0,1-2.235-3.241,12.852,12.852,0,0,1-.365-7.953c.881-3.44,2.835-6.4,4.59-9.434.105-.182-.162-.408-.3-.233-3.543,4.443-6.526,10.262-5.246,16.094a10.185,10.185,0,0,0,4.285,6.379c2.2,1.486,4.957,2.476,6.289,4.935a7.36,7.36,0,0,1,.386,5.976c-.247.664-.61,1.281-.889,1.932-.094.219.124.555.375.375a5.013,5.013,0,0,0,1.737-3.189A8.433,8.433,0,0,0,204.486,131.424Z" transform="translate(-157.46 -63.607)" fill="#8c766a"/>
        <path id="Trazado_67836" data-name="Trazado 67836" d="M225.758,54.091a40.9,40.9,0,0,1-2.46,4.66,29.552,29.552,0,0,1-3.227,4.2,29.991,29.991,0,0,1-8.28,6.324c-3.577,1.844-7.474,2.684-11.365,3.586-3.747.868-7.538,1.887-10.7,4.165-2.969,2.137-5.532,5.392-5.454,9.219a.188.188,0,0,0,.375,0,11.8,11.8,0,0,1,5-8.459c3.123-2.37,6.9-3.431,10.667-4.3,3.844-.889,7.715-1.671,11.293-3.394a30.261,30.261,0,0,0,8.417-6.048,27.041,27.041,0,0,0,6.341-9.7C226.477,54,225.916,53.754,225.758,54.091Z" transform="translate(-153.971 -41.912)" fill="#8c766a"/>
        <g id="Grupo_35573" data-name="Grupo 35573">
          <g id="Grupo_35571" data-name="Grupo 35571">
            <path id="Trazado_67837" data-name="Trazado 67837" d="M263.11,105.495a9.1,9.1,0,0,1-10.572,1.373c-2.7-1.532-5.04-4.591-8.086-4.031-3.212.6-3.52,3.44-5.083,5.587a30.04,30.04,0,0,1-6.276,5.993,42.59,42.59,0,0,1-14.965,7.3c-.677.178-1.366.338-2.055.468a16.912,16.912,0,0,1-8.1-.142c-3.286-1-6.221-3.717-6.615-7.126-.547-4.732,3.7-9.433,2.068-13.913-1.379-3.766-6.1-5.052-8.566-8.215-3.526-4.529-1.176-11.532,3.212-15.23s10.178-5.126,15.55-7.156c5.772-2.173,10.615-5.354,12.984-10.984.191-.443.363-.892.517-1.367.394-1.193,1.871-10.03,3.138-10,.166.006,23.74,1.022,23.74,1.022.166,2.492.326,4.984.5,7.47.32,4.48,1.12,3.987,3.987,6.929,3.76,3.858,5.126,10.147,2.769,15.076-1.028,2.154-2.671,4.16-2.689,6.541-.031,3.944,4.221,6.4,6.11,9.864A9.108,9.108,0,0,1,263.11,105.495Z" transform="translate(-157.934 -39.291)" fill="#8c766a"/>
            <path id="Trazado_67838" data-name="Trazado 67838" d="M202.27,100.947a6.7,6.7,0,0,0,.708.913c2.376,2.571,6.785,3.437,7.7,6.816.9,3.312-2.082,6.788-2.984,9.832-1.1,3.7-.32,6.733,3.144,8.918a22.416,22.416,0,0,0,6.695,2.443,10.909,10.909,0,0,1-1.458,1.465,16.912,16.912,0,0,1-8.1-.142c-3.286-1-6.221-3.717-6.615-7.126-.547-4.732,3.7-9.433,2.068-13.913-1.379-3.766-6.1-5.052-8.566-8.215-3.526-4.529-1.176-11.532,3.212-15.23s10.178-5.126,15.55-7.156c5.772-2.173,10.615-5.354,12.984-10.984.2,6.04-6.067,9.861-10.614,12.5-5.763,3.347-12.425,5.354-14.534,12.375A9.2,9.2,0,0,0,202.27,100.947Z" transform="translate(-157.934 -48.442)" fill="#9c8a7a"/>
            <path id="Trazado_67839" data-name="Trazado 67839" d="M263.412,49.072c.131,2.49.253,4.981.391,7.47.249,4.479.867,3.987,3.083,6.925a16.893,16.893,0,0,1,2.145,15.081c-.795,2.151-2.07,4.159-2.083,6.542-.025,4.53,4.3,7.193,5.636,11.17,1.325,3.93-3.374,7.671-6.627,8.881-3.75,1.4-7.874,1.233-11.871,1.052a36.429,36.429,0,0,0-8.943.769,16.545,16.545,0,0,1-9.423-.739c-4.058-1.747-7.079-6.41-5.771-10.629.623-2.009,2.141-3.958,1.574-5.983-.591-2.11-3.068-2.961-5.2-3.456s-4.616-1.241-5.339-3.309c-.617-1.765.411-3.715,1.775-4.993,2.683-2.516,6.474-3.343,9.878-4.735,6.076-2.486,8.88-8.714,9.954-14.884.2-1.178,1.938-10.215,2.46-10.186Z" transform="translate(-170.264 -39.289)" fill="#806659"/>
            <path id="Trazado_67840" data-name="Trazado 67840" d="M217.617,107.688l-8.934,17.11c-1.832,3.508-3.78,6.979-5.5,10.541-.99,2.046-3.329,4.822-2.646,7.148a7.014,7.014,0,0,0,3.645,3.936,1.8,1.8,0,0,0,1.42.275,1.926,1.926,0,0,0,.906-1.033c1.947-3.8,3.386-7.069,6.561-9.935,3.268-2.95,6.525-5.916,10.011-8.61l-.644-9.51Z" transform="translate(-161.171 -65.891)" fill="#b492f1"/>
            <path id="Trazado_67841" data-name="Trazado 67841" d="M217.006,113.8a39.512,39.512,0,0,0,2-3.7c.455-1.094.09-2.149,1.561-2.706,3.012,5.39-.86,8.956-3.728,13.455-1.573,2.469-3.175,4.92-4.852,7.32-1.126,1.611-4.94,5.077-5.2,6.909.5-3.456,2.965-7.158,4.49-10.273C213.09,121.1,214.915,117.351,217.006,113.8Z" transform="translate(-164.016 -65.759)" fill="#d2bef6"/>
            <path id="Trazado_67842" data-name="Trazado 67842" d="M314.509,107.657l10.074,35.921-6.544,4.289-9.9-18.348.009-.4a42.726,42.726,0,0,1,5.941-20.746Z" transform="translate(-209.221 -65.877)" fill="#673ab7"/>
            <g id="Grupo_35558" data-name="Grupo 35558" transform="translate(0 38.632)">
              <g id="Grupo_35557" data-name="Grupo 35557">
                <path id="Trazado_67843" data-name="Trazado 67843" d="M267.287,142.787a19.413,19.413,0,0,0,2.891-1.087,5.329,5.329,0,0,1,.161-1.155l9.961-35.423c-.674-1.4-4.074-1.464-5.33-1.683-2.7-.472-5.412-.776-8.148-1a142.583,142.583,0,0,0-17.413-.345c-1.246.052-18.609.868-17.951,3.043l10.869,35.9A31.835,31.835,0,0,0,267.287,142.787Z" transform="translate(-175.012 -101.975)" fill="#895cd8"/>
                <path id="Trazado_67844" data-name="Trazado 67844" d="M237.684,127.111l-.708-7.131a57.644,57.644,0,0,0,4.3,11.793,19.353,19.353,0,0,0,8.744,8.725,8.848,8.848,0,0,1,3.236,1.846c1.368,1.551,1.04,3.906.708,5.947s-.445,4.48,1.145,5.8a29.774,29.774,0,0,1-9.952-1.795q-3.091-11.006-6.183-22.012" transform="translate(-177.481 -110.006)" fill="#b492f1"/>
                <path id="Trazado_67845" data-name="Trazado 67845" d="M193.724,389.835,187.5,400.813l-9.981,17.6-4.012-2.406,6.578-19.993,4.332-13.181Z" transform="translate(-149.173 -227.247)" fill="#ffc3b0"/>
                <path id="Trazado_67846" data-name="Trazado 67846" d="M200.088,386.633l-6.221,10.978a39.1,39.1,0,0,1-7.415-4.8l4.332-13.181Z" transform="translate(-154.945 -225.819)" fill="#edaa9f"/>
                <path id="Trazado_67847" data-name="Trazado 67847" d="M309.11,421.615c-.72.738-3.181,1.255-4.2,1.33a37.44,37.44,0,0,1-4.233-.13c-2.388-.092-4.787-.326-7.175-.326-2.658,0-9.071,2.043-10.19-1.846-.622-2.166-.031-5.427.092-7.71.228-4.215.874-8.283.474-12.467q-.388-4.107-.782-8.215-.406-4.3-.819-8.6-.562-5.871-1.126-11.735c-.013-.136-.025-.277-.037-.413-.049-.5-.326-7.347-.714-7.439l13.1,3.1a45.1,45.1,0,0,0-.653,5.218c-.443,4.461-.947,10.264-1.009,10.867l-.314,3.046a194.055,194.055,0,0,0-1.243,25.124c.093,3.175,4.51,4.51,7.151,5.575,2.166.88,4.356,1.692,6.553,2.5a13.852,13.852,0,0,0,3.28,1.194C308.212,420.742,310.753,419.924,309.11,421.615Z" transform="translate(-196.851 -218.878)" fill="#ffc3b0"/>
                <path id="Trazado_67848" data-name="Trazado 67848" d="M293.458,377.793c-.443,4.461-.947,10.264-1.009,10.867l-.314,3.046c-3.219-.659-7.058-1.182-9.249-2.646q-.563-5.871-1.126-11.735a4.68,4.68,0,0,1,4.393-1c1.557.308,3.021,1,4.6,1.2C291.618,377.645,292.584,377.645,293.458,377.793Z" transform="translate(-197.456 -224.283)" fill="#edaa9f"/>
                <path id="Trazado_67849" data-name="Trazado 67849" d="M247.011,259.113C242.68,244,238.87,228.354,234.864,213c-2.032-7.788-4.129-15.561-6.405-23.282-.651-2.206-6.656-15.189-3.715-16.564a19.412,19.412,0,0,1-2.891,1.087,31.835,31.835,0,0,1-24.959-1.744l.307,1.014c-1.051,6.167-8.384,10.445-12.831,14.567l-17.183,15.927L150,219.935l-8.811,8.167c-1.329,1.233-6.274,7.351-7.931,7.351-2.188,2.028-4.579,4.924-3.351,7.643,1.094,2.424,4.3,2.87,6.43,4.468,3.782,2.842,3.394,8.7,1.534,13.055s-4.834,8.416-5.1,13.139c-.735,13.1,15.25,12.306,23.271,17.174,6.566,3.985,12.23,9.344,18.9,13.158s14.985,5.956,22.013,2.861c5.231-2.3,8.968-7.146,14.081-9.7,4.928-2.462,10.4-2.529,15.928-1.69a121.62,121.62,0,0,1,11.874,2.681c3.312.853,7.344,1.443,9.7-1.035,1.593-1.675,1.814-4.194,1.892-6.5A101.656,101.656,0,0,0,247.011,259.113Z" transform="translate(-129.577 -133.432)" fill="#895cd8"/>
                <g id="Grupo_35556" data-name="Grupo 35556" transform="translate(0 39.881)">
                  <path id="Trazado_67850" data-name="Trazado 67850" d="M184.369,188.735l-17.183,15.927L150,220.589l-8.811,8.167c-1.329,1.233-6.274,7.351-7.931,7.351-2.188,2.028-4.579,4.924-3.351,7.642,1.094,2.424,4.3,2.87,6.43,4.468,3.782,2.842,3.394,8.7,1.534,13.055s-4.834,8.416-5.1,13.139c-.736,13.1,15.25,12.306,23.271,17.174,6.566,3.985,12.23,9.344,18.9,13.158s14.985,5.956,22.013,2.861c.054-.024.106-.052.16-.076a36.233,36.233,0,0,1-6.1-2.785c-3.594-2.055-11.106-5.664-12.424-9.748-1.359-4.21,1.08-13.608,3.857-16.942l-7.763,9.32c-.995,1.194-2.144,2.475-3.688,2.652-2.077.238-3.863-1.772-4.167-3.841s.46-4.128,1.21-6.08l28.626-74.453c-.92,2.39-5.242,5.339-7.066,7.2-2.122,2.162-4.686,4.246-6.546,6.629-3.832,4.913-6.6,11.053-9.957,16.331q-10.632,16.734-22.78,32.439c-1.052,1.359-2.5,2.866-4.182,2.5-1.86-.4-2.451-2.734-2.576-4.633-.468-7.127.2-15.471,2.835-22.167,2.413-6.13,8.071-10.92,12.077-15.982,5.264-6.651,11.332-12.623,16.515-19.343a273.784,273.784,0,0,0,22.765-34.658C194.673,179.815,189.083,184.366,184.369,188.735Z" transform="translate(-129.577 -173.967)" fill="#b492f1"/>
                </g>
              </g>
            </g>
            <g id="Grupo_35560" data-name="Grupo 35560" transform="translate(66.698 24.159)">
              <g id="Grupo_35559" data-name="Grupo 35559">
                <path id="Trazado_67851" data-name="Trazado 67851" d="M269.323,104.261a11.229,11.229,0,0,1-6.41,2.27,11.661,11.661,0,0,1-8.78-4.332,16.98,16.98,0,0,1-3-5.422,16.159,16.159,0,0,1-.842-3.172,8.026,8.026,0,0,0-.314-2.67c.3.589,4.721-.977,5.255-1.173a3.481,3.481,0,0,0,2.739-3.34c.148-1.055,1.8-10.574,1.792-10.574h9.042c.735,0,1.04,11.422,1.451,12.571a3.237,3.237,0,0,0,.71,1.214c1.626,1.636,4.456.986,6.464,1.4-.837,1.294-1.147,3.07-1.759,4.506a25.759,25.759,0,0,1-3.006,5.416A15.76,15.76,0,0,1,269.323,104.261Z" transform="translate(-249.978 -75.847)" fill="#ffc3b0"/>
              </g>
            </g>
            <path id="Trazado_67852" data-name="Trazado 67852" d="M275.671,105.8a25.761,25.761,0,0,1-3.006,5.416,15.774,15.774,0,0,1-3.343,3.305,11.237,11.237,0,0,1-6.41,2.27,11.661,11.661,0,0,1-8.78-4.332,16.981,16.981,0,0,1-3-5.422,16.159,16.159,0,0,1-.842-3.172,5.957,5.957,0,0,1-.038-.675c-.141-.015-.239-.053-.276-.124a8.012,8.012,0,0,1,.314,2.67,16.158,16.158,0,0,0,.842,3.172,16.975,16.975,0,0,0,3,5.422,11.661,11.661,0,0,0,8.78,4.332,11.229,11.229,0,0,0,6.41-2.27,15.76,15.76,0,0,0,3.343-3.306,25.761,25.761,0,0,0,3.006-5.416c.613-1.437.922-3.213,1.759-4.506a7.323,7.323,0,0,0-.812-.114C276.294,103.976,276.035,104.949,275.671,105.8Z" transform="translate(-183.28 -63.824)" fill="#edaa9f"/>
            <g id="Grupo_35562" data-name="Grupo 35562" transform="translate(74.623 24.159)">
              <g id="Grupo_35561" data-name="Grupo 35561">
                <path id="Trazado_67853" data-name="Trazado 67853" d="M277.11,89.551c-2.5,2.229-5.744,3.923-8.852,1.948a12,12,0,0,1-3.974-4.814l1.86-10.838h9.042Z" transform="translate(-264.285 -75.847)" fill="#edaa9f"/>
              </g>
            </g>
            <g id="Grupo_35564" data-name="Grupo 35564" transform="translate(73.601 3.933)">
              <g id="Grupo_35563" data-name="Grupo 35563">
                <path id="Trazado_67854" data-name="Trazado 67854" d="M273.249,39.373c-7.737-.665-9.866,8.01-10.608,15.432-.244,2.44-.424,5.168.445,7.476.976,2.59,2.317,5.662,4.745,7.212,3.245,2.071,6.675-.56,8.886-2.969,2.131-2.322,2.894-5.445,3.887-8.348C282.864,51.567,285.652,40.44,273.249,39.373Z" transform="translate(-262.44 -39.337)" fill="#ffc3b0"/>
              </g>
            </g>
            <g id="Grupo_35566" data-name="Grupo 35566" transform="translate(70.2 14.809)">
              <g id="Grupo_35565" data-name="Grupo 35565">
                <path id="Trazado_67855" data-name="Trazado 67855" d="M259.83,61.371s0-3.039-2.463-2.28-.247,7.836,2.463,7.331S259.83,61.371,259.83,61.371Z" transform="translate(-256.3 -58.969)" fill="#ffc3b0"/>
              </g>
            </g>
            <g id="Grupo_35568" data-name="Grupo 35568" transform="translate(88.404 19.638)">
              <g id="Grupo_35567" data-name="Grupo 35567">
                <path id="Trazado_67856" data-name="Trazado 67856" d="M291.242,69.642s.73-2.949,2.936-1.605-1.642,7.665-4.149,6.506S291.242,69.642,291.242,69.642Z" transform="translate(-289.161 -67.686)" fill="#ffc3b0"/>
              </g>
            </g>
            <path id="Trazado_67857" data-name="Trazado 67857" d="M269.464,52.554a23.437,23.437,0,0,1,3.777-.917,15.905,15.905,0,0,0,6.828-3.406c1.9-1.616,3.328-4.737,1.164-6.809-1.875-1.8-6.242-1.786-8.438-.772a16.19,16.19,0,0,0-7.453,7.255,16.511,16.511,0,0,0-1.685,5.144c-.137.917-1.362,3.719-.781,4.335a1.65,1.65,0,0,0,1.893.22,3.709,3.709,0,0,0,1.408-1.443,12.7,12.7,0,0,1,1.779-2.66A4.786,4.786,0,0,1,269.464,52.554Z" transform="translate(-188.964 -35.682)" fill="#edaa9f"/>
            <path id="Trazado_67858" data-name="Trazado 67858" d="M266.115,46.845q.17-.025.35-.044a29.207,29.207,0,0,0,5.756-1.112c1.592-.51,3.856-.934,5-2.206-.178,4.149-1.276,6.064,2.291,9.276a30.578,30.578,0,0,1,.314-4.082c.3-1.135,1.038-2.2,1.377-3.345.727-2.462.851-5.2-.874-7.3a10.2,10.2,0,0,0-1.132-1.137,18.766,18.766,0,0,0-7.384-4.175,12.5,12.5,0,0,0-8.372.5,15.363,15.363,0,0,0-2.453,1.444,9.524,9.524,0,0,0-1.827,1.573,11.532,11.532,0,0,0-1.624,2.889A26.143,26.143,0,0,0,255.694,54.2c.9,4.731,5.645,2.093,6.027-1.649C262.066,49.167,262.845,47.322,266.115,46.845Z" transform="translate(-185.649 -32.237)" fill="#8c766a"/>
            <g id="Grupo_35569" data-name="Grupo 35569" transform="translate(69.606)">
              <path id="Trazado_67859" data-name="Trazado 67859" d="M261.133,43.138a7.733,7.733,0,0,1,1.036-.5c2.367-.932,5.146-.642,7.353-1.907a15.867,15.867,0,0,0,2.85-2.432,6.554,6.554,0,0,1,3.183-1.892c1.835-.333,3.977,1.582,5.392,2.61a5.788,5.788,0,0,0-.65-.981,10.2,10.2,0,0,0-1.132-1.137,18.766,18.766,0,0,0-7.384-4.175,12.5,12.5,0,0,0-8.372.5,15.363,15.363,0,0,0-2.453,1.444,9.525,9.525,0,0,0-1.827,1.573,11.531,11.531,0,0,0-1.624,2.889,38.9,38.9,0,0,0-1.4,3.735,21.979,21.979,0,0,0-.655,9.25C256.41,48.616,258.065,44.909,261.133,43.138Z" transform="translate(-255.228 -32.237)" fill="#9c8a7a"/>
            </g>
            <g id="Grupo_35570" data-name="Grupo 35570" transform="translate(108.818 76.741)">
              <path id="Trazado_67860" data-name="Trazado 67860" d="M363.241,219.265c-.093.172-.3.246-.424.394a1.02,1.02,0,0,0-.173.529c-.086.609-.172,1.225-.258,1.834-.012.13-.455.486-.535.671-.13.3-.031.628-.13.9-.216.615-.652,1.138-1.175.338-1.129-1.711-2.48-3.252-3.724-4.877-.767-1-2.2-3.325-2.2-4.635a22.307,22.307,0,0,1-.436,4.854c-.058.289-.166.625-.448.709a.575.575,0,0,1-.629-.339,1.743,1.743,0,0,1-.12-.761,31.342,31.342,0,0,0-.684-6.19c-.35-1.646-.466-3.4-1.43-4.822-.387-.572-.855-1.151-1.366-1.827-.049-.068-.1-.142-.16-.209q-2.15-2.889-4.474-5.643-2.76-3.286-5.735-6.375a11.375,11.375,0,0,1,2.29-2.191,3.794,3.794,0,0,1,3.021-.6,5.686,5.686,0,0,1,2.75,2.418c1.059,1.452,2.092,2.948,3.138,4.431,1.213,1.717,2.443,3.427,3.76,5.052a37.472,37.472,0,0,0,5.206,5.384,4.275,4.275,0,0,1,.64.6,3.647,3.647,0,0,1,.468.88,67.092,67.092,0,0,1,2.819,8.929A.746.746,0,0,1,363.241,219.265Z" transform="translate(-331.869 -179.755)" fill="#ffc3b0"/>
              <path id="Trazado_67861" data-name="Trazado 67861" d="M358.713,206.437a17.368,17.368,0,0,1-4.75,2.911q-2.15-2.889-4.474-5.643a21.572,21.572,0,0,1,.166-3.31,1.855,1.855,0,0,1,.714-1.5c.584-.3,1.274.1,1.809.486.923.671,1.852,1.335,2.775,2.006C356.166,203.1,357.4,204.813,358.713,206.437Z" transform="translate(-336.479 -183.265)" fill="#edaa9f"/>
              <path id="Trazado_67862" data-name="Trazado 67862" d="M329.2,181.2c1.793,2.92,3.575,5.849,5.282,8.82,1.082,1.882,1.948,5.675,4.678,5.74,1.685.04,3.662-1.784,5.042-2.62,1.5-.91,5.263-1.967,4.578-4.354-.353-1.228-2.779-2.327-3.745-3.118-1.668-1.367-3.261-2.821-4.8-4.326-.885-.863-8.529-10.287-8.2-10.576l-6.018,5.249C326.252,176.436,327.549,178.509,329.2,181.2Z" transform="translate(-326.012 -170.767)" fill="#895cd8"/>
            </g>
          </g>
          <g id="Grupo_35572" data-name="Grupo 35572" transform="translate(6.712 71.153)">
            <path id="Trazado_67863" data-name="Trazado 67863" d="M170.82,185.386c-.031-.061-2.24,1.569-4.787,3.483-2.966,2.227-6.394,4.837-7.39,5.624-.093.074-.166.135-.215.172a12.862,12.862,0,0,0-1.951,1.994,21.123,21.123,0,0,0-4.018,11.606c-1.846-.142-2.948-3.434-1.766-4.917-2.129,2.671-4.923,4.326-7.384,6.689-.689.665-1,.055-1.077-.584-.037-.3.136-.6.074-.917-.037-.2-.388-.64-.376-.769.055-.615.1-1.231.16-1.846a1.115,1.115,0,0,0-.055-.553c-.093-.172-.277-.3-.326-.48a.756.756,0,0,1,.123-.529,67.842,67.842,0,0,1,4.72-8.086,3.585,3.585,0,0,1,.646-.751,4.188,4.188,0,0,1,.757-.449,38.914,38.914,0,0,0,6.824-4.554c1.249-1,2.461-2.061,3.655-3.139,1.544-1.378,3.058-2.787,4.6-4.135a5.645,5.645,0,0,1,3.225-1.754,3.8,3.8,0,0,1,2.812,1.255A11.249,11.249,0,0,1,170.82,185.386Z" transform="translate(-141.693 -169.961)" fill="#ffc3b0"/>
            <path id="Trazado_67864" data-name="Trazado 67864" d="M177.374,192.1c-.277.455-.542.923-.806,1.4-2.966,2.227-6.394,4.837-7.39,5.624a17.2,17.2,0,0,1-3.864-3.975c1.249-1,2.461-2.061,3.655-3.139.584-.074,1.126-.11,1.544-.141C171.239,191.811,177.164,192.451,177.374,192.1Z" transform="translate(-152.228 -174.589)" fill="#edaa9f"/>
            <path id="Trazado_67865" data-name="Trazado 67865" d="M185.826,175.059a130.111,130.111,0,0,0-10.353,11.857c-2.322,3.039-5.981-2.62-7.841-4.413-.68-.655-2.749-2-2.991-2.892-.655-2.416,8.557-5.717,10.4-6.846,1.053-.646,10.587-8.152,10.333-8.507l4.713,6.447C189.755,171.062,188.033,172.8,185.826,175.059Z" transform="translate(-151.913 -162.276)" fill="#b492f1"/>
            <path id="Trazado_67866" data-name="Trazado 67866" d="M187.451,160.68c-4.584,3.417-7.434,8.194-12.783,10.857-2.436,1.213-9.536,2.612-9.481,6.5.075,5.271,14.661-5.225,16.034-6.7a28.525,28.525,0,0,0,3.813-5.145C185.71,165.021,186.515,161.378,187.451,160.68Z" transform="translate(-152.172 -160.68)" fill="#d2bef6"/>
          </g>
          <path id="Trazado_67867" data-name="Trazado 67867" d="M166.776,442.644s-7.2,7.809-7.387,8.953-2.1,5.912-2.1,5.912,4.577,6.484,7.247,5.721,6.965-19.2,6.965-19.2Z" transform="translate(-141.938 -215.293)" fill="#ffc3b0"/>
        </g>
        <path id="Trazado_67868" data-name="Trazado 67868" d="M265.115,167.674c-.73.1-1.461.176-2.193.247v-.011a.192.192,0,0,0-.384,0v.043c-.537.049-1.074.1-1.611.134.46-.921.891-1.855,1.275-2.812.234-.581.456-1.167.661-1.759a8.509,8.509,0,0,0,.527-1.795c.024-.218-.311-.295-.407-.11a11.92,11.92,0,0,0-.578,1.644q-.3.888-.642,1.766c-.4,1.046-.849,2.079-1.317,3.1-.684.043-1.369.079-2.054.1a29.337,29.337,0,0,0,2.007-4.139c.3-.773.561-1.558.78-2.355a11.109,11.109,0,0,0,.507-2.406c.008-.2-.26-.207-.321-.044-.279.743-.41,1.563-.638,2.326s-.478,1.537-.759,2.29a30.438,30.438,0,0,1-1.988,4.339,71.581,71.581,0,0,1-10.021-.414,24.576,24.576,0,0,1-1.424-4.033,23.636,23.636,0,0,1-.47-2.33c-.124-.828-.179-1.663-.3-2.491-.027-.187-.308-.129-.316.043a16.6,16.6,0,0,0,.7,4.955,22.582,22.582,0,0,0,1.4,3.812c-1.048-.124-2.093-.263-3.134-.434-.263-.492-.553-.972-.813-1.466q-.465-.888-.863-1.809a27.513,27.513,0,0,1-1.334-3.852,34.739,34.739,0,0,1-.971-8.01.118.118,0,0,0-.235,0,22.2,22.2,0,0,0,.759,8.2,26.455,26.455,0,0,0,1.338,3.842,20.2,20.2,0,0,0,1.551,3.006l-.11-.017q-2.961-.515-5.869-1.281a.308.308,0,0,0-.163.593,71.189,71.189,0,0,0,7.845,1.586c-3.087,4.432-5.981,9-8.943,13.519q-4.608,7.026-9.2,14.059c-1.718,2.632-3.468,5.251-5.1,7.937-.152.249.223.457.386.225,1.6-2.28,3.12-4.627,4.651-6.957s3.064-4.659,4.592-6.99q4.607-7.026,9.2-14.063c1.662-2.542,3.343-5.074,4.933-7.663.6.083,1.206.168,1.811.237.032.062.059.125.091.187.093.179.338.037.284-.139a71.377,71.377,0,0,0,10.734.342c.455-.02.909-.061,1.363-.09a.177.177,0,0,0,.255-.017c.64-.043,1.28-.1,1.918-.152-.136,6.187-.331,12.371-.691,18.549q-.558,9.593-1.621,19.147-1.054,9.6-2.625,19.144-1.561,9.482-3.643,18.868-2.065,9.337-4.6,18.562c-.215.783-.417,1.57-.625,2.356a.193.193,0,0,0,.371.1c1.877-6.152,3.436-12.414,4.87-18.684q2.141-9.367,3.784-18.839t2.794-19q1.153-9.587,1.76-19.229c.408-6.389.663-12.8.654-19.2,0-.6-.012-1.209-.021-1.814.73-.069,1.459-.148,2.186-.243C265.5,168.239,265.506,167.623,265.115,167.674Z" transform="translate(-170.922 -85.695)" fill="#c4b9a5"/>
        <path id="Trazado_67869" data-name="Trazado 67869" d="M212.184,181.165c-3.944,4.333-7.724,8.818-11.554,13.251s-7.665,8.873-11.494,13.312q-5.719,6.631-11.411,13.286-5.734,6.667-11.469,13.336c-3.822,4.447-7.652,8.89-11.434,13.37l-1.389,1.644c-.122.145.083.356.211.211q5.812-6.594,11.555-13.251t11.507-13.3c3.818-4.413,7.655-8.811,11.467-13.23q5.744-6.658,11.484-13.322c3.825-4.44,7.727-8.827,11.46-13.345.458-.553.911-1.111,1.366-1.667C212.652,181.257,212.371,180.96,212.184,181.165Z" transform="translate(-140.201 -98.633)" fill="#c4b9a5"/>
        <path id="Trazado_67870" data-name="Trazado 67870" d="M233.949,181.775c-2.5,6.737-4.819,13.543-7.271,20.3s-4.956,13.488-7.518,20.2q-3.861,10.116-7.894,20.163-4.015,10-8.2,19.933-4.2,9.99-8.558,19.912c-.344.784-.678,1.567-.993,2.363-.1.252.32.428.44.185,1.589-3.214,2.954-6.549,4.394-9.832,1.456-3.319,2.878-6.655,4.3-9.991q4.19-9.866,8.2-19.806,4.055-10.039,7.937-20.147,3.863-10.059,7.552-20.186c2.467-6.782,4.9-13.578,7.192-20.42.285-.851.55-1.708.819-2.564C234.429,181.628,234.04,181.529,233.949,181.775Z" transform="translate(-158.09 -98.873)" fill="#c4b9a5"/>
        <path id="Trazado_67871" data-name="Trazado 67871" d="M279.393,182.766c-.355,1.932-.581,3.888-.847,5.834s-.533,3.9-.808,5.852q-.823,5.851-1.732,11.689-1.806,11.642-3.944,23.232c-.805,4.348-1.684,8.681-2.491,13.028-.057.3.4.437.468.129,1.728-7.68,3.126-15.448,4.474-23.2s2.563-15.551,3.643-23.357c.3-2.179.6-4.358.872-6.54.276-2.2.589-4.4.728-6.614C279.77,182.61,279.431,182.56,279.393,182.766Z" transform="translate(-192.017 -99.319)" fill="#c4b9a5"/>
        <path id="Trazado_67872" data-name="Trazado 67872" d="M297.871,257.077a.188.188,0,0,0-.375,0c-.085,9.356-.494,18.709-1.307,28.031q-1.217,13.942-3.655,27.74c-.451,2.562-.94,5.118-1.447,7.669-.517,2.6-1.158,5.191-1.541,7.813a.139.139,0,0,0,.269.074c.7-2.237,1.138-4.566,1.624-6.858s.93-4.61,1.353-6.922q1.271-6.938,2.226-13.929,1.9-13.868,2.568-27.865Q297.955,264.958,297.871,257.077Z" transform="translate(-200.928 -132.443)" fill="#c4b9a5"/>
        <path id="Trazado_67873" data-name="Trazado 67873" d="M220,342.212c-3.356,8.535-6.481,17.165-9.651,25.77q-1.328,3.6-2.635,7.215c-.095.26.316.368.412.114,3.252-8.575,6.491-17.158,9.623-25.777.874-2.406,1.757-4.808,2.6-7.224C220.43,342.085,220.084,342,220,342.212Z" transform="translate(-164.422 -170.442)" fill="#c4b9a5"/>
        <path id="Trazado_67874" data-name="Trazado 67874" d="M308.667,125.291a9.149,9.149,0,0,0-.608,2.118l-.485,2.091q-.5,2.166-1,4.334c-.66,2.892-1.286,5.791-1.91,8.691-.049.228.294.326.352.1.728-2.872,1.455-5.744,2.148-8.626q.519-2.161,1.03-4.325.247-1.044.494-2.088a9.217,9.217,0,0,0,.4-2.177A.231.231,0,0,0,308.667,125.291Z" transform="translate(-207.671 -73.692)" fill="#c4b9a5"/>
        <path id="Trazado_67875" data-name="Trazado 67875" d="M239.75,136.105q-1.01-3.6-1.778-7.267c-.291-1.385-.56-2.776-.856-4.16-.045-.211-.407-.168-.383.052a65.307,65.307,0,0,0,1.349,7.422c.567,2.454,1.236,4.885,1.983,7.29a33.416,33.416,0,0,0,1.488,3.968c.085.184.37.052.321-.135C241.247,140.864,240.422,138.506,239.75,136.105Z" transform="translate(-177.372 -73.408)" fill="#c4b9a5"/>
        <path id="Trazado_67876" data-name="Trazado 67876" d="M215.431,140.107c-.421,1.328-.743,2.687-1.133,4.025-.4,1.362-.755,2.735-1.149,4.1q-1.171,4.053-2.474,8.066c-.465,1.425-.964,2.845-1.4,4.28l-.068-.066c.028-.229-.341-.27-.4-.054-.1.373.271.852.686.685.243-.1.312-.507.4-.73.14-.373.274-.748.41-1.123.551-1.522,1.066-3.057,1.566-4.6q1.474-4.546,2.727-9.16c.473-1.747.956-3.519,1.277-5.3A.231.231,0,0,0,215.431,140.107Z" transform="translate(-164.913 -80.277)" fill="#c4b9a5"/>
        <path id="Trazado_67877" data-name="Trazado 67877" d="M219.471,148.484a33.069,33.069,0,0,0-1.47,3.264l-1.418,3.39q-1.418,3.388-2.8,6.79c-.082.2.268.352.356.15q1.472-3.364,2.9-6.747.718-1.692,1.435-3.383a32.885,32.885,0,0,0,1.309-3.332A.171.171,0,0,0,219.471,148.484Z" transform="translate(-167.13 -84.05)" fill="#c4b9a5"/>
        <path id="Trazado_67878" data-name="Trazado 67878" d="M324.67,168.217c-.6-2.548-1.269-5.067-1.717-7.65-.453-2.607-.653-5.238-1-7.857a.183.183,0,0,0-.366,0,42.058,42.058,0,0,0,.794,7.863,47.84,47.84,0,0,0,1.874,7.759A.216.216,0,0,0,324.67,168.217Z" transform="translate(-215.218 -85.894)" fill="#c4b9a5"/>
        <path id="Trazado_67879" data-name="Trazado 67879" d="M329.018,165.582a.166.166,0,0,0-.332,0,35.507,35.507,0,0,0-.059,3.771c0,1.257.03,2.513.049,3.77a.175.175,0,0,0,.351,0c.019-1.257.045-2.513.049-3.77A35.507,35.507,0,0,0,329.018,165.582Z" transform="translate(-218.351 -91.642)" fill="#c4b9a5"/>
        <path id="Trazado_67880" data-name="Trazado 67880" d="M351.442,201.767A14.023,14.023,0,0,1,344,206.21c-.265.055-.151.451.111.4a11.69,11.69,0,0,0,7.529-4.695C351.718,201.8,351.536,201.663,351.442,201.767Z" transform="translate(-225.149 -107.837)" fill="#c4b9a5"/>
        <path id="Trazado_67881" data-name="Trazado 67881" d="M180.608,192.8a2.937,2.937,0,0,0-1-.658c-.337-.192-.666-.4-.984-.618a12.334,12.334,0,0,1-1.891-1.626,12.764,12.764,0,0,1-1.512-1.922c-.218-.341-.423-.692-.613-1.049a3.074,3.074,0,0,0-.634-1.012c-.076-.063-.235-.058-.253.067A2.042,2.042,0,0,0,174,187.1a10.539,10.539,0,0,0,.615,1.169,12.834,12.834,0,0,0,1.547,2.052,13.272,13.272,0,0,0,1.926,1.707,12.213,12.213,0,0,0,1.061.695,2.528,2.528,0,0,0,1.218.5C180.557,193.2,180.742,192.986,180.608,192.8Z" transform="translate(-149.262 -100.763)" fill="#c4b9a5"/>
        <path id="Trazado_67882" data-name="Trazado 67882" d="M280.04,43.772c-.649,2.618-3.137,4.064-5.581,4.7-2.75.72-5.685.752-8.248,2.1a6.587,6.587,0,0,0-2.9,2.8c-.083.162.153.3.245.143,1.389-2.431,4.261-3.314,6.843-3.785,2.76-.5,5.686-.756,7.967-2.56a5.516,5.516,0,0,0,2.122-3.273C280.542,43.605,280.113,43.476,280.04,43.772Z" transform="translate(-189.22 -37.307)" fill="#806659"/>
        <path id="Trazado_67883" data-name="Trazado 67883" d="M280.231,42.879c-.386.277-.694.645-1.079.927a6.7,6.7,0,0,1-1.312.74,11.094,11.094,0,0,1-3.007.733,49.888,49.888,0,0,0-6.275.687,6.849,6.849,0,0,0-3.034,1.528c-.117.11.04.325.174.227,3.6-2.617,8.266-1.211,12.238-2.729a4.726,4.726,0,0,0,2.571-1.836C280.587,42.992,280.409,42.751,280.231,42.879Z" transform="translate(-190.196 -36.967)" fill="#806659"/>
        <path id="Trazado_67884" data-name="Trazado 67884" d="M222.669,86.365c-5.291,2.764-10.447,5.8-15.632,8.76a15.428,15.428,0,0,0-5.22,4.145,7.379,7.379,0,0,0-.694,6.886,11.794,11.794,0,0,0,5.378,5.962c.187.1.42-.162.239-.31-1.852-1.508-3.719-2.955-4.781-5.165a7.015,7.015,0,0,1,.194-6.85,13.982,13.982,0,0,1,5.067-4.124c2.427-1.394,4.863-2.774,7.294-4.161,2.791-1.593,5.58-3.184,8.312-4.875A.156.156,0,0,0,222.669,86.365Z" transform="translate(-161.249 -56.371)" fill="#806659"/>
      </g>
    </g>
  </g>
</svg>
