<svg xmlns="http://www.w3.org/2000/svg" xmlns:xlink="http://www.w3.org/1999/xlink" width="283.799" height="250.828" viewBox="0 0 283.799 250.828">
  <defs>
    <linearGradient id="linear-gradient" x1="0.846" y1="-0.059" x2="-0.034" y2="1.031" gradientUnits="objectBoundingBox">
      <stop offset="0" stop-color="#e8eafb" stop-opacity="0.796"/>
      <stop offset="0.173" stop-color="#ecebfd"/>
      <stop offset="1" stop-color="#82d6de" stop-opacity="0"/>
    </linearGradient>
    <linearGradient id="linear-gradient-2" x1="0.5" y1="1" x2="0.5" gradientUnits="objectBoundingBox">
      <stop offset="0" stop-color="#3a6975"/>
      <stop offset="0.388" stop-color="#3b6a76" stop-opacity="0.984"/>
      <stop offset="0.553" stop-color="#3f717d" stop-opacity="0.922"/>
      <stop offset="0.674" stop-color="#477d88" stop-opacity="0.816"/>
      <stop offset="0.775" stop-color="#528d98" stop-opacity="0.663"/>
      <stop offset="0.863" stop-color="#60a3ac" stop-opacity="0.467"/>
      <stop offset="0.941" stop-color="#71bcc5" stop-opacity="0.231"/>
      <stop offset="1" stop-color="#82d6de" stop-opacity="0"/>
    </linearGradient>
    <linearGradient id="linear-gradient-3" x1="-0.278" y1="-0.055" x2="-1.168" y2="1.032" xlink:href="#linear-gradient"/>
    <linearGradient id="linear-gradient-4" x1="0.5" y1="0" x2="0.5" y2="1" xlink:href="#linear-gradient"/>
  </defs>
  <g id="Grupo_1068152" data-name="Grupo 1068152" transform="translate(-1083 -399.846)">
    <g id="BACKGROUND" transform="translate(1083 399.846)">
      <g id="Grupo_32241" data-name="Grupo 32241">
        <path id="Trazado_61861" data-name="Trazado 61861" d="M107.593,113.449c13.888-.48,27.317,4.387,40.6,8.463s27.5,7.427,40.95,3.921c18.079-4.714,30.692-20.563,42.018-35.422s24.138-30.618,42.3-34.991c16.962-4.084,35.262,3.237,47.607,15.564s19.47,28.991,23.916,45.862c11.013,41.787,5.7,89.964-22.916,122.348-22.892,25.91-57.449,38.636-91.584,44.137-24.623,3.968-50.223,4.63-74.166-2.35a121.172,121.172,0,0,1-70-54.733C68.435,195.535,51.851,115.375,107.593,113.449Z" transform="translate(-69.318 -35.458)" fill="#ffd54f"/>
        <path id="Trazado_61862" data-name="Trazado 61862" d="M190.642,99.253c16.719.31,34.721-5.844,47.226-14.573,6.933-4.839,13.13-11,16.83-18.605s4.679-16.756,1.453-24.57c-4.654-11.275-16.9-17.654-28.879-19.933a70.957,70.957,0,0,0-53.19,11.364c-10.739,7.488-22,18.146-24.783,31.482-3,14.368,9.37,25.391,21.548,30.776A51.267,51.267,0,0,0,190.642,99.253Z" transform="translate(-104.695 -20.373)" fill="#ffd54f"/>
      </g>
    </g>
    <g id="Grupo_35087" data-name="Grupo 35087" transform="translate(1047.238 269.773)" style="isolation: isolate">
      <path id="Trazado_67185" data-name="Trazado 67185" d="M153.683,275.868c0,3.979-25.5,7.2-56.96,7.2s-56.96-3.225-56.96-7.2,25.5-7.2,56.96-7.2S153.683,271.891,153.683,275.868Z" transform="translate(0 84.655)" fill="#c7c7c7" opacity="0.5" style="mix-blend-mode: multiply;isolation: isolate"/>
      <g id="Grupo_35086" data-name="Grupo 35086" transform="translate(48.006 161.073)">
        <g id="Grupo_35081" data-name="Grupo 35081">
          <path id="Trazado_67186" data-name="Trazado 67186" d="M77.961,164.633s-.877,8.734-4.215,12.238c-2.275,2.389-7.73,4.962-15.854,6.4-13.131,2.326-13.48,7.757-13.516,19.448-.027,8.766,7.817,15.828,7.817,15.828.459,3.836.125,6.736,1.982,13.031,1.024,3.472,7.113,16.366,7.6,18.513,2.207,9.786,4.9,19.226.708,29.6-3.554,8.789-13.567,26.189-12.615,42.862.4,7.058,1.631,20.534,3.374,32.972.027.027,12.594,9.715,34.232.034-.341-13.853-.666-25.1-.666-25.1l4.315.041V164.633Z" transform="translate(-44.376 -158.272)" fill="#ffc78f"/>
          <path id="Trazado_67187" data-name="Trazado 67187" d="M83.694,164.633s.879,8.734,4.215,12.238c2.275,2.389,7.732,4.962,15.854,6.4,13.131,2.326,13.48,7.757,13.516,19.448.029,8.766-7.816,15.828-7.816,15.828-.461,3.836-.366,6.824-2.225,13.117-1.024,3.472-6.872,16.28-7.356,18.428-2.207,9.786-4.9,19.226-.708,29.6,3.554,8.789,13.567,26.189,12.615,42.862-.4,7.058-1.63,20.534-3.374,32.972-.027.027-12.594,9.715-34.232.034.341-13.853.666-25.1.666-25.1l-4.315.041V164.633Z" transform="translate(-23.793 -158.272)" fill="#ffc78f"/>
          <path id="Trazado_67188" data-name="Trazado 67188" d="M76.332,161.073c-3.654,0-12.783.593-13.158,6.361-.268,4.111,10.669,8.044,13.158,8.044s13.426-3.933,13.158-8.044C89.115,161.666,79.986,161.073,76.332,161.073Z" transform="translate(-29.589 -161.073)" fill="#f5b97d"/>
          <path id="Trazado_67189" data-name="Trazado 67189" d="M71.588,195.794c-.025-.114-.129.2-.213.652-.095.477-.2,1.179-.293,2.078s-.163,1.994-.159,3.248a19.171,19.171,0,0,0,.606,4.135,26.143,26.143,0,0,0,1.606,4.651,22.432,22.432,0,0,0,2.859,4.622,17.777,17.777,0,0,0,9.654,6.209c3.865.945,8.089.956,11.462-.536a12.922,12.922,0,0,0,4.274-3.131,16.5,16.5,0,0,0,2.609-4.09,26.689,26.689,0,0,0,2.024-7.112,25.546,25.546,0,0,0,.281-2.827,19.922,19.922,0,0,1,0,2.855,24.88,24.88,0,0,1-1.547,7.4,17.463,17.463,0,0,1-2.557,4.458,13.292,13.292,0,0,1-4.539,3.617,15.75,15.75,0,0,1-6.05,1.433,22.985,22.985,0,0,1-6.322-.631,18.23,18.23,0,0,1-10.3-6.865,23.51,23.51,0,0,1-4.131-9.92,24.263,24.263,0,0,1,.071-7.54c.141-.9.289-1.6.409-2.066C71.445,195.987,71.564,195.678,71.588,195.794Z" transform="translate(-23.752 -133.773)" fill="#f5b97d"/>
          <path id="Trazado_67190" data-name="Trazado 67190" d="M85.23,195.794c.023-.116.143.193.256.645.118.47.266,1.169.407,2.066a24.208,24.208,0,0,1,.071,7.54,23.505,23.505,0,0,1-4.129,9.92,18.246,18.246,0,0,1-10.3,6.865,23,23,0,0,1-6.324.631,15.733,15.733,0,0,1-6.048-1.433,13.281,13.281,0,0,1-4.54-3.617,17.515,17.515,0,0,1-2.557-4.458,24.881,24.881,0,0,1-1.547-7.4,19.924,19.924,0,0,1,0-2.855,25.546,25.546,0,0,0,.281,2.827,26.757,26.757,0,0,0,2.024,7.112,16.5,16.5,0,0,0,2.609,4.09,12.922,12.922,0,0,0,4.274,3.131c3.374,1.492,7.6,1.481,11.462.536a17.777,17.777,0,0,0,9.654-6.209,22.355,22.355,0,0,0,2.859-4.622,26.143,26.143,0,0,0,1.606-4.651,19.181,19.181,0,0,0,.608-4.135,32.275,32.275,0,0,0-.161-3.248c-.089-.9-.2-1.6-.291-2.078C85.359,195.99,85.255,195.679,85.23,195.794Z" transform="translate(-39.579 -133.773)" fill="#f5b97d"/>
        </g>
        <g id="Grupo_35085" data-name="Grupo 35085" transform="translate(6.772 21.537)">
          <g id="Grupo_35083" data-name="Grupo 35083" transform="translate(2.434)">
            <g id="Grupo_35082" data-name="Grupo 35082">
              <path id="Trazado_67191" data-name="Trazado 67191" d="M50.537,213.311c-1.063-7.154,2.176-14.364,4.02-17.673h0c.359-1.313.859-3.654,1.424-6.513-.39,1.072-2.782,3.842-3.994,7.085l-.009.03c-2.559,5.65-4.144,15.261.609,24.2A24.4,24.4,0,0,1,50.537,213.311Z" transform="translate(-49.528 -160.538)" fill="#b492f1"/>
              <path id="Trazado_67192" data-name="Trazado 67192" d="M87.908,189.03c.39,1.072,2.816,4.011,4.026,7.255s-3.961-4.907-3.961-4.907Z" transform="translate(-19.33 -160.612)" fill="#b492f1"/>
              <path id="Trazado_67193" data-name="Trazado 67193" d="M116.624,191.071c-24.285,3.145-31.11,28.312-31.11,28.312s-4.088-15.033-17.159-23.313c-.046-.032-.082-.061-.13-.093a89.022,89.022,0,0,1-8.839-6.558l-.4,2.555h0l-.357,2.3a37.124,37.124,0,0,1,12.129,7.237c7.163,6.341,10.851,15.833,10.948,18.862.066,2.123-11.743,6.3-20.407,6.247a10.569,10.569,0,0,1-9.808-5.573c.029.048.052.1.08.147,1,4.036,2.861,6.574,4.17,9.7a41.2,41.2,0,0,0,13.821,0c7.172-1.32,10.1-2.264,15.949-2.264s8.777.943,15.949,2.264a41.2,41.2,0,0,0,13.821,0c1.356-4.271,3.164-5.662,4.17-9.7C127.569,207.41,119.9,191.573,116.624,191.071Z" transform="translate(-47.982 -160.306)" fill="#b492f1"/>
              <path id="Trazado_67194" data-name="Trazado 67194" d="M87.073,217.075a18.691,18.691,0,0,1-.359,1.937c-.08.338-.143.658-.207.961a12.535,12.535,0,0,0,1.383-.241c.025-.163.046-.322.077-.491a20.105,20.105,0,0,0,.259-2.03c.036-.725.127-1.487.125-2.278-.023-.79.005-1.608-.063-2.434-.095-.824-.113-1.667-.277-2.493a28.8,28.8,0,0,0-1.136-4.785,27.654,27.654,0,0,0-1.624-3.949,20.853,20.853,0,0,0-2.166-3.541,20.844,20.844,0,0,1,1.951,3.642,27.152,27.152,0,0,1,1.379,3.986,28.173,28.173,0,0,1,.847,4.739c.114.811.082,1.635.13,2.435.02.8-.054,1.594-.073,2.355C87.279,215.653,87.148,216.382,87.073,217.075Z" transform="translate(-23.125 -153.766)" fill="#db0000" opacity="0.3" style="mix-blend-mode: multiply;isolation: isolate"/>
              <path id="Trazado_67195" data-name="Trazado 67195" d="M56.312,217.075a18.227,18.227,0,0,0,.359,1.937c.08.338.141.658.207.961a12.463,12.463,0,0,1-1.383-.241c-.025-.163-.046-.322-.077-.491a19.13,19.13,0,0,1-.259-2.03c-.036-.725-.129-1.487-.125-2.278.023-.79-.005-1.608.063-2.434.095-.824.113-1.667.275-2.493a28.981,28.981,0,0,1,1.138-4.785,27.653,27.653,0,0,1,1.624-3.949,20.854,20.854,0,0,1,2.166-3.541,20.844,20.844,0,0,0-1.951,3.642,27.354,27.354,0,0,0-1.381,3.986,28.353,28.353,0,0,0-.845,4.739c-.114.811-.082,1.635-.132,2.435-.018.8.055,1.594.075,2.355C56.106,215.653,56.237,216.382,56.312,217.075Z" transform="translate(-45.196 -153.766)" fill="#db0000" opacity="0.3" style="mix-blend-mode: multiply;isolation: isolate"/>
              <path id="Trazado_67196" data-name="Trazado 67196" d="M93.519,208.226c-1.644-6.034-6.318-33.78-6.318-33.78l-4.572-1.32,5.444,35.1Z" transform="translate(-23.485 -173.126)" fill="#b492f1"/>
              <path id="Trazado_67197" data-name="Trazado 67197" d="M89.638,189.362a74.9,74.9,0,0,1-8.823,6.661c-5.964,4.06,9.4-2.975,9.4-2.975Z" transform="translate(-25.994 -160.351)" fill="#b492f1"/>
              <path id="Trazado_67198" data-name="Trazado 67198" d="M52.342,208.226c1.644-6.034,6.32-33.78,6.32-33.78l4.572-1.32-5.446,35.1Z" transform="translate(-47.314 -173.126)" fill="#b492f1"/>
            </g>
            <path id="Trazado_67199" data-name="Trazado 67199" d="M76.4,215.215V204.965a11.37,11.37,0,0,1-3.806-2c-2.443-1.742-6.32-5.639-9.518-8.243Z" transform="translate(-38.869 -156.137)" fill="#b492f1"/>
            <path id="Trazado_67200" data-name="Trazado 67200" d="M70.533,215.215V204.965a11.37,11.37,0,0,0,3.806-2c2.443-1.742,6.32-5.639,9.517-8.243Z" transform="translate(-33.001 -156.137)" fill="#b492f1"/>
            <path id="Trazado_67201" data-name="Trazado 67201" d="M118.07,191.814c-.629-.756-8.934,1.144-16.609,7.939-9,7.213-11.3,10.928-14.754,10.989-3.45-.061-5.75-3.776-14.754-10.989-7.674-6.8-15.98-8.695-16.61-7.939S48.8,202,50.185,211.318s5.548,13.5,12.309,13.544a41.546,41.546,0,0,0,9.238-1.147c11.28-1.821,14.975-1.9,14.975-1.9s3.72.079,14.564,1.8a42.118,42.118,0,0,0,9.649,1.244c6.76-.045,10.925-4.233,12.308-13.544S118.7,192.567,118.07,191.814Z" transform="translate(-49.176 -158.544)" fill="#db0000"/>
            <path id="Trazado_67202" data-name="Trazado 67202" d="M118.07,191.814c-.629-.756-8.934,1.144-16.609,7.939-9,7.213-11.3,10.928-14.754,10.989-3.45-.061-5.75-3.776-14.754-10.989-7.674-6.8-15.98-8.695-16.61-7.939S48.8,202,50.185,211.318s5.548,13.5,12.309,13.544a41.546,41.546,0,0,0,9.238-1.147c11.28-1.821,14.975-1.9,14.975-1.9s3.72.079,14.564,1.8a42.118,42.118,0,0,0,9.649,1.244c6.76-.045,10.925-4.233,12.308-13.544S118.7,192.567,118.07,191.814Z" transform="translate(-49.176 -158.544)" fill="#673ab7"/>
          </g>
          <g id="Grupo_35084" data-name="Grupo 35084" transform="translate(0 116.808)">
            <path id="Trazado_67203" data-name="Trazado 67203" d="M117.2,238.5l1.639,4.359-59.323,7.182-2.271-3.947Z" transform="translate(-41.022 -238.498)" fill="#db0000"/>
            <path id="Trazado_67204" data-name="Trazado 67204" d="M117.2,238.5l1.639,4.359-59.323,7.182-2.271-3.947Z" transform="translate(-41.022 -238.498)" fill="#b492f1"/>
            <path id="Trazado_67205" data-name="Trazado 67205" d="M50.995,238.5l-1.639,4.359,59.323,7.182,2.271-3.947Z" transform="translate(-47.23 -238.498)" fill="#db0000"/>
            <path id="Trazado_67206" data-name="Trazado 67206" d="M50.995,238.5l-1.639,4.359,59.323,7.182,2.271-3.947Z" transform="translate(-47.23 -238.498)" fill="#b492f1"/>
            <path id="Trazado_67207" data-name="Trazado 67207" d="M125.307,240.279,88.137,250.541,50.968,240.279c-.945,2.589-2.441,6.095-2.8,10.133,0,0,25.8,1.756,35.815,25.321a25.019,25.019,0,0,0,4.156.736,25.213,25.213,0,0,0,4.167-.736c10.015-23.565,35.8-25.321,35.8-25.321A29.9,29.9,0,0,0,125.307,240.279Z" transform="translate(-48.166 -237.097)" fill="#673ab7"/>
            <path id="Trazado_67208" data-name="Trazado 67208" d="M83.981,273.028s1.676.309,3.041.52c-2.214-8.546-7.776-15.033-16.4-21.326-7.378-5.382-18.529-8.505-21.867-8.505a36.265,36.265,0,0,0-.584,3.99S73.966,249.463,83.981,273.028Z" transform="translate(-48.166 -234.392)" fill="#b492f1"/>
            <path id="Trazado_67209" data-name="Trazado 67209" d="M74.207,273.028s-1.676.309-3.041.52c2.214-8.546,7.766-15.033,16.4-21.326,7.378-5.382,18.528-8.505,21.865-8.505a36.265,36.265,0,0,1,.584,3.99S84.222,249.463,74.207,273.028Z" transform="translate(-30.069 -234.392)" fill="#b492f1"/>
          </g>
        </g>
      </g>
    </g>
    <g id="Grupo_35104" data-name="Grupo 35104" transform="translate(1189.102 269.773)" style="isolation: isolate">
      <g id="Grupo_35090" data-name="Grupo 35090" transform="translate(48.31 161.073)">
        <path id="Trazado_67210" data-name="Trazado 67210" d="M153.683,275.868c0,3.979-25.5,7.2-56.96,7.2s-56.96-3.225-56.96-7.2,25.5-7.2,56.96-7.2S153.683,271.891,153.683,275.868Z" transform="translate(-39.762 -76.418)" fill="#c7c7c7" opacity="0.5" style="mix-blend-mode: multiply;isolation: isolate"/>
        <g id="Grupo_35089" data-name="Grupo 35089" transform="translate(8.244)">
          <g id="Grupo_35088" data-name="Grupo 35088">
            <path id="Trazado_67211" data-name="Trazado 67211" d="M77.961,164.633s-.877,8.734-4.215,12.238c-2.275,2.389-7.73,4.962-15.854,6.4-13.131,2.326-13.48,7.757-13.516,19.448-.027,8.766,7.817,15.828,7.817,15.828.459,3.836.125,6.736,1.982,13.031,1.024,3.472,7.113,16.365,7.6,18.513,2.207,9.786,4.9,19.226.708,29.6-3.554,8.789-13.567,26.189-12.615,42.862.4,7.058,1.631,20.534,3.374,32.972.027.027,12.594,9.715,34.232.034-.341-13.853-.666-25.1-.666-25.1l4.315.041V164.633Z" transform="translate(-44.376 -158.272)" fill="#ffc78f"/>
            <path id="Trazado_67212" data-name="Trazado 67212" d="M83.694,164.633s.879,8.734,4.215,12.238c2.275,2.389,7.732,4.962,15.854,6.4,13.131,2.326,13.48,7.757,13.516,19.448.029,8.766-7.816,15.828-7.816,15.828-.461,3.836-.366,6.824-2.225,13.117-1.024,3.472-6.872,16.28-7.356,18.428-2.207,9.786-4.9,19.226-.708,29.6,3.554,8.789,13.567,26.189,12.615,42.862-.4,7.058-1.63,20.534-3.374,32.972-.027.027-12.594,9.715-34.232.034.341-13.853.666-25.1.666-25.1l-4.315.041V164.633Z" transform="translate(-23.793 -158.272)" fill="#ffc78f"/>
            <path id="Trazado_67213" data-name="Trazado 67213" d="M76.332,161.073c-3.654,0-12.783.593-13.158,6.361-.268,4.111,10.669,8.044,13.158,8.044s13.426-3.933,13.158-8.044C89.115,161.666,79.986,161.073,76.332,161.073Z" transform="translate(-29.589 -161.073)" fill="#f5b97d"/>
            <path id="Trazado_67214" data-name="Trazado 67214" d="M71.588,195.794c-.025-.114-.129.2-.213.652-.095.477-.2,1.179-.293,2.078s-.163,1.994-.159,3.248a19.171,19.171,0,0,0,.606,4.135,26.144,26.144,0,0,0,1.606,4.651,22.431,22.431,0,0,0,2.859,4.622,17.777,17.777,0,0,0,9.654,6.209c3.865.945,8.089.956,11.462-.536a12.922,12.922,0,0,0,4.274-3.13,16.5,16.5,0,0,0,2.609-4.09,26.689,26.689,0,0,0,2.024-7.112,25.545,25.545,0,0,0,.281-2.827,19.922,19.922,0,0,1,0,2.855,24.88,24.88,0,0,1-1.547,7.4,17.463,17.463,0,0,1-2.557,4.458,13.291,13.291,0,0,1-4.539,3.617,15.749,15.749,0,0,1-6.05,1.433,22.984,22.984,0,0,1-6.322-.631,18.23,18.23,0,0,1-10.3-6.865,23.51,23.51,0,0,1-4.131-9.92,24.264,24.264,0,0,1,.071-7.54c.141-.9.289-1.6.409-2.066C71.445,195.987,71.564,195.678,71.588,195.794Z" transform="translate(-23.752 -133.773)" fill="#f5b97d"/>
            <path id="Trazado_67215" data-name="Trazado 67215" d="M85.23,195.794c.023-.116.143.193.256.645.118.47.266,1.169.407,2.066a24.208,24.208,0,0,1,.071,7.54,23.505,23.505,0,0,1-4.129,9.92,18.245,18.245,0,0,1-10.3,6.865,23,23,0,0,1-6.324.631,15.732,15.732,0,0,1-6.048-1.433,13.281,13.281,0,0,1-4.54-3.617,17.515,17.515,0,0,1-2.557-4.458,24.88,24.88,0,0,1-1.547-7.4,19.924,19.924,0,0,1,0-2.855,25.547,25.547,0,0,0,.281,2.827,26.757,26.757,0,0,0,2.024,7.112,16.5,16.5,0,0,0,2.609,4.09,12.922,12.922,0,0,0,4.274,3.13c3.374,1.492,7.6,1.481,11.462.536a17.777,17.777,0,0,0,9.654-6.209,22.354,22.354,0,0,0,2.859-4.622,26.143,26.143,0,0,0,1.606-4.651,19.181,19.181,0,0,0,.608-4.135,32.272,32.272,0,0,0-.161-3.248c-.089-.9-.2-1.6-.291-2.078C85.359,195.99,85.255,195.679,85.23,195.794Z" transform="translate(-39.579 -133.773)" fill="#f5b97d"/>
          </g>
        </g>
      </g>
      <path id="Trazado_67216" data-name="Trazado 67216" d="M46.911,246.467l-.649,35.744s30.433,5.989,40.943,3.94V275.063s2.7-3.785,3.556,1.26a65.056,65.056,0,0,1,.847,9.806s30.7,3.438,39.112-3.288l1.824-36.374Z" transform="translate(13.662 67.19)" fill="#080033"/>
      <g id="Grupo_35103" data-name="Grupo 35103" transform="translate(28.898 176)">
        <g id="Grupo_35102" data-name="Grupo 35102">
          <path id="Trazado_67217" data-name="Trazado 67217" d="M72.555,169.439s-22.362,8.82-27.4,12.284c0,0,11.023,21.731,3.779,38.738l-3.1,86.613s65.734,4.41,89.355,0l-3.1-86.613c-7.244-17.007,3.779-38.738,3.779-38.738-5.039-3.465-27.4-12.284-27.4-12.284S90.507,179.833,72.555,169.439Z" transform="translate(-16.107 -169.417)" fill="#ba68c8"/>
          <g id="Grupo_35091" data-name="Grupo 35091" transform="translate(56.771 0.022)">
            <path id="Trazado_67218" data-name="Trazado 67218" d="M70.609,172.02c-.055,0-.111,0-.166.005C70.5,172.024,70.554,172.02,70.609,172.02Z" transform="translate(-52.98 -167.408)" fill="#ecebfd"/>
            <path id="Trazado_67219" data-name="Trazado 67219" d="M87.741,169.439a37.891,37.891,0,0,1-17.205,4.612,41.2,41.2,0,0,0,17.631-4.435Z" transform="translate(-52.907 -169.439)" fill="#ecebfd"/>
            <path id="Trazado_67220" data-name="Trazado 67220" d="M81.759,247.609c-3.715,0-7.485-.036-11.223-.1C74.274,247.575,78.048,247.612,81.759,247.609Z" transform="translate(-52.907 -108.013)" fill="#ecebfd"/>
            <path id="Trazado_67221" data-name="Trazado 67221" d="M78.133,174.056a31.642,31.642,0,0,1-17.039-4.617s-.155.066-.423.177A34.15,34.15,0,0,0,78.133,174.056Z" transform="translate(-60.67 -169.439)" fill="#ecebfd"/>
          </g>
          <g id="Grupo_35092" data-name="Grupo 35092" transform="translate(30.935 49.249)" opacity="0.7">
            <path id="Trazado_67222" data-name="Trazado 67222" d="M129.086,196.989l-.474.37c.214,2.184.331,4.406.331,6.667,0,28.736-17.693,52.031-39.519,52.031S49.9,232.761,49.9,204.026a69.276,69.276,0,0,1,.363-6.97,27.1,27.1,0,0,1-1.036,2.891l-3.018,84.261s63.949,4.29,86.929,0l-3.018-84.261A26.88,26.88,0,0,1,129.086,196.989Z" transform="translate(-46.211 -196.989)" fill="#7b1fa2"/>
          </g>
          <g id="Grupo_35093" data-name="Grupo 35093" transform="translate(29.047 0.022)">
            <path id="Trazado_67223" data-name="Trazado 67223" d="M108.459,172.659s19.659,7.753,26.265,11.577c.672-1.592,1.136-2.512,1.136-2.512-5.039-3.465-27.4-12.284-27.4-12.284s-17.952,10.394-35.9,0c0,0-22.362,8.82-27.4,12.284,0,0,.465.92,1.136,2.512,6.606-3.824,26.265-11.577,26.265-11.577C90.507,183.053,108.459,172.659,108.459,172.659Z" transform="translate(-45.154 -169.439)" fill="#9fa8da" opacity="0.55"/>
            <path id="Trazado_67224" data-name="Trazado 67224" d="M46.752,243.777l-.109,3.07s62.814,4.213,85.387,0l-.111-3.057C109.78,247.874,49.525,243.961,46.752,243.777Z" transform="translate(-43.982 -110.948)" fill="#673ab7"/>
          </g>
          <path id="Trazado_67225" data-name="Trazado 67225" d="M57.945,176.314,28.9,194.825l16.133,27.156,16.693-6.929S70.543,202.139,57.945,176.314Z" transform="translate(-28.898 -164.008)" fill="#7b1fa2"/>
          <path id="Trazado_67226" data-name="Trazado 67226" d="M59.36,179.378c-.443-1-.906-2.019-1.415-3.064L28.9,194.825l11.795,19.853C42.126,200.824,48.031,185.077,59.36,179.378Z" transform="translate(-28.898 -164.008)" fill="#ba68c8" opacity="0.55"/>
          <g id="Grupo_35094" data-name="Grupo 35094" transform="translate(1.074 13.98)">
            <path id="Trazado_67227" data-name="Trazado 67227" d="M57.675,178.093c-.132-.281-.259-.557-.4-.842L29.5,194.955l11.28,18.987c.043-.423.1-.852.157-1.279l-10.3-17.336Z" transform="translate(-29.499 -177.251)" opacity="0.55" fill="url(#linear-gradient)"/>
          </g>
          <g id="Grupo_35095" data-name="Grupo 35095" transform="translate(14.745 12.306)">
            <path id="Trazado_67228" data-name="Trazado 67228" d="M51.452,176.314l-.568.479c10.624,23.929,2.457,35.9,2.457,35.9l-16.19,6.72,1.388,2.573,16.693-6.929S64.051,202.139,51.452,176.314Z" transform="translate(-37.15 -176.314)" fill="#361274"/>
          </g>
          <path id="Trazado_67229" data-name="Trazado 67229" d="M98.9,176.314l29.047,18.511-16.133,27.156-16.692-6.929S86.306,202.139,98.9,176.314Z" transform="translate(20.849 -164.008)" fill="#7b1fa2"/>
          <path id="Trazado_67230" data-name="Trazado 67230" d="M105.864,187.9c2.562,3.29,3.751,7.43,4.4,11.489A87.588,87.588,0,0,1,111.3,218.78l14.23-23.954L96.481,176.314c-.457.936-.877,1.851-1.279,2.755C99.1,181.683,102.775,183.933,105.864,187.9Z" transform="translate(23.272 -164.008)" fill="#ba68c8" opacity="0.55"/>
          <g id="Grupo_35096" data-name="Grupo 35096" transform="translate(112.973 12.306)">
            <path id="Trazado_67231" data-name="Trazado 67231" d="M99.309,176.653l-.406-.339c-12.6,25.825-3.779,38.738-3.779,38.738l16.692,6.929.809-1.5-16.3-6.767S87.891,201.36,99.309,176.653Z" transform="translate(-92.124 -176.314)" fill="#361274"/>
          </g>
          <path id="Trazado_67232" data-name="Trazado 67232" d="M96.836,169.439c-14.675,8.82-35.874,0-35.874,0-2.282,2.362,0,3.395,0,3.395s21.2,8.82,35.874,0C96.836,172.834,99.607,171.8,96.836,169.439Z" transform="translate(-4.468 -169.417)" fill="#4e959e"/>
          <g id="Grupo_35097" data-name="Grupo 35097" transform="translate(55.48 1.708)" opacity="0.78">
            <path id="Trazado_67233" data-name="Trazado 67233" d="M96.836,171.619c-14.679,8.818-35.881,0-35.881,0a1.843,1.843,0,0,1-.99-1.224,1.707,1.707,0,0,0,.99,1.7s21.2,8.82,35.881,0c0,0,1.431-.532,1.208-1.708C97.877,171.228,96.836,171.619,96.836,171.619Z" transform="translate(-59.948 -170.383)" fill="#325260"/>
          </g>
          <g id="Grupo_35098" data-name="Grupo 35098" transform="translate(55.48 0.022)">
            <path id="Trazado_67234" data-name="Trazado 67234" d="M96.836,170.386a3.646,3.646,0,0,1,1.14,1.442c.229-.55.093-1.338-1.14-2.389-14.677,8.82-35.876,0-35.876,0-1.018,1.054-1.126,1.842-.935,2.393a3.59,3.59,0,0,1,.935-1.446S82.159,179.2,96.836,170.386Z" transform="translate(-59.947 -169.439)" fill="#82d6de"/>
          </g>
          <g id="Grupo_35099" data-name="Grupo 35099" transform="translate(51.403)">
            <path id="Trazado_67235" data-name="Trazado 67235" d="M98.615,169.448c-2.945,4.188-9.484,14.882-18,20.881l-.25.248c-8.555-6.029-14.656-16.878-17.659-21.129a12.615,12.615,0,0,0-2.8.849,20.383,20.383,0,0,0-2.246,1.181s8.486,14.841,22.7,24.86l.277-.275c14.205-10.01,22.728-24.665,22.744-24.694.009-.013-1.971-1-2.15-1.083A21.49,21.49,0,0,0,98.615,169.448Z" transform="translate(-57.666 -169.427)" fill="#7b1fa2"/>
          </g>
          <g id="Grupo_35100" data-name="Grupo 35100" transform="translate(51.403)">
            <path id="Trazado_67236" data-name="Trazado 67236" d="M62.71,170.522c3,4.251,9.1,15.1,17.659,21.129l.25-.25c8.511-6,15.05-16.693,18-20.879a21.793,21.793,0,0,1,2.627.836c.121.055,1.058.522,1.653.824.323-.515.495-.808.5-.813s-1.971-1-2.15-1.083a21.49,21.49,0,0,0-2.627-.838c-2.945,4.188-9.484,14.882-18,20.881l-.25.248c-8.555-6.029-14.656-16.878-17.659-21.129a12.615,12.615,0,0,0-2.8.849,20.383,20.383,0,0,0-2.246,1.181s.166.291.481.8a14.332,14.332,0,0,1,1.765-.911A12.5,12.5,0,0,1,62.71,170.522Z" transform="translate(-57.666 -169.427)" fill="#82d6de"/>
            <path id="Trazado_67237" data-name="Trazado 67237" d="M80.646,194.85l-.277.275c-12.261-8.639-20.254-20.858-22.223-24.058-.159.091-.318.182-.481.272,0,0,8.486,14.841,22.7,24.86l.277-.277c14.205-10.01,22.728-24.664,22.744-24.692,0-.005-.211-.116-.5-.261C100.895,174.169,92.881,186.228,80.646,194.85Z" transform="translate(-57.666 -168.214)" fill="url(#linear-gradient-2)"/>
          </g>
          <g id="Grupo_35101" data-name="Grupo 35101" transform="translate(119.753 13.537)">
            <path id="Trazado_67238" data-name="Trazado 67238" d="M95.918,177.864c.134-.288.263-.57.4-.861l27.987,18.1-11.364,19.417c-.045-.432-.105-.872-.159-1.308l10.378-17.729Z" transform="translate(-95.918 -177.003)" opacity="0.55" fill="url(#linear-gradient-3)"/>
          </g>
        </g>
        <path id="Trazado_67241" data-name="Trazado 67241" d="M50.665,220.462c6.942-17.007-3.622-38.738-3.622-38.738,4.433-3.181,22.843-10.867,25.836-12.108-.109-.061-.216-.114-.323-.177,0,0-22.362,8.82-27.4,12.284,0,0,11.023,21.731,3.779,38.738l-3.1,86.613s21.721,1.456,44.678,1.858c-22-.4-42.816-1.858-42.816-1.858Z" transform="translate(-16.107 -169.417)" fill="url(#linear-gradient-4)"/>
        <path id="Trazado_67242" data-name="Trazado 67242" d="M110.947,181.723c-5.039-3.465-27.4-12.284-27.4-12.284s-.118.068-.322.177c3,1.242,21.4,8.927,25.834,12.108,0,0-10.564,21.731-3.622,38.738l2.975,86.613c-7.414,1.444-19.155,1.942-31.595,1.96,13.16-.005,25.623-.5,33.455-1.96l-3.1-86.613C99.924,203.455,110.947,181.723,110.947,181.723Z" transform="translate(8.806 -169.417)" fill="url(#linear-gradient-4)"/>
        <path id="Trazado_67243" data-name="Trazado 67243" d="M131.871,243.79s-31.562,3.76-85.167-.013" transform="translate(-14.888 -110.927)" fill="none" stroke="#82d6de" stroke-linecap="round" stroke-linejoin="round" stroke-width="1.842"/>
      </g>
      <line id="Línea_59" data-name="Línea 59" x1="0.551" y2="36.06" transform="translate(63.326 313.974)" fill="none" stroke="#fff" stroke-miterlimit="10" stroke-width="1"/>
      <line id="Línea_60" data-name="Línea 60" x1="0.557" y2="36.441" transform="translate(66.531 314.155)" fill="none" stroke="#fff" stroke-miterlimit="10" stroke-width="1"/>
      <line id="Línea_61" data-name="Línea 61" x2="0.548" y2="36.779" transform="translate(141.946 314.428)" fill="none" stroke="#fff" stroke-miterlimit="10" stroke-width="1"/>
      <line id="Línea_62" data-name="Línea 62" x2="0.564" y2="37.797" transform="translate(138.735 314.613)" fill="none" stroke="#fff" stroke-miterlimit="10" stroke-width="1"/>
      <path id="Trazado_67244" data-name="Trazado 67244" d="M68.169,247.458l1.8,26.826s2.514-1.176,3.241,0l2.083-26.7Z" transform="translate(30.899 67.97)" fill="#707070"/>
      <path id="Trazado_67245" data-name="Trazado 67245" d="M62.446,170.767l-.92,1.778s9.215,15.015,16.131,18.853c0,0,10.655-8.06,16.669-18.824a22.9,22.9,0,0,1-1.837-3.888c-.447-1.526-16.562,3.27-16.562,3.27s-4.492-1.079-5.123-1.158S62.446,170.767,62.446,170.767Z" transform="translate(25.672 5.753)" fill="#ffc78f"/>
    </g>
  </g>
</svg>
