<svg xmlns="http://www.w3.org/2000/svg" width="249.385" height="222.609" viewBox="0 0 249.385 222.609">
  <g id="Grupo_1068188" data-name="Grupo 1068188" transform="translate(-895 -28520)">
    <g id="BACKGROUND" transform="translate(895 28520)">
      <g id="Grupo_32241" data-name="Grupo 32241" transform="translate(0 0)">
        <path id="Trazado_61861" data-name="Trazado 61861" d="M103.287,106.792c12.325-.426,24.243,3.893,36.034,7.511s24.409,6.592,36.342,3.48c16.045-4.183,27.239-18.25,37.291-31.437S234.376,59.173,250.5,55.291c15.053-3.624,31.294,2.873,42.251,13.813s17.279,25.73,21.226,40.7c9.774,37.086,5.056,79.843-20.338,108.584-20.317,22.995-50.986,34.29-81.28,39.171-21.853,3.522-44.572,4.109-65.822-2.086A107.539,107.539,0,0,1,84.407,206.9C68.535,179.644,53.816,108.5,103.287,106.792Z" transform="translate(-69.318 -37.576)" fill="#ffd54f"/>
        <path id="Trazado_61862" data-name="Trazado 61862" d="M185.939,90.379c14.838.275,30.815-5.187,41.913-12.933C234,73.151,239.5,67.679,242.788,60.933s4.152-14.871,1.29-21.806c-4.13-10.006-15-15.668-25.63-17.691a62.974,62.974,0,0,0-47.206,10.085c-9.53,6.646-19.521,16.1-22,27.94C146.581,72.213,157.562,82,168.37,86.775A45.5,45.5,0,0,0,185.939,90.379Z" transform="translate(-109.662 -20.373)" fill="#ffd54f"/>
      </g>
    </g>
    <g id="Grupo_1068106" data-name="Grupo 1068106" transform="translate(-3.791 -925)">
      <g id="Grupo_40865" data-name="Grupo 40865" transform="translate(862 29452.127)">
        <g id="Grupo_40830" data-name="Grupo 40830" transform="translate(90.957 29.844)">
          <rect id="Rectángulo_8579" data-name="Rectángulo 8579" width="7.071" height="33.749" transform="translate(19.323 77.381)" fill="#fff"/>
          <path id="Rectángulo_8580" data-name="Rectángulo 8580" d="M1.205,0h0A1.205,1.205,0,0,1,2.411,1.205V18.722a0,0,0,0,1,0,0H0a0,0,0,0,1,0,0V1.205A1.205,1.205,0,0,1,1.205,0Z" transform="translate(138.528)" fill="#fff2f2"/>
          <rect id="Rectángulo_8581" data-name="Rectángulo 8581" width="2.732" height="33.749" transform="translate(23.662 77.381)" fill="#ffe6e6"/>
          <rect id="Rectángulo_8582" data-name="Rectángulo 8582" width="12.957" height="10.888" rx="5.125" transform="translate(16.38 77.381)" fill="#fff7f7"/>
          <path id="Trazado_73548" data-name="Trazado 73548" d="M336.233,327.17h-8.015a2.471,2.471,0,0,0-2.471,2.471v1.667l12.957,1.085v-2.752A2.471,2.471,0,0,0,336.233,327.17Z" transform="translate(-309.367 -249.789)" fill="#311e69"/>
          <rect id="Rectángulo_8583" data-name="Rectángulo 8583" width="6.313" height="2.072" transform="translate(27.58 84.834)" fill="#fff7f7"/>
          <path id="Trazado_73549" data-name="Trazado 73549" d="M313.218,413.975l-1.4-1.36a1.582,1.582,0,0,1-.478-1.133h0a1.583,1.583,0,0,1,1.582-1.582h.361a1.583,1.583,0,0,1,1.086.431l1.105,1.042a4.327,4.327,0,0,0,2.968,1.179h13.509a1.326,1.326,0,0,1,1.326,1.326h0a1.326,1.326,0,0,1-1.326,1.326H316.237A4.327,4.327,0,0,1,313.218,413.975Z" transform="translate(-300.378 -301.422)" fill="#fff"/>
          <path id="Trazado_73550" data-name="Trazado 73550" d="M445.43,170.69H329.33A23.433,23.433,0,0,0,305.9,194.122v25.4a13.2,13.2,0,0,0,13.2,13.2h17.577a13.2,13.2,0,0,0,13.2-13.2h0a8.217,8.217,0,0,1,8.216-8.216H445.43Z" transform="translate(-296.978 -152.128)" fill="#9fa8da"/>
          <path id="Trazado_73551" data-name="Trazado 73551" d="M421.7,170.69H305.6a23.432,23.432,0,0,0-23.432,23.432v25.4a13.2,13.2,0,0,0,13.2,13.2h17.577a13.2,13.2,0,0,0,13.2-13.2h0a8.216,8.216,0,0,1,8.216-8.216H421.7Z" transform="translate(-282.169 -152.128)" fill="#fff"/>
          <g id="Grupo_40818" data-name="Grupo 40818" transform="translate(0 35.782)">
            <path id="Trazado_73552" data-name="Trazado 73552" d="M308.142,223.389c-10.648-.215-20.065-4.243-25.134-6.886a23.436,23.436,0,0,0-.839,6.212v25.4a13.2,13.2,0,0,0,13.2,13.2h17.577a13.2,13.2,0,0,0,13.2-13.2h0a8.216,8.216,0,0,1,8.216-8.216H421.7v-16.43C387.665,223.538,318.167,223.591,308.142,223.389Z" transform="translate(-282.169 -216.503)" fill="#fff7f7"/>
          </g>
          <path id="Trazado_73553" data-name="Trazado 73553" d="M408.041,420.435h-122.8a3.073,3.073,0,0,1-3.073-3.073V407.4a12.813,12.813,0,0,1,12.813-12.813h77.382c.3,0,.6-.016.9-.016,17.419,0,21.758-22.509,21.758-22.509Z" transform="translate(-282.169 -277.807)" fill="#fff7f7"/>
          <path id="Trazado_73554" data-name="Trazado 73554" d="M617,170.69H591.938a11.236,11.236,0,0,0-11.2,11.2V289.45a5.322,5.322,0,0,0,5.306,5.306h36.853a5.322,5.322,0,0,0,5.306-5.306V181.893A11.236,11.236,0,0,0,617,170.69Z" transform="translate(-468.508 -152.128)" fill="#fff"/>
          <g id="Grupo_40819" data-name="Grupo 40819" transform="translate(112.227 18.562)">
            <path id="Trazado_73555" data-name="Trazado 73555" d="M591.938,170.69a11.236,11.236,0,0,0-11.2,11.2V289.45a5.322,5.322,0,0,0,5.306,5.306h15.893V170.69Z" transform="translate(-580.735 -170.69)" fill="#fff7f7"/>
          </g>
          <path id="Trazado_73556" data-name="Trazado 73556" d="M678.724,271.26V258.145l-17.036,5.427a14.719,14.719,0,0,0,9.01,6.939A20.973,20.973,0,0,0,678.724,271.26Z" transform="translate(-519.031 -206.71)" fill="#311e69"/>
          <g id="Grupo_40820" data-name="Grupo 40820" transform="translate(137.406 31.429)">
            <path id="Trazado_73557" data-name="Trazado 73557" d="M666.669,232.168l.2-27.069-8.225-.179c-6.033,0-10.923,6.14-10.923,13.713s4.891,13.713,10.923,13.713Z" transform="translate(-647.72 -204.921)" fill="#9fa8da"/>
            <ellipse id="Elipse_724" data-name="Elipse 724" cx="10.923" cy="13.535" rx="10.923" ry="13.535" transform="translate(8.125 0.178)" fill="#fff2f2"/>
          </g>
          <g id="Grupo_40821" data-name="Grupo 40821" transform="translate(115.476 96.129)">
            <rect id="Rectángulo_8584" data-name="Rectángulo 8584" width="12.993" height="12.093" transform="translate(0.85)" fill="#ffe6e6"/>
            <rect id="Rectángulo_8585" data-name="Rectángulo 8585" width="8.662" height="7.396" transform="translate(3.015 2.349)" fill="#9fa8da"/>
            <path id="Rectángulo_8586" data-name="Rectángulo 8586" d="M1.443,0H11.677a0,0,0,0,1,0,0V2.886a0,0,0,0,1,0,0H1.443A1.443,1.443,0,0,1,0,1.443v0A1.443,1.443,0,0,1,1.443,0Z" transform="translate(0 2.349)" fill="#fff"/>
          </g>
          <g id="Grupo_40822" data-name="Grupo 40822" transform="translate(77.655 28.757)">
            <path id="Trazado_73558" data-name="Trazado 73558" d="M501.917,210.064l-.09-12.172,2.4-.08c2.713,0,4.912,2.761,4.912,6.166s-2.2,6.166-4.912,6.166Z" transform="translate(-496.915 -197.812)" fill="#9fa8da"/>
            <ellipse id="Elipse_725" data-name="Elipse 725" cx="4.912" cy="6.086" rx="4.912" ry="6.086" transform="translate(0 0.08)" fill="#fff2f2"/>
          </g>
          <g id="Grupo_40823" data-name="Grupo 40823" transform="translate(54.883 27.035)">
            <path id="Trazado_73559" data-name="Trazado 73559" d="M445.008,208.905l-.115-15.57,3.064-.1c3.47,0,6.283,3.531,6.283,7.887s-2.813,7.888-6.283,7.888Z" transform="translate(-438.61 -193.233)" fill="#9fa8da"/>
            <ellipse id="Elipse_726" data-name="Elipse 726" cx="6.283" cy="7.785" rx="6.283" ry="7.785" transform="translate(0 0.102)" fill="#fff2f2"/>
          </g>
          <g id="Grupo_40824" data-name="Grupo 40824" transform="translate(31.913 83.02)">
            <path id="Trazado_73560" data-name="Trazado 73560" d="M371.006,347.834l.042-5.624-1.709-.037a2.923,2.923,0,0,0,0,5.7Z" transform="translate(-367.069 -342.173)" fill="#ffe6e6"/>
            <path id="Trazado_73561" data-name="Trazado 73561" d="M373.829,347.9a2.877,2.877,0,1,1,2.27-2.812A2.585,2.585,0,0,1,373.829,347.9Z" transform="translate(-369.872 -342.235)" fill="#fff2f2"/>
          </g>
          <path id="Trazado_73562" data-name="Trazado 73562" d="M575.774,219.857l-2.988,22.138h2.988Z" transform="translate(-463.546 -182.814)" fill="#311e69"/>
          <path id="Trazado_73563" data-name="Trazado 73563" d="M333.576,356.779l7.071.6v-1.245h-7.071Z" transform="translate(-314.253 -267.868)" fill="#311e69"/>
          <g id="Grupo_40825" data-name="Grupo 40825" transform="translate(115.476 56.036)">
            <path id="Trazado_73564" data-name="Trazado 73564" d="M591.578,272.412c0,1.119-.493,2.026-1.1,2.026s-1.1-.907-1.1-2.026.492-2.026,1.1-2.026S591.578,271.293,591.578,272.412Z" transform="translate(-589.378 -270.386)" fill="#ffe695"/>
            <ellipse id="Elipse_727" data-name="Elipse 727" cx="1.1" cy="2.026" rx="1.1" ry="2.026" transform="translate(4.419)" fill="#ffe695"/>
            <ellipse id="Elipse_728" data-name="Elipse 728" cx="1.1" cy="2.026" rx="1.1" ry="2.026" transform="translate(8.839)" fill="#ffe695"/>
            <path id="Trazado_73565" data-name="Trazado 73565" d="M626.851,272.412c0,1.119-.493,2.026-1.1,2.026s-1.1-.907-1.1-2.026.492-2.026,1.1-2.026S626.851,271.293,626.851,272.412Z" transform="translate(-611.392 -270.386)" fill="#ffe695"/>
          </g>
          <g id="Grupo_40826" data-name="Grupo 40826" transform="translate(115.476 65.593)">
            <path id="Trazado_73566" data-name="Trazado 73566" d="M591.578,297.836c0,1.119-.493,2.026-1.1,2.026s-1.1-.907-1.1-2.026.492-2.026,1.1-2.026S591.578,296.717,591.578,297.836Z" transform="translate(-589.378 -295.81)" fill="#ffe695"/>
            <ellipse id="Elipse_729" data-name="Elipse 729" cx="1.1" cy="2.026" rx="1.1" ry="2.026" transform="translate(4.419)" fill="#ffe695"/>
            <ellipse id="Elipse_730" data-name="Elipse 730" cx="1.1" cy="2.026" rx="1.1" ry="2.026" transform="translate(8.839)" fill="#ffe695"/>
            <path id="Trazado_73567" data-name="Trazado 73567" d="M626.851,297.836c0,1.119-.493,2.026-1.1,2.026s-1.1-.907-1.1-2.026.492-2.026,1.1-2.026S626.851,296.717,626.851,297.836Z" transform="translate(-611.392 -295.81)" fill="#ffe695"/>
          </g>
          <g id="Grupo_40827" data-name="Grupo 40827" transform="translate(115.476 75.149)">
            <path id="Trazado_73568" data-name="Trazado 73568" d="M591.578,323.26c0,1.119-.493,2.026-1.1,2.026s-1.1-.907-1.1-2.026.492-2.026,1.1-2.026S591.578,322.141,591.578,323.26Z" transform="translate(-589.378 -321.234)" fill="#ffe695"/>
            <ellipse id="Elipse_731" data-name="Elipse 731" cx="1.1" cy="2.026" rx="1.1" ry="2.026" transform="translate(4.419 0)" fill="#ffe695"/>
            <ellipse id="Elipse_732" data-name="Elipse 732" cx="1.1" cy="2.026" rx="1.1" ry="2.026" transform="translate(8.839 0)" fill="#ffe695"/>
            <path id="Trazado_73569" data-name="Trazado 73569" d="M626.851,323.26c0,1.119-.493,2.026-1.1,2.026s-1.1-.907-1.1-2.026.492-2.026,1.1-2.026S626.851,322.141,626.851,323.26Z" transform="translate(-611.392 -321.234)" fill="#ffe695"/>
          </g>
          <g id="Grupo_40828" data-name="Grupo 40828" transform="translate(115.476 84.706)">
            <path id="Trazado_73570" data-name="Trazado 73570" d="M591.578,348.685c0,1.119-.493,2.026-1.1,2.026s-1.1-.907-1.1-2.026.492-2.026,1.1-2.026S591.578,347.566,591.578,348.685Z" transform="translate(-589.378 -346.659)" fill="#ffe695"/>
            <ellipse id="Elipse_733" data-name="Elipse 733" cx="1.1" cy="2.026" rx="1.1" ry="2.026" transform="translate(4.419)" fill="#ffe695"/>
            <ellipse id="Elipse_734" data-name="Elipse 734" cx="1.1" cy="2.026" rx="1.1" ry="2.026" transform="translate(8.839)" fill="#ffe695"/>
            <path id="Trazado_73571" data-name="Trazado 73571" d="M626.851,348.685c0,1.119-.493,2.026-1.1,2.026s-1.1-.907-1.1-2.026.492-2.026,1.1-2.026S626.851,347.566,626.851,348.685Z" transform="translate(-611.392 -346.659)" fill="#ffe695"/>
          </g>
          <path id="Trazado_73572" data-name="Trazado 73572" d="M288.207,233.111s-2.411,23.946,1.125,28.445,6.75,5.946,10.767,6.107,4.982-3.375.8-5.143-8.2-1.768-9.16-5.464S288.207,233.111,288.207,233.111Z" transform="translate(-285.437 -191.086)" fill="#fff"/>
          <path id="Trazado_73573" data-name="Trazado 73573" d="M287.35,451.759s-.845-8.919,6.025-11.692,77.5-1.085,77.5-1.085Z" transform="translate(-285.382 -319.256)" fill="#fff"/>
          <rect id="Rectángulo_8587" data-name="Rectángulo 8587" width="10.004" height="5.183" transform="translate(134.912 15.348)" fill="#fff"/>
          <g id="Grupo_40829" data-name="Grupo 40829" transform="translate(20.527 18.562)">
            <path id="Trazado_73574" data-name="Trazado 73574" d="M354.7,170.69l-1.219,1.175a11.03,11.03,0,0,0-3.016,7.594v48.6h1.446v-48.6a9.573,9.573,0,0,1,2.6-6.578l2.273-2.192Z" transform="translate(-345.32 -170.69)" fill="#ffe6e6"/>
            <path id="Trazado_73575" data-name="Trazado 73575" d="M338.225,179.459a9.572,9.572,0,0,1,2.6-6.578l2.274-2.192h-2.084l-1.218,1.175a11.03,11.03,0,0,0-3.016,7.594v48.6h1.446Z" transform="translate(-336.779 -170.69)" fill="#ffe6e6"/>
          </g>
        </g>
        <g id="Grupo_40831" data-name="Grupo 40831" transform="translate(222.157 10.013)">
          <path id="Trazado_73576" data-name="Trazado 73576" d="M650.17,146.785l-1.92-4.765c-.014-.721-3.067-1.247-6.819-1.175s-6.782.715-6.769,1.436l-1.735,4.835a.4.4,0,0,0-.088.245c.018.924,3.934,1.6,8.746,1.506s8.7-.917,8.681-1.841A.4.4,0,0,0,650.17,146.785Z" transform="translate(-632.228 -113.667)" fill="#db9565"/>
          <path id="Trazado_73577" data-name="Trazado 73577" d="M650.246,86.1l-13.341.256L637.336,108c.055.7,3.028,1.207,6.68,1.136s6.6-.692,6.631-1.392Z" transform="translate(-634.765 -79.506)" fill="#ba68c8"/>
          <path id="Trazado_73578" data-name="Trazado 73578" d="M631.212,72.916l2.017,5.007c.014.721,3.067,1.246,6.819,1.174s6.783-.715,6.769-1.436l1.823-5.08Z" transform="translate(-631.212 -71.066)" fill="#db9565"/>
          <path id="Trazado_73579" data-name="Trazado 73579" d="M648.639,70.066c.018.924-3.869,1.749-8.681,1.841s-8.728-.582-8.745-1.507,3.869-1.749,8.681-1.841S648.621,69.142,648.639,70.066Z" transform="translate(-631.212 -68.551)" fill="#ffb176"/>
          <path id="Trazado_73580" data-name="Trazado 73580" d="M652.192,71.894c.007.354-1.479.669-3.319.7s-3.337-.223-3.344-.576,1.479-.669,3.319-.7S652.186,71.541,652.192,71.894Z" transform="translate(-640.147 -70.276)" fill="#db9565"/>
          <path id="Trazado_73581" data-name="Trazado 73581" d="M638.568,91.542a8.4,8.4,0,0,0,1.705.693,14.872,14.872,0,0,0,1.786.4c.6.113,1.212.165,1.824.231l1.854.136c-.307.056-.618.086-.929.129-.312.017-.625.04-.938.042a11.2,11.2,0,0,1-1.877-.15,8.949,8.949,0,0,1-1.821-.5A4.99,4.99,0,0,1,638.568,91.542Z" transform="translate(-635.803 -82.9)" fill="#ff6161"/>
          <path id="Trazado_73582" data-name="Trazado 73582" d="M640.981,101.11c.42.134.838.262,1.265.356.422.109.849.2,1.277.27a16.891,16.891,0,0,0,2.584.237,13.01,13.01,0,0,0,2.579-.2l.639-.121.627-.176c.43-.091.821-.286,1.247-.411a8.9,8.9,0,0,1-2.45,1l-.323.087-.329.055c-.22.033-.439.078-.661.1a12.365,12.365,0,0,1-1.334.059,11.854,11.854,0,0,1-2.64-.335A10.5,10.5,0,0,1,640.981,101.11Z" transform="translate(-637.309 -88.841)" fill="#ff6161"/>
          <path id="Trazado_73583" data-name="Trazado 73583" d="M641.035,104.017a8.848,8.848,0,0,0,2.557.841,12.814,12.814,0,0,0,1.336.151c.225.021.451.016.68.031s.457,0,.692.019a5.508,5.508,0,0,1-1.371.257,6.2,6.2,0,0,1-1.4-.071,5.6,5.6,0,0,1-1.346-.422A3.532,3.532,0,0,1,641.035,104.017Z" transform="translate(-637.343 -90.686)" fill="#ff6161"/>
          <path id="Trazado_73584" data-name="Trazado 73584" d="M639.181,123.432a5.569,5.569,0,0,0,1.3.716,7.637,7.637,0,0,0,1.409.432,11.983,11.983,0,0,0,2.931.245,21.337,21.337,0,0,0,2.955-.253,9.794,9.794,0,0,0,1.442-.339,4.481,4.481,0,0,0,1.343-.624,4.023,4.023,0,0,1-1.279.8,9.02,9.02,0,0,1-1.448.452,14.868,14.868,0,0,1-3,.359,9.748,9.748,0,0,1-3.018-.329A5.822,5.822,0,0,1,639.181,123.432Z" transform="translate(-636.186 -102.803)" fill="#ff6161"/>
          <path id="Trazado_73585" data-name="Trazado 73585" d="M649.408,123.825c.572.03,1.1.048,1.646.057l.816.012c.275.006.551.007.84.04a3.715,3.715,0,0,1-1.663.342,3.954,3.954,0,0,1-.849-.111A2.291,2.291,0,0,1,649.408,123.825Z" transform="translate(-642.568 -103.048)" fill="#ff6161"/>
          <path id="Trazado_73586" data-name="Trazado 73586" d="M641.553,130.92a12.7,12.7,0,0,0,1.55.417,15.648,15.648,0,0,0,1.569.244c.526.05,1.055.09,1.587.091s1.067-.006,1.612-.012c-.259.08-.524.145-.79.205a7.746,7.746,0,0,1-.81.114,8.448,8.448,0,0,1-1.64-.007,8.081,8.081,0,0,1-1.607-.34A5.292,5.292,0,0,1,641.553,130.92Z" transform="translate(-637.666 -107.476)" fill="#ff6161"/>
          <path id="Trazado_73587" data-name="Trazado 73587" d="M652.443,134.161c.5.009.994,0,1.484,0s.978-.025,1.463-.064.966-.1,1.446-.182a13.129,13.129,0,0,0,1.43-.359,4.81,4.81,0,0,1-1.357.657,7.28,7.28,0,0,1-1.488.276A7.83,7.83,0,0,1,652.443,134.161Z" transform="translate(-644.462 -109.122)" fill="#ff6161"/>
          <path id="Trazado_73588" data-name="Trazado 73588" d="M639.874,111.759c.509.055.972.134,1.446.2l.71.1c.239.038.48.069.733.132a2.869,2.869,0,0,1-1.5.153,3.289,3.289,0,0,1-.734-.2A2.116,2.116,0,0,1,639.874,111.759Z" transform="translate(-636.618 -95.518)" fill="#ff6161"/>
        </g>
        <g id="Grupo_40834" data-name="Grupo 40834" transform="translate(234.507 64.766)">
          <path id="Trazado_73589" data-name="Trazado 73589" d="M674.182,375.733a.82.82,0,0,0-.038.235.811.811,0,0,0,.115.412l.944,8a.808.808,0,0,0,.8.714h.024a.808.808,0,0,0,.8-.9l-.877-7.4h17.885l.9,7.591a.808.808,0,0,0,.8.713h0a.809.809,0,0,0,.8-.9L685.23,290.28a.819.819,0,0,0-1.046-.688.849.849,0,0,0-.574.925l.384,3.243H666.109l-.407-3.433a.851.851,0,0,0-.78-.768.819.819,0,0,0-.851.914Zm19.464-.583H675.761l-1.415-11.929h17.885Zm-1.608-13.565H674.152l-1.414-11.929h17.885Zm-1.608-13.565H672.543l-1.414-11.928h17.885Zm-1.609-13.565H670.935l-1.414-11.929h17.885Zm-1.608-13.565H669.326l-1.414-11.929H685.8ZM684.188,295.4l1.414,11.929H667.718L666.3,295.4Z" transform="translate(-664.066 -261.238)" fill="#311e69"/>
          <path id="Trazado_73590" data-name="Trazado 73590" d="M713.341,402.061a4.123,4.123,0,0,1-.561-2.012,16.142,16.142,0,0,0-2.486,1.273,5.627,5.627,0,0,1-1.319.685c-1.056.5-2.361,1.142-2.418,1.5-.094.589,6.023.777,7.059.238C714.159,403.459,713.809,402.8,713.341,402.061Z" transform="translate(-690.585 -330.197)" fill="#1e1240"/>
          <path id="Trazado_73591" data-name="Trazado 73591" d="M672.331,266.544s-.676-4.213-2.945-3.923-1.269,6.035.917,7.435a5.1,5.1,0,0,0,1.869.638,1.046,1.046,0,0,0,1.156-1.387Z" transform="translate(-666.583 -244.418)" fill="#ebe1ff"/>
          <path id="Trazado_73592" data-name="Trazado 73592" d="M677.348,309.138c.724-7.122,6.995-5.05,7.536-6.364a33.016,33.016,0,0,0,5.882.465c2.515,0,4.7-.2,5.7-.288.11.416.759,3.632.9,4.093,1.075,3.484-1.272,12.894-1.451,17.259-.058,1.421-1.179,16.321-1.179,16.321a1.033,1.033,0,0,1-1.113.624c-.686-.095-1.752-.3-1.886-.975-.834-4.22-5.313-18.459-3.146-26.011-3.044-1.045-5.448-3.409-5.132-1.5,1.032,6.237-.8,15-2,15.5C679.735,328.966,675.97,322.7,677.348,309.138Z" transform="translate(-672.17 -269.486)" fill="#673ab7"/>
          <path id="Trazado_73593" data-name="Trazado 73593" d="M709.753,254s-.521-1.55-.8-2.17c-.243-.543-.489-.8-.793-.882-.652-.184-.409,3.649-.105,3.757S709.753,254,709.753,254Z" transform="translate(-691.328 -237.139)" fill="#ff6161"/>
          <path id="Trazado_73594" data-name="Trazado 73594" d="M713.866,307.254c-.916-.67,1.253-2.407,3.411-3.845.869-.057,1.575-.12,2.029-.162.066.25.327,1.514.556,2.583C718.9,306.932,715.263,308.276,713.866,307.254Z" transform="translate(-695.013 -269.781)" fill="#311e69"/>
          <path id="Trazado_73595" data-name="Trazado 73595" d="M713.715,234.414s3.33-2.357,3.709-3.591c.775-2.522-2.146-10.3-.458-10.544s4.533,7.337,4.345,10.807c-.219,4.039-4.345,8.677-5.939,8.4S713.715,234.414,713.715,234.414Z" transform="translate(-695.053 -217.997)" fill="#ebe1ff"/>
          <path id="Trazado_73596" data-name="Trazado 73596" d="M704.171,249.039a3.478,3.478,0,0,0-.363,1.285,1.461,1.461,0,0,0,1.086,1.552,1.442,1.442,0,0,0,1.324-1.6C705.986,249.384,704.171,249.039,704.171,249.039Z" transform="translate(-688.868 -235.95)" fill="#ff6161"/>
          <path id="Trazado_73597" data-name="Trazado 73597" d="M695.521,274.762l.462-3.629a7.263,7.263,0,0,0-.666-4.116c-.97-1.976-2.087-5.591-.191-7.3,2.521-2.273,8.263-3.032,9.4,1.348.634,2.434.633,8.043,2.571,13.874.433,1.3-.864,3.186-3.313,3.765A6.981,6.981,0,0,1,695.521,274.762Z" transform="translate(-682.807 -241.475)" fill="#fff"/>
          <path id="Trazado_73598" data-name="Trazado 73598" d="M683.748,262.187c-1.4-1.389-3.439-.454-8.35,2.538-4.416,1.472-4.225,3.752-2.072,5.008,2.97,1.733,8.291-2.014,9.61-3.511C683.83,265.208,685.065,263.5,683.748,262.187Z" transform="translate(-668.922 -243.762)" fill="#ebe1ff"/>
          <path id="Trazado_73599" data-name="Trazado 73599" d="M670.374,258.618a1.667,1.667,0,0,0,.382-1.234c-.155-.578-.229-.65-.17-.87s-.277-.256-.375-.021.029.573-.167.547a8.579,8.579,0,0,1-1.286-1.3.1.1,0,0,0-.176.064,2.208,2.208,0,0,0,.117.695,14.8,14.8,0,0,0,.793,2.112C670.055,259.281,670.374,258.618,670.374,258.618Z" transform="translate(-666.883 -240.112)" fill="#ff6161"/>
          <path id="Trazado_73600" data-name="Trazado 73600" d="M719.112,217.24a1.667,1.667,0,0,1-1.249-.329c-.409-.437-.43-.538-.649-.6s-.071-.371.181-.33.471.327.553.147a8.6,8.6,0,0,0-.421-1.778.1.1,0,0,1,.147-.116,2.207,2.207,0,0,1,.528.467,14.764,14.764,0,0,1,1.374,1.79C719.844,217.32,719.112,217.24,719.112,217.24Z" transform="translate(-697.17 -214.216)" fill="#ad263d"/>
          <path id="Trazado_73601" data-name="Trazado 73601" d="M688.837,324.737c-1.734-.794-3.129-1.68-3.151-2.131-.04-.833,3.762-.6,6.66.208s7.168.612,8.519,1.019-1.2,2.745-1.2,2.745c-2.387,2.153-1.327,22.448-1.1,26.647-.069-.014-.139-.029-.209-.045l-.074-.018c-.059-.015-.117-.03-.175-.048s-.092-.03-.137-.046-.105-.038-.156-.06a1.994,1.994,0,0,1-.185-.088c-.026-.014-.05-.031-.074-.046a1.352,1.352,0,0,1-.135-.1c-.022-.018-.043-.038-.063-.057a.834.834,0,0,1-.1-.123.709.709,0,0,1-.042-.059.7.7,0,0,1-.084-.214c-.834-4.22-5.313-18.459-3.147-26.011C690.976,325.282,688.6,322.971,688.837,324.737Z" transform="translate(-677.559 -281.537)" fill="#311e69"/>
          <path id="Trazado_73602" data-name="Trazado 73602" d="M668.513,264.146a7.255,7.255,0,0,0,.441,1.615c.5,1.22.216,3.114.573,3.78.24.449,2.375,1.157,3.74,1.57a1.039,1.039,0,0,1-1.092.544,5.1,5.1,0,0,1-1.869-.638C668.487,269.852,667.491,265.682,668.513,264.146Z" transform="translate(-666.586 -245.378)" fill="#b492f1"/>
          <path id="Trazado_73603" data-name="Trazado 73603" d="M683.05,366.319s-.136-1.135-.915-1.447c-1.193-.476-1.819.859-1.819.859s-2.574,1.239-2.574,2.64c-.056.3,5.161.649,5.788-.2C683.975,367.578,683.05,366.319,683.05,366.319Z" transform="translate(-672.602 -308.179)" fill="#1e1240"/>
          <g id="Grupo_40832" data-name="Grupo 40832" transform="translate(4.881 37.874)">
            <path id="Trazado_73604" data-name="Trazado 73604" d="M677.348,316.753a9.414,9.414,0,0,1,.343-1.777,5.635,5.635,0,0,0,.444,2.045c.586,1,1.2,5.3,1.327,7.446.115,2.014.673,6.291,3.412,7.993-.441,1.9-.972,3.225-1.417,3.409C679.735,336.581,675.97,330.319,677.348,316.753Z" transform="translate(-677.05 -314.976)" fill="#311e69"/>
          </g>
          <path id="Trazado_73605" data-name="Trazado 73605" d="M671.891,269.628l.406.211a3.728,3.728,0,0,0,3.356-.229c1.042-.508,3.508-.864,4.881-2.44s1.3-.813,2.513-1.932c.434-.4.775-.711,1.039-.953.763,1.243-.315,2.725-1.121,3.64-1.319,1.5-6.641,5.244-9.61,3.511A2.687,2.687,0,0,1,671.891,269.628Z" transform="translate(-668.95 -245.465)" fill="#b492f1"/>
          <g id="Grupo_40833" data-name="Grupo 40833" transform="translate(17.76 16.437)">
            <path id="Trazado_73606" data-name="Trazado 73606" d="M717.848,274.972c-1.938-5.831-1.937-11.44-2.571-13.874a4.113,4.113,0,0,0-3.963-3.154,53.286,53.286,0,0,1,2.8,9.226c.65,3.862-1.57,7.656-1.478,11.808a8.675,8.675,0,0,0,1.9-.24C716.984,278.158,718.281,276.276,717.848,274.972Z" transform="translate(-711.314 -257.944)" fill="#fff"/>
          </g>
          <path id="Trazado_73607" data-name="Trazado 73607" d="M704.487,247.074a7.19,7.19,0,0,0-.392-2.558c-.023-.086-.045-.172-.062-.257v0h0c-.241-1.182.365-2.706,3.011-1.234a2.463,2.463,0,0,1,1.286,2.686s2.948,3.9,1.421,6.529a3.6,3.6,0,0,1-3.756,1.487C704.743,253.383,702.86,252.739,704.487,247.074Z" transform="translate(-688.899 -231.816)" fill="#1e1240"/>
        </g>
        <g id="Grupo_40859" data-name="Grupo 40859" transform="translate(114.257 0.099)">
          <g id="Grupo_40835" data-name="Grupo 40835" transform="translate(5.529 10.605)">
            <path id="Trazado_73608" data-name="Trazado 73608" d="M370.062,70.39l-2.144,10.2s-9.883,6.129-8.993,9.516,12.407-3.951,14.813-6.854,2.733-10.483,2.733-10.483Z" transform="translate(-358.867 -70.39)" fill="#895cd8"/>
          </g>
          <g id="Grupo_40836" data-name="Grupo 40836" transform="translate(40.698 40.351)">
            <path id="Trazado_73609" data-name="Trazado 73609" d="M454.828,150a3.407,3.407,0,0,1,2.082-.419c.907.24.774,3.327.4,4.457a6.665,6.665,0,0,1-2.064,3.247c-.446.285-2.356.4-2.728-.126-.292-.412.16-1.373.607-2.112A10.3,10.3,0,0,0,454.828,150Z" transform="translate(-452.429 -149.525)" fill="#311e69"/>
          </g>
          <g id="Grupo_40837" data-name="Grupo 40837" transform="translate(11.786 43.576)">
            <path id="Trazado_73610" data-name="Trazado 73610" d="M383.623,160.5a5.023,5.023,0,0,1-.878-2.392l-2.7.125a2.546,2.546,0,0,1-.2,1.665c-.184.326-.753.588-1.538.961-1.237.709-2.761,1.619-2.8,2.055-.057.725,7.4.358,8.61-.4C384.753,162.117,384.263,161.353,383.623,160.5Z" transform="translate(-375.511 -158.104)" fill="#311e69"/>
          </g>
          <g id="Grupo_40838" data-name="Grupo 40838" transform="translate(15.776)">
            <path id="Trazado_73611" data-name="Trazado 73611" d="M387.941,45.875s-1.972-.083-1.8-1.868c.246-2.583,2.214-1.656,2.214-1.656a1.251,1.251,0,0,1,1.548.236c1.347,1.61,1.389,2.447.28,3.216A2.136,2.136,0,0,1,387.941,45.875Z" transform="translate(-386.128 -42.177)" fill="#311e69"/>
          </g>
          <g id="Grupo_40839" data-name="Grupo 40839" transform="translate(8.246 19.18)">
            <path id="Trazado_73612" data-name="Trazado 73612" d="M381.833,93.829s10.806,1.769,10.015,5.4c-1.476,6.775-18.712,1.147-18.931,2.064-.292,1.223,2.243,1.128,3.094,6.2.161.959,2.526,11.39,2.526,11.39a4.89,4.89,0,0,1-2.683,1.028,3.662,3.662,0,0,1-2.379-.3s-7.212-11.336-7.381-18.961C365.985,95.711,372.533,91.59,381.833,93.829Z" transform="translate(-366.093 -93.204)" fill="#311e69"/>
          </g>
          <g id="Grupo_40840" data-name="Grupo 40840" transform="translate(24.685 17.204)">
            <path id="Trazado_73613" data-name="Trazado 73613" d="M412.556,91.323s-3.447,9.513-2.591,16.568c.992,8.176,3.385,10.508,5.89,10.331,3.705-.261,11.077-.716,12.936-3.754s.656-3.919-.616-4.354c-1.532-.524-8.429-.871-10.725.766,0,0,5.8-13.376,5.371-17.6C421.731,82.555,412.556,91.323,412.556,91.323Z" transform="translate(-409.829 -87.947)" fill="#614cd4"/>
          </g>
          <g id="Grupo_40841" data-name="Grupo 40841" transform="translate(16.721 3.036)">
            <path id="Trazado_73614" data-name="Trazado 73614" d="M410.024,69.725c1.573-3.326-1.613-18.026-9.676-19.4-3.969-.677-13.883,3.819-11.276,9.448,1.731,3.736,4.451,2.556,5.572,4.077.684.928-.1,2.856.191,4.1.539,2.3,3.483,3.133,5.792,3.649C404.582,72.485,409,71.891,410.024,69.725Z" transform="translate(-388.641 -50.255)" fill="#ba68c8"/>
          </g>
          <g id="Grupo_40842" data-name="Grupo 40842" transform="translate(19.878 2.119)">
            <path id="Trazado_73615" data-name="Trazado 73615" d="M397.44,47.813l2.817,2.114c.279.4-1.105,2.984-2.083,2.914-.286-.021-.5-.438-.611-.972L397.04,48.9Z" transform="translate(-397.04 -47.813)" fill="#ff6161"/>
          </g>
          <g id="Grupo_40843" data-name="Grupo 40843" transform="translate(19.983 2.892)">
            <path id="Trazado_73616" data-name="Trazado 73616" d="M397.32,50.782c.386-.382.908-.91.908-.91a2.31,2.31,0,0,1,.2,1.677,2.213,2.213,0,0,1-.761,1.171Z" transform="translate(-397.32 -49.872)" fill="#311e69"/>
          </g>
          <g id="Grupo_40844" data-name="Grupo 40844" transform="translate(17.149 1.294)">
            <path id="Trazado_73617" data-name="Trazado 73617" d="M391.6,45.845l1.681,1.117a1.231,1.231,0,0,1,.23,1.7,3.4,3.4,0,0,1-1.145.98c-.472.288-1.018.048-1.463-.516A6.714,6.714,0,0,1,389.85,47.1C389.512,46.054,390.447,45.2,391.6,45.845Z" transform="translate(-389.78 -45.62)" fill="#ff6161"/>
          </g>
          <g id="Grupo_40845" data-name="Grupo 40845" transform="translate(30.9 17.204)">
            <path id="Trazado_73618" data-name="Trazado 73618" d="M427.769,110.881s5.8-13.376,5.372-17.6c-.6-5.866-3.613-5.9-6.223-4.725.489,3.068.99,6.873.766,8.439C427.282,99.8,424.871,111.845,427.769,110.881Z" transform="translate(-426.362 -87.947)" fill="#311e69"/>
          </g>
          <g id="Grupo_40846" data-name="Grupo 40846" transform="translate(17.793 0.937)">
            <path id="Trazado_73619" data-name="Trazado 73619" d="M391.494,45.1a1.137,1.137,0,0,1,1.242,1.005c.071.548.633.441.5-.089s-.329-1.322-.651-1.343A3.27,3.27,0,0,0,391.494,45.1Z" transform="translate(-391.494 -44.67)" fill="#311e69"/>
          </g>
          <g id="Grupo_40847" data-name="Grupo 40847" transform="translate(19.164 1.378)">
            <path id="Trazado_73620" data-name="Trazado 73620" d="M395.514,46.746a1.744,1.744,0,0,0-.2-.313c-.147-.187-.322-.5.062-.581.559-.119,1.288.919.886,1.358C395.96,47.537,395.653,47.029,395.514,46.746Z" transform="translate(-395.14 -45.843)" fill="#ff6161"/>
          </g>
          <g id="Grupo_40848" data-name="Grupo 40848" transform="translate(23.783 3.037)">
            <path id="Trazado_73621" data-name="Trazado 73621" d="M412.073,50.323a10.173,10.173,0,0,0-4.645.669,43.732,43.732,0,0,1,5.748,4.517c1.647,1.808,4.379,9.281,4.3,12.214a37.665,37.665,0,0,1-.455,4.223c2.248-.181,4.111-.912,4.73-2.221C423.322,66.4,420.137,51.7,412.073,50.323Z" transform="translate(-407.428 -50.256)" fill="#d2bef6"/>
          </g>
          <g id="Grupo_40849" data-name="Grupo 40849" transform="translate(18.009 3.388)">
            <path id="Trazado_73622" data-name="Trazado 73622" d="M392.908,51.19a3.321,3.321,0,0,1-.839.7s.245.339.534.3S393.1,51.675,392.908,51.19Z" transform="translate(-392.069 -51.19)" fill="#fff"/>
          </g>
          <g id="Grupo_40850" data-name="Grupo 40850" transform="translate(18.825 2.612)">
            <path id="Trazado_73623" data-name="Trazado 73623" d="M394.57,51.377c.406-.477,1.347-.035,1.658-1.4a1.571,1.571,0,0,0-.2-.849l.037.024a1.231,1.231,0,0,1,.23,1.7,3.4,3.4,0,0,1-1.145.98.857.857,0,0,1-.907-.017C394.336,51.76,394.447,51.522,394.57,51.377Z" transform="translate(-394.239 -49.125)" fill="#ad263d"/>
          </g>
          <g id="Grupo_40851" data-name="Grupo 40851" transform="translate(18.825 12.351)">
            <path id="Trazado_73624" data-name="Trazado 73624" d="M406.1,75.034s-.2,7.2-3.629,10.913a13.18,13.18,0,0,1-8.232,3.951Z" transform="translate(-394.239 -75.034)" fill="#311e69"/>
          </g>
          <g id="Grupo_40852" data-name="Grupo 40852" transform="translate(8.937 3.845)">
            <path id="Trazado_73625" data-name="Trazado 73625" d="M389.147,52.636c2.53.752,2.179,7.891-1.784,15.118C384,73.878,370.158,81.689,368.123,78.715s12.9-12.432,14.137-14.159C385.443,60.129,383.093,50.836,389.147,52.636Z" transform="translate(-367.933 -52.407)" fill="#ba68c8"/>
          </g>
          <g id="Grupo_40853" data-name="Grupo 40853" transform="translate(5.077 29.249)">
            <path id="Trazado_73626" data-name="Trazado 73626" d="M358.477,120.511a23.774,23.774,0,0,0-.8,4.475c.15.783,1.855-.392,2.4-1.024s.949-3.089.512-3.45S359.14,119.547,358.477,120.511Z" transform="translate(-357.663 -119.99)" fill="#ff6161"/>
          </g>
          <g id="Grupo_40854" data-name="Grupo 40854" transform="translate(11.153 4.375)">
            <path id="Trazado_73627" data-name="Trazado 73627" d="M375.217,77.947c.968-.887,3.387-1.21,6.622-2.9s7.208-6.612,7.853-9.6,1.129-3.226,2.742-6.451a9.462,9.462,0,0,0,.939-5.18c1.9,1.59,1.318,8.164-2.33,14.817-2.772,5.056-12.692,11.26-17.214,11.6A6.778,6.778,0,0,1,375.217,77.947Z" transform="translate(-373.828 -53.817)" fill="#d2bef6"/>
          </g>
          <g id="Grupo_40855" data-name="Grupo 40855" transform="translate(0 30.481)">
            <path id="Trazado_73628" data-name="Trazado 73628" d="M344.52,143.906h-.028a.362.362,0,0,1-.333-.388c.055-.724,1.422-17.745,8.135-19.878,3.416-1.084,12.817.394,23.7,2.106,10.062,1.583,21.464,3.377,28.9,3.12,15.03-.52,54.1.634,54.494.646a.362.362,0,0,1-.011.723h-.011c-.392-.012-39.439-1.165-54.448-.647-7.514.26-18.947-1.541-29.041-3.129-10.347-1.628-20.121-3.165-23.372-2.131-6.251,1.987-7.62,19.071-7.633,19.244A.361.361,0,0,1,344.52,143.906Z" transform="translate(-344.157 -123.268)" fill="#ba68c8"/>
          </g>
          <g id="Grupo_40856" data-name="Grupo 40856" transform="translate(6.834 28.657)">
            <path id="Trazado_73629" data-name="Trazado 73629" d="M364.621,118.668s-2.018,1.2-2.191,1.9a5.37,5.37,0,0,0,.01,1.99.187.187,0,0,0,.3.12s.363.39.451.124a1.62,1.62,0,0,1,.46-.556s.019.469.162.406a6.867,6.867,0,0,0,.624-1.309s2.66-1,2-2.235A1.209,1.209,0,0,0,364.621,118.668Z" transform="translate(-362.339 -118.415)" fill="#ff6161"/>
          </g>
          <g id="Grupo_40857" data-name="Grupo 40857" transform="translate(4.579 29.414)">
            <path id="Trazado_73630" data-name="Trazado 73630" d="M357.8,120.5s-1.522,1.19-1.461,1.929.3,2.154.73,1.943.144-1.492.295-1.687,1.254-.256,1.229-1.175S358.307,120.273,357.8,120.5Z" transform="translate(-356.338 -120.428)" fill="#ff6161"/>
          </g>
          <g id="Grupo_40858" data-name="Grupo 40858" transform="translate(27.573 41.018)">
            <path id="Trazado_73631" data-name="Trazado 73631" d="M423.981,152.562c-2.038.643-1.3,3.736-3.748,4.259a3.528,3.528,0,0,1-2.72-.576,3.569,3.569,0,0,0,3.139,1.518c3.7-.261,11.076-.716,12.935-3.754a4.9,4.9,0,0,0,.948-2.708C431.389,151.925,425.569,152.061,423.981,152.562Z" transform="translate(-417.512 -151.3)" fill="#311e69"/>
          </g>
        </g>
        <g id="Grupo_40864" data-name="Grupo 40864" transform="translate(66.214 116.749)">
          <path id="Trazado_73632" data-name="Trazado 73632" d="M260.1,397.421s10.435,10.8,9.579,12.716-6.393-1.356-7.77-3.1S258.617,398.837,260.1,397.421Z" transform="translate(-243.319 -380.539)" fill="#ff6161"/>
          <path id="Trazado_73633" data-name="Trazado 73633" d="M264.743,365.01a3.489,3.489,0,0,1-.357,1.29,1.463,1.463,0,0,1-1.737.765,1.444,1.444,0,0,1-.3-2.058C263.008,364.363,264.743,365.01,264.743,365.01Z" transform="translate(-244.856 -360.131)" fill="#ff6161"/>
          <g id="Grupo_40860" data-name="Grupo 40860" transform="translate(17.174 5.27)">
            <path id="Trazado_73634" data-name="Trazado 73634" d="M262.1,366.529a1.525,1.525,0,0,0,.553,1.664,1.28,1.28,0,0,0,1.152-.147,1.749,1.749,0,0,1-1.1-.554A4.915,4.915,0,0,1,262.1,366.529Z" transform="translate(-262.033 -366.529)" fill="#ad263d"/>
          </g>
          <path id="Trazado_73635" data-name="Trazado 73635" d="M293.5,423.805s-20.152.942-22,3.645,5.227.453,9.325,3.507,18.562,13.1,21.7,11.571,18.24-14.9,22.66-15.724C325.18,426.8,313.662,422.957,293.5,423.805Z" transform="translate(-250.579 -396.929)" fill="#7986cb"/>
          <path id="Trazado_73636" data-name="Trazado 73636" d="M277.862,433.565c.094.559,1.119,1.559,1.392,1.792s.822-.068,1.166-.073c.366-.005.828-.09.632-.386s-1.1.085-1.446-.3c-.12-.135-.342-.338-.153-.477.067-.049.545.4.794.418.384.031.457-.15.313-.269-1.061-.872-.944-1.8-1.758-1.729A1.025,1.025,0,0,0,277.862,433.565Z" transform="translate(-254.734 -402.452)" fill="#ff6161"/>
          <path id="Trazado_73637" data-name="Trazado 73637" d="M251.832,505.93a3.768,3.768,0,0,0,.513-1.84,14.762,14.762,0,0,1,2.274,1.164,5.15,5.15,0,0,0,1.207.626c.966.456,2.16,1.045,2.211,1.368.086.539-5.509.71-6.457.218C251.085,507.209,251.4,506.608,251.832,505.93Z" transform="translate(-238.178 -447.112)" fill="#1e1240"/>
          <path id="Trazado_73638" data-name="Trazado 73638" d="M222.665,505.75l.2-1.124,1.869.125-.178.559s2.15,1.035,2.15,2.206c.047.249-4.311.542-4.835-.163C221.5,506.852,222.665,505.75,222.665,505.75Z" transform="translate(-219.747 -447.447)" fill="#1e1240"/>
          <path id="Trazado_73639" data-name="Trazado 73639" d="M233.316,422.608a64.809,64.809,0,0,0-4.183-15.907,33.092,33.092,0,0,1-5.9.466c-2.52,0-4.713-.2-5.71-.288-.11.417-.76,3.641-.9,4.1-1.078,3.491,1.275,12.922,1.454,17.3.058,1.424,1.182,16.356,1.182,16.356a1.035,1.035,0,0,0,1.115.625,1.511,1.511,0,0,0,1.271-1.369c.4-4.2,4.379-17.457,2.208-25.025,1.53,2.442,5.152,7.352,4.835,9.262-1.034,6.25,1.531,16.507,1.531,16.507a1.058,1.058,0,0,0,1.14.813,1.531,1.531,0,0,0,1.342-1.082C233.321,442.4,234.7,436.2,233.316,422.608Z" transform="translate(-216.343 -386.331)" fill="#b492f1"/>
          <g id="Grupo_40861" data-name="Grupo 40861" transform="translate(0.875 20.37)">
            <path id="Trazado_73640" data-name="Trazado 73640" d="M234.768,422.608a64.808,64.808,0,0,0-4.183-15.907,33.092,33.092,0,0,1-5.9.466c-2.52,0-4.713-.2-5.71-.288-.042.161-.165.741-.309,1.419-.046.218,3.277,4.477,7.055,4.41,7.946-.141,7.132,11.626,7.194,14.321.053,2.267-.576,4.88-3.009,5.507a66.763,66.763,0,0,0,1.76,12.1,1.058,1.058,0,0,0,1.14.813,1.531,1.531,0,0,0,1.342-1.082C234.773,442.4,236.149,436.2,234.768,422.608Z" transform="translate(-218.671 -406.701)" fill="#673ab7"/>
          </g>
          <path id="Trazado_73641" data-name="Trazado 73641" d="M256.913,366.763s1.252-1.058,1.813-1.445a1.363,1.363,0,0,1,1.138-.344c.655.181-1.545,3.339-1.862,3.275S256.913,366.763,256.913,366.763Z" transform="translate(-241.663 -360.27)" fill="#ff6161"/>
          <path id="Trazado_73642" data-name="Trazado 73642" d="M231.737,384.633l.369-3.386a7.273,7.273,0,0,1,2.25-3.521c1.678-1.432,4.143-4.313,3.079-6.639-1.414-3.093-6.019-5.448-10.526-2.244-2.054,1.461-5.215,5.16-7.626,13.276-.392,1.32.608,1.482,2.63,2.989C226.936,388.85,231.737,384.633,231.737,384.633Z" transform="translate(-218.126 -361.748)" fill="#ba68c8"/>
          <path id="Trazado_73643" data-name="Trazado 73643" d="M259.2,361.011a3.056,3.056,0,0,1,1.492-3.837,2.273,2.273,0,0,1,1.567.115c3.831,1.2-.4,3.63-.763,3.8C261.11,361.262,259.55,361.67,259.2,361.011Z" transform="translate(-242.935 -355.356)" fill="#1e1240"/>
          <path id="Trazado_73644" data-name="Trazado 73644" d="M265.384,367.024a.509.509,0,0,0,.168-.53c-.105-.311-.476-.149-.643.381S265.022,367.439,265.384,367.024Z" transform="translate(-246.622 -361.139)" fill="#ff6161"/>
          <g id="Grupo_40862" data-name="Grupo 40862" transform="translate(5.895 7.336)">
            <path id="Trazado_73645" data-name="Trazado 73645" d="M245.441,374.027a6.229,6.229,0,0,0-1.495-2,16.347,16.347,0,0,0-6.01,6.443c-1.928,4.178-4.178,9.923-5.1,10.044a1.2,1.2,0,0,0-.807.678c4.178,1.486,7.716-1.616,7.716-1.616l.369-3.386a7.273,7.273,0,0,1,2.25-3.521C244.04,379.234,246.505,376.353,245.441,374.027Z" transform="translate(-232.027 -372.024)" fill="#ba68c8"/>
          </g>
          <g id="Grupo_40863" data-name="Grupo 40863" transform="translate(2.027 37.927)">
            <path id="Trazado_73646" data-name="Trazado 73646" d="M224.023,462.963a5.322,5.322,0,0,1-2.287-1.224l.89,12.045a1.035,1.035,0,0,0,1.115.625,1.511,1.511,0,0,0,1.27-1.369c.314-3.32,2.861-12.282,2.849-19.633C226.956,455.5,227.031,463.1,224.023,462.963Z" transform="translate(-221.736 -453.407)" fill="#673ab7"/>
          </g>
          <path id="Trazado_73647" data-name="Trazado 73647" d="M262.432,354.636s.683.347,1.015-.633-.211-1.657-1.582-1.461-.919,2.17-.271,2.32S262.432,354.636,262.432,354.636Z" transform="translate(-244.196 -352.508)" fill="#1e1240"/>
          <path id="Trazado_73648" data-name="Trazado 73648" d="M255.451,378.317c-3.136-1.14-7.955,8.236-5.625,13.982,1.747,4.308,9.682,8.357,11.29,7.232s-6.1-7.244-6.693-10.245C253.887,386.584,258.047,379.261,255.451,378.317Z" transform="translate(-236.856 -368.557)" fill="#ff6161"/>
          <path id="Trazado_73649" data-name="Trazado 73649" d="M267.156,398.845c-.562-2.025-6.351-6.925-6.864-9.511-.536-2.7,3.624-10.025,1.028-10.968a1.575,1.575,0,0,0-.259-.066,29.14,29.14,0,0,1-.1,4.148c-.235,2.317-3.609,6.2-1.831,9.277s6.283,6.215,7.661,6.964A2.386,2.386,0,0,0,267.156,398.845Z" transform="translate(-242.726 -368.605)" fill="#ad263d"/>
        </g>
      </g>
      <path id="Trazado_73650" data-name="Trazado 73650" d="M286.067,433.919c2.748,6.331,4.116,13.2,6.895,19.513,2.409,5.476,5.83,10.435,9.23,15.356a12.982,12.982,0,0,0,3.94,4.193,1.758,1.758,0,0,0,.834.28,2.027,2.027,0,0,0,.854-.257l6.714-3.168a.869.869,0,0,0,.338-.231c.239-.314-.03-.751-.285-1.052a33.573,33.573,0,0,1-7.855-20.219,8.175,8.175,0,0,0,4.882.316,1.1,1.1,0,0,1,.591-.041c.312.1.447.457.546.769a50.3,50.3,0,0,0,9.938,17.8,2.88,2.88,0,0,0,1.45,1.072,2.97,2.97,0,0,0,1.91-.478l3.943-2.017c.5-.254,1.048-.578,1.155-1.125a1.864,1.864,0,0,0-.162-.97l-2.5-6.979a29.531,29.531,0,0,1-2.349-13.5l.077-11.126a241.339,241.339,0,0,0-32.137.722" transform="translate(668.355 29166.867)" fill="#7986cb"/>
    </g>
  </g>
</svg>
