<svg xmlns="http://www.w3.org/2000/svg" xmlns:xlink="http://www.w3.org/1999/xlink" width="322.255" height="287.653" viewBox="0 0 322.255 287.653">
  <defs>
    <linearGradient id="linear-gradient" x1="0.944" y1="3.559" x2="-0.66" y2="-6.325" gradientUnits="objectBoundingBox">
      <stop offset="0" stop-color="#fdf53f"/>
      <stop offset="1" stop-color="#d93c65"/>
    </linearGradient>
    <linearGradient id="linear-gradient-2" y1="0.5" x2="1" y2="0.5" gradientUnits="objectBoundingBox">
      <stop offset="0" stop-color="#f9b776"/>
      <stop offset="1" stop-color="#f47960"/>
    </linearGradient>
    <linearGradient id="linear-gradient-3" y1="0.5" x2="1" y2="0.5" gradientUnits="objectBoundingBox">
      <stop offset="0" stop-color="#2b3582"/>
      <stop offset="1" stop-color="#150e42"/>
    </linearGradient>
    <linearGradient id="linear-gradient-7" x1="107.339" y1="1.605" x2="109.339" y2="4.278" xlink:href="#linear-gradient-2"/>
    <linearGradient id="linear-gradient-8" x1="0.339" y1="0.706" x2="2.358" y2="-1.072" xlink:href="#linear-gradient-2"/>
    <linearGradient id="linear-gradient-12" x1="-43.715" y1="-20.382" x2="-44.037" y2="-21.448" xlink:href="#linear-gradient-2"/>
    <linearGradient id="linear-gradient-13" x1="-33.21" y1="-16.685" x2="-33.005" y2="-15.506" xlink:href="#linear-gradient-3"/>
    <linearGradient id="linear-gradient-14" x1="-143.683" y1="-101.261" x2="-144.626" y2="-105.909" xlink:href="#linear-gradient-2"/>
    <linearGradient id="linear-gradient-15" x1="0.768" y1="1.08" x2="0.385" y2="0.251" xlink:href="#linear-gradient-3"/>
    <linearGradient id="linear-gradient-16" x1="0.407" y1="1.037" x2="0.551" y2="0.205" xlink:href="#linear-gradient-3"/>
    <linearGradient id="linear-gradient-17" x1="0.497" y1="0.921" x2="0.505" y2="-0.35" xlink:href="#linear-gradient-3"/>
    <linearGradient id="linear-gradient-19" x1="1.546" y1="0.045" x2="-1.398" y2="1.235" xlink:href="#linear-gradient-3"/>
    <linearGradient id="linear-gradient-20" x1="2.638" y1="-5.853" x2="-1.829" y2="7.304" gradientUnits="objectBoundingBox">
      <stop offset="0" stop-color="#53d8ff"/>
      <stop offset="0.206" stop-color="#4db9fd"/>
      <stop offset="1" stop-color="#3840f7"/>
    </linearGradient>
    <linearGradient id="linear-gradient-21" x1="0.492" y1="-1.05" x2="0.536" y2="7.216" gradientUnits="objectBoundingBox">
      <stop offset="0" stop-color="#b37cff"/>
      <stop offset="1" stop-color="#f895e7"/>
    </linearGradient>
    <linearGradient id="linear-gradient-22" x1="-0.176" y1="3.438" x2="1.237" y2="-2.85" gradientUnits="objectBoundingBox">
      <stop offset="0" stop-color="#a737d5"/>
      <stop offset="1" stop-color="#ef497a"/>
    </linearGradient>
    <linearGradient id="linear-gradient-23" x1="14.612" y1="0.238" x2="13.777" y2="0.678" xlink:href="#linear-gradient-2"/>
    <linearGradient id="linear-gradient-24" x1="-8.435" y1="-15.892" x2="-8.625" y2="-12.171" xlink:href="#linear-gradient-3"/>
    <linearGradient id="linear-gradient-25" x1="17.053" y1="0.225" x2="20.456" y2="-1.251" xlink:href="#linear-gradient-2"/>
    <linearGradient id="linear-gradient-26" x1="-7.692" y1="-18.174" x2="-7.913" y2="-15.065" xlink:href="#linear-gradient-3"/>
    <linearGradient id="linear-gradient-27" x1="-5.039" y1="0.911" x2="-4.283" y2="-3.509" xlink:href="#linear-gradient-3"/>
    <linearGradient id="linear-gradient-28" x1="-4.183" y1="0.5" x2="-3.183" y2="0.5" xlink:href="#linear-gradient-2"/>
    <linearGradient id="linear-gradient-29" x1="-43.207" y1="0.419" x2="-42.987" y2="-0.67" xlink:href="#linear-gradient-2"/>
    <linearGradient id="linear-gradient-30" x1="-34.821" y1="-1.051" x2="-33.261" y2="-3.274" xlink:href="#linear-gradient-2"/>
    <linearGradient id="linear-gradient-31" x1="-136.335" y1="-3.996" x2="-130.308" y2="-11.03" xlink:href="#linear-gradient-2"/>
    <linearGradient id="linear-gradient-32" x1="-6.023" y1="2.491" x2="-6.763" y2="4.928" xlink:href="#linear-gradient-3"/>
    <linearGradient id="linear-gradient-33" x1="-4.451" y1="0.134" x2="-4.852" y2="0.8" xlink:href="#linear-gradient-3"/>
  </defs>
  <g id="Grupo_1068143" data-name="Grupo 1068143" transform="translate(-215 -939.992)">
    <g id="BACKGROUND" transform="translate(215 939.992)">
      <g id="Grupo_32241" data-name="Grupo 32241">
        <path id="Trazado_61861" data-name="Trazado 61861" d="M113.212,122.135c15.927-.55,31.327,5.031,46.562,9.706s31.541,8.518,46.962,4.5c20.733-5.406,35.2-23.582,48.187-40.623S282.606,60.6,303.437,55.586c19.452-4.683,40.439,3.712,54.6,17.849s22.328,33.248,27.428,52.6c12.63,47.922,6.534,103.172-26.28,140.311-26.253,29.714-65.884,44.309-105.029,50.617-28.238,4.551-57.6,5.31-85.055-2.695A138.962,138.962,0,0,1,88.816,251.5C68.306,216.273,49.286,124.344,113.212,122.135Z" transform="translate(-69.318 -32.694)" fill="#673ab7"/>
        <path id="Trazado_61862" data-name="Trazado 61862" d="M196.778,110.834c19.173.355,39.819-6.7,54.159-16.712,7.95-5.549,15.057-12.619,19.3-21.337S275.6,53.569,271.9,44.607c-5.337-12.93-19.377-20.246-33.119-22.86a81.374,81.374,0,0,0-61,13.032c-12.315,8.588-25.226,20.81-28.422,36.1C145.921,87.36,160.11,100,174.076,106.177A58.794,58.794,0,0,0,196.778,110.834Z" transform="translate(-98.214 -20.373)" fill="#673ab7"/>
      </g>
    </g>
    <g id="Grupo_32925" data-name="Grupo 32925" transform="translate(255.947 955.592)" style="isolation: isolate">
      <g id="Grupo_32905" data-name="Grupo 32905" transform="translate(156.512 8.727)">
        <g id="Grupo_32903" data-name="Grupo 32903" transform="translate(3.71 0)">
          <path id="Trazado_29886" data-name="Trazado 29886" d="M2260.653,696.708s-.7-29.52,12.895-37.42,39.448-12.84,40.417-55.228c.567-24.815,1.181-35.665,1.593-40.4a2.794,2.794,0,0,0-3.3-2.992c-12.877,2.426-54.709,12.411-63.479,40.963C2238.382,635.483,2260.653,696.708,2260.653,696.708Z" transform="translate(-2246.014 -560.622)" fill="#d1bcff"/>
          <path id="Trazado_29887" data-name="Trazado 29887" d="M2409.8,691.129c-14.135,12.606-30.479,34.917-39.191,57.228a104.875,104.875,0,0,0-5.81,25.39,116.943,116.943,0,0,0,.9,31.936.944.944,0,0,0,1.1.752.958.958,0,0,0,.756-1.085,129.5,129.5,0,0,1,3-46.635c5.143-19.1,16.615-37.609,28.48-53.311l1.221-1.546c9.193-11.806,11.128-11.893,10.269-12.716A.537.537,0,0,0,2409.8,691.129Z" transform="translate(-2353.512 -679.286)" fill="#7b1fa2"/>
        </g>
        <g id="Grupo_32904" data-name="Grupo 32904" transform="translate(0 58.722)">
          <path id="Trazado_29888" data-name="Trazado 29888" d="M2204.823,1331.678c-1.885.925,17.849-23.891,24.03-62.865,2.913-18.365,2.951-41.376,13.413-50.244,8.707-7.38,38.336-2.721,48.031-.95a1.454,1.454,0,0,1,.676,2.543c-4.649,3.9-14.594,13.114-17.186,22.4-3.416,12.234-15.047,20.015-25.459,22.121s-16.205,4.15-21.278,20.8S2210.18,1329.051,2204.823,1331.678Z" transform="translate(-2204.696 -1214.534)" fill="#ffd54f"/>
          <path id="Trazado_29889" data-name="Trazado 29889" d="M2525.114,1306.444c-12.369.518-25.646,6.16-32.383,16.744l-.636,1.01a237.426,237.426,0,0,0-14.416,33.157.332.332,0,0,0,.211.42.339.339,0,0,0,.416-.2c3.221-7.883,7.847-17.878,11.531-25.352,3.951-8.156,6.717-13.679,15.729-18.97a50.175,50.175,0,0,1,19.586-6.278.266.266,0,0,0-.038-.531Z" transform="translate(-2453.149 -1298.19)" fill="#361274"/>
        </g>
      </g>
      <g id="Grupo_32908" data-name="Grupo 32908" transform="translate(0 0.001)">
        <g id="Grupo_32906" data-name="Grupo 32906" transform="translate(0)">
          <path id="Trazado_29890" data-name="Trazado 29890" d="M2008.642,482.455s44,4.8,49.671-2.662c0,0-4.509-13.423-17.9-12.53S2008.642,482.455,2008.642,482.455Z" transform="translate(-1869.737 -466.882)" fill="url(#linear-gradient)"/>
          <path id="Trazado_29891" data-name="Trazado 29891" d="M461.919,494.431c3.836,43.113,7.612,134.019,11.118,178.457a19.977,19.977,0,0,0,18.637,18.365c32.08,2.059,108.687,6.238,145.329,3.921a.675.675,0,0,0-.015-1.348h0a20.3,20.3,0,0,1-11.325-18.375l1.62-199.373a10.24,10.24,0,0,1,13.671-9.635c4.156,1.557,7.3,4.875,9.462,9.918-2.88-8.393-7.409-14.533-17.9-12.53,0,0-95.706.63-145.5,3.716C473.488,468.386,460.717,480.929,461.919,494.431Z" transform="translate(-461.84 -463.45)" fill="#ffd54f"/>
          <rect id="Rectángulo_7597" data-name="Rectángulo 7597" width="150.498" height="208.877" transform="translate(9.493 12.532)" fill="#ffe695" opacity="0.53"/>
        </g>
        <g id="Grupo_32907" data-name="Grupo 32907" transform="translate(13.066 27.538)">
          <path id="Trazado_29892" data-name="Trazado 29892" d="M890.138,925.153a38.934,38.934,0,0,1-8.684-.954l-.248-.056c-17.069-3.9-17.735-4.053-28.257-1.08-10.853,3.065-29.915-5.647-30.721-6.02l-.462-.213.081-.5c.085-.53,8.772-53.41,31.98-87.74l.052-.077.072-.061a3.235,3.235,0,0,0,.759-.879l-5.665-20.049a5.019,5.019,0,0,1,.139-3.151,23.381,23.381,0,0,0-.051-16.46,3.338,3.338,0,0,1,.132-2.881,3.409,3.409,0,0,1,2.365-1.756c11.516-2.258,27.207-1.512,35.536-.866a3.364,3.364,0,0,1,2.821,4.7c-2.909,6.693-1.092,13.635-.176,16.308a5.02,5.02,0,0,1,.142,2.746L885,827.819a2.178,2.178,0,0,0,.348.411l.071.065.05.083c.288.474,28.834,47.92,30.051,89.474l.011.393-.337.2A54.517,54.517,0,0,1,890.138,925.153Zm-26.448-5.484c3.965,0,8.494,1.035,17.814,3.165l.248.057c15.407,3.519,30.027-4.076,32.415-5.4-1.351-40.322-28.491-86.156-29.8-88.336-.387-.371-.9-1.012-.676-1.638l4.948-21.652a3.676,3.676,0,0,0-.1-2.012c-.967-2.822-2.881-10.155.215-17.279a2.022,2.022,0,0,0-1.694-2.828c-8.26-.64-23.813-1.382-35.174.845a2.074,2.074,0,0,0-1.437,1.069,2,2,0,0,0-.082,1.728,24.383,24.383,0,0,1,.072,17.456,3.685,3.685,0,0,0-.1,2.313l5.646,19.982c.363.861-.584,1.833-1.1,2.276-21.792,32.29-30.681,81.107-31.63,86.618,3.015,1.326,19.857,8.413,29.326,5.738C857.5,920.38,860.4,919.669,863.69,919.669Z" transform="translate(-802.51 -780.704)" fill="#fff"/>
          <path id="Trazado_29893" data-name="Trazado 29893" d="M1189.514,1245.639c-4.418,0-8.737-.42-11.875-1.661l-.453-.179.367-6.046.69.064c.207.019,20.792,1.881,30.393-.561l.906-.23-.511,6.656-.505.1A116.67,116.67,0,0,1,1189.514,1245.639Zm-10.928-2.74c8.555,3.04,26,.206,29.186-.351l.29-3.779c-9.157,1.975-25.628.749-29.252.444Z" transform="translate(-1126.013 -1195.095)" fill="#fff"/>
          <path id="Trazado_29894" data-name="Trazado 29894" d="M614.712,847.265l-7.374-12.781,32.19-64.38,11.845,33.167Zm-5.85-12.827,6.051,10.489L649.851,803l-10.529-29.483Z" transform="translate(-607.338 -770.104)" fill="#fff"/>
          <path id="Trazado_29895" data-name="Trazado 29895" d="M1452.239,1346.849H1398.18l-7.359-11.039a.671.671,0,1,1,1.117-.745l6.961,10.441h53.341a.671.671,0,1,1,0,1.343Z" transform="translate(-1320.36 -1284.059)" fill="#fff"/>
          <path id="Trazado_29896" data-name="Trazado 29896" d="M1796.953,1420.829H1770.1a.671.671,0,1,1,0-1.343h26.85a.671.671,0,1,1,0,1.343Z" transform="translate(-1665.074 -1361.17)" fill="#fff"/>
          <path id="Trazado_29897" data-name="Trazado 29897" d="M1770.065,1367.836a.671.671,0,0,1-.026-1.342l30.27-1.205-4.152,2.017a.672.672,0,0,1-.9-.311.684.684,0,0,1-.054-.159l-25.114,1Z" transform="translate(-1665.039 -1311.84)" fill="#fff"/>
          <path id="Trazado_29898" data-name="Trazado 29898" d="M1334.073,815.565a.671.671,0,0,1-.671-.671v-2.685a.671.671,0,1,1,1.342,0v2.685A.671.671,0,0,1,1334.073,815.565Z" transform="translate(-1268.2 -807.816)" fill="#fff"/>
          <path id="Trazado_29899" data-name="Trazado 29899" d="M1349.022,915a.671.671,0,0,1-.671-.671v-2.461a.671.671,0,1,1,1.343,0v2.461A.671.671,0,0,1,1349.022,915Z" transform="translate(-1281.807 -898.529)" fill="#fff"/>
          <path id="Trazado_29900" data-name="Trazado 29900" d="M1358.989,1046.805a.671.671,0,0,1-.671-.671v-4.7a.671.671,0,0,1,1.343,0v4.7A.671.671,0,0,1,1358.989,1046.805Z" transform="translate(-1290.879 -1016.458)" fill="#fff"/>
          <path id="Trazado_29901" data-name="Trazado 29901" d="M1359.54,1230.533h-.036a.671.671,0,0,1-.635-.705l.211-4.028a.671.671,0,0,1,1.341.07l-.211,4.029A.672.672,0,0,1,1359.54,1230.533Z" transform="translate(-1291.379 -1184.298)" fill="#fff"/>
          <path id="Trazado_29902" data-name="Trazado 29902" d="M1359.562,1399.071l-.046,0a.672.672,0,0,1-.625-.715l.21-3.133a.671.671,0,1,1,1.339.09l-.21,3.134A.672.672,0,0,1,1359.562,1399.071Z" transform="translate(-1291.399 -1338.514)" fill="#fff"/>
          <path id="Trazado_29903" data-name="Trazado 29903" d="M1361.947,1573.487l-.048,0a.671.671,0,0,1-.623-.716l.22-3.133a.671.671,0,1,1,1.339.094l-.22,3.133A.671.671,0,0,1,1361.947,1573.487Z" transform="translate(-1293.57 -1497.268)" fill="#fff"/>
          <path id="Trazado_29904" data-name="Trazado 29904" d="M1368.955,1711.39a.671.671,0,0,1-.671-.671v-4.027a.671.671,0,1,1,1.343,0v4.027A.671.671,0,0,1,1368.955,1711.39Z" transform="translate(-1299.95 -1621.973)" fill="#fff"/>
          <path id="Trazado_29905" data-name="Trazado 29905" d="M1373.939,1843.476a.671.671,0,0,1-.671-.671v-1.566a.671.671,0,1,1,1.342,0v1.566A.671.671,0,0,1,1373.939,1843.476Z" transform="translate(-1304.486 -1744.438)" fill="#fff"/>
          <path id="Trazado_29906" data-name="Trazado 29906" d="M1380.119,1954.863h0a.671.671,0,0,1-.67-.672l.01-5.817a.671.671,0,1,1,1.342,0l-.009,5.818A.671.671,0,0,1,1380.119,1954.863Z" transform="translate(-1310.111 -1841.953)" fill="#fff"/>
          <path id="Trazado_29907" data-name="Trazado 29907" d="M1383.905,2109.4a.671.671,0,0,1-.671-.671v-.895a.671.671,0,0,1,1.343,0v.895A.671.671,0,0,1,1383.905,2109.4Z" transform="translate(-1313.557 -1987.097)" fill="#fff"/>
          <path id="Trazado_29908" data-name="Trazado 29908" d="M1383.905,2218.109a.671.671,0,0,1-.671-.671v-2.461a.671.671,0,0,1,1.343,0v2.461A.671.671,0,0,1,1383.905,2218.109Z" transform="translate(-1313.557 -2084.615)" fill="#fff"/>
          <path id="Trazado_29909" data-name="Trazado 29909" d="M1384.128,2284.027a.671.671,0,0,1-.657-.54l-.224-1.118a.671.671,0,0,1,1.316-.264l.224,1.119a.671.671,0,0,1-.527.79A.644.644,0,0,1,1384.128,2284.027Z" transform="translate(-1313.557 -2145.833)" fill="#fff"/>
          <path id="Trazado_29910" data-name="Trazado 29910" d="M1476.522,1095.85a.693.693,0,0,1-.111-.009.671.671,0,0,1-.551-.773l.224-1.343a.671.671,0,0,1,1.324.221l-.224,1.343A.672.672,0,0,1,1476.522,1095.85Z" transform="translate(-1397.856 -1064.155)" fill="#fff"/>
          <path id="Trazado_29911" data-name="Trazado 29911" d="M1473.65,1155.776a.671.671,0,0,1-.366-1.234.437.437,0,0,0,.081-.573.671.671,0,1,1,1.014-.879,1.77,1.77,0,0,1-.364,2.578A.667.667,0,0,1,1473.65,1155.776Z" transform="translate(-1395.242 -1118.486)" fill="#fff"/>
          <path id="Trazado_29912" data-name="Trazado 29912" d="M1473.6,1198.152a.671.671,0,0,1-.671-.671v-1.566a.671.671,0,0,1,1.343,0v1.566A.671.671,0,0,1,1473.6,1198.152Z" transform="translate(-1395.2 -1157.065)" fill="#fff"/>
          <path id="Trazado_29913" data-name="Trazado 29913" d="M1224.443,1122.732a.671.671,0,0,1-.671-.671v-.895a.671.671,0,1,1,1.342,0v.895A.671.671,0,0,1,1224.443,1122.732Z" transform="translate(-1168.415 -1089.029)" fill="#fff"/>
          <path id="Trazado_29914" data-name="Trazado 29914" d="M1234.855,1189.7a.671.671,0,0,1-.633-.447l-.237-.667a.671.671,0,0,1,1.266-.448l.236.666a.672.672,0,0,1-.633.9Z" transform="translate(-1177.677 -1150.193)" fill="#fff"/>
          <path id="Trazado_29915" data-name="Trazado 29915" d="M1242.382,1227.335a.671.671,0,0,1-.636-.885l.226-.67a.671.671,0,1,1,1.272.428l-.226.67A.671.671,0,0,1,1242.382,1227.335Z" transform="translate(-1184.743 -1184.444)" fill="#fff"/>
          <path id="Trazado_29916" data-name="Trazado 29916" d="M1246.868,1254.117a.671.671,0,0,1-.475-1.146l.224-.224a.671.671,0,1,1,.95.949l-.224.224A.671.671,0,0,1,1246.868,1254.117Z" transform="translate(-1188.827 -1209.226)" fill="#fff"/>
          <path id="Trazado_29917" data-name="Trazado 29917" d="M876.328,1139.941a.671.671,0,0,1-.614-.942l.2-.458a.671.671,0,0,1,1.228.542l-.2.457A.672.672,0,0,1,876.328,1139.941Z" transform="translate(-851.562 -1105.091)" fill="#fff"/>
          <path id="Trazado_29918" data-name="Trazado 29918" d="M900.535,1100.084a.671.671,0,0,1-.671-.671v-.671a.671.671,0,1,1,1.343,0v.671A.671.671,0,0,1,900.535,1100.084Z" transform="translate(-873.595 -1068.618)" fill="#fff"/>
          <path id="Trazado_29919" data-name="Trazado 29919" d="M921.194,1065.191a.665.665,0,0,1-.269-.057.671.671,0,0,1-.345-.884l.2-.458a.671.671,0,1,1,1.229.54l-.2.457A.672.672,0,0,1,921.194,1065.191Z" transform="translate(-892.398 -1037.053)" fill="#fff"/>
          <path id="Trazado_29920" data-name="Trazado 29920" d="M950.368,1017.415a.671.671,0,0,1-.475-1.145l.224-.224a.671.671,0,0,1,.95.948l-.224.224A.67.67,0,0,1,950.368,1017.415Z" transform="translate(-918.953 -993.781)" fill="#fff"/>
          <path id="Trazado_29921" data-name="Trazado 29921" d="M963.028,990.347a.671.671,0,0,1-.6-.976l.226-.444a.671.671,0,1,1,1.2.606l-.227.448A.671.671,0,0,1,963.028,990.347Z" transform="translate(-930.476 -968.941)" fill="#fff"/>
          <path id="Trazado_29922" data-name="Trazado 29922" d="M972.792,957.839a.671.671,0,0,1-.671-.671v-.447a.671.671,0,1,1,1.342,0v.447A.671.671,0,0,1,972.792,957.839Z" transform="translate(-939.363 -939.351)" fill="#fff"/>
          <path id="Trazado_29923" data-name="Trazado 29923" d="M982.758,927.94a.671.671,0,0,1-.671-.671v-.447a.671.671,0,1,1,1.343,0v.447A.671.671,0,0,1,982.758,927.94Z" transform="translate(-948.434 -912.137)" fill="#fff"/>
          <path id="Trazado_29924" data-name="Trazado 29924" d="M990.233,875.393a.671.671,0,0,1-.671-.671V874.5a.671.671,0,1,1,1.343,0v.224A.671.671,0,0,1,990.233,875.393Z" transform="translate(-955.238 -864.513)" fill="#fff"/>
          <path id="Trazado_29925" data-name="Trazado 29925" d="M863.365,1182.2a.671.671,0,0,1-.6-.976l.225-.445a.671.671,0,1,1,1.2.606l-.227.448A.671.671,0,0,1,863.365,1182.2Z" transform="translate(-839.762 -1143.562)" fill="#fff"/>
          <path id="Trazado_29926" data-name="Trazado 29926" d="M886.266,1157.665a.671.671,0,0,1-.57-1.025l.425-.686a.671.671,0,0,1,1.141.708l-.425.685A.671.671,0,0,1,886.266,1157.665Z" transform="translate(-860.607 -1121.015)" fill="#fff"/>
          <path id="Trazado_29927" data-name="Trazado 29927" d="M907.427,1134.482a.671.671,0,0,1-.593-.984l.233-.442a.671.671,0,0,1,1.188.626l-.234.443A.67.67,0,0,1,907.427,1134.482Z" transform="translate(-879.868 -1100.136)" fill="#fff"/>
          <path id="Trazado_29928" data-name="Trazado 29928" d="M930.435,1107.111a.671.671,0,0,1-.475-1.145l.224-.224a.671.671,0,1,1,.95.948l-.224.224A.671.671,0,0,1,930.435,1107.111Z" transform="translate(-900.81 -1075.422)" fill="#fff"/>
          <path id="Trazado_29929" data-name="Trazado 29929" d="M950.367,1092.162a.671.671,0,0,1-.671-.671v-.224a.671.671,0,0,1,1.343,0v.224A.671.671,0,0,1,950.367,1092.162Z" transform="translate(-918.952 -1061.815)" fill="#fff"/>
          <path id="Trazado_29930" data-name="Trazado 29930" d="M973.517,1065.191a.662.662,0,0,1-.269-.057.671.671,0,0,1-.345-.884l.2-.458a.671.671,0,1,1,1.229.54l-.2.457A.672.672,0,0,1,973.517,1065.191Z" transform="translate(-940.023 -1037.053)" fill="#fff"/>
          <path id="Trazado_29931" data-name="Trazado 29931" d="M1002.69,1032.806a.671.671,0,0,1-.558-1.044l.448-.671a.671.671,0,1,1,1.117.745l-.448.671A.67.67,0,0,1,1002.69,1032.806Z" transform="translate(-966.576 -1007.382)" fill="#fff"/>
        </g>
      </g>
      <g id="Grupo_32913" data-name="Grupo 32913" transform="translate(0.561 116.111)">
        <path id="Trazado_29932" data-name="Trazado 29932" d="M778.006,3156.978s-.464,2.625-.691,5.222a1.79,1.79,0,0,0,1.712,1.94c3.46.144,10.859.424,13.515.306a.583.583,0,0,0,.512-.8h0a1.3,1.3,0,0,0-.667-.7l-12.223-5.618Z" transform="translate(-749.539 -3031.205)" fill="#b492f1"/>
        <path id="Trazado_29933" data-name="Trazado 29933" d="M780.849,3134.894l.372,3.14s2.141,1,3.6-.126l-.887-3.5Z" transform="translate(-752.762 -3010.664)" fill="url(#linear-gradient-2)"/>
        <path id="Trazado_29934" data-name="Trazado 29934" d="M685.571,2482.626c-.161.82-.864,40.907,3.422,58.871a.61.61,0,0,1-.358.709,10.628,10.628,0,0,1-3.49.709,1.05,1.05,0,0,1-1.042-.753c-1.225-4.168-7.094-25.051-7.86-45-.856-22.291,0-.759,0-.759l.5-13.779Z" transform="translate(-657.205 -2417.409)" fill="url(#linear-gradient-3)"/>
        <path id="Trazado_29935" data-name="Trazado 29935" d="M613.554,3172.224a18.881,18.881,0,0,0-1.452,4.845,1.092,1.092,0,0,0,.961,1.308c1.142.113,2.9.257,4.31.247a1.089,1.089,0,0,0,1.078-1.214,9.179,9.179,0,0,0-2.144-5.036Z" transform="translate(-599.148 -3045.083)" fill="#b492f1"/>
        <path id="Trazado_29936" data-name="Trazado 29936" d="M621.284,3125.394l.87,4.747a3.068,3.068,0,0,0,2.563.176l-.415-5.107Z" transform="translate(-607.526 -3002.291)" fill="url(#linear-gradient-2)"/>
        <path id="Trazado_29937" data-name="Trazado 29937" d="M581.43,2473.854c-3.5,21.15.76,52.275,2.2,58.366a.95.95,0,0,0,.767.721,6.378,6.378,0,0,0,2.741-.109.871.871,0,0,0,.626-.8c.193-4.925-.154-35.16,3.111-47.109a2.714,2.714,0,0,1,1.047-1.5l6.338-4.506.486-7.283Z" transform="translate(-570.023 -2407.407)" fill="url(#linear-gradient-3)"/>
        <g id="Grupo_32909" data-name="Grupo 32909" transform="translate(10.098 10.105)">
          <path id="Trazado_29938" data-name="Trazado 29938" d="M604.171,2032.672c-10.5-.173-22.091,2.758-22.091,2.758-3.131,18.267-.547,39.337-.547,39.337,8.131,2.132,17.3-1.3,17.3-1.3,1.351-7.635,7.657-29.123,7.657-29.123a34.587,34.587,0,0,0,12.84-4.075,22.516,22.516,0,0,1-4.451-9.309A35.237,35.237,0,0,1,604.171,2032.672Z" transform="translate(-580.531 -2016.406)" fill="#7b1fa2"/>
          <path id="Trazado_29939" data-name="Trazado 29939" d="M983.351,1869.742a2.009,2.009,0,0,0-2.337-.657c-1.546,6.529-9.649,11.822-17.975,14.409a22.518,22.518,0,0,0,4.451,9.309C981.307,1885.035,983.351,1869.742,983.351,1869.742Z" transform="translate(-928.689 -1868.946)" fill="url(#linear-gradient-2)"/>
        </g>
        <g id="Grupo_32910" data-name="Grupo 32910" transform="translate(62.423 0)">
          <path id="Trazado_29940" data-name="Trazado 29940" d="M1165.289,1767.636c.108.343-1.142.866-1.878-.538-.026-.673-.435-3.555-.033-4.1a53.667,53.667,0,0,1,6.292-6.578.988.988,0,0,1,.123,1.372l-2.014,2.1a9.745,9.745,0,0,1,1.176,2.324,2.822,2.822,0,0,1-.281,2.077c-.353.637-.836,1.464-1.291,2.112A2.786,2.786,0,0,1,1165.289,1767.636Z" transform="translate(-1163.202 -1756.418)" fill="url(#linear-gradient-7)"/>
          <path id="Trazado_29941" data-name="Trazado 29941" d="M1179.931,1810.211l-1.835,1.556-.576,1.549,1.636,1.815a21.1,21.1,0,0,1,.959-3.738C1180.524,1810.727,1180.312,1810.406,1179.931,1810.211Z" transform="translate(-1176.234 -1805.38)" fill="url(#linear-gradient-8)"/>
        </g>
        <path id="Trazado_29942" data-name="Trazado 29942" d="M486.027,2090.951,482,2080.782s-9.81,6.665-11.423,15.116a23.218,23.218,0,0,1,8.528,2.285C479.828,2094.194,486.027,2090.951,486.027,2090.951Z" transform="translate(-470.351 -2051.654)" fill="#7b1fa2"/>
        <path id="Trazado_29943" data-name="Trazado 29943" d="M492.333,2253.735s-11.014,6.224-14.73.909a4.177,4.177,0,0,1-.766-3.246,23.216,23.216,0,0,0-8.528-2.286,11.665,11.665,0,0,0,1.268,8c6.51,11.908,24.214-.658,24.214-.658Z" transform="translate(-468.085 -2204.868)" fill="url(#linear-gradient-2)"/>
        <g id="Grupo_32911" data-name="Grupo 32911" transform="translate(22.9 31.967)">
          <path id="Trazado_29944" data-name="Trazado 29944" d="M723.12,2157.83l6.011-20.992a.613.613,0,0,1,.518-.441c1.089-.127,4.245-.484,7.889-.792a89.542,89.542,0,0,1,12.531-.416.614.614,0,0,1,.5.884c-1.732,3.5-8.856,17.758-12.424,22.427a.614.614,0,0,1-.5.244l-13.947-.13A.614.614,0,0,1,723.12,2157.83Z" transform="translate(-723.096 -2133.055)" fill="#e2e6ff"/>
          <path id="Trazado_29945" data-name="Trazado 29945" d="M885.5,2113.117l4.358-.726a.312.312,0,0,1,.349.406l-.431,1.307a.313.313,0,0,1-.256.212l-4.194.56a.312.312,0,0,1-.346-.381l.267-1.141A.312.312,0,0,1,885.5,2113.117Z" transform="translate(-870.432 -2112.387)" fill="#7986cb"/>
          <path id="Trazado_29946" data-name="Trazado 29946" d="M854.436,2130.043l.359-1.87a.432.432,0,0,1,.381-.349l8.8-.893a.432.432,0,0,1,.464.531l-.559,2.33a.432.432,0,0,1-.4.331l-8.6.433A.433.433,0,0,1,854.436,2130.043Z" transform="translate(-842.634 -2125.624)" fill="#9fa8da"/>
          <path id="Trazado_29947" data-name="Trazado 29947" d="M733.66,2259.255s-.837-3.443-.5-4.665.992-2.792,3.174-2.443a31.927,31.927,0,0,1,4.754,1.268,1.249,1.249,0,0,1-1.788,1.078l1.028.8s-.147,1.274-1.547.594l.956,1.055a1.114,1.114,0,0,1-1.632.375C737.076,2256.641,736.582,2259.67,733.66,2259.255Z" transform="translate(-732.184 -2239.552)" fill="url(#linear-gradient-2)"/>
        </g>
        <path id="Trazado_29948" data-name="Trazado 29948" d="M691.244,1955.127l-3.342,9.664a.349.349,0,0,0,.159.419,7.857,7.857,0,0,0,8.148-.548,1.64,1.64,0,0,0,.755-1.171l1.082-8.364Z" transform="translate(-668.145 -1937.283)" fill="url(#linear-gradient-2)"/>
        <g id="Grupo_32912" data-name="Grupo 32912" transform="translate(16.757 3.873)">
          <path id="Trazado_29949" data-name="Trazado 29949" d="M719.464,1855.472s3.67,6.908,3.2,9.7-5.018,2.59-8.99.324l-2.775-7.458Z" transform="translate(-705.851 -1850.449)" fill="url(#linear-gradient-12)"/>
          <path id="Trazado_29950" data-name="Trazado 29950" d="M662.685,1810.924a.285.285,0,0,0,.124-.417,7.429,7.429,0,0,1-1.021-2.167s-.66-.422,1.679-.982,5.826-1.429,6.559-3.419c.715-1.941-1.163-6.822-4.159-2.933a.285.285,0,0,1-.451,0,2.935,2.935,0,0,0-3.575-1.162,2.692,2.692,0,0,0-1.844,2.6.283.283,0,0,1-.335.29,3.283,3.283,0,0,0-3.834,1.787c-.783,1.72-.274,2.693.189,3.17a.284.284,0,0,1-.121.471,1.709,1.709,0,0,0-1.205,1.949c.1,1.805,2.118,1.646,2.693,1.564a.285.285,0,0,1,.253.09c.493.545,2.713,2.861,5.116,3.14a.287.287,0,0,0,.3-.38l-1.04-3.022a.286.286,0,0,1,.155-.355Z" transform="translate(-654.686 -1799.543)" fill="url(#linear-gradient-13)"/>
          <path id="Trazado_29951" data-name="Trazado 29951" d="M719.891,1922.061s-2.613-1.793-2.8-.283,2.353,2.187,3.613,1.624Z" transform="translate(-711.475 -1910.251)" fill="url(#linear-gradient-14)"/>
        </g>
      </g>
      <g id="Grupo_32915" data-name="Grupo 32915" transform="translate(52.355 73.776)">
        <g id="Grupo_32914" data-name="Grupo 32914" transform="translate(139.736 0)">
          <path id="Trazado_29952" data-name="Trazado 29952" d="M2638.7,1320.874l-19.131-1.251,2.7-25.86,13.328-.033Z" transform="translate(-2617.892 -1292.945)" fill="#fff"/>
          <path id="Trazado_29953" data-name="Trazado 29953" d="M2622.009,1569.276h-20.062a1.211,1.211,0,0,0,0,2.4h20.063a1.211,1.211,0,0,0,0-2.4Z" transform="translate(-2600.9 -1543.746)" fill="#ffe695"/>
          <path id="Trazado_29954" data-name="Trazado 29954" d="M2636.481,1284.984h-15.422a1.27,1.27,0,1,0,0,2.5h15.422a1.27,1.27,0,1,0,0-2.5Z" transform="translate(-2617.893 -1284.984)" fill="#ffe695"/>
        </g>
        <path id="Trazado_29955" data-name="Trazado 29955" d="M1044.848,2660.962v19.354a20.408,20.408,0,0,0,1.711,8.179h0a20.409,20.409,0,0,0,13.259,11.49l39.883,11.024,4.6-16.616-4.6-21.221Z" transform="translate(-1044.848 -2537.397)" fill="#9fa8da"/>
        <path id="Trazado_29956" data-name="Trazado 29956" d="M1153.152,2511.6l-108.3,13.413,54.853,12.212,115.711-16.216Z" transform="translate(-1044.848 -2401.449)" fill="#7986cb"/>
        <path id="Trazado_29957" data-name="Trazado 29957" d="M1465.869,2606.708l-23.5-4.2a2.4,2.4,0,0,0-.727-.017l-25.121,3.289a.277.277,0,0,0-.03.544l21.467,5.263a1.922,1.922,0,0,0,.747.033l27.157-4.139A.393.393,0,0,0,1465.869,2606.708Z" transform="translate(-1382.922 -2484.16)" fill="#d8dee8"/>
        <path id="Trazado_29958" data-name="Trazado 29958" d="M1643.748,2502.006l-1.176,1.727v-13.588h1.176Z" transform="translate(-1588.896 -2381.919)" fill="url(#linear-gradient-15)"/>
        <rect id="Rectángulo_7598" data-name="Rectángulo 7598" width="3.116" height="15.982" transform="translate(52.651 94.085)" fill="url(#linear-gradient-16)"/>
        <path id="Trazado_29959" data-name="Trazado 29959" d="M2251.886,1793.557c0,1.8-1,48.447-1,48.447l62.26,9.409-4.6-75.473-51.449,6.606Z" transform="translate(-2142.581 -1731.851)" fill="#361274"/>
        <path id="Trazado_29960" data-name="Trazado 29960" d="M1577.645,2297.591v9.91a2.9,2.9,0,0,0,2.9,2.9h3.8a2.9,2.9,0,0,0,2.9-2.9v-9.91Z" transform="translate(-1529.799 -2206.657)" fill="url(#linear-gradient-17)"/>
        <path id="Trazado_29961" data-name="Trazado 29961" d="M1485.131,2313.2l-2.087,5.434a2.14,2.14,0,0,0,3.89,1.767l3.8-7.2Z" transform="translate(-1443.563 -2220.861)" fill="url(#linear-gradient-3)"/>
        <path id="Trazado_29962" data-name="Trazado 29962" d="M1522.164,1693.634l-14.456-86.709a10.428,10.428,0,0,0-2.85-5.322l-3.9-3.9a13.026,13.026,0,0,0-9.374-3.815l-116.061,1.446a54.184,54.184,0,0,0-13.693,1.935l-9.068,3.451,14.927,59.421s17.518-.491,24.636-.727a11.252,11.252,0,0,0,7.094-2.828l18.694-16.575a61.64,61.64,0,0,1,18.632-11.359l21.211-8.215a21.011,21.011,0,0,1,23.378,15.006l14.34,50.264-115.711,16.215v37.836l132.642-25.567a10.86,10.86,0,0,0,7.818-6.142l2.123-4.638C1523.5,1701.334,1522.615,1695.88,1522.164,1693.634Z" transform="translate(-1325.113 -1566.151)" fill="#e2e6ff"/>
        <path id="Trazado_29963" data-name="Trazado 29963" d="M2856.343,1950.338l-2.508-11.849a2.365,2.365,0,0,0-2.167-2.042h-15.54c-1.417,0-2.477,1.579-2.192,3.265l2.255,13.354a2.351,2.351,0,0,0,2.367,2.164l15.794-1.5C2855.737,1953.594,2856.689,1951.974,2856.343,1950.338Z" transform="translate(-2673.23 -1877.945)" fill="#ba68c8"/>
        <path id="Trazado_29964" data-name="Trazado 29964" d="M1334.557,1640.393c-6.014-1.157-15.007-1.908-22.073,1.679a4.322,4.322,0,0,0-2.352,3.857v35.4a4.24,4.24,0,0,0,.161,1.159l4.413,15.526a4.238,4.238,0,0,0,3.868,3.074l10.314.509a4.027,4.027,0,0,0,3.935-2.521l7.742-19.274a8.284,8.284,0,0,0,.6-3.089v-28.312A8.155,8.155,0,0,0,1334.557,1640.393Z" transform="translate(-1286.309 -1607.606)" fill="#7986cb"/>
        <path id="Trazado_29965" data-name="Trazado 29965" d="M2823.954,1841.7a2.182,2.182,0,0,1-1.417,2.682c-1.008.173-2.007-.746-2.233-2.053a2.182,2.182,0,0,1,1.418-2.682C2822.73,1839.477,2823.729,1840.4,2823.954,1841.7Z" transform="translate(-2660.824 -1789.821)" fill="#ffd54f"/>
        <path id="Trazado_29966" data-name="Trazado 29966" d="M2897.52,1841.7a2.182,2.182,0,0,1-1.417,2.682c-1.008.173-2.007-.746-2.233-2.053a2.182,2.182,0,0,1,1.417-2.682C2896.3,1839.477,2897.3,1840.4,2897.52,1841.7Z" transform="translate(-2727.784 -1789.821)" fill="#ffd54f"/>
        <path id="Trazado_29967" data-name="Trazado 29967" d="M2971.085,1841.7a2.181,2.181,0,0,1-1.417,2.682c-1.008.173-2.007-.746-2.232-2.053a2.181,2.181,0,0,1,1.417-2.682C2969.861,1839.477,2970.861,1840.4,2971.085,1841.7Z" transform="translate(-2794.743 -1789.821)" fill="#ffd54f"/>
        <path id="Trazado_29968" data-name="Trazado 29968" d="M1754.467,1740.272h-4.054v25.351h4.054a2.252,2.252,0,0,0,2.252-2.252v-20.846A2.252,2.252,0,0,0,1754.467,1740.272Z" transform="translate(-1687.052 -1699.386)" fill="url(#linear-gradient-19)"/>
        <path id="Trazado_29969" data-name="Trazado 29969" d="M1750.413,1783.7l9.431-4.446a1.767,1.767,0,0,1,2.08,1.385v.42a2.364,2.364,0,0,1-1.535,2.213l-9.976,3.73Z" transform="translate(-1687.052 -1734.804)" fill="url(#linear-gradient-20)"/>
        <path id="Trazado_29970" data-name="Trazado 29970" d="M1750.413,1783.766l9.038-3.772a1.162,1.162,0,0,1,1.61,1.072v.42a2.363,2.363,0,0,1-1.535,2.213l-9.112,3.407Z" transform="translate(-1687.052 -1735.458)" fill="#fff"/>
      </g>
      <g id="Grupo_32919" data-name="Grupo 32919" transform="translate(140.454 201.48)">
        <g id="Grupo_32917" data-name="Grupo 32917" transform="translate(11.454 0)">
          <g id="Grupo_32916" data-name="Grupo 32916">
            <path id="Trazado_29971" data-name="Trazado 29971" d="M2181.272,2762.653h81.974v-15.805h-81.974C2183.027,2746.848,2183.027,2762.653,2181.272,2762.653Z" transform="translate(-2178.772 -2743.274)" fill="url(#linear-gradient-21)"/>
            <path id="Trazado_29972" data-name="Trazado 29972" d="M2237.909,2722.477v-7.233c0-2.55-1.62-4.617-3.618-4.617h-78.009a2.794,2.794,0,0,1-2.845-2.74.849.849,0,0,1,.865-.833h85.259c1.955,0,5.059,2.961,5.059,6.614v10.1c0,3.444-3.014,6.236-4.857,6.236h-85.012a1.29,1.29,0,0,1-1.313-1.265,2.354,2.354,0,0,1,2.4-2.309h78.977C2236.521,2726.431,2237.909,2724.661,2237.909,2722.477Z" transform="translate(-2153.436 -2707.053)" fill="url(#linear-gradient-22)"/>
          </g>
          <path id="Trazado_29973" data-name="Trazado 29973" d="M2286.685,2780.2h-76.861a.3.3,0,1,1,0-.6h76.861a.3.3,0,0,1,0,.6Z" transform="translate(-2204.485 -2773.083)" fill="#fff"/>
          <path id="Trazado_29974" data-name="Trazado 29974" d="M2286.685,2806.324h-76.861a.3.3,0,1,1,0-.6h76.861a.3.3,0,0,1,0,.6Z" transform="translate(-2204.485 -2796.86)" fill="#fff"/>
          <path id="Trazado_29975" data-name="Trazado 29975" d="M2286.685,2832.448h-76.861a.3.3,0,0,1,0-.6h76.861a.3.3,0,0,1,0,.6Z" transform="translate(-2204.485 -2820.637)" fill="#fff"/>
          <path id="Trazado_29976" data-name="Trazado 29976" d="M2286.685,2858.571h-76.861a.3.3,0,1,1,0-.6h76.861a.3.3,0,0,1,0,.6Z" transform="translate(-2204.485 -2844.414)" fill="#fff"/>
          <path id="Trazado_29977" data-name="Trazado 29977" d="M2286.685,2884.694h-76.861a.3.3,0,1,1,0-.6h76.861a.3.3,0,0,1,0,.6Z" transform="translate(-2204.485 -2868.192)" fill="#fff"/>
        </g>
        <g id="Grupo_32918" data-name="Grupo 32918" transform="translate(0 22.784)">
          <rect id="Rectángulo_7599" data-name="Rectángulo 7599" width="109.403" height="26.408" rx="13.204" fill="#ba68c8"/>
          <rect id="Rectángulo_7600" data-name="Rectángulo 7600" width="12.852" height="20.338" rx="6.426" transform="translate(12.364 3.035)" fill="#673ab7"/>
          <rect id="Rectángulo_7601" data-name="Rectángulo 7601" width="4.822" height="20.338" rx="2.411" transform="translate(27.107 3.035)" fill="#673ab7"/>
        </g>
      </g>
      <g id="Grupo_32924" data-name="Grupo 32924" transform="translate(131.505 138.214)">
        <path id="Trazado_29978" data-name="Trazado 29978" d="M1941.306,2580.445c.038-.015,20.466-35.788,23.226-39.155a2.14,2.14,0,0,1,1.91-.768l5.7.679,6.7,14.491-11.159-6.5c1.1,7.636-13.231,18.986-18.148,23.127a1.129,1.129,0,0,0-.089,1.645l1.963,2.055a22.546,22.546,0,0,1-11.137,6.334Z" transform="translate(-1939.011 -2492.198)" fill="url(#linear-gradient-23)"/>
        <path id="Trazado_29979" data-name="Trazado 29979" d="M1937.5,2923.617a2.89,2.89,0,0,1,1.677,1.521,1.276,1.276,0,0,1-.48,1.471c-2.063,1.478-8.867,6.25-12.007,7.184a.355.355,0,0,1-.444-.418,11.319,11.319,0,0,1,2.361-4.318l-.151.3a.437.437,0,0,0,.6.576C1931.158,2928.75,1935.435,2926.155,1937.5,2923.617Z" transform="translate(-1926.234 -2840.904)" fill="url(#linear-gradient-24)"/>
        <path id="Trazado_29980" data-name="Trazado 29980" d="M2034.042,2630.232c.034-.022,3.1-7.406,3.133-7.428a130.027,130.027,0,0,1,11.688-35.616,2.14,2.14,0,0,1,1.715-1.139l5.721-.489,9.492,12.835-12.244-4.105c2.627,7.254-9.115,21.27-13.091,26.32a1.129,1.129,0,0,0,.246,1.629l2.338,1.615a22.542,22.542,0,0,1-9.625,8.457Z" transform="translate(-2023.79 -2533.205)" fill="url(#linear-gradient-25)"/>
        <path id="Trazado_29981" data-name="Trazado 29981" d="M2034.023,3002.453a2.893,2.893,0,0,1,1.95,1.15,1.277,1.277,0,0,1-.172,1.538c-1.721,1.865-7.419,7.914-10.3,9.465a.355.355,0,0,1-.52-.32,11.31,11.31,0,0,1,1.438-4.707l-.086.329a.436.436,0,0,0,.708.441C2028.853,3008.762,2032.517,3005.356,2034.023,3002.453Z" transform="translate(-2016.109 -2912.659)" fill="url(#linear-gradient-26)"/>
        <g id="Grupo_32920" data-name="Grupo 32920" transform="translate(22.878 49.425)">
          <path id="Trazado_29982" data-name="Trazado 29982" d="M2217.4,2553.159s5.176,7.7,5.6,11.209-1.431,4.726-6.848,5.174c-16.121,1.333-24.067-3.5-24.067-3.5-1.1-7.031-1.887-8.82-11.1-12.643,0,0,11.648.924,13.993.015S2217.4,2553.159,2217.4,2553.159Z" transform="translate(-2180.993 -2552.932)" fill="url(#linear-gradient-27)"/>
        </g>
        <g id="Grupo_32922" data-name="Grupo 32922" transform="translate(33.81 0)">
          <path id="Trazado_29983" data-name="Trazado 29983" d="M2379.214,2050.067s2.569,1.029,3.125,2.384c.447,1.086,3.2,1.032,3.63,3.2a2.518,2.518,0,0,0,2.261,2.057c2.834.228,7.26,1.373,8.3,6.191.795,3.677-1,5.222-2.951,5.853a2.822,2.822,0,0,0-1.9,3.406c.385,1.394.08,3.058-2.276,4.527-5.281,3.291-11.463-6.073-11.463-6.073l-2.348-16.956Z" transform="translate(-2369.049 -2045.8)" fill="#ffe695"/>
          <path id="Trazado_29984" data-name="Trazado 29984" d="M2322.205,2261.28a118.2,118.2,0,0,1-8.994-9.54,8.065,8.065,0,0,1-1.365-7.258,100.192,100.192,0,0,1,3.981-10.025c.336-1.127,7.094-1.081,7.094-1.081s13.3,8.631,18.523,23.25l-5.867,1.827a68.568,68.568,0,0,0-6.9-9.529s5.936,7.842,6.145,11.053Z" transform="translate(-2310.722 -2212.647)" fill="#fff"/>
          <path id="Trazado_29985" data-name="Trazado 29985" d="M2302.728,2499.2l4.529-4.927,5.23,1.409s6.1.944,9.588,0l3.49-.945,7.886-2.456,1.239,3.5a2.108,2.108,0,0,1-.77,2.421,13.9,13.9,0,0,1-1.992,1.24c-1.039.454-23.924.144-23.924.144Z" transform="translate(-2302.728 -2448.303)" fill="url(#linear-gradient-28)"/>
          <path id="Trazado_29986" data-name="Trazado 29986" d="M2360.164,2133.871l3.271,8.871c-.3,1.844-4.943,1.9-5.661.795a1.085,1.085,0,0,1-.142-.372l-1.47-6.937a1.262,1.262,0,0,1,.642-1.376l1.805-.961C2359.3,2133.521,2359.924,2133.121,2360.164,2133.871Z" transform="translate(-2351.338 -2121.692)" fill="url(#linear-gradient-29)"/>
          <g id="Grupo_32921" data-name="Grupo 32921" transform="translate(0.916)">
            <path id="Trazado_29987" data-name="Trazado 29987" d="M2316.1,2042.81a9.99,9.99,0,0,0-3.01,5.995c-.733,4.2,1.046,5.562,2.754,5.348a7.973,7.973,0,0,0,6.095-4.039C2323.883,2047,2319.1,2040.6,2316.1,2042.81Z" transform="translate(-2312.924 -2038.781)" fill="url(#linear-gradient-30)"/>
            <path id="Trazado_29988" data-name="Trazado 29988" d="M2322.023,2012.372s.452-5.978-4.394-4.72l-.919,1.1s-2.6-2.534-.085-4.771,6.242-1.979,8.552,1.6,3.24,6.143,1.694,8.581-2.976.545-2.976.545.641-2.06-.072-2.873-1.456.607-1.456.607Z" transform="translate(-2315.295 -2002.548)" fill="#ffe695"/>
            <path id="Trazado_29989" data-name="Trazado 29989" d="M2395.715,2092.355s.214-3.074,1.831-2.316-.356,2.883-1.155,3.615Z" transform="translate(-2388.281 -2082.073)" fill="url(#linear-gradient-31)"/>
          </g>
        </g>
        <g id="Grupo_32923" data-name="Grupo 32923" transform="translate(7.811 33.936)">
          <path id="Trazado_29990" data-name="Trazado 29990" d="M2248.606,2571.925h-.048l-20.83-.022a.932.932,0,1,1,0-1.865l20.83.023a.932.932,0,0,1,.046,1.863Z" transform="translate(-2207.617 -2553.012)" fill="url(#linear-gradient-32)"/>
          <path id="Trazado_29991" data-name="Trazado 29991" d="M2014.6,2380.444h17.347a3.306,3.306,0,0,1,2.99,1.9l8.02,17.005H2021.4a2.009,2.009,0,0,1-1.869-1.271l-6.219-15.735A1.385,1.385,0,0,1,2014.6,2380.444Z" transform="translate(-2013.21 -2380.444)" fill="url(#linear-gradient-33)"/>
          <path id="Trazado_29992" data-name="Trazado 29992" d="M2136.674,2459.926c.376,1.168.1,2.3-.62,2.533s-1.606-.528-1.981-1.7-.1-2.3.62-2.533S2136.3,2458.758,2136.674,2459.926Z" transform="translate(-2123.066 -2451.207)" fill="#ba68c8"/>
        </g>
      </g>
    </g>
  </g>
</svg>
