<svg xmlns="http://www.w3.org/2000/svg" width="281" height="250.828" viewBox="0 0 281 250.828">
  <g id="Grupo_1068166" data-name="Grupo 1068166" transform="translate(-235.101 -385.172)">
    <g id="BACKGROUND" transform="translate(235.101 385.172)">
      <g id="Grupo_32241" data-name="Grupo 32241">
        <path id="Trazado_61861" data-name="Trazado 61861" d="M107.593,113.449c13.888-.48,27.317,4.387,40.6,8.463s27.5,7.427,40.95,3.921c18.079-4.714,30.692-20.563,42.018-35.422s24.138-30.618,42.3-34.991c16.962-4.084,35.262,3.237,47.607,15.564s19.47,28.991,23.916,45.862c11.013,41.787,5.7,89.964-22.916,122.348-22.892,25.91-57.449,38.636-91.584,44.137-24.623,3.968-50.223,4.63-74.166-2.35a121.172,121.172,0,0,1-70-54.733C68.435,195.535,51.851,115.375,107.593,113.449Z" transform="translate(-69.318 -35.458)" fill="#673ab7"/>
        <path id="Trazado_61862" data-name="Trazado 61862" d="M190.642,99.253c16.719.31,34.721-5.844,47.226-14.573,6.933-4.839,13.13-11,16.83-18.605s4.679-16.756,1.453-24.57c-4.654-11.275-16.9-17.654-28.879-19.933a70.957,70.957,0,0,0-53.19,11.364c-10.739,7.488-22,18.146-24.783,31.482-3,14.368,9.37,25.391,21.548,30.776A51.267,51.267,0,0,0,190.642,99.253Z" transform="translate(-104.695 -20.373)" fill="#673ab7"/>
      </g>
    </g>
    <g id="Grupo_34499" data-name="Grupo 34499" transform="translate(206.81 327.113)" style="isolation: isolate">
      <g id="Grupo_34495" data-name="Grupo 34495" transform="translate(37.392 74.884)">
        <path id="Trazado_66728" data-name="Trazado 66728" d="M308.853,165.242a14.5,14.5,0,0,1-2.362,1.834,54.968,54.968,0,0,1-9.309,4.555c-1.02.4-2.027.8-3.046,1.19-.489.2-.978.381-1.467.571l-1.678.651a110.777,110.777,0,0,1-13.893,4.371q-6.856,1.7-14.005,3.064c-.615.118-1.215.23-1.83.335-1.216.23-2.446.447-3.676.65-.6.112-1.216.211-1.816.309q-3.67.6-7.422,1.1c-1.537.2-3.132.362-4.7.526h-.014c-.126.013-.225.026-.336.039h-.014c-.154.013-.28.033-.433.046-.434.053-.783.085-1.048.125a.13.13,0,0,1-.056.006c-.1.013-.2.033-.267.047-.587.125-.573.322-.531.92.057.644.126,1.3.168,1.939.057.769.112,1.532.154,2.3.027.461.069.914.1,1.368v.006c.294,4.47.587,8.927.909,13.39.363,5.213.768,10.426,1.131,15.639.057.729.1,1.466.141,2.2.042.447.069.894.1,1.341q.4,6.2.81,12.4c.364,5.141.769,10.288,1.119,15.428.516,7.362.992,14.738,1.5,22.1v.072c.027.421.056.848.084,1.269q.23,3.323.461,6.645c.028.382.056.756.084,1.137q.315,4.724.657,9.446c.1,1.512.1,1.519-2.7,2.216-2,.493-4.11.854-6.22,1.209-6,1.026-12.2,1.7-18.394,2.406-6.694.763-13.4,1.459-20.211,1.939l-.88.059q-1.215.089-2.432.158c-2.124.131-4.249.243-6.388.348-4.765.23-9.546.171-14.061.315-6.415-.125-12.565-.21-18.7-.486-4.836-.217-9.645-.473-14.425-.888-.768-.066-1.537-.138-2.306-.211-.8-.072-1.566-.151-2.349-.23q-3.123-.315-6.205-.69c-.755-.1-1.5-.19-2.236-.3a169.725,169.725,0,0,1-18.576-3.431,1.382,1.382,0,0,0-.2-.046c-2.46-.427-3.033-1.314-2.907-2.452.294-2.446.475-4.9.7-7.349.224-2.557.447-5.108.671-7.665.224-2.485.42-4.97.643-7.455s.447-4.969.657-7.461q.545-6.232,1.089-12.457.295-3.372.588-6.744.441-5.009.88-10.012.628-7.356,1.286-14.712.65-7.5,1.314-15.014.754-8.432,1.524-16.855c.056-.612.069-1.223.1-1.841.014-.454.014-.6-.405-.7a.2.2,0,0,1-.057-.007c-.2-.046-.461-.092-.81-.157-.462-.073-.909-.138-1.369-.21-1.887-.289-3.774-.578-5.647-.868-2.376-.368-4.723-.782-7.044-1.223-.6-.105-1.188-.224-1.789-.341-3.913-.763-7.771-1.6-11.614-2.439-1.51-.329-3.019-.671-4.528-1.006-.573-.138-1.161-.27-1.734-.4-5.129-1.19-10.174-2.459-15.081-3.865-5-1.44-9.84-3-14.34-4.786-2.041-.815-4.012-1.676-5.829-2.6-1.314-.677-1.44-.828-.853-1.518.07-.086.154-.178.238-.283.349-.4.713-.8,1.048-1.2q2.306-2.6,4.542-5.213c.14-.164.28-.322.42-.487.224-.263.461-.533.684-.8q11.972-13.883,23.943-27.76L79.91,127V127q18.45-21.4,36.9-42.787c.2-.217.363-.44.573-.657a2.487,2.487,0,0,1,1.8-.65,5.353,5.353,0,0,0,1.02-.145,35.259,35.259,0,0,1,4.528-.651c.587-.053,1.16-.1,1.747-.138.209-.013.433-.033.642-.046.252-.02.517-.032.769-.052l1.8-.118c1.775-.112,3.55-.21,5.339-.315.615-.039,1.216-.073,1.831-.112.056,0,.1-.006.154-.006a27.911,27.911,0,0,0,9.993-2.262c.685-.315,1.342-.637,2.013-.953.419-.2.839-.407,1.272-.6.279-.145.573-.276.867-.407,1.257-.559,2.529-1.117,3.885-1.63a5.114,5.114,0,0,1,4.584.006c1.1.388,2.125.822,3.187,1.236,6.751,2.669,12.16,5.824,15.961,9.584.769.769,1.608,1.525,2.418,2.287a.607.607,0,0,0,.783.027c.21-.178.391-.362.6-.546A64.543,64.543,0,0,1,195.3,79.187a58.461,58.461,0,0,1,7.9-3.649c.405-.151.8-.3,1.216-.427a3.719,3.719,0,0,1,2.92.145c1.677.8,3.3,1.623,4.99,2.425.252.118.5.236.755.348.462.217.923.427,1.383.638.741.341,1.468.677,2.194,1.019a23.626,23.626,0,0,0,7.716,1.965c.084.006.182.02.266.026.6.066,1.188.125,1.789.171q2.7.247,5.409.375c.447.026.88.046,1.327.066.182.006.378.013.559.026.475.027.951.059,1.425.092.615.046,1.216.1,1.818.157l.7.059a12.963,12.963,0,0,1,6.037,1.854c.964.638,1.873,1.3,2.712,1.972a104.539,104.539,0,0,1,10.594,10.071,234.926,234.926,0,0,1,15.081,18.393c.349.454.7.907,1.035,1.361v.006q.985,1.292,1.971,2.59v.007c5.953,7.822,11.964,15.625,18.393,23.363.672.808,1.342,1.61,2.041,2.412.419.507.852,1.006,1.286,1.505,2.139,2.485,4.3,4.963,6.415,7.455.294.335.573.67.853,1.012.474.572.95,1.144,1.411,1.722,1.007,1.249,2,2.505,3,3.76a18.037,18.037,0,0,1,1.062,1.551C310.362,162.895,309.985,164.085,308.853,165.242Z" transform="translate(-47.19 -74.884)" fill="#ffd54f"/>
      </g>
      <path id="Trazado_66756" data-name="Trazado 66756" d="M156.348,155.569q-7.7.085-15.408.172c-6.556.066-13.112.159-19.667-.048a59.274,59.274,0,0,1-8.062-.766,13.006,13.006,0,0,1-3.3-.961,3.746,3.746,0,0,1-2.2-2.717,41.947,41.947,0,0,1-1.028-9.647,2.7,2.7,0,0,1,2.36-3.045,8.921,8.921,0,0,1,2.2-.291,70.05,70.05,0,0,1,15.1,1.377,93.209,93.209,0,0,1,10.955,2.9,6.7,6.7,0,0,0,3.164.265,68.478,68.478,0,0,1,13.55-.5,26.426,26.426,0,0,1,6.749,1.286,5.645,5.645,0,0,0,3.742,0,74.437,74.437,0,0,1,13.59-3.168c2.678-.351,5.364-.684,8.057-.857a98.563,98.563,0,0,1,10.527-.441c3.239.138,6.475.34,9.692.77.133.018.267.038.4.066,2.128.446,2.642,1.214,2.427,3.423-.23,2.353-.415,4.71-.585,7.069a4.383,4.383,0,0,1-1.066,2.771,4.284,4.284,0,0,1-2.411,1.365,45.612,45.612,0,0,1-6.441.686c-11.34.757-22.693.579-34.047.474-2.77-.025-5.541,0-8.312,0Z" transform="translate(14.691 16.742)" fill="#ebe1ff"/>
      <path id="Trazado_66757" data-name="Trazado 66757" d="M232.748,197.646c.064,1.8-.392,2.2-2.574,2.531-3.923.6-7.8,1.317-11.755,1.761-5.949.678-11.9,1.408-17.878,1.956q-10.427.978-20.922,1.279c-9.182.248-18.348.651-27.545.665-8.319.013-16.574-.444-24.829-1.1-6.168-.483-12.259-1.265-18.348-2.114a21.38,21.38,0,0,1-2.606-.535,1.659,1.659,0,0,1-1.444-1.669c.015-1.083-.017-2.166.047-3.249.172-3.221.361-6.456.549-9.679.047-1.043.11-2.087.172-3.13.2-3.691.424-7.4.628-11.087-.062,0-.126-.014-.2-.014.015-.482.032-.978.047-1.46.03-1.214.062-2.44.094-3.666v-.052c.141-5.231.3-10.461.44-15.7.015-.483.03-.952.03-1.435.032-.665.047-1.344.064-2.009.015-.613,0-1.214-.032-1.827-.062-1.6.423-2.034,2.449-1.877,1.695.143,3.374.364,5.053.613,3.453.5,6.921.822,10.391,1.109s6.953.638,10.436.938c2.339.21,4.677.444,7.032.574,12.18.652,24.359,1.226,36.569.992,6.749-.144,13.5-.3,20.231-.6,6.168-.274,12.336-.7,18.457-1.408,2.009-.235,4.049-.3,6.074-.456,1.287-.1,2.59-.157,3.877-.34,2.2-.326,3.923.365,3.845,2.739-.062,1.761.078,3.522.078,5.27-.015,8.322.5,16.63.879,24.94.064,1.3.111,2.609.158,3.913.03.458.046.914.046,1.356.064,1.018.094,2.023.126,3.026.032.456.047.914.062,1.37C232.544,192.063,232.653,194.855,232.748,197.646Z" transform="translate(0.475 18.578)" fill="#ba68c8"/>
      <path id="Trazado_66758" data-name="Trazado 66758" d="M106.09,203.6c-.114,1.015-.252,1.935-.315,2.86-.2,2.9-.373,5.8-.563,8.7-.211,3.238-.439,6.473-.645,9.71s-.386,6.479-.6,9.716c-.185,2.832-.4,5.662-.6,8.494-.209,3.1-.4,6.206-.6,9.309-.143,2.226-.273,4.452-.426,6.677a1.929,1.929,0,0,1-2.411,1.693,5.929,5.929,0,0,1-1.135-.429c-1.788-.833-2.011-1.152-1.788-3.133.441-3.895.908-7.787,1.425-11.672.863-6.5,1.781-12.988,2.662-19.484.9-6.631,1.81-13.259,2.659-19.894a83.611,83.611,0,0,0,.99-8.656,4.4,4.4,0,0,1,.757-2.279.577.577,0,0,1,.685-.282.648.648,0,0,1,.494.583c-.006.466-.115.93-.161,1.4-.092.939-.488,2.011-.056,2.785.412.74,1.589.466,2.41.618,2.855.525,5.734.918,8.613,1.3a64.176,64.176,0,0,0,8.7.482c2.968-.01,5.938.295,8.909.391,4.055.133,8.112.29,12.168.268,4.121-.021,8.241-.22,12.351-.573,2.02-.174,4.044-.291,6.066-.436,4.516-.322,9.036-.6,13.547-.984,4.307-.368,8.607-.833,12.906-1.289,2.954-.315,5.9-.7,8.856-1.028a84.161,84.161,0,0,0,8.607-1.329,11.726,11.726,0,0,1,1.4-.176.452.452,0,0,0,.445-.534c-.033-1.148-.088-2.3-.112-3.445q-.023-1.113.024-2.227a.7.7,0,0,1,.455-.619.834.834,0,0,1,.915.241,1.9,1.9,0,0,1,.5,1.078,37.123,37.123,0,0,1,.712,5.219q.612,6.766,1.137,13.537c.193,2.493.356,4.99.458,7.489.193,4.8.741,9.567,1.177,14.345.314,3.434.561,6.872.88,10.3.331,3.565.713,7.126,1.072,10.69q.286,2.824.566,5.648c.033.336.047.675.056,1.013a1.7,1.7,0,0,1-1.265,1.846,19.769,19.769,0,0,1-2.131.633,1.2,1.2,0,0,1-1.64-1.049,14.194,14.194,0,0,1-.372-2.6c-.214-5.878-.472-11.754-.7-17.632-.178-4.594-.322-9.189-.5-13.782-.207-5.406-.437-10.81-.65-16.214-.089-2.229-.154-4.459-.235-6.689-.018-.473-.04-.947-.092-1.417-.092-.841-.341-1.11-1.153-1.042a30.011,30.011,0,0,0-3.413.448c-3.056.618-6.173.7-9.251,1.116-3.884.521-7.78.943-11.672,1.389-1.947.224-3.894.445-5.847.6-4.31.346-8.627.617-12.935.981-6.062.513-12.127.939-18.207,1.139-3.04.1-6.083.277-9.122.236-5.609-.073-11.218-.273-16.81-.756-1.614-.139-3.216-.4-4.825-.606-.863-.109-1.034.037-1.116.962-.083.942-.171,1.885-.226,2.829-.338,5.667-1,17-1,17s-.742,11.059-1.086,16.591c-.336,5.4-.618,10.8-.954,16.193-.349,5.6.4-49.705.584-52.4.018-.269.04-.54.038-.81-.006-.641-.131-.793-.81-.911a50.357,50.357,0,0,1-5.375-1,11.035,11.035,0,0,1-1.362-.377A6.581,6.581,0,0,1,106.09,203.6Z" transform="translate(12.116 30.428)" fill="#ffe695"/>
      <path id="Trazado_66759" data-name="Trazado 66759" d="M148.973,151.87c-.064-.013-.334-.046-.593-.115a1.013,1.013,0,0,1-.807-1.217,11.155,11.155,0,0,1,.714-2.1c1.823-3.918,3.642-7.839,5.53-11.728,3.8-7.837,7.588-15.685,11.5-23.468,2.882-5.737,6.407-11.117,9.6-16.683,1.815-3.168,3.793-6.23,5.829-9.256.338-.5.631-1.043,1.308-1.19a.849.849,0,0,1,.911.249.674.674,0,0,1,.03.761,4.724,4.724,0,0,1-.314.52A192.936,192.936,0,0,0,171.1,108.311c-3.809,7.538-7.188,15.276-10.738,22.935-2.7,5.82-5.359,11.658-8.038,17.487-.282.613-.59,1.215-.858,1.834A2.283,2.283,0,0,1,148.973,151.87Z" transform="translate(25.484 2.957)" fill="#ffe695"/>
      <path id="Trazado_66760" data-name="Trazado 66760" d="M143.825,124.956a4.6,4.6,0,0,1-1.182,2.6,1.024,1.024,0,0,1-1.587-.168,7.124,7.124,0,0,1-.53-.862c-2.8-5.019-5.877-9.863-9.04-14.661-3.421-5.189-6.677-10.486-10.031-15.72-1.641-2.56-3.345-5.078-5.01-7.623a5.052,5.052,0,0,1-.925-1.786.732.732,0,0,1,.239-.729.671.671,0,0,1,.761-.053,5.243,5.243,0,0,1,1.453,1.394q3.988,4.729,7.6,9.752c6.025,8.407,11.56,17.142,17.3,25.738A3.855,3.855,0,0,1,143.825,124.956Z" transform="translate(17.02 2.901)" fill="#ffe695"/>
      <g id="Grupo_34497" data-name="Grupo 34497" transform="translate(125.56 157.211)">
        <path id="Trazado_66761" data-name="Trazado 66761" d="M112.063,141.113a1.1,1.1,0,0,1-1.032,1.2,1.089,1.089,0,0,1-1.035-1.2,1.143,1.143,0,0,1,.935-1.106A1.07,1.07,0,0,1,112.063,141.113Z" transform="translate(-109.996 -140.007)" fill="#cfb5e0"/>
        <path id="Trazado_66762" data-name="Trazado 66762" d="M169.574,144.367a1.155,1.155,0,0,1,1.049,1.246,1.013,1.013,0,0,1-1,.827.952.952,0,0,1-1.032-.987A1.071,1.071,0,0,1,169.574,144.367Z" transform="translate(-94.515 -138.855)" fill="#cfb5e0"/>
        <path id="Trazado_66763" data-name="Trazado 66763" d="M119.995,144.078a.915.915,0,0,1-.767,1.01.958.958,0,0,1-.943-.855,1.027,1.027,0,0,1,.886-1.131A.962.962,0,0,1,119.995,144.078Z" transform="translate(-107.808 -139.189)" fill="#cfb5e0"/>
        <path id="Trazado_66764" data-name="Trazado 66764" d="M156.552,147.254a.845.845,0,0,1-.947-.766.926.926,0,0,1,.831-.919.988.988,0,0,1,1.062.91C157.515,146.9,157.118,147.228,156.552,147.254Z" transform="translate(-97.947 -138.538)" fill="#cfb5e0"/>
        <path id="Trazado_66765" data-name="Trazado 66765" d="M130.179,145.04a.744.744,0,0,1-.77-.66.871.871,0,0,1,.917-1.005.755.755,0,0,1,.842.643C131.272,144.544,130.831,145.013,130.179,145.04Z" transform="translate(-104.872 -139.117)" fill="#cfb5e0"/>
        <path id="Trazado_66766" data-name="Trazado 66766" d="M162.88,143.113a.936.936,0,0,1-.918.838A.845.845,0,0,1,161.2,143a.766.766,0,0,1,.784-.713A.833.833,0,0,1,162.88,143.113Z" transform="translate(-96.469 -139.404)" fill="#cfb5e0"/>
        <path id="Trazado_66767" data-name="Trazado 66767" d="M145.5,144.318a.744.744,0,0,1-.8.707.728.728,0,0,1-.822-.671.819.819,0,0,1,.887-.844A.853.853,0,0,1,145.5,144.318Z" transform="translate(-101.046 -139.083)" fill="#cfb5e0"/>
        <path id="Trazado_66768" data-name="Trazado 66768" d="M182.984,144.674a.888.888,0,0,1-.968-.8.739.739,0,0,1,.673-.826.929.929,0,0,1,.992.785A.825.825,0,0,1,182.984,144.674Z" transform="translate(-90.971 -139.202)" fill="#cfb5e0"/>
        <path id="Trazado_66769" data-name="Trazado 66769" d="M176.249,141.419a.771.771,0,0,1-.71.788.744.744,0,0,1-.874-.6.722.722,0,0,1,.563-.887A.89.89,0,0,1,176.249,141.419Z" transform="translate(-92.916 -139.822)" fill="#bc99cb"/>
      </g>
      <g id="Grupo_34498" data-name="Grupo 34498" transform="translate(119.548 169.522)">
        <path id="Trazado_66770" data-name="Trazado 66770" d="M180.453,159.79a9,9,0,0,0-1.344-.444,8.18,8.18,0,0,0-3.6.013c-.822.157-.978-.013-.978-.8-.013-1.083.027-2.166,0-3.235a4.559,4.559,0,0,0-.8-2.479,2.264,2.264,0,0,0-3.652-.351,4.856,4.856,0,0,0-1.253,2.282,8.856,8.856,0,0,0-.182,4.409c.195.8,0,.952-.836.887-.535-.039-1.07-.118-1.6-.157a5.559,5.559,0,0,0-2.4.312,2.974,2.974,0,0,0-2.035,2.948,3.526,3.526,0,0,0,3.144,3.613,8.106,8.106,0,0,0,3.013-.156c.757-.183.8-.144.887.626a10.031,10.031,0,0,0,1.057,3.665,2.863,2.863,0,0,0,2.752,1.722,2.955,2.955,0,0,0,2.544-2.048,5.764,5.764,0,0,0,.378-3.56c-.1-.522-.274-1.044-.5-1.839.652,0,1.121.013,1.578,0a17.15,17.15,0,0,0,1.827-.1,5.052,5.052,0,0,0,2.112-.652,2.68,2.68,0,0,0,1.474-2.269A2.546,2.546,0,0,0,180.453,159.79ZM179.07,163.6a8.422,8.422,0,0,1-3.014.209c-.678,0-1.356-.027-2.021.013a.8.8,0,0,0-.7,1.03c.157.509.391,1.005.587,1.5a4.57,4.57,0,0,1,.169,3.169,4.133,4.133,0,0,1-.508,1.082,1.3,1.3,0,0,1-2.217.027,5.831,5.831,0,0,1-1.07-3.613c0-.535.078-1.082.064-1.618a.816.816,0,0,0-1.018-.729,13.239,13.239,0,0,0-1.33.456,5.465,5.465,0,0,1-2.583.351,2.524,2.524,0,0,1-1.761-.874,1.85,1.85,0,0,1,.991-3.13,7.922,7.922,0,0,1,2.217-.066c.613.052,1.214.091,1.827.157,1.734.169,1.826.078,1.6-1.67a6.244,6.244,0,0,0-.3-.952,6.649,6.649,0,0,1,.482-4.722,2.744,2.744,0,0,1,.588-.809.953.953,0,0,1,1.552.183,3.8,3.8,0,0,1,.587,1.9,19.963,19.963,0,0,1-.091,3.64,7.546,7.546,0,0,0-.1,1.212.862.862,0,0,0,.978.8,9.766,9.766,0,0,0,1.174-.3,8.008,8.008,0,0,1,3.809-.155c1.07.234,1.7.808,1.617,1.513C180.5,163.1,179.786,163.377,179.07,163.6Z" transform="translate(-90.305 -149.22)" fill="#ebb45c"/>
        <path id="Trazado_66771" data-name="Trazado 66771" d="M189.278,183.09a20.072,20.072,0,0,0,3.052-.26c-.013-.456-.025-.914-.052-1.37a.157.157,0,0,1-.078.014c-.939.091-1.879.155-2.818.234a.548.548,0,0,0-.013-.143c-.6,0-1.214-.039-1.813.013a.9.9,0,0,0-.783,1.174,10.019,10.019,0,0,0,.5,1.317,4.959,4.959,0,0,1,.287,2.973,3.59,3.59,0,0,1-.4,1.135c-.691,1.2-1.813,1.253-2.531.091a6.374,6.374,0,0,1-.952-3.861c.118-2.178,0-2.257-2.021-1.552a13.388,13.388,0,0,1-1.761.444,3.563,3.563,0,0,1-1.983-.248,2.077,2.077,0,0,1-1.291-2.283,1.731,1.731,0,0,1,1.617-1.539,11.616,11.616,0,0,1,3.431.091c.522.066,1.057.13,1.592.144.3,0,.574-.3.508-.535-.209-.705-.039-1.435-.312-2.166a6.124,6.124,0,0,1,.43-4.709,3.033,3.033,0,0,1,.587-.809,1.035,1.035,0,0,1,1.579.2,4.318,4.318,0,0,1,.6,1.918,12.727,12.727,0,0,1-.078,3.221,8.378,8.378,0,0,0-.131,1.6.878.878,0,0,0,1.148.809c.458-.1.9-.274,1.344-.417a6.812,6.812,0,0,1,2.805-.209,2.376,2.376,0,0,1,.442.064c0-.442-.013-.9-.038-1.356a.233.233,0,0,0-.092-.013c-.808-.066-1.617.013-2.426-.013-.522-.014-1.069.535-1.513.025-.365-.442-.078-1.043-.1-1.578,0-.13.013-.274.013-.4a8.614,8.614,0,0,0-.508-3.782,2.531,2.531,0,0,0-2.087-1.709,2.505,2.505,0,0,0-2.374,1.278,7.336,7.336,0,0,0-1.148,3.627,8.81,8.81,0,0,0,.182,2.622c.118.535-.064.729-.626.717-.613,0-1.226-.064-1.827-.064a10.577,10.577,0,0,0-1.825.1,3.185,3.185,0,0,0-2.4,4.488,3.533,3.533,0,0,0,2.14,2.047,5.463,5.463,0,0,0,2.6.274c.6-.064,1.239-.508,1.774-.221.679.378.314,1.226.483,1.852a7.186,7.186,0,0,0,1.4,3.117,2.636,2.636,0,0,0,4.331-.182,4.818,4.818,0,0,0,.8-1.853,7.043,7.043,0,0,0-.221-3.6C188.535,183.259,188.665,183.077,189.278,183.09Z" transform="translate(-86.778 -144.502)" fill="#ebb45c"/>
        <path id="Trazado_66772" data-name="Trazado 66772" d="M128.889,174.8a8.72,8.72,0,0,0-3.627.169c-.522.13-.731-.066-.8-.613-.13-1.069-.183-2.153-.378-3.208a5.538,5.538,0,0,0-1.24-2.74,1.852,1.852,0,0,0-3.1-.027,4.915,4.915,0,0,0-.927,1.8,9.033,9.033,0,0,0-.027,5c.131.547-.039.743-.587.809-.991.13-2.021.169-3,.378a2.981,2.981,0,0,0-2.44,2.439,3.188,3.188,0,0,0,1.344,3.365,4.231,4.231,0,0,0,2.661.822c.743-.013,1.631-.287,2.178.027.743.444.274,1.487.444,2.257a6.629,6.629,0,0,0,1.03,2.831,2.576,2.576,0,0,0,4.174.287,3.61,3.61,0,0,0,.861-1.578,8.715,8.715,0,0,0,0-4.018c-.1-.522-.547-1.057-.26-1.552.3-.522.977-.287,1.487-.365a8.018,8.018,0,0,0,3.182-1.253,2.763,2.763,0,0,0,1.292-2.4A2.484,2.484,0,0,0,128.889,174.8Zm.391,3.547a6.032,6.032,0,0,1-3.365,1.239c-.6.039-1.214.014-1.813.078a.855.855,0,0,0-.743,1.174c.13.456.339.887.483,1.33a8.143,8.143,0,0,1,.325,3.992,1.926,1.926,0,0,1-1.447,1.761c-.613.078-1.344-.574-1.656-1.54a7.5,7.5,0,0,1-.3-2.4c0-.47.053-.953.053-1.422.039-1.7-.3-1.97-1.839-1.331a5.645,5.645,0,0,1-2.57.379,2.531,2.531,0,0,1-1.487-.574,1.833,1.833,0,0,1-.809-1.748,1.7,1.7,0,0,1,1.4-1.552c.927-.182,1.866-.209,2.805-.312a.292.292,0,0,1,.013.1c.665-.039,1.344-.039,2.009-.118a.653.653,0,0,0,.535-.913c-.144-.378-.339-.731-.508-1.1a6.6,6.6,0,0,1-.092-5.308,4.6,4.6,0,0,1,.392-.7.739.739,0,0,1,1.212-.066,5.219,5.219,0,0,1,.588,1.057,8.524,8.524,0,0,1,.547,2.961c.039.679.013,1.356.066,2.021.078,1.187.4,1.422,1.539,1.162.6-.131,1.174-.3,1.775-.4a5.358,5.358,0,0,1,2.412.039,1.233,1.233,0,0,1,.966.925A1.247,1.247,0,0,1,129.28,178.346Z" transform="translate(-103.271 -145.04)" fill="#ebb45c"/>
        <path id="Trazado_66773" data-name="Trazado 66773" d="M114.181,157.066a5.335,5.335,0,0,0-2.4-.195q-.8.137-1.6.234a.633.633,0,0,1-.8-.665,16.5,16.5,0,0,0-.391-3.221,5.888,5.888,0,0,0-1.265-2.727,1.97,1.97,0,0,0-1.592-.743c0,.483-.013.952-.025,1.435a.415.415,0,0,1,.13-.013c.522.025.756.508.965.939a10.411,10.411,0,0,1,.809,3.939c.039.6,0,1.212.052,1.813.066.77.47,1.03,1.253.886.861-.155,1.722-.351,2.583-.5a4.174,4.174,0,0,1,2,.157,1.168,1.168,0,0,1,.574,1.813,2.933,2.933,0,0,1-1.109.848,8.444,8.444,0,0,1-3.131.743c-.469.052-.952.039-1.408.118a.733.733,0,0,0-.588.9c.131.456.34.887.483,1.33a9.3,9.3,0,0,1,.535,3.379,3.5,3.5,0,0,1-.6,1.9,1.267,1.267,0,0,1-2.192-.013,3.532,3.532,0,0,1-.7-1.879c-.013-.209-.013-.4-.013-.613-.027,1.226-.053,2.453-.078,3.666a2.609,2.609,0,0,0,4.291-.652,4.948,4.948,0,0,0,.64-2.322,11.225,11.225,0,0,0-.456-3.6c-.118-.469-.052-.769.5-.847a16.981,16.981,0,0,0,1.8-.34,5.958,5.958,0,0,0,2.843-1.474A2.485,2.485,0,0,0,114.181,157.066Z" transform="translate(-105.128 -149.745)" fill="#ebb45c"/>
        <path id="Trazado_66774" data-name="Trazado 66774" d="M159.764,176.515a6.515,6.515,0,0,0-.952-.339,8.921,8.921,0,0,0-2.818-.3c-1.121.013-1.173-.039-1.252-1.07-.053-.679-.078-1.356-.13-2.035a4.878,4.878,0,0,0-.679-2.1,2.106,2.106,0,0,0-3.679-.353,4.687,4.687,0,0,0-1.056,2.166,8.218,8.218,0,0,0-.039,3.613c.091.392-.039.665-.509.64-.274-.027-.535-.066-.743-.091a5.3,5.3,0,0,0-2.453.3,2.857,2.857,0,0,0,.3,5.5,6.483,6.483,0,0,0,3,.1c.729-.144.834-.053.965.665a12.12,12.12,0,0,0,1.057,3.483,2.342,2.342,0,0,0,2.048,1.422,2.306,2.306,0,0,0,2.257-1.435,5.9,5.9,0,0,0,.561-3.745c-.262-1.643-.248-1.63,1.487-1.774a14.368,14.368,0,0,0,1.8-.3,3.51,3.51,0,0,0,.925-.379,2.258,2.258,0,0,0,1.3-2.125A2.233,2.233,0,0,0,159.764,176.515Zm-.613,2.818a7.169,7.169,0,0,1-3.535.509c-.235-.039-.43-.066-.626-.092-1.383-.1-1.657.262-1.226,1.657.2.638.378,1.291.535,1.943a4.4,4.4,0,0,1-.26,2.387,1.236,1.236,0,0,1-1.135.991c-.561.014-.809-.43-1.018-.86a9.226,9.226,0,0,1-.77-3.131c-.025-.326.027-.665.014-1-.027-1.083-.418-1.41-1.37-.966a5.948,5.948,0,0,1-2.961.444,2.778,2.778,0,0,1-.978-.2,1.437,1.437,0,0,1-.248-2.57,3.236,3.236,0,0,1,2.727-.312c.508.169.991.417,1.512.574a.888.888,0,0,0,1.187-.939,7.138,7.138,0,0,0-.339-1.148,7.662,7.662,0,0,1-.064-4.2,1.955,1.955,0,0,1,1.343-1.631c.47-.13,1.018.574,1.253,1.617a8.6,8.6,0,0,1,.169,1.41c.039.665.052,1.343.039,2.021-.027,1.356.353,2.112,1.918,1.565a5.479,5.479,0,0,1,3.756.274.875.875,0,0,1,.679.9A.924.924,0,0,1,159.151,179.332Z" transform="translate(-95.131 -144.553)" fill="#ebb45c"/>
        <path id="Trazado_66775" data-name="Trazado 66775" d="M147.226,159.286a3.31,3.31,0,0,0-1.943-1.005,11.179,11.179,0,0,0-3.026-.182c-.679.078-.77-.053-.836-.783-.039-.6-.039-1.214-.118-1.814a6.5,6.5,0,0,0-.769-2.7,2.174,2.174,0,0,0-3.588-.43,4.351,4.351,0,0,0-.925,1.552,8.453,8.453,0,0,0-.392,2.948c.039.508.078.978.091,1.448.014.4-.143.679-.587.561a5.026,5.026,0,0,0-3.183.26,2.745,2.745,0,0,0-1.865,2.818,2.854,2.854,0,0,0,2.531,2.726,13.575,13.575,0,0,0,2.426.092c1.121-.014,1.212,0,1.369.977a11.605,11.605,0,0,0,.952,3.08,2.306,2.306,0,0,0,2.217,1.473,2.458,2.458,0,0,0,2.192-1.565,6.858,6.858,0,0,0,.535-3.351c-.027-.652-.7-1.436-.118-1.892.456-.339,1.292-.155,1.957-.248a10.962,10.962,0,0,0,1.592-.273,2.906,2.906,0,0,0,1.63-1.123A1.892,1.892,0,0,0,147.226,159.286Zm-1.109,1.93a2.372,2.372,0,0,1-1.461.638c-.731.066-1.474.091-2.217.13v-.077c-.535,0-1.069-.014-1.617.013a.71.71,0,0,0-.627.861c.144.587.34,1.161.522,1.734a4.931,4.931,0,0,1-.157,3.561,1.071,1.071,0,0,1-1.082.757,1.059,1.059,0,0,1-.913-.691,7.309,7.309,0,0,1-.77-2.7c-.027-.47-.013-.952-.039-1.422-.052-1.278-.365-1.5-1.643-.978a5.149,5.149,0,0,1-3.365.248,1.493,1.493,0,0,1,.064-2.961,4.469,4.469,0,0,1,3.144.365c.417.2.887.469,1.317.066a1.147,1.147,0,0,0,.209-1.474,7,7,0,0,1-.444-3.966,3.615,3.615,0,0,1,.718-1.866.942.942,0,0,1,1.656.078,3.788,3.788,0,0,1,.483,1.748c.091,1.135.118,2.283.209,3.431.066.9.444,1.212,1.317.965a7.711,7.711,0,0,1,3.4-.118,2.388,2.388,0,0,1,1.279.574A.789.789,0,0,1,146.118,161.217Z" transform="translate(-98.677 -149.251)" fill="#ebb45c"/>
        <path id="Trazado_66776" data-name="Trazado 66776" d="M167.173,176.538a1.372,1.372,0,0,1,1.493,1.286,1.405,1.405,0,0,1-1.367,1.632,1.634,1.634,0,0,1-1.89-1.363A1.679,1.679,0,0,1,167.173,176.538Z" transform="translate(-89.345 -142.667)" fill="#ebb45c"/>
        <path id="Trazado_66777" data-name="Trazado 66777" d="M107.158,177.448a1.721,1.721,0,0,1-1.24,1.866,1.336,1.336,0,0,1-.678.025c.039-1.043.091-2.087.143-3.13A1.23,1.23,0,0,1,107.158,177.448Z" transform="translate(-105.24 -142.786)" fill="#ebb45c"/>
        <path id="Trazado_66778" data-name="Trazado 66778" d="M185.281,160.876a1.43,1.43,0,0,1-1.4-1.416,1.665,1.665,0,0,1,1.655-1.641,1.538,1.538,0,0,1-.259,3.057Z" transform="translate(-84.464 -147.612)" fill="#ebb45c"/>
        <path id="Trazado_66779" data-name="Trazado 66779" d="M121.5,160.422a1.5,1.5,0,0,1-1.464-1.589,1.379,1.379,0,0,1,1.418-1.386,1.7,1.7,0,0,1,1.624,1.493A1.525,1.525,0,0,1,121.5,160.422Z" transform="translate(-101.331 -147.71)" fill="#ebb45c"/>
        <path id="Trazado_66780" data-name="Trazado 66780" d="M154.841,159.634a1.29,1.29,0,0,1-1.3,1.431,1.43,1.43,0,0,1-1.626-1.36,1.472,1.472,0,0,1,1.316-1.488A1.546,1.546,0,0,1,154.841,159.634Z" transform="translate(-92.91 -147.508)" fill="#ebb45c"/>
        <path id="Trazado_66781" data-name="Trazado 66781" d="M135.1,179.262a1.484,1.484,0,0,1-1.353-1.477,1.385,1.385,0,0,1,1.308-1.277,1.457,1.457,0,0,1,1.461,1.354A1.435,1.435,0,0,1,135.1,179.262Z" transform="translate(-97.709 -142.674)" fill="#ebb45c"/>
      </g>
      <path id="Trazado_66782" data-name="Trazado 66782" d="M183.185,171.6c-8.872-.267-16.237-.557-23.61-.571a58.051,58.051,0,0,0-8.693.554c-3.614.539-7.26.732-10.893,1.044-5.656.487-11.323.853-16.975,1.377-3.43.316-6.839.841-10.261,1.25-1.609.193-3.224.35-4.838.494a2.355,2.355,0,0,1-2.894-2.535,37.956,37.956,0,0,1,.114-5.268,6.072,6.072,0,0,1,.2-.991c.362-1.35.962-1.834,2.307-1.756,3.847.228,7.69.509,11.537.719,4.184.23,8.37.461,12.56.588,7.435.224,14.876.265,22.307.588a122.414,122.414,0,0,0,13.366-.374c3.373-.221,6.749-.384,10.121-.618,4.585-.316,9.177-.532,13.749-1.033,3.225-.353,6.456-.655,9.689-.929,2.158-.185,4.286-.559,6.426-.865,2.812-.4,3.475.1,4.007,2.877a12.837,12.837,0,0,1,.018,4.038,1.749,1.749,0,0,1-1.574,1.6,5.606,5.606,0,0,1-1.006.107c-4.188.062-8.37.522-12.567.124-1.477-.14-2.973-.059-4.461-.109C188.437,171.8,185.059,171.665,183.185,171.6Z" transform="translate(14.239 23.318)" fill="#9c6488"/>
      <path id="Trazado_66783" data-name="Trazado 66783" d="M149.135,161.324a3.633,3.633,0,0,1,3.734,2.775,1.112,1.112,0,0,0,1.283.939,10.926,10.926,0,0,1,2,.188,4.108,4.108,0,0,1,1.148.378,3.579,3.579,0,0,1,2.312,3.286,3.654,3.654,0,0,1-2.431,3.422,6.9,6.9,0,0,1-2.564.509c-.6.021-.684.166-.57.779a7.032,7.032,0,0,1,.183,2.8,3.8,3.8,0,0,1-2.944,3.239,3.9,3.9,0,0,1-4.272-1.605,6.688,6.688,0,0,1-1.051-2.6c-.226-1-.26-1.053-1.173-.861a4.82,4.82,0,0,1-2.588-.142c-.063-.021-.13-.035-.193-.058a3.991,3.991,0,0,1-2.906-3.521A4.2,4.2,0,0,1,141.621,167a7.262,7.262,0,0,1,2.34-.607.818.818,0,0,0,.794-.951,4.534,4.534,0,0,1,.035-.808,3.475,3.475,0,0,1,3.3-3.249C148.429,161.342,148.768,161.344,149.135,161.324Z" transform="translate(23.255 22.836)" fill="#ffe695"/>
      <path id="Trazado_66784" data-name="Trazado 66784" d="M117.3,199.86c.518.124.445.275.4.425-.336,1.089-.688,2.179-1,3.268-.221.762-.377,1.524-.593,2.285-.18.627-.42,1.253-.606,1.88-.212.716-.389,1.434-.592,2.15-.2.7-.418,1.4-.616,2.1-.21.746-.4,1.493-.608,2.24-.182.642-.392,1.284-.576,1.925-.22.761-.42,1.523-.638,2.284-.195.672-.41,1.343-.607,2.015-.206.7-.4,1.4-.6,2.105s-.426,1.433-.628,2.149c-.206.732-.388,1.463-.6,2.2-.2.687-.415,1.373-.613,2.06s-.384,1.374-.583,2.061c-.212.731-.439,1.462-.649,2.194-.2.7-.386,1.4-.587,2.106s-.426,1.432-.632,2.149c-.18.627-.345,1.254-.523,1.881-.259.911-.526,1.821-.789,2.732-.387,1.344-.781,2.687-1.157,4.031-.346,1.239-.66,2.479-1.014,3.718-.349,1.224-.738,2.448-1.1,3.672-.382,1.3-.76,2.6-1.124,3.9-.344,1.224-.662,2.449-1,3.673a2.946,2.946,0,0,1-.239.581c-.057.107-.441.182-.789.163-.365-.02-.6-.078-.6-.158a1.613,1.613,0,0,1,.037-.538c.114-.448.25-.9.386-1.344.365-1.209.752-2.418,1.1-3.627.456-1.6.874-3.2,1.321-4.794.2-.732.454-1.463.662-2.194.327-1.15.63-2.3.957-3.45.214-.746.466-1.493.679-2.239.324-1.135.622-2.27.942-3.4.2-.716.43-1.433.635-2.15.336-1.179.656-2.359.995-3.539.21-.732.454-1.463.662-2.194.327-1.15.631-2.3.958-3.449.207-.732.451-1.463.66-2.194.327-1.15.632-2.3.96-3.449.209-.732.449-1.463.656-2.195.331-1.164.641-2.329.973-3.494.21-.732.456-1.463.664-2.194.327-1.15.631-2.3.956-3.449.2-.717.436-1.433.64-2.15.336-1.18.654-2.36.989-3.539.2-.7.426-1.4.626-2.1.336-1.179.66-2.359.992-3.539.043-.149.006-.3.306-.441a1.926,1.926,0,0,1,.963-.106Z" transform="translate(12.558 33.015)" fill="#361274"/>
      <path id="Trazado_66785" data-name="Trazado 66785" d="M117.268,203.1a3.123,3.123,0,0,0-.762-.292q-4.689-.487-9.382-.931c-1.022-.095-1.166.036-1.256,1.137-.314,3.794-.6,7.59-.9,11.385q-.514,6.429-1.037,12.857t-1.017,12.862q-.514,6.429-1.033,12.857c-.216,2.741-.415,5.483-.622,8.226a5.407,5.407,0,0,1-.339,2.068.647.647,0,0,1-.658.392.592.592,0,0,1-.582-.5,7.155,7.155,0,0,1-.042-1.47c.473-5.833.973-11.663,1.439-17.5.478-5.974.919-11.951,1.391-17.925.322-4.077.677-8.151,1-12.227.486-6.115.953-12.231,1.438-18.346.106-1.335.24-2.669.383-4a1.82,1.82,0,0,1,.256-.778.67.67,0,0,1,.523-.245.634.634,0,0,1,.493.294,2.7,2.7,0,0,1,.156,1.028c-.078,1.407-.193,2.814-.3,4.22-.073.984-.178,1.967-.213,2.953-.032.88.184,1.163,1.015,1.26,1.63.19,3.264.315,4.9.471,3.6.344,7.208.682,10.812,1.038a97.65,97.65,0,0,0,9.809.681c6.15-.013,12.3.091,18.449-.276,4.638-.276,9.288-.336,13.924-.625,4.02-.251,8.03-.683,12.043-1.046,1.7-.153,3.4-.311,5.1-.505,2.85-.323,5.7-.677,8.546-1.018,3.12-.373,6.245-.718,9.359-1.132s6.22-.9,9.33-1.356a5.747,5.747,0,0,0,.8-.182c.754-.226.878-.363.874-1.181-.005-1.34-.068-2.679-.068-4.019,0-1.051.293-1.564.763-1.429.731.214.555.875.578,1.407q.5,11.3.989,22.608c.274,6.27.536,12.539.821,18.808.248,5.423.538,10.844.776,16.268.173,3.944.281,7.892.441,11.839.045,1.125.18,2.248.248,3.373a1.655,1.655,0,0,1-.217,1.214.745.745,0,0,1-.5.277.672.672,0,0,1-.5-.284,4.669,4.669,0,0,1-.381-2.058c-.185-3.308-.452-6.621-.461-9.931-.017-5.861-.456-11.7-.7-17.545-.19-4.58-.371-9.16-.567-13.74-.187-4.3-.343-8.6-.6-12.891-.169-2.82-.164-5.639-.234-8.459-.066-2.709.354-2.91-2.64-2.4-4.712.809-9.453,1.459-14.218,1.884-2.449.218-4.882.6-7.325.886-3.189.376-6.372.8-9.569,1.086-5.171.459-10.346.917-15.528,1.2-6.208.338-12.419.681-18.642.652-2.734-.013-5.469.162-8.2.106-3.071-.065-6.144-.158-9.212-.409a82.99,82.99,0,0,0-8.989-.669Z" transform="translate(11.561 30.368)" fill="#361274"/>
      <path id="Trazado_66786" data-name="Trazado 66786" d="M116.2,85.137a1.318,1.318,0,0,1,.451.192,6.48,6.48,0,0,1,.675.752,246.576,246.576,0,0,1,17.575,23.8c2.423,3.745,4.824,7.5,7.24,11.254a14.569,14.569,0,0,0,.946,1.308.289.289,0,0,0,.5-.054c.138-.231.277-.463.392-.705,1.738-3.662,3.5-7.313,5.2-10.993.99-2.145,1.87-4.342,2.82-6.507a13.283,13.283,0,0,1,.874-1.594.567.567,0,0,1,.7-.236.537.537,0,0,1,.37.64,8.886,8.886,0,0,1-.479,1.321c-2.906,7.21-6.561,14.082-9.614,21.224-3.612,8.449-7.1,16.949-10.111,25.631-.221.638-.41,1.287-.622,1.928a6.1,6.1,0,0,1-.355.946.637.637,0,0,1-.834.358.686.686,0,0,1-.426-.824,8.03,8.03,0,0,1,.35-1.369c.756-2.168,1.511-4.336,2.3-6.492,2.348-6.408,4.969-12.706,7.624-18.992a4.935,4.935,0,0,1,.314-.746,2.19,2.19,0,0,0-.24-2.614c-3.581-5.49-7.076-11.038-10.69-16.506A228.109,228.109,0,0,0,116.6,87.38a3.817,3.817,0,0,1-.995-1.5A.632.632,0,0,1,116.2,85.137Z" transform="translate(17.042 2.708)" fill="#361274"/>
      <path id="Trazado_66787" data-name="Trazado 66787" d="M145.95,155.867c-.288.02-.686-.379-.609-.667a11.934,11.934,0,0,1,.456-1.334c1.746-4.4,3.858-8.634,5.937-12.878q7.617-15.559,15.386-31.045a182.25,182.25,0,0,1,13.518-22.59,6.643,6.643,0,0,1,1.4-1.717.645.645,0,0,1,.915.021.557.557,0,0,1,.067.736c-.106.171-.225.335-.341.5-.351.5-.707.989-1.054,1.488a189.69,189.69,0,0,0-14.366,24.438c-6.127,12.341-12.283,24.669-18.141,37.142-.631,1.344-1.195,2.721-1.8,4.078-.219.493-.436.99-.7,1.458A.7.7,0,0,1,145.95,155.867Z" transform="translate(24.9 2.793)" fill="#361274"/>
      <path id="Trazado_66788" data-name="Trazado 66788" d="M144.835,166.23c.332-.448.057-.925.1-1.38a4.743,4.743,0,0,1,4.409-4.5,3.535,3.535,0,0,1,3.274,1.633,4.171,4.171,0,0,1,.828,2.045c.082,1.078.355,1.344,1.584,1.239a5.021,5.021,0,0,1,2.365.473,4.475,4.475,0,0,1,2.605,5.159,3.241,3.241,0,0,1-1.688,2.172c-.472.248-1.006.374-1.5.58s-1.143-.051-1.516.4-.056,1.042-.073,1.569A5.431,5.431,0,0,1,150,180.8a4,4,0,0,1-4.034-2.788,7.287,7.287,0,0,1-.278-.971c-.354-1.547-.351-1.547-2.063-1.557a6.9,6.9,0,0,1-.809-.025,4.983,4.983,0,0,1-4.11-6.27,4.622,4.622,0,0,1,4.349-3.067A15.274,15.274,0,0,1,144.835,166.23Zm2.144,8.557a6.054,6.054,0,0,0,.464,2.967,2.736,2.736,0,0,0,3.364,1.511,3.887,3.887,0,0,0,2.535-5.427c-.1-.247-.245-.48-.324-.734a.724.724,0,0,1,.643-.857,5.833,5.833,0,0,1,1,.1,5.361,5.361,0,0,0,2.2-.211,2.337,2.337,0,0,0,1.656-3.307,3,3,0,0,0-1.794-1.817,4.591,4.591,0,0,0-2.769-.221c-1.368.351-1.6.11-1.761-1.353a6.4,6.4,0,0,0-.095-1,6.5,6.5,0,0,0-.57-1.5,2.263,2.263,0,0,0-2.951-1.035,3.472,3.472,0,0,0-2.207,3.31c.016.332.143.659.185.992.193,1.526-.3,2-1.789,1.666a5.253,5.253,0,0,0-2.4-.115,2.7,2.7,0,0,0-2.279,2.028,3.5,3.5,0,0,0,2.048,3.981,3.282,3.282,0,0,0,3.42-.453c.891-.63,1.391-.349,1.418.675C146.985,174.249,146.979,174.518,146.979,174.788Z" transform="translate(23.095 22.577)" fill="#4a3141"/>
      <path id="Trazado_66789" data-name="Trazado 66789" d="M147.545,147.837c.855.712,1.908.911,2.63,1.654.181.186.641.135.972.133,1.621-.015,3.243-.008,4.861-.089,4.518-.228,9.047-.239,13.555-.665,1.478-.139,2.963-.209,4.445-.308a3.61,3.61,0,0,1,.606-.023c.468.048.971.073,1.134.646.114.4-.381.776-1.153.834-1.952.145-3.905.283-5.858.4-5.528.322-11.059.551-16.6.563-.946,0-1.9.009-2.834.092-4.058.36-8.1-.156-12.142-.258a5.126,5.126,0,0,1-1.181-.255.564.564,0,0,1-.455-.585.616.616,0,0,1,.661-.613c.536-.011,1.075.042,1.611.082,3.026.228,6.054.329,9.091.265.033-.546-.354-.6-.619-.714-3.777-1.632-7.562-3.248-11.342-4.876a3.278,3.278,0,0,1-.856-.5.606.606,0,0,1-.091-.547.672.672,0,0,1,.434-.341,2.547,2.547,0,0,1,1.556.321q3.08,1.293,6.154,2.6a11.952,11.952,0,0,0,3.354,1.348c1.159.091,2.21-.876,3.316-1.363,1.3-.569,2.583-1.166,3.876-1.745.431-.193.862-.387,1.307-.545a.7.7,0,0,1,.872.311c.234.379-.014.645-.311.828a10.545,10.545,0,0,1-1.078.55c-1.53.714-3.062,1.418-4.59,2.134C148.45,147.36,148.043,147.582,147.545,147.837Z" transform="translate(21.893 17.914)" fill="#4a3141"/>
      <path id="Trazado_66790" data-name="Trazado 66790" d="M100.511,91.975a11.018,11.018,0,0,1,.158-1.344c.03-.135.311-.288.483-.3a.65.65,0,0,1,.5.259,1.958,1.958,0,0,1,.214.762c.823,6.7,1.608,13.4,2.465,20.093,1.053,8.232,2.118,16.463,3.272,24.683.609,4.341,1.418,8.655,2.143,12.979a3.091,3.091,0,0,1,.086,1.4.573.573,0,0,1-.583.458.706.706,0,0,1-.523-.23,3.777,3.777,0,0,1-.407-1.133c-.852-5.33-1.762-10.652-2.507-16-1.1-7.886-2.09-15.788-3.107-23.687-.474-3.681-.9-7.369-1.353-11.053-.2-1.608-.416-3.214-.617-4.82C100.654,93.378,100.591,92.707,100.511,91.975Z" transform="translate(13.059 4.082)" fill="#361274"/>
      <path id="Trazado_66791" data-name="Trazado 66791" d="M192.356,96.676q-.567,8.084-1.129,16.169c-.343,5.054-.628,10.113-1,15.165-.24,3.233-.593,6.456-.905,9.684-.188,1.949-.4,3.9-.6,5.846-.187,1.881-.354,3.765-.552,5.646a5.531,5.531,0,0,1-.281,1.169.559.559,0,0,1-.638.382.649.649,0,0,1-.558-.515,3.8,3.8,0,0,1-.046-1c.441-4.3.924-8.6,1.336-12.9.372-3.9.68-7.805,1-11.709.181-2.222.327-4.447.479-6.671q.59-8.694,1.172-17.389.186-2.729.418-5.455a3.465,3.465,0,0,1,.253-.968.589.589,0,0,1,.623-.416.557.557,0,0,1,.511.54c.009.537-.035,1.076-.061,1.613-.013.271-.033.54-.051.809Z" transform="translate(35.811 4.972)" fill="#361274"/>
      <path id="Trazado_66793" data-name="Trazado 66793" d="M145.294,169.123a2.937,2.937,0,0,1,.576.1.562.562,0,0,1,.44.59.839.839,0,0,1-.265.5,2.049,2.049,0,0,1-1.147.344c-3.294.3-6.585.633-9.882.905-5.316.436-10.644.746-15.951,1.279-3.959.4-7.891,1.066-11.835,1.613-.4.056-.8.245-1.186.028a.765.765,0,0,1-.364-.441.683.683,0,0,1,.2-.528,2.37,2.37,0,0,1,1.324-.434c2.806-.41,5.607-.858,8.417-1.228,4.756-.626,9.545-.894,14.324-1.276,4.913-.394,9.814-.922,14.721-1.391C144.87,169.167,145.071,169.146,145.294,169.123Z" transform="translate(14.423 24.896)" fill="#4a3141"/>
      <path id="Trazado_66794" data-name="Trazado 66794" d="M135.665,149.98c-2.58-.3-5.394-.614-8.2-.968-2.607-.33-5.211-.678-7.81-1.068-3.531-.53-7.055-1.1-10.579-1.674a4.7,4.7,0,0,1-1.143-.378.526.526,0,0,1-.291-.669.638.638,0,0,1,.6-.456,3.35,3.35,0,0,1,.8.095c7.629,1.38,15.327,2.287,23.009,3.3,1.6.212,3.219.32,4.828.477a3.079,3.079,0,0,1,.794.114.73.73,0,0,1,.359.429.546.546,0,0,1-.34.65A4.5,4.5,0,0,1,135.665,149.98Z" transform="translate(14.935 18.461)" fill="#4a3141"/>
      <path id="Trazado_66795" data-name="Trazado 66795" d="M178.967,168.136c-3.564-.214-6.795.053-10.029.067a14.609,14.609,0,0,1-2.009-.118.507.507,0,0,1-.429-.582.805.805,0,0,1,.325-.468,3.128,3.128,0,0,1,1.76-.339q4.449-.03,8.9-.066c3.235-.024,6.471.01,9.705-.095,2.15-.07,4.3-.343,6.445-.509a2.907,2.907,0,0,1,.982.073.618.618,0,0,1,.329.456.731.731,0,0,1-.234.512,1.75,1.75,0,0,1-1.134.353c-2.886.238-5.766.551-8.671.539C182.818,167.95,180.729,168.079,178.967,168.136Z" transform="translate(30.49 24.075)" fill="#4a3141"/>
      <path id="Trazado_66797" data-name="Trazado 66797" d="M113.23,169.915c-2.231,0-4.463,0-6.694,0-.4,0-.834,0-.992-.488-.119-.37.292-.771.946-.808,1.35-.073,2.7-.076,4.054-.124q7.4-.265,14.8-.544a2.489,2.489,0,0,1,1.574.2.6.6,0,0,1,.03.872,1.894,1.894,0,0,1-1.148.319c-2.972.134-5.943.284-8.915.4-1.215.046-2.434.008-3.651.008Z" transform="translate(14.383 24.578)" fill="#4a3141"/>
      <path id="Trazado_66798" data-name="Trazado 66798" d="M191.26,145.065a.983.983,0,0,1,1.021.561c.161.391-.331.831-1.1.9-1.613.138-3.23.219-4.844.336a93.388,93.388,0,0,0-11.584,1.8c-.515.1-1.042.377-1.58.144a.707.707,0,0,1-.373-.43.611.611,0,0,1,.177-.525,2.526,2.526,0,0,1,.905-.408,86.789,86.789,0,0,1,14.39-2.129C189.215,145.272,190.153,145.157,191.26,145.065Z" transform="translate(32.155 18.541)" fill="#4a3141"/>
      <path id="Trazado_66799" data-name="Trazado 66799" d="M132,169.033c-1.884.1-3.766.188-5.648.291a1.4,1.4,0,0,1-.97-.161,1,1,0,0,1-.311-.473.4.4,0,0,1,.281-.477,2.783,2.783,0,0,1,.953-.267c3.836-.137,7.656-.578,11.5-.525a3.758,3.758,0,0,1,.8.095.61.61,0,0,1,.49.565.572.572,0,0,1-.446.59,2.786,2.786,0,0,1-.8.107C135.888,168.725,133.944,168.92,132,169.033Z" transform="translate(19.541 24.446)" fill="#4a3141"/>
      <path id="Trazado_66801" data-name="Trazado 66801" d="M159.468,168.484a12.826,12.826,0,0,1-1.4-.168.6.6,0,0,1-.341-.442.6.6,0,0,1,.236-.5,3.82,3.82,0,0,1,1.142-.333,51.242,51.242,0,0,1,6.838-.248,1,1,0,0,1,.563.155.7.7,0,0,1,.255.5.741.741,0,0,1-.3.488,1.078,1.078,0,0,1-.574.139A46.164,46.164,0,0,0,159.468,168.484Z" transform="translate(28.173 24.274)" fill="#4a3141"/>
    </g>
  </g>
</svg>
