<svg xmlns="http://www.w3.org/2000/svg" width="284.172" height="253.658" viewBox="0 0 284.172 253.658">
  <g id="Grupo_1068171" data-name="Grupo 1068171" transform="translate(-1070.025 -27776)">
    <g id="BACKGROUND" transform="translate(1070.024 27776)">
      <g id="Grupo_32241" data-name="Grupo 32241" transform="translate(0 0)">
        <path id="Trazado_61861" data-name="Trazado 61861" d="M108.025,114.117c14.045-.485,27.625,4.436,41.06,8.559s27.814,7.511,41.412,3.965c18.283-4.767,31.038-20.8,42.493-35.822S257.4,59.855,275.77,55.432c17.153-4.13,35.66,3.274,48.145,15.74s19.69,29.319,24.186,46.38c11.137,42.259,5.762,90.979-23.175,123.729-23.151,26.2-58.1,39.072-92.617,44.635-24.9,4.013-50.789,4.683-75-2.376a122.539,122.539,0,0,1-70.794-55.35C68.425,197.129,51.653,116.064,108.025,114.117Z" transform="translate(-69.318 -35.246)" fill="#ffd54f"/>
        <path id="Trazado_61862" data-name="Trazado 61862" d="M191.113,100.143c16.907.313,35.113-5.91,47.759-14.737,7.011-4.893,13.278-11.128,17.019-18.815s4.732-16.945,1.47-24.848c-4.706-11.4-17.087-17.853-29.205-20.158a71.758,71.758,0,0,0-53.79,11.492c-10.86,7.573-22.245,18.351-25.063,31.837-3.037,14.53,9.475,25.678,21.791,31.124A51.846,51.846,0,0,0,191.113,100.143Z" transform="translate(-104.197 -20.373)" fill="#ffd54f"/>
      </g>
    </g>
    <g id="Grupo_39503" data-name="Grupo 39503" transform="translate(1049.664 27608.26)" style="isolation: isolate">
      <g id="Grupo_39493" data-name="Grupo 39493" transform="translate(67.385 231.693)">
        <g id="Grupo_39492" data-name="Grupo 39492">
          <g id="Grupo_39491" data-name="Grupo 39491">
            <path id="Trazado_71821" data-name="Trazado 71821" d="M268.334,219.93V348.048a3.262,3.262,0,0,1-3.254,3.254H179.234a3.26,3.26,0,0,1-3.254-3.254V307.364a3.265,3.265,0,0,0-3.254-3.254h-9.761a3.262,3.262,0,0,0-3.254,3.254v40.684a3.263,3.263,0,0,1-3.258,3.254H70.639a3.262,3.262,0,0,1-3.254-3.254V219.93a3.239,3.239,0,0,1,3.254-3.254H265.08A3.239,3.239,0,0,1,268.334,219.93Z" transform="translate(-67.385 -216.676)" fill="#895cd8"/>
          </g>
        </g>
      </g>
      <g id="Grupo_39496" data-name="Grupo 39496" transform="translate(121.274 231.693)">
        <g id="Grupo_39495" data-name="Grupo 39495">
          <g id="Grupo_39494" data-name="Grupo 39494">
            <path id="Trazado_71822" data-name="Trazado 71822" d="M173.084,237.664c0,36.54-20.993,66.192-46.9,66.192-9.6,0-18.515-4.071-25.971-11.1C87.592,280.907,79.26,260.672,79.26,237.664A89.665,89.665,0,0,1,81.7,216.676h88.973A91.4,91.4,0,0,1,173.084,237.664Z" transform="translate(-79.26 -216.676)" fill="#361274"/>
          </g>
        </g>
      </g>
      <g id="Grupo_39499" data-name="Grupo 39499" transform="translate(121.274 231.693)">
        <g id="Grupo_39498" data-name="Grupo 39498">
          <g id="Grupo_39497" data-name="Grupo 39497">
            <path id="Trazado_71823" data-name="Trazado 71823" d="M110.178,238.763c0,22.486-3.934,42.313-9.961,53.993C87.592,280.907,79.26,260.672,79.26,237.664A89.665,89.665,0,0,1,81.7,216.676h27.142A182.253,182.253,0,0,1,110.178,238.763Z" transform="translate(-79.26 -216.676)" fill="#d2bef6"/>
          </g>
        </g>
      </g>
      <g id="Grupo_39502" data-name="Grupo 39502" transform="translate(67.386 212.432)">
        <g id="Grupo_39501" data-name="Grupo 39501">
          <g id="Grupo_39500" data-name="Grupo 39500">
            <path id="Rectángulo_8409" data-name="Rectángulo 8409" d="M.717,0H200.233a.717.717,0,0,1,.717.717V21.8a.717.717,0,0,1-.717.717H.718A.718.718,0,0,1,0,21.8V.717A.717.717,0,0,1,.717,0Z" fill="#361274"/>
          </g>
        </g>
      </g>
    </g>
  </g>
</svg>
