<svg xmlns="http://www.w3.org/2000/svg" width="233" height="191.635" viewBox="0 0 233 191.635">
  <g id="Grupo_35589" data-name="Grupo 35589" transform="translate(-845.998 -1331.08)" style="isolation: isolate">
    <path id="Trazado_67939" data-name="Trazado 67939" d="M1251.672,1479.836s5.014,14.791-7.3,16.714-43.638,7.035-43.638,7.035l-13.452,32.376s6.315,59.406,7.165,61.11,8.326,37.208,8.326,37.208l107.434,3.643,27.99-87.8s8.51-38.51-48.814-52.629l-16.945.488Z" transform="translate(-302.049 -131.655)" fill="#ffb685"/>
    <path id="Trazado_67940" data-name="Trazado 67940" d="M1723.487,1366.081c.675,1.611,13.215,18.444,18.742,18.66s18.949-18.706,18.949-18.706Z" transform="translate(-776.609 -30.937)" fill="#ed784f"/>
    <path id="Trazado_67941" data-name="Trazado 67941" d="M1484.936,1395.906c-.714,1.789.134,20.025-2.494,24.079-2.39,3.688-33.344,5.632-32.094,7.784s32.15,2.994,36.5,5.008,10.316,11.049,15.173,10.864,9.518-8.59,15.362-9.95,28.865-.954,30.055-2.376-24.915-6.759-28.725-9.777c-3.229-2.555-1.554-24.209-3.051-24.593s-9.809,13.677-15.1,14C1496.609,1411.191,1485.295,1395.006,1484.936,1395.906Z" transform="translate(-534.839 -57.342)" fill="#ffb685"/>
    <path id="Trazado_67942" data-name="Trazado 67942" d="M2366.908,1853.443h32.03c-5.3-39.83-14.144-107.705-15.591-120.344-2.031-17.734-16.88-30.359-30.637-28.061-3.016.505-8.711,1.407-15.314,2.474l11.693,62.858C2353.018,1788.524,2360.8,1825.772,2366.908,1853.443Z" transform="translate(-1319.94 -330.728)" fill="#ff966c"/>
    <path id="Trazado_67943" data-name="Trazado 67943" d="M877.331,1816.995c6.351-28,14.99-68.6,19.15-87.808l11.694-62.859c-6.6-1.066-12.3-1.967-15.315-2.473-13.758-2.3-28.609,10.326-30.639,28.06-1.51,13.184-11.033,86.159-16.222,125.079Z" transform="translate(0 -294.279)" fill="#ff966c"/>
    <path id="Trazado_67944" data-name="Trazado 67944" d="M1184.883,1672.033c7.934-1.686,18.031,2.934,34.464,4.319s21.023,1.686,28.443,6.93,12.944,4.778,22.011-.715,11.559-9.044,27.962-9.275,20.866,2.556,33.707,4.858c9.408,1.688,13.884,24.214,3.717,31.082s-17.769,14.025-12.989,27.347-2.033,39.807-27.6,40.014-40.905-25.959-25.545-44.9c-14.395,7.823-17.307,30.081-6.834,41.333-4.83,2.429-18.933.99-21.725-1.5,10.507-9.133,10.334-32.89-2.346-41.121,8.156,8.062,7.271,37.723-16.077,40.724-24.186,3.109-43.984-10.7-40.654-27.7s11.486-29.426,1.214-34.195S1168.106,1675.6,1184.883,1672.033Z" transform="translate(-289.94 -301.433)" fill="#ffb685"/>
    <path id="Trazado_67945" data-name="Trazado 67945" d="M1717.574,1331.08a60.106,60.106,0,0,1-6.375,6.313c-5.392,4.574-11.784,8.182-17.893,8.182a23.734,23.734,0,0,1-11.814-3.759c-1.012-.6-2.007-1.253-2.982-1.95l-.278-.2a57.677,57.677,0,0,1-9.312-8.586Z" transform="translate(-728.316 0)" fill="#ff966c"/>
    <path id="Trazado_67946" data-name="Trazado 67946" d="M1733.948,1331.08a53.238,53.238,0,0,1-4.046,4.021c-5.23,4.669-11.756,8.606-17.752,8.606s-12.528-3.913-17.783-8.564a53.417,53.417,0,0,1-4.118-4.064Z" transform="translate(-747.193 0)" fill="#ffb685"/>
    <path id="Trazado_67947" data-name="Trazado 67947" d="M2482.588,1734.637c-3.4,14.334,4.857,44.947,6.375,70.407.995,16.69,4.21,36.055,7.4,51.112h22.209c-1.824-12.277-3.921-28.132-5.374-42.07-2.429-23.325-10.447-58.8-10.689-75.8s-12.891-31.283-24.006-30.41C2466.646,1708.805,2485.988,1720.3,2482.588,1734.637Z" transform="translate(-1441.382 -333.441)" fill="#ffb685"/>
    <path id="Trazado_67948" data-name="Trazado 67948" d="M1395.275,2659.606a184.934,184.934,0,0,0,9.247-28.807c-8.588,1.616-28.075-5.4-33.029-12.522-7.216.64-32.766-2.628-32.766-2.628-8.046,9.622-32.857,14.688-48.62,6.661,1.134,7.767,5.33,22.938,8.049,37.3Z" transform="translate(-393.052 -1136.891)" fill="#ffb685"/>
    <path id="Trazado_67949" data-name="Trazado 67949" d="M882.861,1819.708c3.5-15.563,7.334-37.348,8.437-55.847,1.516-25.46,9.778-56.073,6.375-70.406s15.942-25.832,4.084-26.765c-11.116-.874-23.764,13.4-24.007,30.409s-8.261,52.48-10.69,75.8c-1.647,15.808-4.124,34.082-6.09,46.806Z" transform="translate(-13.251 -296.992)" fill="#ffb685"/>
    <g id="Grupo_35586" data-name="Grupo 35586" transform="translate(881.998 1364.451)">
      <path id="Trazado_67950" data-name="Trazado 67950" d="M2018.365,2150.89c-8.379,18.64-32.475,23.359-60.75,3.337,21.709-13.947,33.4-47.574,36.883-57.428C2018.721,2108.438,2027.347,2130.908,2018.365,2150.89Z" transform="translate(-1865.82 -2042.141)" fill="#170b08"/>
      <path id="Trazado_67951" data-name="Trazado 67951" d="M1424.111,1959.436c.844,17.788,23.891,60.6,40.446,71,25.676-14.641,43.408-54.233,47.9-73.933,5.285,16.383,6.161,27.556,6.161,27.556-1.987,19.815-15.9,41.454-36.391,46.948-11.182,1.357-36.6-2.008-36.6-2.008-21.058-9.347-29.619-48.952-28.738-54.841C1420.2,1962.536,1424.111,1959.436,1424.111,1959.436Z" transform="translate(-1387.207 -1917.975)" fill="#170b08" opacity="0.6"/>
      <path id="Trazado_67952" data-name="Trazado 67952" d="M1162.252,2132.1c8.459,19.143,40.465,24.046,60.526,4.635-18.105-11.648-30.771-44.533-32.269-57.47C1164.44,2090.589,1153.161,2111.521,1162.252,2132.1Z" transform="translate(-1159.144 -2026.618)" fill="#170b08"/>
      <path id="Trazado_67953" data-name="Trazado 67953" d="M1664.836,2557.482c4.789,2.7,30.385,3.628,40.281,2.744,3.846,1.9-.552,3.187-.552,3.187-12.108,2.939-36.3-1.465-40.4-2.179S1664.836,2557.482,1664.836,2557.482Z" transform="translate(-1604.633 -2449.861)" fill="#170b08"/>
      <path id="Trazado_67954" data-name="Trazado 67954" d="M2099.855,1692.98s-13.174-47.417-20.573-57.416c-3.1-2.26-3.886-2.936-3.886-2.936,5.88-1.631,9.736,1.721,28.449,59.6C2105.587,1701.422,2099.855,1692.98,2099.855,1692.98Z" transform="translate(-1970.06 -1631.074)" fill="#170b08"/>
      <path id="Trazado_67955" data-name="Trazado 67955" d="M1401.233,1679.075s16.953-45.1,25.16-54.574c3.273-2.04,4.115-2.66,4.115-2.66-5.723-2.024-9.734-.226-33.184,56.21C1394.819,1687.106,1401.233,1679.075,1401.233,1679.075Z" transform="translate(-1369.429 -1621.355)" fill="#170b08"/>
      <path id="Trazado_67956" data-name="Trazado 67956" d="M1266.944,2118.494c3.653,16.323,17.433,40.929,24.924,48.573-23.371,14.556-47.286-4.022-44.912-22.746C1249.276,2126.01,1263.828,2118.137,1266.944,2118.494Z" transform="translate(-1236.716 -2061.331)" fill="#38201b"/>
      <path id="Trazado_67957" data-name="Trazado 67957" d="M2078.834,2142.91c-4.669,16.092-18.725,38.216-26.684,45.432,22.419,15.825,44.43-1.947,44.057-18.676C2095.794,2151.228,2081.967,2142.725,2078.834,2142.91Z" transform="translate(-1949.486 -2082.947)" fill="#38201b"/>
      <path id="Trazado_67958" data-name="Trazado 67958" d="M1452.822,1668.06c.37-2.115-23.886,46.435-21.817,47.214S1452.344,1670.791,1452.822,1668.06Z" transform="translate(-1399.64 -1662.631)" fill="#38201b"/>
      <path id="Trazado_67959" data-name="Trazado 67959" d="M2129.875,1665.818c-.221-2.133,20.6,47.8,18.482,48.453S2130.162,1668.572,2129.875,1665.818Z" transform="translate(-2018.274 -1660.647)" fill="#38201b"/>
      <path id="Trazado_67960" data-name="Trazado 67960" d="M1748.192,2582.6c-15.1-.593-13.733,1.814,1.472,2.653S1760.72,2583.088,1748.192,2582.6Z" transform="translate(-1671.043 -2472.007)" fill="#38201b"/>
    </g>
    <g id="Grupo_35587" data-name="Grupo 35587" transform="translate(949.856 1423.448)">
      <path id="Trazado_67961" data-name="Trazado 67961" d="M1750.863,2134.537c.614,1.4,1.348,2.741,1.988,4.13a44.936,44.936,0,0,1,1.7,4.3,40.439,40.439,0,0,1,1.947,8.907,40.866,40.866,0,0,1-2.177,17.949,38.064,38.064,0,0,1-4.823,9.165c-.4.563.522,1.087.921.539a38.746,38.746,0,0,0,6.915-17.3,40.965,40.965,0,0,0-1.563-18.511,33.6,33.6,0,0,0-2.031-4.859,18.642,18.642,0,0,0-2.866-4.327s-.011,0-.008.007Z" transform="translate(-1749.396 -2134.528)" fill="#d2734e"/>
    </g>
    <g id="Grupo_35588" data-name="Grupo 35588" transform="translate(963.186 1422.693)">
      <path id="Trazado_67962" data-name="Trazado 67962" d="M1872.23,2127.967a23.666,23.666,0,0,0-4.495,8.03,39.027,39.027,0,0,0-2.122,9.052,40.921,40.921,0,0,0,2.117,18.5,37.837,37.837,0,0,0,4.955,9.414c.4.548,1.322.025.921-.539a39.185,39.185,0,0,1-6.754-16.787,40.744,40.744,0,0,1,1.322-18.07,44.571,44.571,0,0,1,1.823-4.9c.7-1.587,1.544-3.1,2.24-4.691,0-.005,0-.011-.008-.007Z" transform="translate(-1865.343 -2127.965)" fill="#d2734e"/>
    </g>
  </g>
</svg>
