<svg xmlns="http://www.w3.org/2000/svg" width="221.316" height="187.451" viewBox="0 0 221.316 187.451">
  <g id="Grupo_1068189" data-name="Grupo 1068189" transform="translate(-961.342 -28902.523)">
    <g id="BACKGROUND" transform="translate(967 28902.523)">
      <g id="Grupo_32241" data-name="Grupo 32241" transform="translate(0 0)">
        <path id="Trazado_61861" data-name="Trazado 61861" d="M97.922,98.5c10.379-.358,20.415,3.278,30.343,6.325s20.554,5.551,30.6,2.93c13.511-3.523,22.937-15.368,31.4-26.472s18.039-22.882,31.614-26.15c12.676-3.052,26.352,2.419,35.578,11.632s14.55,21.666,17.873,34.274c8.23,31.229,4.258,67.233-17.126,91.435-17.108,19.363-42.934,28.874-68.443,32.985-18.4,2.965-37.533,3.46-55.427-1.756a90.556,90.556,0,0,1-52.316-40.9C68.658,159.846,56.264,99.939,97.922,98.5Z" transform="translate(-69.318 -40.214)" fill="#ffd54f"/>
        <path id="Trazado_61862" data-name="Trazado 61862" d="M180.08,79.323c12.494.231,25.948-4.368,35.293-10.891,5.181-3.616,9.812-8.224,12.577-13.9s3.5-12.522,1.086-18.362c-3.478-8.426-12.627-13.193-21.582-14.9a53.028,53.028,0,0,0-39.75,8.492c-8.025,5.6-16.438,13.561-18.521,23.527-2.244,10.738,7,18.976,16.1,23A38.313,38.313,0,0,0,180.08,79.323Z" transform="translate(-115.85 -20.373)" fill="#ffd54f"/>
      </g>
    </g>
    <g id="Grupo_40884" data-name="Grupo 40884" transform="translate(941.472 28771.566)" style="isolation: isolate">
      <path id="Trazado_73651" data-name="Trazado 73651" d="M234.064,172.227a6.564,6.564,0,0,1-6.565,6.565H26.433a6.563,6.563,0,0,1-6.563-6.565h0a6.565,6.565,0,0,1,6.563-6.567H227.5a6.566,6.566,0,0,1,6.565,6.567Z" transform="translate(0 0)" fill="#ffe695" opacity="0.56"/>
      <g id="Grupo_40871" data-name="Grupo 40871" transform="translate(24.462 171.451)">
        <g id="Grupo_40870" data-name="Grupo 40870">
          <g id="Grupo_40868" data-name="Grupo 40868" transform="translate(0 9.458)">
            <path id="Trazado_73652" data-name="Trazado 73652" d="M57.224,182.263c-3.293.7-5.552-.406-7.992-2.464a19.524,19.524,0,0,1-3.478-6.657c-3.127,1.353-8.4,2.635-7.9,6.259.392,2.8,2.352,5.522,2.7,8.555.641,5.628-.774,12.95-7.451,13.895.651,8.157,6.21,15.238,6.728,23.977.292,4.946-.89,9.79-1.878,14.593-.725,3.535-3.029,9.088.192,11.517,4.289,3.231,17.506,1.817,29.2.049C67.342,251.987,56.56,182.406,57.224,182.263Zm-12.66-4.174a1.314,1.314,0,1,1,1.3-1.394A1.349,1.349,0,0,1,44.564,178.089Z" transform="translate(-10.682 -173.116)" fill="#d2bef6"/>
            <path id="Trazado_73653" data-name="Trazado 73653" d="M60.459,184.059c-3.366.135-5.4-1.343-7.461-3.778a19.511,19.511,0,0,1-2.3-7.15c-3.311.8-8.728,1.178-8.843,4.832-.084,2.829,1.388,5.842,1.215,8.888-.32,5.654-2.956,12.635-9.694,12.435-.735,8.149,3.546,16.071,2.58,24.771-.549,4.926-2.533,9.5-4.317,14.064-1.313,3.36-4.525,8.441-1.76,11.382,3.68,3.915,16.949,4.748,28.768,4.985C58.645,254.487,59.78,184.083,60.459,184.059ZM48.687,177.8a1.314,1.314,0,1,1,1.515-1.155A1.345,1.345,0,0,1,48.687,177.8Z" transform="translate(-15.177 -173.13)" fill="#b48144"/>
            <path id="Trazado_73654" data-name="Trazado 73654" d="M59.992,183.1c-3.337.455-5.507-.821-7.787-3.05a19.535,19.535,0,0,1-2.976-6.9c-3.219,1.117-8.575,2.007-8.337,5.658.182,2.823,1.935,5.681,2.056,8.73.218,5.66-1.735,12.856-8.463,13.3.047,8.181,5.064,15.654,4.936,24.405-.184,12.309-6.842,24.148-8.551,36.381-.751,5.405-2.954,14.918,1.086,18.91s23.391,5.036,35.679,3.582C67.634,284.121,59.022,183.228,59.992,183.1Zm-12.315-5.1a1.313,1.313,0,1,1,1.394-1.294A1.342,1.342,0,0,1,47.677,177.992Z" transform="translate(-14.338 -173.111)" fill="#361274"/>
            <g id="Grupo_40867" data-name="Grupo 40867" transform="translate(0 0.257)">
              <path id="Trazado_73655" data-name="Trazado 73655" d="M64.668,185.62c-3.344-.4-5.124-2.176-6.769-4.909a19.49,19.49,0,0,1-1.143-7.426c-3.4.274-8.8-.214-9.494,3.376-.533,2.78.445,5.989-.206,8.967-1.213,5.538-4.915,12.007-11.539,10.749-2.013,7.93.963,16.426-1.366,24.865-1.321,4.777-4,8.977-6.487,13.207-1.827,3.109-5.8,7.622-3.535,10.962,3.017,4.442,15.987,7.369,27.622,9.467C51.751,254.878,63.995,185.541,64.668,185.62Zm-10.635-8.036a1.315,1.315,0,1,1,1.678-.9A1.345,1.345,0,0,1,54.033,177.584Z" transform="translate(-20.735 -173.226)" fill="#ba68c8"/>
              <path id="Trazado_73656" data-name="Trazado 73656" d="M66.569,184.777c-3.366-.08-5.309-1.678-7.208-4.246a19.443,19.443,0,0,1-1.847-7.275c-3.356.594-8.786.625-9.129,4.27-.263,2.813,1.015,5.911.651,8.941-.676,5.626-3.744,12.423-10.455,11.8-1.249,8.085,2.525,16.259,1.015,24.877-2.125,12.129-10.572,22.766-14.191,34.579-1.6,5.215-5.273,14.258-1.917,18.843s22.3,8.665,34.665,9.171C58.153,285.74,65.591,184.754,66.569,184.777Zm-11.353-6.983a1.315,1.315,0,1,1,1.582-1.057A1.345,1.345,0,0,1,55.216,177.794Z" transform="translate(-22.119 -173.256)" fill="#895cd8"/>
              <path id="Trazado_73657" data-name="Trazado 73657" d="M60.189,184.085c-3.362.169-5.42-1.282-7.5-3.693a19.527,19.527,0,0,1-2.384-7.128c-3.3.841-8.714,1.276-8.784,4.932-.057,2.829,1.447,5.826,1.311,8.873-.257,5.662-2.813,12.668-9.553,12.544-.645,8.157,3.725,16.034,2.854,24.742-.492,4.93-2.425,9.523-4.158,14.109-1.276,3.374-4.43,8.5-1.631,11.4,3.721,3.868,17,4.558,28.821,4.662C59.162,254.529,59.511,184.119,60.189,184.085Zm-11.841-6.126a1.313,1.313,0,1,1,1.5-1.17A1.344,1.344,0,0,1,48.347,177.959Z" transform="translate(-14.729 -173.248)" fill="#d2bef6"/>
            </g>
          </g>
          <g id="Grupo_40869" data-name="Grupo 40869" transform="translate(31.224)">
            <path id="Trazado_73658" data-name="Trazado 73658" d="M40.84,181.823c.086-.282.014-.392.014-.392-.7.029-1.292-.508-1.747-1.592-1.272-3.029-.884-8.969.331-10.123.235-.225.441-.335.539-.292.308.137,1.006,1.176.808,7.824a8.264,8.264,0,0,0-.008.847l.912-.1c-.006-.088,0-.343.014-.721.169-5.667-.225-8.183-1.351-8.688-.329-.147-.863-.188-1.547.461-1.57,1.492-1.888,7.951-.545,11.143.655,1.566,1.539,2.051,2.266,2.141A.765.765,0,0,0,40.84,181.823Z" transform="translate(-37.416 -168.497)" fill="#965e2f"/>
          </g>
        </g>
        <path id="Trazado_73659" data-name="Trazado 73659" d="M40.488,170.075a1.333,1.333,0,1,1-1.333-1.337A1.336,1.336,0,0,1,40.488,170.075Z" transform="translate(-5.769 -168.246)" fill="#d6a570"/>
      </g>
      <g id="Grupo_40875" data-name="Grupo 40875" transform="translate(86.217 169.92)">
        <g id="Grupo_40874" data-name="Grupo 40874">
          <g id="Grupo_40872" data-name="Grupo 40872" transform="translate(0 8.314)">
            <path id="Trazado_73660" data-name="Trazado 73660" d="M89.257,213.984c-3.836-9.774-5.415-17.945-2.062-28.806-5.958-1.633-11.633-5.744-16.873-9.306A75.9,75.9,0,0,0,58.46,198.9a105.4,105.4,0,0,0-4.683,28.423c-.245,8.92-1.072,18.132-1.343,26.918-.265,8.608.747,17.14-.061,25.7,6.844.7,12.858,4.574,19.725,4.6-.612,0,1-36.247,1.662-40.9,1.533-10.776,4.8-23.86,16.008-28.378C89.593,214.832,89.422,214.4,89.257,213.984Z" transform="translate(-52.373 -167.601)" fill="#895cd8"/>
            <path id="Trazado_73661" data-name="Trazado 73661" d="M90.328,205.694c-5.648-8.847-8.771-16.569-7.569-27.869-6.163-.455-12.523-3.393-18.351-5.885A75.875,75.875,0,0,0,57.2,196.825a105.3,105.3,0,0,0,.878,28.788c1.474,8.808,2.439,18.006,3.862,26.679,1.4,8.5,4.034,16.677,4.889,25.224,6.848-.623,13.5,2.017,20.239.725-.6.114-5.993-35.767-6.242-40.46-.572-10.868.114-24.344,10.245-30.929Q90.693,206.27,90.328,205.694Z" transform="translate(-47.971 -171.695)" fill="#361274"/>
            <path id="Trazado_73662" data-name="Trazado 73662" d="M89,208.352c-4.585-9.445-6.793-17.475-4.291-28.561-6.067-1.17-12.043-4.821-17.543-7.971A75.8,75.8,0,0,0,57.122,195.7a105.307,105.307,0,0,0-2.464,28.7c.445,8.918.335,18.163.745,26.941.4,8.606,2.076,17.034,1.933,25.628,6.877.171,13.174,3.566,20.021,3.06-.61.045-1.813-36.216-1.513-40.907.69-10.862,2.933-24.166,13.76-29.537Q89.292,208.962,89,208.352Z" transform="translate(-50.135 -171.82)" fill="#d2bef6"/>
          </g>
          <g id="Grupo_40873" data-name="Grupo 40873" transform="translate(14.641)">
            <path id="Trazado_73663" data-name="Trazado 73663" d="M62.429,181.6c-.651,0-1.523-.325-2.143-1.79-1.3-3.07-.8-9.959.837-11.513.682-.651,1.217-.608,1.543-.465,1.129.5,1.521,3.023,1.355,8.69-.012.378-.02.635-.014.721l-.914.1a8.218,8.218,0,0,1,.008-.845c.2-6.65-.5-7.687-.808-7.826-.1-.043-.3.071-.539.294-1.276,1.208-1.853,7.581-.621,10.486.355.839.812,1.257,1.339,1.229l.041.917A.564.564,0,0,1,62.429,181.6Z" transform="translate(-59.546 -167.747)" fill="#965e2f"/>
          </g>
        </g>
        <path id="Trazado_73664" data-name="Trazado 73664" d="M62.663,169.3a1.332,1.332,0,1,1-1.335-1.331A1.334,1.334,0,0,1,62.663,169.3Z" transform="translate(-44.432 -167.513)" fill="#d6a570"/>
      </g>
      <g id="Grupo_40880" data-name="Grupo 40880" transform="translate(184.524 171.451)">
        <g id="Grupo_40879" data-name="Grupo 40879">
          <g id="Grupo_40877" data-name="Grupo 40877" transform="translate(0 9.458)">
            <path id="Trazado_73665" data-name="Trazado 73665" d="M100.533,251.987c11.69,1.768,24.91,3.182,29.2-.049,3.223-2.429.917-7.981.192-11.517-.986-4.8-2.17-9.647-1.878-14.593.518-8.739,6.077-15.82,6.73-23.977-6.677-.945-8.092-8.267-7.453-13.895.345-3.033,2.3-5.752,2.7-8.555.508-3.623-4.766-4.905-7.9-6.259a19.452,19.452,0,0,1-3.478,6.657c-2.439,2.058-4.7,3.164-7.99,2.464C111.315,182.406,100.533,251.987,100.533,251.987Zm21.482-75.292a1.382,1.382,0,1,1,1.3,1.394A1.346,1.346,0,0,1,122.015,176.695Z" transform="translate(-100.533 -173.116)" fill="#895cd8"/>
            <path id="Trazado_73666" data-name="Trazado 73666" d="M107.921,254.487c11.819-.237,25.089-1.07,28.768-4.985,2.766-2.941-.445-8.022-1.758-11.382-1.784-4.568-3.77-9.139-4.317-14.064-.968-8.7,3.313-16.622,2.58-24.771-6.74.2-9.376-6.781-9.7-12.435-.171-3.046,1.3-6.058,1.213-8.888-.112-3.654-5.53-4.029-8.841-4.832a19.511,19.511,0,0,1-2.3,7.15c-2.056,2.435-4.095,3.913-7.459,3.778C106.786,184.083,107.921,254.487,107.921,254.487Zm8.443-77.839a1.382,1.382,0,1,1,1.517,1.155A1.348,1.348,0,0,1,116.363,176.647Z" transform="translate(-94.728 -173.13)" fill="#b48144"/>
            <path id="Trazado_73667" data-name="Trazado 73667" d="M102.181,284.121c12.288,1.453,31.642.416,35.679-3.582s1.839-13.5,1.086-18.91c-1.706-12.233-8.369-24.073-8.551-36.381-.129-8.751,4.889-16.224,4.936-24.405-6.726-.449-8.681-7.644-8.461-13.3.12-3.05,1.87-5.907,2.056-8.73.237-3.652-5.119-4.542-8.339-5.658a19.5,19.5,0,0,1-2.976,6.9c-2.278,2.229-4.45,3.5-7.785,3.05C110.8,183.228,102.181,284.121,102.181,284.121ZM120.744,176.7a1.382,1.382,0,1,1,1.4,1.294A1.345,1.345,0,0,1,120.744,176.7Z" transform="translate(-98.817 -173.111)" fill="#361274"/>
            <g id="Grupo_40876" data-name="Grupo 40876" transform="translate(11.202 0.257)">
              <path id="Trazado_73668" data-name="Trazado 73668" d="M119.687,254.878c11.633-2.1,24.6-5.026,27.62-9.467,2.266-3.34-1.706-7.853-3.535-10.962-2.484-4.229-5.166-8.43-6.487-13.207-2.327-8.439.647-16.934-1.366-24.865-6.622,1.257-10.327-5.211-11.537-10.749-.651-2.978.325-6.187-.208-8.967-.688-3.591-6.1-3.1-9.492-3.376a19.48,19.48,0,0,1-1.145,7.426c-1.645,2.733-3.425,4.507-6.769,4.909C107.444,185.541,119.687,254.878,119.687,254.878Zm-3.96-78.2a1.38,1.38,0,1,1,1.678.9A1.347,1.347,0,0,1,115.727,176.682Z" transform="translate(-105.243 -173.226)" fill="#ba68c8"/>
              <path id="Trazado_73669" data-name="Trazado 73669" d="M114.932,285.74c12.362-.506,31.309-4.587,34.665-9.171s-.321-13.627-1.917-18.843c-3.619-11.813-12.066-22.45-14.191-34.579-1.511-8.618,2.262-16.791,1.017-24.877-6.714.621-9.782-6.177-10.457-11.8-.363-3.029.912-6.128.649-8.941-.343-3.646-5.773-3.676-9.126-4.27a19.435,19.435,0,0,1-1.849,7.275c-1.9,2.568-3.84,4.166-7.206,4.246C107.492,184.754,114.932,285.74,114.932,285.74Zm1.353-109a1.382,1.382,0,1,1,1.582,1.057A1.35,1.35,0,0,1,116.285,176.736Z" transform="translate(-105.506 -173.256)" fill="#d2bef6"/>
              <path id="Trazado_73670" data-name="Trazado 73670" d="M107.046,254.529c11.821-.1,25.1-.794,28.823-4.662,2.8-2.907-.357-8.028-1.631-11.4-1.735-4.587-3.666-9.18-4.16-14.109-.87-8.708,3.5-16.585,2.856-24.742-6.74.125-9.3-6.881-9.553-12.544-.139-3.048,1.366-6.044,1.31-8.873-.071-3.656-5.483-4.091-8.786-4.932a19.574,19.574,0,0,1-2.382,7.128c-2.084,2.411-4.14,3.862-7.5,3.693C106.7,184.119,107.046,254.529,107.046,254.529Zm9.314-77.739a1.381,1.381,0,1,1,1.5,1.17A1.347,1.347,0,0,1,116.36,176.789Z" transform="translate(-106.021 -173.248)" fill="#d2bef6"/>
            </g>
          </g>
          <g id="Grupo_40878" data-name="Grupo 40878" transform="translate(21.113)">
            <path id="Trazado_73671" data-name="Trazado 73671" d="M111.776,181.823c-.086-.282-.012-.392-.012-.392.7.029,1.29-.508,1.747-1.592,1.27-3.029.882-8.969-.333-10.123-.235-.225-.439-.335-.539-.292-.306.137-1.006,1.176-.808,7.824a7.611,7.611,0,0,1,.008.847l-.912-.1c.006-.088,0-.343-.014-.721-.167-5.667.225-8.183,1.353-8.688.329-.147.863-.188,1.545.461,1.572,1.492,1.888,7.951.547,11.143-.655,1.566-1.541,2.051-2.266,2.141A.774.774,0,0,1,111.776,181.823Z" transform="translate(-110.876 -168.497)" fill="#965e2f"/>
          </g>
        </g>
        <path id="Trazado_73672" data-name="Trazado 73672" d="M111.283,170.075a1.332,1.332,0,1,0,1.333-1.337A1.335,1.335,0,0,0,111.283,170.075Z" transform="translate(-89.339 -168.246)" fill="#d6a570"/>
      </g>
      <g id="Grupo_40883" data-name="Grupo 40883" transform="translate(130.374 169.92)">
        <path id="Trazado_73673" data-name="Trazado 73673" d="M74,280.778c12.166,2.26,31.548,2.5,35.838-1.227s2.721-13.354,2.323-18.8c-.9-12.321-6.767-24.573-6.14-36.865.447-8.743,5.946-15.875,6.528-24.03-6.685-.89-8.161-8.2-7.569-13.834.32-3.033,2.256-5.771,2.623-8.579.478-3.623-4.809-4.864-7.949-6.187a19.467,19.467,0,0,1-3.421,6.685c-2.423,2.078-4.67,3.2-7.971,2.531C89.227,180.668,74,280.778,74,280.778Zm25.579-105.97a1.381,1.381,0,1,1,1.308,1.386A1.349,1.349,0,0,1,99.584,174.808Z" transform="translate(-74.005 -164.091)" fill="#895cd8"/>
        <g id="Grupo_40881" data-name="Grupo 40881" transform="translate(2.147 8.314)">
          <path id="Trazado_73674" data-name="Trazado 73674" d="M78.363,213.986c3.838-9.776,5.418-17.947,2.064-28.806,5.958-1.635,11.633-5.742,16.871-9.308a75.859,75.859,0,0,1,11.864,23.03,105.421,105.421,0,0,1,4.681,28.425c.249,8.922,1.074,18.133,1.345,26.918.265,8.608-.747,17.14.059,25.7-6.842.7-12.856,4.574-19.723,4.6.612,0-1-36.245-1.664-40.9-1.531-10.776-4.8-23.864-16.008-28.38C78.029,214.834,78.2,214.409,78.363,213.986Z" transform="translate(-72.146 -167.601)" fill="#ba68c8"/>
          <path id="Trazado_73675" data-name="Trazado 73675" d="M75.806,205.694c5.644-8.847,8.769-16.569,7.569-27.869,6.161-.455,12.519-3.393,18.347-5.885a75.878,75.878,0,0,1,7.208,24.885,105.324,105.324,0,0,1-.878,28.792c-1.474,8.8-2.439,18-3.864,26.675-1.394,8.5-4.031,16.679-4.885,25.226-6.853-.623-13.5,2.017-20.241.725.6.116,5.993-35.767,6.24-40.46.572-10.868-.114-24.344-10.245-30.931Q75.44,206.27,75.806,205.694Z" transform="translate(-75.057 -171.695)" fill="#361274"/>
          <path id="Trazado_73676" data-name="Trazado 73676" d="M77.445,208.352c4.583-9.445,6.791-17.475,4.291-28.561,6.069-1.17,12.043-4.821,17.545-7.971A75.926,75.926,0,0,1,109.32,195.7a105.476,105.476,0,0,1,2.464,28.7c-.445,8.918-.337,18.165-.747,26.943-.4,8.6-2.072,17.036-1.931,25.63-6.877.169-13.174,3.564-20.021,3.058.61.045,1.811-36.218,1.513-40.909-.692-10.862-2.935-24.166-13.76-29.537Q77.149,208.962,77.445,208.352Z" transform="translate(-73.204 -171.82)" fill="#d2bef6"/>
        </g>
        <path id="Trazado_73677" data-name="Trazado 73677" d="M84.57,254.225c11.819-.3,25.083-1.219,28.739-5.15,2.75-2.958-.492-8.018-1.823-11.374-1.813-4.556-3.823-9.116-4.4-14.038-1.017-8.692,3.219-16.638,2.435-24.783-6.736.237-9.41-6.724-9.763-12.382-.192-3.046,1.264-6.062,1.159-8.894-.133-3.654-5.552-4-8.867-4.781a19.48,19.48,0,0,1-2.264,7.165c-2.039,2.445-4.072,3.936-7.436,3.823C83.027,183.837,84.57,254.225,84.57,254.225Zm7.994-77.888a1.381,1.381,0,1,1,1.521,1.151A1.349,1.349,0,0,1,92.563,176.337Z" transform="translate(-65.317 -162.46)" fill="#ba68c8"/>
        <g id="Grupo_40882" data-name="Grupo 40882" transform="translate(26.099)">
          <path id="Trazado_73678" data-name="Trazado 73678" d="M89.727,168.3c-.684-.651-1.221-.608-1.545-.465-1.131.508-1.523,3.023-1.353,8.69.01.378.018.639.012.725l.288.033c.178-.106.355-.208.535-.306.033-.02.063-.049.094-.065,0-.11-.006-.239-.012-.41-.2-6.646.5-7.687.81-7.824.1-.045.3.069.537.292,1.276,1.208,1.856,7.581.623,10.486-.355.841-.814,1.257-1.343,1.229l-.037.921h.084c.651,0,1.523-.325,2.143-1.79C91.862,176.743,91.364,169.854,89.727,168.3Z" transform="translate(-86.79 -167.747)" fill="#965e2f"/>
        </g>
        <path id="Trazado_73679" data-name="Trazado 73679" d="M87.242,169.3a1.333,1.333,0,1,0,1.333-1.331A1.332,1.332,0,0,0,87.242,169.3Z" transform="translate(-60.222 -167.513)" fill="#d6a570"/>
      </g>
    </g>
  </g>
</svg>
