<svg xmlns="http://www.w3.org/2000/svg" xmlns:xlink="http://www.w3.org/1999/xlink" width="279.168" height="239.361" viewBox="0 0 279.168 239.361">
  <defs>
    <clipPath id="clip-path">
      <path id="Trazado_62969" data-name="Trazado 62969" d="M554.447,392.45a25.753,25.753,0,1,1-51.507,0,24.846,24.846,0,0,1,.192-3.123,25.752,25.752,0,0,1,51.315,3.123Z" transform="translate(-502.94 -366.697)" fill="#e2e6ff"/>
    </clipPath>
  </defs>
  <g id="Grupo_1068172" data-name="Grupo 1068172" transform="translate(-239.832 -727.938)">
    <g id="BACKGROUND" transform="translate(239.832 730.625)">
      <g id="Grupo_32241" data-name="Grupo 32241" transform="translate(0 0)">
        <path id="Trazado_61861" data-name="Trazado 61861" d="M105.433,110.11c13.1-.453,25.775,4.139,38.31,7.985s25.951,7.008,38.638,3.7c17.059-4.448,28.96-19.4,39.647-33.423s22.776-28.89,39.916-33.017c16-3.853,33.272,3.054,44.92,14.686s18.371,27.355,22.567,43.274c10.391,39.429,5.376,84.887-21.623,115.444-21.6,24.448-54.207,36.456-86.415,41.646-23.233,3.744-47.388,4.369-69.98-2.217A114.333,114.333,0,0,1,85.36,216.544C68.485,187.564,52.836,111.927,105.433,110.11Z" transform="translate(-69.318 -36.52)" fill="#ffd54f"/>
        <path id="Trazado_61862" data-name="Trazado 61862" d="M188.283,94.8c15.775.292,32.761-5.515,44.561-13.75,6.541-4.566,12.389-10.383,15.88-17.555s4.415-15.81,1.371-23.184C245.7,29.673,234.151,23.654,222.845,21.5a66.952,66.952,0,0,0-50.188,10.722c-10.132,7.066-20.755,17.122-23.385,29.705-2.834,13.557,8.841,23.958,20.332,29.039A48.373,48.373,0,0,0,188.283,94.8Z" transform="translate(-107.187 -20.373)" fill="#ffd54f"/>
      </g>
    </g>
    <g id="Grupo_1067879" data-name="Grupo 1067879" transform="translate(243.178 727.938)" style="isolation: isolate">
      <g id="Grupo_33875" data-name="Grupo 33875" transform="translate(0 38.419)">
        <path id="Trazado_62866" data-name="Trazado 62866" d="M384.567,254.586a70.63,70.63,0,0,1-11.628,38.936H130.453A91,91,0,0,1,208.9,144a70.941,70.941,0,0,1,131.936,45.063A70.95,70.95,0,0,1,384.567,254.586Z" transform="translate(-108.745 -108.037)" fill="#dedeff"/>
        <line id="Línea_38" data-name="Línea 38" x2="256.045" transform="translate(14.765 185.484)" fill="none" stroke="#130f40" stroke-linecap="round" stroke-linejoin="round" stroke-width="0.75"/>
      </g>
      <g id="Grupo_33877" data-name="Grupo 33877" transform="translate(155.287 34.011)">
        <rect id="Rectángulo_7950" data-name="Rectángulo 7950" width="74.272" height="89.601" rx="11.653" transform="translate(0 0)" fill="#cacaff"/>
        <g id="Grupo_33876" data-name="Grupo 33876" transform="translate(10.979 16.844)">
          <path id="Trazado_62867" data-name="Trazado 62867" d="M455.9,132.052v55.906H442.819c1.505-9.366,3.124-45.341,3.124-45.341L431.9,147.785l-2.158-6.739A117.416,117.416,0,0,1,447.82,133.5a42.866,42.866,0,0,1,4.479-1.091A20.92,20.92,0,0,1,455.9,132.052Z" transform="translate(-429.742 -132.049)" fill="#895cd8"/>
          <path id="Trazado_62868" data-name="Trazado 62868" d="M480.242,132.046c9.1,0,26.157,8.994,26.157,8.994l-2.16,6.746L490.2,142.614s1.62,35.976,3.125,45.345H480.242" transform="translate(-454.085 -132.046)" fill="#673ab7"/>
          <path id="Trazado_62869" data-name="Trazado 62869" d="M465.824,142.047l1.877-2.093-2.4-.072-.66-6.044a42.869,42.869,0,0,1,4.479-1.091l3.6,18.6Z" transform="translate(-446.565 -132.384)" fill="#b3b3ff"/>
          <path id="Trazado_62870" data-name="Trazado 62870" d="M487.137,142.047l-1.877-2.093,2.4-.072.66-6.044a42.859,42.859,0,0,0-4.479-1.091l-3.6,18.6Z" transform="translate(-454.085 -132.384)" fill="#b3b3ff"/>
          <path id="Trazado_62871" data-name="Trazado 62871" d="M476.034,168.655V201.08a4.522,4.522,0,0,1-4.522,4.522h0" transform="translate(-449.877 -149.693)" fill="none" stroke="#130f40" stroke-linecap="round" stroke-linejoin="round" stroke-width="0.75"/>
        </g>
      </g>
      <g id="Grupo_33883" data-name="Grupo 33883" transform="translate(188.074 56.866)">
        <g id="Grupo_33879" data-name="Grupo 33879" transform="translate(26.702)">
          <rect id="Rectángulo_7951" data-name="Rectángulo 7951" width="12.949" height="97.084" transform="translate(12.624 0) rotate(7.471)" fill="#b3b3ff"/>
          <g id="Grupo_33878" data-name="Grupo 33878" transform="translate(9.634 11.078)">
            <line id="Línea_39" data-name="Línea 39" x2="4.515" y2="0.592" transform="translate(10.005)" fill="none" stroke="#130f40" stroke-linecap="round" stroke-linejoin="round" stroke-width="0.75"/>
            <line id="Línea_40" data-name="Línea 40" x2="4.515" y2="0.592" transform="translate(8.893 8.476)" fill="none" stroke="#130f40" stroke-linecap="round" stroke-linejoin="round" stroke-width="0.75"/>
            <line id="Línea_41" data-name="Línea 41" x2="4.515" y2="0.592" transform="translate(7.781 16.952)" fill="none" stroke="#130f40" stroke-linecap="round" stroke-linejoin="round" stroke-width="0.75"/>
            <line id="Línea_42" data-name="Línea 42" x2="4.515" y2="0.592" transform="translate(6.67 25.429)" fill="none" stroke="#130f40" stroke-linecap="round" stroke-linejoin="round" stroke-width="0.75"/>
            <line id="Línea_43" data-name="Línea 43" x2="4.515" y2="0.592" transform="translate(5.558 33.905)" fill="none" stroke="#130f40" stroke-linecap="round" stroke-linejoin="round" stroke-width="0.75"/>
            <line id="Línea_44" data-name="Línea 44" x2="4.515" y2="0.592" transform="translate(4.447 42.381)" fill="none" stroke="#130f40" stroke-linecap="round" stroke-linejoin="round" stroke-width="0.75"/>
            <line id="Línea_45" data-name="Línea 45" x2="4.515" y2="0.592" transform="translate(3.335 50.857)" fill="none" stroke="#130f40" stroke-linecap="round" stroke-linejoin="round" stroke-width="0.75"/>
            <line id="Línea_46" data-name="Línea 46" x2="4.515" y2="0.592" transform="translate(2.223 59.334)" fill="none" stroke="#130f40" stroke-linecap="round" stroke-linejoin="round" stroke-width="0.75"/>
            <line id="Línea_47" data-name="Línea 47" x2="4.515" y2="0.592" transform="translate(1.112 67.81)" fill="none" stroke="#130f40" stroke-linecap="round" stroke-linejoin="round" stroke-width="0.75"/>
            <line id="Línea_48" data-name="Línea 48" x2="4.515" y2="0.592" transform="translate(0 76.286)" fill="none" stroke="#130f40" stroke-linecap="round" stroke-linejoin="round" stroke-width="0.75"/>
          </g>
        </g>
        <g id="Grupo_33880" data-name="Grupo 33880" transform="translate(15.343 39.438)">
          <rect id="Rectángulo_7952" data-name="Rectángulo 7952" width="8.633" height="95.068" transform="matrix(0.997, 0.074, -0.074, 0.997, 7.006, 6.357)" fill="#f4cc4d"/>
          <path id="Trazado_62872" data-name="Trazado 62872" d="M520.406,250.181l-12.134-.9,3.305-25.473a4.465,4.465,0,0,1,4.645-4.01l.655.048a4.464,4.464,0,0,1,4,4.649Z" transform="translate(-504.747 -219.79)" fill="#7b1fa2"/>
        </g>
        <g id="Grupo_33881" data-name="Grupo 33881" transform="translate(11.06 17.056)">
          <rect id="Rectángulo_7953" data-name="Rectángulo 7953" width="8.086" height="89.038" transform="translate(0.002 17.067)" fill="#171659"/>
          <path id="Trazado_62873" data-name="Trazado 62873" d="M501.289,193.644H493.2l2.5-10.53,1.548-6.535,1.548,6.535Z" transform="translate(-493.199 -176.579)" fill="#fff"/>
          <path id="Trazado_62874" data-name="Trazado 62874" d="M501.116,183.114h-3.1l1.548-6.535Z" transform="translate(-495.523 -176.579)" fill="#eb4d4b"/>
        </g>
        <g id="Grupo_33882" data-name="Grupo 33882" transform="translate(0.683 40.031)">
          <rect id="Rectángulo_7954" data-name="Rectángulo 7954" width="5.087" height="88.014" transform="translate(0.002 11) rotate(-8.738)" fill="#fff"/>
          <path id="Trazado_62875" data-name="Trazado 62875" d="M478.2,231.16l-5.031.773.546-6.787.338-4.212,1.587,3.916Z" transform="translate(-473.165 -220.934)" fill="#fff"/>
          <path id="Trazado_62876" data-name="Trazado 62876" d="M476.145,224.85l-1.926.3.338-4.212Z" transform="translate(-473.673 -220.934)" fill="#171659"/>
        </g>
        <path id="Trazado_62877" data-name="Trazado 62877" d="M507.363,391.381h-25.28a5.369,5.369,0,0,1-5.38-5l-4.857-75.332H517.6l-4.857,75.332A5.368,5.368,0,0,1,507.363,391.381Z" transform="translate(-471.846 -224.343)" fill="#ba68c8"/>
      </g>
      <g id="Grupo_33884" data-name="Grupo 33884" transform="translate(10.894 0)">
        <path id="Trazado_62878" data-name="Trazado 62878" d="M238.231,81.938c-5.387-1.554-16.368,16.057-26.792,36.776s-18.129,55.3-18.129,55.3h6.8C220.05,99.549,243.617,83.492,238.231,81.938Z" transform="translate(-160.402 -56.991)" fill="#ffe695"/>
        <path id="Trazado_62879" data-name="Trazado 62879" d="M160.876,154.085a547.724,547.724,0,0,1,3.108-66.4c3.885-33.944,7.9-48.965,13.661-48.188s-6.8,17.093-8.416,115.844Z" transform="translate(-144.737 -36.567)" fill="#ffe695"/>
        <path id="Trazado_62880" data-name="Trazado 62880" d="M176.591,152.242s4.09-38.377,14.377-73,21.571-47.511,26.007-45.1S199.927,56.855,185,152.466Z" transform="translate(-152.343 -33.864)" fill="#ffe695"/>
        <path id="Trazado_62881" data-name="Trazado 62881" d="M143.585,189.775a303.878,303.878,0,0,0-6.475-45.646c-5.439-24.46-9.841-35.078-5.7-36.114S147.47,167.4,147.47,189.633Z" transform="translate(-129.777 -69.601)" fill="#ffe695"/>
        <path id="Rectángulo_7955" data-name="Rectángulo 7955" d="M0,0H40.989a0,0,0,0,1,0,0V90.862A17.992,17.992,0,0,1,23,108.855h-5A17.993,17.993,0,0,1,0,90.862V0A0,0,0,0,1,0,0Z" transform="translate(10.048 115.049)" fill="#fff"/>
      </g>
      <g id="Grupo_33885" data-name="Grupo 33885" transform="translate(20.05 25.465)">
        <path id="Trazado_62882" data-name="Trazado 62882" d="M390.886,311.448H367.578l-8.811-80.213L349.2,145.227c3.507,1.357,8.671,3.31,12.41,4.5a126.368,126.368,0,0,0,12.442,2.958c1.322,7.4,5.313,31.613,4.768,51.208a43.023,43.023,0,0,0,1.778,13.612c.312,1.037.637,2.2.96,3.489a106.34,106.34,0,0,1,2.978,26.391C384.412,270.472,392.57,291.9,390.886,311.448Z" transform="translate(-244.7 -113.009)" fill="#6a6ae2"/>
        <path id="Trazado_62883" data-name="Trazado 62883" d="M310.067,133.754v69.128H229.435v-69.3l23.656-12.084,2.554-13.467h25.168l3.7,17.611Z" transform="translate(-186.972 -95.078)" fill="#ba68c8"/>
        <path id="Trazado_62884" data-name="Trazado 62884" d="M330.037,307.978H231.105V146.967l18.647-8.94,10.463,11.167c3.03,5.812,6.791,12.716,11.25,20.346.813,1.388,1.647,2.807,2.507,4.242,3.3,5.522,6.936,11.364,10.9,17.393a401.387,401.387,0,0,0,36.553,47.876q1.95,2.175,3.952,4.32l-3.646,10.344a24.362,24.362,0,0,0-.122,15.836A215.494,215.494,0,0,1,330.037,307.978Z" transform="translate(-187.777 -109.539)" fill="#673ab7"/>
        <path id="Trazado_62885" data-name="Trazado 62885" d="M377.932,219.568a21.569,21.569,0,0,1-7.112,10.246H346.865l-5.18-87.537s1.585.637,3.89,1.528c3.507,1.357,8.671,3.31,12.41,4.5a126.368,126.368,0,0,0,12.442,2.958l.081.016a5.73,5.73,0,0,1,4.635,5.351,67.346,67.346,0,0,0,2.349,14.85C379.73,179.358,383.682,203.972,377.932,219.568Z" transform="translate(-241.08 -111.587)" fill="#673ab7"/>
        <path id="Trazado_62886" data-name="Trazado 62886" d="M205.634,291.784a18.373,18.373,0,0,1-.264,12.6l-.193.484-.523,1.31-50.336-1.31-5.143-5.615c2.538-4.921,10.665-6.21,10.665-6.21h0a3.112,3.112,0,0,1-.264-2.931c1.575-3.659.011-2.9-.684-35.544-.777-36.517,26.846-100.657,26.846-100.657a4.918,4.918,0,0,1-.083-.906,5.058,5.058,0,0,1,2.88-4.563l3.077-1.476,18.647-8.94,10.463,11.167c3.03,5.812,6.791,12.716,11.25,20.346-7.6,8.246-23.806,28.612-28.965,57.091-5.577,30.774-.929,49.1.96,55.514a18.857,18.857,0,0,1,.722,4.372A19.887,19.887,0,0,0,205.634,291.784Z" transform="translate(-148.284 -109.539)" fill="#673ab7"/>
        <path id="Trazado_62887" data-name="Trazado 62887" d="M222.768,169.193s13.057.95,18.356,15.454" transform="translate(-183.758 -124.562)" fill="none" stroke="#130f40" stroke-linecap="round" stroke-linejoin="round" stroke-width="0.75"/>
        <path id="Trazado_62888" data-name="Trazado 62888" d="M305.2,105.294H280.035a3.6,3.6,0,0,1,3.543-2.937h18.081a3.606,3.606,0,0,1,3.529,2.865Z" transform="translate(-211.363 -92.345)" fill="#171659"/>
        <path id="Trazado_62889" data-name="Trazado 62889" d="M289.748,185.667a123.471,123.471,0,0,1-23.718-.212,93.356,93.356,0,0,1-16.725-3.315,11.407,11.407,0,0,1-8.065-11.52l1.905-36.832a4.847,4.847,0,0,1,2.807-4.15l5.6-2.589a4.844,4.844,0,0,1,6.418,2.33c3.235,6.868,10.33,21.245,20.88,38.895C282.15,173.8,285.786,179.638,289.748,185.667Z" transform="translate(-192.656 -104.03)" fill="#cacaff"/>
        <path id="Trazado_62890" data-name="Trazado 62890" d="M341.114,272.326c-22.039-1.456-48.673-14.483-63.363-22.6a11.242,11.242,0,0,1-3.558-16.564l19.47-26.1c3.3,5.522,6.936,11.364,10.9,17.393q3.364,5.127,7.039,10.416c3.905,5.6,8.07,11.308,12.478,17.005C329.4,258.745,335.085,265.619,341.114,272.326Z" transform="translate(-207.468 -142.813)" fill="#cacaff"/>
        <line id="Línea_49" data-name="Línea 49" y1="17.181" x2="12.82" transform="translate(73.375 64.243)" fill="none" stroke="#130f40" stroke-linecap="round" stroke-linejoin="round" stroke-width="0.5"/>
        <path id="Trazado_62891" data-name="Trazado 62891" d="M153.154,454.559H201.91a1.907,1.907,0,0,0,1.6-2.961,6.759,6.759,0,0,0-4.078-2.477c-5.568-1.424-8.482-6.734-16.251-6.734s-10.1,5.439-16.834,5.439-5.374-4.985-12.172-4.985a6.658,6.658,0,0,0-5.835,3.126A5.62,5.62,0,0,0,153.154,454.559Z" transform="translate(-147.455 -256.25)" fill="#171659"/>
        <path id="Trazado_62892" data-name="Trazado 62892" d="M258.573,241.536s-.126,10.026-3.615,18.741a104.758,104.758,0,0,0-4.325,16.249c-5.578,30.767-.932,49.093.958,55.511a18.994,18.994,0,0,1,.725,4.377,19.943,19.943,0,0,0,.943,5.268,18.365,18.365,0,0,1-.264,12.6l-.192.482" transform="translate(-195.91 -159.433)" fill="none" stroke="#130f40" stroke-linecap="round" stroke-linejoin="round" stroke-width="0.75"/>
        <path id="Trazado_62893" data-name="Trazado 62893" d="M264.063,257.973a101.173,101.173,0,0,1,6.237-12.99" transform="translate(-203.664 -161.095)" fill="none" stroke="#130f40" stroke-linecap="round" stroke-linejoin="round" stroke-width="0.75"/>
        <path id="Trazado_62894" data-name="Trazado 62894" d="M169.765,435.912c5.85-.865,24.5-2.89,30.324,0" transform="translate(-158.209 -252.406)" fill="none" stroke="#130f40" stroke-linecap="round" stroke-linejoin="round" stroke-width="0.75"/>
        <path id="Trazado_62895" data-name="Trazado 62895" d="M193.676,430s11.659-4.911,17.939-5.235" transform="translate(-169.735 -247.754)" fill="none" stroke="#130f40" stroke-linecap="round" stroke-linejoin="round" stroke-width="0.75"/>
        <path id="Trazado_62896" data-name="Trazado 62896" d="M180.185,340.152s2.784,16.834,13.6,21.819" transform="translate(-163.232 -206.969)" fill="none" stroke="#130f40" stroke-linecap="round" stroke-linejoin="round" stroke-width="0.75"/>
        <path id="Trazado_62897" data-name="Trazado 62897" d="M380.435,331.86s9.08.774,10.713,3.452-3.4,11.569-3.4,11.569" transform="translate(-259.759 -202.972)" fill="none" stroke="#130f40" stroke-linecap="round" stroke-linejoin="round" stroke-width="0.75"/>
        <path id="Trazado_62898" data-name="Trazado 62898" d="M333.777,132.56c1.765,7.752,9.923,58.943,7.463,93.626,0,0,15.492-9.827,25.343-25.609a9.673,9.673,0,0,0-1.534-12.112,51.191,51.191,0,0,0-10.859-8.009l6.584-4.343a8.906,8.906,0,0,0,2.469-12.432L346.925,139.61a15.159,15.159,0,0,0-9.673-6.378Z" transform="translate(-237.268 -106.903)" fill="#cacaff"/>
        <path id="Trazado_62899" data-name="Trazado 62899" d="M348.495,260.746c3.905,5.6,8.07,11.308,12.478,17.005" transform="translate(-244.363 -168.693)" fill="none" stroke="#130f40" stroke-linecap="round" stroke-linejoin="round" stroke-width="0.75"/>
        <path id="Trazado_62900" data-name="Trazado 62900" d="M397.175,159.617c1.322,7.4,5.313,31.613,4.768,51.208a43.022,43.022,0,0,0,1.778,13.612c.312,1.037.637,2.2.96,3.489" transform="translate(-267.828 -119.946)" fill="none" stroke="#130f40" stroke-linecap="round" stroke-linejoin="round" stroke-width="0.75"/>
        <path id="Trazado_62901" data-name="Trazado 62901" d="M413.085,403.613a215.5,215.5,0,0,0-8.43-38.426,24.362,24.362,0,0,1,.122-15.836l3.646-10.344-2.38-2.579" transform="translate(-270.826 -205.174)" fill="none" stroke="#130f40" stroke-linecap="round" stroke-linejoin="round" stroke-width="0.75"/>
        <path id="Trazado_62902" data-name="Trazado 62902" d="M304.548,86.178A3.151,3.151,0,1,0,299.8,88.89v4.668h3.195V88.89A3.146,3.146,0,0,0,304.548,86.178Z" transform="translate(-220.141 -83.027)" fill="#171659"/>
      </g>
      <g id="Grupo_33886" data-name="Grupo 33886" transform="translate(145.061 102.949)">
        <path id="Trazado_62903" data-name="Trazado 62903" d="M394.9,335.478s-4.791-.842-5.7.647-.129,4.6.809,4.694a5.341,5.341,0,0,0,2.428-.81,3.506,3.506,0,0,0,4.208-1.976Z" transform="translate(-388.803 -282.086)" fill="#ff8e77"/>
        <path id="Trazado_62904" data-name="Trazado 62904" d="M468.449,399.1h-8.158a181.635,181.635,0,0,1-9.888-33.29,137.674,137.674,0,0,1-2.445-19.672V342.9l9.349-1.6S459.255,375.4,468.449,399.1Z" transform="translate(-417.318 -285.009)" fill="#ffd54f"/>
        <path id="Trazado_62905" data-name="Trazado 62905" d="M435.846,345.47s-3.189,13.683-2.738,55.639h8.609s.259-33.021,3.885-52.315V345.47Z" transform="translate(-410.138 -287.016)" fill="#ffd54f"/>
        <path id="Trazado_62906" data-name="Trazado 62906" d="M442.605,239.255a8.091,8.091,0,0,1-.427-6.637,5.814,5.814,0,0,0,.5,3.418,5.507,5.507,0,0,1,2.425-2.7s-1.961,4.012-1.592,6.476Z" transform="translate(-414.268 -232.618)" fill="#171659"/>
        <path id="Trazado_62907" data-name="Trazado 62907" d="M444.455,242.244s-.032-4.144,3.173-4.047,4.208,7.834-1.813,5.439Z" transform="translate(-415.629 -235.307)" fill="#171659"/>
        <path id="Trazado_62908" data-name="Trazado 62908" d="M444.246,247.724A1.689,1.689,0,1,1,441.7,245.5c.614-.7,1.425-.482,2.127.132S444.859,247.021,444.246,247.724Z" transform="translate(-414.101 -238.618)" fill="#eb4d4b"/>
        <path id="Trazado_62909" data-name="Trazado 62909" d="M437.584,264.05l-5.47,2.491-2.269-4.952c-2.481,2.03-4.423.984-5.869-1.238l-1.01.461a.417.417,0,0,1-.57-.508l.251-.787a2.96,2.96,0,0,0-.058-1.967,29.338,29.338,0,0,1-1.063-3.4v-.005c-.031-.124-.057-.243-.088-.363,0-.01-.005-.016-.005-.026a7.43,7.43,0,0,1-.13-.829v0a6.479,6.479,0,0,1-.036-.715,7.317,7.317,0,1,1,13.426,4.03,2.457,2.457,0,0,0-.388,1.75,2.483,2.483,0,0,0,.306.881Z" transform="translate(-404.452 -238.531)" fill="#ff8e77"/>
        <path id="Trazado_62910" data-name="Trazado 62910" d="M426.376,268.129c.084.27.05.521-.075.559s-.295-.148-.379-.418-.05-.521.075-.559S426.292,267.859,426.376,268.129Z" transform="translate(-406.673 -249.532)" fill="#171659"/>
        <path id="Trazado_62911" data-name="Trazado 62911" d="M434.694,256.234a2.457,2.457,0,0,0-.388,1.75c-.7.487-1.481.7-2.03-.129a3.249,3.249,0,0,0-.792-.823,6.905,6.905,0,0,0-3.45-1.14,2.174,2.174,0,0,1-.7-.151c-1.74-.657-1.139-3.283-1.139-3.283-2.1,1.321-1.326-1.067-1.326-1.067l-.782.626a.6.6,0,0,1-.974-.569,9.5,9.5,0,0,1,.233-1.093,3.451,3.451,0,0,0-2.036,2.564,6.479,6.479,0,0,1-.036-.715,7.317,7.317,0,1,1,13.426,4.03Z" transform="translate(-404.452 -238.531)" fill="#171659"/>
        <path id="Trazado_62912" data-name="Trazado 62912" d="M435.434,261.852c-1.711-.327-1.687,2.315-1.687,2.315l1.208,1.787C438.391,266.608,437.146,262.179,435.434,261.852Z" transform="translate(-410.468 -246.696)" fill="#ff8e77"/>
        <path id="Trazado_62913" data-name="Trazado 62913" d="M438.215,267.849c-.17.748-.8,1.263-2.135,1.01" transform="translate(-411.592 -249.6)" fill="none" stroke="#eb4d4b" stroke-linecap="round" stroke-linejoin="round" stroke-width="0.5"/>
        <path id="Trazado_62914" data-name="Trazado 62914" d="M435.443,265.681s-.406-2.151.65-2.316.986,1.158.986,1.158" transform="translate(-411.248 -247.432)" fill="none" stroke="#eb4d4b" stroke-linecap="round" stroke-linejoin="round" stroke-width="0.5"/>
        <path id="Trazado_62915" data-name="Trazado 62915" d="M435.454,265.064a1.764,1.764,0,0,1,.81,1.723" transform="translate(-411.29 -248.258)" fill="none" stroke="#eb4d4b" stroke-linecap="round" stroke-linejoin="round" stroke-width="0.5"/>
        <path id="Trazado_62916" data-name="Trazado 62916" d="M431.64,272.512a2.249,2.249,0,0,1-.809,1.554" transform="translate(-409.062 -251.848)" fill="none" stroke="#eb4d4b" stroke-linecap="round" stroke-linejoin="round" stroke-width="0.5"/>
        <path id="Trazado_62917" data-name="Trazado 62917" d="M437.043,280.27l-.866-1.334a1.946,1.946,0,0,1,.469-2.62c1.409-1.056,3.992-2.453,6.069-2.484a1.371,1.371,0,0,1,1.26.82l1.033,2.3Z" transform="translate(-411.487 -252.484)" fill="#ba68c8"/>
        <path id="Trazado_62918" data-name="Trazado 62918" d="M448,309.9l.321,3.424-17.046,2.207.2-3.175h0a2.259,2.259,0,0,1-1.4-2.362c.231-1.942.619-5.208.956-8.064.223-1.875-.4-2.165-1.16-2.678-1.026-.695-2.3-1.792-2.072-7.744l-1.45-2.626c.331-.611.632-1.171.9-1.663a11.093,11.093,0,0,1,3.336-3.817l3.885-2.771a8.712,8.712,0,0,1,6.04-1.57l.487.058a6.721,6.721,0,0,1,5.423,4.035,62.56,62.56,0,0,0,.477,15.928,93.351,93.351,0,0,0,1.8,9.219,1.436,1.436,0,0,1-.691,1.6Z" transform="translate(-406.901 -254.977)" fill="#ba68c8"/>
        <path id="Trazado_62919" data-name="Trazado 62919" d="M434.018,299.076h-1.989l-3.693-10.81-7.821,3.693a49.748,49.748,0,0,1-3.7,7.288,33.369,33.369,0,0,1-14.7,13.1l-2.849-4.315,1.771-1.424a2.639,2.639,0,0,1,.6-2.394c3.776-4.231,9.313-11.048,11.654-15.342.331-.611.632-1.171.9-1.663a11.094,11.094,0,0,1,3.336-3.817l3.885-2.771a8.712,8.712,0,0,1,6.04-1.57l.487.058a6.721,6.721,0,0,1,5.423,4.035c.031.062.057.129.083.192l4.123,10.541A3.806,3.806,0,0,1,434.018,299.076Z" transform="translate(-393.847 -254.977)" fill="#ba68c8"/>
        <path id="Trazado_62920" data-name="Trazado 62920" d="M436.846,304.017a49.752,49.752,0,0,1-3.7,7.288" transform="translate(-410.179 -267.035)" fill="none" stroke="#130f40" stroke-linecap="round" stroke-linejoin="round" stroke-width="0.75"/>
        <path id="Trazado_62921" data-name="Trazado 62921" d="M465.317,305.953c-.642-4.335-.743-12.684-.743-12.684" transform="translate(-425.327 -261.854)" fill="none" stroke="#130f40" stroke-linecap="round" stroke-linejoin="round" stroke-width="0.75"/>
        <line id="Línea_50" data-name="Línea 50" y1="2.158" x2="13.151" transform="translate(26.096 55.216)" fill="none" stroke="#130f40" stroke-linecap="round" stroke-linejoin="round" stroke-width="0.75"/>
        <path id="Trazado_62922" data-name="Trazado 62922" d="M455.055,351.887c-1.046,5.573-1.813,12.291-2.377,19.025" transform="translate(-419.593 -290.109)" fill="none" stroke="#130f40" stroke-linecap="round" stroke-linejoin="round" stroke-width="0.75"/>
        <path id="Trazado_62923" data-name="Trazado 62923" d="M433.747,459.75h-17.4l4.708-3.341,4.962-3.522h6.9l.259,2.15Z" transform="translate(-402.081 -338.794)" fill="#171659"/>
        <path id="Trazado_62924" data-name="Trazado 62924" d="M437.564,455.037c-1.953-.871-5.806-.3-8.65,1.285-1.751.974-2.838.637-3.476.088l4.962-3.522h6.9Z" transform="translate(-406.462 -338.794)" fill="#ff8e77"/>
        <path id="Trazado_62925" data-name="Trazado 62925" d="M474.071,461.571h-19.1l4.708-3.341c.637.549,1.725.886,3.476-.088,2.844-1.585,7.34-1.86,9.292-.99Z" transform="translate(-420.697 -340.616)" fill="#171659"/>
        <path id="Trazado_62926" data-name="Trazado 62926" d="M476.826,455.331c-1.953-.87-6.449-.6-9.292.99-1.751.974-2.838.637-3.476.088l4.962-3.522h6.9Z" transform="translate(-425.078 -338.794)" fill="#ff8e77"/>
        <path id="Trazado_62927" data-name="Trazado 62927" d="M476.826,455.331c-1.953-.87-6.449-.6-9.292.99-1.751.974-2.838.637-3.476.088l4.962-3.522h6.9Z" transform="translate(-425.078 -338.794)" fill="#ff8e77"/>
      </g>
      <g id="Grupo_33888" data-name="Grupo 33888" transform="translate(79.261 145.893)">
        <path id="Trazado_62928" data-name="Trazado 62928" d="M291.344,354.36c-14.129,0-21.653,3.159-23.339,14.159a122.305,122.305,0,0,1-2.77,13.161,118.248,118.248,0,0,0-3.415,18.972,10.555,10.555,0,0,0,10.48,11.605h45.308a13.005,13.005,0,0,0,12.4-16.99A31.462,31.462,0,0,0,322,382.248a21.365,21.365,0,0,1-5.639-9.179C314.169,365.873,308.057,354.36,291.344,354.36Z" transform="translate(-261.769 -334.246)" fill="#ffd54f"/>
        <path id="Trazado_62929" data-name="Trazado 62929" d="M351.428,457.638H333.6l.8-1.8,3.279-7.334,5.988,1.015-1.155,2.507,6.055,3.812Z" transform="translate(-296.396 -379.627)" fill="#6a6ae2"/>
        <path id="Trazado_62930" data-name="Trazado 62930" d="M316.651,400.926s10.351,0,17.948,2.2l-8.617,18.647,8.272,2.849,9.247-19.952a6.505,6.505,0,0,0-3.817-8.913c-3.3-1.1-8.146-3.13-15.1-3.358l-10.316,1.792Z" transform="translate(-287.075 -352.582)" fill="#361274"/>
        <path id="Trazado_62931" data-name="Trazado 62931" d="M337.49,369.006l-2.077.238-.559-2.471c-.15-3.817-.668-7.531-.668-7.531L334.952,349a5.878,5.878,0,0,1,1.984,2.994l3.558,12.53A3.542,3.542,0,0,1,337.49,369.006Z" transform="translate(-296.676 -331.66)" fill="#fff"/>
        <path id="Trazado_62932" data-name="Trazado 62932" d="M318.787,364.291c.083,2.108.96,3.14.67,4.7l-18.042,3.521-.093-4.175-.466-21.656a11.187,11.187,0,0,1,3.8-2.093l2.331-.746a14.713,14.713,0,0,0,4.48,5.9l3.015-5.454,3.17,1.456a5.762,5.762,0,0,1,1.238.766l-.767,10.246S318.637,360.474,318.787,364.291Z" transform="translate(-280.61 -329.178)" fill="#fff"/>
        <path id="Trazado_62933" data-name="Trazado 62933" d="M334.538,359.656l-.353,4.724s.518,3.714.668,7.531" transform="translate(-296.676 -336.799)" fill="none" stroke="#130f40" stroke-linecap="round" stroke-linejoin="round" stroke-width="0.75"/>
        <path id="Trazado_62934" data-name="Trazado 62934" d="M306.777,381.391l.425-10.063a1.1,1.1,0,0,1,1.1-1.051h16.353a1.1,1.1,0,0,1,1.018,1.51L321.6,381.849a1.1,1.1,0,0,1-1.018.686h-12.7A1.1,1.1,0,0,1,306.777,381.391Z" transform="translate(-283.464 -341.918)" fill="#7b1fa2"/>
        <path id="Trazado_62935" data-name="Trazado 62935" d="M302.008,366.875l-5.729,1.611-1.891.534a3.14,3.14,0,0,1-3.968-3.413l1.435-11.52a11.293,11.293,0,0,1,7.754-9.349l.3-.094,1.549-.5c1.948,4.563-3.3,8.583-3.3,8.583l-.585,10.52,3.564-.679Z" transform="translate(-275.568 -329.323)" fill="#fff"/>
        <path id="Trazado_62936" data-name="Trazado 62936" d="M311.122,377.675s7.155-3.01,7.478-1.974-2.493,1.748-2.493,1.748l3.868.748a.821.821,0,0,1,.549,1.228l-1.046,1.748a2.542,2.542,0,0,1-2.39,1.228L312,381.98Z" transform="translate(-285.559 -344.428)" fill="#ff8e77"/>
        <line id="Línea_51" data-name="Línea 51" x1="5.729" y2="1.611" transform="translate(20.712 37.553)" fill="none" stroke="#130f40" stroke-linecap="round" stroke-linejoin="round" stroke-width="0.75"/>
        <line id="Línea_52" data-name="Línea 52" x1="5.757" y2="1.099" transform="translate(19.807 33.247)" fill="none" stroke="#130f40" stroke-linecap="round" stroke-linejoin="round" stroke-width="0.75"/>
        <line id="Línea_53" data-name="Línea 53" x1="0.585" y2="10.52" transform="translate(22.001 23.407)" fill="none" stroke="#130f40" stroke-linecap="round" stroke-linejoin="round" stroke-width="0.75"/>
        <path id="Trazado_62937" data-name="Trazado 62937" d="M320.061,340.466a9.965,9.965,0,0,0-1.721-.609v-3.83h-4.985v3.861c-.17.045-.341.083-.509.137l-.161.052a14.714,14.714,0,0,0,4.48,5.9l3.015-5.454Z" transform="translate(-286.312 -325.409)" fill="#ff8e77"/>
        <path id="Trazado_62938" data-name="Trazado 62938" d="M321.783,321.9c0,.228-.016.451-.036.668-.016.321-.047.653-.093.984-.331,2.74-1.471,5.656-3.248,7.081a3.757,3.757,0,0,1-2.393.906c-1.875,0-3.667-2.279-4.423-4.372-.021-.062-.047-.129-.067-.192-.005-.01-.005-.016-.01-.026a6.377,6.377,0,1,1,10.271-5.05Z" transform="translate(-284.548 -315.527)" fill="#ff8e77"/>
        <path id="Trazado_62939" data-name="Trazado 62939" d="M320.791,341.472a3.757,3.757,0,0,1-2.393.906c-1.875,0-3.667-2.279-4.423-4.372" transform="translate(-286.934 -326.363)" fill="none" stroke="#eb4d4b" stroke-linecap="round" stroke-linejoin="round" stroke-width="0.5"/>
        <path id="Trazado_62940" data-name="Trazado 62940" d="M321.783,321.9c0,.228-.016.451-.036.668-.016.321-.047.653-.093.984a9.775,9.775,0,0,0-1.248-3.465c-1.875,1.849-7.671,0-7.671,0-1.585,1.751-.844,6.024-.844,6.024l-.368.865c-.005-.01-.005-.016-.01-.026a6.377,6.377,0,1,1,10.271-5.05Z" transform="translate(-284.548 -315.527)" fill="#130f40"/>
        <path id="Trazado_62941" data-name="Trazado 62941" d="M312.083,331.294s-.41-2.223-2.137-1.489.54,6.539,2.417,3.388" transform="translate(-284.695 -322.338)" fill="#ff8e77"/>
        <path id="Trazado_62942" data-name="Trazado 62942" d="M310.727,332.027s.1-.82.793-.647.48,1.964.48,1.964" transform="translate(-285.368 -323.157)" fill="none" stroke="#eb4d4b" stroke-linecap="round" stroke-linejoin="round" stroke-width="0.5"/>
        <g id="Grupo_33887" data-name="Grupo 33887" transform="translate(28.532 8.198)">
          <ellipse id="Elipse_589" data-name="Elipse 589" cx="1.673" cy="1.51" rx="1.673" ry="1.51" transform="translate(0 0)" fill="none" stroke="#130f40" stroke-linecap="round" stroke-linejoin="round" stroke-width="0.5"/>
          <path id="Trazado_62943" data-name="Trazado 62943" d="M329.043,332.865a1.681,1.681,0,1,1-1.673-1.51A1.6,1.6,0,0,1,329.043,332.865Z" transform="translate(-321.117 -331.355)" fill="none" stroke="#130f40" stroke-linecap="round" stroke-linejoin="round" stroke-width="0.5"/>
          <path id="Trazado_62944" data-name="Trazado 62944" d="M323.3,334.293a1.1,1.1,0,0,1,1.246,0" transform="translate(-319.962 -332.674)" fill="none" stroke="#130f40" stroke-linecap="round" stroke-linejoin="round" stroke-width="0.5"/>
        </g>
        <path id="Trazado_62945" data-name="Trazado 62945" d="M320.31,338.964a1.875,1.875,0,0,0,.949.993" transform="translate(-289.988 -326.824)" fill="none" stroke="#eb4d4b" stroke-linecap="round" stroke-linejoin="round" stroke-width="0.5"/>
        <path id="Trazado_62946" data-name="Trazado 62946" d="M320.413,334.308c0,.259-.11.47-.247.47s-.247-.21-.247-.47.11-.469.247-.469S320.413,334.049,320.413,334.308Z" transform="translate(-289.8 -324.354)" fill="#130f40"/>
        <path id="Trazado_62947" data-name="Trazado 62947" d="M329.163,334.308c0,.259-.11.47-.247.47s-.247-.21-.247-.47.11-.469.247-.469S329.163,334.049,329.163,334.308Z" transform="translate(-294.017 -324.354)" fill="#130f40"/>
        <path id="Trazado_62948" data-name="Trazado 62948" d="M324.7,335.652s.24,1.554,1.172,2.039l-1.362.518" transform="translate(-292.01 -325.228)" fill="none" stroke="#eb4d4b" stroke-linecap="round" stroke-linejoin="round" stroke-width="0.5"/>
        <path id="Trazado_62949" data-name="Trazado 62949" d="M320.667,457.769H307.935a17.928,17.928,0,0,1,.938-1.8c.2-.342.43-.689.679-1.046a16.919,16.919,0,0,1,3.522-3.647L312.9,449.9l5.18-1.124,2.072,7.195Z" transform="translate(-284.022 -379.758)" fill="#6a6ae2"/>
        <path id="Trazado_62950" data-name="Trazado 62950" d="M300.406,399.023l5.5,26.71,10-2.784-6.007-26a4.862,4.862,0,0,0-5.92-3.621h0A4.862,4.862,0,0,0,300.406,399.023Z" transform="translate(-280.345 -352.957)" fill="#361274"/>
        <path id="Trazado_62951" data-name="Trazado 62951" d="M320.149,462.667l.518,1.8H307.935a17.915,17.915,0,0,1,.938-1.8Z" transform="translate(-284.022 -386.453)" fill="#cacaff"/>
        <path id="Trazado_62952" data-name="Trazado 62952" d="M351.428,464.464H333.6l.8-1.8h14.166Z" transform="translate(-296.396 -386.453)" fill="#cacaff"/>
      </g>
      <path id="Trazado_62953" data-name="Trazado 62953" d="M372.932,133.227s.119-9.617,9.617-9.617c0,0-9.617-.119-9.617-9.617,0,0-.119,9.617-9.617,9.617C363.315,123.611,372.932,123.729,372.932,133.227Z" transform="translate(-231.456 -72.489)" fill="#f4cc4d"/>
      <path id="Trazado_62954" data-name="Trazado 62954" d="M349.339,114.412s.074-6.028,6.028-6.028c0,0-6.028-.075-6.028-6.028,0,0-.075,6.028-6.028,6.028C343.311,108.385,349.339,108.459,349.339,114.412Z" transform="translate(-221.814 -66.88)" fill="#f4cc4d"/>
      <g id="Grupo_33893" data-name="Grupo 33893" transform="translate(202.721 138.468)">
        <path id="Trazado_62955" data-name="Trazado 62955" d="M571.093,339.782c3.28-5.784-.172-16.4,5.525-23.395s13.467-4.835,14.589,0-5.87,4.748-5.439-.518,13.381-8.72,8.719-14.676" transform="translate(-534.333 -301.193)" fill="none" stroke="#043c92" stroke-linecap="round" stroke-linejoin="round" stroke-width="0.75"/>
        <line id="Línea_54" data-name="Línea 54" x1="1.986" y1="19.324" transform="translate(22.503 19.697)" fill="none" stroke="#130f40" stroke-linecap="round" stroke-linejoin="round" stroke-width="0.75"/>
        <ellipse id="Elipse_590" data-name="Elipse 590" cx="1.459" cy="1.459" rx="1.459" ry="1.459" transform="translate(21.044 18.237)" fill="#171659"/>
        <g id="Grupo_33892" data-name="Grupo 33892" transform="translate(1.459 33.929)">
          <g id="Grupo_33891" data-name="Grupo 33891" clip-path="url(#clip-path)">
            <path id="Trazado_62956" data-name="Trazado 62956" d="M554.447,392.45a25.753,25.753,0,1,1-51.507,0,24.846,24.846,0,0,1,.192-3.123,25.752,25.752,0,0,1,51.315,3.123Z" transform="translate(-502.94 -366.697)" fill="#361274"/>
            <g id="Grupo_33889" data-name="Grupo 33889" transform="translate(-1.299 -1.901)">
              <path id="Trazado_62957" data-name="Trazado 62957" d="M500.433,397.1s14.736,14.825,11.138,33.718" transform="translate(-500.433 -379.449)" fill="none" stroke="#043c92" stroke-linecap="round" stroke-linejoin="round" stroke-width="0.75"/>
              <path id="Trazado_62958" data-name="Trazado 62958" d="M502.937,391.693s19.51,7.883,15.453,38.56" transform="translate(-501.64 -376.845)" fill="none" stroke="#043c92" stroke-linecap="round" stroke-linejoin="round" stroke-width="0.75"/>
              <path id="Trazado_62959" data-name="Trazado 62959" d="M509.937,383.36s9.237,1.907,15.021,16.968a59.473,59.473,0,0,1,3.626,28.182" transform="translate(-505.014 -372.828)" fill="none" stroke="#043c92" stroke-linecap="round" stroke-linejoin="round" stroke-width="0.75"/>
              <path id="Trazado_62960" data-name="Trazado 62960" d="M515.966,375.36s12.762.172,19.754,16.92,5.611,30.1,5.611,30.1" transform="translate(-507.92 -368.972)" fill="none" stroke="#043c92" stroke-linecap="round" stroke-linejoin="round" stroke-width="0.75"/>
              <path id="Trazado_62961" data-name="Trazado 62961" d="M529.6,366.694s12.345-.779,22.618,21.58.6,31.337.6,31.337" transform="translate(-514.494 -364.793)" fill="none" stroke="#043c92" stroke-linecap="round" stroke-linejoin="round" stroke-width="0.75"/>
              <path id="Trazado_62962" data-name="Trazado 62962" d="M552.66,363.027a41.782,41.782,0,0,1,18.272,24.929c4.4,17.285.777,24.8.777,24.8" transform="translate(-525.608 -363.027)" fill="none" stroke="#043c92" stroke-linecap="round" stroke-linejoin="round" stroke-width="0.75"/>
            </g>
            <path id="Trazado_62963" data-name="Trazado 62963" d="M554.447,397.582a25.688,25.688,0,0,1-1.471,8.6,57.86,57.86,0,0,0-45.41,6.132,25.666,25.666,0,0,1-4.625-14.731,24.846,24.846,0,0,1,.192-3.123,70.177,70.177,0,0,1,19.152-12.078c8.707-3.595,17.473-5.4,22.414-4.978A25.711,25.711,0,0,1,554.447,397.582Z" transform="translate(-502.94 -371.829)" fill="#7986cb"/>
            <g id="Grupo_33890" data-name="Grupo 33890" transform="translate(-2.16 5.391)">
              <path id="Trazado_62964" data-name="Trazado 62964" d="M505.77,439.343s21.41-17.439,52.315-7.166" transform="translate(-502.144 -402.09)" fill="none" stroke="#043c92" stroke-linecap="round" stroke-linejoin="round" stroke-width="0.75"/>
              <path id="Trazado_62965" data-name="Trazado 62965" d="M546.054,377.151c-26.416-1.122-46.617,18.992-46.617,18.992" transform="translate(-499.092 -377.106)" fill="none" stroke="#043c92" stroke-linecap="round" stroke-linejoin="round" stroke-width="0.75"/>
              <path id="Trazado_62966" data-name="Trazado 62966" d="M498.77,405.519s23.482-18.56,50.5-18.992" transform="translate(-498.77 -381.647)" fill="none" stroke="#043c92" stroke-linecap="round" stroke-linejoin="round" stroke-width="0.75"/>
              <path id="Trazado_62967" data-name="Trazado 62967" d="M501.27,416.648s24.776-18.819,52.919-14.676" transform="translate(-499.975 -388.805)" fill="none" stroke="#043c92" stroke-linecap="round" stroke-linejoin="round" stroke-width="0.75"/>
              <path id="Trazado_62968" data-name="Trazado 62968" d="M502.937,428.249s22.7-16.984,55.336-9.732" transform="translate(-500.779 -396.199)" fill="none" stroke="#043c92" stroke-linecap="round" stroke-linejoin="round" stroke-width="0.75"/>
            </g>
          </g>
        </g>
        <line id="Línea_55" data-name="Línea 55" y1="21.755" x2="15.28" transform="translate(38.924 22.273)" fill="none" stroke="#130f40" stroke-linecap="round" stroke-linejoin="round" stroke-width="0.75"/>
        <line id="Línea_56" data-name="Línea 56" x1="12.561" y1="27.453" transform="translate(1.459 20.429)" fill="none" stroke="#130f40" stroke-linecap="round" stroke-linejoin="round" stroke-width="0.75"/>
        <ellipse id="Elipse_591" data-name="Elipse 591" cx="1.459" cy="1.459" rx="1.459" ry="1.459" transform="translate(52.745 20.813)" fill="#171659"/>
        <ellipse id="Elipse_592" data-name="Elipse 592" cx="1.459" cy="1.459" rx="1.459" ry="1.459" transform="translate(0 18.97)" fill="#171659"/>
      </g>
      <g id="Grupo_33894" data-name="Grupo 33894" transform="translate(7.472 109.88)">
        <path id="Trazado_62970" data-name="Trazado 62970" d="M125.672,291c-3.333,0-3.338,5.18,0,5.18S129.01,291,125.672,291Z" transform="translate(-123.17 -267.691)" fill="#ba68c8"/>
        <path id="Trazado_62971" data-name="Trazado 62971" d="M595.172,246c-3.333,0-3.338,5.18,0,5.18S598.51,246,595.172,246Z" transform="translate(-349.485 -246)" fill="#ba68c8"/>
        <path id="Trazado_62972" data-name="Trazado 62972" d="M622.172,394c-3.333,0-3.338,5.18,0,5.18S625.51,394,622.172,394Z" transform="translate(-362.5 -317.341)" fill="#ba68c8"/>
        <path id="Trazado_62973" data-name="Trazado 62973" d="M613.069,432.5a1.037,1.037,0,0,0,0,2.072A1.037,1.037,0,0,0,613.069,432.5Z" transform="translate(-358.835 -335.899)" fill="#ba68c8"/>
        <path id="Trazado_62974" data-name="Trazado 62974" d="M613.569,363a1.037,1.037,0,0,0,0,2.072A1.037,1.037,0,0,0,613.569,363Z" transform="translate(-359.076 -302.398)" fill="#ba68c8"/>
        <path id="Trazado_62975" data-name="Trazado 62975" d="M576.069,286a1.037,1.037,0,0,0,0,2.072A1.037,1.037,0,0,0,576.069,286Z" transform="translate(-341 -265.281)" fill="#ba68c8"/>
        <path id="Trazado_62976" data-name="Trazado 62976" d="M130.569,353a1.037,1.037,0,0,0,0,2.072A1.037,1.037,0,0,0,130.569,353Z" transform="translate(-126.254 -297.577)" fill="#ba68c8"/>
      </g>
    </g>
  </g>
</svg>
