<svg xmlns="http://www.w3.org/2000/svg" xmlns:xlink="http://www.w3.org/1999/xlink" width="420" height="385.482" viewBox="0 0 420 385.482">
  <defs>
    <clipPath id="clip-path">
      <path id="Trazado_71634" data-name="Trazado 71634" d="M388.479,406.122c-1.2-1.23-2.433-2.425-3.686-3.6a78.652,78.652,0,0,0-8.154-6.934c-3.471-2.466-7.631-2.451-11.669-1.162a12.766,12.766,0,0,0-4.526,2.031,3.567,3.567,0,0,0-.689.815c1.44,4.747,5.862,8.585,9.571,11.761a18.541,18.541,0,0,0,7.707,4.05,15.324,15.324,0,0,0,13.973-2.549,6.4,6.4,0,0,0-.836-2.513A9.652,9.652,0,0,0,388.479,406.122Z" transform="translate(-359.755 -393.563)" fill="none"/>
    </clipPath>
    <clipPath id="clip-path-2">
      <path id="Trazado_71640" data-name="Trazado 71640" d="M136.254,330.684c1.4,1.1,2.386-11.464,2.386-11.464s.206-17.8-1.806-18.74-3.873,5.285-4.974,19.26l4.9.221Z" transform="translate(-131.86 -300.388)" fill="#d78dcc"/>
    </clipPath>
    <clipPath id="clip-path-3">
      <path id="Trazado_71692" data-name="Trazado 71692" d="M113.991,334.784c.442,5.355,1.923,38.985,6.339,39.655a78.5,78.5,0,0,0,9.514.84l1.783,0a78.59,78.59,0,0,0,9.7-.845c4.416-.67,5.9-34.3,6.339-39.655C141.27,338.418,114.7,336.934,113.991,334.784Z" transform="translate(-113.991 -334.784)" fill="#d78dcc"/>
    </clipPath>
  </defs>
  <g id="Grupo_1068170" data-name="Grupo 1068170" transform="translate(-1000 -21270)">
    <g id="BACKGROUND" transform="translate(1000 21280.58)">
      <g id="Grupo_32241" data-name="Grupo 32241" transform="translate(0 0)">
        <path id="Trazado_61861" data-name="Trazado 61861" d="M126.526,142.716c20.758-.717,40.829,6.557,60.686,12.649s41.108,11.1,61.206,5.86c27.022-7.045,45.874-30.735,62.8-52.944s36.079-45.764,63.229-52.3c25.352-6.1,52.7,4.838,71.157,23.263s29.1,43.332,35.747,68.548c16.46,62.458,8.516,134.465-34.252,182.869-34.216,38.727-85.867,57.748-136.887,65.969-36.8,5.931-75.066,6.921-110.853-3.512A181.111,181.111,0,0,1,94.73,311.313C68,265.407,43.21,145.594,126.526,142.716Z" transform="translate(-69.318 -26.146)" fill="#ffd54f"/>
        <path id="Trazado_61862" data-name="Trazado 61862" d="M211.318,138.272c24.988.463,51.9-8.735,70.587-21.782,10.362-7.232,19.624-16.447,25.154-27.809s6.993-25.044,2.172-36.724c-6.956-16.852-25.255-26.387-43.165-29.794a106.057,106.057,0,0,0-79.5,16.985c-16.05,11.192-32.877,27.123-37.043,47.055-4.489,21.475,14,37.952,32.206,46A76.627,76.627,0,0,0,211.318,138.272Z" transform="translate(-82.858 -20.373)" fill="#ffd54f"/>
      </g>
    </g>
    <g id="Grupo_39431" data-name="Grupo 39431" transform="translate(1056.512 21270)" style="isolation: isolate">
      <g id="Grupo_39430" data-name="Grupo 39430" transform="translate(0 0)">
        <path id="Trazado_71513" data-name="Trazado 71513" d="M243.846,326.945h-.022q-1.954-.042-3.893-.142a.909.909,0,1,1,.105-1.812q1.907.1,3.831.139a.908.908,0,1,1-.021,1.814Zm7.247-.052a.908.908,0,1,1-.036-1.813q1.924-.069,3.83-.2a.965.965,0,0,1,1.029.843.929.929,0,0,1-.9.968q-1.936.126-3.891.2Zm-18.329-.667a.957.957,0,0,1-.113-.006q-1.941-.211-3.863-.481a.918.918,0,0,1-.811-1.031.959.959,0,0,1,1.1-.764q1.889.265,3.8.474a.92.92,0,0,1,.846,1.005A.944.944,0,0,1,232.765,326.227Zm29.4-.212a.944.944,0,0,1-.954-.789.918.918,0,0,1,.83-1.017q1.91-.237,3.793-.529a.95.95,0,0,1,1.107.747.915.915,0,0,1-.793,1.043q-1.917.3-3.857.538A1.224,1.224,0,0,1,262.162,326.014ZM221.8,324.536a1,1,0,0,1-.2-.019c-1.261-.252-2.539-.529-3.8-.822a.906.906,0,0,1-.7-1.1.973.973,0,0,1,1.167-.663c1.239.289,2.5.562,3.736.808a.909.909,0,0,1,.742,1.076A.951.951,0,0,1,221.8,324.536Zm51.3-.37a.955.955,0,0,1-.939-.7.907.907,0,0,1,.724-1.087q1.872-.405,3.723-.864a.972.972,0,0,1,1.178.646.9.9,0,0,1-.686,1.109q-1.881.467-3.784.877A1.036,1.036,0,0,1,273.1,324.165Zm-62.043-2.283a1.022,1.022,0,0,1-.288-.042q-1.869-.551-3.711-1.16a.893.893,0,0,1-.591-1.155.977.977,0,0,1,1.228-.556q1.813.6,3.651,1.14a.9.9,0,0,1,.631,1.138A.96.96,0,0,1,211.055,321.882Zm72.744-.525a.96.96,0,0,1-.915-.622.9.9,0,0,1,.612-1.147q1.824-.569,3.62-1.189a.983.983,0,0,1,1.238.538.894.894,0,0,1-.572,1.165q-1.827.633-3.68,1.209A1.036,1.036,0,0,1,283.8,321.357Zm-83.2-3.08a1.015,1.015,0,0,1-.373-.071c-1.2-.477-2.407-.976-3.575-1.483a.886.886,0,0,1-.472-1.2.991.991,0,0,1,1.278-.444c1.15.5,2.333.99,3.517,1.458a.89.89,0,0,1,.516,1.188A.968.968,0,0,1,200.6,318.277Zm93.56-.664a.969.969,0,0,1-.884-.542.889.889,0,0,1,.5-1.2q1.755-.725,3.476-1.5a.992.992,0,0,1,1.286.427.884.884,0,0,1-.453,1.21q-1.751.788-3.533,1.526A1.04,1.04,0,0,1,294.159,317.613Zm-103.6-3.85a1,1,0,0,1-.455-.109c-1.135-.572-2.282-1.176-3.409-1.791a.878.878,0,0,1-.35-1.24,1,1,0,0,1,1.316-.33c1.108.606,2.237,1.2,3.353,1.763a.88.88,0,0,1,.394,1.227A.976.976,0,0,1,190.558,313.763Zm113.537-.791a.973.973,0,0,1-.843-.465.88.88,0,0,1,.374-1.235q1.674-.876,3.313-1.8a1,1,0,0,1,1.322.312.877.877,0,0,1-.331,1.244q-1.667.94-3.368,1.832A1.014,1.014,0,0,1,304.095,312.972Zm-123.078-4.59a1.007,1.007,0,0,1-.533-.151c-1.087-.68-2.168-1.382-3.213-2.083a.874.874,0,0,1-.225-1.266,1,1,0,0,1,1.344-.211q1.561,1.051,3.161,2.049a.875.875,0,0,1,.269,1.258A.983.983,0,0,1,181.017,308.382Zm132.513-.91a.979.979,0,0,1-.8-.394.873.873,0,0,1,.249-1.261q1.582-1.022,3.125-2.088a1,1,0,0,1,1.346.194.871.871,0,0,1-.206,1.267q-1.569,1.084-3.174,2.122A1,1,0,0,1,313.53,307.472Zm-141.473-5.284a1,1,0,0,1-.606-.2q-1.517-1.155-2.991-2.354a.87.87,0,0,1-.1-1.279,1,1,0,0,1,1.359-.093q1.451,1.18,2.943,2.316a.872.872,0,0,1,.143,1.276A.985.985,0,0,1,172.057,302.188Zm150.325-1.022a.983.983,0,0,1-.741-.327.87.87,0,0,1,.124-1.277q1.473-1.155,2.9-2.353a1,1,0,0,1,1.361.074.871.871,0,0,1-.079,1.281q-1.456,1.218-2.954,2.392A.992.992,0,0,1,322.382,301.166Zm-158.63-5.93a.99.99,0,0,1-.673-.259c-.93-.854-1.853-1.731-2.745-2.605a.871.871,0,0,1,.028-1.283,1.009,1.009,0,0,1,1.363.027q1.329,1.3,2.7,2.563a.87.87,0,0,1,.017,1.283A.994.994,0,0,1,163.752,295.236Zm166.824-1.128a1,1,0,0,1-.679-.264.872.872,0,0,1,0-1.284q1.353-1.279,2.661-2.6a1.009,1.009,0,0,1,1.363-.044.87.87,0,0,1,.047,1.283q-1.33,1.342-2.7,2.642A.993.993,0,0,1,330.576,294.107Zm-174.4-6.517a.988.988,0,0,1-.735-.32q-1.261-1.4-2.473-2.833a.871.871,0,0,1,.155-1.275,1,1,0,0,1,1.353.146q1.194,1.412,2.433,2.787a.872.872,0,0,1-.111,1.28A1,1,0,0,1,156.174,287.59Zm181.866-1.232a1,1,0,0,1-.613-.208.872.872,0,0,1-.13-1.277q1.222-1.393,2.393-2.823a1,1,0,0,1,1.352-.164.872.872,0,0,1,.174,1.272q-1.191,1.455-2.432,2.87A.986.986,0,0,1,338.04,286.358Zm-188.653-7.04a.985.985,0,0,1-.79-.387q-1.116-1.5-2.18-3.035a.874.874,0,0,1,.28-1.255,1,1,0,0,1,1.333.263q1.048,1.51,2.145,2.985a.874.874,0,0,1-.236,1.264A1.006,1.006,0,0,1,149.387,279.318Zm195.319-1.335a1,1,0,0,1-.541-.157.874.874,0,0,1-.256-1.259q1.078-1.5,2.1-3.023a1,1,0,0,1,1.329-.282.875.875,0,0,1,.3,1.251q-1.042,1.554-2.138,3.073A.981.981,0,0,1,344.706,277.983Zm-201.253-7.494a.974.974,0,0,1-.838-.458q-.961-1.589-1.868-3.212a.88.88,0,0,1,.4-1.225,1,1,0,0,1,1.3.38q.892,1.595,1.838,3.16a.88.88,0,0,1-.361,1.237A1.013,1.013,0,0,1,143.454,270.489Zm207.06-1.433a1.007,1.007,0,0,1-.464-.113.878.878,0,0,1-.38-1.231q.924-1.584,1.794-3.2a.994.994,0,0,1,1.3-.4.883.883,0,0,1,.422,1.22q-.885,1.64-1.824,3.249A.974.974,0,0,1,350.514,269.055Zm-212.087-7.873a.968.968,0,0,1-.879-.534q-.8-1.667-1.538-3.359a.89.89,0,0,1,.524-1.185.987.987,0,0,1,1.258.493q.729,1.667,1.513,3.3a.888.888,0,0,1-.483,1.2A1.027,1.027,0,0,1,138.427,261.182Zm216.98-1.531a1.009,1.009,0,0,1-.382-.074.889.889,0,0,1-.5-1.193c.5-1.09,1-2.215,1.469-3.344a.985.985,0,0,1,1.249-.512.891.891,0,0,1,.545,1.177c-.481,1.148-.984,2.291-1.493,3.4A.969.969,0,0,1,355.407,259.651Zm-221.059-8.185a.961.961,0,0,1-.912-.614q-.629-1.734-1.2-3.491a.9.9,0,0,1,.641-1.132.974.974,0,0,1,1.2.6q.561,1.729,1.179,3.434a.9.9,0,0,1-.6,1.152A1.032,1.032,0,0,1,134.348,251.466Zm224.992-1.619a1.017,1.017,0,0,1-.3-.044.9.9,0,0,1-.62-1.143q.591-1.713,1.123-3.451a.974.974,0,0,1,1.193-.62.9.9,0,0,1,.659,1.123c-.359,1.171-.744,2.352-1.142,3.507A.96.96,0,0,1,359.34,249.846ZM131.259,241.42a.954.954,0,0,1-.937-.7q-.452-1.781-.843-3.581a.909.909,0,0,1,.751-1.07.961.961,0,0,1,1.137.707q.384,1.772.83,3.523a.906.906,0,0,1-.713,1.093A1,1,0,0,1,131.259,241.42Zm231-1.662a.98.98,0,0,1-.21-.022.907.907,0,0,1-.73-1.082c.277-1.167.536-2.355.773-3.534a.962.962,0,0,1,1.125-.724.912.912,0,0,1,.768,1.06c-.24,1.2-.5,2.409-.785,3.593A.953.953,0,0,1,362.264,239.758Zm-233.076-8.611a.947.947,0,0,1-.953-.78q-.272-1.811-.482-3.64a.921.921,0,0,1,.855-1,.949.949,0,0,1,1.061.8q.207,1.8.474,3.581a.918.918,0,0,1-.819,1.025A1,1,0,0,1,129.188,231.147Zm234.978-1.691a.956.956,0,0,1-.957-1.021q.24-1.784.416-3.587a.947.947,0,0,1,1.049-.819.925.925,0,0,1,.871.987c-.12,1.216-.263,2.443-.425,3.647A.945.945,0,0,1,364.166,229.456Zm-236.016-8.72a.94.94,0,0,1-.962-.865q-.093-1.826-.121-3.667a.935.935,0,0,1,.949-.921.921.921,0,0,1,.978.894q.029,1.811.119,3.608a.931.931,0,0,1-.918.95Zm236.887-1.705h-.032a.932.932,0,0,1-.932-.936q.061-1.8.062-3.609v-.238a.966.966,0,0,1,1.927,0v.238q0,1.841-.064,3.667A.938.938,0,0,1,365.038,219.031Zm-236.9-8.753H128.1a.93.93,0,0,1-.919-.947q.088-1.838.238-3.66a.953.953,0,0,1,1.035-.835.926.926,0,0,1,.887.974q-.147,1.793-.234,3.6A.94.94,0,0,1,128.141,210.278Zm236.724-1.941a.943.943,0,0,1-.962-.851q-.12-1.807-.3-3.6a.923.923,0,0,1,.867-.989.946.946,0,0,1,1.05.816q.184,1.821.306,3.657a.929.929,0,0,1-.9.962Zm-235.708-8.471a.959.959,0,0,1-.135-.009.917.917,0,0,1-.821-1.023q.27-1.822.6-3.624a.952.952,0,0,1,1.113-.739.913.913,0,0,1,.785,1.048q-.324,1.773-.59,3.566A.947.947,0,0,1,129.157,199.866Zm234.5-1.924a.949.949,0,0,1-.952-.766q-.3-1.787-.656-3.555a.912.912,0,0,1,.766-1.061.962.962,0,0,1,1.128.721q.363,1.8.668,3.613a.917.917,0,0,1-.8,1.038A1.06,1.06,0,0,1,363.657,197.942ZM131.2,189.588a1.056,1.056,0,0,1-.224-.024.906.906,0,0,1-.715-1.091c.3-1.183.621-2.379.96-3.556a.969.969,0,0,1,1.183-.637.9.9,0,0,1,.678,1.113q-.5,1.738-.944,3.5A.954.954,0,0,1,131.2,189.588ZM361.419,187.7a.955.955,0,0,1-.932-.683q-.477-1.751-1.01-3.482a.9.9,0,0,1,.655-1.124.971.971,0,0,1,1.2.618q.542,1.758,1.026,3.539a.9.9,0,0,1-.695,1.1A.993.993,0,0,1,361.419,187.7Zm-227.148-8.163a1.025,1.025,0,0,1-.31-.049.9.9,0,0,1-.6-1.15q.629-1.746,1.316-3.464a.981.981,0,0,1,1.241-.53.892.892,0,0,1,.563,1.168q-.675,1.691-1.3,3.408A.961.961,0,0,1,134.271,179.538ZM358.164,177.7a.963.963,0,0,1-.907-.6q-.648-1.7-1.354-3.376a.891.891,0,0,1,.541-1.178.986.986,0,0,1,1.251.509c.479,1.137.943,2.291,1.377,3.432a.9.9,0,0,1-.582,1.161A1.011,1.011,0,0,1,358.164,177.7ZM138.34,169.784a1.006,1.006,0,0,1-.394-.08.887.887,0,0,1-.485-1.2q.8-1.679,1.657-3.33a.991.991,0,0,1,1.289-.416.884.884,0,0,1,.443,1.213q-.843,1.623-1.63,3.276A.969.969,0,0,1,138.34,169.784Zm215.59-1.738a.971.971,0,0,1-.873-.522q-.815-1.632-1.683-3.234a.883.883,0,0,1,.421-1.22.992.992,0,0,1,1.3.4q.882,1.629,1.71,3.286a.885.885,0,0,1-.462,1.207A1.011,1.011,0,0,1,353.93,168.046ZM143.366,160.44a1.009,1.009,0,0,1-.474-.118.879.879,0,0,1-.363-1.236q.963-1.6,1.98-3.166a1,1,0,0,1,1.325-.3.878.878,0,0,1,.32,1.247q-1,1.54-1.949,3.114A.976.976,0,0,1,143.366,160.44Zm205.384-1.628a.975.975,0,0,1-.831-.446q-.973-1.553-2-3.073a.876.876,0,0,1,.3-1.252,1,1,0,0,1,1.331.279q1.041,1.546,2.03,3.124a.878.878,0,0,1-.34,1.242A1,1,0,0,1,348.75,158.812ZM149.3,151.586a1,1,0,0,1-.551-.163.873.873,0,0,1-.238-1.264q1.117-1.505,2.284-2.975a1,1,0,0,1,1.349-.184.873.873,0,0,1,.195,1.27q-1.148,1.446-2.247,2.928A.983.983,0,0,1,149.3,151.586Zm193.372-1.516a.982.982,0,0,1-.782-.376q-1.123-1.461-2.3-2.887a.872.872,0,0,1,.173-1.273,1,1,0,0,1,1.352.162q1.191,1.448,2.333,2.934a.874.874,0,0,1-.217,1.266A.994.994,0,0,1,342.672,150.07ZM156.083,143.3a.991.991,0,0,1-.623-.215.869.869,0,0,1-.112-1.278q1.259-1.4,2.567-2.76a1.007,1.007,0,0,1,1.361-.064.87.87,0,0,1,.068,1.282q-1.287,1.338-2.527,2.716A.989.989,0,0,1,156.083,143.3Zm179.669-1.4a.985.985,0,0,1-.725-.309q-1.264-1.355-2.573-2.674a.87.87,0,0,1,.045-1.283,1.008,1.008,0,0,1,1.363.044q1.33,1.339,2.615,2.718a.871.871,0,0,1-.09,1.28A1,1,0,0,1,335.752,141.9Zm-172.1-6.256a.993.993,0,0,1-.689-.272.87.87,0,0,1,.015-1.283q1.392-1.283,2.829-2.522a1,1,0,0,1,1.361.055.87.87,0,0,1-.059,1.282q-1.411,1.218-2.783,2.481A.987.987,0,0,1,163.655,135.64Zm164.393-1.279a.992.992,0,0,1-.662-.249q-1.392-1.241-2.828-2.439a.87.87,0,0,1-.082-1.281,1,1,0,0,1,1.36-.076q1.46,1.218,2.875,2.479a.869.869,0,0,1,.037,1.282A.988.988,0,0,1,328.048,134.361Zm-156.1-5.678a.985.985,0,0,1-.749-.336.872.872,0,0,1,.142-1.276q1.511-1.154,3.064-2.262a1,1,0,0,1,1.35.175.873.873,0,0,1-.186,1.271q-1.527,1.09-3.014,2.225A1,1,0,0,1,171.948,128.683Zm147.683-1.153a.994.994,0,0,1-.594-.193q-1.509-1.113-3.058-2.182a.874.874,0,0,1-.208-1.268,1,1,0,0,1,1.347-.2q1.573,1.084,3.108,2.217a.871.871,0,0,1,.164,1.274A.984.984,0,0,1,319.631,127.53Zm-138.741-5.044a.978.978,0,0,1-.8-.4.875.875,0,0,1,.267-1.258q1.619-1.015,3.272-1.981a1,1,0,0,1,1.327.292.876.876,0,0,1-.31,1.249q-1.626.95-3.22,1.95A1,1,0,0,1,180.889,122.486Zm129.681-1.021a1.006,1.006,0,0,1-.519-.144q-1.616-.976-3.264-1.9a.878.878,0,0,1-.333-1.245,1,1,0,0,1,1.321-.313q1.677.943,3.317,1.935a.876.876,0,0,1,.29,1.254A.98.98,0,0,1,310.57,121.466ZM190.4,117.1a.974.974,0,0,1-.849-.476.881.881,0,0,1,.391-1.229q1.71-.867,3.452-1.684a.994.994,0,0,1,1.292.408.884.884,0,0,1-.434,1.216q-1.714.8-3.4,1.656A1.013,1.013,0,0,1,190.4,117.1Zm110.541-.881a1.008,1.008,0,0,1-.441-.1q-1.7-.83-3.44-1.608a.885.885,0,0,1-.457-1.209.992.992,0,0,1,1.285-.429c1.168.523,2.345,1.073,3.5,1.636a.881.881,0,0,1,.414,1.222A.973.973,0,0,1,300.942,116.224ZM200.4,112.59a.968.968,0,0,1-.888-.554.888.888,0,0,1,.512-1.189q1.787-.712,3.6-1.369a.983.983,0,0,1,1.246.52.892.892,0,0,1-.553,1.173q-1.785.646-3.544,1.347A1.009,1.009,0,0,1,200.4,112.59Zm90.429-.734a1,1,0,0,1-.361-.066c-1.177-.447-2.384-.884-3.588-1.3a.893.893,0,0,1-.575-1.163.982.982,0,0,1,1.235-.542c1.224.42,2.452.864,3.649,1.319a.89.89,0,0,1,.534,1.18A.967.967,0,0,1,290.828,111.856Zm-80.016-2.878a.961.961,0,0,1-.918-.634.9.9,0,0,1,.628-1.138q1.855-.551,3.735-1.048a.974.974,0,0,1,1.188.63.9.9,0,0,1-.669,1.118q-1.849.488-3.674,1.031A1.008,1.008,0,0,1,210.812,108.978Zm69.518-.57a1.016,1.016,0,0,1-.274-.038q-1.835-.512-3.694-.97a.9.9,0,0,1-.689-1.107.972.972,0,0,1,1.176-.649q1.891.465,3.755.986a.9.9,0,0,1,.651,1.128A.961.961,0,0,1,280.33,108.408ZM221.551,106.3a.953.953,0,0,1-.942-.717.908.908,0,0,1,.74-1.077q1.9-.385,3.823-.711a.957.957,0,0,1,1.119.731.912.912,0,0,1-.777,1.054q-1.891.321-3.761.7A1.046,1.046,0,0,1,221.551,106.3Zm47.991-.392a1,1,0,0,1-.186-.017q-1.876-.347-3.774-.638a.915.915,0,0,1-.8-1.041.956.956,0,0,1,1.105-.749q1.929.3,3.837.648a.912.912,0,0,1,.76,1.065A.952.952,0,0,1,269.542,105.91Zm-37.032-1.321a.945.945,0,0,1-.956-.8.922.922,0,0,1,.844-1.008q1.928-.214,3.876-.37a.947.947,0,0,1,1.043.826.925.925,0,0,1-.879.982q-1.915.154-3.815.365A.969.969,0,0,1,232.51,104.589Zm26.043-.21a.893.893,0,0,1-.1,0q-1.9-.18-3.82-.3a.928.928,0,0,1-.9-.966.952.952,0,0,1,1.026-.844q1.95.124,3.884.308a.923.923,0,0,1,.863.993A.943.943,0,0,1,258.553,104.379Zm-14.961-.529a.908.908,0,1,1-.023-1.814q1.489-.034,2.989-.035l.909,0a.909.909,0,1,1-.008,1.814h-.008l-.892,0q-1.475,0-2.942.034Z" transform="translate(-91.939 -53.566)" fill="#493b88"/>
        <g id="Grupo_39327" data-name="Grupo 39327" transform="translate(45.756 188.188)">
          <path id="Trazado_71514" data-name="Trazado 71514" d="M349.934,426.622H143.064c-2.3,0-4.722-1.09-4.969-4.266v-2.918l22.644-39.385a7.265,7.265,0,0,1,6.455-3.767H325.5c2.954,0,9.468,5.476,10.789,7.964l18.68,35.846v1.287A4.777,4.777,0,0,1,349.934,426.622Z" transform="translate(-138.095 -267.222)" fill="#493b88"/>
          <path id="Trazado_71515" data-name="Trazado 71515" d="M349.953,422.077H143.083c-2.3,0-6.078-1.9-4.658-4.227l22.333-42.341a7.265,7.265,0,0,1,6.455-3.767H325.521A7.861,7.861,0,0,1,332.5,375.8L354.6,417.44C356.153,420.095,352.472,422.077,349.953,422.077Z" transform="translate(-138.096 -266.8)" fill="#a878ec"/>
          <rect id="Rectángulo_8346" data-name="Rectángulo 8346" width="169.41" height="100.763" rx="8.84" transform="translate(22.629)" fill="#493b88"/>
          <rect id="Rectángulo_8347" data-name="Rectángulo 8347" width="156.341" height="87.312" transform="translate(29.133 5.496)" fill="#fff"/>
          <path id="Trazado_71516" data-name="Trazado 71516" d="M177.543,381.509h-6.614c-.922,0-1.558-.257-1.422-.572l.4-.933c.134-.311.982-.562,1.894-.562h6.537c.912,0,1.557.251,1.439.562l-.351.933C179.31,381.253,178.465,381.509,177.543,381.509Z" transform="translate(-139.233 -267.515)" fill="#493b88"/>
          <path id="Trazado_71517" data-name="Trazado 71517" d="M189.116,381.509H182.5c-.922,0-1.575-.257-1.458-.572l.345-.933c.115-.311.947-.562,1.858-.562h6.538c.912,0,1.571.251,1.474.562l-.293.933C190.866,381.253,190.038,381.509,189.116,381.509Z" transform="translate(-139.651 -267.515)" fill="#493b88"/>
          <path id="Trazado_71518" data-name="Trazado 71518" d="M200.688,381.509h-6.614c-.922,0-1.591-.257-1.494-.572l.287-.933c.1-.311.912-.562,1.823-.562h6.537c.912,0,1.587.251,1.509.562l-.234.933C202.422,381.253,201.61,381.509,200.688,381.509Z" transform="translate(-140.07 -267.515)" fill="#493b88"/>
          <path id="Trazado_71519" data-name="Trazado 71519" d="M212.26,381.509h-6.614c-.922,0-1.608-.257-1.529-.572l.228-.933c.076-.311.877-.562,1.789-.562h6.537c.912,0,1.6.251,1.544.562l-.176.933C213.979,381.253,213.183,381.509,212.26,381.509Z" transform="translate(-140.488 -267.515)" fill="#493b88"/>
          <path id="Trazado_71520" data-name="Trazado 71520" d="M223.832,381.509h-6.613c-.922,0-1.624-.257-1.566-.572l.171-.933c.057-.311.841-.562,1.753-.562h6.537c.912,0,1.619.251,1.58.562l-.118.933C225.535,381.253,224.754,381.509,223.832,381.509Z" transform="translate(-140.906 -267.515)" fill="#493b88"/>
          <path id="Trazado_71521" data-name="Trazado 71521" d="M235.4,381.509h-6.614c-.922,0-1.639-.257-1.6-.572l.112-.933c.038-.311.807-.562,1.718-.562h6.537c.912,0,1.635.251,1.614.562l-.06.933C237.091,381.253,236.327,381.509,235.4,381.509Z" transform="translate(-141.325 -267.515)" fill="#493b88"/>
          <path id="Trazado_71522" data-name="Trazado 71522" d="M246.978,381.509h-6.614c-.922,0-1.656-.257-1.637-.572l.054-.933c.017-.311.771-.562,1.683-.562H247c.911,0,1.65.251,1.649.562l0,.933C248.648,381.253,247.9,381.509,246.978,381.509Z" transform="translate(-141.743 -267.515)" fill="#493b88"/>
          <path id="Trazado_71523" data-name="Trazado 71523" d="M258.549,381.509h-6.613c-.923,0-1.672-.257-1.673-.572l0-.933c0-.311.736-.562,1.648-.562h6.537c.912,0,1.666.251,1.685.562l.057.933C260.2,381.253,259.471,381.509,258.549,381.509Z" transform="translate(-142.161 -267.515)" fill="#493b88"/>
          <path id="Trazado_71524" data-name="Trazado 71524" d="M270.12,381.509h-6.614c-.922,0-1.687-.257-1.709-.572l-.063-.933c-.021-.311.7-.562,1.612-.562h6.538c.912,0,1.682.251,1.719.562l.116.933C271.758,381.253,271.042,381.509,270.12,381.509Z" transform="translate(-142.577 -267.515)" fill="#493b88"/>
          <path id="Trazado_71525" data-name="Trazado 71525" d="M281.689,381.509h-6.613c-.922,0-1.7-.257-1.744-.572l-.122-.933c-.04-.311.666-.562,1.578-.562h6.537c.912,0,1.7.251,1.755.562l.173.933C283.312,381.253,282.611,381.509,281.689,381.509Z" transform="translate(-142.993 -267.515)" fill="#493b88"/>
          <path id="Trazado_71526" data-name="Trazado 71526" d="M293.259,381.509h-6.614c-.922,0-1.719-.257-1.78-.572l-.179-.933c-.06-.311.631-.562,1.543-.562h6.537c.912,0,1.712.251,1.79.562l.231.933C294.866,381.253,294.182,381.509,293.259,381.509Z" transform="translate(-143.409 -267.515)" fill="#493b88"/>
          <path id="Trazado_71527" data-name="Trazado 71527" d="M304.83,381.509h-6.614c-.922,0-1.736-.257-1.816-.572l-.238-.933c-.079-.311.6-.562,1.507-.562h6.537c.912,0,1.729.251,1.825.562l.29.933C306.42,381.253,305.752,381.509,304.83,381.509Z" transform="translate(-143.825 -267.515)" fill="#493b88"/>
          <path id="Trazado_71528" data-name="Trazado 71528" d="M316.4,381.509h-6.613c-.923,0-1.752-.257-1.852-.572l-.3-.933c-.1-.311.561-.562,1.473-.562h6.537c.912,0,1.744.251,1.861.562l.347.933C317.974,381.253,317.321,381.509,316.4,381.509Z" transform="translate(-144.241 -267.515)" fill="#493b88"/>
          <path id="Trazado_71529" data-name="Trazado 71529" d="M327.969,381.509h-6.614c-.922,0-1.767-.257-1.887-.572l-.355-.933c-.118-.311.525-.562,1.437-.562h6.537c.912,0,1.761.251,1.9.562l.406.933C329.528,381.253,328.892,381.509,327.969,381.509Z" transform="translate(-144.657 -267.515)" fill="#493b88"/>
          <path id="Trazado_71530" data-name="Trazado 71530" d="M176.884,385.237h-8.441c-.21,0-.355-.06-.323-.133l1.252-2.907c.03-.072.223-.129.429-.129h8.293c.206,0,.352.057.325.129l-1.1,2.907C177.287,385.177,177.094,385.237,176.884,385.237Z" transform="translate(-139.183 -267.758)" fill="#493b88"/>
          <path id="Trazado_71531" data-name="Trazado 71531" d="M193.044,389.425h-8.617c-.215,0-.367-.062-.341-.139l1.026-3.028c.025-.074.216-.134.427-.134H194c.211,0,.364.06.343.134l-.873,3.028C193.451,389.363,193.259,389.425,193.044,389.425Z" transform="translate(-139.762 -268.135)" fill="#493b88"/>
          <path id="Trazado_71532" data-name="Trazado 71532" d="M194.5,393.794h-8.8c-.219,0-.375-.065-.349-.145l1.027-3.158c.025-.078.22-.141.435-.141h8.642c.215,0,.373.063.351.141l-.867,3.158C194.913,393.728,194.717,393.794,194.5,393.794Z" transform="translate(-139.808 -268.527)" fill="#493b88"/>
          <path id="Trazado_71533" data-name="Trazado 71533" d="M199.632,398.352h-8.994c-.224,0-.386-.068-.361-.151l.97-3.3c.023-.081.221-.146.44-.146h8.827c.22,0,.383.065.362.146l-.8,3.3C200.054,398.284,199.857,398.352,199.632,398.352Z" transform="translate(-139.987 -268.937)" fill="#493b88"/>
          <path id="Trazado_71534" data-name="Trazado 71534" d="M170.182,403.6h-9.165c-.244,0-.41-.075-.369-.169l1.685-3.912c.04-.09.263-.162.5-.162h8.971c.238,0,.4.072.37.162l-1.487,3.912C170.652,403.526,170.426,403.6,170.182,403.6Z" transform="translate(-138.912 -269.364)" fill="#493b88"/>
          <path id="Trazado_71535" data-name="Trazado 71535" d="M182.884,403.6h-9.166c-.244,0-.413-.075-.379-.169l1.444-3.912c.033-.09.252-.162.491-.162h8.971c.238,0,.409.072.38.162l-1.246,3.912C183.349,403.526,183.128,403.6,182.884,403.6Z" transform="translate(-139.372 -269.364)" fill="#493b88"/>
          <path id="Trazado_71536" data-name="Trazado 71536" d="M195.2,403.6h-9.166c-.244,0-.418-.075-.389-.169l1.21-3.912c.027-.09.243-.162.482-.162h8.971c.238,0,.412.072.389.162l-1.012,3.912C195.662,403.526,195.444,403.6,195.2,403.6Z" transform="translate(-139.819 -269.364)" fill="#493b88"/>
          <path id="Trazado_71537" data-name="Trazado 71537" d="M210.613,403.6h-12.1c-.279,0-.483-.086-.456-.192l.963-3.866c.025-.1.266-.185.539-.185H211.4c.273,0,.478.082.46.185l-.708,3.866C211.132,403.515,210.89,403.6,210.613,403.6Z" transform="translate(-140.269 -269.364)" fill="#493b88"/>
          <path id="Trazado_71538" data-name="Trazado 71538" d="M287.795,403.6H275.7c-.279,0-.516-.086-.528-.192l-.486-3.866c-.012-.1.2-.185.47-.185h11.837c.272,0,.509.082.528.185l.74,3.866C288.283,403.515,288.073,403.6,287.795,403.6Z" transform="translate(-143.047 -269.364)" fill="#493b88"/>
          <path id="Trazado_71539" data-name="Trazado 71539" d="M300.606,403.6h-9.037c-.242,0-.453-.075-.472-.168l-.794-3.915c-.017-.088.16-.16.4-.16h8.843c.237,0,.447.072.469.16l.99,3.915C301.026,403.526,300.848,403.6,300.606,403.6Z" transform="translate(-143.613 -269.364)" fill="#493b88"/>
          <path id="Trazado_71540" data-name="Trazado 71540" d="M270.472,403.6h-55.81c-.585,0-1.028-.182-.989-.4l.6-3.45c.038-.215.532-.389,1.1-.389h54.618c.572,0,1.057.174,1.082.389l.408,3.45C271.51,403.42,271.057,403.6,270.472,403.6Z" transform="translate(-140.835 -269.364)" fill="#493b88"/>
          <path id="Trazado_71541" data-name="Trazado 71541" d="M211.751,398.352h-8.994c-.225,0-.39-.068-.37-.151l.77-3.3c.018-.081.212-.146.432-.146h8.827c.22,0,.386.065.372.146l-.6,3.3C212.169,398.284,211.974,398.352,211.751,398.352Z" transform="translate(-140.426 -268.937)" fill="#493b88"/>
          <path id="Trazado_71542" data-name="Trazado 71542" d="M223.868,398.352h-8.994c-.224,0-.393-.068-.379-.151l.572-3.3c.013-.081.2-.146.423-.146h8.827c.22,0,.39.065.381.146l-.406,3.3C224.283,398.284,224.093,398.352,223.868,398.352Z" transform="translate(-140.865 -268.937)" fill="#493b88"/>
          <path id="Trazado_71543" data-name="Trazado 71543" d="M235.987,398.352h-8.994c-.224,0-.4-.068-.388-.151l.373-3.3c.01-.081.195-.146.414-.146h8.827c.22,0,.394.065.389.146l-.206,3.3C236.4,398.284,236.211,398.352,235.987,398.352Z" transform="translate(-141.304 -268.937)" fill="#493b88"/>
          <path id="Trazado_71544" data-name="Trazado 71544" d="M248.106,398.352h-8.994c-.225,0-.4-.068-.4-.151l.174-3.3c0-.081.186-.146.406-.146h8.827c.22,0,.4.065.4.146l-.008,3.3C248.511,398.284,248.329,398.352,248.106,398.352Z" transform="translate(-141.743 -268.937)" fill="#493b88"/>
          <path id="Trazado_71545" data-name="Trazado 71545" d="M260.222,398.352h-8.994c-.224,0-.406-.068-.407-.151l-.024-3.3c0-.081.177-.146.4-.146h8.827c.22,0,.4.065.407.146l.191,3.3C260.624,398.284,260.447,398.352,260.222,398.352Z" transform="translate(-142.181 -268.937)" fill="#493b88"/>
          <path id="Trazado_71546" data-name="Trazado 71546" d="M272.334,398.352H263.34c-.225,0-.411-.068-.415-.151l-.224-3.3c0-.081.169-.146.388-.146h8.827c.22,0,.406.065.415.146l.389,3.3C272.731,398.284,272.557,398.352,272.334,398.352Z" transform="translate(-142.612 -268.937)" fill="#493b88"/>
          <path id="Trazado_71547" data-name="Trazado 71547" d="M284.445,398.352H275.45c-.224,0-.413-.068-.424-.151l-.421-3.3c-.011-.081.159-.146.379-.146h8.827c.22,0,.41.065.424.146l.588,3.3C284.838,398.284,284.668,398.352,284.445,398.352Z" transform="translate(-143.044 -268.937)" fill="#493b88"/>
          <path id="Trazado_71548" data-name="Trazado 71548" d="M296.555,398.352h-8.994c-.224,0-.418-.068-.434-.151l-.62-3.3c-.015-.081.15-.146.37-.146H295.7c.22,0,.413.065.433.146l.787,3.3C296.944,398.284,296.78,398.352,296.555,398.352Z" transform="translate(-143.475 -268.937)" fill="#493b88"/>
          <path id="Trazado_71549" data-name="Trazado 71549" d="M311.888,403.883h-7.009c-.891,0-1.686-.277-1.774-.616l-.258-.989c-.088-.335.555-.606,1.437-.606h6.931c.882,0,1.681.271,1.786.606l.31.989C313.415,403.606,312.779,403.883,311.888,403.883Z" transform="translate(-144.067 -269.579)" fill="#493b88"/>
          <path id="Trazado_71550" data-name="Trazado 71550" d="M324.347,403.883h-7.009c-.891,0-1.7-.277-1.812-.616l-.318-.989c-.108-.335.518-.606,1.4-.606h6.931c.882,0,1.7.271,1.822.606l.369.989C325.857,403.606,325.238,403.883,324.347,403.883Z" transform="translate(-144.515 -269.579)" fill="#493b88"/>
          <path id="Trazado_71551" data-name="Trazado 71551" d="M323.413,401.16h-6.923c-.88,0-1.68-.27-1.787-.6l-.31-.964c-.105-.328.516-.592,1.386-.592h6.847c.87,0,1.675.264,1.8.592l.36.964C324.906,400.891,324.293,401.16,323.413,401.16Z" transform="translate(-144.486 -269.331)" fill="#493b88"/>
          <path id="Trazado_71552" data-name="Trazado 71552" d="M336.806,403.883H329.8c-.892,0-1.719-.277-1.85-.616l-.379-.989c-.127-.335.483-.606,1.365-.606h6.931c.882,0,1.713.271,1.859.606l.429.989C338.3,403.606,337.7,403.883,336.806,403.883Z" transform="translate(-144.963 -269.579)" fill="#493b88"/>
          <path id="Trazado_71553" data-name="Trazado 71553" d="M206.467,393.794h-8.8c-.22,0-.38-.065-.358-.145l.835-3.158c.02-.078.211-.141.426-.141h8.642c.215,0,.376.063.36.141l-.676,3.158C206.878,393.728,206.686,393.794,206.467,393.794Z" transform="translate(-140.242 -268.527)" fill="#493b88"/>
          <path id="Trazado_71554" data-name="Trazado 71554" d="M218.436,393.794h-8.8c-.22,0-.385-.065-.368-.145l.644-3.158c.016-.078.2-.141.418-.141h8.642c.215,0,.38.063.368.141l-.484,3.158C218.843,393.728,218.655,393.794,218.436,393.794Z" transform="translate(-140.675 -268.527)" fill="#493b88"/>
          <path id="Trazado_71555" data-name="Trazado 71555" d="M230.4,393.794h-8.8c-.22,0-.388-.065-.377-.145l.452-3.158c.011-.078.195-.141.41-.141h8.642c.215,0,.384.063.377.141l-.292,3.158C230.808,393.728,230.624,393.794,230.4,393.794Z" transform="translate(-141.109 -268.527)" fill="#493b88"/>
          <path id="Trazado_71556" data-name="Trazado 71556" d="M242.3,393.794h-8.8c-.22,0-.392-.065-.386-.145l.261-3.158c.006-.078.186-.141.4-.141h8.642c.215,0,.387.063.385.141l-.1,3.158C242.7,393.728,242.519,393.794,242.3,393.794Z" transform="translate(-141.54 -268.527)" fill="#493b88"/>
          <path id="Trazado_71557" data-name="Trazado 71557" d="M254.269,393.794h-8.8c-.22,0-.4-.065-.394-.145l.068-3.158c0-.078.178-.141.393-.141h8.641c.216,0,.392.063.394.141l.091,3.158C254.664,393.728,254.488,393.794,254.269,393.794Z" transform="translate(-141.973 -268.527)" fill="#493b88"/>
          <path id="Trazado_71558" data-name="Trazado 71558" d="M265.721,393.794h-8.8c-.219,0-.4-.065-.4-.145l-.116-3.158c0-.078.17-.141.386-.141h8.641c.215,0,.4.063.4.141l.275,3.158C266.112,393.728,265.94,393.794,265.721,393.794Z" transform="translate(-142.384 -268.527)" fill="#493b88"/>
          <path id="Trazado_71559" data-name="Trazado 71559" d="M277.573,393.794h-8.8c-.219,0-.4-.065-.41-.145l-.306-3.158c-.007-.078.161-.141.376-.141h8.642c.215,0,.4.063.411.141l.465,3.158C277.96,393.728,277.792,393.794,277.573,393.794Z" transform="translate(-142.806 -268.527)" fill="#493b88"/>
          <path id="Trazado_71560" data-name="Trazado 71560" d="M289.424,393.794h-8.8c-.22,0-.408-.065-.42-.145l-.5-3.158c-.013-.078.152-.141.368-.141h8.641c.215,0,.4.063.419.141l.655,3.158C289.808,393.728,289.644,393.794,289.424,393.794Z" transform="translate(-143.229 -268.527)" fill="#493b88"/>
          <path id="Trazado_71561" data-name="Trazado 71561" d="M301.2,393.794h-8.8c-.22,0-.411-.065-.429-.145l-.684-3.158c-.017-.078.144-.141.36-.141h8.641c.216,0,.407.063.427.141l.845,3.158C301.583,393.728,301.422,393.794,301.2,393.794Z" transform="translate(-143.648 -268.527)" fill="#493b88"/>
          <path id="Trazado_71562" data-name="Trazado 71562" d="M312.982,393.794h-8.8c-.22,0-.415-.065-.438-.145l-.873-3.158c-.021-.078.136-.141.351-.141h8.641c.216,0,.41.063.436.141l1.034,3.158C313.357,393.728,313.2,393.794,312.982,393.794Z" transform="translate(-144.068 -268.527)" fill="#493b88"/>
          <path id="Trazado_71563" data-name="Trazado 71563" d="M308.547,398.352h-8.994c-.224,0-.422-.068-.442-.151l-.817-3.3c-.019-.081.143-.146.362-.146h8.827c.22,0,.417.065.441.146l.983,3.3C308.933,398.284,308.772,398.352,308.547,398.352Z" transform="translate(-143.902 -268.937)" fill="#493b88"/>
          <path id="Trazado_71564" data-name="Trazado 71564" d="M333.542,393.794H316.547c-.3,0-.575-.09-.613-.2l-1.033-3.052c-.037-.106.173-.192.469-.192h16.686c.3,0,.572.086.619.192L334,393.594C334.048,393.7,333.842,393.794,333.542,393.794Z" transform="translate(-144.504 -268.527)" fill="#493b88"/>
          <path id="Trazado_71565" data-name="Trazado 71565" d="M335.072,398.352H311.784c-.355,0-.676-.107-.716-.24l-.96-3.123c-.039-.128.211-.231.559-.231h22.857c.348,0,.675.1.731.231l1.355,3.123C335.667,398.245,335.427,398.352,335.072,398.352Z" transform="translate(-144.331 -268.937)" fill="#493b88"/>
          <path id="Trazado_71566" data-name="Trazado 71566" d="M182.31,393.794H165.132c-.3,0-.509-.09-.462-.2l1.314-3.05c.045-.106.324-.193.621-.193h16.866c.3,0,.509.087.473.193l-1.02,3.05C182.887,393.7,182.612,393.794,182.31,393.794Z" transform="translate(-139.058 -268.527)" fill="#493b88"/>
          <path id="Trazado_71567" data-name="Trazado 71567" d="M186.806,398.352H163.178c-.358,0-.6-.108-.543-.241l1.346-3.12c.056-.129.385-.233.735-.233h23.19c.35,0,.6.1.564.233l-.945,3.12C187.485,398.244,187.163,398.352,186.806,398.352Z" transform="translate(-138.984 -268.937)" fill="#493b88"/>
          <path id="Trazado_71568" data-name="Trazado 71568" d="M204.7,389.425h-8.617c-.215,0-.372-.062-.35-.139l.842-3.028c.021-.074.208-.134.419-.134h8.464c.211,0,.368.06.351.134l-.689,3.028C205.1,389.363,204.917,389.425,204.7,389.425Z" transform="translate(-140.185 -268.135)" fill="#493b88"/>
          <path id="Trazado_71569" data-name="Trazado 71569" d="M216.288,389.425h-8.617c-.214,0-.375-.062-.358-.139l.661-3.028c.015-.074.2-.134.411-.134h8.464c.211,0,.372.06.359.134l-.508,3.028C216.687,389.363,216.5,389.425,216.288,389.425Z" transform="translate(-140.604 -268.135)" fill="#493b88"/>
          <path id="Trazado_71570" data-name="Trazado 71570" d="M227.947,389.425H219.33c-.215,0-.379-.062-.366-.139l.477-3.028c.012-.074.193-.134.4-.134h8.464c.211,0,.376.06.367.134l-.324,3.028C228.342,389.363,228.162,389.425,227.947,389.425Z" transform="translate(-141.027 -268.135)" fill="#493b88"/>
          <path id="Trazado_71571" data-name="Trazado 71571" d="M239.6,389.425h-8.617c-.214,0-.382-.062-.375-.139l.295-3.028c.008-.074.184-.134.4-.134h8.464c.21,0,.379.06.375.134L240,389.286C240,389.363,239.82,389.425,239.6,389.425Z" transform="translate(-141.449 -268.135)" fill="#493b88"/>
          <path id="Trazado_71572" data-name="Trazado 71572" d="M251.191,389.425h-8.617c-.214,0-.385-.062-.384-.139l.113-3.028c0-.074.176-.134.387-.134h8.464c.21,0,.382.06.383.134l.041,3.028C251.58,389.363,251.406,389.425,251.191,389.425Z" transform="translate(-141.869 -268.135)" fill="#493b88"/>
          <path id="Trazado_71573" data-name="Trazado 71573" d="M262.513,389.425H253.9c-.214,0-.389-.062-.391-.139l-.066-3.028c0-.074.169-.134.379-.134h8.464c.211,0,.386.06.391.134l.219,3.028C262.9,389.363,262.728,389.425,262.513,389.425Z" transform="translate(-142.276 -268.135)" fill="#493b88"/>
          <path id="Trazado_71574" data-name="Trazado 71574" d="M274.259,389.425h-8.617c-.214,0-.393-.062-.4-.139l-.25-3.028c-.006-.074.16-.134.37-.134h8.465c.21,0,.389.06.4.134l.4,3.028C274.64,389.363,274.474,389.425,274.259,389.425Z" transform="translate(-142.695 -268.135)" fill="#493b88"/>
          <path id="Trazado_71575" data-name="Trazado 71575" d="M285.863,389.425h-8.617c-.214,0-.4-.062-.409-.139l-.432-3.028c-.011-.074.151-.134.362-.134h8.464c.211,0,.393.06.408.134l.585,3.028C286.24,389.363,286.078,389.425,285.863,389.425Z" transform="translate(-143.109 -268.135)" fill="#493b88"/>
          <path id="Trazado_71576" data-name="Trazado 71576" d="M297.276,389.425h-8.617c-.215,0-.4-.062-.417-.139l-.611-3.028c-.016-.074.144-.134.355-.134h8.463c.211,0,.4.06.416.134l.764,3.028C297.649,389.363,297.49,389.425,297.276,389.425Z" transform="translate(-143.516 -268.135)" fill="#493b88"/>
          <path id="Trazado_71577" data-name="Trazado 71577" d="M309.166,389.425h-8.617c-.214,0-.4-.062-.425-.139l-.8-3.028c-.019-.074.136-.134.346-.134h8.464c.211,0,.4.06.424.134l.952,3.028C309.535,389.363,309.381,389.425,309.166,389.425Z" transform="translate(-143.94 -268.135)" fill="#493b88"/>
          <path id="Trazado_71578" data-name="Trazado 71578" d="M320.531,389.425h-8.617c-.215,0-.409-.062-.434-.139l-.977-3.028c-.024-.074.127-.134.338-.134H319.3c.211,0,.4.06.432.134l1.13,3.028C320.9,389.363,320.746,389.425,320.531,389.425Z" transform="translate(-144.345 -268.135)" fill="#493b88"/>
          <path id="Trazado_71579" data-name="Trazado 71579" d="M332.229,389.425h-8.617c-.214,0-.413-.062-.441-.139l-1.161-3.028c-.029-.074.12-.134.33-.134H330.8c.211,0,.409.06.44.134l1.315,3.028C332.591,389.363,332.444,389.425,332.229,389.425Z" transform="translate(-144.762 -268.135)" fill="#493b88"/>
          <path id="Trazado_71580" data-name="Trazado 71580" d="M188.467,385.237h-8.44c-.21,0-.359-.06-.331-.133l1.073-2.907c.026-.072.215-.129.421-.129h8.293c.207,0,.356.057.334.129l-.926,2.907C188.867,385.177,188.677,385.237,188.467,385.237Z" transform="translate(-139.603 -267.758)" fill="#493b88"/>
          <path id="Trazado_71581" data-name="Trazado 71581" d="M199.7,385.237h-8.441c-.21,0-.361-.06-.339-.133l.9-2.907c.021-.072.207-.129.413-.129h8.293c.206,0,.359.057.34.129l-.753,2.907C200.095,385.177,199.909,385.237,199.7,385.237Z" transform="translate(-140.01 -267.758)" fill="#493b88"/>
          <path id="Trazado_71582" data-name="Trazado 71582" d="M211.211,385.237h-8.441c-.21,0-.365-.06-.347-.133l.723-2.907c.017-.072.2-.129.406-.129h8.293c.206,0,.362.057.349.129l-.576,2.907C211.6,385.177,211.421,385.237,211.211,385.237Z" transform="translate(-140.427 -267.758)" fill="#493b88"/>
          <path id="Trazado_71583" data-name="Trazado 71583" d="M222.437,385.237H214c-.21,0-.369-.06-.355-.133l.55-2.907c.013-.072.192-.129.4-.129h8.293c.206,0,.366.057.356.129l-.4,2.907C222.825,385.177,222.647,385.237,222.437,385.237Z" transform="translate(-140.834 -267.758)" fill="#493b88"/>
          <path id="Trazado_71584" data-name="Trazado 71584" d="M234.014,385.237h-8.44c-.211,0-.373-.06-.364-.133l.372-2.907c.01-.072.184-.129.39-.129h8.293c.207,0,.37.057.364.129l-.225,2.907C234.4,385.177,234.224,385.237,234.014,385.237Z" transform="translate(-141.253 -267.758)" fill="#493b88"/>
          <path id="Trazado_71585" data-name="Trazado 71585" d="M245.141,385.237H236.7c-.21,0-.376-.06-.371-.133l.2-2.907c0-.072.176-.129.383-.129h8.293c.207,0,.373.057.372.129l-.054,2.907C245.522,385.177,245.351,385.237,245.141,385.237Z" transform="translate(-141.656 -267.758)" fill="#493b88"/>
          <path id="Trazado_71586" data-name="Trazado 71586" d="M256.7,385.237h-8.44c-.21,0-.38-.06-.38-.133l.023-2.907c0-.072.168-.129.375-.129h8.293c.206,0,.376.057.379.129l.124,2.907C257.078,385.177,256.91,385.237,256.7,385.237Z" transform="translate(-142.075 -267.758)" fill="#493b88"/>
          <path id="Trazado_71587" data-name="Trazado 71587" d="M267.925,385.237h-8.44c-.21,0-.384-.06-.387-.133l-.15-2.907c0-.072.161-.129.367-.129h8.293c.206,0,.38.057.387.129l.3,2.907C268.3,385.177,268.136,385.237,267.925,385.237Z" transform="translate(-142.476 -267.758)" fill="#493b88"/>
          <path id="Trazado_71588" data-name="Trazado 71588" d="M279.455,385.237h-8.44c-.21,0-.387-.06-.4-.133l-.328-2.907c-.009-.072.152-.129.359-.129h8.292c.207,0,.384.057.4.129l.475,2.907C279.825,385.177,279.665,385.237,279.455,385.237Z" transform="translate(-142.887 -267.758)" fill="#493b88"/>
          <path id="Trazado_71589" data-name="Trazado 71589" d="M290.961,385.237h-8.441c-.21,0-.391-.06-.4-.133l-.505-2.907c-.012-.072.145-.129.352-.129h8.293c.206,0,.387.057.4.129l.651,2.907C291.328,385.177,291.171,385.237,290.961,385.237Z" transform="translate(-143.298 -267.758)" fill="#493b88"/>
          <path id="Trazado_71590" data-name="Trazado 71590" d="M302.349,385.237h-8.44c-.21,0-.4-.06-.412-.133l-.681-2.907c-.016-.072.138-.129.344-.129h8.293c.206,0,.39.057.411.129l.828,2.907C302.714,385.177,302.559,385.237,302.349,385.237Z" transform="translate(-143.704 -267.758)" fill="#493b88"/>
          <path id="Trazado_71591" data-name="Trazado 71591" d="M313.295,385.237h-8.44c-.21,0-.4-.06-.419-.133l-.849-2.907c-.021-.072.129-.129.336-.129h8.293c.206,0,.393.057.417.129l1,2.907C313.654,385.177,313.5,385.237,313.295,385.237Z" transform="translate(-144.094 -267.758)" fill="#493b88"/>
          <path id="Trazado_71592" data-name="Trazado 71592" d="M329.523,385.237H316.9c-.584,0-1.116-.166-1.188-.37l-.86-2.44c-.069-.2.339-.358.913-.358h12.4c.573,0,1.108.16,1.194.358l1.057,2.44C330.508,385.071,330.106,385.237,329.523,385.237Z" transform="translate(-144.502 -267.758)" fill="#493b88"/>
          <path id="Trazado_71593" data-name="Trazado 71593" d="M180.331,389.425H167.443c-.6,0-1.005-.172-.914-.386l1.095-2.543c.09-.206.636-.373,1.221-.373H181.5c.586,0,1,.167.93.373l-.89,2.543C181.47,389.253,180.927,389.425,180.331,389.425Z" transform="translate(-139.125 -268.135)" fill="#493b88"/>
          <rect id="Rectángulo_8348" data-name="Rectángulo 8348" width="25.153" height="4.16" transform="translate(34.086 100.782)" fill="#493b88"/>
          <rect id="Rectángulo_8349" data-name="Rectángulo 8349" width="25.153" height="4.234" transform="translate(155.132 100.716)" fill="#493b88"/>
          <path id="Trazado_71594" data-name="Trazado 71594" d="M280.555,422.131l-2.356-15.2a1.542,1.542,0,0,0-1.553-1.264H221.667a1.756,1.756,0,0,0-1.763,1.415l-2.57,15.113a1.056,1.056,0,0,0,1.085,1.2H248.84v-9.234h1.566v9.234h28.968A1.146,1.146,0,0,0,280.555,422.131Z" transform="translate(-140.967 -269.95)" fill="#493b88"/>
        </g>
        <g id="Grupo_39332" data-name="Grupo 39332" transform="translate(108.576 0)">
          <path id="Trazado_71595" data-name="Trazado 71595" d="M260.027,123.594a22.484,22.484,0,0,1,7.235-10.416,26.752,26.752,0,0,0,10.428-21.032c0-15.624-13.832-28.444-30.856-27.643-15.11.6-27.452,12.619-27.878,26.842a26.792,26.792,0,0,0,10.428,21.833,21.466,21.466,0,0,1,7.448,10.416Z" transform="translate(-203.846 -50.081)" fill="#eec381"/>
          <g id="Grupo_39328" data-name="Grupo 39328" transform="translate(32.984 73.312)">
            <path id="Trazado_71596" data-name="Trazado 71596" d="M242.582,149.96a7.276,7.276,0,0,0,13.194,0Z" transform="translate(-237.687 -131.332)" fill="#493b88"/>
            <path id="Trazado_71597" data-name="Trazado 71597" d="M256.869,148.254H241.334a3.708,3.708,0,0,1-3.831-3.605V129.425h23.2v15.224A3.708,3.708,0,0,1,256.869,148.254Z" transform="translate(-237.503 -129.425)" fill="#493b88"/>
          </g>
          <g id="Grupo_39330" data-name="Grupo 39330" transform="translate(30.644 76.517)">
            <g id="Grupo_39329" data-name="Grupo 39329">
              <path id="Trazado_71598" data-name="Trazado 71598" d="M260.4,137.365H237.415a2.3,2.3,0,0,1-2.34-2.2h0a2.3,2.3,0,0,1,2.34-2.2H260.4a2.3,2.3,0,0,1,2.341,2.2h0A2.3,2.3,0,0,1,260.4,137.365Z" transform="translate(-235.075 -132.958)" fill="#5f4fa9"/>
              <path id="Trazado_71599" data-name="Trazado 71599" d="M260.4,145.093H237.415a2.3,2.3,0,0,1-2.34-2.2h0a2.3,2.3,0,0,1,2.34-2.2H260.4a2.3,2.3,0,0,1,2.341,2.2h0A2.3,2.3,0,0,1,260.4,145.093Z" transform="translate(-235.075 -133.676)" fill="#5f4fa9"/>
            </g>
          </g>
          <g id="Grupo_39331" data-name="Grupo 39331">
            <path id="Trazado_71600" data-name="Trazado 71600" d="M249.347,48.609a2.075,2.075,0,0,0-2.128,2v6.811a2.07,2.07,0,0,0,2.128,2,1.954,1.954,0,0,0,2.128-2V50.612A2.075,2.075,0,0,0,249.347,48.609Z" transform="translate(-204.871 -48.609)" fill="#eec381"/>
            <path id="Trazado_71601" data-name="Trazado 71601" d="M219.7,62.016a2.148,2.148,0,0,0-2.98,0,1.86,1.86,0,0,0,0,2.8l5.108,4.807a2.147,2.147,0,0,0,2.979,0,1.859,1.859,0,0,0,0-2.8Z" transform="translate(-203.742 -49.798)" fill="#eec381"/>
            <path id="Trazado_71602" data-name="Trazado 71602" d="M212.642,92.55h-7.236a2.075,2.075,0,0,0-2.128,2h0a2.07,2.07,0,0,0,2.128,2h7.236a2.075,2.075,0,0,0,2.128-2h0A2.225,2.225,0,0,0,212.642,92.55Z" transform="translate(-203.278 -52.689)" fill="#eec381"/>
            <path id="Trazado_71603" data-name="Trazado 71603" d="M221.831,118.985l-5.108,4.808a1.859,1.859,0,0,0,0,2.8,2.148,2.148,0,0,0,2.98,0l5.107-4.808a1.859,1.859,0,0,0,0-2.8A2.147,2.147,0,0,0,221.831,118.985Z" transform="translate(-203.742 -55.088)" fill="#eec381"/>
            <path id="Trazado_71604" data-name="Trazado 71604" d="M276.672,118.985a2.148,2.148,0,0,0-2.98,0,1.859,1.859,0,0,0,0,2.8L278.8,126.6a2.147,2.147,0,0,0,2.979,0,1.859,1.859,0,0,0,0-2.8Z" transform="translate(-205.807 -55.088)" fill="#eec381"/>
            <path id="Trazado_71605" data-name="Trazado 71605" d="M293.016,92.55h-7.235a2.075,2.075,0,0,0-2.128,2h0a2.07,2.07,0,0,0,2.128,2h7.235a2.075,2.075,0,0,0,2.128-2h0A2.07,2.07,0,0,0,293.016,92.55Z" transform="translate(-206.192 -52.689)" fill="#eec381"/>
            <path id="Trazado_71606" data-name="Trazado 71606" d="M278.8,62.016l-5.108,4.808a1.859,1.859,0,0,0,0,2.8,2.147,2.147,0,0,0,2.979,0l5.108-4.807a1.86,1.86,0,0,0,0-2.8A2.147,2.147,0,0,0,278.8,62.016Z" transform="translate(-205.807 -49.798)" fill="#eec381"/>
          </g>
          <path id="Trazado_71607" data-name="Trazado 71607" d="M238.625,125.2c4-6.962,6.283-14.5,8.285-22.155.9-3.441,3.464-12.189-2.111-13.76-4.736-1.334-7.881,4.528-7.836,8.026.054,4.267,4.162,11.118,8.608,12.637,5.177,1.771,9.869-4.137,11.688-7.922,1.228-2.554,1.693-5.458.308-8.058-.536-1.006-1.847-2.959-3.328-2.849-4.292.317-3.2,11.152-3.232,13.556-.1,7.315.544,14.442,3.948,21.117.683,1.342,2.8.17,2.121-1.167-3.681-7.222-3.782-15.139-3.537-22.988.046-1.467.041-2.953.212-4.412.564-4.819,2.286-1.5,2.223.565-.15,5-6.3,12.6-11.745,8.253-2.949-2.356-6.387-7.993-4.19-11.5q.844-3.071,5.46-1.033a10.06,10.06,0,0,1,.064,4.726c-.239,1.407-.659,2.813-1.022,4.194-1.954,7.456-4.132,14.813-8.038,21.6-.753,1.309,1.368,2.478,2.121,1.167Z" transform="translate(-204.477 -52.367)" fill="#fff"/>
        </g>
        <path id="Trazado_71608" data-name="Trazado 71608" d="M378.9,226.942a5.326,5.326,0,0,1,7.032,1.748,4.691,4.691,0,0,1-1.857,6.62,5.326,5.326,0,0,1-7.032-1.748A4.691,4.691,0,0,1,378.9,226.942Zm-8.111-17.829a26.127,26.127,0,0,0-4.357,2.388l1.349,3.6a21.212,21.212,0,0,0-3.421,3.243L360.53,217.1a23.854,23.854,0,0,0-2.5,4.118L361.1,223.7a19.658,19.658,0,0,0-1.239,4.418l-3.978.727a22.762,22.762,0,0,0,.018,4.745l3.984.7a19.577,19.577,0,0,0,1.273,4.41l-3.059,2.5a23.879,23.879,0,0,0,2.536,4.1l3.822-1.269a21.274,21.274,0,0,0,3.445,3.219l-1.32,3.606a26.174,26.174,0,0,0,4.375,2.359l2.635-2.9a22.939,22.939,0,0,0,4.693,1.167l.772,3.744a27.293,27.293,0,0,0,5.042-.017l.743-3.749a22.959,22.959,0,0,0,4.685-1.2l2.657,2.88a26.077,26.077,0,0,0,4.356-2.388l-1.347-3.6a21.248,21.248,0,0,0,3.42-3.243l3.831,1.243a23.84,23.84,0,0,0,2.5-4.118l-3.078-2.481a19.61,19.61,0,0,0,1.239-4.418l3.978-.727a22.836,22.836,0,0,0-.018-4.745l-3.984-.7a19.58,19.58,0,0,0-1.273-4.41l3.059-2.5a23.844,23.844,0,0,0-2.537-4.1l-3.821,1.269A21.238,21.238,0,0,0,395.072,215l1.321-3.607a26.275,26.275,0,0,0-4.375-2.358l-2.635,2.9a22.937,22.937,0,0,0-4.694-1.167l-.772-3.745a27.294,27.294,0,0,0-5.041.017l-.743,3.749a22.937,22.937,0,0,0-4.684,1.2Z" transform="translate(-100.23 -63.308)" fill="#d78dcc" fill-rule="evenodd"/>
        <path id="Trazado_71609" data-name="Trazado 71609" d="M338.052,203.5a8.442,8.442,0,0,1,11.42.258A7.3,7.3,0,0,1,349.2,214.5a8.44,8.44,0,0,1-11.418-.259A7.294,7.294,0,0,1,338.052,203.5Zm-5.32-7.622a17.294,17.294,0,0,0-2.511,2.252l1.512,2.205a14.015,14.015,0,0,0-1.74,2.683l-2.775-.256a15.96,15.96,0,0,0-.978,3.132l2.481,1.2a13.352,13.352,0,0,0-.08,3.143l-2.54,1.083a15.791,15.791,0,0,0,.817,3.173l2.784-.131a13.854,13.854,0,0,0,1.6,2.76l-1.624,2.134a17.155,17.155,0,0,0,2.394,2.363l2.342-1.423a15.253,15.253,0,0,0,2.851,1.637L337,224.44a18.533,18.533,0,0,0,3.328.92l1.272-2.334a15.984,15.984,0,0,0,3.339.075l1.152,2.39a18.617,18.617,0,0,0,3.371-.769l-.139-2.621a15.39,15.39,0,0,0,2.933-1.506l2.267,1.528a17.248,17.248,0,0,0,2.511-2.253l-1.512-2.2a14.019,14.019,0,0,0,1.74-2.684l2.775.257a15.93,15.93,0,0,0,.978-3.132l-2.481-1.2a13.344,13.344,0,0,0,.08-3.143l2.54-1.084a15.777,15.777,0,0,0-.817-3.172l-2.784.13a13.946,13.946,0,0,0-1.6-2.76l1.624-2.134a17.109,17.109,0,0,0-2.394-2.363l-2.342,1.423a15.2,15.2,0,0,0-2.852-1.637l.273-2.612a18.469,18.469,0,0,0-3.327-.921l-1.273,2.335a15.982,15.982,0,0,0-3.339-.075l-1.152-2.39a18.6,18.6,0,0,0-3.371.768l.139,2.622A15.277,15.277,0,0,0,335,197.4Z" transform="translate(-99.155 -61.97)" fill="#5f4fa9" fill-rule="evenodd"/>
        <path id="Trazado_71610" data-name="Trazado 71610" d="M354.6,147.064a6.581,6.581,0,0,1,8.89-.586,5.7,5.7,0,0,1,.623,8.368,6.582,6.582,0,0,1-8.89.586A5.7,5.7,0,0,1,354.6,147.064Zm-4.725-5.553a13.292,13.292,0,0,0-1.775,1.923l1.346,1.607a10.83,10.83,0,0,0-1.142,2.2l-2.175-.007a12.352,12.352,0,0,0-.516,2.5l2.02.759a10.424,10.424,0,0,0,.182,2.447l-1.888,1.017a12.452,12.452,0,0,0,.882,2.408l2.152-.293a11.023,11.023,0,0,0,1.457,2.033l-1.095,1.77a13.567,13.567,0,0,0,2.043,1.67l1.709-1.267a12,12,0,0,0,2.342,1.076L355.4,163.4a14.537,14.537,0,0,0,2.656.486l.807-1.9a12.472,12.472,0,0,0,2.6-.171l1.08,1.777a14.467,14.467,0,0,0,2.559-.83l-.312-2.026a11.846,11.846,0,0,0,2.161-1.373l1.879,1.031a13.225,13.225,0,0,0,1.775-1.922l-1.346-1.607a10.813,10.813,0,0,0,1.142-2.205l2.175.008a12.378,12.378,0,0,0,.516-2.5l-2.02-.759a10.425,10.425,0,0,0-.182-2.447l1.888-1.017a12.471,12.471,0,0,0-.882-2.408l-2.152.293a11.063,11.063,0,0,0-1.457-2.033l1.095-1.769a13.572,13.572,0,0,0-2.043-1.671l-1.708,1.267a12.031,12.031,0,0,0-2.343-1.075l.009-2.047a14.615,14.615,0,0,0-2.656-.485l-.806,1.9a12.407,12.407,0,0,0-2.6.171l-1.08-1.777a14.392,14.392,0,0,0-2.559.829l.312,2.027a11.751,11.751,0,0,0-2.16,1.372Z" transform="translate(-99.862 -56.911)" fill="#eec381" fill-rule="evenodd"/>
        <path id="Trazado_71611" data-name="Trazado 71611" d="M125.467,258.235a2.6,2.6,0,0,1,3.516.081,2.244,2.244,0,0,1-.084,3.309,2.6,2.6,0,0,1-3.517-.08A2.246,2.246,0,0,1,125.467,258.235Zm-5.941-7.531a12.164,12.164,0,0,0-1.765,1.584l1.062,1.549a9.89,9.89,0,0,0-1.222,1.887l-1.951-.181a11.2,11.2,0,0,0-.687,2.2l1.743.842a9.418,9.418,0,0,0-.057,2.21l-1.785.762a11.15,11.15,0,0,0,.574,2.231l1.957-.092a9.86,9.86,0,0,0,1.125,1.94l-1.141,1.5a12.065,12.065,0,0,0,1.682,1.661l1.646-1a10.716,10.716,0,0,0,2,1.15l-.192,1.836a13.053,13.053,0,0,0,2.34.648l.894-1.642a11.214,11.214,0,0,0,2.347.054l.81,1.68a13.026,13.026,0,0,0,2.37-.541l-.1-1.843a10.748,10.748,0,0,0,2.061-1.059l1.593,1.074a12.174,12.174,0,0,0,1.766-1.583l-1.064-1.549a9.841,9.841,0,0,0,1.222-1.887l1.952.18a11.1,11.1,0,0,0,.687-2.2l-1.743-.842a9.31,9.31,0,0,0,.056-2.209l1.785-.762a11.14,11.14,0,0,0-.573-2.231l-1.957.092a9.842,9.842,0,0,0-1.125-1.939l1.141-1.5a12.065,12.065,0,0,0-1.683-1.661l-1.646,1a10.654,10.654,0,0,0-2-1.15l.192-1.836a13.014,13.014,0,0,0-2.34-.648l-.894,1.642a11.154,11.154,0,0,0-2.347-.054l-.81-1.68a13.027,13.027,0,0,0-2.369.541l.1,1.842a10.763,10.763,0,0,0-2.061,1.059Z" transform="translate(-91.497 -67.154)" fill="#5f4fa9" fill-rule="evenodd"/>
        <path id="Trazado_71612" data-name="Trazado 71612" d="M152.073,137.868a6.84,6.84,0,0,1-2.695,9.657,7.766,7.766,0,0,1-10.258-2.536,6.837,6.837,0,0,1,2.694-9.656A7.767,7.767,0,0,1,152.073,137.868Zm27.6-11.168a34.821,34.821,0,0,0-3.707-5.975l-5.57,1.859a30.927,30.927,0,0,0-5.03-4.688l1.918-5.261A38.157,38.157,0,0,0,160.9,109.2l-3.837,4.231a33.459,33.459,0,0,0-6.846-1.693l-1.133-5.459a39.8,39.8,0,0,0-7.351.035l-1.076,5.469a33.41,33.41,0,0,0-6.828,1.756l-3.881-4.194a38.177,38.177,0,0,0-6.348,3.489l1.974,5.243a30.946,30.946,0,0,0-4.98,4.734l-5.59-1.805a34.8,34.8,0,0,0-3.643,6.01l4.494,3.611a28.574,28.574,0,0,0-1.8,6.444l-5.8,1.067a33.211,33.211,0,0,0,.037,6.92l5.81,1.012a28.642,28.642,0,0,0,1.866,6.427l-4.455,3.652a34.809,34.809,0,0,0,3.708,5.975l5.569-1.858a31.009,31.009,0,0,0,5.03,4.688l-1.918,5.261a38.158,38.158,0,0,0,6.385,3.43l3.837-4.23a33.446,33.446,0,0,0,6.846,1.693l1.133,5.458a39.88,39.88,0,0,0,7.352-.034l1.076-5.469a33.446,33.446,0,0,0,6.827-1.756l3.882,4.194a38.076,38.076,0,0,0,6.347-3.49l-1.974-5.242a30.917,30.917,0,0,0,4.981-4.734l5.59,1.805a34.939,34.939,0,0,0,3.644-6.01l-4.495-3.611a28.571,28.571,0,0,0,1.8-6.444l5.8-1.067a33.218,33.218,0,0,0-.037-6.92l-5.81-1.012a28.634,28.634,0,0,0-1.867-6.427Z" transform="translate(-91.252 -53.95)" fill="#5f4fa9" fill-rule="evenodd"/>
        <path id="Trazado_71613" data-name="Trazado 71613" d="M198.207,178.742a10.637,10.637,0,0,1-.378,15.674,12.309,12.309,0,0,1-16.652-.357,10.637,10.637,0,0,1,.379-15.674A12.309,12.309,0,0,1,198.207,178.742Zm11.8-7.317a25,25,0,0,0-3.495-3.442l-3.412,2.08a22.265,22.265,0,0,0-4.162-2.382l.392-3.808a26.952,26.952,0,0,0-4.854-1.336l-1.85,3.407a23.3,23.3,0,0,0-4.869-.105l-1.684-3.483a27.126,27.126,0,0,0-4.914,1.128l.207,3.822a22.336,22.336,0,0,0-4.271,2.2l-3.309-2.224a25.154,25.154,0,0,0-3.656,3.289l2.21,3.212a20.46,20.46,0,0,0-2.531,3.916l-4.047-.368a23.218,23.218,0,0,0-1.42,4.569l3.62,1.742a19.44,19.44,0,0,0-.111,4.582l-3.7,1.586a23.038,23.038,0,0,0,1.2,4.626l4.059-.2a20.347,20.347,0,0,0,2.339,4.022l-2.362,3.113a24.954,24.954,0,0,0,3.495,3.443l3.412-2.081a22.192,22.192,0,0,0,4.162,2.382l-.391,3.809a27.011,27.011,0,0,0,4.853,1.336l1.851-3.407a23.3,23.3,0,0,0,4.869.1l1.684,3.482a27.116,27.116,0,0,0,4.913-1.128l-.207-3.822a22.316,22.316,0,0,0,4.272-2.2l3.309,2.223a25.151,25.151,0,0,0,3.656-3.289l-2.21-3.211a20.413,20.413,0,0,0,2.531-3.917l4.046.369a23.219,23.219,0,0,0,1.421-4.569l-3.621-1.742a19.4,19.4,0,0,0,.111-4.583l3.7-1.586a23.178,23.178,0,0,0-1.2-4.626l-4.06.2a20.281,20.281,0,0,0-2.338-4.021Z" transform="translate(-93.284 -59.17)" fill="#d78dcc" fill-rule="evenodd"/>
        <path id="Trazado_71614" data-name="Trazado 71614" d="M152,197.667a2.329,2.329,0,0,1-.083,3.433,2.7,2.7,0,0,1-3.648-.077,2.33,2.33,0,0,1,.083-3.434A2.7,2.7,0,0,1,152,197.667Zm8.29-5.81a12.494,12.494,0,0,0-1.747-1.721l-1.706,1.04a11.141,11.141,0,0,0-2.081-1.19l.2-1.9a13.435,13.435,0,0,0-2.427-.668l-.925,1.7a11.682,11.682,0,0,0-2.434-.053l-.842-1.742a13.488,13.488,0,0,0-2.457.564l.1,1.911a11.2,11.2,0,0,0-2.136,1.1l-1.655-1.112a12.555,12.555,0,0,0-1.828,1.645l1.105,1.606a10.152,10.152,0,0,0-1.265,1.959l-2.023-.185a11.631,11.631,0,0,0-.71,2.285l1.81.871a9.746,9.746,0,0,0-.055,2.291l-1.85.793a11.564,11.564,0,0,0,.6,2.312l2.031-.1a10.137,10.137,0,0,0,1.169,2.011l-1.181,1.558a12.49,12.49,0,0,0,1.747,1.721l1.7-1.04a11.141,11.141,0,0,0,2.081,1.19l-.195,1.9a13.489,13.489,0,0,0,2.427.669l.925-1.7a11.616,11.616,0,0,0,2.434.052l.842,1.742a13.484,13.484,0,0,0,2.457-.564l-.1-1.91a11.255,11.255,0,0,0,2.137-1.1l1.654,1.111a12.6,12.6,0,0,0,1.828-1.645l-1.1-1.606a10.253,10.253,0,0,0,1.264-1.959l2.024.184a11.58,11.58,0,0,0,.709-2.284l-1.81-.872a9.736,9.736,0,0,0,.056-2.291l1.849-.793a11.553,11.553,0,0,0-.6-2.312l-2.03.1a10.146,10.146,0,0,0-1.17-2.011Z" transform="translate(-92.312 -61.488)" fill="#eec381" fill-rule="evenodd"/>
        <g id="Grupo_39333" data-name="Grupo 39333" transform="translate(252.638 271.327)">
          <path id="Trazado_71615" data-name="Trazado 71615" d="M382.746,371.541h.022c.557-3.059,1.046-5.7,1.476-8.858.111-.89.226-1.842.35-2.825l-.017,0C384.029,363.531,383.378,367.753,382.746,371.541Z" transform="translate(-353.846 -348.835)" fill="none"/>
          <path id="Trazado_71616" data-name="Trazado 71616" d="M382.769,371.542a6.722,6.722,0,0,0,.73.045,6.105,6.105,0,0,0,6.281-5.913,6.023,6.023,0,0,0-5.186-5.816c-.123.982-.239,1.935-.35,2.825C383.815,365.841,383.326,368.483,382.769,371.542Z" transform="translate(-353.847 -348.835)" fill="none"/>
          <path id="Trazado_71617" data-name="Trazado 71617" d="M384.941,356.989c.084-.579-.194,1.234-.366,2.594a6.023,6.023,0,0,1,5.186,5.816,6.105,6.105,0,0,1-6.281,5.913,6.678,6.678,0,0,1-.73-.045c-.3,1.671-.641,3.588-.464,2.581a9.586,9.586,0,0,0,1.194.083,8.809,8.809,0,0,0,9.062-8.531A8.7,8.7,0,0,0,384.941,356.989Z" transform="translate(-353.828 -348.558)" fill="#eec381"/>
          <path id="Trazado_71618" data-name="Trazado 71618" d="M374.3,373.965c-.935-4.292,1.871-7.043,3.274-10.895,1.4-4.292.234-8.914-.818-13.1-.064-.211-.132-.426-.2-.644l-4.285,0-2.977,0-.745-.008c.07.222.139.442.2.657,1.052,4.182,2.221,8.8.818,13.1-1.4,3.852-4.209,6.6-3.274,10.895.7,2.862,1.871,5.282,2.221,8.144.057.451.1.9.133,1.353.943.011,1.971,0,3.1-.033.608-.019,1.237-.044,1.9-.078a14.179,14.179,0,0,0,2.951-.4c-.026-.28-.047-.561-.083-.841C376.175,379.247,375.007,376.827,374.3,373.965Z" transform="translate(-353.243 -347.856)" fill="#d78dcc"/>
          <path id="Trazado_71619" data-name="Trazado 71619" d="M384.868,349.347c0-.811-7.187-1.64-16.054-1.64-8.273,0-15.082.452-15.958,1.137h-.04s0,.1,0,.122a.3.3,0,0,0-.062.167.262.262,0,0,0,.1.184c.432,3.219,3.985,29.487,5.23,31.467.266.682,1.768,2.427,10.083,2.524-.035-.452-.076-.9-.133-1.351-.351-2.861-1.52-5.281-2.222-8.143-.935-4.292,1.871-6.916,3.274-10.768,1.312-4.013.375-8.725-.613-12.149h.335c2.759,0,5.356-.19,7.624-.3,1,4.009,1.987,8.315.656,12.388-1.4,3.852-4.209,6.571-3.274,10.864.7,2.86,1.871,5.266,2.221,8.127.036.28.057.553.083.834l.1-.026a5.832,5.832,0,0,0,2.951-1.595c.017-.016.035-.04.052-.058.036-.045.075-.088.109-.135a2.246,2.246,0,0,0,.152-.251,2.749,2.749,0,0,0,.22-.49,27.387,27.387,0,0,0,1-4.3c.348-2.074.673-3.867.977-5.538h-.022c.632-3.788,1.283-8.01,1.83-11.686l.017,0c.172-1.36.364-2.613.607-4.078.459-3.161.755-5.124.755-5.124h0C384.865,348.844,384.868,349.351,384.868,349.347Z" transform="translate(-352.759 -347.707)" fill="#eec381"/>
          <path id="Trazado_71620" data-name="Trazado 71620" d="M368.792,350.715a77.022,77.022,0,0,1-15.071-1.127,101.349,101.349,0,0,1,30.141,0A77.016,77.016,0,0,1,368.792,350.715Z" transform="translate(-352.794 -347.777)" fill="#493b88"/>
        </g>
        <g id="Grupo_39334" data-name="Grupo 39334" transform="translate(0 308.462)">
          <path id="Trazado_71621" data-name="Trazado 71621" d="M90.618,413.178l25.289-21.133a7.028,7.028,0,0,1,4.577-1.754c.847.055,3.288.048,4.47.122a120.714,120.714,0,0,0,13.73-.38c.053,0,.155.077.193.1a.8.8,0,0,1,.3.287,2.559,2.559,0,0,1,.263,1.345,2.778,2.778,0,0,1-.155.914,2.232,2.232,0,0,1-.514.711c-.281.3-20.582,22.689-20.649,22.762a5.154,5.154,0,0,1-3.967,1.66c-2.645-.042-22.288-2.369-22.288-2.369A3.078,3.078,0,0,1,90.618,413.178Z" transform="translate(-90.618 -388.773)" fill="#493b88"/>
          <path id="Trazado_71622" data-name="Trazado 71622" d="M91.978,411.076,114.6,390.651a6,6,0,0,1,4.36-2c.847.054,4.17.294,5.353.366,5.348.33,13.513.688,13.513.688s2.376.1.757,1.811c-2.271,2.4-21.1,23.245-21.1,23.245a5.154,5.154,0,0,1-3.967,1.66c-.3,0-20.286-2.06-20.989-2.168l-.716-.111a1.24,1.24,0,0,1-1.024-.58C90.23,412.584,91.21,411.628,91.978,411.076Z" transform="translate(-90.618 -388.644)" fill="#a878ec"/>
          <path id="Trazado_71623" data-name="Trazado 71623" d="M104.449,416.694a2.742,2.742,0,0,1-2.118.69c-.662-.113-.779-.6-.272-1.084a2.761,2.761,0,0,1,2.078-.671C104.8,415.733,104.94,416.209,104.449,416.694Z" transform="translate(-91.021 -391.147)" fill="#fff"/>
          <path id="Trazado_71624" data-name="Trazado 71624" d="M128.077,390.61a1.016,1.016,0,0,1-.718.219c-.267-.018-.377-.145-.247-.283a1.021,1.021,0,0,1,.716-.218C128.094,390.346,128.206,390.471,128.077,390.61Z" transform="translate(-91.939 -388.8)" fill="#493b88"/>
          <path id="Trazado_71625" data-name="Trazado 71625" d="M114.2,393.175l1.15-1.055a11.322,11.322,0,0,1,1.442-1.095c.312-.119.306-.271,2.339-.156l15.877,1.144s.911.008,1.108.2c.124.117-.2.55-.73,1.108l-17.236,18.4a4.437,4.437,0,0,1-2.467,1.616,6.219,6.219,0,0,1-2.127.217l-17.815-1.612s-1.788.019-1.212-.6,6.286-5.871,6.286-5.871Z" transform="translate(-90.756 -388.846)" fill="#493b88"/>
          <path id="Trazado_71626" data-name="Trazado 71626" d="M112.422,395.6l-2.812,2.581,23.728-1.727,2.317-2.547Z" transform="translate(-91.306 -389.132)" fill="#5f4fa9"/>
          <path id="Trazado_71627" data-name="Trazado 71627" d="M108.879,399.147l-.926.851,23.635-1.466.815-.87Z" transform="translate(-91.246 -389.481)" fill="#5f4fa9"/>
          <path id="Trazado_71628" data-name="Trazado 71628" d="M96.927,410.88l-.829.775,24.547-.775,1-1.065Z" transform="translate(-90.817 -390.609)" fill="#5f4fa9"/>
          <path id="Trazado_71629" data-name="Trazado 71629" d="M98.554,409.111l24.553-1.106,1.746-1.863-24.51,1.317Z" transform="translate(-90.906 -390.268)" fill="#5f4fa9"/>
        </g>
        <g id="Grupo_39342" data-name="Grupo 39342" transform="translate(258.725 312.925)">
          <g id="Grupo_39336" data-name="Grupo 39336" transform="translate(0.655)">
            <g id="Grupo_39335" data-name="Grupo 39335">
              <path id="Trazado_71630" data-name="Trazado 71630" d="M388.479,406.122c-1.2-1.23-2.433-2.425-3.686-3.6a78.652,78.652,0,0,0-8.154-6.934c-3.471-2.466-7.631-2.451-11.669-1.162a12.766,12.766,0,0,0-4.526,2.031,3.567,3.567,0,0,0-.689.815c1.44,4.747,5.862,8.585,9.571,11.761a18.541,18.541,0,0,0,7.707,4.05,15.324,15.324,0,0,0,13.973-2.549,6.4,6.4,0,0,0-.836-2.513A9.652,9.652,0,0,0,388.479,406.122Z" transform="translate(-359.755 -393.563)" fill="#a878ec"/>
            </g>
          </g>
          <g id="Grupo_39337" data-name="Grupo 39337" transform="translate(0 3.706)">
            <path id="Trazado_71631" data-name="Trazado 71631" d="M377.008,413.461a18.542,18.542,0,0,1-7.707-4.05c-3.708-3.176-8.131-7.014-9.571-11.761a4.335,4.335,0,0,0-.65,2.008,6.486,6.486,0,0,0,1.266,3.579A27.271,27.271,0,0,0,362,405.5q1.069,1.351,2.224,2.636c4.324,4.8,11.154,10.994,18.519,9.348,7.164-1.6,8.409-4.457,8.236-6.574A15.324,15.324,0,0,1,377.008,413.461Z" transform="translate(-359.075 -397.649)" fill="#493b88"/>
          </g>
          <g id="Grupo_39338" data-name="Grupo 39338" transform="translate(8.517 1.095)">
            <path id="Trazado_71632" data-name="Trazado 71632" d="M368.121,395.351c.136.143.3.271.371.336.052.048.975.821,1.04.572.132-.516-.516-1.178-.974-1.374-.121-.052-.365-.16-.5-.093C367.8,394.922,367.931,395.152,368.121,395.351Z" transform="translate(-367.913 -394.771)" fill="#493b88"/>
          </g>
          <g id="Grupo_39341" data-name="Grupo 39341" transform="translate(0.655)">
            <g id="Grupo_39340" data-name="Grupo 39340" clip-path="url(#clip-path)">
              <g id="Grupo_39339" data-name="Grupo 39339" transform="translate(1.994 3.618)">
                <path id="Trazado_71633" data-name="Trazado 71633" d="M361.824,404.151l.6-.943a10.939,10.939,0,0,1,.843-1,13.121,13.121,0,0,1,1.266-1.135l.363-.3.426-.273.9-.575a7.791,7.791,0,0,1,1-.524c.347-.167.7-.338,1.069-.5l1.156-.4.592-.2c.2-.056.409-.1.615-.144l1.246-.281c.422-.073.851-.117,1.278-.176a22.8,22.8,0,0,1,2.564-.152c.424,0,.844.038,1.258.06s.837.041,1.226.1.781.1,1.166.185a10.9,10.9,0,0,1,1.109.259,13.329,13.329,0,0,1,1.959.674c.289.138.569.263.827.395.245.156.475.3.693.444a10.018,10.018,0,0,1,1.026.83c.249.264.414.5.539.641l.185.228s-.3-.294-.813-.781a9.972,9.972,0,0,0-1.075-.724l-.707-.373-.824-.337a12.959,12.959,0,0,0-1.93-.555,10.9,10.9,0,0,0-1.079-.194c-.365-.062-.753-.108-1.15-.145-.775-.079-1.59-.079-2.408-.106a22.426,22.426,0,0,0-2.483.169c-.413.054-.83.092-1.238.159l-1.208.262c-.2.045-.4.082-.6.132l-.575.181-1.13.354-1.049.447a7.308,7.308,0,0,0-.987.455l-.89.5-.426.24-.381.285-.713.536a4.471,4.471,0,0,0-.618.494,10.829,10.829,0,0,0-.913.9Z" transform="translate(-361.824 -397.552)" fill="#493b88"/>
              </g>
            </g>
          </g>
        </g>
        <g id="Grupo_39408" data-name="Grupo 39408" transform="translate(22.254 228.402)">
          <path id="Trazado_71635" data-name="Trazado 71635" d="M147.67,334.566c0,.926-7.157,9.1-16.458,9.1s-17.221-8.174-17.221-9.1,7.921-1.3,17.221-1.3S147.67,333.639,147.67,334.566Z" transform="translate(-113.72 -303.441)" fill="#5f4fa9"/>
          <g id="Grupo_39354" data-name="Grupo 39354" transform="translate(16.14 0)">
            <g id="Grupo_39343" data-name="Grupo 39343" transform="translate(0 60.461)">
              <path id="Trazado_71636" data-name="Trazado 71636" d="M130.457,367.038s0,7.158,1.957,6.963c1.488-.148,2.481-6.761,2.481-6.761Z" transform="translate(-130.457 -367.038)" fill="#847f6e"/>
            </g>
            <g id="Grupo_39346" data-name="Grupo 39346" transform="translate(0 12.421)">
              <g id="Grupo_39345" data-name="Grupo 39345">
                <g id="Grupo_39344" data-name="Grupo 39344">
                  <path id="Trazado_71637" data-name="Trazado 71637" d="M132.909,314.081l-.316,6.187-2.136,41.853,4.438.2,2.136-41.853.316-6.187Z" transform="translate(-130.457 -314.081)" fill="#a878ec"/>
                </g>
              </g>
            </g>
            <g id="Grupo_39348" data-name="Grupo 39348" transform="translate(1.89 19.026)">
              <g id="Grupo_39347" data-name="Grupo 39347" transform="translate(0 0)">
                <path id="Trazado_71709" data-name="Trazado 71709" d="M0,0,41.568.124l0,.667L0,.667Z" transform="translate(0 41.522) rotate(-87.261)" fill="#a878ec"/>
              </g>
            </g>
            <g id="Grupo_39349" data-name="Grupo 39349" transform="translate(1.352)">
              <path id="Trazado_71638" data-name="Trazado 71638" d="M136.254,330.684c1.779.434,2.386-11.464,2.386-11.464s.206-17.8-1.806-18.74-3.873,5.285-4.974,19.26l4.9.221Z" transform="translate(-131.86 -300.388)" fill="#4f54ad"/>
            </g>
            <g id="Grupo_39353" data-name="Grupo 39353" transform="translate(1.352)">
              <path id="Trazado_71639" data-name="Trazado 71639" d="M136.254,330.684c1.4,1.1,2.386-11.464,2.386-11.464s.206-17.8-1.806-18.74-3.873,5.285-4.974,19.26l4.9.221Z" transform="translate(-131.86 -300.388)" fill="#d78dcc"/>
              <g id="Grupo_39352" data-name="Grupo 39352" clip-path="url(#clip-path-2)">
                <g id="Grupo_39351" data-name="Grupo 39351" transform="translate(-0.687 17.462)">
                  <g id="Grupo_39350" data-name="Grupo 39350" transform="translate(0 0)">
                    <path id="Trazado_71710" data-name="Trazado 71710" d="M0,0,.628,0,.65,7.765l-.628,0Z" transform="translate(0 0.649) rotate(-87.249)" fill="#a878ec"/>
                  </g>
                </g>
              </g>
            </g>
          </g>
          <g id="Grupo_39358" data-name="Grupo 39358" transform="translate(0 3.607)">
            <g id="Grupo_39355" data-name="Grupo 39355" transform="translate(6.979 57.015)">
              <path id="Trazado_71641" data-name="Trazado 71641" d="M124.041,372.46c1.233-.159,2.252-.151,2.061-1.457l-.336-2.308-4.616.6.336,2.308c.191,1.306,1.17,1.04,2.4.88Z" transform="translate(-120.958 -367.353)" fill="#d78dcc"/>
              <path id="Trazado_71711" data-name="Trazado 71711" d="M0,0,4.655.037l.011,1.318L.011,1.318Z" transform="translate(0 0.635) rotate(-7.821)" fill="#989898"/>
            </g>
            <g id="Grupo_39356" data-name="Grupo 39356" transform="translate(0 9.179)">
              <path id="Trazado_71712" data-name="Trazado 71712" d="M0,0,1.4.011,1.8,48.32l-1.4-.011Z" transform="translate(0 0.667) rotate(-7.825)" fill="#eec381"/>
              <path id="Trazado_71713" data-name="Trazado 71713" d="M0,0,1.862.015l.406,48.309L.406,48.309Z" transform="matrix(0.991, -0.136, 0.136, 0.991, 2.771, 0.309)" fill="#eec381"/>
              <path id="Trazado_71714" data-name="Trazado 71714" d="M0,0,1.4.011,1.8,48.32l-1.4-.011Z" transform="translate(1.389 0.487) rotate(-7.816)" fill="#493b88"/>
            </g>
            <g id="Grupo_39357" data-name="Grupo 39357" transform="translate(0)">
              <path id="Trazado_71642" data-name="Trazado 71642" d="M115.13,304.364l-.453,3.084,1.479-.192Z" transform="translate(-113.744 -304.364)" fill="#493b88"/>
              <path id="Trazado_71643" data-name="Trazado 71643" d="M118.327,313.91l-2.207-6.356-1.479.192-.932,6.762Z" transform="translate(-113.709 -304.66)" fill="#eec381"/>
            </g>
          </g>
          <g id="Grupo_39362" data-name="Grupo 39362" transform="translate(19.399 8.532)">
            <g id="Grupo_39359" data-name="Grupo 39359" transform="translate(12.368)">
              <path id="Trazado_71644" data-name="Trazado 71644" d="M150.059,310.053c-1.211-.271-2.157-.626-2.481.657l-.571,2.268,4.534,1.012.572-2.268c.323-1.282-.692-1.366-1.9-1.636Z" transform="translate(-146.684 -309.793)" fill="#d78dcc"/>
              <path id="Trazado_71715" data-name="Trazado 71715" d="M0,0,1.32.018l.061,4.646L.061,4.646Z" transform="translate(0 4.465) rotate(-76.653)" fill="#989898"/>
            </g>
            <g id="Grupo_39360" data-name="Grupo 39360" transform="translate(0.535 4.285)">
              <path id="Trazado_71716" data-name="Trazado 71716" d="M0,0,48.414.676l.018,1.394L.018,1.394Z" transform="translate(3.174 47.839) rotate(-76.654)" fill="#eec381"/>
              <path id="Trazado_71717" data-name="Trazado 71717" d="M0,0,48.414.676l.025,1.858L.025,1.858Z" transform="translate(0 47.13) rotate(-76.654)" fill="#eec381"/>
              <path id="Trazado_71718" data-name="Trazado 71718" d="M0,0,48.414.677l.018,1.393L.018,1.393Z" transform="translate(1.802 47.532) rotate(-76.626)" fill="#ebcc76"/>
            </g>
            <g id="Grupo_39361" data-name="Grupo 39361" transform="translate(0 51.415)">
              <path id="Trazado_71645" data-name="Trazado 71645" d="M133.838,376.877l1.606-2.721-1.453-.324Z" transform="translate(-133.838 -367.154)" fill="#493b88"/>
              <path id="Trazado_71646" data-name="Trazado 71646" d="M134.379,366.471,134,373.149l1.452.324,3.463-5.989Z" transform="translate(-133.844 -366.471)" fill="#eec381"/>
            </g>
          </g>
          <g id="Grupo_39364" data-name="Grupo 39364" transform="translate(7.954 6.515)">
            <path id="Trazado_71647" data-name="Trazado 71647" d="M129.931,367.456l-.089-1.314-3.229-48.158-1.86.111-1.4.083-1.4.083,3.229,48.157.088,1.314.156,2.326c.088,1.314,1.086,1.117,2.327,1.043l.154-.01c1.242-.073,2.258.005,2.169-1.31Z" transform="translate(-121.963 -308.537)" fill="#493b88"/>
            <g id="Grupo_39363" data-name="Grupo 39363" transform="translate(0)">
              <path id="Trazado_71648" data-name="Trazado 71648" d="M124.168,307.57l-.694,3.044,1.49-.088Z" transform="translate(-122.018 -307.57)" fill="#493b88"/>
              <path id="Trazado_71649" data-name="Trazado 71649" d="M126.614,317.32l-1.7-6.492-1.49.088-1.456,6.68Z" transform="translate(-121.963 -307.873)" fill="#eec381"/>
            </g>
          </g>
          <path id="Trazado_71650" data-name="Trazado 71650" d="M113.991,334.784c.442,5.355,1.923,38.985,6.339,39.655a78.5,78.5,0,0,0,9.514.84l1.783,0a78.59,78.59,0,0,0,9.7-.845c4.416-.67,5.9-34.3,6.339-39.655C141.27,338.418,114.7,336.934,113.991,334.784Z" transform="translate(-113.72 -303.582)" fill="#6fb5b1"/>
          <g id="Grupo_39407" data-name="Grupo 39407" transform="translate(0.271 31.202)">
            <path id="Trazado_71651" data-name="Trazado 71651" d="M113.991,334.784c.442,5.355,1.923,38.985,6.339,39.655a78.5,78.5,0,0,0,9.514.84l1.783,0a78.59,78.59,0,0,0,9.7-.845c4.416-.67,5.9-34.3,6.339-39.655C141.27,338.418,114.7,336.934,113.991,334.784Z" transform="translate(-113.991 -334.784)" fill="#d78dcc"/>
            <g id="Grupo_39406" data-name="Grupo 39406" clip-path="url(#clip-path-3)">
              <g id="Grupo_39405" data-name="Grupo 39405" transform="translate(-7.693 0.327)">
                <g id="Grupo_39365" data-name="Grupo 39365" transform="translate(6.668)">
                  <path id="Trazado_71652" data-name="Trazado 71652" d="M116.752,336.991a1.917,1.917,0,1,1-1.85-1.846A1.86,1.86,0,0,1,116.752,336.991Z" transform="translate(-112.928 -335.144)" fill="#fff"/>
                </g>
                <g id="Grupo_39366" data-name="Grupo 39366" transform="translate(6.305 9.408)">
                  <path id="Trazado_71653" data-name="Trazado 71653" d="M116.457,347.363a1.961,1.961,0,1,1-1.892-1.847A1.884,1.884,0,0,1,116.457,347.363Z" transform="translate(-112.551 -345.515)" fill="#fff"/>
                </g>
                <g id="Grupo_39367" data-name="Grupo 39367" transform="translate(11.561 4.833)">
                  <path id="Trazado_71654" data-name="Trazado 71654" d="M119.9,344.055a1.8,1.8,0,1,1,1.974-1.756A1.858,1.858,0,0,1,119.9,344.055Z" transform="translate(-118.004 -340.471)" fill="#fff"/>
                </g>
                <g id="Grupo_39368" data-name="Grupo 39368" transform="translate(1.413 4.524)">
                  <path id="Trazado_71655" data-name="Trazado 71655" d="M109.326,343.714a1.852,1.852,0,0,1-1.849-1.872,1.883,1.883,0,0,1,2.013-1.709,1.8,1.8,0,1,1-.164,3.581Z" transform="translate(-107.475 -340.131)" fill="#fff"/>
                </g>
                <g id="Grupo_39369" data-name="Grupo 39369" transform="translate(5.94 18.817)">
                  <path id="Trazado_71656" data-name="Trazado 71656" d="M116.161,357.736a2.006,2.006,0,1,1-1.931-1.848A1.906,1.906,0,0,1,116.161,357.736Z" transform="translate(-112.173 -355.887)" fill="#fff"/>
                </g>
                <g id="Grupo_39370" data-name="Grupo 39370" transform="translate(11.304 14.244)">
                  <path id="Trazado_71657" data-name="Trazado 71657" d="M119.672,354.43a1.8,1.8,0,1,1,2.014-1.756A1.882,1.882,0,0,1,119.672,354.43Z" transform="translate(-117.738 -350.845)" fill="#fff"/>
                </g>
                <g id="Grupo_39371" data-name="Grupo 39371" transform="translate(0.942 13.928)">
                  <path id="Trazado_71658" data-name="Trazado 71658" d="M108.879,354.081a1.875,1.875,0,0,1-1.891-1.874,1.906,1.906,0,0,1,2.055-1.707,1.8,1.8,0,1,1-.164,3.581Z" transform="translate(-106.986 -350.498)" fill="#fff"/>
                </g>
                <g id="Grupo_39372" data-name="Grupo 39372" transform="translate(5.577 28.225)">
                  <path id="Trazado_71659" data-name="Trazado 71659" d="M115.866,368.108a2.052,2.052,0,1,1-1.973-1.849A1.931,1.931,0,0,1,115.866,368.108Z" transform="translate(-111.796 -366.258)" fill="#fff"/>
                </g>
                <g id="Grupo_39373" data-name="Grupo 39373" transform="translate(11.049 23.654)">
                  <path id="Trazado_71660" data-name="Trazado 71660" d="M119.448,364.8a1.8,1.8,0,1,1,2.055-1.755A1.9,1.9,0,0,1,119.448,364.8Z" transform="translate(-117.473 -361.22)" fill="#fff"/>
                </g>
                <g id="Grupo_39374" data-name="Grupo 39374" transform="translate(0.47 23.334)">
                  <path id="Trazado_71661" data-name="Trazado 71661" d="M108.431,364.448a1.9,1.9,0,0,1-1.932-1.876,1.928,1.928,0,0,1,2.1-1.7,1.8,1.8,0,1,1-.163,3.581Z" transform="translate(-106.497 -360.866)" fill="#fff"/>
                </g>
                <g id="Grupo_39375" data-name="Grupo 39375" transform="translate(5.214 37.633)">
                  <path id="Trazado_71662" data-name="Trazado 71662" d="M115.571,378.48a2.1,2.1,0,1,1-2.014-1.851A1.956,1.956,0,0,1,115.571,378.48Z" transform="translate(-111.419 -376.629)" fill="#fff"/>
                </g>
                <g id="Grupo_39376" data-name="Grupo 39376" transform="translate(10.793 33.065)">
                  <path id="Trazado_71663" data-name="Trazado 71663" d="M119.222,375.178a1.928,1.928,0,0,1-2.014-1.838,2.075,2.075,0,1,1,2.014,1.838Z" transform="translate(-117.207 -371.593)" fill="#fff"/>
                </g>
                <g id="Grupo_39377" data-name="Grupo 39377" transform="translate(0 32.737)">
                  <path id="Trazado_71664" data-name="Trazado 71664" d="M107.983,374.815a1.922,1.922,0,0,1-1.972-1.878,1.953,1.953,0,0,1,2.136-1.7,1.81,1.81,0,1,1-.164,3.581Z" transform="translate(-106.009 -371.232)" fill="#fff"/>
                </g>
                <g id="Grupo_39378" data-name="Grupo 39378" transform="translate(16.71 0.203)">
                  <path id="Trazado_71665" data-name="Trazado 71665" d="M127.173,337.176a1.917,1.917,0,1,1-1.892-1.808A1.855,1.855,0,0,1,127.173,337.176Z" transform="translate(-123.348 -335.368)" fill="#fff"/>
                </g>
                <g id="Grupo_39379" data-name="Grupo 39379" transform="translate(16.562 9.616)">
                  <path id="Trazado_71666" data-name="Trazado 71666" d="M127.1,347.553a1.961,1.961,0,1,1-1.933-1.809A1.878,1.878,0,0,1,127.1,347.553Z" transform="translate(-123.194 -345.744)" fill="#fff"/>
                </g>
                <g id="Grupo_39380" data-name="Grupo 39380" transform="translate(21.712 4.936)">
                  <path id="Trazado_71667" data-name="Trazado 71667" d="M130.47,344.169a1.8,1.8,0,1,1,1.933-1.8A1.863,1.863,0,0,1,130.47,344.169Z" transform="translate(-128.538 -340.585)" fill="#fff"/>
                </g>
                <g id="Grupo_39381" data-name="Grupo 39381" transform="translate(16.414 19.029)">
                  <path id="Trazado_71668" data-name="Trazado 71668" d="M127.028,357.929a2.006,2.006,0,1,1-1.974-1.808A1.9,1.9,0,0,1,127.028,357.929Z" transform="translate(-123.04 -356.121)" fill="#fff"/>
                </g>
                <g id="Grupo_39382" data-name="Grupo 39382" transform="translate(21.671 14.348)">
                  <path id="Trazado_71669" data-name="Trazado 71669" d="M130.469,354.546a1.8,1.8,0,1,1,1.974-1.8A1.887,1.887,0,0,1,130.469,354.546Z" transform="translate(-128.495 -350.961)" fill="#fff"/>
                </g>
                <g id="Grupo_39383" data-name="Grupo 39383" transform="translate(16.265 28.442)">
                  <path id="Trazado_71670" data-name="Trazado 71670" d="M126.957,368.306a2.053,2.053,0,1,1-2.015-1.809A1.926,1.926,0,0,1,126.957,368.306Z" transform="translate(-122.886 -366.497)" fill="#fff"/>
                </g>
                <g id="Grupo_39384" data-name="Grupo 39384" transform="translate(21.631 23.762)">
                  <path id="Trazado_71671" data-name="Trazado 71671" d="M130.467,364.922a1.8,1.8,0,1,1,2.015-1.8A1.91,1.91,0,0,1,130.467,364.922Z" transform="translate(-128.453 -361.338)" fill="#fff"/>
                </g>
                <g id="Grupo_39385" data-name="Grupo 39385" transform="translate(16.117 37.854)">
                  <path id="Trazado_71672" data-name="Trazado 71672" d="M126.884,378.682a2.1,2.1,0,1,1-2.056-1.809A1.949,1.949,0,0,1,126.884,378.682Z" transform="translate(-122.732 -376.873)" fill="#fff"/>
                </g>
                <g id="Grupo_39386" data-name="Grupo 39386" transform="translate(21.589 33.175)">
                  <path id="Trazado_71673" data-name="Trazado 71673" d="M130.466,375.3a1.809,1.809,0,1,1,2.057-1.8A1.935,1.935,0,0,1,130.466,375.3Z" transform="translate(-128.41 -371.715)" fill="#fff"/>
                </g>
                <g id="Grupo_39387" data-name="Grupo 39387" transform="translate(26.755 0.203)">
                  <path id="Trazado_71674" data-name="Trazado 71674" d="M137.6,337.138a1.917,1.917,0,1,1-1.933-1.77A1.848,1.848,0,0,1,137.6,337.138Z" transform="translate(-133.77 -335.368)" fill="#fff"/>
                </g>
                <g id="Grupo_39388" data-name="Grupo 39388" transform="translate(26.821 9.616)">
                  <path id="Trazado_71675" data-name="Trazado 71675" d="M137.746,347.513a1.961,1.961,0,1,1-1.974-1.769A1.872,1.872,0,0,1,137.746,347.513Z" transform="translate(-133.839 -345.744)" fill="#fff"/>
                </g>
                <g id="Grupo_39389" data-name="Grupo 39389" transform="translate(31.863 4.833)">
                  <path id="Trazado_71676" data-name="Trazado 71676" d="M141.045,344.055a1.8,1.8,0,1,1,1.892-1.834A1.869,1.869,0,0,1,141.045,344.055Z" transform="translate(-139.071 -340.471)" fill="#fff"/>
                </g>
                <g id="Grupo_39390" data-name="Grupo 39390" transform="translate(26.888 19.029)">
                  <path id="Trazado_71677" data-name="Trazado 71677" d="M137.9,357.889a2.007,2.007,0,1,1-2.015-1.768A1.9,1.9,0,0,1,137.9,357.889Z" transform="translate(-133.908 -356.121)" fill="#fff"/>
                </g>
                <g id="Grupo_39391" data-name="Grupo 39391" transform="translate(32.038 14.244)">
                  <path id="Trazado_71678" data-name="Trazado 71678" d="M141.266,354.43a1.8,1.8,0,1,1,1.932-1.836A1.893,1.893,0,0,1,141.266,354.43Z" transform="translate(-139.252 -350.845)" fill="#fff"/>
                </g>
                <g id="Grupo_39392" data-name="Grupo 39392" transform="translate(26.954 28.442)">
                  <path id="Trazado_71679" data-name="Trazado 71679" d="M138.048,368.264a2.053,2.053,0,1,1-2.056-1.767A1.92,1.92,0,0,1,138.048,368.264Z" transform="translate(-133.977 -366.497)" fill="#fff"/>
                </g>
                <g id="Grupo_39393" data-name="Grupo 39393" transform="translate(32.212 23.654)">
                  <path id="Trazado_71680" data-name="Trazado 71680" d="M141.488,364.8a1.8,1.8,0,1,1,1.974-1.837A1.916,1.916,0,0,1,141.488,364.8Z" transform="translate(-139.433 -361.22)" fill="#fff"/>
                </g>
                <g id="Grupo_39394" data-name="Grupo 39394" transform="translate(27.022 37.854)">
                  <path id="Trazado_71681" data-name="Trazado 71681" d="M138.2,378.64a2.1,2.1,0,1,1-2.1-1.767A1.944,1.944,0,0,1,138.2,378.64Z" transform="translate(-134.047 -376.873)" fill="#fff"/>
                </g>
                <g id="Grupo_39395" data-name="Grupo 39395" transform="translate(32.386 33.065)">
                  <path id="Trazado_71682" data-name="Trazado 71682" d="M141.71,375.178a1.809,1.809,0,1,1,2.014-1.838A1.941,1.941,0,0,1,141.71,375.178Z" transform="translate(-139.613 -371.593)" fill="#fff"/>
                </g>
                <g id="Grupo_39396" data-name="Grupo 39396" transform="translate(36.797)">
                  <path id="Trazado_71683" data-name="Trazado 71683" d="M148.014,336.874a1.917,1.917,0,1,1-1.973-1.729A1.868,1.868,0,0,1,148.014,336.874Z" transform="translate(-144.19 -335.144)" fill="#fff"/>
                </g>
                <g id="Grupo_39397" data-name="Grupo 39397" transform="translate(37.079 9.408)">
                  <path id="Trazado_71684" data-name="Trazado 71684" d="M148.388,347.244a1.961,1.961,0,1,1-2.013-1.728A1.89,1.89,0,0,1,148.388,347.244Z" transform="translate(-144.482 -345.515)" fill="#fff"/>
                </g>
                <g id="Grupo_39398" data-name="Grupo 39398" transform="translate(42.011 4.524)">
                  <path id="Trazado_71685" data-name="Trazado 71685" d="M151.615,343.714a1.8,1.8,0,1,1,1.849-1.872A1.852,1.852,0,0,1,151.615,343.714Z" transform="translate(-149.601 -340.131)" fill="#fff"/>
                </g>
                <g id="Grupo_39399" data-name="Grupo 39399" transform="translate(37.361 18.817)">
                  <path id="Trazado_71686" data-name="Trazado 71686" d="M148.762,357.614a2.006,2.006,0,1,1-2.055-1.726A1.913,1.913,0,0,1,148.762,357.614Z" transform="translate(-144.775 -355.887)" fill="#fff"/>
                </g>
                <g id="Grupo_39400" data-name="Grupo 39400" transform="translate(42.4 13.928)">
                  <path id="Trazado_71687" data-name="Trazado 71687" d="M152.06,354.081a1.8,1.8,0,1,1,1.891-1.874A1.875,1.875,0,0,1,152.06,354.081Z" transform="translate(-150.004 -350.498)" fill="#fff"/>
                </g>
                <g id="Grupo_39401" data-name="Grupo 39401" transform="translate(37.643 28.225)">
                  <path id="Trazado_71688" data-name="Trazado 71688" d="M149.137,367.984a2.053,2.053,0,1,1-2.1-1.725A1.939,1.939,0,0,1,149.137,367.984Z" transform="translate(-145.067 -366.258)" fill="#fff"/>
                </g>
                <g id="Grupo_39402" data-name="Grupo 39402" transform="translate(42.789 23.334)">
                  <path id="Trazado_71689" data-name="Trazado 71689" d="M152.5,364.448a1.8,1.8,0,1,1,1.931-1.876A1.9,1.9,0,0,1,152.5,364.448Z" transform="translate(-150.408 -360.866)" fill="#fff"/>
                </g>
                <g id="Grupo_39403" data-name="Grupo 39403" transform="translate(37.924 37.633)">
                  <path id="Trazado_71690" data-name="Trazado 71690" d="M149.511,378.354a2.1,2.1,0,1,1-2.137-1.725A1.963,1.963,0,0,1,149.511,378.354Z" transform="translate(-145.359 -376.629)" fill="#fff"/>
                </g>
                <g id="Grupo_39404" data-name="Grupo 39404" transform="translate(43.179 32.737)">
                  <path id="Trazado_71691" data-name="Trazado 71691" d="M152.95,374.815a1.809,1.809,0,1,1,1.972-1.878A1.922,1.922,0,0,1,152.95,374.815Z" transform="translate(-150.812 -371.232)" fill="#fff"/>
                </g>
              </g>
            </g>
          </g>
        </g>
        <g id="Grupo_39424" data-name="Grupo 39424" transform="translate(76.075 195.359)">
          <rect id="Rectángulo_8360" data-name="Rectángulo 8360" width="153.875" height="83.26" transform="translate(0 0)" fill="#a878ec"/>
          <rect id="Rectángulo_8361" data-name="Rectángulo 8361" width="153.875" height="6.938" transform="translate(0 0)" fill="#493b88"/>
          <rect id="Rectángulo_8362" data-name="Rectángulo 8362" width="153.875" height="5.204" transform="translate(0 78.057)" fill="#493b88"/>
          <rect id="Rectángulo_8363" data-name="Rectángulo 8363" width="111.49" height="71.118" transform="translate(15.263 6.938)" fill="#5f4fa9"/>
          <rect id="Rectángulo_8364" data-name="Rectángulo 8364" width="15.263" height="71.118" transform="translate(0 6.938)" fill="#a878ec"/>
          <rect id="Rectángulo_8365" data-name="Rectángulo 8365" width="6.911" height="6.179" transform="translate(4.176 12.305)" fill="#fff"/>
          <rect id="Rectángulo_8366" data-name="Rectángulo 8366" width="6.911" height="6.18" transform="translate(4.176 23.281)" fill="#fff"/>
          <rect id="Rectángulo_8367" data-name="Rectángulo 8367" width="6.911" height="6.179" transform="translate(4.176 34.258)" fill="#fff"/>
          <rect id="Rectángulo_8368" data-name="Rectángulo 8368" width="6.911" height="6.179" transform="translate(4.176 45.235)" fill="#fff"/>
          <rect id="Rectángulo_8369" data-name="Rectángulo 8369" width="6.911" height="6.18" transform="translate(4.176 56.212)" fill="#fff"/>
          <rect id="Rectángulo_8370" data-name="Rectángulo 8370" width="4.183" height="3.74" transform="translate(4.176 66.944)" fill="#5f4fa9"/>
          <rect id="Rectángulo_8371" data-name="Rectángulo 8371" width="4.183" height="3.74" transform="translate(5.54 68.815)" fill="#d78dcc"/>
          <rect id="Rectángulo_8372" data-name="Rectángulo 8372" width="71.87" height="60.819" transform="translate(30.006 12.305)" fill="#fff"/>
          <g id="Grupo_39409" data-name="Grupo 39409" transform="translate(33.635 66.171)">
            <rect id="Rectángulo_8373" data-name="Rectángulo 8373" width="4.183" height="3.74" transform="translate(5.72)" fill="#5f4fa9"/>
            <rect id="Rectángulo_8374" data-name="Rectángulo 8374" width="4.183" height="3.74" transform="translate(11.441)" fill="#d78dcc"/>
            <rect id="Rectángulo_8375" data-name="Rectángulo 8375" width="4.183" height="3.74" fill="#493b88"/>
            <rect id="Rectángulo_8376" data-name="Rectángulo 8376" width="4.183" height="3.74" transform="translate(17.161)" fill="#eec381"/>
          </g>
          <g id="Grupo_39410" data-name="Grupo 39410" transform="translate(129.057 12.305)">
            <rect id="Rectángulo_8377" data-name="Rectángulo 8377" width="22.114" height="1.897" fill="#5f4fa9"/>
            <rect id="Rectángulo_8378" data-name="Rectángulo 8378" width="22.114" height="15.178" transform="translate(0 1.897)" fill="#493b88"/>
          </g>
          <g id="Grupo_39411" data-name="Grupo 39411" transform="translate(129.057 34.177)">
            <rect id="Rectángulo_8379" data-name="Rectángulo 8379" width="22.114" height="1.897" fill="#5f4fa9"/>
            <rect id="Rectángulo_8380" data-name="Rectángulo 8380" width="22.114" height="15.178" transform="translate(0 1.897)" fill="#493b88"/>
          </g>
          <g id="Grupo_39412" data-name="Grupo 39412" transform="translate(129.057 53.854)">
            <rect id="Rectángulo_8381" data-name="Rectángulo 8381" width="22.114" height="1.897" fill="#5f4fa9"/>
            <rect id="Rectángulo_8382" data-name="Rectángulo 8382" width="22.114" height="15.178" transform="translate(0 1.897)" fill="#493b88"/>
          </g>
          <g id="Grupo_39413" data-name="Grupo 39413" transform="translate(47.38 27.347)">
            <path id="Trazado_71693" data-name="Trazado 71693" d="M235.521,303.884a11.545,11.545,0,0,1,2.448.269V294.11H218.716v18.122h6.1A10.747,10.747,0,0,1,235.521,303.884Z" transform="translate(-218.716 -294.11)" fill="#eec381"/>
            <path id="Trazado_71694" data-name="Trazado 71694" d="M235.481,320.344l8.654-11.719a11.012,11.012,0,0,0-5.944-3.443v8.078H225.037a9.667,9.667,0,0,0-.2,1.916c0,5.668,4.881,10.263,10.9,10.263a11.03,11.03,0,0,0,9.41-5.1Z" transform="translate(-218.938 -295.138)" fill="#5f4fa9"/>
            <path id="Trazado_71695" data-name="Trazado 71695" d="M238.2,305.154a11.547,11.547,0,0,0-2.448-.269,10.747,10.747,0,0,0-10.706,8.348H238.2Z" transform="translate(-218.945 -295.11)" fill="#cd94b1"/>
            <path id="Trazado_71696" data-name="Trazado 71696" d="M245.879,320.076h16.358l-12.9-17.78-4.477,6.062a9.868,9.868,0,0,1,2.512,6.55A9.753,9.753,0,0,1,245.879,320.076Z" transform="translate(-219.664 -294.87)" fill="#d78dcc"/>
            <path id="Trazado_71697" data-name="Trazado 71697" d="M245.553,320.7a9.754,9.754,0,0,0,1.494-5.168,9.868,9.868,0,0,0-2.512-6.551L235.881,320.7Z" transform="translate(-219.338 -295.49)" fill="#80599e"/>
          </g>
          <rect id="Rectángulo_8383" data-name="Rectángulo 8383" width="2.764" height="2.472" transform="translate(146.679 2.233)" fill="#fff"/>
          <rect id="Rectángulo_8384" data-name="Rectángulo 8384" width="2.764" height="2.472" transform="translate(142.245 2.233)" fill="#fff"/>
          <rect id="Rectángulo_8385" data-name="Rectángulo 8385" width="2.764" height="2.472" transform="translate(137.81 2.233)" fill="#fff"/>
          <g id="Grupo_39423" data-name="Grupo 39423" transform="translate(32.185 14.892)">
            <g id="Grupo_39422" data-name="Grupo 39422">
              <g id="Grupo_39414" data-name="Grupo 39414" transform="translate(65.161 47.443)">
                <path id="Trazado_71698" data-name="Trazado 71698" d="M272.164,334.187h-1.6v-1.006h.534v-.5h1.068Z" transform="translate(-270.562 -332.678)" fill="#5f4fa9"/>
              </g>
              <g id="Grupo_39415" data-name="Grupo 39415" transform="translate(3.794 47.946)">
                <path id="Trazado_71699" data-name="Trazado 71699" d="M266.062,334.238h-2.192v-1.005h2.192Zm-4.384,0h-2.192v-1.005h2.192Zm-4.383,0H255.1v-1.005h2.192Zm-4.383,0H250.72v-1.005h2.192Zm-4.383,0h-2.193v-1.005h2.193Zm-4.384,0h-2.191v-1.005h2.191Zm-4.383,0H237.57v-1.005h2.192Zm-4.383,0h-2.191v-1.005h2.191Zm-4.382,0H228.8v-1.005H231Zm-4.384,0H224.42v-1.005h2.192Zm-4.383,0h-2.192v-1.005h2.192Zm-4.383,0h-2.191v-1.005h2.191Zm-4.384,0H211.27v-1.005h2.192Zm-4.383,0h-2.192v-1.005h2.192Z" transform="translate(-206.887 -333.233)" fill="#5f4fa9"/>
              </g>
              <g id="Grupo_39416" data-name="Grupo 39416" transform="translate(0 47.443)">
                <path id="Trazado_71700" data-name="Trazado 71700" d="M204.553,334.187h-1.6v-1.508h1.068v.5h.534Z" transform="translate(-202.95 -332.678)" fill="#5f4fa9"/>
              </g>
              <g id="Grupo_39417" data-name="Grupo 39417" transform="translate(0 3.506)">
                <path id="Trazado_71701" data-name="Trazado 71701" d="M204.019,326.184H202.95v-2h1.069Zm0-3.994H202.95v-2h1.069Zm0-3.994H202.95v-2h1.069Zm0-3.994H202.95v-2h1.069Zm0-3.994H202.95v-2h1.069Zm0-3.994H202.95v-2h1.069Zm0-3.994H202.95v-2h1.069Zm0-3.994H202.95v-2h1.069Zm0-3.994H202.95v-2h1.069Zm0-4H202.95v-2h1.069Zm0-3.994H202.95v-2h1.069Z" transform="translate(-202.95 -284.245)" fill="#5f4fa9"/>
              </g>
              <g id="Grupo_39418" data-name="Grupo 39418" transform="translate(0 0)">
                <path id="Trazado_71702" data-name="Trazado 71702" d="M204.018,281.888H202.95V280.38h1.6v1.005h-.534Z" transform="translate(-202.95 -280.38)" fill="#5f4fa9"/>
              </g>
              <g id="Grupo_39419" data-name="Grupo 39419" transform="translate(3.794)">
                <path id="Trazado_71703" data-name="Trazado 71703" d="M266.062,281.386h-2.192V280.38h2.192Zm-4.384,0h-2.192V280.38h2.192Zm-4.383,0H255.1V280.38h2.192Zm-4.383,0H250.72V280.38h2.192Zm-4.383,0h-2.193V280.38h2.193Zm-4.384,0h-2.191V280.38h2.191Zm-4.383,0h-2.191V280.38h2.191Zm-4.382,0h-2.191V280.38h2.191Zm-4.383,0H228.8V280.38H231Zm-4.384,0H224.42V280.38h2.192Zm-4.383,0h-2.192V280.38h2.192Zm-4.383,0h-2.191V280.38h2.191Zm-4.384,0H211.27V280.38h2.192Zm-4.383,0h-2.192V280.38h2.192Z" transform="translate(-206.887 -280.38)" fill="#5f4fa9"/>
              </g>
              <g id="Grupo_39420" data-name="Grupo 39420" transform="translate(65.161 0)">
                <path id="Trazado_71704" data-name="Trazado 71704" d="M272.164,281.888H271.1v-.5h-.534V280.38h1.6Z" transform="translate(-270.562 -280.38)" fill="#5f4fa9"/>
              </g>
              <g id="Grupo_39421" data-name="Grupo 39421" transform="translate(65.695 3.506)">
                <path id="Trazado_71705" data-name="Trazado 71705" d="M272.184,326.184h-1.068v-2h1.068Zm0-3.994h-1.068v-2h1.068Zm0-3.994h-1.068v-2h1.068Zm0-3.994h-1.068v-2h1.068Zm0-3.994h-1.068v-2h1.068Zm0-3.994h-1.068v-2h1.068Zm0-3.994h-1.068v-2h1.068Zm0-3.995h-1.068v-2h1.068Zm0-3.994h-1.068v-2h1.068Zm0-3.994h-1.068v-2h1.068Zm0-3.994h-1.068v-2h1.068Z" transform="translate(-271.116 -284.245)" fill="#5f4fa9"/>
              </g>
            </g>
          </g>
        </g>
        <g id="Grupo_39429" data-name="Grupo 39429" transform="translate(212.907 217.046)">
          <g id="Grupo_39425" data-name="Grupo 39425" transform="translate(33.227 14.806)">
            <path id="Trazado_71706" data-name="Trazado 71706" d="M356.965,308.362l-8.854,1.3-2.1-2.786s2.623-2.772,2.96-2.686,4.18,2.124,4.851,2.483,3.144,1.686,3.144,1.686" transform="translate(-346.01 -304.192)" fill="#493b88"/>
          </g>
          <g id="Grupo_39426" data-name="Grupo 39426" transform="translate(0 0)">
            <path id="Trazado_71707" data-name="Trazado 71707" d="M311.548,312.758a.607.607,0,0,1,.257-.637l35.323-24.132a.7.7,0,0,1,.732-.027.608.608,0,0,1,.307.626l-1.255,7.539a1.8,1.8,0,0,0,.557,1.607l8.572,8.064a.6.6,0,0,1,.131.7.674.674,0,0,1-.659.354l-7.879-.7a.673.673,0,0,0-.559.21.582.582,0,0,0-.145.548L350,319.366a.6.6,0,0,1-.094.485.648.648,0,0,1-.074.087.687.687,0,0,1-.6.178l-37.163-6.883A.645.645,0,0,1,311.548,312.758Z" transform="translate(-311.533 -287.87)" fill="#d78dcc"/>
          </g>
          <g id="Grupo_39428" data-name="Grupo 39428" transform="translate(0.002 8.97)">
            <g id="Grupo_39427" data-name="Grupo 39427">
              <path id="Trazado_71708" data-name="Trazado 71708" d="M311.569,313.355l35.387-15.6a1.832,1.832,0,0,0,.516.894l8.572,8.064a.6.6,0,0,1,.131.7.674.674,0,0,1-.659.354l-7.879-.7a.616.616,0,0,0-.159.021l-.027-.011-35.9,6.582A.577.577,0,0,1,311.569,313.355Z" transform="translate(-311.535 -297.758)" fill="#5f4fa9"/>
            </g>
          </g>
        </g>
      </g>
    </g>
  </g>
</svg>
