<svg xmlns="http://www.w3.org/2000/svg" width="159.546" height="172.196" viewBox="0 0 159.546 172.196">
  <g id="Grupo_1068159" data-name="Grupo 1068159" transform="translate(-189 -3866)">
    <g id="Grupo_1068158" data-name="Grupo 1068158">
      <circle id="Elipse_4769" data-name="Elipse 4769" cx="42.5" cy="42.5" r="42.5" transform="translate(189 3866)" fill="#ffd54f"/>
    </g>
    <g id="Grupo_37360" data-name="Grupo 37360" transform="translate(76.979 3545.877)" style="isolation: isolate">
      <path id="Trazado_69703" data-name="Trazado 69703" d="M198,410.222c-26.046.2-39.615-14.738-44.983-30.279,0-23.1,14.2-46.429,19.871-46.429,21.9,0,58.721,27.639,67.145,37.03l-2.959,11.2C232.729,393.411,222.3,410.024,198,410.222Z" transform="translate(0 0)" fill="#707070"/>
      <path id="Trazado_69704" data-name="Trazado 69704" d="M182.965,345.435C167.58,350.2,162.111,358.34,160.1,364.091a41.2,41.2,0,0,1-4.124-3.254C171.069,345.4,182.965,345.435,182.965,345.435Z" transform="translate(9.476 38.19)" fill="#707070" opacity="0.2" style="mix-blend-mode: multiply;isolation: isolate"/>
    </g>
    <g id="Grupo_37361" data-name="Grupo 37361" transform="translate(120.908 3685.363)" style="isolation: isolate">
      <path id="Trazado_69705" data-name="Trazado 69705" d="M109.912,321.1s7.448-16.4,32.279-15.445,31.868,18.754,31.868,18.754Z" transform="translate(42.802 0.795)" fill="#707070"/>
      <path id="Trazado_69706" data-name="Trazado 69706" d="M80.906,322.625s6.33-16.864,31.169-17.577,33.055,16.568,33.055,16.568Z" transform="translate(3.785 0)" fill="#707070"/>
      <rect id="Rectángulo_8167" data-name="Rectángulo 8167" width="12.931" height="0.877" transform="translate(144.485 320.682) rotate(2.828)" fill="#707070"/>
      <path id="Trazado_69707" data-name="Trazado 69707" d="M136.233,315.016s13.112-.117,7.868,11.747-.138,16-.138,16l2.622-1.1s-3.311-7.587,0-11.864,6.939-18.2-9.289-17.239Z" transform="translate(78.208 10.067)" fill="#707070"/>
      <path id="Trazado_69708" data-name="Trazado 69708" d="M91.29,313.894s-13.112-.117-7.87,11.747.138,16,.138,16l-2.622-1.1s3.311-7.587,0-11.864-6.939-18.2,9.291-17.239Z" transform="translate(0 8.558)" fill="#707070"/>
    </g>
  </g>
</svg>
