<svg xmlns="http://www.w3.org/2000/svg" xmlns:xlink="http://www.w3.org/1999/xlink" width="249.385" height="222.609" viewBox="0 0 249.385 222.609">
  <defs>
    <radialGradient id="radial-gradient" cx="0.5" cy="0.5" r="0.5" gradientTransform="translate(0)" gradientUnits="objectBoundingBox">
      <stop offset="0" stop-color="#eadece"/>
      <stop offset="1" stop-color="#c6bdba"/>
    </radialGradient>
    <radialGradient id="radial-gradient-2" cx="0.5" cy="0.5" r="0.5" xlink:href="#radial-gradient"/>
    <radialGradient id="radial-gradient-3" cx="0.5" cy="0.5" r="0.5" gradientTransform="translate(-0.001)" xlink:href="#radial-gradient"/>
    <linearGradient id="linear-gradient" x1="0" y1="0.5" x2="1" y2="0.5" gradientTransform="matrix(1, 0, 0, 1, 0, 0)" xlink:href="#radial-gradient"/>
    <radialGradient id="radial-gradient-4" cx="0.5" cy="0.5" r="0.5" gradientTransform="matrix(0.998, -0.058, 0.058, 0.998, -0.167, 0.043)" xlink:href="#radial-gradient"/>
  </defs>
  <g id="Grupo_1068184" data-name="Grupo 1068184" transform="translate(-390 -21588)">
    <g id="BACKGROUND" transform="translate(390 21588)">
      <g id="Grupo_32241" data-name="Grupo 32241" transform="translate(0 0)">
        <path id="Trazado_61861" data-name="Trazado 61861" d="M103.287,106.792c12.325-.426,24.243,3.893,36.034,7.511s24.409,6.592,36.342,3.48c16.045-4.183,27.239-18.25,37.291-31.437S234.376,59.173,250.5,55.291c15.053-3.624,31.294,2.873,42.251,13.813s17.279,25.73,21.226,40.7c9.774,37.086,5.056,79.843-20.338,108.584-20.317,22.995-50.986,34.29-81.28,39.171-21.853,3.522-44.572,4.109-65.822-2.086A107.539,107.539,0,0,1,84.407,206.9C68.535,179.644,53.816,108.5,103.287,106.792Z" transform="translate(-69.318 -37.576)" fill="#ffd54f"/>
        <path id="Trazado_61862" data-name="Trazado 61862" d="M185.939,90.379c14.838.275,30.815-5.187,41.913-12.933C234,73.151,239.5,67.679,242.788,60.933s4.152-14.871,1.29-21.806c-4.13-10.006-15-15.668-25.63-17.691a62.974,62.974,0,0,0-47.206,10.085c-9.53,6.646-19.521,16.1-22,27.94C146.581,72.213,157.562,82,168.37,86.775A45.5,45.5,0,0,0,185.939,90.379Z" transform="translate(-109.662 -20.373)" fill="#ffd54f"/>
      </g>
    </g>
    <g id="Grupo_40020" data-name="Grupo 40020" transform="translate(76.297 21340.4)" style="isolation: isolate">
      <path id="Trazado_72846" data-name="Trazado 72846" d="M361.7,364.7c5.532-1.9,7.134-11.471-.491-12.809C350.238,349.968,352.888,367.708,361.7,364.7Z" transform="translate(6.031 105.167)" fill="#080033"/>
      <path id="Trazado_72847" data-name="Trazado 72847" d="M428.465,364.7c5.53-1.9,7.13-11.471-.493-12.809C417,349.968,419.653,367.708,428.465,364.7Z" transform="translate(83.04 105.167)" fill="#080033"/>
      <path id="Trazado_72848" data-name="Trazado 72848" d="M378.247,351.379c4.113-4.619,9.055-5.341,14.932-5.341h13.9c8.009,0,16.015.3,24.024.506,7.576.19,14.915-.592,22.482-.228,2.207.11,5.627.25,7.722,1.473.812-4.785-5.926-5.039-9.494-5.213-7.565-.368-14.9.418-22.484.228-8-.2-16.013-.508-24.019-.508h-13.9c-5.877,0-10.819.724-14.932,5.338-2,2.25-7.6,6.452-4.619,9.354.073.071.082.3.166.37a8.182,8.182,0,0,0,1.034.59C373.8,355.613,376.864,352.934,378.247,351.379Z" transform="translate(25.653 94.273)" fill="#7986cb"/>
      <path id="Trazado_72853" data-name="Trazado 72853" d="M541.609,340.884a6.408,6.408,0,0,1-4.4,3.852c-4.649,1.339-7.076,6.747-10.2,10.255-4.52,5.069-10.27,7.477-17.016,7.785-6.7.31-149.98,1.124-155.451-2.442l-5.782,4.921v3.611H527.633l16.11-24.424V340.83Z" transform="translate(0 92.582)" fill="#7986cb"/>
      <path id="Trazado_72854" data-name="Trazado 72854" d="M372.285,340.935l-23.524,24.422H527.633l16.11-24.422ZM486.621,350.8c-3.028,8.041-8.353,8.605-15.993,9.068-19.667,1.2-39.563.429-59.267.411-3.986-.007-10.018,1.535-13.42-1.305-.084-.071-.162-.142-.237-.207-2.985-2.907,2.423-7.085,4.425-9.335,4.113-4.621,9.055-5.34,14.932-5.34h13.9c8.006,0,16.015.308,24.019.508,7.58.19,14.919-.6,22.484-.228C481.311,344.559,488.859,344.839,486.621,350.8Z" transform="translate(0 92.703)" fill="#9fa8da"/>
      <g id="Grupo_39990" data-name="Grupo 39990" transform="translate(348.761 433.412)">
        <path id="Trazado_72855" data-name="Trazado 72855" d="M431.825,368.864v-3.611l16.109-24.424v3.611Z" transform="translate(-252.952 -340.83)" fill="#7986cb"/>
        <path id="Trazado_72856" data-name="Trazado 72856" d="M352.567,363.91l11.978-15.049-15.785,16.393H527.634l16.109-24.424-16.109,22.838Z" transform="translate(-348.761 -340.83)" fill="#d8a364"/>
      </g>
      <path id="Trazado_72857" data-name="Trazado 72857" d="M534.423,340.83c-2.881,1.059-5.838,1.9-8.3,2.828a224.35,224.35,0,0,1-29.689,8.935c-4.012.894-8.054,1.667-12.1,2.349-3.155,4.038-7.722,4.462-13.706,4.824-9.977.614-20,.711-30.04.661-2.136.192-4.281.37-6.417.51-16.31,1.066-33.647,1.268-49.651-2.588-5.875-1.415-15.6-3.921-19.973-9.486l-15.785,16.392H527.633l16.11-24.424Z" transform="translate(0 92.582)" fill="#9fa8da"/>
      <path id="Trazado_72858" data-name="Trazado 72858" d="M427.075,325.37a102.126,102.126,0,0,1,12.234-24.627c1.225-1.792,2.158-2.933-.306-3.551-1.482-.373-3.758.086-4.673,1.283-13.859,18.089-20.753,45.291-20.735,68.113,0,9.376,6.394,52.46,24.487,44.132C423.74,401,421.64,382.69,420.841,366.055,420.273,354.424,422.937,337.1,427.075,325.37Z" transform="translate(74.781 42.104)" fill="#7986cb"/>
      <path id="Trazado_72859" data-name="Trazado 72859" d="M435.8,317.6a102.1,102.1,0,0,1,12.24-24.626c1.219-1.79,2.153-2.927-.312-3.551-1.479-.368-3.76.09-4.673,1.281-13.857,18.1-20.75,45.293-20.735,68.119,0,9.376,6.393,52.46,24.487,44.126-14.342-9.718-16.435-28.023-17.242-44.66C429.005,346.653,431.663,329.337,435.8,317.6Z" transform="translate(84.846 33.14)" fill="#7986cb"/>
      <path id="Trazado_72860" data-name="Trazado 72860" d="M367.681,325.37a102.369,102.369,0,0,0-12.24-24.627c-1.219-1.792-2.158-2.933.308-3.551,1.479-.373,3.764.086,4.677,1.283,13.853,18.089,20.748,45.291,20.735,68.113-.009,9.376-6.4,52.46-24.491,44.132,14.342-9.723,16.439-28.031,17.247-44.666C374.477,354.424,371.816,337.1,367.681,325.37Z" transform="translate(6.278 42.104)" fill="#7986cb"/>
      <path id="Trazado_72861" data-name="Trazado 72861" d="M376.034,317.6A102.318,102.318,0,0,0,363.8,292.97c-1.225-1.79-2.158-2.927.3-3.551,1.486-.368,3.764.09,4.677,1.281,13.86,18.1,20.748,45.293,20.735,68.119-.009,9.376-6.393,52.46-24.491,44.126,14.342-9.718,16.441-28.023,17.249-44.66C382.833,346.653,380.173,329.337,376.034,317.6Z" transform="translate(15.916 33.14)" fill="#7986cb"/>
      <g id="Grupo_39991" data-name="Grupo 39991" transform="translate(348.761 313.227)">
        <path id="Trazado_72862" data-name="Trazado 72862" d="M527.634,313.054H348.761v-3.613l23.767-20.207,171.214-4.214v3.613Z" transform="translate(-348.761 -285.018)" fill="#7986cb"/>
        <path id="Trazado_72863" data-name="Trazado 72863" d="M431.825,313.054v-3.613l16.109-24.422v3.613Z" transform="translate(-252.952 -285.018)" fill="#080033"/>
        <path id="Trazado_72864" data-name="Trazado 72864" d="M527.634,309.441H348.761l23.524-24.422H543.742Z" transform="translate(-348.761 -285.018)" fill="#e2e6ff"/>
        <path id="Trazado_72865" data-name="Trazado 72865" d="M526.123,287.844a222.747,222.747,0,0,1-29.689,8.935,301.476,301.476,0,0,1-30.4,4.925c-10.586,1.249-21.224,2.731-31.864,3.426-16.31,1.057-33.647,1.266-49.651-2.591-5.875-1.415-15.6-3.919-19.973-9.481l-15.785,16.383H527.633l16.11-24.422h-9.32C531.542,286.081,528.585,286.918,526.123,287.844Z" transform="translate(-348.76 -285.019)" fill="#9fa8da"/>
        <path id="Trazado_72866" data-name="Trazado 72866" d="M352.567,308.1l11.978-15.04-15.785,16.384H527.634l16.109-24.422-16.109,22.836Z" transform="translate(-348.761 -285.018)" fill="#7986cb"/>
      </g>
      <path id="Trazado_72867" data-name="Trazado 72867" d="M405.421,285.371c-3.756,6.066-10.545,6.91-15.862,11.14-4.012,3.2.093,2.233.51,5.1.291,2-3.728,3.226-5.06,4.135-2.255,1.54-2.5,2.2-1.9,4.572.489,1.912.388,3.818.745,5.651,2.352,12.1,5.573,24.153,4.526,36.591-.771,9.115-6.63,27.06-13.855,10.946-7.47,3.749-8.42-3.863-11.452-8.758-3.234-5.224-6.785-5.765-12.858-7.369-.211-8,3.949-16.021,5.506-23.851.579-2.909-.317-4.623-.9-7.356-.472-2.164.235-4.712.967-6.762.825-2.328,2.6-3.357,3.9-5.358,1.283-1.964,1.456-3.168,3.458-4.567,1.766-1.225,3.9-2.309,5.248-3.939,1.473-1.774.846-3.837,1.932-5.422,1.152-1.69,3.364-1.91,5.173-2.4,2.121-.564,2.916-1.4,4.606-2.408,3.663-2.181,7.546-.06,11.473-.258S401.937,283.325,405.421,285.371Z" transform="translate(1.672 27.406)" fill="#7b1fa2"/>
      <path id="Trazado_72868" data-name="Trazado 72868" d="M385.732,343.922a69.143,69.143,0,0,0-4.6-18.784c-3.831-9.772-12.193-17.751-14.452-28.078-3.876.771-7.978,1.406-11.674.248a9.711,9.711,0,0,0-.19,4.178c.588,2.733,1.484,4.447.9,7.356-1.557,7.83-5.717,15.849-5.506,23.851,6.073,1.6,9.624,2.145,12.858,7.369,3.032,4.895,3.982,12.507,11.452,8.758,4.854,10.814,9.085,6.286,11.575-.616C385.984,346.779,385.868,345.35,385.732,343.922Z" transform="translate(1.672 42.095)" fill="#895cd8"/>
      <path id="Trazado_72869" data-name="Trazado 72869" d="M383.586,296.511c5.317-4.229,12.107-5.073,15.862-11.14-3.484-2.046-9.919-.5-13.842-.308a19.477,19.477,0,0,1-3.962-.338,4.734,4.734,0,0,1,1.4,2.991c.146,2.552-3.79,4.018-5.653,4.516-4.124,1.1-6.663,3.219-10.052,5.6-3.039,2.13-7.9,2.565-10.259,5.5-2.1,2.6-1.977,4.122-1.064,7.121.433,1.436.84,2.89,1.139,4.361a1.678,1.678,0,0,1,.517.887c.842,3.57,1.23,7.317,2.541,10.759a8.433,8.433,0,0,0,2.939,4.229,1.231,1.231,0,0,1,.149.041c7.922,3.017,8.823,9.57,9.329,17.253.4,6.1.8,11.476,4.141,16.779.48.754.956,1.5,1.43,2.255,2.3-3.706,3.842-10.091,4.212-14.46,1.047-12.438-2.175-24.489-4.527-36.591-.357-1.833-.256-3.738-.745-5.651-.605-2.369-.357-3.032,1.9-4.572,1.333-.909,5.351-2.132,5.061-4.135C383.679,298.744,379.574,299.711,383.586,296.511Z" transform="translate(7.645 27.406)" fill="#673ab7"/>
      <g id="Grupo_40019" data-name="Grupo 40019" transform="translate(391.952 260.563)">
        <rect id="Rectángulo_8542" data-name="Rectángulo 8542" width="1.653" height="10.527" transform="translate(20.133 29.763)" fill="#807a83"/>
        <path id="Trazado_72870" data-name="Trazado 72870" d="M378.167,274.385v1.695c1.447.355.754,7.481.224,8.127a.208.208,0,0,1-.224.071v.633h1.654V274.385Z" transform="translate(-358.034 -244.621)" fill="#726e75"/>
        <path id="Trazado_72871" data-name="Trazado 72871" d="M378.167,274.385v1.253a1.258,1.258,0,0,1,1.019.6,19.651,19.651,0,0,1,.164,3.829,23.8,23.8,0,0,1-.164,3.9,1.185,1.185,0,0,1-1.019.65v.3h1.654V274.385Z" transform="translate(-358.034 -244.621)" fill="#5e5563"/>
        <rect id="Rectángulo_8543" data-name="Rectángulo 8543" width="1.994" height="2.013" transform="translate(74.566 2.579)" fill="#c6bdba"/>
        <path id="Trazado_72872" data-name="Trazado 72872" d="M403.444,261.761v.547c.392-.056.948-.118,1.238.172a.248.248,0,0,1-.123.422,2.858,2.858,0,0,1-1.116.1v.769h1.994v-2.011Z" transform="translate(-328.879 -259.182)" fill="#b2aaa8"/>
        <g id="Grupo_39992" data-name="Grupo 39992" transform="translate(69.96)">
          <path id="Trazado_72873" data-name="Trazado 72873" d="M402.837,263.786c-.155.233-.831.095-1.077.123a16.722,16.722,0,0,1-.071-1.69c-.017-.347-.131-1.324.11-1.561.129-.125.56-.1.741-.067.319.05.31.157.327.489A16.8,16.8,0,0,1,402.837,263.786Z" transform="translate(-400.911 -260.563)" fill="#807a83"/>
          <path id="Trazado_72874" data-name="Trazado 72874" d="M402.833,261.079c-.017-.332-.009-.439-.327-.489a1.153,1.153,0,0,0-.237-.026,3.637,3.637,0,0,1,.237,1.5c-.026.414-.084,1.042-.556,1.193a.336.336,0,0,1-.273-.019,3.661,3.661,0,0,0,.05.668c.246-.028.922.11,1.077-.123A16.8,16.8,0,0,0,402.833,261.079Z" transform="translate(-400.877 -260.562)" fill="#5e5563"/>
          <path id="Trazado_72875" data-name="Trazado 72875" d="M403.8,262.055c.3.252.411,1.122.134,1.352-.23.2-1.06.142-1.357.155a3.773,3.773,0,0,1-.935-.058c-.278-.052-.3-.013-.332-.3-.039-.321.028-.986.327-1.148a1.876,1.876,0,0,1,.754-.06,3.773,3.773,0,0,1,1.32.011A.305.305,0,0,1,403.8,262.055Z" transform="translate(-401.305 -258.98)" fill="#807a83"/>
          <path id="Trazado_72876" data-name="Trazado 72876" d="M403.8,262.026a.305.305,0,0,0-.088-.05.293.293,0,0,0-.075-.015c-.317.7-1.611.863-2.306.678a2.217,2.217,0,0,0-.019.534c.032.289.054.25.332.3a3.773,3.773,0,0,0,.935.058c.3-.013,1.126.041,1.357-.155C404.215,263.147,404.1,262.278,403.8,262.026Z" transform="translate(-401.305 -258.951)" fill="#5e5563"/>
        </g>
        <g id="Grupo_39993" data-name="Grupo 39993" transform="translate(26.248 1.678)">
          <path id="Trazado_72877" data-name="Trazado 72877" d="M381.908,262.9a2.152,2.152,0,0,1-.715-.013.545.545,0,0,1-.168-.039c-.06-.047.045-.14.067-.2a.871.871,0,0,0,.039-.256c.006-.174-.017-.342-.026-.51a.79.79,0,0,1,.026-.439c.088-.131.31-.095.45-.095.28,0,.558-.022.844,0,.151,0,.379-.052.357.185a3.072,3.072,0,0,0-.009.629,1.311,1.311,0,0,0,.067.4c.034.078.181.194.069.252a1.141,1.141,0,0,1-.4.065C382.306,262.884,382.106,262.888,381.908,262.9Z" transform="translate(-381.006 -261.342)" fill="#3d3335"/>
          <path id="Trazado_72878" data-name="Trazado 72878" d="M382.39,262.014a2.781,2.781,0,0,1-1.24-.383,3.586,3.586,0,0,0,1,.144,3.782,3.782,0,0,1-.887-.228,1.97,1.97,0,0,0,.711.028,3.638,3.638,0,0,1-.665-.112,1.558,1.558,0,0,1-.194-.084c-.009.009-.022.015-.028.026a.79.79,0,0,0-.026.439c.009.168.032.336.026.51,0,.05-.009.1-.017.155a.171.171,0,0,1,.054.011,2.748,2.748,0,0,0,1.036.015c-.162-.037-.317-.009-.476-.06-.106-.032-.388-.121-.433-.226a1.628,1.628,0,0,1,.411.075,1.118,1.118,0,0,0,.512.013,2.074,2.074,0,0,1-.631-.157c-.071-.037-.4-.192-.366-.284a2.216,2.216,0,0,0,.467.118A7.181,7.181,0,0,0,382.39,262.014Z" transform="translate(-380.964 -261.3)" fill="#938d8a" opacity="0.58"/>
          <path id="Trazado_72879" data-name="Trazado 72879" d="M382.488,262.649a.518.518,0,0,1-.065-.09,1.311,1.311,0,0,1-.067-.4,3.072,3.072,0,0,1,.009-.629c.013-.157-.088-.181-.2-.185a2.669,2.669,0,0,1-.278.058,1.431,1.431,0,0,1-.428.007.931.931,0,0,0,.349.069,2.9,2.9,0,0,0,.383.022,2.214,2.214,0,0,1-.676.121,1.583,1.583,0,0,0,.711,0,1.78,1.78,0,0,1-.657.093,2.489,2.489,0,0,0,.685.05,1.2,1.2,0,0,1-.631.123,1.681,1.681,0,0,0,.573.058.848.848,0,0,1-.375.213,1.243,1.243,0,0,1-.454.015,1.049,1.049,0,0,0,.409.08c.088.011.319-.017.381.05a.922.922,0,0,1-.381.144,1.2,1.2,0,0,1-.375.047c.106,0,.209.024.31.03a1.24,1.24,0,0,0,.577-.058.564.564,0,0,1-.278.149c-.11.024-.261.015-.34.078a3.368,3.368,0,0,0,.808-.041Z" transform="translate(-380.589 -261.338)" fill="#160c0f"/>
        </g>
        <path id="Trazado_72880" data-name="Trazado 72880" d="M383.745,263.217c-.6-.034-1.187-.015-1.774-.032a4.011,4.011,0,0,0-.719.006c-.1.017-.422.149-.5.026s.357-.353.256-.605c-.058-.144-.252-.162-.319-.289-.194-.381.575-.332.777-.323.4.021.825.026,1.236.026a5.2,5.2,0,0,1,1.124-.043c.538.129-.194.48-.11.691.058.138.291.168.353.323C384.174,263.253,383.939,263.223,383.745,263.217Z" transform="translate(-355.158 -258.958)" fill="#bcbbbb"/>
        <path id="Trazado_72881" data-name="Trazado 72881" d="M382.377,262.74c-.773.043-1.068.058-1.072-.293-.256-.052-.485-.177-.485-.407-.129.041-.2.127-.129.274.067.127.261.144.319.289.1.252-.327.489-.256.605s.4-.009.5-.026a4.014,4.014,0,0,1,.719-.006c.588.017,1.176,0,1.774.032.194.006.429.037.327-.22-.062-.155-.3-.185-.353-.323-.084-.211.648-.562.11-.691-.026,0-.052,0-.075-.011.1.015-.114.336-.168.37a2.213,2.213,0,0,1-.754.183,4.754,4.754,0,0,0-.866.032,4.938,4.938,0,0,1,1.09.088C383.144,262.855,382.461,262.736,382.377,262.74Z" transform="translate(-355.157 -258.949)" fill="#938d8a"/>
        <g id="Grupo_39994" data-name="Grupo 39994" transform="translate(21.128 1.016)">
          <path id="Trazado_72882" data-name="Trazado 72882" d="M379.7,261.584a4.215,4.215,0,0,1-.009.706c-.017.366-.058.749-.075,1.109-.026.476.194.92-.058,1.354-.622,1.09-.687-1.174-.715-1.46a6.529,6.529,0,0,1-.185-1.74c.067-.407.588-.741.915-.334A.727.727,0,0,1,379.7,261.584Z" transform="translate(-378.629 -261.035)" fill="#8c8a85"/>
          <path id="Trazado_72883" data-name="Trazado 72883" d="M379.568,261.582a.727.727,0,0,0-.127-.364.448.448,0,0,0-.364-.181,3.938,3.938,0,0,1,.138,1.843,1.076,1.076,0,0,1-.476.82c.052.7.2,1.9.687,1.051.252-.435.032-.879.058-1.354.017-.36.058-.743.075-1.109A4.215,4.215,0,0,0,379.568,261.582Z" transform="translate(-378.502 -261.033)" fill="#565145"/>
        </g>
        <path id="Rectángulo_8544" data-name="Rectángulo 8544" d="M1.016,0H6.422A1.014,1.014,0,0,1,7.436,1.014v9.794A1.016,1.016,0,0,1,6.42,11.823h-5.4A1.016,1.016,0,0,1,0,10.807V1.016A1.016,1.016,0,0,1,1.016,0Z" transform="translate(76.009 8.73)" fill="#a09b98"/>
        <path id="Trazado_72884" data-name="Trazado 72884" d="M410.6,274.9c-2.026.429-2.246-2.692-2.268-3.9-.024-1.35-.385-5.153.872-6.383H406.3a2.187,2.187,0,0,0-2.184,2.188v7.451a2.185,2.185,0,0,0,2.184,2.184h3.066a2.178,2.178,0,0,0,2.166-2.018A1.98,1.98,0,0,1,410.6,274.9Z" transform="translate(-328.106 -255.888)" fill="#8e8a87"/>
        <path id="Trazado_72885" data-name="Trazado 72885" d="M445.207,289.47a2.119,2.119,0,0,1-2.16,2.067H373.362a2.12,2.12,0,0,1-2.166-2.067h0a2.119,2.119,0,0,1,2.166-2.069h69.685a2.118,2.118,0,0,1,2.16,2.069Z" transform="translate(-366.074 -229.608)" fill="#a09b98"/>
        <path id="Trazado_72886" data-name="Trazado 72886" d="M380.275,262.423c-8.433,0-7.524,19.588-3.8,24.039,2.537,3.028,9.66,2.612,13.472,2.552,7.326-.1,8.736.095,10.048-5.022.472-1.835.273-3.484,2.007-4.619,1.606-1.057,13.747-2.216,17.025,1.062,2.987,2.989,3.685,17.456.745,17.746-2.408.239-40.693.105-42.864.885-4.092,1.482-6.553,3.844-7.638,7.692-1.143,4.04-.28,8.767,4.673,10.929l74.782-.028c3.23-2.808,2.868-12.462,2.091-16.224a130.484,130.484,0,0,1-2.347-13.894c-.476-4.759,1.492-24.243-2.8-25.118Z" transform="translate(-368.818 -258.418)" fill="#eadece"/>
        <path id="Trazado_72887" data-name="Trazado 72887" d="M450.812,301.434a130.484,130.484,0,0,1-2.347-13.894c-.476-4.759,1.492-24.243-2.8-25.118H380.275c-8.433,0-7.524,19.588-3.8,24.039,2.537,3.028,9.66,2.612,13.472,2.552,7.326-.1,8.736.095,10.048-5.022.472-1.835.273-3.484,2.007-4.619,1.606-1.057,13.747-2.216,17.025,1.062,2.987,2.989,3.685,17.456.745,17.746-2.408.239-40.693.105-42.864.885-4.092,1.482-6.553,3.844-7.638,7.692-1.143,4.04-.28,8.767,4.673,10.929l74.782-.028C451.951,314.85,451.59,305.2,450.812,301.434Zm-11.407,7.492c-3.286.489-6.447-.106-9.733-.144-4.117-.047-8.226.071-12.339.235-8.685.349-17.307.894-25.981,1.484a60.166,60.166,0,0,1-11.465.108c-1.88-.233-4.311-.538-5.767-1.893-4.352-4.048,4.425-7.285,7.248-7.739,6.03-.965,12.124.3,18.164.506,5.913.2,12.135,1.352,18,.153,2.868-.586,6.846-1.955,7.608-5.237.6-2.6-.153-5.379-.11-8.022a1.852,1.852,0,0,1,.159-.73,39.637,39.637,0,0,0-.618-5.452c-.644-2.492-2.25-3.725-4.462-4.895-4.227-2.222-9.072-4.083-13.913-3.5a37.734,37.734,0,0,1-5.052.461c-1.518.09-4.147.155-5,1.751-.568,1.075-.855,2.349-1.527,3.364-2.461,3.7-8.295,5.414-12.5,3.939-8.306-2.911-5.771-15.636,1.4-18.442.138-.11,8.743.1,16.562.788,11.318-2.347,23.136-.485,34.565-.084,3.588.129,8.407.6,8.995,4.957a55.324,55.324,0,0,1,.034,6.355c.013.883.009,1.764,0,2.644a39.84,39.84,0,0,1,.975,7.19c.256,2.9,1.027,5.681,1.426,8.551C446.837,300.646,446.075,307.94,439.406,308.926Z" transform="translate(-368.818 -258.418)" fill="#ddd3c3"/>
        <path id="Trazado_72888" data-name="Trazado 72888" d="M450.812,301.434a130.484,130.484,0,0,1-2.347-13.894c-.476-4.759,1.492-24.243-2.8-25.118H380.275c-8.433,0-7.524,19.588-3.8,24.039,2.537,3.028,9.66,2.612,13.472,2.552,7.326-.1,8.736.095,10.048-5.022.472-1.835.273-3.484,2.007-4.619,1.606-1.057,13.747-2.216,17.025,1.062,2.987,2.989,3.685,17.456.745,17.746-2.408.239-40.693.105-42.864.885-4.092,1.482-6.553,3.844-7.638,7.692-1.143,4.04-.28,8.767,4.673,10.929l74.782-.028C451.951,314.85,451.59,305.2,450.812,301.434Zm-5.987,13.728c-1.29.28-68.063,2-71.44-.2-4.964-2.375-3.685-9.447-.039-12.61,4.5-3.908,11.381-2.7,16.8-2.464,7.94.336,15.83-.071,23.772-.075a24.83,24.83,0,0,0,6.505-.422c2.395-2.774,2.586-7.005,2.595-10.888.017-4.955-.525-10.8-6.118-12.382a1.738,1.738,0,0,1-.982-.672,79.9,79.9,0,0,0-10.866.267c-1.292.25-5.158.011-6.079,1.044-1.647,1.841-.9,5.933-2.9,7.628-3.521,2.97-11.437,3.4-15.436,1.23-4.4-2.384-6.292-7.492-5.48-12.313,1-5.9,5.123-9.415,11.161-9.292,8.413.174,16.842.883,25.262,1.1,7.061.183,26.366-1.141,30.977.224a4.552,4.552,0,0,1,3.945,3.23c1.363,3.682.622,7.632.256,11.418-.413,4.223.463,8.355.993,12.539a98.1,98.1,0,0,1,1.1,13.461C449.251,310.022,448.687,314.323,444.826,315.163Z" transform="translate(-368.818 -258.418)" fill="#c6bdba"/>
        <path id="Trazado_72889" data-name="Trazado 72889" d="M378.833,262.4c-.065.562-.106,1.07-.11,1.186-.043,1.462.138,17.484.209,19.663.06,1.845-.062,3.906.131,5.739.123,0,.239,0,.353,0,.493-3.585.067-21.511.067-24.065,0-.864.052-1.68.071-2.52Z" transform="translate(-357.399 -258.448)" fill="#7a8182"/>
        <path id="Trazado_72890" data-name="Trazado 72890" d="M380.841,283.283c.058,1.8-.03,3.771.067,5.623.215-.013.413-.03.612-.05.368-5.64.024-22.04-.022-26.433h-.909C380.619,267.957,380.774,281.166,380.841,283.283Z" transform="translate(-355.24 -258.418)" fill="#7a8182"/>
        <path id="Trazado_72891" data-name="Trazado 72891" d="M422.845,291.954a23.349,23.349,0,0,0,4.929-.523c5.231-1.234,2.418-9.675,2.19-13.371a79.613,79.613,0,0,1,.317-8.752c.088-1.927.084-4.927-2.321-5.435-3.626-.762-7.487-.439-11.163-.325-4.064.123-8.125-.045-12.193-.045-4.219,0-8.441-.252-12.681-.252-2.371,0-5.089-.474-7.36.409-2.683,1.049-2.746,4.968-2.573,7.4.185,2.672,1.2,5.685,4.29,5.946,2.735.239,5.33-.948,8.03-1.07,2.952-.133,6.615-.181,9.29,1.3,2.7,1.49,3.432,4.705,3.575,7.615.127,2.463-.474,6.363,2.563,6.925,2.8.508,6.019.166,8.928.166C420.018,291.939,421.435,291.973,422.845,291.954Z" transform="translate(-353.691 -257.61)" fill="#7986cb"/>
        <path id="Trazado_72892" data-name="Trazado 72892" d="M399.707,272.019A32.954,32.954,0,0,1,402,264.478c.181-.385.383-.756.592-1.12-.23,0-.463-.009-.693-.009-1.716,0-3.432-.041-5.149-.093a25.072,25.072,0,0,0-2.446,1.57,30.213,30.213,0,0,0-6.869,7.091,31.278,31.278,0,0,0-3.15,4.957c2.479.007,4.854-.984,7.319-1.1a24.062,24.062,0,0,1,7.285.5C399.072,274.851,399.41,273.423,399.707,272.019Z" transform="translate(-350.983 -257.456)" fill="#ebe1ff"/>
        <path id="Trazado_72893" data-name="Trazado 72893" d="M400.418,291.793a17.794,17.794,0,0,0,4.483-4.3,54.393,54.393,0,0,0,6.221-9.316,101,101,0,0,0,4.5-10.642c.239-.683.525-1.408.808-2.147a2.6,2.6,0,0,0-1.96-1.772c-.556-.116-1.124-.2-1.69-.271-.528.7-1.036,1.385-1.482,2.093a95.034,95.034,0,0,1-5.767,8.226,37.558,37.558,0,0,1-6.9,6.592,26.593,26.593,0,0,1-5.013,3.4c.03.31.052.622.067.932.127,2.463-.474,6.363,2.563,6.925A22.927,22.927,0,0,0,400.418,291.793Z" transform="translate(-340.208 -257.354)" fill="#ebe1ff"/>
        <path id="Trazado_72894" data-name="Trazado 72894" d="M429.964,278.06a79.613,79.613,0,0,1,.317-8.752c.088-1.927.084-4.927-2.321-5.435-3.626-.762-7.487-.439-11.163-.325-4.064.123-8.125-.045-12.193-.045-4.219,0-8.441-.252-12.681-.252-2.371,0-5.089-.474-7.36.409-2.683,1.049-2.746,4.968-2.573,7.4.185,2.672,1.2,5.685,4.29,5.946,2.735.239,5.33-.948,8.03-1.07,2.952-.133,6.615-.181,9.29,1.3,2.7,1.49,3.432,4.705,3.575,7.615.127,2.463-.474,6.363,2.563,6.925,2.8.508,6.019.166,8.928.166,1.354,0,2.771.034,4.182.015a23.349,23.349,0,0,0,4.929-.523C433,290.2,430.193,281.755,429.964,278.06Zm-2.308,11.267c-2.8,1.156-6.443,1.049-9.417,1.2-2.481.125-4.942.334-7.2-.885-2.278-1.234-2.177-4.191-2.444-6.381-.39-3.245-.866-6.221-4.2-7.742a18.913,18.913,0,0,0-11.314-.9c-2.618.64-5.668,1.7-8.138.106-3.323-2.141-3.036-7.124-.517-9.378a6.736,6.736,0,0,1,4.285-1.331c2.916.373,5.687.771,8.653.928,4.219.226,8.482.549,12.714.446,4.029-.1,8.08-.876,12.109-.812,2.082.034,4.425.261,5.9,1.9,1.632,1.826.013,4.647-.037,6.682-.1,4.008,1.43,7.782,1.479,11.76C429.549,286.669,429.506,288.558,427.656,289.327Z" transform="translate(-353.691 -257.61)" fill="#9fa8da"/>
        <g id="Grupo_39995" data-name="Grupo 39995" transform="translate(20.757 6.777)">
          <path id="Trazado_72895" data-name="Trazado 72895" d="M379.849,269.141c-.039-.812-.073-1.615-.073-2.429a13.726,13.726,0,0,1,.034-1.953c.075-.528.155-.941-.441-1.025-.568-.08-.782.03-.859.62a21.545,21.545,0,0,0-.032,2.476c0,.866.03,1.744.114,2.6.045.5.08,1.794.941,1.41C380.206,270.538,379.872,269.681,379.849,269.141Z" transform="translate(-378.457 -263.71)" fill="#474237"/>
          <path id="Trazado_72896" data-name="Trazado 72896" d="M378.629,265.8c0,.355-.034,1.286.215,1.522a5.3,5.3,0,0,0,.23-1.852,7.522,7.522,0,0,0-.022-1.187c-.088-.381-.345-.4-.454-.037A6.479,6.479,0,0,0,378.629,265.8Z" transform="translate(-378.348 -263.387)" fill="#d9d1ce" opacity="0.38"/>
        </g>
        <path id="Trazado_72897" data-name="Trazado 72897" d="M383.3,262.128a10.854,10.854,0,0,0-1.376,0c-.239-.011-.461-.088-.693-.086-.142,0-.5-.022-.306.172.084.088.314.082.424.093.379.024.756-.034,1.139,0C382.7,262.313,383.208,262.391,383.3,262.128Z" transform="translate(-354.919 -258.864)" fill="#e2dedc"/>
        <path id="Trazado_72898" data-name="Trazado 72898" d="M406.584,269.074c0,.917-.308,3.8.631,4.115,1.081.366.874-3.426.844-4.212-.028-.885-.168-3.03-.672-3.672C406.457,264.139,406.584,268.394,406.584,269.074Z" transform="translate(-325.313 -255.325)" fill="#c6bdba"/>
        <path id="Trazado_72899" data-name="Trazado 72899" d="M406.25,261.989a.434.434,0,0,1-.433.437h-2.186a.439.439,0,0,1-.439-.437h0a.432.432,0,0,1,.439-.431h2.186a.427.427,0,0,1,.433.431Z" transform="translate(-329.169 -259.416)" fill="#ddd3c3"/>
        <path id="Trazado_72900" data-name="Trazado 72900" d="M405.817,261.558h-2.186a.432.432,0,0,0-.439.431.439.439,0,0,0,.439.437h2.186a.434.434,0,0,0,.433-.437A.427.427,0,0,0,405.817,261.558Zm.149.584a5.885,5.885,0,0,1-2.2.062c-.34.065-.489-.461-.142-.528h.009a11.777,11.777,0,0,1,2.257-.034A.275.275,0,0,1,405.966,262.142Z" transform="translate(-329.169 -259.416)" fill="#c6bdba"/>
        <g id="Grupo_39996" data-name="Grupo 39996" transform="translate(55.635 25.935)">
          <path id="Trazado_72901" data-name="Trazado 72901" d="M399.571,275.064a2.459,2.459,0,1,1-2.457-2.457A2.458,2.458,0,0,1,399.571,275.064Z" transform="translate(-394.653 -272.607)" fill="#a59888"/>
          <path id="Trazado_72902" data-name="Trazado 72902" d="M398.79,274.792a1.951,1.951,0,1,1-1.947-1.951A1.947,1.947,0,0,1,398.79,274.792Z" transform="translate(-394.382 -272.337)" fill="url(#radial-gradient)"/>
          <path id="Trazado_72903" data-name="Trazado 72903" d="M395.624,274.664c.164-.224.172-.489.39-.691a3.414,3.414,0,0,1,.872-.437c.655-.323.155-.6-.362-.547a1.86,1.86,0,0,0-1.342.76C394.98,274.092,395.174,275.285,395.624,274.664Z" transform="translate(-394.134 -272.173)" fill="#eadece"/>
        </g>
        <g id="Grupo_39997" data-name="Grupo 39997" transform="translate(62.526 25.935)">
          <path id="Trazado_72904" data-name="Trazado 72904" d="M402.774,275.064a2.46,2.46,0,1,1-2.466-2.457A2.46,2.46,0,0,1,402.774,275.064Z" transform="translate(-397.853 -272.607)" fill="#a59888"/>
          <path id="Trazado_72905" data-name="Trazado 72905" d="M401.993,274.792a1.953,1.953,0,1,1-1.955-1.951A1.952,1.952,0,0,1,401.993,274.792Z" transform="translate(-397.583 -272.337)" fill="url(#radial-gradient-2)"/>
          <path id="Trazado_72906" data-name="Trazado 72906" d="M398.824,274.664c.164-.224.168-.489.392-.691a3.367,3.367,0,0,1,.87-.437c.657-.323.151-.6-.366-.547a1.868,1.868,0,0,0-1.342.76C398.18,274.092,398.374,275.285,398.824,274.664Z" transform="translate(-397.336 -272.173)" fill="#eadece"/>
        </g>
        <g id="Grupo_39998" data-name="Grupo 39998" transform="translate(69.41 25.935)">
          <path id="Trazado_72907" data-name="Trazado 72907" d="M405.975,275.064a2.462,2.462,0,1,1-2.461-2.457A2.459,2.459,0,0,1,405.975,275.064Z" transform="translate(-401.05 -272.607)" fill="#a59888"/>
          <path id="Trazado_72908" data-name="Trazado 72908" d="M405.188,274.792a1.95,1.95,0,1,1-1.949-1.951A1.949,1.949,0,0,1,405.188,274.792Z" transform="translate(-400.775 -272.337)" fill="url(#radial-gradient-3)"/>
          <path id="Trazado_72909" data-name="Trazado 72909" d="M402.019,274.664c.168-.224.172-.489.4-.691a3.366,3.366,0,0,1,.87-.437c.657-.323.155-.6-.366-.547a1.864,1.864,0,0,0-1.342.76C401.38,274.092,401.569,275.285,402.019,274.664Z" transform="translate(-400.531 -272.173)" fill="#eadece"/>
        </g>
        <g id="Grupo_40001" data-name="Grupo 40001" transform="translate(32.52 12.937)">
          <path id="Trazado_72910" data-name="Trazado 72910" d="M395.427,267.906a1.243,1.243,0,0,1-1.107,1.342h-9.3a1.24,1.24,0,0,1-1.1-1.342h0a1.236,1.236,0,0,1,1.1-1.335h9.3a1.239,1.239,0,0,1,1.107,1.335Z" transform="translate(-383.919 -266.571)" fill="#a59888"/>
          <path id="Trazado_72911" data-name="Trazado 72911" d="M394.543,267.725a.988.988,0,0,1-.993.986h-8.373a.988.988,0,0,1-.993-.986h0a.981.981,0,0,1,.993-.976h8.373a.981.981,0,0,1,.993.976Z" transform="translate(-383.612 -266.365)" fill="#847464"/>
          <g id="Grupo_40000" data-name="Grupo 40000" transform="translate(1.699 0.385)">
            <g id="Grupo_39999" data-name="Grupo 39999">
              <path id="Trazado_72912" data-name="Trazado 72912" d="M393.1,267.725a.908.908,0,0,1-.805.986h-6.779a.911.911,0,0,1-.807-.986h0a.9.9,0,0,1,.807-.976h6.779a.9.9,0,0,1,.805.976Z" transform="translate(-384.708 -266.75)" fill="url(#linear-gradient)"/>
              <path id="Trazado_72913" data-name="Trazado 72913" d="M385.02,268.494c1.766-2.087,5.446-1.9,8.067-.95a.87.87,0,0,0-.792-.795h-6.779a.9.9,0,0,0-.807.976A1.07,1.07,0,0,0,385.02,268.494Z" transform="translate(-384.708 -266.75)" fill="#eadece"/>
            </g>
            <path id="Trazado_72914" data-name="Trazado 72914" d="M387.054,267.71a2.807,2.807,0,0,1-.181.795,2.12,2.12,0,0,1-.177-.366,1.92,1.92,0,0,1-.086-.469,1.138,1.138,0,0,1,.233-.885,1.254,1.254,0,0,1,.213.864C387.056,267.669,387.054,267.686,387.054,267.71Z" transform="translate(-382.519 -266.711)" fill="#b2aaa3"/>
            <path id="Trazado_72915" data-name="Trazado 72915" d="M386.873,268.5a2.12,2.12,0,0,1-.177-.366,1.92,1.92,0,0,1-.086-.469,1.138,1.138,0,0,1,.233-.885Z" transform="translate(-382.519 -266.711)" fill="#918271"/>
          </g>
        </g>
        <g id="Grupo_40010" data-name="Grupo 40010" transform="translate(58.462 37.958)">
          <path id="Trazado_72916" data-name="Trazado 72916" d="M409.765,285.092a6.9,6.9,0,1,1-6.9-6.9A6.9,6.9,0,0,1,409.765,285.092Z" transform="translate(-395.966 -278.19)" fill="#a59888"/>
          <g id="Grupo_40002" data-name="Grupo 40002" transform="translate(0.612 0.614)">
            <path id="Trazado_72917" data-name="Trazado 72917" d="M408.815,284.395a6.288,6.288,0,1,1-6.641-5.909A6.281,6.281,0,0,1,408.815,284.395Z" transform="translate(-396.25 -278.475)" fill="url(#radial-gradient-4)"/>
            <path id="Trazado_72918" data-name="Trazado 72918" d="M398.678,284.54c.487-.754.459-1.6,1.131-2.306a10.642,10.642,0,0,1,2.722-1.561c2.048-1.165.381-1.96-1.27-1.695a6.046,6.046,0,0,0-4.182,2.7C396.508,282.8,397.345,286.618,398.678,284.54Z" transform="translate(-395.505 -277.955)" fill="#eadece"/>
          </g>
          <g id="Grupo_40009" data-name="Grupo 40009" transform="translate(1.025 0.862)">
            <g id="Grupo_40003" data-name="Grupo 40003" transform="translate(0 5.197)">
              <path id="Trazado_72919" data-name="Trazado 72919" d="M396.52,281.7h-.009a.08.08,0,0,1-.069-.088c.073-.469.153-.581.25-.594.129-.022.2.127.282.271a.738.738,0,0,0,.075.129c.041.052.062.058.062.058s.03-.09.05-.14a.489.489,0,0,1,.194-.31.181.181,0,0,1,.144-.009c.1.037.146.166.194.289a.482.482,0,0,0,.075.17s.013-.011.024-.032a.52.52,0,0,0,.088-.142c.052-.108.106-.233.237-.276.239-.082.332.168.385.323.017.037.039.095.052.116a.072.072,0,0,1,.058.073.089.089,0,0,1-.075.082h0c-.1,0-.129-.108-.172-.222-.075-.2-.118-.252-.189-.228s-.11.112-.151.2a.761.761,0,0,1-.114.187.179.179,0,0,1-.168.075c-.1-.019-.146-.142-.194-.267-.03-.069-.071-.185-.106-.2a.413.413,0,0,0-.134.224c-.039.118-.075.226-.172.243a.221.221,0,0,1-.2-.112.97.97,0,0,1-.1-.155.688.688,0,0,0-.127-.194,1.829,1.829,0,0,0-.108.467A.085.085,0,0,1,396.52,281.7Z" transform="translate(-396.442 -281.004)" fill="#ef2c06"/>
            </g>
            <g id="Grupo_40004" data-name="Grupo 40004" transform="translate(0.733 2.185)">
              <path id="Trazado_72920" data-name="Trazado 72920" d="M398.565,281.076,398.52,281a.078.078,0,0,1,0-.11l.013-.009c0-.054,0-.108.009-.157a3.882,3.882,0,0,1,.054-.549,7.372,7.372,0,0,0-.8.461l-.084.062-.034-.1a1.457,1.457,0,0,1-.015-.543c.006-.069.015-.133.015-.194-.062.024-.125.056-.194.086a1.867,1.867,0,0,0-.562.319.078.078,0,1,1-.11-.11,1.928,1.928,0,0,1,.609-.351c.11-.045.211-.093.295-.136l.11-.065.009.123a2.343,2.343,0,0,1-.017.342,1.87,1.87,0,0,0-.013.375,7.972,7.972,0,0,1,.874-.48l.177-.088-.067.179a2.862,2.862,0,0,0-.088.676c0,.086-.009.166-.017.248l0,.054-.05.026Z" transform="translate(-396.782 -279.605)" fill="#ef2c06"/>
            </g>
            <g id="Grupo_40005" data-name="Grupo 40005" transform="translate(2.737 0.247)">
              <path id="Trazado_72921" data-name="Trazado 72921" d="M398.6,280.423a.064.064,0,0,1-.058-.03.075.075,0,0,1,0-.108l.385-.385-.642.336.571-.672-.79.381.525-.562-.749.368.573-.575-.6.263a.075.075,0,0,1-.1-.039.089.089,0,0,1,.041-.11l1.342-.586-.491.5.676-.332-.543.579.7-.338-.534.625.827-.42-1.09,1.079A.055.055,0,0,1,398.6,280.423Z" transform="translate(-397.713 -278.705)" fill="#ef2c06"/>
            </g>
            <g id="Grupo_40006" data-name="Grupo 40006" transform="translate(7.109 3.978)">
              <path id="Trazado_72922" data-name="Trazado 72922" d="M400.555,287.982a.069.069,0,0,1-.071-.052l-.741-2.7,1.927,1.734-.728-2.261,1.647,1.307-.765-1.8,1.606.9-.795-1.382,1.333.142-.732-.9,1.053-.123-.627-.577.672-.314-.454-.515.48-.485-.261-.381a.081.081,0,0,1,.015-.11.088.088,0,0,1,.11.019l.34.5-.469.465.5.558-.657.312.708.646-1.111.131.795.973-1.4-.146.924,1.6-1.7-.945.825,1.947-1.721-1.363.741,2.313-1.96-1.761.605,2.192a.082.082,0,0,1-.058.095Z" transform="translate(-399.743 -280.438)" fill="#ef2c06"/>
            </g>
            <g id="Grupo_40007" data-name="Grupo 40007" transform="translate(5.807)">
              <path id="Trazado_72923" data-name="Trazado 72923" d="M400.113,280.28h-.106c-.332,0-.661-.026-.758-.187a.21.21,0,0,1,.009-.22.318.318,0,0,1,.19-.155.468.468,0,0,1-.252-.17.2.2,0,0,1,.013-.2.533.533,0,0,1,.308-.187.551.551,0,0,1-.338-.187.191.191,0,0,1-.019-.2c.095-.172.491-.185.907-.179h.069a.075.075,0,0,1,.075.075.079.079,0,0,1-.075.08l-.069,0c-.622-.015-.747.056-.773.1,0,.011.013.037.017.043.075.127.53.2.825.215v.153c-.265-.007-.7.037-.8.177a.037.037,0,0,0,0,.045c.062.125.579.2.769.2v.159c-.034,0-.08-.007-.127-.007-.192-.009-.508-.021-.584.116-.026.047-.013.065-.009.069.058.1.467.11.627.112a1,1,0,0,0,.105,0,.076.076,0,0,1,.075.08A.078.078,0,0,1,400.113,280.28Z" transform="translate(-399.139 -278.59)" fill="#ef2c06"/>
            </g>
            <g id="Grupo_40008" data-name="Grupo 40008" transform="translate(0.997 7.019)">
              <path id="Trazado_72924" data-name="Trazado 72924" d="M397.583,282.636a.68.68,0,0,1-.59.68,1.034,1.034,0,0,0-.088-1.466C397.338,281.953,397.646,282.175,397.583,282.636Z" transform="translate(-396.905 -281.85)" fill="#ef2c06"/>
            </g>
          </g>
        </g>
        <g id="Grupo_40013" data-name="Grupo 40013" transform="translate(21.479 31.907)">
          <g id="Grupo_40011" data-name="Grupo 40011" transform="translate(1.569)">
            <rect id="Rectángulo_8545" data-name="Rectángulo 8545" width="0.732" height="0.427" transform="translate(0 0.727)" fill="#010000"/>
            <path id="Trazado_72925" data-name="Trazado 72925" d="M381.117,276.272c0,.485-.295.885-.657.885s-.655-.4-.655-.885.289-.892.655-.892S381.117,275.778,381.117,276.272Z" transform="translate(-379.191 -275.38)" fill="#010000"/>
          </g>
          <g id="Grupo_40012" data-name="Grupo 40012" transform="translate(0 0.407)">
            <path id="Trazado_72926" data-name="Trazado 72926" d="M379.057,276.555a2.73,2.73,0,0,0,1.393-.032c.2-.095.213-.3.2-.547-.017-.314-.088-.407-.407-.407-.295,0-.568.041-.859.037s-.465,0-.562.265A.567.567,0,0,0,379.057,276.555Z" transform="translate(-378.792 -275.569)" fill="#77727a"/>
            <path id="Trazado_72927" data-name="Trazado 72927" d="M379.406,276.158a.466.466,0,0,1-.319-.48.671.671,0,0,1,.024-.084.342.342,0,0,0-.284.248.567.567,0,0,0,.23.685,2.73,2.73,0,0,0,1.393-.032.379.379,0,0,0,.2-.357A1.63,1.63,0,0,1,379.406,276.158Z" transform="translate(-378.792 -275.54)" fill="#48424c"/>
          </g>
        </g>
        <g id="Grupo_40016" data-name="Grupo 40016" transform="translate(21.575 37.588)">
          <g id="Grupo_40014" data-name="Grupo 40014" transform="translate(1.297)">
            <rect id="Rectángulo_8546" data-name="Rectángulo 8546" width="0.357" height="0.213" transform="translate(0 0.352)" fill="#010000"/>
            <path id="Trazado_72928" data-name="Trazado 72928" d="M380.223,278.453c0,.239-.142.439-.323.439s-.321-.2-.321-.439.144-.435.321-.435S380.223,278.21,380.223,278.453Z" transform="translate(-379.276 -278.018)" fill="#010000"/>
          </g>
          <g id="Grupo_40015" data-name="Grupo 40015" transform="translate(0 0.153)">
            <path id="Trazado_72929" data-name="Trazado 72929" d="M379.032,278.808a2.008,2.008,0,0,0,1.016-.024c.144-.067.153-.224.144-.4-.009-.228-.067-.3-.3-.3-.213,0-.411.026-.627.024s-.336,0-.407.2A.409.409,0,0,0,379.032,278.808Z" transform="translate(-378.836 -278.089)" fill="#77727a"/>
            <path id="Trazado_72930" data-name="Trazado 72930" d="M379.283,278.524a.355.355,0,0,1-.23-.355l.015-.063a.247.247,0,0,0-.2.183.409.409,0,0,0,.168.5,2.008,2.008,0,0,0,1.016-.024.285.285,0,0,0,.144-.261A1.237,1.237,0,0,1,379.283,278.524Z" transform="translate(-378.836 -278.069)" fill="#48424c"/>
          </g>
        </g>
        <path id="Trazado_72931" data-name="Trazado 72931" d="M394.069,282.642c5.153-.125,10.317-.095,15.466-.375,1.8-.1,4.567.2,6.262-.487,1.253-.506,2.119-1.5,1.74-2.787a.932.932,0,0,1-.276.073c-2.408.239-40.693.105-42.864.885a15.239,15.239,0,0,0-3.407,1.695,10.671,10.671,0,0,0,1.725.556,32.42,32.42,0,0,0,6.045.545C383.871,282.911,388.959,282.773,394.069,282.642Z" transform="translate(-366.311 -239.305)" fill="#c6bdba"/>
        <path id="Trazado_72932" data-name="Trazado 72932" d="M386.354,281.489c-.273-.767-.67-1.54-.926-2.33-2.763.026-5.437.062-7.841.114q-.433,1.676-.891,3.353c3.318,0,6.637-.073,9.964-.155C386.567,282.141,386.47,281.816,386.354,281.489Z" transform="translate(-359.73 -239.114)" fill="#848787"/>
        <path id="Trazado_72933" data-name="Trazado 72933" d="M384.56,280.273c-.177-.015-.353-.037-.525-.06a20.106,20.106,0,0,1-5.013-1.025c-.4.007-.8.011-1.186.024a12.309,12.309,0,0,0,5.089,2.3c.758.181,1.527.321,2.289.5-.056-.185-.105-.368-.172-.553C384.9,281.064,384.728,280.674,384.56,280.273Z" transform="translate(-358.417 -239.081)" fill="#afaaa8" opacity="0.5"/>
        <path id="Trazado_72934" data-name="Trazado 72934" d="M381.847,281.82a7.745,7.745,0,0,1-4.328-2.61h-.037c-.118.459-.467,2.7-.547,3.355,2.569,0,5.129-.05,7.7-.11C383.7,282.272,382.764,282.081,381.847,281.82Z" transform="translate(-359.455 -239.056)" fill="#afaaa8" opacity="0.5"/>
        <path id="Trazado_72935" data-name="Trazado 72935" d="M379.563,282.434c1.561-.015,3.116-.037,4.677-.075-.939-.183-1.871-.375-2.789-.635a7.943,7.943,0,0,1-4.173-2.429A4.911,4.911,0,0,0,379.563,282.434Z" transform="translate(-359.059 -238.959)" fill="#afaaa8" opacity="0.5"/>
        <path id="Trazado_72936" data-name="Trazado 72936" d="M417.537,278.994a.932.932,0,0,1-.276.073,3.206,3.206,0,0,1-.353.022,2.352,2.352,0,0,1-.573,1.044c-1.143,1.221-2.948,1.458-4.539,1.469-2.261.022-4.511-.306-6.779-.189-3,.153-6.019.149-9.029.179-5.918.056-11.777.586-17.7.289-1.329-.069-3.168.069-4.262-.846a1.054,1.054,0,0,1-.441-.762,14.381,14.381,0,0,0-2.595,1.376,10.671,10.671,0,0,0,1.725.556,32.42,32.42,0,0,0,6.045.545c5.11.164,10.2.026,15.309-.106,5.153-.125,10.317-.095,15.466-.375,1.8-.1,4.567.2,6.262-.487C417.051,281.275,417.916,280.277,417.537,278.994Z" transform="translate(-366.311 -239.305)" fill="#a39b98"/>
        <path id="Trazado_72937" data-name="Trazado 72937" d="M381.363,279.637a1.6,1.6,0,0,0-.019-.816c-.043-.082-.4-.039-.986-.011a.917.917,0,0,1-.368.491,1.314,1.314,0,0,1-.788.043.869.869,0,0,1-.5-.553s-.857-.06-.9.088c-.03.1-.151.758-.049.812Z" transform="translate(-358.559 -239.56)" fill="#c6bdba"/>
        <path id="Trazado_72938" data-name="Trazado 72938" d="M380.273,279.227a5.637,5.637,0,0,1-2.429-.166.246.246,0,0,1-.11-.069c-.026.2-.039.418.017.446l3.611-.054c.039-.011.052-.187.043-.377A4.584,4.584,0,0,1,380.273,279.227Z" transform="translate(-358.559 -239.307)" fill="#8f8a91"/>
        <g id="Grupo_40017" data-name="Grupo 40017" transform="translate(21.44 39.38)">
          <path id="Trazado_72939" data-name="Trazado 72939" d="M380.1,279.58c-.026.009-.969.015-1.152.009-.056,0-.118,0-.174-.011.022-.062.093-.105.123-.172a2.024,2.024,0,0,0,.106-.23.389.389,0,0,1,.256-.289,1.5,1.5,0,0,1,.859.06.285.285,0,0,1,.168.207C380.29,279.184,380.225,279.526,380.1,279.58Z" transform="translate(-378.774 -278.85)" fill="#77707a"/>
          <path id="Trazado_72940" data-name="Trazado 72940" d="M379.342,279.063c-.226.093-.394.525-.394.525-.056,0-.118,0-.174-.011.022-.062.093-.105.123-.172a2.024,2.024,0,0,0,.106-.23.389.389,0,0,1,.256-.289,1.5,1.5,0,0,1,.859.06.285.285,0,0,1,.168.207C380.29,279.184,379.734,278.908,379.342,279.063Z" transform="translate(-378.774 -278.85)" fill="#8f8a91"/>
        </g>
        <g id="Grupo_40018" data-name="Grupo 40018" transform="translate(18.985 39.39)">
          <path id="Trazado_72941" data-name="Trazado 72941" d="M377.819,279.583c.024.007.971.017,1.152.007.054-.007.123-.011.177-.015-.022-.058-.1-.1-.131-.168s-.067-.153-.1-.228a.384.384,0,0,0-.258-.289,1.508,1.508,0,0,0-.857.062.256.256,0,0,0-.168.2C377.63,279.191,377.692,279.531,377.819,279.583Z" transform="translate(-377.634 -278.855)" fill="#77707a"/>
          <path id="Trazado_72942" data-name="Trazado 72942" d="M378.575,279.062c.232.093.4.528.4.528.054-.007.123-.011.177-.015-.022-.058-.1-.1-.131-.168s-.067-.153-.1-.228a.384.384,0,0,0-.258-.289,1.508,1.508,0,0,0-.857.062.256.256,0,0,0-.168.2C377.63,279.191,378.19,278.911,378.575,279.062Z" transform="translate(-377.634 -278.855)" fill="#8f8a91"/>
        </g>
      </g>
      <path id="Trazado_72943" data-name="Trazado 72943" d="M394.162,285.534a5.309,5.309,0,0,0-.864,2.405,14.126,14.126,0,0,0-.121,4.117c.293,1.438,1.382,2.5,1.505,4.035.482,6.053-9.565,4.415-13.123,4.58-4.07.181-8.278-.6-11.318,2.627a26.43,26.43,0,0,0-1.828,2.453c-2.853,3.893-11.525,1.684-11.857,8.271-.248,4.882,4.731,8.932,6.152,13.338.59,1.843.336,4.1,1.2,5.788,1.329,2.591,4.626,3.506,6.148,6.073,2.112,3.568,2.153,8.3,2.188,12.3.043,5.722-.022,4.727,2.873,10.418,3.646,7.175,3.054,15.8,7.528,22.572,6.477-4.182,10.468-17.662,13.185-24.9,2.233-5.935-1.382-19.865,6.346-20.869,3.5-6.813-2.018-16.822,2.311-22.837,4.167-5.788,18.939-3.741,25.585-4.178,1.421-.095,3.187.177,4.272-1.07,1.206-1.38-.79-2.412-1.85-3.125-2.059-1.38-5.108-1.01-6.949-2.461-.7-.553-.9-1.585-1.574-2.2-.87-.79-2.035-1.122-2.879-1.985a21.747,21.747,0,0,0-2.1-2.321c-.976-.756-2.106-1.329-3.1-2.106a9.113,9.113,0,0,1-2.66-2.946c-.65-1.309-.314-2.121-.071-3.441.485-2.586-1.174-3.682-2.065-5.834a3.636,3.636,0,0,1,.047-2.8c.121-.293,1.5-2.319,1.854-2.11a5.42,5.42,0,0,0-3.913-.284,25.954,25.954,0,0,1-4.15.586,29.987,29.987,0,0,1-3.282-.183c-.7,0-2.918-.28-3.394.261-.34.392-.142,1.563-.5,2.134-.7,1.139-1.9,1.813-2.823,2.741A6.312,6.312,0,0,0,394.162,285.534Z" transform="translate(8.982 21.058)" fill="#673ab7"/>
      <path id="Trazado_72944" data-name="Trazado 72944" d="M403.2,297.227c-15.408,1.477-30.927.23-46.4-.6,1.279,3.553,4.527,6.764,5.627,10.19.59,1.843.336,4.1,1.2,5.788,1.329,2.591,4.626,3.506,6.148,6.073,2.112,3.568,2.153,8.3,2.188,12.3.043,5.722-.022,4.727,2.873,10.418,3.646,7.175,3.054,15.8,7.528,22.572,6.477-4.182,10.468-17.662,13.185-24.9,2.233-5.935-1.382-19.865,6.346-20.869C405.05,312.048,400.862,303.3,403.2,297.227Z" transform="translate(9.268 41.6)" fill="#7b1fa2"/>
      <path id="Trazado_72945" data-name="Trazado 72945" d="M403.2,297.227c-15.408,1.477-30.927.23-46.4-.6.1.278.215.553.336.827a.559.559,0,0,1,.106.028c4.8,1.693,9.884,1.406,14.738,2.7,4.916,1.309,9.5,3.458,14.3,5.106,3.133,1.064,6.751,1.755,8.577,4.811,1.161,1.938.525,4.533-.067,6.534-.493,1.671-1.5,3.868-1.38,5.629.105,1.641.756,3.749,0,5.315a9.2,9.2,0,0,0-1.124,6.383,66.936,66.936,0,0,1,.291,6.9,33.668,33.668,0,0,1-.82,8.469c1.5-3.758,2.735-7.475,3.781-10.267,2.233-5.935-1.382-19.865,6.346-20.869C405.05,312.048,400.862,303.3,403.2,297.227Z" transform="translate(9.268 41.6)" fill="#673ab7"/>
      <path id="Trazado_72946" data-name="Trazado 72946" d="M432.466,307.521c-2.059-1.38-5.108-1.01-6.949-2.461-.7-.553-.9-1.585-1.574-2.2-.87-.79-2.035-1.122-2.879-1.985a21.747,21.747,0,0,0-2.1-2.321c-.976-.756-2.106-1.329-3.1-2.106a9.114,9.114,0,0,1-2.66-2.946c-.65-1.309-.314-2.121-.071-3.441.485-2.586-1.174-3.682-2.065-5.834a3.636,3.636,0,0,1,.047-2.8c.121-.293,1.5-2.319,1.854-2.11a4.159,4.159,0,0,0-1.774-.5c-2.537,4.35-5.956,9.794-2.576,14.583,1.65,2.336,4.337,3.194,6.2,5.325,1.389,1.576,2.237,3.62,3.42,5.353a1.785,1.785,0,0,1-1.051,2.588A25.155,25.155,0,0,1,408,308.128c-3.629.082-5.564,1.141-8.579,2.806-5.241,2.89-11.366,2.072-17.122,2.136-8.605.1-17.13.276-25.669.157a3.518,3.518,0,0,0-.06.385c16.749.887,33.615,2.392,50.278.254,5.838-3.221,17.5-1.777,23.2-2.151,1.421-.095,3.187.177,4.272-1.07C435.522,309.265,433.526,308.234,432.466,307.521Z" transform="translate(9.006 21.068)" fill="#e88328" opacity="0.31"/>
      <path id="Trazado_72947" data-name="Trazado 72947" d="M467.073,285.389c.319-.525-26.918-1.953-30.073-1.3-14.958,3.1-26.847,17.191-36.3,28.229,10.461,5.864,6.508,35.161,9.342,46.1,7.877-11.99,11.79-26.829,18.72-39.408C437.47,303.217,457.794,300.383,467.073,285.389Z" transform="translate(59.91 26.944)" fill="#673ab7"/>
      <path id="Trazado_72948" data-name="Trazado 72948" d="M445.364,297.45c-11.594,5.679-25.865,11.075-38.719,7.218-2.082,2.332-4.059,4.649-5.943,6.848,10.461,5.864,6.508,35.161,9.342,46.1,7.877-11.99,11.79-26.83,18.72-39.408,8.7-15.778,29-18.625,38.284-33.583A179.118,179.118,0,0,1,445.364,297.45Z" transform="translate(59.91 27.75)" fill="#673ab7"/>
      <path id="Trazado_72949" data-name="Trazado 72949" d="M402.75,296q-1.04,1.211-2.048,2.39c10.461,5.864,6.508,35.161,9.342,46.1,7.877-11.99,11.79-26.829,18.72-39.408a32.64,32.64,0,0,1,6.247-7.938A206.371,206.371,0,0,1,402.75,296Z" transform="translate(59.91 40.875)" fill="#673ab7"/>
      <path id="Trazado_72950" data-name="Trazado 72950" d="M423.37,298.826a90.335,90.335,0,0,1-17.266,0c-1.359-.17-2.772-.357-4.167-.631,7.093,9.049,4.126,33.886,6.682,43.758,7.877-11.99,11.79-26.829,18.72-39.408a30.286,30.286,0,0,1,2.89-4.3C427.946,298.47,425.661,298.669,423.37,298.826Z" transform="translate(61.335 43.408)" fill="#673ab7"/>
      <path id="Trazado_72951" data-name="Trazado 72951" d="M390.856,296.9a114.067,114.067,0,0,0,13.668,1.432c-3.23-3.349-8.1-4.578-11.2-7.92-.913-.984-.935-1.891-1.535-2.9-.844-1.415-1.081-1.391-2.586-2.272a12.133,12.133,0,0,1-1.841-1.273,7.61,7.61,0,0,0,.08,2.158c.293,1.438,1.382,2.5,1.505,4.035.482,6.053-9.565,4.414-13.123,4.58-4.07.181-8.278-.6-11.318,2.627a26.426,26.426,0,0,0-1.828,2.453,4.459,4.459,0,0,1-1.146,1.083,27.288,27.288,0,0,1,3.29-.375c2.737-.125,11.7,1.148,13.3-1.227-.321-.282-.56-1-.732-1.184C381.846,297.995,386.32,296.291,390.856,296.9Z" transform="translate(14.724 26.992)" fill="#ebe1ff" opacity="0.31"/>
      <path id="Trazado_72952" data-name="Trazado 72952" d="M372.979,292.232c6.331-.752,12.914-1.63,19.209-.792a16.691,16.691,0,0,1-4.432-3.988c-1.019,4.481-9.766,3.116-13.039,3.267-4.07.181-8.278-.6-11.318,2.627a10.063,10.063,0,0,0-.917,1.156C365.237,292.036,369.346,292.128,372.979,292.232Z" transform="translate(15.825 31.013)" fill="#ebe1ff"/>
      <path id="Trazado_72953" data-name="Trazado 72953" d="M395.769,288.127c-5.618,4.557,12.524,9.912,12.445,13.511-.088,4.231-20.294-.095-18.4,4.135-2.1.041-7.276-1.426-6.632,2.7-3.355,1.072-8.041-.239-11.456-.754-3.87-.581-8.534-.868-12.311.105,2.978,2.922,8.133,1.718,12.008,1.91,4.1.2,8.093-.241,12.285-.241,2.037,0,4.014.269,5.666-.724.159-.1-.013-.881.472-1.184.424-.269,1.034-.177,1.475-.36.978-.392,2.054-.573,2.954-.922,3.881-1.488,7.087-1.628,11.293-2.022a34.634,34.634,0,0,0,7.819-1.71c-.22-2.89-5.722-4.961-7.787-6.643.131-.157.325-.478.489-.678-1.271-1.363-3.482-1.2-5-2.39-2.567-2.026-1.544-2.487-.426-4.427.538-.935,1.238-1.264.975-2.515-.345-1.66-1.37-1.049-2.212-2.037-1.568-1.841.03-1.643,1.488-3.366.082-.093-4.856-.2-5.821.547C392.115,283.379,393.818,285.889,395.769,288.127Z" transform="translate(12.291 22.938)" fill="#ba68c8"/>
      <path id="Trazado_72954" data-name="Trazado 72954" d="M389.233,299.469c2.687.134,7.255.637,9.311-.926-7.238-.3-14.228-1.342-21.349-2.013-3.644-.345-7.037-.857-10.806-1.044-2.056-.1-6.055-1.281-7.873,0-4.1,2.9,4.311,2.263,5.608,2.267,3.906.024,7.326,1.111,11.2.562C379.919,297.658,384.614,299.236,389.233,299.469Z" transform="translate(9.962 39.595)" fill="#ba68c8"/>
      <path id="Trazado_72955" data-name="Trazado 72955" d="M379.89,350.021c-.37-2.737-.224-5.737-.37-8.648-.278-5.569-.317-12.322-2.638-17.314-2.33,3.452-1.307,10.052-3.781,14.021a59.644,59.644,0,0,1-5.067-17.3c-.9-6.167.887-13.493-.874-19.469-2.819,2.268-4.014,6.277-5.25,9.845a8.139,8.139,0,0,1,1.96,2.121c2.112,3.568,2.153,8.3,2.188,12.3.043,5.722-.022,4.727,2.873,10.418,3.646,7.175,3.054,15.8,7.528,22.572a16.7,16.7,0,0,0,4.619-4.959A12.224,12.224,0,0,1,379.89,350.021Z" transform="translate(15.166 47.002)" fill="#673ab7"/>
      <path id="Trazado_72956" data-name="Trazado 72956" d="M385.392,341.218a3.07,3.07,0,0,0-1.779-.823c-4.042-.4-3.437.868-6.411-2.909-1.5-1.912-3.747-3.116-4.5-5.315-1.572-4.593,2.563-12.391-.571-16.3-.429,2.634-1.742,12.363-4.7,12.541-.226-.665-.521-2.537-1.06-2.916-1.35-.95-1.594-.034-2.978-.543-2.806-1.031-3.174-2.164-2.886-5.868.349-4.529,3.066-9.837,2.082-14.421.459,2.143-6.249,11.777-7.961,13.4a6.662,6.662,0,0,1-4.122,1.488,25.7,25.7,0,0,0-.282,4.367c6.073,1.6,9.624,2.145,12.858,7.369,3.032,4.895,3.982,12.507,11.452,8.758C378.945,349.892,382.847,347.02,385.392,341.218Z" transform="translate(1.672 50.867)" fill="#673ab7"/>
      <path id="Trazado_72957" data-name="Trazado 72957" d="M356.958,299.658c.138.2.6.243,1.148.058a24.037,24.037,0,0,0,5.967-2.972c1.469-1.053,3.6-2.1,4.488-3.743a5.389,5.389,0,0,1,3.4-2.636c1.74-.452,3.452.028,4.992-1.18,1.593-1.26,2.489-3.566.2-4.3a7.445,7.445,0,0,0-3.379.379,8.021,8.021,0,0,0-2.927,1.953c-1.292,1.135-3.032.571-4.492,1.367-1.686.917-1.425,2.446-1.9,4.031-.657,2.205-2.511,3.749-4.43,4.867a16.057,16.057,0,0,0-2.692,1.37C356.932,299.214,356.844,299.488,356.958,299.658Z" transform="translate(9.401 27.949)" fill="#ba68c8"/>
    </g>
  </g>
</svg>
