<svg id="Grupo_1098946" data-name="Grupo 1098946" xmlns="http://www.w3.org/2000/svg" xmlns:xlink="http://www.w3.org/1999/xlink" width="505" height="142.83" viewBox="0 0 505 142.83">
  <defs>
    <clipPath id="clip-path">
      <rect id="Rectángulo_388841" data-name="Rectángulo 388841" width="505" height="142.831" fill="none"/>
    </clipPath>
  </defs>
  <g id="Grupo_1098945" data-name="Grupo 1098945" clip-path="url(#clip-path)">
    <path id="Trazado_774463" data-name="Trazado 774463" d="M292.753,25.51a21.622,21.622,0,0,1,3.582-.279,5.954,5.954,0,0,1,4.059,1.2,3.894,3.894,0,0,1,1.265,3.027,4.259,4.259,0,0,1-1.116,3.091,5.989,5.989,0,0,1-4.422,1.589,6.416,6.416,0,0,1-1.5-.13v5.8h-1.867Zm1.867,6.976a6.252,6.252,0,0,0,1.546.15c2.252,0,3.626-1.094,3.626-3.091,0-1.91-1.353-2.834-3.412-2.834a7.847,7.847,0,0,0-1.761.15Z" transform="translate(56.251 4.848)"/>
    <path id="Trazado_774464" data-name="Trazado 774464" d="M314.83,32.442c0,4.98-3.027,7.62-6.719,7.62-3.821,0-6.5-2.962-6.5-7.341,0-4.592,2.856-7.6,6.719-7.6,3.95,0,6.5,3.027,6.5,7.32m-11.226.236c0,3.091,1.674,5.861,4.615,5.861,2.962,0,4.637-2.726,4.637-6.011,0-2.875-1.5-5.882-4.615-5.882-3.091,0-4.637,2.856-4.637,6.032" transform="translate(57.952 4.827)"/>
    <path id="Trazado_774465" data-name="Trazado 774465" d="M314.73,39.788V25.32h2.04l4.637,7.32a41.206,41.206,0,0,1,2.6,4.7l.043-.02c-.17-1.932-.213-3.693-.213-5.946V25.32h1.76V39.788H323.7l-4.592-7.341a45.723,45.723,0,0,1-2.7-4.829l-.064.021c.106,1.825.15,3.563.15,5.967v6.182Z" transform="translate(60.474 4.865)"/>
    <path id="Trazado_774466" data-name="Trazado 774466" d="M337.724,39.168a13.485,13.485,0,0,1-4.444.794,7.437,7.437,0,0,1-5.409-1.911,7.439,7.439,0,0,1-2.017-5.387c.021-4.314,2.984-7.47,7.835-7.47a8.923,8.923,0,0,1,3.606.666l-.451,1.524a7.5,7.5,0,0,0-3.2-.622,5.412,5.412,0,0,0-5.818,5.818c0,3.669,2.211,5.838,5.582,5.838a6.1,6.1,0,0,0,2.49-.386V33.717h-2.941v-1.5h4.765Z" transform="translate(62.611 4.841)"/>
    <path id="Trazado_774467" data-name="Trazado 774467" d="M340.719,35.237l-1.5,4.55h-1.932L342.2,25.32h2.253l4.938,14.468h-2l-1.545-4.55Zm4.744-1.46-1.416-4.163c-.323-.945-.538-1.8-.751-2.641h-.043c-.216.858-.451,1.738-.731,2.618L341.1,33.777Z" transform="translate(64.808 4.865)"/>
    <path id="Trazado_774468" data-name="Trazado 774468" d="M349.218,39.788V25.32h2.04l4.636,7.32a41.05,41.05,0,0,1,2.6,4.7l.043-.02c-.172-1.932-.215-3.693-.215-5.946V25.32h1.76V39.788H358.19L353.6,32.447a46.146,46.146,0,0,1-2.7-4.829l-.063.021c.106,1.825.15,3.563.15,5.967v6.182Z" transform="translate(67.101 4.865)"/>
    <path id="Trazado_774469" data-name="Trazado 774469" d="M278.146,40.92h1.867v12.9H286.2v1.568h-8.049Z" transform="translate(53.444 7.863)"/>
    <path id="Trazado_774470" data-name="Trazado 774470" d="M289.158,50.837l-1.5,4.55h-1.932l4.915-14.468h2.253l4.938,14.468h-2l-1.545-4.55Zm4.744-1.46-1.416-4.163c-.323-.945-.538-1.8-.751-2.641h-.043c-.216.858-.451,1.738-.731,2.618l-1.416,4.186Z" transform="translate(54.9 7.863)"/>
    <path id="Trazado_774471" data-name="Trazado 774471" d="M308.964,48.605h-5.623v5.216h6.267v1.566h-8.135V40.921h7.815v1.566h-5.946v4.572h5.623Z" transform="translate(57.927 7.863)"/>
    <path id="Trazado_774472" data-name="Trazado 774472" d="M313.63,42.508h-4.4V40.92h10.71v1.588H315.52v12.88h-1.89Z" transform="translate(59.417 7.863)"/>
    <rect id="Rectángulo_388838" data-name="Rectángulo 388838" width="1.867" height="14.468" transform="translate(380.966 48.783)"/>
    <path id="Trazado_774473" data-name="Trazado 774473" d="M335.938,57.55c-1.954-.514-3.864-1.094-5.539-1.674a2.772,2.772,0,0,0-.88-.215c-3.435-.129-6.376-2.661-6.376-7.319,0-4.637,2.834-7.621,6.74-7.621,3.928,0,6.482,3.048,6.482,7.32,0,3.714-1.717,6.1-4.121,6.934v.086c1.439.365,3.007.708,4.23.923Zm-1.546-9.423c0-2.9-1.5-5.882-4.572-5.882-3.154,0-4.7,2.921-4.679,6.055-.021,3.069,1.675,5.838,4.593,5.838,2.984,0,4.658-2.7,4.658-6.011" transform="translate(62.091 7.825)"/>
    <path id="Trazado_774474" data-name="Trazado 774474" d="M338.137,40.92v8.566c0,3.24,1.438,4.615,3.37,4.615,2.146,0,3.519-1.417,3.519-4.615V40.92h1.89v8.436c0,4.444-2.34,6.268-5.474,6.268-2.961,0-5.193-1.7-5.193-6.182V40.92Z" transform="translate(64.609 7.863)"/>
    <path id="Trazado_774475" data-name="Trazado 774475" d="M355.4,48.605h-5.625v5.216h6.268v1.566h-8.135V40.921h7.813v1.566h-5.946v4.572H355.4Z" transform="translate(66.85 7.863)"/>
    <path id="Trazado_774476" data-name="Trazado 774476" d="M360.07,42.508h-4.4V40.92h10.71v1.588h-4.422v12.88h-1.89Z" transform="translate(68.341 7.863)"/>
    <path id="Trazado_774477" data-name="Trazado 774477" d="M367.169,50.837l-1.5,4.55h-1.932l4.915-14.468H370.9l4.938,14.468h-2l-1.545-4.55Zm4.744-1.46L370.5,45.214c-.323-.945-.538-1.8-.751-2.641H369.7c-.216.858-.451,1.738-.731,2.618l-1.416,4.186Z" transform="translate(69.89 7.863)"/>
    <path id="Trazado_774478" data-name="Trazado 774478" d="M300.627,70.989V64.851l-4.572-8.33h2.124l2.04,3.992c.558,1.1.987,1.975,1.438,2.984h.043c.408-.944.9-1.888,1.46-2.984l2.081-3.992h2.124l-4.85,8.307v6.161Z" transform="translate(56.886 10.86)"/>
    <path id="Trazado_774479" data-name="Trazado 774479" d="M313.019,58.11h-4.4V56.521H319.33V58.11h-4.423V70.989h-1.888Z" transform="translate(59.3 10.86)"/>
    <path id="Trazado_774480" data-name="Trazado 774480" d="M320.116,66.438l-1.5,4.55h-1.931L321.6,56.521h2.253l4.937,14.468h-2l-1.546-4.55Zm4.744-1.459-1.416-4.164c-.322-.945-.536-1.8-.751-2.641h-.043c-.215.858-.451,1.738-.731,2.618L320.5,64.979Z" transform="translate(60.849 10.86)"/>
    <path id="Trazado_774481" data-name="Trazado 774481" d="M328.616,56.521h1.868v12.9h6.182v1.568h-8.051Z" transform="translate(63.142 10.86)"/>
    <path id="Trazado_774482" data-name="Trazado 774482" d="M337.112,56.521h1.867v12.9h6.182v1.568h-8.049Z" transform="translate(64.775 10.86)"/>
    <path id="Trazado_774483" data-name="Trazado 774483" d="M348.124,66.438l-1.5,4.55h-1.931l4.915-14.468h2.253L356.8,70.989h-2l-1.546-4.55Zm4.744-1.459-1.416-4.164c-.322-.945-.536-1.8-.751-2.641h-.043c-.215.858-.451,1.738-.731,2.618l-1.415,4.187Z" transform="translate(66.231 10.86)"/>
    <path id="Trazado_774484" data-name="Trazado 774484" d="M1.043,29.715,6.565,141.426H498.034l5.522-111.711L331.45,1.106S306.6,44.44,252.3,44.44,176.831,1.106,176.831,1.106Z" transform="translate(0.2 0.213)" fill="none" stroke="#000" stroke-miterlimit="10" stroke-width="2"/>
    <line id="Línea_578" data-name="Línea 578" y1="18.416" transform="translate(252.5 44.653)" fill="none" stroke="#000" stroke-miterlimit="10" stroke-width="2"/>
    <line id="Línea_579" data-name="Línea 579" y1="19.637" transform="translate(252.5 122.002)" fill="none" stroke="#000" stroke-miterlimit="10" stroke-width="2"/>
    <rect id="Rectángulo_388839" data-name="Rectángulo 388839" width="64.892" height="22.712" transform="translate(219.3 71.479)" fill="none" stroke="#000" stroke-miterlimit="10" stroke-width="2"/>
    <rect id="Rectángulo_388840" data-name="Rectángulo 388840" width="26.487" height="11.919" transform="translate(241.151 94.19)" fill="none" stroke="#000" stroke-miterlimit="10" stroke-width="2"/>
    <path id="Trazado_774485" data-name="Trazado 774485" d="M345.675,84.008s-38.649,41.661-90.144,17.088" transform="translate(49.099 16.142)" fill="none" stroke="#000" stroke-miterlimit="10" stroke-width="2"/>
    <path id="Trazado_774486" data-name="Trazado 774486" d="M245.053,92.34c7.135,1.117,16.559,1.483,23.322.068l-9.121,7.887-1.962,11.9c-2.323-6.506-7.558-14.351-12.239-19.85" transform="translate(47.086 17.743)"/>
  </g>
</svg>
