<svg xmlns="http://www.w3.org/2000/svg" width="244.645" height="260.209" viewBox="0 0 244.645 260.209">
  <g id="Grupo_39909" data-name="Grupo 39909" transform="translate(-142.982 -352.695)" style="isolation: isolate">
    <path id="Trazado_72374" data-name="Trazado 72374" d="M236.984,370.6V584.489c0,22.171-16.5,20.1-16.5,20.1s-65.192,2.074-64.67-11.217c.8-20.444,7.421-111.566,6.84-123.49-.033-.573-.084-1.3-.138-2.174-1.376-17.371-10.636-91.427-10.636-91.427l48.8-21Z" transform="translate(28.321 8.2)" fill="#b492f1"/>
    <path id="Trazado_72375" data-name="Trazado 72375" d="M190.836,452.294c-6-1.735-13.492-7.893-16.882-12.016-4.524-5.953-4.252-15.595-10.774-20.131-2.262-1.409-4.812-1.99-6.242-3.972-1.125-1.7-.853-3.683-1.706-5.389-1.7-2.843-4.252-5.669-5.954-8.512-3.968-5.669-8.784-14.182-4.816-20.988,1.137-1.986,3.115-3.4,4.256-5.389.849-1.706,1.141-3.968,1.7-5.673,1.413-3.692,2.843-6.246,6.25-8.236,6.229-3.4,16.439-1.12,23.534-1.12C180.2,360.867,189.461,434.923,190.836,452.294Z" transform="translate(0.002 23.611)" fill="#d2bef6"/>
    <path id="Trazado_72376" data-name="Trazado 72376" d="M172.237,370.6V584.489c0,22.171,16.494,20.1,16.494,20.1s65.2,2.074,64.678-11.217c-.8-20.444-7.425-111.566-6.848-123.49.038-.573.088-1.3.138-2.174,1.376-17.371,10.644-91.427,10.644-91.427l-48.8-21Z" transform="translate(93.067 8.2)" fill="#673ab7"/>
    <path id="Trazado_72377" data-name="Trazado 72377" d="M190.047,452.294c6.008-1.735,13.5-7.893,16.882-12.016,4.536-5.953,4.256-15.595,10.778-20.131,2.262-1.409,4.816-1.99,6.242-3.972,1.133-1.7.853-3.683,1.706-5.389,1.7-2.843,4.252-5.669,5.958-8.512,3.963-5.669,8.78-14.182,4.812-20.988-1.137-1.986-3.111-3.4-4.248-5.389-.853-1.706-1.146-3.968-1.706-5.673-1.409-3.692-2.847-6.246-6.25-8.236-6.225-3.4-16.435-1.12-23.53-1.12C200.692,360.867,191.423,434.923,190.047,452.294Z" transform="translate(149.718 23.611)" fill="#673ab7"/>
    <path id="Trazado_72378" data-name="Trazado 72378" d="M248.021,363.473c-1.091,19.855-27.171,39.58-42.54,40.513a3.7,3.7,0,0,1-.564.058c-14.809-.456-40.354-19.245-42.942-38.7-.084-.619-.159-1.233-.188-1.873L175.131,352.7a31.775,31.775,0,0,0,8.4,13.926c5.77,5.636,13.37,8.838,21.381,10.925h.054c8-2.111,15.582-5.318,21.347-10.925A31.828,31.828,0,0,0,234.7,352.7Z" transform="translate(59.824 0)" fill="#361274"/>
    <path id="Trazado_72390" data-name="Trazado 72390" d="M209.771,356.026c-5.765,5.607-13.345,8.813-21.347,10.925h-.054c-8.011-2.086-15.611-5.289-21.381-10.925Z" transform="translate(76.371 10.595)" fill="#080033"/>
    <path id="Trazado_72396" data-name="Trazado 72396" d="M224.551,352.7a31.828,31.828,0,0,1-8.387,13.926H173.382a31.775,31.775,0,0,1-8.4-13.926Z" transform="translate(69.977 0)" fill="#895cd8"/>
    <g id="Grupo_39910" data-name="Grupo 39910" transform="translate(272.978 418.137)">
      <ellipse id="Elipse_702" data-name="Elipse 702" cx="2.5" cy="3" rx="2.5" ry="3" transform="translate(0.003 -0.456)" fill="#fff"/>
      <circle id="Elipse_705" data-name="Elipse 705" cx="2.5" cy="2.5" r="2.5" transform="translate(0.003 53.544)" fill="#fff"/>
      <circle id="Elipse_707" data-name="Elipse 707" cx="2.5" cy="2.5" r="2.5" transform="translate(0.003 106.544)" fill="#fff"/>
      <circle id="Elipse_703" data-name="Elipse 703" cx="2.5" cy="2.5" r="2.5" transform="translate(0.003 26.544)" fill="#fff"/>
      <circle id="Elipse_704" data-name="Elipse 704" cx="2.5" cy="2.5" r="2.5" transform="translate(0.003 79.544)" fill="#fff"/>
      <circle id="Elipse_706" data-name="Elipse 706" cx="2.5" cy="2.5" r="2.5" transform="translate(0.003 132.544)" fill="#fff"/>
    </g>
  </g>
</svg>
