<svg id="Grupo_1098942" data-name="Grupo 1098942" xmlns="http://www.w3.org/2000/svg" xmlns:xlink="http://www.w3.org/1999/xlink" width="232.612" height="265.475" viewBox="0 0 232.612 265.475">
  <defs>
    <clipPath id="clip-path">
      <rect id="Rectángulo_388832" data-name="Rectángulo 388832" width="232.612" height="265.474" fill="none"/>
    </clipPath>
  </defs>
  <g id="Grupo_1098941" data-name="Grupo 1098941" clip-path="url(#clip-path)">
    <path id="Trazado_774416" data-name="Trazado 774416" d="M107.908,267.473s-73.448-1.178-96.621-31.029L1.074,86.406s22,1.178,16.1-60.487h95.05l2.1,5.105" transform="translate(-0.243 -5.863)" fill="none" stroke="#000" stroke-miterlimit="10" stroke-width="2"/>
    <path id="Trazado_774417" data-name="Trazado 774417" d="M159.6,267.473s73.448-1.178,96.621-31.029L266.431,86.406s-22,1.178-16.1-60.487H155.276l-2.1,5.105" transform="translate(-34.65 -5.863)" fill="none" stroke="#000" stroke-miterlimit="10" stroke-width="2"/>
    <path id="Trazado_774418" data-name="Trazado 774418" d="M156.814,32.517H139.139V272.056h17.675Z" transform="translate(-31.474 -7.356)" fill="none" stroke="#000" stroke-miterlimit="10" stroke-width="2"/>
    <line id="Línea_570" data-name="Línea 570" y1="14.791" transform="translate(116.502 24.606)" fill="none" stroke="#000" stroke-miterlimit="10" stroke-width="2"/>
    <line id="Línea_571" data-name="Línea 571" x1="4.32" y2="5.106" transform="translate(107.665 20.056)" fill="none" stroke="#000" stroke-miterlimit="10" stroke-width="2"/>
    <line id="Línea_572" data-name="Línea 572" x2="4.713" y2="5.106" transform="translate(120.627 20.056)" fill="none" stroke="#000" stroke-miterlimit="10" stroke-width="2"/>
    <line id="Línea_573" data-name="Línea 573" x2="11.818" y2="9.754" transform="translate(91.564 0.597)" fill="none" stroke="#000" stroke-miterlimit="10" stroke-width="2"/>
    <path id="Trazado_774419" data-name="Trazado 774419" d="M129.306,14.555l7.609,1.278-2.7-7.229Z" transform="translate(-29.25 -1.946)"/>
    <line id="Línea_574" data-name="Línea 574" x1="11.818" y2="9.754" transform="translate(135.274 0.597)" fill="none" stroke="#000" stroke-miterlimit="10" stroke-width="2"/>
    <path id="Trazado_774420" data-name="Trazado 774420" d="M171.982,8.6l-2.7,7.229,7.609-1.278Z" transform="translate(-38.293 -1.946)"/>
    <path id="Trazado_774421" data-name="Trazado 774421" d="M150.56,102.724c.205-.754.108-18.542.043-27.841" transform="translate(-34.057 -16.939)" fill="none" stroke="#000" stroke-miterlimit="10" stroke-width="2"/>
    <path id="Trazado_774422" data-name="Trazado 774422" d="M153.345,74.363l-3.9-6.657-3.816,6.706Z" transform="translate(-32.942 -15.316)"/>
  </g>
</svg>
