<svg id="Grupo_1098956" data-name="Grupo 1098956" xmlns="http://www.w3.org/2000/svg" xmlns:xlink="http://www.w3.org/1999/xlink" width="531.041" height="282.732" viewBox="0 0 531.041 282.732">
  <defs>
    <clipPath id="clip-path">
      <rect id="Rectángulo_388849" data-name="Rectángulo 388849" width="531.041" height="282.732" fill="none"/>
    </clipPath>
  </defs>
  <g id="Grupo_1098955" data-name="Grupo 1098955" clip-path="url(#clip-path)">
    <path id="Trazado_774500" data-name="Trazado 774500" d="M33.718,18.712a12.164,12.164,0,0,1-5.023.9c-5.363,0-9.4-3.388-9.4-9.625C19.3,4.037,23.332,0,29.231,0a10.2,10.2,0,0,1,4.515.847l-.593,2a8.943,8.943,0,0,0-3.838-.79c-4.46,0-7.423,2.852-7.423,7.847,0,4.657,2.682,7.649,7.311,7.649a9.827,9.827,0,0,0,4.007-.791Z" transform="translate(3.394)"/>
    <path id="Trazado_774501" data-name="Trazado 774501" d="M36.635.264V11.526c0,4.261,1.891,6.068,4.432,6.068,2.822,0,4.628-1.863,4.628-6.068V.264h2.483V11.357c0,5.841-3.076,8.24-7.2,8.24-3.9,0-6.831-2.228-6.831-8.128V.264Z" transform="translate(6.007 0.046)"/>
    <path id="Trazado_774502" data-name="Trazado 774502" d="M59.553,10.368h-7.4v6.859H60.4v2.06H49.7V.264H59.977V2.325H52.158V8.336h7.4Z" transform="translate(8.743 0.046)"/>
    <path id="Trazado_774503" data-name="Trazado 774503" d="M61.512.264h2.455V17.227h8.128v2.06H61.512Z" transform="translate(10.82 0.046)"/>
    <path id="Trazado_774504" data-name="Trazado 774504" d="M72.839.264h2.455V17.227h8.128v2.06H72.839Z" transform="translate(12.812 0.046)"/>
    <path id="Trazado_774505" data-name="Trazado 774505" d="M99.657,9.624c0,6.549-3.979,10.02-8.833,10.02-5.025,0-8.552-3.895-8.552-9.652C82.271,3.951,86.024,0,91.106,0c5.193,0,8.551,3.979,8.551,9.624M84.9,9.934c0,4.065,2.2,7.706,6.069,7.706,3.895,0,6.1-3.584,6.1-7.9C97.06,5.955,95.085,2,90.993,2c-4.065,0-6.1,3.753-6.1,7.93" transform="translate(14.471 0)"/>
    <path id="Trazado_774506" data-name="Trazado 774506" d="M118.316,18.712a12.164,12.164,0,0,1-5.023.9c-5.363,0-9.4-3.388-9.4-9.625,0-5.955,4.036-9.992,9.935-9.992a10.2,10.2,0,0,1,4.515.847l-.593,2a8.943,8.943,0,0,0-3.838-.79c-4.46,0-7.423,2.852-7.423,7.847,0,4.657,2.682,7.649,7.311,7.649a9.827,9.827,0,0,0,4.007-.791Z" transform="translate(18.275)"/>
    <path id="Trazado_774507" data-name="Trazado 774507" d="M134.7,9.624c0,6.549-3.978,10.02-8.833,10.02-5.023,0-8.551-3.895-8.551-9.652,0-6.041,3.753-9.992,8.835-9.992,5.193,0,8.55,3.979,8.55,9.624m-14.76.31c0,4.065,2.2,7.706,6.068,7.706,3.9,0,6.1-3.584,6.1-7.9C132.1,5.955,130.124,2,126.033,2c-4.065,0-6.1,3.753-6.1,7.93" transform="translate(20.635 0)"/>
    <path id="Trazado_774508" data-name="Trazado 774508" d="M150.914,10.933c-.141-2.653-.31-5.843-.282-8.212h-.085c-.649,2.228-1.439,4.6-2.4,7.225l-3.357,9.23h-1.864l-3.076-9.06c-.9-2.682-1.665-5.136-2.2-7.394h-.056c-.056,2.369-.2,5.56-.367,8.41l-.508,8.156h-2.342L135.7.264h3.134l3.245,9.2c.79,2.342,1.439,4.432,1.919,6.406h.085c.48-1.919,1.157-4.007,2-6.406l3.387-9.2h3.133l1.185,19.023h-2.4Z" transform="translate(23.636 0.046)"/>
    <path id="Trazado_774509" data-name="Trazado 774509" d="M154.1.511a28.457,28.457,0,0,1,4.713-.367,7.818,7.818,0,0,1,5.335,1.58A5.115,5.115,0,0,1,165.815,5.7a5.6,5.6,0,0,1-1.467,4.065,7.882,7.882,0,0,1-5.815,2.088,8.451,8.451,0,0,1-1.975-.169v7.621H154.1Zm2.455,9.173a8.238,8.238,0,0,0,2.033.2c2.963,0,4.769-1.44,4.769-4.064,0-2.513-1.779-3.726-4.488-3.726a10.3,10.3,0,0,0-2.314.2Z" transform="translate(27.106 0.025)"/>
    <path id="Trazado_774510" data-name="Trazado 774510" d="M166.87.264h2.455V17.227h8.128v2.06H166.87Z" transform="translate(29.352 0.046)"/>
    <path id="Trazado_774511" data-name="Trazado 774511" d="M188.048,10.368h-7.4v6.859h8.242v2.06H178.2V.264h10.273V2.325h-7.819V8.336h7.4Z" transform="translate(31.345 0.046)"/>
    <path id="Trazado_774512" data-name="Trazado 774512" d="M194.327,2.353h-5.785V.264h14.084V2.353H196.81V19.287h-2.484Z" transform="translate(33.164 0.046)"/>
    <path id="Trazado_774513" data-name="Trazado 774513" d="M218.095,9.624c0,6.549-3.979,10.02-8.833,10.02-5.025,0-8.552-3.895-8.552-9.652,0-6.041,3.753-9.992,8.835-9.992,5.193,0,8.551,3.979,8.551,9.624m-14.761.31c0,4.065,2.2,7.706,6.069,7.706,3.895,0,6.1-3.584,6.1-7.9C215.5,5.955,213.523,2,209.431,2c-4.065,0-6.1,3.753-6.1,7.93" transform="translate(35.304 0)"/>
    <path id="Trazado_774514" data-name="Trazado 774514" d="M223.293.539a35.16,35.16,0,0,1,5.222-.4c3.528,0,6.039.82,7.7,2.372A8.762,8.762,0,0,1,238.9,9.346a10.06,10.06,0,0,1-2.737,7.394c-1.778,1.778-4.713,2.737-8.41,2.737a39.36,39.36,0,0,1-4.46-.226Zm2.455,16.821a15.5,15.5,0,0,0,2.483.141c5.25,0,8.1-2.935,8.1-8.071.028-4.488-2.512-7.339-7.706-7.339a13.951,13.951,0,0,0-2.879.254Z" transform="translate(39.277 0.025)"/>
    <path id="Trazado_774515" data-name="Trazado 774515" d="M255.7,9.624c0,6.549-3.979,10.02-8.833,10.02-5.025,0-8.552-3.895-8.552-9.652,0-6.041,3.753-9.992,8.835-9.992,5.193,0,8.551,3.979,8.551,9.624m-14.761.31c0,4.065,2.2,7.706,6.069,7.706,3.895,0,6.1-3.584,6.1-7.9,0-3.782-1.976-7.733-6.068-7.733-4.065,0-6.1,3.753-6.1,7.93" transform="translate(41.919 0)"/>
    <path id="Trazado_774516" data-name="Trazado 774516" d="M255.812.539a23.8,23.8,0,0,1,4.488-.4c2.454,0,4.036.423,5.221,1.384a3.987,3.987,0,0,1,1.58,3.357,4.517,4.517,0,0,1-3.217,4.178V9.12a4.9,4.9,0,0,1,3.923,4.771A5.127,5.127,0,0,1,266.2,17.7c-1.326,1.212-3.472,1.778-6.577,1.778a28.7,28.7,0,0,1-3.81-.226Zm2.455,7.79h2.23c2.6,0,4.122-1.356,4.122-3.189,0-2.23-1.694-3.1-4.177-3.1a10.653,10.653,0,0,0-2.174.168Zm0,9.116a12.951,12.951,0,0,0,2.06.114c2.541,0,4.883-.932,4.883-3.7,0-2.6-2.229-3.669-4.911-3.669h-2.033Z" transform="translate(44.997 0.025)"/>
    <path id="Trazado_774517" data-name="Trazado 774517" d="M268.82.264h2.455V17.227H279.4v2.06H268.82Z" transform="translate(47.285 0.046)"/>
    <path id="Trazado_774518" data-name="Trazado 774518" d="M283.44,13.3l-1.976,5.984h-2.541L285.387.264h2.963l6.492,19.024h-2.626L290.185,13.3Zm6.237-1.919-1.863-5.475c-.423-1.242-.706-2.372-.988-3.471h-.056c-.282,1.129-.593,2.286-.96,3.442l-1.863,5.5Z" transform="translate(49.062 0.046)"/>
    <path id="Trazado_774519" data-name="Trazado 774519" d="M294.836.539a35.16,35.16,0,0,1,5.222-.4c3.528,0,6.039.82,7.7,2.372a8.762,8.762,0,0,1,2.681,6.831,10.06,10.06,0,0,1-2.737,7.394c-1.778,1.778-4.713,2.737-8.41,2.737a39.36,39.36,0,0,1-4.46-.226Zm2.455,16.821a15.5,15.5,0,0,0,2.483.141c5.25,0,8.1-2.935,8.1-8.071.028-4.488-2.512-7.339-7.706-7.339a13.95,13.95,0,0,0-2.879.254Z" transform="translate(51.861 0.025)"/>
    <path id="Trazado_774520" data-name="Trazado 774520" d="M327.245,9.624c0,6.549-3.979,10.02-8.833,10.02-5.025,0-8.552-3.895-8.552-9.652,0-6.041,3.753-9.992,8.835-9.992,5.193,0,8.551,3.979,8.551,9.624m-14.761.31c0,4.065,2.2,7.706,6.069,7.706,3.895,0,6.1-3.584,6.1-7.9,0-3.782-1.975-7.733-6.068-7.733-4.065,0-6.1,3.753-6.1,7.93" transform="translate(54.504 0)"/>
    <path id="Trazado_774521" data-name="Trazado 774521" d="M332.443.511a28.457,28.457,0,0,1,4.713-.367,7.818,7.818,0,0,1,5.335,1.58A5.116,5.116,0,0,1,344.156,5.7a5.6,5.6,0,0,1-1.467,4.065,7.882,7.882,0,0,1-5.815,2.088,8.451,8.451,0,0,1-1.975-.169v7.621h-2.455ZM334.9,9.684a8.238,8.238,0,0,0,2.033.2c2.963,0,4.769-1.44,4.769-4.064,0-2.513-1.779-3.726-4.488-3.726a10.3,10.3,0,0,0-2.314.2Z" transform="translate(58.476 0.025)"/>
    <path id="Trazado_774522" data-name="Trazado 774522" d="M346.488,13.3l-1.976,5.984h-2.541L348.435.264H351.4l6.492,19.024h-2.625L353.233,13.3Zm6.237-1.919-1.863-5.475c-.423-1.242-.706-2.372-.988-3.471h-.056c-.282,1.129-.593,2.286-.96,3.442L347,11.384Z" transform="translate(60.152 0.046)"/>
    <path id="Trazado_774523" data-name="Trazado 774523" d="M357.883.54a25.464,25.464,0,0,1,4.713-.4c2.625,0,4.319.48,5.5,1.552a4.739,4.739,0,0,1,1.5,3.612,5,5,0,0,1-3.584,4.855v.085c1.468.508,2.342,1.864,2.794,3.838a30.3,30.3,0,0,0,1.468,5.222h-2.54a24.741,24.741,0,0,1-1.271-4.544c-.563-2.626-1.579-3.614-3.81-3.7h-2.314v8.242h-2.455ZM360.338,9.2h2.512c2.626,0,4.291-1.439,4.291-3.612,0-2.455-1.779-3.528-4.375-3.557a10.082,10.082,0,0,0-2.427.227Z" transform="translate(62.951 0.025)"/>
    <path id="Trazado_774524" data-name="Trazado 774524" d="M374.207,13.3l-1.975,5.984H369.69L376.154.264h2.963l6.492,19.024h-2.626L380.952,13.3Zm6.237-1.919-1.863-5.475c-.423-1.242-.706-2.372-.988-3.471h-.056c-.282,1.129-.593,2.286-.96,3.442l-1.863,5.5Z" transform="translate(65.028 0.046)"/>
    <path id="Trazado_774525" data-name="Trazado 774525" d="M0,29.34a25.464,25.464,0,0,1,4.713-.4c2.625,0,4.319.48,5.5,1.552a4.739,4.739,0,0,1,1.5,3.612,5,5,0,0,1-3.584,4.855v.085c1.468.508,2.342,1.864,2.794,3.838a30.3,30.3,0,0,0,1.468,5.222H9.851a24.738,24.738,0,0,1-1.271-4.544c-.563-2.626-1.579-3.614-3.81-3.7H2.455v8.242H0ZM2.455,38H4.967c2.626,0,4.291-1.439,4.291-3.612,0-2.455-1.779-3.528-4.376-3.557a10.02,10.02,0,0,0-2.427.227Z" transform="translate(0 5.091)"/>
    <path id="Trazado_774526" data-name="Trazado 774526" d="M22.762,39.168h-7.4v6.859h8.242v2.06h-10.7V29.063H23.185v2.061H15.367v6.011h7.4Z" transform="translate(2.271 5.112)"/>
    <path id="Trazado_774527" data-name="Trazado 774527" d="M29.417,48.087,23.208,29.063h2.653l2.963,9.371c.818,2.569,1.524,4.882,2.032,7.113h.056c.536-2.2,1.326-4.6,2.173-7.085l3.217-9.4h2.626l-6.8,19.024Z" transform="translate(4.082 5.112)"/>
    <rect id="Rectángulo_388845" data-name="Rectángulo 388845" width="2.455" height="19.024" transform="translate(45.069 34.175)"/>
    <path id="Trazado_774528" data-name="Trazado 774528" d="M43.868,45.141a8.7,8.7,0,0,0,4.4,1.242c2.512,0,3.979-1.326,3.979-3.245,0-1.779-1.015-2.8-3.583-3.783-3.106-1.1-5.025-2.709-5.025-5.39C43.642,31,46.1,28.8,49.8,28.8A8.633,8.633,0,0,1,54,29.731l-.677,2a7.577,7.577,0,0,0-3.614-.9c-2.6,0-3.584,1.551-3.584,2.85,0,1.778,1.157,2.653,3.782,3.669,3.218,1.243,4.855,2.794,4.855,5.589,0,2.935-2.173,5.475-6.661,5.475A9.83,9.83,0,0,1,43.247,47.2Z" transform="translate(7.607 5.066)"/>
    <path id="Trazado_774529" data-name="Trazado 774529" d="M59.187,42.1l-1.976,5.984H54.67l6.464-19.024H64.1l6.492,19.024H67.964L65.932,42.1Zm6.237-1.919-1.863-5.475c-.423-1.242-.706-2.372-.988-3.471h-.056c-.282,1.129-.593,2.286-.96,3.442l-1.863,5.5Z" transform="translate(9.616 5.112)"/>
    <path id="Trazado_774530" data-name="Trazado 774530" d="M70.583,29.34a25.464,25.464,0,0,1,4.713-.4c2.625,0,4.319.48,5.5,1.552a4.739,4.739,0,0,1,1.5,3.612,5,5,0,0,1-3.584,4.855v.085c1.468.508,2.342,1.864,2.794,3.838a30.3,30.3,0,0,0,1.468,5.222h-2.54a24.738,24.738,0,0,1-1.271-4.544c-.563-2.626-1.579-3.614-3.81-3.7H73.038v8.242H70.583ZM73.038,38H75.55c2.626,0,4.291-1.439,4.291-3.612,0-2.455-1.779-3.528-4.376-3.557a10.02,10.02,0,0,0-2.427.227Z" transform="translate(12.415 5.091)"/>
    <path id="Trazado_774531" data-name="Trazado 774531" d="M91.537,31.152H85.751V29.064H99.835v2.088H94.02V48.087H91.537Z" transform="translate(15.084 5.112)"/>
    <path id="Trazado_774532" data-name="Trazado 774532" d="M101.019,42.1l-1.976,5.984H96.5l6.464-19.024h2.963l6.492,19.024H109.8L107.764,42.1Zm6.237-1.919-1.863-5.475c-.423-1.242-.706-2.372-.988-3.471h-.056c-.282,1.129-.593,2.286-.96,3.442l-1.863,5.5Z" transform="translate(16.975 5.112)"/>
    <path id="Trazado_774533" data-name="Trazado 774533" d="M128.427,39.733c-.141-2.653-.31-5.843-.282-8.212h-.085c-.649,2.228-1.439,4.6-2.4,7.225l-3.357,9.23h-1.864l-3.076-9.06c-.9-2.682-1.665-5.136-2.2-7.394h-.056c-.056,2.369-.2,5.56-.367,8.41l-.508,8.156h-2.342l1.325-19.023h3.134l3.245,9.2c.79,2.342,1.439,4.432,1.919,6.406h.085c.48-1.919,1.157-4.007,2-6.406l3.387-9.2h3.133l1.185,19.023h-2.4Z" transform="translate(19.681 5.112)"/>
    <path id="Trazado_774534" data-name="Trazado 774534" d="M134.667,42.1l-1.975,5.984H130.15l6.464-19.024h2.963l6.492,19.024h-2.625L141.412,42.1Zm6.237-1.919-1.863-5.475c-.423-1.242-.706-2.372-.988-3.471H138c-.282,1.129-.593,2.286-.96,3.442l-1.863,5.5Z" transform="translate(22.893 5.112)"/>
    <path id="Trazado_774535" data-name="Trazado 774535" d="M146.063,48.695V29.671h2.681l6.1,9.625a53.849,53.849,0,0,1,3.415,6.182l.058-.028c-.227-2.541-.283-4.855-.283-7.819v-7.96h2.315V48.695H157.86l-6.039-9.653a60.375,60.375,0,0,1-3.556-6.35l-.085.028c.141,2.4.2,4.686.2,7.847v8.128Zm3.782-20.18c-.056-1.723.677-2.879,1.919-2.879a3.464,3.464,0,0,1,1.665.563,2.975,2.975,0,0,0,1.355.509c.424,0,.677-.2.762-1.1h1.3c.028,1.779-.594,2.737-1.892,2.737a3.793,3.793,0,0,1-1.722-.536,3.258,3.258,0,0,0-1.326-.536c-.452,0-.677.481-.734,1.243Z" transform="translate(25.692 4.504)"/>
    <path id="Trazado_774536" data-name="Trazado 774536" d="M178.28,38.424c0,6.549-3.979,10.02-8.833,10.02-5.025,0-8.552-3.895-8.552-9.652,0-6.041,3.753-9.992,8.835-9.992,5.193,0,8.551,3.98,8.551,9.624m-14.761.31c0,4.065,2.2,7.706,6.069,7.706,3.895,0,6.1-3.584,6.1-7.9,0-3.782-1.976-7.733-6.068-7.733-4.065,0-6.1,3.753-6.1,7.93" transform="translate(28.301 5.066)"/>
    <path id="Trazado_774537" data-name="Trazado 774537" d="M183.478,29.339a35.161,35.161,0,0,1,5.222-.4c3.528,0,6.039.82,7.7,2.372a8.762,8.762,0,0,1,2.681,6.831,10.06,10.06,0,0,1-2.738,7.394c-1.778,1.778-4.713,2.737-8.41,2.737a39.361,39.361,0,0,1-4.46-.226Zm2.455,16.821a15.5,15.5,0,0,0,2.484.141c5.25,0,8.1-2.935,8.1-8.071.028-4.488-2.512-7.339-7.706-7.339a13.951,13.951,0,0,0-2.879.254Z" transform="translate(32.274 5.091)"/>
    <path id="Trazado_774538" data-name="Trazado 774538" d="M209.312,39.168h-7.4v6.859h8.242v2.06h-10.7V29.063h10.273v2.061h-7.819v6.011h7.4Z" transform="translate(35.085 5.112)"/>
    <path id="Trazado_774539" data-name="Trazado 774539" d="M216.357,29.311a28.457,28.457,0,0,1,4.713-.367,7.817,7.817,0,0,1,5.335,1.58A5.115,5.115,0,0,1,228.07,34.5a5.6,5.6,0,0,1-1.467,4.065,7.882,7.882,0,0,1-5.815,2.088,8.451,8.451,0,0,1-1.975-.169v7.621h-2.455Zm2.455,9.173a8.238,8.238,0,0,0,2.033.2c2.963,0,4.769-1.44,4.769-4.064,0-2.513-1.779-3.726-4.488-3.726a10.3,10.3,0,0,0-2.314.2Z" transform="translate(38.057 5.091)"/>
    <path id="Trazado_774540" data-name="Trazado 774540" d="M231.585,29.064V40.326c0,4.261,1.891,6.068,4.432,6.068,2.822,0,4.628-1.863,4.628-6.068V29.064h2.483V40.157c0,5.841-3.076,8.24-7.2,8.24-3.9,0-6.831-2.228-6.831-8.128V29.064Z" transform="translate(40.299 5.112)"/>
    <path id="Trazado_774541" data-name="Trazado 774541" d="M244.653,48.087V29.063h2.681l6.1,9.625a53.6,53.6,0,0,1,3.416,6.182l.056-.028c-.226-2.541-.282-4.855-.282-7.819v-7.96h2.314V48.087h-2.484l-6.041-9.653a60.375,60.375,0,0,1-3.556-6.35l-.085.028c.141,2.4.2,4.685.2,7.847v8.128Z" transform="translate(43.034 5.112)"/>
    <path id="Trazado_774542" data-name="Trazado 774542" d="M264.383,31.152H258.6V29.064h14.084v2.088h-5.815V48.087h-2.484Z" transform="translate(45.487 5.112)"/>
    <path id="Trazado_774543" data-name="Trazado 774543" d="M273.865,42.1l-1.975,5.984h-2.541l6.464-19.024h2.963l6.492,19.024h-2.626L280.61,42.1Zm6.237-1.919-1.863-5.475c-.423-1.242-.706-2.372-.988-3.471h-.056c-.282,1.129-.593,2.286-.96,3.442l-1.863,5.5Z" transform="translate(47.378 5.112)"/>
    <path id="Trazado_774544" data-name="Trazado 774544" d="M285.066,45.141a8.7,8.7,0,0,0,4.4,1.242c2.512,0,3.979-1.326,3.979-3.245,0-1.779-1.015-2.8-3.583-3.783-3.106-1.1-5.025-2.709-5.025-5.39,0-2.963,2.455-5.165,6.154-5.165a8.633,8.633,0,0,1,4.2.931l-.677,2a7.577,7.577,0,0,0-3.614-.9c-2.6,0-3.584,1.551-3.584,2.85,0,1.778,1.157,2.653,3.782,3.669,3.218,1.243,4.855,2.794,4.855,5.589,0,2.935-2.173,5.475-6.661,5.475a9.83,9.83,0,0,1-4.854-1.214Z" transform="translate(50.033 5.066)"/>
    <path id="Trazado_774545" data-name="Trazado 774545" d="M305.576,48.087V40.015l-6.011-10.952h2.794l2.681,5.25c.734,1.439,1.3,2.6,1.891,3.923h.056c.536-1.242,1.185-2.483,1.92-3.923l2.737-5.25h2.794L308.06,39.986v8.1Z" transform="translate(52.693 5.112)"/>
    <path id="Trazado_774546" data-name="Trazado 774546" d="M319.148,29.064h10.246v2.061H321.6v6.322h7.2v2.032h-7.2v8.609h-2.455Z" transform="translate(56.138 5.112)"/>
    <path id="Trazado_774547" data-name="Trazado 774547" d="M347.262,38.424c0,6.549-3.979,10.02-8.833,10.02-5.025,0-8.552-3.895-8.552-9.652,0-6.041,3.753-9.992,8.835-9.992,5.193,0,8.551,3.98,8.551,9.624m-14.761.31c0,4.065,2.2,7.706,6.069,7.706,3.895,0,6.1-3.584,6.1-7.9,0-3.782-1.975-7.733-6.068-7.733-4.065,0-6.1,3.753-6.1,7.93" transform="translate(58.025 5.066)"/>
    <path id="Trazado_774548" data-name="Trazado 774548" d="M347.372,29.34a25.464,25.464,0,0,1,4.713-.4c2.625,0,4.319.48,5.5,1.552a4.739,4.739,0,0,1,1.5,3.612,5,5,0,0,1-3.584,4.855v.085c1.467.508,2.342,1.864,2.794,3.838a30.3,30.3,0,0,0,1.467,5.222h-2.54a24.736,24.736,0,0,1-1.271-4.544c-.563-2.626-1.579-3.614-3.81-3.7h-2.314v8.242h-2.455ZM349.827,38h2.512c2.626,0,4.291-1.439,4.291-3.612,0-2.455-1.779-3.528-4.376-3.557a10.02,10.02,0,0,0-2.427.227Z" transform="translate(61.102 5.091)"/>
    <path id="Trazado_774549" data-name="Trazado 774549" d="M376.391,39.733c-.141-2.653-.31-5.843-.282-8.212h-.085c-.649,2.228-1.439,4.6-2.4,7.225l-3.357,9.23H368.4l-3.076-9.06c-.9-2.682-1.665-5.136-2.2-7.394h-.056c-.056,2.369-.2,5.56-.367,8.41l-.508,8.156h-2.342l1.325-19.023h3.134l3.245,9.2c.79,2.342,1.439,4.432,1.919,6.406h.085c.48-1.919,1.157-4.007,2-6.406l3.387-9.2h3.133l1.185,19.023h-2.4Z" transform="translate(63.297 5.112)"/>
    <path id="Trazado_774550" data-name="Trazado 774550" d="M382.632,42.1l-1.975,5.984h-2.541l6.464-19.024h2.963l6.492,19.024H391.41L389.377,42.1Zm6.237-1.919-1.863-5.475c-.423-1.242-.706-2.372-.988-3.471h-.056c-.282,1.129-.593,2.286-.96,3.442l-1.863,5.5Z" transform="translate(66.51 5.112)"/>
    <path id="Trazado_774551" data-name="Trazado 774551" d="M393.832,45.141a8.7,8.7,0,0,0,4.4,1.242c2.512,0,3.979-1.326,3.979-3.245,0-1.779-1.015-2.8-3.583-3.783-3.106-1.1-5.025-2.709-5.025-5.39,0-2.963,2.455-5.165,6.153-5.165a8.633,8.633,0,0,1,4.205.931l-.677,2a7.577,7.577,0,0,0-3.614-.9c-2.6,0-3.584,1.551-3.584,2.85,0,1.778,1.157,2.653,3.782,3.669,3.218,1.243,4.855,2.794,4.855,5.589,0,2.935-2.173,5.475-6.661,5.475a9.83,9.83,0,0,1-4.854-1.214Z" transform="translate(69.165 5.066)"/>
    <path id="Trazado_774552" data-name="Trazado 774552" d="M36.591,124.145l6.671,117.049s256.348,1.906,370.7,21.919l50.916-149.175,3.4-9.972s-111.5,30.495-174.393,25.73S36.591,124.145,36.591,124.145Z" transform="translate(6.436 18.288)" fill="none" stroke="#000" stroke-miterlimit="10" stroke-width="2"/>
    <path id="Trazado_774553" data-name="Trazado 774553" d="M223.748,247.306,387.716,255.9l53.366-143.991-7.168-4.325" transform="translate(39.357 18.924)" fill="none" stroke="#000" stroke-miterlimit="10" stroke-width="2"/>
    <path id="Trazado_774554" data-name="Trazado 774554" d="M394.783,101.088,391.911,90.37l-7.847,7.847Z" transform="translate(67.556 15.896)"/>
    <rect id="Rectángulo_388846" data-name="Rectángulo 388846" width="1.641" height="23.892" transform="translate(440.335 96.14) rotate(-45)"/>
    <path id="Trazado_774555" data-name="Trazado 774555" d="M416.952,117.125l12.923,7.461V109.664Z" transform="translate(73.341 19.29)"/>
    <rect id="Rectángulo_388847" data-name="Rectángulo 388847" width="32.131" height="2.207" transform="translate(498.909 135.312)"/>
    <path id="Trazado_774556" data-name="Trazado 774556" d="M373.92,234.829l12.923,7.461V227.368Z" transform="translate(65.772 39.994)"/>
    <rect id="Rectángulo_388848" data-name="Rectángulo 388848" width="32.131" height="2.207" transform="translate(448.308 273.719)"/>
  </g>
</svg>
