<svg xmlns="http://www.w3.org/2000/svg" width="329.682" height="314.838" viewBox="0 0 329.682 314.838">
  <g id="Grupo_1068156" data-name="Grupo 1068156" transform="translate(-212 -9112)">
    <g id="BACKGROUND" transform="translate(212 9136.232)">
      <g id="Grupo_32241" data-name="Grupo 32241">
        <path id="Trazado_61861" data-name="Trazado 61861" d="M113.663,122.832c16.09-.556,31.649,5.082,47.04,9.805s31.865,8.605,47.444,4.543c20.946-5.461,35.559-23.824,48.682-41.04S284.8,60.666,305.84,55.6c19.651-4.731,40.854,3.75,55.157,18.033s22.557,33.589,27.709,53.135c12.759,48.414,6.6,104.231-26.55,141.751-26.523,30.019-66.56,44.764-106.107,51.136-28.528,4.6-58.187,5.365-85.928-2.723a140.388,140.388,0,0,1-81.105-63.412C68.3,217.936,49.081,125.063,113.663,122.832Z" transform="translate(-69.318 -32.473)" fill="#d1bcff"/>
        <path id="Trazado_61862" data-name="Trazado 61862" d="M197.27,111.762c19.37.359,40.227-6.771,54.715-16.884,8.032-5.606,15.212-12.749,19.5-21.556s5.421-19.413,1.684-28.467c-5.392-13.063-19.576-20.454-33.459-23.094a82.21,82.21,0,0,0-61.625,13.166C165.642,43.6,152.6,55.951,149.37,71.4c-3.48,16.647,10.855,29.418,24.965,35.657A59.4,59.4,0,0,0,197.27,111.762Z" transform="translate(-97.694 -20.373)" fill="#d1bcff"/>
      </g>
    </g>
    <g id="Grupo_33767" data-name="Grupo 33767" transform="translate(242.625 9112)" style="isolation: isolate">
      <g id="Grupo_33752" data-name="Grupo 33752" transform="translate(71.535 239.346)">
        <g id="Grupo_33751" data-name="Grupo 33751" transform="translate(56.715 3.169)">
          <path id="Trazado_32191" data-name="Trazado 32191" d="M1461.067,1112.019H1310.229c-1.178-.769-11.28-7.61-12.3-20.57a27.5,27.5,0,0,1,12.3-24.94h150.837a38.176,38.176,0,0,1,7.529,20.57A38.722,38.722,0,0,1,1461.067,1112.019Z" transform="translate(-1297.85 -1060.338)" fill="#7986cb"/>
          <path id="Trazado_32333" data-name="Trazado 32333" d="M75.587,0c41.746,0,75.587,2.82,75.587,6.3s-33.842,6.3-75.587,6.3S0,9.779,0,6.3,33.842,0,75.587,0Z" transform="translate(12.325)" fill="#9fa8da"/>
          <path id="Trazado_32192" data-name="Trazado 32192" d="M1350.157,1088.462l-.132.388c-.089.252-.21.622-.363,1.092s-.321,1.045-.509,1.7-.375,1.4-.548,2.221-.338,1.7-.479,2.644-.236,1.936-.3,2.966c-.024.257-.018.517-.031.779s-.028.524-.022.789c0,.53,0,1.065.024,1.6l.016.406.007.2,0,.051v.025c0-.057,0-.008,0-.018v.013l.01.1q.036.42.073.842l.069.845c.034.271.077.533.115.8l.108.8c.034.266.1.535.149.8.107.534.2,1.071.338,1.591s.249,1.045.409,1.549.295,1.01.47,1.494l.248.725c.085.238.183.469.27.7l.265.688.286.659.278.645.293.614c.1.2.186.4.284.6l.292.565c.182.375.381.721.563,1.055s.366.644.535.94c.344.586.654,1.1.921,1.508s.478.739.626.957l.227.339-.306-.264c-.194-.178-.49-.431-.834-.786s-.769-.783-1.218-1.311-.941-1.14-1.434-1.843c-.249-.35-.5-.72-.746-1.115l-.376-.6-.36-.637-.365-.66-.342-.694c-.114-.235-.236-.47-.342-.715l-.314-.745c-.1-.252-.221-.5-.309-.764l-.277-.79c-.088-.267-.2-.529-.27-.8l-.231-.826c-.166-.551-.287-1.119-.4-1.689-.055-.288-.127-.567-.168-.862l-.128-.884c-.038-.294-.082-.593-.114-.883l-.061-.845q-.029-.422-.056-.843l-.007-.1,0-.057v-.082l0-.217,0-.433a25.681,25.681,0,0,1,.194-3.371,27,27,0,0,1,.569-3.093,25.877,25.877,0,0,1,.821-2.678c.294-.813.613-1.537.911-2.168s.593-1.162.843-1.593.464-.76.6-.983Z" transform="translate(-1332.835 -1076.12)" fill="#91644e"/>
          <path id="Trazado_32193" data-name="Trazado 32193" d="M1409.964,1092.121l-.01.392c-.009.254-.021.627-.037,1.1s-.027,1.046-.044,1.7-.027,1.4-.026,2.2.008,1.673.025,2.59.059,1.882.116,2.877.13,2.022.23,3.063c.041.521.112,1.043.161,1.568.066.528.132,1.059.2,1.589.14,1.038.3,2.085.481,3.115s.375,2.038.583,3.012.425,1.913.643,2.8.438,1.729.655,2.5c.1.388.208.759.311,1.11s.2.687.29,1c.184.629.348,1.178.487,1.63l.323,1.052c.073.244.112.375.112.375l-.209-.328c-.134-.216-.335-.529-.566-.942s-.521-.912-.817-1.5-.624-1.263-.951-2.01-.656-1.571-.98-2.451-.628-1.824-.906-2.812c-.142-.493-.278-1-.4-1.511q-.093-.386-.189-.775t-.167-.789c-.228-1.054-.4-2.139-.557-3.239l-.185-1.622c-.05-.545-.1-1.088-.124-1.628-.072-1.078-.087-2.143-.078-3.171a41.637,41.637,0,0,1,.438-5.591c.119-.811.255-1.549.388-2.2s.276-1.212.393-1.674.226-.82.3-1.064Z" transform="translate(-1378.149 -1078.751)" fill="#91644e"/>
          <path id="Trazado_32194" data-name="Trazado 32194" d="M1484.263,1101.268l.075.378c.044.248.12.609.2,1.07s.175,1.019.284,1.66.216,1.363.342,2.151c.242,1.576.51,3.413.785,5.381l.843,6.163.806,6.167c.253,1.97.476,3.814.654,5.4s.314,2.912.4,3.845.117,1.469.117,1.469l-.131-.362c-.081-.237-.211-.583-.351-1.028s-.321-.985-.506-1.608-.385-1.33-.591-2.1c-.411-1.547-.838-3.366-1.228-5.329-.192-.982-.384-2-.55-3.036s-.327-2.1-.472-3.152-.266-2.119-.37-3.165-.194-2.077-.264-3.076c-.14-2-.2-3.869-.215-5.472C1484.057,1103.409,1484.263,1101.268,1484.263,1101.268Z" transform="translate(-1433.207 -1085.326)" fill="#361274"/>
          <path id="Trazado_32195" data-name="Trazado 32195" d="M1753.6,1102.182s.206,2.142.18,5.351c-.01,1.6-.074,3.474-.214,5.472-.071,1-.155,2.03-.265,3.076s-.232,2.107-.37,3.165-.3,2.118-.472,3.152-.359,2.054-.55,3.036c-.389,1.963-.817,3.782-1.227,5.329-.207.774-.406,1.48-.591,2.1s-.361,1.164-.506,1.608-.27.791-.351,1.028l-.131.362s.032-.537.117-1.47.215-2.26.4-3.844.4-3.429.654-5.4.531-4.067.805-6.166.574-4.2.844-6.163.543-3.8.785-5.38c.125-.789.24-1.511.342-2.152s.206-1.2.284-1.66.152-.822.2-1.069Z" transform="translate(-1625.829 -1085.984)" fill="#361274"/>
          <path id="Trazado_32196" data-name="Trazado 32196" d="M1571.907,1111.329l.053.329c.03.215.085.53.132.931.108.8.24,1.946.355,3.32s.219,2.977.288,4.695c.035.859.063,1.746.079,2.648.007.451.021.906.021,1.362l0,.685,0,.344.006.327c.01.916.024,1.832.018,2.734s-.014,1.79-.033,2.649c-.04,1.719-.115,3.324-.209,4.7s-.206,2.523-.3,3.326c-.041.4-.091.718-.117.933l-.048.33-.06-.329c-.034-.214-.093-.528-.148-.928-.122-.8-.273-1.942-.412-3.314s-.269-2.973-.366-4.689c-.049-.859-.094-1.745-.123-2.646s-.053-1.817-.074-2.733c0-.949.006-1.842.024-2.751s.044-1.789.079-2.648c.069-1.718.172-3.321.288-4.695s.247-2.519.355-3.32c.047-.4.1-.716.132-.931Z" transform="translate(-1496.363 -1092.56)" fill="#361274"/>
          <path id="Trazado_32197" data-name="Trazado 32197" d="M1652.4,1111.329s.018.115.054.329.084.53.132.931c.108.8.24,1.946.355,3.32s.219,2.977.288,4.695c.035.859.063,1.746.079,2.648.006.451.02.906.021,1.362l0,.685,0,.344.006.327c.01.916.024,1.832.018,2.734s-.014,1.79-.033,2.649c-.04,1.719-.115,3.324-.21,4.7s-.206,2.523-.3,3.326c-.041.4-.09.718-.117.933s-.048.33-.048.33l-.059-.329c-.034-.214-.093-.528-.148-.928-.122-.8-.273-1.942-.412-3.314s-.27-2.973-.367-4.689c-.048-.859-.094-1.745-.122-2.646s-.053-1.817-.074-2.733c0-.949.006-1.842.025-2.751s.044-1.789.079-2.648c.069-1.718.171-3.321.288-4.695s.247-2.519.355-3.32c.048-.4.1-.716.132-.931Z" transform="translate(-1554.869 -1092.56)" fill="#361274"/>
          <path id="Trazado_32198" data-name="Trazado 32198" d="M1814.626,1092.121l.116.373c.072.244.181.6.3,1.064s.258,1.023.393,1.674.27,1.389.388,2.2a41.7,41.7,0,0,1,.438,5.591c.009,1.028-.006,2.093-.077,3.171-.029.54-.074,1.083-.125,1.628s-.123,1.081-.185,1.622c-.159,1.1-.329,2.185-.557,3.239l-.167.789q-.095.389-.189.775c-.122.514-.258,1.018-.4,1.511-.278.988-.591,1.928-.906,2.812s-.651,1.7-.98,2.451-.649,1.422-.952,2.01-.583,1.091-.817,1.5-.432.727-.565.942l-.209.328s.039-.131.112-.375.184-.6.323-1.052.3-1,.487-1.63c.093-.314.193-.647.29-1s.208-.722.311-1.11c.216-.772.431-1.613.654-2.5s.437-1.828.643-2.8.4-1.983.583-3.012.341-2.078.482-3.115l.2-1.589c.05-.526.121-1.047.161-1.568.1-1.041.17-2.067.231-3.062s.09-1.961.115-2.877.032-1.787.026-2.59-.015-1.543-.026-2.2-.032-1.232-.044-1.7-.028-.847-.038-1.1Z" transform="translate(-1670.186 -1078.751)" fill="#361274"/>
          <path id="Trazado_32199" data-name="Trazado 32199" d="M1859.6,1087.547l.232.383c.145.252.37.622.616,1.111s.549,1.084.855,1.788.623,1.512.918,2.415.577,1.895.825,2.96a32.589,32.589,0,0,1,.572,3.4,30.923,30.923,0,0,1,.2,3.692l0,.474,0,.238v.178l0,.088q-.028.463-.055.928t-.06.93c-.016.308-.07.642-.1.961-.086.644-.153,1.3-.284,1.917s-.222,1.255-.389,1.863-.289,1.222-.489,1.805-.351,1.173-.578,1.727-.405,1.113-.651,1.632-.45,1.041-.706,1.522-.48.96-.741,1.4l-.374.653c-.126.211-.254.415-.382.615l-.371.584-.375.544q-.364.531-.717.983c-.229.3-.45.584-.665.834s-.409.482-.59.684-.342.385-.491.535-.269.282-.374.384l-.319.311.23-.384c.151-.249.369-.617.638-1.086.136-.234.285-.493.437-.781s.327-.591.494-.927.36-.683.538-1.064l.285-.577.279-.614.292-.637.281-.671c.2-.451.382-.926.567-1.416s.367-.994.545-1.512.341-1.054.509-1.6c.326-1.089.612-2.228.857-3.393.145-.578.212-1.177.327-1.768s.17-1.184.248-1.775c.034-.3.088-.582.107-.9s.046-.62.068-.93.048-.618.072-.926q.016-.436.031-.869c.03-.6.014-1.188.023-1.774,0-.293-.016-.583-.023-.873s-.009-.576-.032-.86c-.057-1.139-.162-2.238-.289-3.28s-.287-2.025-.467-2.928-.36-1.731-.535-2.463-.345-1.37-.5-1.891-.269-.934-.357-1.215Z" transform="translate(-1702.872 -1075.463)" fill="#361274"/>
        </g>
        <path id="Trazado_32200" data-name="Trazado 32200" d="M1141.969,1034.419c25.112,1.064,24.208-2.827,66.508-.224,5.324.328,13.188.872,22.778,1.773a27.807,27.807,0,0,0-4.43,1.6,43.616,43.616,0,0,0-5.32,3.178c-15.906,5.614-33.685,2.733-49.343,9.108-2.954,1.2-6.157,3.221-6.638,6.587a11.989,11.989,0,0,0,.83,5.172,142.665,142.665,0,0,1,6.116,33.278l-104.36,1.855a12.135,12.135,0,0,1-5.315-.7,4.789,4.789,0,0,1-2.926-4.442c.2-2.735,3.079-4.165,5.559-4.77,10.075-2.455,20.8-.73,30.719-3.837,3.666-1.148,7.769-4.03,7.322-8.12-.341-3.126-3.265-5.244-4.035-8.28-.891-3.514,1.309-7.009,3.516-9.767a98.51,98.51,0,0,1,11.081-11.739c4.019-3.608,8.4-6.9,13.374-8.641A38,38,0,0,1,1141.969,1034.419Z" transform="translate(-1059.859 -1033.28)" fill="#080033"/>
        <path id="Trazado_32201" data-name="Trazado 32201" d="M1233.3,1169.53a7.575,7.575,0,0,1,.832.466,3.462,3.462,0,0,1,.395.275c.124.1.26.19.376.3l.355.331.324.364a6.461,6.461,0,0,1,.57.8,3.628,3.628,0,0,1,.242.429,4.521,4.521,0,0,1,.211.448c.059.155.128.305.178.464l.143.479.1.49c.027.165.04.333.06.5a5.74,5.74,0,0,1-.006,1.01,3.579,3.579,0,0,1-.07.5l-.046.25-.07.245-.071.245c-.031.1-.06.157-.09.238a4.678,4.678,0,0,1-.21.462c-.075.158-.169.3-.253.444s-.187.282-.294.413a5.639,5.639,0,0,1-.686.741,6.285,6.285,0,0,1-.795.614,6.518,6.518,0,0,1-.882.475,5.956,5.956,0,0,1-.94.334,7.265,7.265,0,0,1-.978.191l-.022-.729c2.235.054,4.47.1,6.7.169s4.469.121,6.7.2l6.7.234,6.7.267,3.348.139,3.351.125,6.7.283c2.234.11,4.467.206,6.7.337l3.35.185c1.117.057,2.233.135,3.349.205-1.119.007-2.237.02-3.355.013l-3.355-.008c-2.236,0-4.472-.03-6.708-.049l-6.707-.1c-2.234-.05-4.473-.079-6.707-.157l-6.7-.23-6.7-.263c-2.235-.083-4.468-.195-6.7-.293s-4.467-.217-6.7-.329l-.021-.729a6.631,6.631,0,0,0,.884-.147c.145-.038.291-.071.432-.122a4.132,4.132,0,0,0,.423-.152,5.876,5.876,0,0,0,.81-.4,5.745,5.745,0,0,0,.736-.526,5.115,5.115,0,0,0,.642-.644c.1-.114.185-.241.278-.362.078-.129.172-.256.24-.388a3.966,3.966,0,0,0,.205-.412c.029-.07.072-.158.091-.212l.075-.218.076-.219.052-.226a3.221,3.221,0,0,0,.087-.457,5.33,5.33,0,0,0,.052-.934c-.012-.156-.015-.314-.033-.47l-.071-.467-.113-.46c-.039-.153-.1-.3-.147-.45a4.466,4.466,0,0,0-.18-.439,3.491,3.491,0,0,0-.212-.424,6.247,6.247,0,0,0-.512-.8l-.3-.371-.325-.345c-.107-.118-.233-.215-.349-.323a3.412,3.412,0,0,0-.37-.3A7.6,7.6,0,0,0,1233.3,1169.53Z" transform="translate(-1186.836 -1131.231)" fill="#786a73"/>
        <path id="Trazado_32202" data-name="Trazado 32202" d="M1109.1,1224.507l-.82.088-2.315.241c-1,.1-2.207.24-3.593.408l-4.652.588c-3.406.454-7.378,1-11.6,1.737-1.055.185-2.126.384-3.2.613-.537.115-1.076.237-1.608.374a11.948,11.948,0,0,0-1.541.478,1.608,1.608,0,0,0-.274.145l-.015.01s.006,0,.007-.005l0-.005a.215.215,0,0,0,.02-.027.445.445,0,0,0,.035-.092.273.273,0,0,0,.008-.077c0-.025-.015-.142-.006-.076,0,.011.007.028,0-.026a.338.338,0,0,0-.045-.1.173.173,0,0,0-.037-.046s-.01-.009-.01-.009a1.178,1.178,0,0,0,.249.1c.117.035.245.065.375.092.526.106,1.085.173,1.644.231,1.121.114,2.261.183,3.4.243,2.28.125,4.567.2,6.819.257l6.616.146,11.738.2,8.306.157c1,.015,1.79.043,2.328.055l.824.021-.823.034c-.537.02-1.324.059-2.327.087-2,.057-4.869.165-8.307.227-1.719.035-3.581.069-5.551.085s-4.048.039-6.2.03-4.371-.01-6.629-.06-4.552-.107-6.849-.224c-1.149-.066-2.3-.142-3.447-.264-.576-.063-1.149-.133-1.737-.254-.148-.032-.3-.068-.452-.113a1.827,1.827,0,0,1-.531-.241.949.949,0,0,1-.092-.078.837.837,0,0,1-.106-.128.707.707,0,0,1-.069-.148.464.464,0,0,1-.021-.078.68.68,0,0,1-.011-.129.8.8,0,0,1,.017-.131.582.582,0,0,1,.077-.19.851.851,0,0,1,.048-.074l.039-.045a1.083,1.083,0,0,1,.082-.082l.07-.055a2.4,2.4,0,0,1,.474-.259,12.246,12.246,0,0,1,1.683-.515c.554-.134,1.1-.248,1.651-.357,1.094-.215,2.176-.4,3.24-.569,2.129-.343,4.194-.607,6.152-.844s3.814-.429,5.527-.59c3.426-.329,6.29-.5,8.292-.616,1-.053,1.79-.077,2.327-.1Z" transform="translate(-1073.478 -1170.754)" fill="#786a73"/>
        <path id="Trazado_32203" data-name="Trazado 32203" d="M1468.032,1051.71s-.817.044-2.241.147-3.458.268-5.887.543c-1.215.137-2.525.314-3.914.507s-2.854.406-4.36.638c-.752.12-1.517.247-2.273.407a7.719,7.719,0,0,0-1.072.289.877.877,0,0,0-.087.041c-.015,0-.03.037.048-.057a.554.554,0,0,0,.035-.062.508.508,0,0,0,.03-.1c.02.053-.009-.228,0-.178l0,.016a.435.435,0,0,0-.1-.2.466.466,0,0,0-.039-.036c-.03-.019,0,0,.024.005a3.205,3.205,0,0,0,.5.109c.758.113,1.568.163,2.371.211s1.619.077,2.432.1c1.626.062,3.257.1,4.862.135l4.714.094,4.411.085,3.953.085c2.448.055,4.489.117,5.918.166l2.245.086-2.244.115c-1.428.065-3.469.15-5.918.214-1.225.035-2.552.07-3.956.089s-2.884.049-4.416.051-3.114.017-4.723-.008-3.244-.048-4.881-.1c-.818-.032-1.637-.07-2.454-.121s-1.629-.109-2.461-.239a3.983,3.983,0,0,1-.671-.157,1.031,1.031,0,0,1-.247-.126.616.616,0,0,1-.241-.343l0-.022c0,.037-.023-.256,0-.216a.491.491,0,0,1,.042-.132.517.517,0,0,1,.054-.095.79.79,0,0,1,.286-.239,1.892,1.892,0,0,1,.187-.082,8.27,8.27,0,0,1,1.23-.308c.791-.149,1.565-.26,2.328-.364,1.524-.209,3-.36,4.4-.506s2.726-.261,3.951-.336c2.452-.156,4.5-.177,5.929-.166.715,0,1.277.025,1.66.034Z" transform="translate(-1345.829 -1046.489)" fill="#786a73"/>
        <path id="Trazado_32204" data-name="Trazado 32204" d="M1454.209,1084.854l-.2.227c-.131.148-.333.362-.568.648-.117.142-.253.294-.389.469l-.442.567-.476.663-.5.75c-.328.537-.675,1.123-1,1.764a22.485,22.485,0,0,0-.915,2.063,23.156,23.156,0,0,0-.724,2.3,20.105,20.105,0,0,0-.6,4.927,23.787,23.787,0,0,0,.151,2.411c.108.777.221,1.53.392,2.231s.355,1.359.544,1.963l.306.855.3.763.292.662c.091.2.186.386.266.554.159.337.3.593.393.771l.144.273-.188-.242c-.119-.16-.313-.383-.517-.7-.1-.155-.226-.324-.347-.516l-.38-.629-.4-.737c-.134-.264-.259-.549-.4-.843-.121-.3-.26-.612-.382-.942s-.243-.674-.345-1.035a17.269,17.269,0,0,1-.541-2.3,19.036,19.036,0,0,1-.244-2.526,17.481,17.481,0,0,1,.634-5.2,19.087,19.087,0,0,1,.843-2.386,17.058,17.058,0,0,1,1.076-2.092c.185-.324.389-.624.583-.915s.406-.555.6-.816c.206-.25.4-.495.588-.716l.563-.613.519-.513c.163-.155.323-.288.461-.413.273-.254.513-.418.667-.543Z" transform="translate(-1345.396 -1070.357)" fill="#786a73"/>
      </g>
      <g id="Grupo_33762" data-name="Grupo 33762" transform="translate(0 0)">
        <path id="Trazado_32213" data-name="Trazado 32213" d="M581.116,349.966a1.073,1.073,0,0,1-.581.593,249.611,249.611,0,0,1-24.555,12.113q-4.225,1.8-8.493,3.432a37.065,37.065,0,0,0,.987-14.89,2.38,2.38,0,0,1,.086-1.418,1.488,1.488,0,0,1,.783-.6q1.3-.574,2.612-1.109a101.8,101.8,0,0,1,24.93-6.7,1.507,1.507,0,0,1,1.209.186,2.357,2.357,0,0,1,.579,1.034L581,349.056A1.507,1.507,0,0,1,581.116,349.966Z" transform="translate(-503.777 -310.725)" fill="#f4a18d"/>
        <path id="Trazado_32214" data-name="Trazado 32214" d="M533.5,383.418a96.977,96.977,0,0,1-6.45-8.4c-3.758-5.488-5.621-8.27-4.838-10.144,1-2.389,5.769-2.859,11.244-1.846a124.4,124.4,0,0,1,4.024,14.584,7.831,7.831,0,0,0-2.1,1.753A8.823,8.823,0,0,0,533.5,383.418Z" transform="translate(-485.281 -325.66)" fill="#ba68c8"/>
        <path id="Trazado_32215" data-name="Trazado 32215" d="M538.056,722.647c.919,9.275,1.53,19.182,1.682,29.664.127,8.726-.075,17.065-.519,24.975-.117.99-.741,5.385-4.269,8.1a9.277,9.277,0,0,1-6.017,1.854,9.147,9.147,0,0,1-5.112-2.061,286.333,286.333,0,0,1-7.762-29.781c-2.422-11.927-.982-8.96-3.282-20.324a70.632,70.632,0,0,1-.986-11.112c-.139-3.507.047-8.35,3.839-11.139,3.161-2.325,7.743-2.425,11.714-2.512a41.682,41.682,0,0,1,11.165,1.357" transform="translate(-477.809 -567.504)" fill="#f4a18d"/>
        <path id="Trazado_32216" data-name="Trazado 32216" d="M543.775,977.656s-2.464-10.962-.836-30.162c.25-2.949,1.006-8.226,4.663-11.59a7,7,0,0,1,1-.761c4.451-2.839,10.368-1.712,12.557-1.193-.038,1.607-.105,3.693-.234,6.168-.026.505-.225,4.3-.6,8.5-.248,2.777-2.961,32.42-3.975,53.617-.289,6.05-.057,9.068,1.075,12.754,2.337,7.607,6.925,11.03,5.52,14.068-.963,2.082-4.136,2.681-6.271,2.319-2.915-.5-5.049-4.323-9.317-11.98-1.129-2.026-3.15-5.827-1.971-7.922.18-.321.528-.764,1.075-1.739a25.787,25.787,0,0,0,1.433-3.092C549.4,1002.667,543.775,977.656,543.775,977.656Z" transform="translate(-500.067 -722.588)" fill="#f4a18d"/>
        <path id="Trazado_32217" data-name="Trazado 32217" d="M567.743,1162.055a2.914,2.914,0,0,1,1.053-.443,7.142,7.142,0,0,1,4.825.369,4.156,4.156,0,0,1,2.417,3.539,7.323,7.323,0,0,1-.617,2.671q-.676,1.787-1.52,3.531a1.162,1.162,0,0,1-.479.587,1.264,1.264,0,0,1-.7.058l-2.7-.295a1.78,1.78,0,0,1-.735-.186,1.429,1.429,0,0,1-.455-.54,18.5,18.5,0,0,1-1.887-3.875,6.565,6.565,0,0,1,.044-4.324A2.415,2.415,0,0,1,567.743,1162.055Z" transform="translate(-517.672 -883.474)" fill="#7986cb"/>
        <path id="Trazado_32218" data-name="Trazado 32218" d="M569.789,1198.25c-.068-.064-.142-.126-.215-.184a3.619,3.619,0,0,0-4.933.466c-.643.775-1,1.855-1.831,2.386-1.4.895-3.137-.28-4.313-1.494a35.377,35.377,0,0,1-8.8-16.092,13.415,13.415,0,0,1,1.019-1.938,12.828,12.828,0,0,1,2.2-2.611,10.288,10.288,0,0,0,2.046,2.793,5.191,5.191,0,0,0,2,1.4,4.141,4.141,0,0,0,3.075-.136c.188-.087.392-.189.595-.261a.927.927,0,0,1,.932.048.794.794,0,0,1,.142.145,1.9,1.9,0,0,1,.263.63c.654,2.348.991,4.844,2.131,6.966a24.95,24.95,0,0,0,3.379,4.334,19.777,19.777,0,0,1,1.251,1.579A9.515,9.515,0,0,1,569.789,1198.25Z" transform="translate(-505.387 -895.763)" fill="#7986cb"/>
        <path id="Trazado_32219" data-name="Trazado 32219" d="M566.245,1214.348a5.893,5.893,0,0,1-4.071,2.29,9.643,9.643,0,0,1-4.745-.219c-.133-.044-.263-.091-.39-.143a9.174,9.174,0,0,1-3.012-2,18.712,18.712,0,0,1-3.573-5.234c-1.553-3.2-2.677-6.677-4.752-9.51a3.037,3.037,0,0,1-.652-1.212,2.769,2.769,0,0,1,.174-1.3,22.555,22.555,0,0,1,1.079-2.79,35.378,35.378,0,0,0,8.8,16.091c1.175,1.213,2.913,2.388,4.313,1.494.828-.531,1.188-1.611,1.831-2.386a3.62,3.62,0,0,1,4.933-.466c.073.058.147.12.215.184A5.715,5.715,0,0,1,566.245,1214.348Z" transform="translate(-501.988 -906.656)" fill="#584f5c"/>
        <path id="Trazado_32220" data-name="Trazado 32220" d="M585.871,1204.24c-.056.041-.111.076-.167.112-.622.4-1.247.806-1.9,1.146a3.394,3.394,0,0,1-2.605.45,3.837,3.837,0,0,1-1.331-.927,16.371,16.371,0,0,1-4.006-5.654,10.759,10.759,0,0,1-.505-6.853,6.6,6.6,0,0,0,3.241.256,6.514,6.514,0,0,0,1.5-.459,1.557,1.557,0,0,1,.158.3,3.394,3.394,0,0,1,.105.332c.654,2.347.991,4.844,2.13,6.966A24.9,24.9,0,0,0,585.871,1204.24Z" transform="translate(-523.78 -905.305)" fill="#f5f7ff"/>
        <path id="Trazado_32221" data-name="Trazado 32221" d="M579.518,1196.712l3.917,1.751.225.1-.2.166a5.7,5.7,0,0,0-1.809,2.77l-.18-.36a10.242,10.242,0,0,1,2.934,1.163h0l.578.331-.578.335a4.661,4.661,0,0,0-1.159.958c-.084.1-.165.2-.243.3a1.249,1.249,0,0,0-.174.278.392.392,0,0,0-.026.094c0,.015,0,.019-.007.014,0,.022.084.063.221.106l2.995,1.038.252.087-.195.178a4.888,4.888,0,0,0-1.021,1.323l-.053-.136,2.459.869-2.508-.686-.1-.028.048-.108a5.219,5.219,0,0,1,.984-1.465l.057.265-3.053-.817c-.062-.017-.127-.031-.212-.063a.6.6,0,0,1-.407-.561.93.93,0,0,1,.047-.32,1.827,1.827,0,0,1,.228-.447c.08-.123.164-.242.253-.358a5.4,5.4,0,0,1,1.255-1.19v.666h0a9.779,9.779,0,0,0-2.691-1.295l-.281-.084.1-.276a6.051,6.051,0,0,1,2.123-2.836l.024.267Z" transform="translate(-527.058 -908.409)" fill="#584f5c"/>
        <path id="Trazado_32222" data-name="Trazado 32222" d="M575.365,1175.715c-.178-.764-.489-1.483-.732-2.225a5.285,5.285,0,0,1-.319-2.314,2.28,2.28,0,0,1,1.215-1.833,2.717,2.717,0,0,1,1.777.041,12.42,12.42,0,0,1,3.65,1.7,7.629,7.629,0,0,0-.938,2.119,7.929,7.929,0,0,0-.275,2.176,7.1,7.1,0,0,0-4.377.337Z" transform="translate(-523.253 -889.008)" fill="#f5f7ff"/>
        <path id="Trazado_32223" data-name="Trazado 32223" d="M455.622,724.672c.512,9.311.689,19.239.383,29.717-.255,8.723-.822,17.042-1.611,24.921-.161.983-.976,5.342-4.619,7.877a8.838,8.838,0,0,1-11.109-.773,287.819,287.819,0,0,1-6.45-30.142c-1.9-12.037-.589-9-2.389-20.468a70.718,70.718,0,0,1-.5-11.15c.014-3.51.412-8.338,4.322-10.931,3.259-2.161,7.841-2.029,11.811-1.913a41.807,41.807,0,0,1,11.093,1.924" transform="translate(-417.892 -568.514)" fill="#f4a18d"/>
        <path id="Trazado_32224" data-name="Trazado 32224" d="M581.42,481c-.924,7.18-1.85,14.375-2.121,21.618-.439,11.709.808,23.7-2.192,34.961a200.589,200.589,0,0,1-1.892-41.62,14.518,14.518,0,0,1,1.191-5.835C578.059,486.921,582.111,484.584,581.42,481Z" transform="translate(-523.68 -407.587)" fill="#29252b"/>
        <path id="Trazado_32225" data-name="Trazado 32225" d="M443.943,643.523a19.778,19.778,0,0,0-6.832.935,23.757,23.757,0,0,0-8.746,4.891c-6.232,5.56-7.649,13.247-8.643,18.642-.73,3.959-2.285,12.4.864,14.448,1.876,1.221,4.415-.48,7.135-1.689,4.622-2.056,11.609-3.516,21.963-.857l4.661-24.169c.46-2.384.9-4.949.008-7.184C452.755,644.563,447.959,643.7,443.943,643.523Z" transform="translate(-410.162 -521.299)" fill="#361274"/>
        <path id="Trazado_32226" data-name="Trazado 32226" d="M538.887,643.176a12.958,12.958,0,0,1,5.586.816l3.255.976a2.2,2.2,0,0,1,1.076.562,2.473,2.473,0,0,1,.4.724c2.507,6.16,2.8,13.108,3.051,19.863q.229,6.143.458,12.285A25.883,25.883,0,0,0,530.8,680.82q-.12-9.489-.24-18.978c-.048-3.816-.082-7.731,1.09-11.318S535.483,643.691,538.887,643.176Z" transform="translate(-491.463 -521.03)" fill="#361274"/>
        <g id="Grupo_33754" data-name="Grupo 33754" transform="translate(39.47 125.336)">
          <path id="Trazado_32227" data-name="Trazado 32227" d="M539.735,654.546c0,.411.006.822,0,1.232s-.01.822-.019,1.233-.019.821-.035,1.231l-.051,1.231c-.036.82-.09,1.639-.14,2.459s-.124,1.637-.191,2.455-.156,1.634-.24,2.45l-.133,1.224-.15,1.221-.156,1.221c-.053.406-.112.812-.17,1.218-.122.811-.238,1.623-.375,2.431l-.123.727-.4-.591-.109-.16-.119-.153-.129-.145-.138-.135-.146-.126-.154-.116-.161-.105-.167-.095-.172-.086-.177-.074-.181-.062-.185-.049-.188-.036-.19-.023-.191-.009-.185,0-.2.021-.184.031-.189.046-.187.06-.183.073-.179.086-.175.1-.17.109-.164.12-.157.132-.15.143-.142.153-.134.162-.125.172-.114.181-.1.19.077-.205.091-.2.1-.194.116-.186.129-.177.14-.168.15-.159.159-.149.169-.138.177-.125.185-.113.192-.1.2-.087.2-.073.215-.059.2-.039.223-.025.218-.008.218.008.217.024.215.039.213.054.21.069.206.082.2.1.194.112.188.125.181.139.172.151.163.164.153.176.142.188-.522.136.575-4.873.552-4.875.27-2.439.271-2.44.136-1.221c.042-.407.093-.814.139-1.221s.092-.814.141-1.221S539.685,654.953,539.735,654.546Z" transform="translate(-532.285 -654.528)" fill="#9fa8da"/>
          <path id="Trazado_32228" data-name="Trazado 32228" d="M537.707,675.18l-.665-.985-.009,0,0-.014-.125-.162-.255-.267-.287-.231-.314-.191-.335-.153-.35-.105-.361-.056-.182-.008-.176,0-.371.05-.359.1-.347.153-.331.2-.308.242-.279.284-.249.322-.109.173-.1.182-.231-.122.077-.2.095-.209.108-.2.12-.195.135-.185.145-.175.155-.165.166-.155.175-.144.186-.13.192-.117.2-.1.206-.09.212-.076.224-.062.21-.042.233-.026.226-.009.227.008.225.024.224.04.221.056.218.071.213.085.209.1.2.116.195.13.2.153.469-3.973,1.229-10.974c.027-.264.058-.528.089-.793l.05-.429c.043-.407.092-.815.141-1.223.031-.279.066-.56.1-.84l.048-.382.257.018,0,.381c0,.285,0,.569,0,.854,0,.411-.009.823-.02,1.234l-.012.437c-.007.266-.013.531-.023.8l-.051,1.231c-.029.668-.071,1.335-.112,2l-.028.46c-.051.755-.114,1.508-.175,2.261l-.016.2c-.053.639-.12,1.285-.184,1.911l-.189,1.767-.307,2.445c-.047.364-.1.727-.152,1.09l-.1.677c-.083.555-.167,1.126-.261,1.691l.018.024-.024.006c-.009.055-.018.11-.028.166Zm-.394-1.056.249.368.069-.408.008-.045Zm.043-.469-.021.177.142-.037Zm-2.53-.923.4.032.389.089.374.141.352.187.329.231.3.273.112.126.046-.388-.129-.114-.355-.254-.38-.2-.4-.144-.205-.052-.207-.037-.418-.03-.209.008-.214.024-.191.038-.207.057-.386.154-.311.173.324-.14.392-.111.4-.055Zm2.57.578.1.1.2.24c.078-.486.151-.974.221-1.451l.1-.676c.052-.362.1-.723.151-1.086l.306-2.441.188-1.764c.064-.624.13-1.269.183-1.9l.016-.2c.062-.752.124-1.5.175-2.257l.028-.459c.041-.665.082-1.331.112-2l.051-1.231c.01-.264.016-.528.023-.792l.012-.437c0-.063,0-.126,0-.189q-.01.094-.02.188l-.05.431c-.031.263-.062.527-.089.79l-1.229,10.976Z" transform="translate(-531.967 -654.484)" fill="#9fa8da"/>
        </g>
        <path id="Trazado_32229" data-name="Trazado 32229" d="M530.743,734.752s.069.151.172.421a11.592,11.592,0,0,1,.365,1.146c.065.241.131.5.185.786s.116.578.156.891.087.635.11.96.045.662.058,1,.005.669,0,1-.029.652-.049.964a16.959,16.959,0,0,1-.208,1.694c-.04.245-.087.471-.127.665l-.013.068,0,.009v0s0,.014,0-.019a.128.128,0,0,0-.052-.077.116.116,0,0,0-.039-.016c.046-.015-.1.016-.085.012a.089.089,0,0,0-.031.023.126.126,0,0,0-.027.048h0s0,0,0-.007l.035-.122.06-.231c.072-.281.117-.442.117-.442s.015.167.025.46c0,.073,0,.155,0,.243a1.368,1.368,0,0,1,0,.146.248.248,0,0,1,0,.027l0,.009a.181.181,0,0,1-.03.056.228.228,0,0,1-.035.03c.018,0-.133.027-.087.01a.138.138,0,0,1-.04-.021.149.149,0,0,1-.055-.086c-.006-.037,0-.021,0-.028v-.014l0-.027,0-.08c-.007-.207-.011-.432-.011-.68l-.014-1.679c0-.306-.008-.622-.013-.942s-.012-.646-.024-.97-.015-.65-.032-.969-.023-.627-.046-.939-.039-.6-.056-.877l-.06-.79c-.041-.493-.075-.9-.1-1.191S530.743,734.752,530.743,734.752Z" transform="translate(-491.607 -585.404)" fill="#9fa8da"/>
        <g id="Grupo_33755" data-name="Grupo 33755" transform="translate(50.812 123.82)">
          <path id="Trazado_32230" data-name="Trazado 32230" d="M580.177,656.953a9.2,9.2,0,0,1-2.15-.224,5.107,5.107,0,0,1-3.406-2.48,8.348,8.348,0,0,1-.7-2.378,9.909,9.909,0,0,0-.44-1.763l.665-.3a10.693,10.693,0,0,1,.482,1.909,7.61,7.61,0,0,0,.617,2.149,4.386,4.386,0,0,0,2.935,2.1A12.844,12.844,0,0,0,582,656.1l.044.775C581.429,656.912,580.8,656.953,580.177,656.953Z" transform="translate(-573.485 -649.808)" fill="#9fa8da"/>
        </g>
        <g id="Grupo_33756" data-name="Grupo 33756" transform="translate(21.742 125.316)">
          <path id="Trazado_32231" data-name="Trazado 32231" d="M467.3,664.555l-.235-.734,6.588-2.454a3.526,3.526,0,0,0,1.141-.588,3.563,3.563,0,0,0,.822-1.422,20.69,20.69,0,0,0,1.147-4.639l.714.106a21.529,21.529,0,0,1-1.193,4.824,4.241,4.241,0,0,1-1.03,1.729,4.113,4.113,0,0,1-1.365.724Z" transform="translate(-467.07 -654.718)" fill="#9fa8da"/>
        </g>
        <path id="Trazado_32232" data-name="Trazado 32232" d="M693.7,294.164a2.169,2.169,0,0,1-2.007.131c-.636-.371-1.13-.971-1.737-1.4-1.616-1.132-4.093-.433-5.357-.009a16.853,16.853,0,0,0-6.216,4.129c-2.4,2.159-5.718,3.468-12.362,6.086-7.464,2.941-12.026,4.739-13.975,2.608-1.59-1.738-.684-5.261-.537-5.8,2.928-10.683,27.3-12,31.174-12.172-.221-1.032-.488-2.419-.71-4.028a10.308,10.308,0,0,1,0-3.195c.037-.19.454-2.419,1.194-2.266a1.314,1.314,0,0,1,.724.508c.956,1.207.8,3.261,2.014,4.153,1.282.94,3.144-.117,4.539.615.3.158.762.545,1.541,1.945C693.5,288.208,695.118,292.973,693.7,294.164Z" transform="translate(-579.099 -266.215)" fill="#f4a18d"/>
        <path id="Trazado_32233" data-name="Trazado 32233" d="M389.655,248.694c-2.677,6.595.3,13.049.717,13.912a14.551,14.551,0,0,0,5.733,6.569c1.595.882,2.543.873,6.414,2.021,2.612.774,4.721,1.533,6.127,2.065a59.613,59.613,0,0,1,2.717-15.328,57.437,57.437,0,0,1,6.473-13.786,6.652,6.652,0,0,0-.957-3.923c-1.346-2.042-3.654-2.4-5.744-2.684a18.014,18.014,0,0,0-9.382,1.445C397,240.929,391.972,242.987,389.655,248.694Z" transform="translate(-388.258 -237.399)" fill="#29252b"/>
        <path id="Trazado_32234" data-name="Trazado 32234" d="M450.663,367.251c-.516,3.672-1.818,6.478-3.912,7.98-3.82,2.74-9.4.842-16.659-1.651a64.357,64.357,0,0,1-15.983-8.174c-1.187-.833-2.243-1.628-3.163-2.356.14-.023.37-.064.672-.126a20.041,20.041,0,0,0,8.727-3.975,9.541,9.541,0,0,0,2.855-4.158,13.957,13.957,0,0,0,.575-4.129,23.148,23.148,0,0,0-.987-7.335h0a25.009,25.009,0,0,0-1.5-3.814,33.057,33.057,0,0,0,7.216,3.052,32.211,32.211,0,0,0,7.191,1.215q.385,1.969.769,3.936l.333,1.707.433-.071,2.066-.34a22.557,22.557,0,0,0,3.9.222c.458-.014.928-.042,1.41-.087a17.684,17.684,0,0,0,3.752-.741C450.6,355.559,451.371,362.218,450.663,367.251Z" transform="translate(-404.535 -309.429)" fill="#f4a18d"/>
        <path id="Trazado_32235" data-name="Trazado 32235" d="M482.3,322.259a13.091,13.091,0,0,0-.126-2.533,4.915,4.915,0,0,0-1.251-1.842,44.014,44.014,0,0,1-10.2-19.314,5.332,5.332,0,0,0,.935-1.29,12.542,12.542,0,0,1,21.728-.172,9.979,9.979,0,0,1,1.631,6.724c-.374,2.34-2.092,4.5-4.279,4.78,3,.749,4.581,4.241,5.532,7.4.781,2.591,1.42,5.384.76,8.014s-3.053,4.937-5.534,4.422a11.247,11.247,0,0,1,3.97,7.748c.292,3.706-1.177,7.281-2.612,10.663a36.716,36.716,0,0,1-4.685-11.08c-.656-2.725-1.047-5.627-2.55-7.929C484.415,326.009,482.5,324.5,482.3,322.259Z" transform="translate(-447.98 -275.152)" fill="#29252b"/>
        <path id="Trazado_32236" data-name="Trazado 32236" d="M454.2,294.151c-3.994.395-5.161.224-6.255-.138a8.121,8.121,0,0,1-3.7-2.34,10.375,10.375,0,0,1-1.085-1.583,32.888,32.888,0,0,1-2.3-4.545c-1.878-4.724-3.057-12.42-1.911-15.924a8.4,8.4,0,0,1,2.433-4.066c2.089-1.727,5.05-1.959,6.831-2.1.844-.066.8,0,2.9-.1,2.652-.131,2.912-.25,3.475,0,.676.3,1.271,1.333,2.433,3.388.22.389.413.73.578,1.034.138.251.257.478.36.685a4.191,4.191,0,0,1,.447,1.287l.006.043c.173,1.51-.56,1.744-.348,3.05.225,1.387,1.115,1.512,2.085,3.387a11.572,11.572,0,0,1,1.042,3.558c.028.152.055.3.08.468a32.172,32.172,0,0,1,.268,4.275c.051,1.754.076,2.633.065,2.74a3.815,3.815,0,0,0,0,1.72c.191.594.487.721.7,1.377a3.234,3.234,0,0,1,.128,1.445C462.334,292.357,461.637,293.416,454.2,294.151Z" transform="translate(-424.561 -255.604)" fill="#f4a18d"/>
        <path id="Trazado_32237" data-name="Trazado 32237" d="M435.817,259.833c1.17-1.423,2.495-1.927,4.59-2.676,3.245-1.161,6.147-2.2,8.86-.713a7.12,7.12,0,0,1,2.3,2.065,10.925,10.925,0,0,0-6.224-.077c-1.413.414-4.927,1.446-5.839,4.619a6.7,6.7,0,0,0,.383,4.336c.212,1.018.365,2.477-.383,3.3-.808.892-2.027.339-2.734,1.09-.52.551-.815,1.862.538,5.354a2.818,2.818,0,0,0-3.688-1.365c-.266-4.043-.524-8.176.451-12.091A9.686,9.686,0,0,1,435.817,259.833Z" transform="translate(-420.837 -250.314)" fill="#29252b"/>
        <path id="Trazado_32238" data-name="Trazado 32238" d="M436.413,323.154a4.643,4.643,0,0,0-3.573-2.059,1.831,1.831,0,0,0-1.363.4,1.948,1.948,0,0,0-.495,1.486,4.359,4.359,0,0,0,1.258,2.756,11.676,11.676,0,0,0,2.382,1.8l3.971,2.5" transform="translate(-419.096 -296.436)" fill="#f4a18d"/>
        <path id="Trazado_32239" data-name="Trazado 32239" d="M412.5,247.851s-.086-.007-.246-.014-.4-.01-.693,0a9.536,9.536,0,0,0-1.069.092,9.208,9.208,0,0,0-1.355.3,9.442,9.442,0,0,0-1.523.616c-.128.071-.263.132-.391.213l-.39.237a9.135,9.135,0,0,0-.761.562c-.249.206-.492.43-.73.665s-.465.489-.683.755a10.068,10.068,0,0,0-1.16,1.741c-.041.078-.084.155-.125.234l-.112.24-.113.24-.007.015c0-.009,0,0,0,0l0,.008-.013.032-.026.063-.051.127c-.033.084-.069.169-.1.252l-.086.247c-.06.162-.107.333-.157.5-.1.338-.172.68-.239,1.02-.027.171-.057.341-.079.511s-.045.339-.054.508a12.738,12.738,0,0,0-.006,1.954,14.735,14.735,0,0,0,.245,1.743c.11.535.236,1.02.363,1.445s.257.79.37,1.088.21.529.279.685.109.238.109.238-.048-.077-.132-.225-.205-.366-.343-.655-.3-.643-.456-1.063a13.489,13.489,0,0,1-.458-1.442,12.7,12.7,0,0,1-.333-1.774,11.6,11.6,0,0,1-.059-2.029,10.135,10.135,0,0,1,.35-2.147c.051-.178.1-.357.163-.535l.092-.268c.032-.087.066-.169.1-.255l.05-.127.025-.063.013-.032.009-.022.007-.016.116-.254.117-.254c.042-.083.086-.165.13-.247a10.561,10.561,0,0,1,1.233-1.818,10.1,10.1,0,0,1,1.505-1.45,7.949,7.949,0,0,1,.814-.564l.417-.23c.136-.078.279-.136.415-.2a8.47,8.47,0,0,1,1.6-.552,8.513,8.513,0,0,1,2.492-.205c.3.02.535.053.694.079S412.5,247.851,412.5,247.851Z" transform="translate(-397.956 -244.673)" fill="#3d3740"/>
        <path id="Trazado_32240" data-name="Trazado 32240" d="M530.782,349.6s-.06.026-.159.081c-.049.029-.11.058-.177.091l-.1.054-.119.055c-.081.042-.172.079-.265.12s-.2.077-.3.121-.21.077-.32.109-.221.065-.333.1-.225.056-.338.075-.223.039-.331.058-.214.031-.315.037-.2.02-.287.022-.173.01-.247.012-.141.008-.2.006c-.109,0-.175.006-.175.006s.054.038.153.094a1.352,1.352,0,0,0,.184.09l.117.048c.042.015.086.027.133.042s.1.028.147.04l.16.03a2.808,2.808,0,0,0,.349.032,2.68,2.68,0,0,0,.375-.02,3.14,3.14,0,0,0,.383-.069,3.236,3.236,0,0,0,.37-.125,2.871,2.871,0,0,0,.342-.165,2.917,2.917,0,0,0,.3-.2l.13-.1c.041-.035.078-.072.114-.107s.07-.068.1-.1l.085-.1a1.483,1.483,0,0,0,.126-.17C530.749,349.659,530.782,349.6,530.782,349.6Z" transform="translate(-488.974 -316.546)" fill="#3d3740"/>
        <path id="Trazado_32241" data-name="Trazado 32241" d="M535.248,418.987s-.063-.012-.172-.022l-.439-.044-.287-.027c-.1-.008-.208-.023-.317-.032l-.336-.04c-.114-.013-.23-.031-.345-.045s-.231-.034-.344-.053l-.334-.056c-.108-.022-.214-.037-.314-.058l-.284-.055c-.089-.016-.17-.032-.244-.046l-.191-.034c-.107-.02-.171-.026-.171-.026s.046.047.132.12a1.944,1.944,0,0,0,.161.125,2.41,2.41,0,0,0,.219.143,2.888,2.888,0,0,0,.272.145c.1.048.205.089.316.131a3.513,3.513,0,0,0,.35.1c.12.033.245.051.369.073s.25.03.373.032a3.526,3.526,0,0,0,.362,0c.117-.009.231-.019.337-.038a2.945,2.945,0,0,0,.3-.063,2.432,2.432,0,0,0,.247-.077,1.825,1.825,0,0,0,.185-.076C535.192,419.019,535.248,418.987,535.248,418.987Z" transform="translate(-492.135 -365.112)" fill="#3d3740"/>
        <path id="Trazado_32242" data-name="Trazado 32242" d="M472.54,290.057c-1.26.393-2.67-.194-3.9.294a4.171,4.171,0,0,0-2.013,2.21c-.447.941-.748,1.963-1.264,2.862,1.822-.618,2.581-3.346,4.472-3.636.7-.108,1.432.135,2.126-.032A1.1,1.1,0,0,0,472.54,290.057Z" transform="translate(-444.086 -274.544)" fill="#29252b"/>
        <path id="Trazado_32243" data-name="Trazado 32243" d="M503.781,280.685a7.533,7.533,0,0,0-1.893,1.512,1.842,1.842,0,0,1-.773-.751,1.919,1.919,0,0,1-.191-.516,1.772,1.772,0,0,0,.6-.31,3.823,3.823,0,0,0,.755-1.034,6.243,6.243,0,0,1,.7-.874c.138.251.257.478.36.685A4.192,4.192,0,0,1,503.781,280.685Z" transform="translate(-469.934 -266.542)" fill="#29252b"/>
        <path id="Trazado_32244" data-name="Trazado 32244" d="M509.944,299.084a.986.986,0,0,1-.123.342,1.2,1.2,0,0,1-.1.138.99.99,0,0,1-.125.112,1.96,1.96,0,0,1-.247.153l-.23.121c-.152.079-.3.156-.446.23-.288.152-.564.29-.818.418-.507.256-.934.46-1.235.6-.28.133-.452.21-.472.218.018-.012.174-.119.437-.29.279-.183.682-.441,1.169-.74.243-.151.507-.314.788-.481l.432-.259a4.743,4.743,0,0,0,.424-.266.616.616,0,0,0,.076-.072.75.75,0,0,0,.06-.086.611.611,0,0,0,.063-.2.942.942,0,0,0-.083-.46,1.058,1.058,0,0,0-.124-.217.907.907,0,0,0-.076-.1c-.029-.032-.05-.052-.081-.083a1.922,1.922,0,0,0-.441-.279c-.322-.161-.689-.277-1.036-.489a3.207,3.207,0,0,1-.851-.813,5.4,5.4,0,0,1-.337-.507c-.083-.143-.16-.286-.232-.427-.078-.157-.148-.313-.21-.466-.026-.063-.05-.126-.072-.188-.032-.087-.062-.172-.089-.257-.013-.039-.026-.078-.037-.118a6.31,6.31,0,0,1-.171-.69,6.106,6.106,0,0,1-.089-.634c-.01-.089-.014-.168-.017-.237s-.006-.127-.006-.174c0-.094,0-.145,0-.145s.008.049.023.143.041.229.078.4.089.376.156.608c.03.1.064.207.1.318.02.059.041.119.064.18h0c.021.055.042.11.065.166.011.031.025.062.037.094a7.7,7.7,0,0,0,.415.845c.089.155.186.311.294.466.088.132.184.262.286.389a3.033,3.033,0,0,0,.775.7c.3.18.653.289,1.012.46a2.3,2.3,0,0,1,.517.337,1.526,1.526,0,0,1,.121.124,1.312,1.312,0,0,1,.1.132,1.532,1.532,0,0,1,.162.292,1.45,1.45,0,0,1,.1.329A1.276,1.276,0,0,1,509.944,299.084Z" transform="translate(-473.359 -276.44)" fill="#664036"/>
        <path id="Trazado_32245" data-name="Trazado 32245" d="M478.033,301.213l-.074-.042-.088-.052-.122-.057a2.074,2.074,0,0,0-.339-.111,1.988,1.988,0,0,0-.45-.047,1.925,1.925,0,0,0-.52.074,1.974,1.974,0,0,0-.528.24c-.041.03-.083.057-.124.089l-.116.1-.107.115c-.027.033-.077.09-.1.129a3.29,3.29,0,0,0-.335.588c-.1.214-.186.441-.281.666a6.6,6.6,0,0,1-.308.656,4.259,4.259,0,0,1-.375.571,4,4,0,0,1-.4.447,3.638,3.638,0,0,1-.378.325,3.379,3.379,0,0,1-.314.213c-.09.053-.162.092-.211.116l-.076.037.065-.057c.043-.036.1-.094.179-.163s.165-.162.263-.267.2-.23.314-.369.22-.3.329-.467a6.013,6.013,0,0,0,.305-.557c.1-.2.176-.418.264-.644s.173-.459.28-.692a3.239,3.239,0,0,1,.4-.667c.044-.056.073-.087.123-.143l.139-.133.148-.115c.051-.035.1-.065.154-.1a1.925,1.925,0,0,1,.637-.226,2.1,2.1,0,0,1,.307-.03,2.242,2.242,0,0,1,.285.021,1.822,1.822,0,0,1,.256.052c.08.026.154.051.222.08a1.727,1.727,0,0,1,.333.19l.112.088.074.073Z" transform="translate(-449.482 -282.015)" fill="#664036"/>
        <path id="Trazado_32246" data-name="Trazado 32246" d="M480.393,302.7a1.688,1.688,0,0,0,.115.7,2.087,2.087,0,0,0,1.183,1.3,1.528,1.528,0,0,0,1.508-.232c.658-.668.2-1.924.144-2.091-.1-.28-.446-1.233-1.221-1.342-.884-.124-1.5.969-1.53,1.032A1.536,1.536,0,0,0,480.393,302.7Z" transform="translate(-455.009 -282.273)" fill="#664036"/>
        <path id="Trazado_32247" data-name="Trazado 32247" d="M507.822,294.382l-.027-.041a.953.953,0,0,0-.081-.11.514.514,0,0,0-.155-.121.2.2,0,0,0-.1-.02.232.232,0,0,0-.113.034.554.554,0,0,0-.185.22,1.693,1.693,0,0,0-.123.33c-.034.12-.059.25-.085.382s-.045.253-.066.382c0,.009,0,.016,0,.024-.016.092-.031.183-.048.274-.008.045-.016.091-.024.136,0,0,0,0,0,.005q-.049-.13-.089-.257c-.013-.039-.026-.078-.037-.118,0-.026.008-.051.012-.077.019-.111.039-.224.061-.334,0-.026.01-.051.015-.077a3.6,3.6,0,0,1,.106-.4,1.569,1.569,0,0,1,.162-.355.715.715,0,0,1,.184-.2h0a.335.335,0,0,1,.053-.032h0l.017-.008a.324.324,0,0,1,.16-.028.655.655,0,0,1,.073.019.622.622,0,0,1,.062.032.519.519,0,0,1,.151.165.868.868,0,0,1,.06.128Z" transform="translate(-474.119 -277.319)" fill="#664036"/>
        <path id="Trazado_32248" data-name="Trazado 32248" d="M508.051,296.789a.7.7,0,0,1-.064.126.24.24,0,0,1-.309.115c-.083-.143-.16-.286-.232-.427-.079-.157-.148-.313-.21-.466-.015-.083-.024-.149-.03-.186a3.258,3.258,0,0,1-.033-.547c0-.021,0-.04,0-.06h0a2.565,2.565,0,0,1,.063-.439c.01-.049.209-.9.487-.805.244.087.348.833.379,1.053A4.051,4.051,0,0,1,508.051,296.789Z" transform="translate(-474.475 -277.391)" fill="#664036"/>
        <g id="Grupo_33757" data-name="Grupo 33757" transform="translate(29.808 27.966)">
          <path id="Trazado_32249" data-name="Trazado 32249" d="M503.2,336.48a.83.83,0,0,0,.532-.292.963.963,0,0,0,.091-.572q-.072-1.484-.258-2.957a12.3,12.3,0,0,1-4.218,1.252,7.724,7.724,0,0,0-2.21.18c.873.617,1.379,1.726,2.28,2.3C500.529,337.092,501.936,336.8,503.2,336.48Z" transform="translate(-496.986 -332.562)" fill="#fbeee8"/>
          <path id="Trazado_32250" data-name="Trazado 32250" d="M500.678,336.656h0a3.064,3.064,0,0,1-1.687-.444,5.345,5.345,0,0,1-1.209-1.2,5.811,5.811,0,0,0-1.074-1.1l-.112-.079.127-.044a4.261,4.261,0,0,1,1.414-.175h.381c.144,0,.289,0,.432-.008a12.2,12.2,0,0,0,4.2-1.247l.076-.033.011.088c.123.979.21,1.976.258,2.963a1.009,1.009,0,0,1-.1.614.879.879,0,0,1-.569.32A9.1,9.1,0,0,1,500.678,336.656Zm-3.788-2.773a6.5,6.5,0,0,1,.988,1.042,5.265,5.265,0,0,0,1.178,1.169,2.949,2.949,0,0,0,1.623.425h0a8.989,8.989,0,0,0,2.114-.338.771.771,0,0,0,.494-.264.9.9,0,0,0,.08-.529c-.046-.953-.13-1.916-.246-2.864a12.078,12.078,0,0,1-4.163,1.224c-.145.007-.291.008-.438.008h-.381A4.5,4.5,0,0,0,496.889,333.884Z" transform="translate(-496.596 -332.33)" fill="#db917f"/>
        </g>
        <path id="Trazado_32251" data-name="Trazado 32251" d="M463.406,451.609a156.919,156.919,0,0,1-20.152,5.257,155.183,155.183,0,0,1-22.721,2.622,59.9,59.9,0,0,1,.832-8.976c1.591-9.379,4.168-10.834,4.578-17.5.242-3.93-.671-7.557-2.5-14.811a114.463,114.463,0,0,0-3.887-12.427,18.413,18.413,0,0,0,1.341-6.608,20.211,20.211,0,0,0-5.262-13.336,23.215,23.215,0,0,0-2.492-2.482l-.1-.081,8.807-3.924.017.03c3.424,5.676,7.018,8.105,9.747,9.263,2.867,1.215,5.114,1.17,9.956,3.1a47.471,47.471,0,0,1,6.7,3.3,48.468,48.468,0,0,0,.383-7.435q-.049-1.894-.236-3.667a49.39,49.39,0,0,0-3.7-14.279c.458-.014.928-.042,1.41-.087a17.679,17.679,0,0,0,3.752-.741c.428-.132.794-.26,1.121-.365a4.753,4.753,0,0,1,1.224,2.507c1.8,7.616,2.706,11.424,3.9,14.154A48.942,48.942,0,0,0,461.646,394c.344.457.642.836.9,1.173a7.382,7.382,0,0,1,1.433,2.543c.918,2.961-.216,5.546-1.34,9.084-1.089,3.427-1.521,7.063-2.489,10.532C458.787,422.22,458.61,431.686,463.406,451.609Z" transform="translate(-406.065 -329.849)" fill="#ba68c8"/>
        <path id="Trazado_32252" data-name="Trazado 32252" d="M435.968,452.445a3.963,3.963,0,0,1-.627,1.1,15.815,15.815,0,0,0-3.119,6.272,107.158,107.158,0,0,1-22.767-13.2,47.562,47.562,0,0,1-9.285-8.78,28.507,28.507,0,0,1-1.951-2.889,22.752,22.752,0,0,1-3.121-9.1,28.291,28.291,0,0,1,.645-8.747c.52-2.473,1.283-5,2.935-6.811,1.887-2.06,4.625-2.858,7.226-3.573a44.492,44.492,0,0,0,4.123,12.3,34.7,34.7,0,0,0,3.315,5.225c6.246,8.119,20.777,19.417,22.382,23.8A6.656,6.656,0,0,1,435.968,452.445Z" transform="translate(-392.934 -355.71)" fill="#f4a18d"/>
        <path id="Trazado_32253" data-name="Trazado 32253" d="M407.483,421.407a51.825,51.825,0,0,0-4.569,5.8c-2.458,3.617-2.928,5.276-4.837,7.245a15.105,15.105,0,0,1-7.256,4.057A32.393,32.393,0,0,1,387.6,421.7c.318-3.567.682-7.664,3.762-10.723a12.167,12.167,0,0,1,9.406-3.188c1.1,2.6,2.344,5.313,3.762,8.115Q406,418.8,407.483,421.407Z" transform="translate(-387.479 -356.52)" fill="#ba68c8"/>
        <path id="Trazado_32254" data-name="Trazado 32254" d="M530.754,394.685c-.284-.155-.576-.319-.874-.488a58.477,58.477,0,0,1-10.354-7.5c-1.25-1.134-2.514-2.378-3.765-3.741s-2.472-2.818-3.673-4.411a61.2,61.2,0,0,1-6-9.749c-.137-.278-.271-.555-.4-.826a13.066,13.066,0,0,0,2.466.486,22.624,22.624,0,0,0,7.905-.952,6.914,6.914,0,0,1,3.844-.253,3.065,3.065,0,0,1,.644.2c3.352,1.588,1.674,8.677,4.882,17.615A34.645,34.645,0,0,0,530.754,394.685Z" transform="translate(-473.398 -328.872)" fill="#29252b"/>
        <path id="Trazado_32255" data-name="Trazado 32255" d="M554.221,366.912s.134.072.363.207c.057.035.121.07.188.115s.137.1.214.154l.244.178c.084.065.165.142.254.217s.182.155.272.243.18.185.274.282.188.2.279.31.187.22.278.338a9.049,9.049,0,0,1,.519.763c.173.264.313.556.463.842.128.3.268.59.367.895.116.3.193.605.275.9.035.148.066.3.094.44s.056.285.072.425.036.274.054.4.016.259.025.381.016.238.017.349-.005.216-.007.315,0,.191-.008.276-.016.163-.022.234c-.03.281-.054.44-.054.44s-.026-.16-.06-.437c-.013-.138-.043-.3-.075-.495l-.05-.3q-.032-.158-.068-.331c-.042-.231-.107-.476-.171-.735-.029-.13-.068-.261-.111-.394s-.077-.271-.123-.408c-.1-.272-.187-.556-.3-.834s-.238-.558-.362-.837c-.139-.27-.269-.547-.422-.8s-.3-.508-.453-.752c-.077-.119-.161-.23-.236-.345s-.152-.226-.233-.326-.158-.2-.23-.3-.153-.186-.225-.275l-.211-.252-.2-.217c-.062-.069-.122-.132-.175-.194s-.11-.111-.157-.16C554.326,367.027,554.221,366.912,554.221,366.912Z" transform="translate(-508.671 -328.758)" fill="#49424d"/>
        <path id="Trazado_32256" data-name="Trazado 32256" d="M518.821,429.424l.441.219.433.24.425.257.418.272.408.29.4.3c.132.1.26.212.39.318l.381.331.373.343.36.36.351.37.341.38.328.4.316.405.306.415c.1.142.2.281.294.425l-.506.278q-.142-.483-.276-.969c-.086-.325-.175-.649-.25-.977s-.148-.656-.218-.986-.129-.661-.187-.992-.112-.664-.156-1-.086-.668-.122-1-.064-.67-.085-1.007l-.029-.5-.016-.5.2.985.2.981.1.489.109.487.224.972.239.966q.122.483.253.961l.265.957q.138.476.284.95l.548,1.77-1.054-1.492c-.1-.136-.188-.275-.282-.413l-.291-.406-.3-.4-.311-.389-.316-.384-.326-.375q-.334-.367-.676-.726l-.35-.351c-.119-.114-.24-.226-.358-.343l-.364-.336-.373-.326-.378-.321-.386-.312C519.351,429.826,519.087,429.624,518.821,429.424Z" transform="translate(-482.942 -370.124)" fill="#d67f6b"/>
        <path id="Trazado_32257" data-name="Trazado 32257" d="M453.262,977s-2.464-10.962-.835-30.163c.25-2.949,1.006-8.226,4.663-11.591a7.012,7.012,0,0,1,1-.761c4.451-2.839,10.368-1.712,12.557-1.193-.038,1.606-.105,3.693-.234,6.168-.026.505-.225,4.3-.6,8.5-.249,2.777-2.961,32.42-3.975,53.617-.29,6.05-.057,9.068,1.075,12.754,2.337,7.607,6.926,11.029,5.52,14.068-.963,2.082-4.136,2.681-6.271,2.319-2.915-.495-5.049-4.323-9.317-11.98-1.129-2.025-3.15-5.827-1.971-7.922.181-.321.528-.764,1.075-1.739a25.769,25.769,0,0,0,1.433-3.091C458.885,1002.012,453.262,977,453.262,977Z" transform="translate(-434.28 -722.125)" fill="#f4a18d"/>
        <path id="Trazado_32258" data-name="Trazado 32258" d="M477.231,1161.4a2.913,2.913,0,0,1,1.053-.443,7.142,7.142,0,0,1,4.825.369,4.155,4.155,0,0,1,2.417,3.539,7.331,7.331,0,0,1-.617,2.67q-.676,1.787-1.52,3.531a1.158,1.158,0,0,1-.479.586,1.256,1.256,0,0,1-.7.059l-2.7-.295a1.781,1.781,0,0,1-.735-.186,1.431,1.431,0,0,1-.455-.541,18.513,18.513,0,0,1-1.887-3.876,6.565,6.565,0,0,1,.044-4.323A2.412,2.412,0,0,1,477.231,1161.4Z" transform="translate(-451.885 -883.011)" fill="#7986cb"/>
        <path id="Trazado_32259" data-name="Trazado 32259" d="M479.277,1197.594c-.068-.064-.141-.125-.215-.183a3.619,3.619,0,0,0-4.932.465c-.643.775-1,1.855-1.831,2.386-1.4.894-3.137-.28-4.313-1.493a35.38,35.38,0,0,1-8.8-16.092,13.384,13.384,0,0,1,1.019-1.938,12.823,12.823,0,0,1,2.2-2.611,10.273,10.273,0,0,0,2.046,2.793,5.188,5.188,0,0,0,2,1.4,4.138,4.138,0,0,0,3.074-.135c.188-.087.393-.189.6-.261a.929.929,0,0,1,.932.048.8.8,0,0,1,.142.145,1.9,1.9,0,0,1,.263.63c.654,2.347.991,4.844,2.13,6.965a24.941,24.941,0,0,0,3.379,4.334,19.77,19.77,0,0,1,1.251,1.579A9.506,9.506,0,0,1,479.277,1197.594Z" transform="translate(-439.6 -895.3)" fill="#7986cb"/>
        <path id="Trazado_32260" data-name="Trazado 32260" d="M475.733,1213.692a5.9,5.9,0,0,1-4.071,2.29,9.648,9.648,0,0,1-4.745-.218c-.132-.044-.263-.091-.39-.143a9.178,9.178,0,0,1-3.012-2,18.714,18.714,0,0,1-3.573-5.234c-1.554-3.2-2.677-6.678-4.752-9.51a3.036,3.036,0,0,1-.652-1.212,2.779,2.779,0,0,1,.174-1.3,22.61,22.61,0,0,1,1.079-2.79,35.382,35.382,0,0,0,8.8,16.092c1.176,1.213,2.914,2.388,4.313,1.493.828-.531,1.188-1.612,1.831-2.386a3.619,3.619,0,0,1,4.932-.466c.073.058.147.12.215.184A5.714,5.714,0,0,1,475.733,1213.692Z" transform="translate(-436.202 -906.193)" fill="#584f5c"/>
        <path id="Trazado_32261" data-name="Trazado 32261" d="M495.358,1203.584c-.055.041-.111.076-.167.112-.622.4-1.247.806-1.9,1.146a3.392,3.392,0,0,1-2.605.451,3.847,3.847,0,0,1-1.331-.928,16.372,16.372,0,0,1-4.006-5.653,10.763,10.763,0,0,1-.505-6.853,6.6,6.6,0,0,0,3.241.256,6.525,6.525,0,0,0,1.5-.459,1.576,1.576,0,0,1,.158.3,3.392,3.392,0,0,1,.106.332c.654,2.348.991,4.844,2.13,6.966A24.933,24.933,0,0,0,495.358,1203.584Z" transform="translate(-457.993 -904.842)" fill="#f5f7ff"/>
        <path id="Trazado_32262" data-name="Trazado 32262" d="M489.006,1196.056l3.917,1.752.225.1-.2.166a5.7,5.7,0,0,0-1.809,2.77l-.18-.36a10.261,10.261,0,0,1,2.934,1.164h0l.577.332-.578.335a4.665,4.665,0,0,0-1.16.958c-.084.1-.165.2-.243.3a1.238,1.238,0,0,0-.173.278.363.363,0,0,0-.026.094c0,.015,0,.019-.007.014,0,.022.084.062.221.106l3,1.038.252.088-.195.177a4.9,4.9,0,0,0-1.021,1.324l-.054-.135,2.459.869-2.509-.687-.1-.028.048-.108a5.217,5.217,0,0,1,.983-1.465l.057.265-3.054-.816a2.145,2.145,0,0,1-.212-.063.6.6,0,0,1-.407-.561.926.926,0,0,1,.047-.32,1.834,1.834,0,0,1,.228-.446q.12-.184.252-.358a5.4,5.4,0,0,1,1.255-1.191v.667h0a9.752,9.752,0,0,0-2.692-1.295l-.281-.085.1-.275a6.05,6.05,0,0,1,2.123-2.837l.024.267Z" transform="translate(-461.271 -907.947)" fill="#584f5c"/>
        <path id="Trazado_32263" data-name="Trazado 32263" d="M484.852,1175.06c-.178-.764-.489-1.483-.733-2.225a5.29,5.29,0,0,1-.319-2.314,2.28,2.28,0,0,1,1.216-1.833,2.717,2.717,0,0,1,1.777.041,12.4,12.4,0,0,1,3.649,1.7,7.635,7.635,0,0,0-.937,2.119,7.916,7.916,0,0,0-.275,2.176,7.1,7.1,0,0,0-1.971-.193A7.186,7.186,0,0,0,484.852,1175.06Z" transform="translate(-457.466 -888.546)" fill="#f5f7ff"/>
        <path id="Trazado_32264" data-name="Trazado 32264" d="M463.447,947.343c-.257-.245-.5-.5-.733-.766-.12-.129-.232-.266-.347-.4s-.229-.267-.339-.405c-.223-.273-.443-.547-.656-.828s-.422-.564-.628-.851l-.139-.194.113-.224c.4-.778.811-1.543,1.26-2.287.227-.371.456-.741.7-1.1.12-.181.247-.359.372-.537s.258-.353.4-.522c-.063.216-.135.427-.208.637s-.152.417-.233.622c-.16.411-.334.815-.51,1.216-.357.8-.747,1.582-1.159,2.349l-.025-.417q.3.439.582.888c.19.3.373.6.553.911.092.152.18.307.266.464s.176.31.257.471C463.138,946.688,463.3,947.008,463.447,947.343Z" transform="translate(-440.63 -728.501)" fill="#d67f6b"/>
        <path id="Trazado_32265" data-name="Trazado 32265" d="M552.971,943.408c-.257-.245-.5-.5-.733-.766-.12-.129-.232-.266-.347-.4s-.229-.268-.339-.406c-.223-.272-.443-.547-.656-.828s-.423-.564-.628-.851l-.139-.194.113-.224c.395-.778.811-1.543,1.26-2.288.226-.371.456-.74.7-1.1.121-.182.247-.359.372-.538s.258-.352.4-.522c-.062.217-.135.427-.208.637s-.152.417-.233.622c-.16.411-.334.815-.51,1.217-.357.8-.747,1.581-1.159,2.349l-.025-.417q.3.439.582.888c.19.3.372.6.553.911.093.152.18.308.266.464s.176.31.257.471C552.662,942.753,552.825,943.073,552.971,943.408Z" transform="translate(-505.698 -725.747)" fill="#d67f6b"/>
        <path id="Trazado_32266" data-name="Trazado 32266" d="M506.443,943.051s.074.2.192.542c.061.172.126.385.189.635l.106.4c.034.141.06.29.093.445s.067.318.095.487l.075.526c.054.361.083.746.11,1.145.01.4.041.812.02,1.232,0,.42-.041.845-.067,1.271-.055.423-.1.847-.178,1.259-.059.415-.169.813-.255,1.2-.1.384-.2.754-.327,1.1l-.174.5c-.06.159-.127.309-.186.455s-.116.285-.176.415l-.179.364c-.109.23-.214.424-.307.58-.183.314-.292.488-.292.488s.056-.2.163-.552c.057-.172.114-.387.184-.63s.146-.516.222-.817.153-.625.235-.969.142-.712.225-1.086c.065-.379.131-.77.187-1.17s.1-.807.147-1.213.078-.816.089-1.22.033-.8.041-1.186c-.01-.384.006-.759-.012-1.113s-.021-.691-.044-1-.037-.6-.06-.847-.036-.475-.059-.658C506.459,943.262,506.443,943.051,506.443,943.051Z" transform="translate(-473.028 -731.108)" fill="#d67f6b"/>
        <path id="Trazado_32267" data-name="Trazado 32267" d="M528.092,775.921s.038.39.085,1.076.1,1.665.132,2.842.041,2.551.006,4.023c-.02.736-.036,1.5-.079,2.268s-.087,1.557-.14,2.338-.131,1.565-.2,2.335-.165,1.523-.254,2.253-.191,1.433-.29,2.1-.2,1.294-.306,1.872c-.2,1.158-.4,2.116-.547,2.784s-.242,1.048-.242,1.048.153-1.558.382-3.9c.11-1.166.238-2.527.376-3.985.062-.729.127-1.482.192-2.248s.126-1.544.178-2.321.117-1.558.164-2.324.095-1.522.14-2.252c.078-1.463.151-2.829.213-4Z" transform="translate(-488.344 -614.044)" fill="#d67f6b"/>
        <path id="Trazado_32268" data-name="Trazado 32268" d="M650.217,473.1a4.787,4.787,0,0,0,3.046,1.932c1.068.091,1.528-.44,3.4-1.352,1.637-.8,1.383-.256,4.659-1.739,3.138-1.421,4.707-2.131,4.658-2.7-.028-.326-.413-.458-7.275-1.592-.971-.161-.487.081-4.451.6-4.1.539-5.142.575-5.475,1.377C648.29,470.806,649.794,472.594,650.217,473.1Z" transform="translate(-577.33 -398.477)" fill="#f4a18d"/>
        <g id="Grupo_33760" data-name="Grupo 33760" transform="translate(48.493 16.18)">
          <path id="Trazado_32269" data-name="Trazado 32269" d="M657.275,393.984v75.31H742.3V400.859c-.133-.317-.262-.624-.392-.917a11.991,11.991,0,0,0-2.47-4.021,10.792,10.792,0,0,0-3.45-1.988q-3.81-1.566-7.739-2.749c-.007,0-.01,0-.016,0-2.928-.464-5.983-.88-9.162-1.218a180.511,180.511,0,0,0-61.792,4.021Z" transform="translate(-632.067 -360.463)" fill="#cfad40"/>
          <path id="Trazado_32270" data-name="Trazado 32270" d="M859.3,494.01c1.253,4.826,2.49,8.3,4.389,15.939,1.734,6.974,2.929,12.749,3.671,16.562a165.172,165.172,0,0,0-21.483-15.144,160.142,160.142,0,0,0-22.406-11,234.55,234.55,0,0,0,23.739-65.68C852.434,454.144,854.238,474.507,859.3,494.01Z" transform="translate(-752.863 -392.748)" fill="#cfad40"/>
          <path id="Trazado_32271" data-name="Trazado 32271" d="M784.518,357.22a16.01,16.01,0,0,1-.09,5.366c-.78,3.989-6.717,21.212-15.562,20.49-7.424-.606-12.614-13.507-12.576-23.222a27.72,27.72,0,0,1,1-7.22,60.707,60.707,0,0,1,16.781-2.624c3.938-.039,6.794.357,8.553,2.526A10.9,10.9,0,0,1,784.518,357.22Z" transform="translate(-704.033 -333.014)" fill="#cfad40"/>
          <path id="Trazado_32272" data-name="Trazado 32272" d="M635.493,490.036c-1.253,4.826-2.49,8.3-4.388,15.938-1.734,6.974-2.929,12.75-3.672,16.562a165.131,165.131,0,0,1,21.483-15.144,160.151,160.151,0,0,1,22.406-11,234.538,234.538,0,0,1-23.739-65.679C642.361,450.17,640.558,470.533,635.493,490.036Z" transform="translate(-610.377 -389.945)" fill="#cfad40"/>
          <path id="Trazado_32273" data-name="Trazado 32273" d="M602.7,408.107c2.555-6.639,5.826-13.085,6.874-20.184.1-.682.107-1.539-.451-1.878a1.52,1.52,0,0,0-1.1-.059,83.372,83.372,0,0,0-15.39,4.656,10.813,10.813,0,0,0-3.451,1.988,12.021,12.021,0,0,0-2.468,4.019,165.376,165.376,0,0,0-6.471,18.284c-4.273,21.762-20.089,39.554-13.782,48.388.968,1.356,2.834,3.031,6.814,3.674q-.31,2.171-.62,4.342a95.211,95.211,0,0,1,10.362,2.869,1.858,1.858,0,0,0,1.636.1,2.162,2.162,0,0,0,.758-1.136C593.553,452.355,594.666,428.973,602.7,408.107Z" transform="translate(-564.995 -358.342)" fill="#ffd54f"/>
          <path id="Trazado_32274" data-name="Trazado 32274" d="M768,362.055a12.284,12.284,0,0,0,5.154.926,11.1,11.1,0,0,0,7.015-3.778c.581.275,2.683,1.346,2.95,3.222.4,2.805-3.629,5.155-4.639,5.744a12.988,12.988,0,0,1-6.872,1.668c-4.792-.007-8.009-2.233-10.137-3.706-2.544-1.76-2.732-2.686-2.749-3.15-.054-1.453,1.4-2.952,3.608-3.891A20.925,20.925,0,0,0,768,362.055Z" transform="translate(-705.798 -339.42)" fill="#6b6b6b"/>
          <path id="Trazado_32275" data-name="Trazado 32275" d="M637.936,358.748a44.807,44.807,0,0,0,9.227,8.088,37.571,37.571,0,0,0-3.855,4.428c-8.815,11.877-8.709,26.323-8.819,32.728-.246,14.341-2.356,33.735-7.434,61.794,10.81-24.4,15.157-42.557,17.1-54.868,1.1-7.008,2.663-16.331,7.728-26.247,1.189-2.327,5.381-10.164,10.8-19.426.9-1.543,1.655-2.814,2.168-3.674a10.568,10.568,0,0,1,1.1-6.409c2.454-4.215,8.124-4.8,8.075-5-.124-.518-12.886,2.965-12.886,2.965C655.695,354.608,647.785,356.646,637.936,358.748Z" transform="translate(-610.102 -333.083)" fill="#ffd54f"/>
          <path id="Trazado_32276" data-name="Trazado 32276" d="M659.289,400.479c.572.942,1.151,1.88,1.713,2.829l1.7,2.839.1.163-.167.1-.835.507-.821.532-.808.553-.794.575-.778.6-.762.622-.745.645-.729.665-.712.685-.694.706-.674.727-.655.747-.635.766-.616.783-.6.8-.574.818-.222-.694a28.675,28.675,0,0,1,7.12,3.1l.345.208-.151.409-.705,1.914-.632,1.944-.571,1.968-.508,1.989-.449,2.007-.393,2.022-.35,2.033-.307,2.043-.266,2.051-.234,2.057-.211,2.062-.185,2.066-.168,2.069-.159,2.071-.3,4.146-.379-.016.172-3.695c.03-.616.054-1.231.09-1.847l.1-1.847.015,1.85c.008.616,0,1.233,0,1.85v3.7l-.379-.016.061-2.08.079-2.08.09-2.08.112-2.08.136-2.08.162-2.079.2-2.076.239-2.073.28-2.069.328-2.062.388-2.051.445-2.04.507-2.024.576-2,.654-1.978.728-1.948.194.617q-.813-.5-1.654-.939c-.56-.3-1.13-.568-1.7-.829a28.621,28.621,0,0,0-3.532-1.325l-.6-.18.373-.515.6-.828.623-.809.645-.788.668-.766.687-.744.706-.723.725-.7.743-.678.761-.653.779-.627.8-.6.81-.578.825-.553.84-.524.855-.494.867-.467-.069.265-1.565-2.927C660.312,402.443,659.8,401.459,659.289,400.479Z" transform="translate(-626.901 -368.616)" fill="#dcaf1d"/>
          <path id="Trazado_32277" data-name="Trazado 32277" d="M597.7,608.522l-.24,1.787-.219,1.786-.191,1.787q-.089.893-.159,1.788t-.134,1.789l-.052.9-.045.9q-.043.9-.069,1.791l-.019.9-.012.9-.252-.443a1.293,1.293,0,0,0,.794.156.76.76,0,0,0,.088-.02c.014,0,.028-.01.042-.014l.021-.007.01,0h0l-.025.011h0l0,0,.008,0,.125-.06c.026-.017.039-.03.06-.042a1.027,1.027,0,0,0,.144-.125,1.3,1.3,0,0,0,.134-.159,1.583,1.583,0,0,0,.113-.188,1.854,1.854,0,0,0,.093-.207,2.117,2.117,0,0,0,.068-.224c.023-.075.032-.156.048-.234s.021-.16.022-.242a2.182,2.182,0,0,0,0-.246,3.128,3.128,0,0,0-.056-.494l.909-.091L598.8,623.2l-.784-.331,2.445-2.981.5-.6.175.766c.3,1.314.616,2.624.9,3.943l-.216-.217q1.384.355,2.764.736l1.379.385c.46.127.917.269,1.376.4-.471-.07-.943-.134-1.412-.21l-1.409-.227q-1.408-.233-2.811-.49l-.16-.029-.056-.188c-.384-1.289-.739-2.587-1.108-3.881l.671.161-2.359,3.061-.825,1.071.042-1.4.089-3.007.124-4.189.785,4.1a4.166,4.166,0,0,1,.083.673,3.2,3.2,0,0,1,0,.343c0,.115-.022.229-.035.344a3.044,3.044,0,0,1-.512,1.3,2.269,2.269,0,0,1-.235.275,1.869,1.869,0,0,1-.285.237c-.057.037-.121.077-.175.106l-.125.059-.042.019-.022.007-.044.015c-.03.01-.058.021-.088.028a1.667,1.667,0,0,1-.18.039,2.118,2.118,0,0,1-1.323-.253l-.259-.134.007-.308c.013-.605.045-1.209.076-1.813s.075-1.207.122-1.81.112-1.2.176-1.8.142-1.2.222-1.8.18-1.193.279-1.787l.156-.89.173-.886.183-.883.2-.879C597.39,609.68,597.543,609.1,597.7,608.522Z" transform="translate(-587.283 -515.371)" fill="#dcaf1d"/>
          <path id="Trazado_32278" data-name="Trazado 32278" d="M883.266,391.9c1.047,7.1,4.317,13.546,6.872,20.183,7.122,18.505,8.8,38.985,14.769,57.9.762,2.418,1.594,4.809,2.517,7.169a2.145,2.145,0,0,0,.756,1.136,1.868,1.868,0,0,0,1.638-.1,94.774,94.774,0,0,1,10.36-2.872q-.308-2.169-.62-4.342c3.979-.641,5.848-2.319,6.815-3.673,6.306-8.837-9.51-26.626-13.782-48.388a165.19,165.19,0,0,0-6.078-17.366c-.133-.317-.263-.624-.392-.917a11.994,11.994,0,0,0-2.47-4.021,10.8,10.8,0,0,0-3.45-1.988q-3.81-1.566-7.739-2.749c-.006,0-.009,0-.016,0q-3.776-1.136-7.634-1.9a1.534,1.534,0,0,0-1.1.062,1,1,0,0,0-.43.624A3.2,3.2,0,0,0,883.266,391.9Z" transform="translate(-796.284 -361.149)" fill="#ffd54f"/>
          <path id="Trazado_32279" data-name="Trazado 32279" d="M837.865,358.134a44.8,44.8,0,0,1-9.227,8.088,37.626,37.626,0,0,1,3.855,4.428c8.454,11.39,8.819,32.728,8.819,32.728.232,13.846,2.468,33.095,7.41,61.056-2.223-5.519-7.925-19.8-11.851-31.228-.653-1.9-1.523-4.449-2.4-7.826-.879-3.4-1.6-7.283-2.824-15.076-1.1-7.008-2.664-16.331-7.729-26.247-1.188-2.327-5.381-10.164-10.795-19.427-.9-1.542-1.655-2.813-2.168-3.674a10.5,10.5,0,0,0-.143-6.772c-1.764-4.321-7.135-6.891-13.1-5.626,3.987-1.105,9.508-1.823,14.6.927a18.959,18.959,0,0,1,4.124,3.15C819.877,355.728,826.011,358.755,837.865,358.134Z" transform="translate(-734.143 -331.299)" fill="#ffd54f"/>
          <path id="Trazado_32280" data-name="Trazado 32280" d="M918.679,404.453c-.515.979-1.024,1.964-1.549,2.937l-1.565,2.926-.069-.265.867.467.855.494.84.524.825.552.81.578.8.6.779.627.761.653.742.678.725.7.706.723.688.744.667.765.645.788.623.809.6.829.374.515-.6.179a28.673,28.673,0,0,0-3.532,1.325c-.575.261-1.145.534-1.7.829s-1.112.608-1.654.939l.195-.617.729,1.948.654,1.978.576,2,.507,2.024.445,2.039.388,2.052.328,2.062.28,2.068.239,2.073.2,2.076.162,2.079.136,2.079.112,2.08.09,2.08.079,2.08.061,2.08-.379.017v-3.7c0-.617,0-1.233,0-1.85l.014-1.85.1,1.847c.036.616.059,1.232.089,1.847l.172,3.695-.38.016-.3-4.146-.159-2.071-.168-2.069-.185-2.066-.211-2.062-.234-2.057-.266-2.051-.307-2.043-.35-2.033-.393-2.022-.448-2.007-.508-1.989-.57-1.968-.632-1.944-.705-1.914-.151-.409.345-.208a28.708,28.708,0,0,1,7.12-3.1l-.222.694-.575-.818-.6-.8-.616-.783-.635-.766-.655-.746-.674-.727-.694-.706-.712-.685-.729-.665-.745-.645-.761-.622-.778-.6-.794-.576-.808-.554-.821-.532-.835-.507-.167-.1.1-.163,1.7-2.839C917.528,406.333,918.107,405.4,918.679,404.453Z" transform="translate(-819.512 -371.42)" fill="#dcaf1d"/>
          <path id="Trazado_32281" data-name="Trazado 32281" d="M982.811,614.978c.155.579.308,1.158.444,1.743l.2.878.183.883.173.886.156.89q.148.892.279,1.787t.222,1.8c.064.6.13,1.2.176,1.8s.087,1.206.122,1.81.062,1.208.076,1.813l.007.309-.259.134a2.12,2.12,0,0,1-1.324.253,1.617,1.617,0,0,1-.18-.039c-.03-.008-.059-.019-.088-.028l-.044-.015-.022-.008-.042-.019-.125-.059c-.054-.03-.118-.069-.175-.106a1.915,1.915,0,0,1-.285-.238,2.315,2.315,0,0,1-.235-.274,3.043,3.043,0,0,1-.512-1.3c-.013-.114-.032-.229-.035-.344a3.182,3.182,0,0,1,0-.343,4.182,4.182,0,0,1,.083-.673l.785-4.1.124,4.189.089,3.007.041,1.4-.825-1.071-2.359-3.06.671-.161c-.37,1.294-.724,2.592-1.108,3.881l-.056.188-.16.029q-1.4.257-2.811.489l-1.409.227c-.469.077-.941.139-1.412.21.458-.134.916-.275,1.376-.4l1.379-.385q1.38-.379,2.764-.735l-.215.217c.286-1.318.6-2.628.9-3.942l.175-.766.5.6,2.445,2.981-.784.331-.118-3.006.909.09a3.075,3.075,0,0,0-.056.494,2.161,2.161,0,0,0,0,.245c0,.082.015.161.022.242s.025.159.048.234a2.038,2.038,0,0,0,.068.224,1.836,1.836,0,0,0,.092.208,1.7,1.7,0,0,0,.113.188,1.313,1.313,0,0,0,.134.159.99.99,0,0,0,.144.125c.021.012.035.025.06.042l.125.06.008,0,0,0h0l-.025-.011h0l.011,0,.021.008c.014,0,.028.011.042.014a.758.758,0,0,0,.088.02,1.289,1.289,0,0,0,.794-.156l-.251.443-.012-.9-.019-.9q-.026-.9-.069-1.791l-.046-.9-.052-.895q-.058-.9-.134-1.789t-.159-1.789l-.191-1.787-.219-1.786Z" transform="translate(-861.671 -519.925)" fill="#dcaf1d"/>
          <path id="Trazado_32282" data-name="Trazado 32282" d="M639.568,638.873s-.013.2-.035.538-.063.83-.107,1.416-.108,1.267-.171,2-.138,1.509-.209,2.288-.151,1.557-.222,2.286-.145,1.411-.205,1.994l-.16,1.41-.066.534s0-.2.006-.539.016-.833.042-1.421.061-1.272.111-2.005c.027-.366.05-.745.084-1.129l.1-1.164c.077-.78.157-1.558.246-2.287s.179-1.408.266-1.988.169-1.063.223-1.4Z" transform="translate(-618.343 -536.78)" fill="#72947b"/>
          <path id="Trazado_32283" data-name="Trazado 32283" d="M608.193,448.845s-.01.154-.029.442-.042.712-.095,1.249-.112,1.191-.2,1.938-.2,1.589-.353,2.5-.319,1.9-.541,2.94c-.106.52-.221,1.052-.347,1.594s-.263,1.094-.406,1.654c-.29,1.119-.61,2.269-.974,3.425s-.762,2.319-1.188,3.471c-.218.574-.434,1.148-.668,1.712l-.344.846-.355.834c-.472,1.106-.983,2.181-1.49,3.2s-1.025,2-1.538,2.908-1.013,1.758-1.5,2.526-.938,1.462-1.35,2.07-.787,1.126-1.1,1.55-.563.75-.735.972l-.263.341.847-1.429.953-1.649c.36-.641.764-1.365,1.193-2.162s.878-1.668,1.346-2.593.933-1.916,1.413-2.941.933-2.1,1.4-3.2l.344-.829.332-.839c.227-.559.434-1.128.646-1.7.431-1.132.827-2.28,1.2-3.414l.54-1.694c.167-.562.347-1.113.5-1.664s.309-1.089.453-1.62.285-1.05.413-1.559c.258-1.016.488-1.982.691-2.876s.376-1.719.524-2.451.274-1.372.369-1.9Z" transform="translate(-586.602 -402.734)" fill="#dcaf1d"/>
          <path id="Trazado_32284" data-name="Trazado 32284" d="M981.081,487.907c.035-.572.08-1.142.127-1.712l.226.049c-.09.6-.162,1.19-.193,1.788s-.034,1.195-.005,1.792.081,1.19.155,1.781.172,1.179.288,1.763.237,1.167.385,1.745c.071.287.149.583.227.859l.242.872c.08.292.172.568.258.852s.175.565.274.847c.186.565.393,1.121.593,1.681.1.279.214.553.321.83s.219.551.337.823c.228.547.474,1.085.714,1.627s.5,1.072.778,1.593.545,1.049.826,1.568.582,1.027.89,1.53.624,1,.937,1.5.652.985.993,1.466.689.958,1.032,1.444c-.413-.414-.829-.83-1.218-1.273s-.769-.9-1.15-1.349c-.365-.468-.728-.939-1.071-1.427s-.675-.986-1-1.486c-.313-.511-.637-1.017-.925-1.546s-.572-1.061-.85-1.6l-.4-.816c-.132-.273-.247-.554-.371-.831s-.244-.555-.355-.839-.231-.562-.339-.847l-.317-.856c-.1-.286-.192-.579-.288-.868s-.188-.581-.272-.877-.179-.591-.255-.883l-.229-.877c-.075-.308-.141-.6-.206-.9-.132-.6-.239-1.205-.336-1.813s-.152-1.225-.2-1.84a18.386,18.386,0,0,1-.039-1.854,16.711,16.711,0,0,1,.158-1.845,14.729,14.729,0,0,1,.389-1.8l.226.048C981.323,486.791,981.206,487.35,981.081,487.907Z" transform="translate(-867.107 -429.073)" fill="#dcaf1d"/>
          <path id="Trazado_32285" data-name="Trazado 32285" d="M791.995,317.255l.011-.394c.005-.254.013-.627.022-1.1s.04-1.042.075-1.689.094-1.371.181-2.151.2-1.616.364-2.485c.087-.434.167-.879.276-1.327.053-.219.109-.461.164-.666.062-.234.122-.489.188-.713.13-.439.265-.9.418-1.375l.485-1.444a15,15,0,0,0,.851-3.385,7.583,7.583,0,0,0-.084-1.98,7.691,7.691,0,0,0-.233-.952c-.046-.133-.073-.235-.134-.392l-.179-.459a9.427,9.427,0,0,0-1.91-2.9,6.22,6.22,0,0,0-1.359-1.048,3.5,3.5,0,0,0-1.713-.472l-.228,0c-.076.009-.153.023-.228.036l-.225.043-.055.012-.027.006-.076.02-.009,0-.073.03-.146.059-.078.033-.11.054a2.575,2.575,0,0,0-.4.236,3.925,3.925,0,0,0-1.029,1.1,6.112,6.112,0,0,0-.868,2.271,7.467,7.467,0,0,0-.1,1.794,4.968,4.968,0,0,0,.061.649c.023.187.051.344.079.47l.085.384.06-.388a4.554,4.554,0,0,1,.081-.457c.036-.179.075-.381.134-.6a8.324,8.324,0,0,1,.532-1.52,5.279,5.279,0,0,1,1.056-1.576,2.307,2.307,0,0,1,.738-.523c.069-.039.1-.024.146-.048l.031-.013c.013-.005.047-.011.07-.016l.153-.033.077-.017.01,0c.061-.016-.073.019-.057.016h.011l.023,0,.089,0h.088l.091.024a3.052,3.052,0,0,1,1.568,1.162,9.2,9.2,0,0,1,.7,1.053,10.939,10.939,0,0,1,.555,1.2l.1.279c.033.089.071.244.106.363l.027.1.014.048c0,.013-.022-.073-.01-.032l0,.01,0,.02.031.154c.019.1.053.2.062.306a4.713,4.713,0,0,1,.033,1.225,7.522,7.522,0,0,1-.245,1.335c-.122.467-.262.965-.41,1.47s-.292,1.024-.421,1.545-.246,1.043-.342,1.582c-.049.264-.08.5-.121.747-.047.277-.071.518-.1.775-.054.506-.093,1-.111,1.485a22.158,22.158,0,0,0,.061,2.708,21.747,21.747,0,0,0,.309,2.245c.125.66.274,1.223.4,1.685s.25.816.331,1.056Z" transform="translate(-725.443 -292.322)" fill="#6b6b6b"/>
          <g id="Grupo_33758" data-name="Grupo 33758" transform="translate(77.348 71.768)" opacity="0.5">
            <path id="Trazado_32286" data-name="Trazado 32286" d="M859.492,535.938l-.6,2.334-.51,2.347-.434,2.366-.368,2.378-.328,2.386-.291,2.394-.566,4.8-.3,2.4-.34,2.4-.387,2.4-.453,2.391-.548,2.373-.646,2.351-.761,2.316-.9,2.263-1.185,2.98-.034-3.265-.023-2.2-.047-2.2c-.044-1.466-.1-2.931-.153-4.4l-.1-2.2-.128-2.2-.144-2.2-.161-2.195-.185-2.193-.2-2.192-.218-2.191-.239-2.189-.252-2.188-.271-2.187-.581-4.372.478,2.149.44,2.159.408,2.167.379,2.174.346,2.181.318,2.186.29,2.191.258,2.2.234,2.2.2,2.2.172,2.207.148,2.209.122,2.211.086,2.214.062,2.215.038,2.215-1.219-.285.864-2.185.752-2.238.644-2.282.551-2.317.486-2.34.428-2.359.383-2.373.367-2.381L856.1,550l.4-2.387.437-2.381.5-2.367.579-2.347.676-2.318Z" transform="translate(-848.14 -535.938)" fill="#516b59"/>
          </g>
          <g id="Grupo_33759" data-name="Grupo 33759" transform="translate(50.639 37.195)" opacity="0.5">
            <path id="Trazado_32287" data-name="Trazado 32287" d="M754.951,418.58s-.018.181-.052.521-.078.839-.151,1.471c-.138,1.264-.336,3.07-.573,5.237s-.51,4.688-.8,7.392l-.428,4.169c-.155,1.418-.286,2.862-.425,4.305s-.285,2.885-.4,4.308l-.374,4.175c-.227,2.712-.439,5.243-.621,7.413s-.333,3.984-.439,5.252c-.05.635-.1,1.133-.134,1.473l-.049.521s-.007-.182-.021-.523-.038-.842-.053-1.479-.039-1.412-.043-2.3c0-.444-.009-.917-.013-1.415s.008-1.022.012-1.568.012-1.116.019-1.705.033-1.2.05-1.824c.033-1.252.088-2.572.159-3.936s.143-2.775.267-4.2c.1-1.431.237-2.881.362-4.333.155-1.448.3-2.9.472-4.32.154-1.425.364-2.82.541-4.172s.389-2.654.594-3.887q.155-.924.3-1.8l.306-1.673c.1-.536.19-1.05.287-1.537s.193-.948.282-1.382c.173-.869.339-1.622.479-2.241s.257-1.1.333-1.436Z" transform="translate(-750.367 -418.58)" fill="#516b59"/>
          </g>
        </g>
        <path id="Trazado_32288" data-name="Trazado 32288" d="M784.883,304.139a7.942,7.942,0,0,0,2.712,1.248,1.286,1.286,0,0,0,.818-.057c.535-.271.629-1.034.651-1.671q.1-2.829.193-5.658a6.394,6.394,0,0,0-6.624-.783,2.488,2.488,0,0,0-.844.59,2.272,2.272,0,0,0-.487,1.325,4.34,4.34,0,0,0,1.1,3.023A10.394,10.394,0,0,0,784.883,304.139Z" transform="translate(-673.713 -279.181)" fill="#f4a18d"/>
        <path id="Trazado_32289" data-name="Trazado 32289" d="M534.811,497.219c-9.425,8.582-10.878,9.349-12.445,8.879-2.476-.742-4.292-4.287-4.021-7.227.16-1.74,1.079-3.568,5.553-7.02,9.2-7.1,14.487-6.442,20.87-13.215,1.641-1.742,1.707-2.226,3.167-3.4,4.524-3.633,10.041-3.922,14.1-3.559a3.87,3.87,0,0,1-.8,2.621c-1.019,1.2-3.741.71-4.281.6a.677.677,0,0,1-.094-.019,25.374,25.374,0,0,1,7.921.627,23.854,23.854,0,0,1,4.479,1.546c-.738,2.752-1.938,3.8-2.687,4.251-3.3,1.993-10.013-.185-10.607-.262-.15-.019-.3-.035-.3-.035l-.149-.016a11.806,11.806,0,0,0-4.623.119c-3.169.936-4.366,3.938-6.7,7.227C543.518,489.291,540.615,491.934,534.811,497.219Z" transform="translate(-482.576 -401.122)" fill="#f4a18d"/>
        <g id="Grupo_33761" data-name="Grupo 33761" transform="translate(9.263 147.178)">
          <path id="Trazado_32290" data-name="Trazado 32290" d="M422.117,735.358l-.729-.434c2.276-4.442,7.281-6.182,11.08-6.859,4.221-.753,10.361-.99,15.639,2.156l-.4.785c-5.068-3.021-11.009-2.786-15.1-2.056C428.988,729.6,424.232,731.231,422.117,735.358Z" transform="translate(-421.389 -727.587)" fill="#9fa8da"/>
        </g>
        <path id="Trazado_32291" data-name="Trazado 32291" d="M558.529,728.879l-.967-.157-1.108-.156c-.428-.054-.911-.1-1.437-.15s-1.1-.073-1.7-.09-1.237-.007-1.892.02-1.329.094-2.012.169c-.341.042-.685.087-1.027.148l-.258.042-.123.022-.13.027-.523.1c-.683.141-1.363.3-2.032.492s-1.323.38-1.953.591c-1.259.417-2.423.86-3.408,1.27l-.092.039-.046.02-.03.013a.261.261,0,0,1-.209,0,.274.274,0,0,1-.094-.067.37.37,0,0,1-.027-.034c0-.092-.02.164-.01-.212-.005.024.046-.083.1-.112a.273.273,0,0,1,.058-.03l.012,0,.024-.008.092-.032.357-.122.66-.218,1.076-.344c.6-.185.943-.283.943-.283s-.32.169-.885.45l-1.022.5-.63.3-.342.16-.087.041-.021.01-.011.005a.115.115,0,0,0,.035-.021c.043-.023.078-.124.058-.093.009-.375,0-.122,0-.216a.214.214,0,0,0-.016-.039.2.2,0,0,0-.072-.079.18.18,0,0,0-.164-.018c-.008,0,.01-.006.014-.008l.044-.024.089-.049c.48-.262,1.005-.53,1.572-.787s1.166-.527,1.8-.762,1.291-.484,1.975-.679,1.384-.383,2.093-.537l.524-.1.131-.024.139-.023.267-.04c.355-.058.711-.1,1.064-.137a19.172,19.172,0,0,1,2.081-.1,18.359,18.359,0,0,1,1.941.1c.615.056,1.193.15,1.722.247s1.011.211,1.434.323.788.223,1.087.319.531.182.689.241Z" transform="translate(-497.935 -580.425)" fill="#9fa8da"/>
      </g>
      <g id="Grupo_33766" data-name="Grupo 33766" transform="translate(96.94 112.625)">
        <g id="Grupo_33764" data-name="Grupo 33764" transform="translate(0)">
          <path id="Trazado_32292" data-name="Trazado 32292" d="M1215.38,986.1c-3.918-3.344-9.08-1.763-23.851,1.147-9.963,1.963-17.936,3.277-22.636,4.016a126.633,126.633,0,0,0-13.456,16.355,166.765,166.765,0,0,0-8.792,14.671c-5.376,9.624-10.345,19.426-15.3,29.208l7.542,2.382c1.314-1.323,3.373-3.415,5.854-6.024,8.471-8.908,13.986-14.708,19.318-22.589a105.815,105.815,0,0,0,7.9-13.855,102.129,102.129,0,0,0,19.9-.6c12.675-1.63,23.642-3.04,26.7-10.48C1220.451,995.741,1219.073,989.254,1215.38,986.1Z" transform="translate(-1089.81 -869.896)" fill="#f4a18d"/>
          <path id="Trazado_32293" data-name="Trazado 32293" d="M1122.667,1054.334a33.861,33.861,0,0,0,5-5.769,120.27,120.27,0,0,0,19.554-3.845c6.257-1.786,32.366-9.235,36.38-22.691.4-1.343,1.6-5.35-.909-8.076-2.141-2.33-5.951-2.6-7.276-2.692-19.8-1.4-49.113,20-49.113,20-15,10.95-39.031,24.063-78.1,32.357a6.473,6.473,0,0,1,1.968,2.22,5.308,5.308,0,0,1,.624,2.724,200,200,0,0,0,27.6-.724C1095.751,1066.168,1111.7,1064.451,1122.667,1054.334Z" transform="translate(-1029.384 -889.287)" fill="#f4a18d"/>
          <path id="Trazado_32294" data-name="Trazado 32294" d="M1288.5,846.073a43.26,43.26,0,0,0,15.8,7.46c7.845,1.889,16.706,1.778,22.839,7.155a8.685,8.685,0,0,1,3.155,5.2c.266,2.074-.852,4.422-2.817,4.959a6.519,6.519,0,0,1-3.71-.453A144.865,144.865,0,0,1,1287.8,852.56,21.681,21.681,0,0,1,1288.5,846.073Z" transform="translate(-1203.51 -770.579)" fill="#f4a18d"/>
          <path id="Trazado_32295" data-name="Trazado 32295" d="M1410.573,797.324a7.976,7.976,0,0,1-.766,2.32,3.407,3.407,0,0,1-.521.7,6.019,6.019,0,0,1-2.967,1.368l-1.886.475-4.43,1.115q.458-4.434.852-8.874.115-1.288.225-2.577c.007-.084.014-.166.021-.25.018-.2.034-.4.051-.6q.475-5.68.85-11.368.419-6.317.71-12.643.17-3.67.3-7.34.826,1.206,1.579,2.461a49.161,49.161,0,0,1,4.012,8.433c.066.18.131.361.194.543a49.425,49.425,0,0,1,2.637,12.347q.118,1.443.15,2.891A49.044,49.044,0,0,1,1410.573,797.324Z" transform="translate(-1285.079 -708.453)" fill="#f4a18d"/>
          <path id="Trazado_32296" data-name="Trazado 32296" d="M1408.416,740.663c-1.246,3.909-.334,8.178.852,12.107a179.027,179.027,0,0,0,7.829,20,70.39,70.39,0,0,1,2.581-22.409c1.3-4.582,3.086-9.205,2.647-13.957a23.637,23.637,0,0,0-6.319-1.117,7.286,7.286,0,0,0-7.59,5.379Z" transform="translate(-1290.76 -690.932)" fill="#ba68c8"/>
          <path id="Trazado_32297" data-name="Trazado 32297" d="M1428.863,696.214l-11.628,2.7a21.828,21.828,0,0,1,3.766,6.741,22.313,22.313,0,0,1,1.147,8.931c-.136.178-2.209,2.976-1.079,5.925a4.957,4.957,0,0,0,3.334,3.119c2.938.513,6.835-3.918,9.4-11.229Z" transform="translate(-1297.604 -662.845)" fill="#f4a18d"/>
          <path id="Trazado_32298" data-name="Trazado 32298" d="M1396.276,593.4a23.076,23.076,0,0,0-.176,2.811c.051,3.427,2.929,7.868,3.169,8.233,1.3-6.574,2.523-8.895,3.433-9.738a4.277,4.277,0,0,0,1.265-1.892,4.927,4.927,0,0,0,.084-2.468c-.318-.1-6.07-1.87-7.247.344A9.077,9.077,0,0,0,1396.276,593.4Z" transform="translate(-1282.241 -586.187)" fill="#ba68c8"/>
          <path id="Trazado_32299" data-name="Trazado 32299" d="M1290.559,813.454v5.853h-2.244v-6.585a5.152,5.152,0,0,1,1.224.253c.087.029.173.061.257.1A5.032,5.032,0,0,1,1290.559,813.454Z" transform="translate(-1203.901 -746.603)" fill="#323638"/>
          <path id="Trazado_32300" data-name="Trazado 32300" d="M1287.769,813.024v6.361h-2.245v-6.717a5.194,5.194,0,0,1,1.987.26C1287.6,812.957,1287.683,812.989,1287.769,813.024Z" transform="translate(-1201.873 -746.557)" fill="#595f63"/>
          <path id="Trazado_32301" data-name="Trazado 32301" d="M1275.759,835v1.377h-6.886c-.007-.056-.013-.113-.019-.17-.034-.329-.077-.743-.1-1.206Z" transform="translate(-1189.685 -762.617)" fill="#595f63"/>
          <path id="Trazado_32302" data-name="Trazado 32302" d="M1413.351,616.788a38.366,38.366,0,0,1-1.859,7.028c-.188.5-.369.967-.547,1.407a12.374,12.374,0,0,1-1.951,3.524,6.135,6.135,0,0,1-1.3,1.143c-.873.568-2.13.811-4.632,1.231l-.217.037c-5.4.885-6.25.31-6.541-.234a3.388,3.388,0,0,1-.263-1.3c-.1-1.428.458-2.12.087-2.611-.172-.227-.751-.688-.911-.873a.207.207,0,0,1-.039-.059c.024-.01.047-.021.071-.033q.048-.137.092-.275c.032-.1.061-.193.089-.291a3.2,3.2,0,0,0,.118-1.638,2.778,2.778,0,0,0-.664-1.2l-.032,0c-.006-.017-.013-.034-.019-.051,0,0,0,0,0,0-.019-.054-.037-.111-.052-.172a1.978,1.978,0,0,1-.042-.22c-.006-.036-.011-.074-.014-.116,0,0,0-.045-.006-.091-.006-.146.2-.94.249-1.393a4.149,4.149,0,0,0,.016-.415,4.294,4.294,0,0,0-.552-1.847,3.914,3.914,0,0,1-.152-.361c-.236-.692.058-1.318.792-3.012.307-.707.743-1.717,1.338-3.113.159-.373.329-.773.511-1.2a20.934,20.934,0,0,1-.377-3.145,20.051,20.051,0,0,1,.2-3.871c.078-.517.174-1.007.28-1.469.1-.418.2-.811.312-1.183a10.037,10.037,0,0,1,2.083-2.116,8.679,8.679,0,0,1,3.352-1.6,7.255,7.255,0,0,1,1.853-.164,8.172,8.172,0,0,1,4.693,1.819,11.991,11.991,0,0,1,3.59,5.705,19.307,19.307,0,0,1,1,4.351A26.251,26.251,0,0,1,1413.351,616.788Z" transform="translate(-1280.86 -591.581)" fill="#f4a18d"/>
          <path id="Trazado_32303" data-name="Trazado 32303" d="M1479.648,725.975" transform="translate(-1342.967 -684.24)" fill="none"/>
          <path id="Trazado_32304" data-name="Trazado 32304" d="M1434.848,800.027a.019.019,0,0,0,0,.006c-.04.264-.081.527-.126.786-.023.136-.046.272-.07.407-.213,1.189-.463,2.325-.742,3.405a47.035,47.035,0,0,1-1.446,4.63,48.028,48.028,0,0,1-2.3,5.224,65.46,65.46,0,0,0-11.112-4.988c-1.068-.363-2.178-.711-3.329-1.036q-1-.281-1.977-.523c-.415-.1-.825-.2-1.233-.293q-.553-.126-1.1-.24a64.644,64.644,0,0,0-14.426-1.354q.358-.689.69-1.358c.01-.021.021-.041.031-.062q.876-1.759,1.586-3.372a.233.233,0,0,1,.014-.033c.793-1.8,1.442-3.471,1.965-5.019q.191-.57.362-1.115.127-.416.245-.817c.324-1.12.578-2.171.771-3.155a25.286,25.286,0,0,0,.5-4.573,15.894,15.894,0,0,0-.646-4.9c-.126-.416-.251-.821-.372-1.217-.916-2.987-1.675-5.42-2.282-7.334-.371-1.171-.687-2.146-.946-2.935-.036-.11-.072-.214-.1-.316-.095-.284-.18-.539-.259-.767-.259-.761-.43-1.223-.516-1.4a7.823,7.823,0,0,1-1.177-3.832,5.914,5.914,0,0,1,1.181-3.027,21.29,21.29,0,0,0,1.672-2.94,35.734,35.734,0,0,0,2.415-6.741,24.877,24.877,0,0,0,.794-6.119,22.945,22.945,0,0,0-.622-4.661,5.974,5.974,0,0,1,.319-4.072,8.551,8.551,0,0,1,3.638-3.743,7.632,7.632,0,0,0,.919,1.063,5.91,5.91,0,0,0,3.628,1.744,5.729,5.729,0,0,0,3.605-1.04,7.123,7.123,0,0,0,.607-.462,8.171,8.171,0,0,0,2.266-3.191,9.332,9.332,0,0,0,.407-1.27,19.507,19.507,0,0,1,10.209,3.376h0c2.112,1.471,3.788,2.638,4.011,4.5.2,1.643-.854,2.827-2.3,4.428a24.511,24.511,0,0,0-3.9,5.329,21.157,21.157,0,0,0-2.188,7.13,30.335,30.335,0,0,1,8.549,10.142c2.077,4.063,2.667,8.64,2.938,15.927.07,1.88.12,3.94.168,6.218h0q.025,1.272.053,2.637c0,.031,0,.063,0,.095q.009.434.016.844A58.794,58.794,0,0,1,1434.848,800.027Z" transform="translate(-1282.782 -686.691)" fill="#895cd8"/>
          <path id="Trazado_32305" data-name="Trazado 32305" d="M1498.53,791.2c-.044.115-.09.229-.139.339a8.166,8.166,0,0,1-4.608,3.95,12.906,12.906,0,0,1-1.494.486c-.011-.017-.021-.035-.032-.053-.425-.7-.893-1.49-1.4-2.362-.87-1.51-1.839-3.269-2.854-5.244q-.341-.661-.668-1.32a135.006,135.006,0,0,1-7.214-17.706c-3.466-10.254-5.862-17.348-6.494-22.011q-.073-.527-.112-1.013a7.273,7.273,0,0,1,.682-4.439,3.648,3.648,0,0,1,.469-.608c1.989-2.08,5.778-2.4,8.911-1.339h0a9.418,9.418,0,0,1,2.606,1.338c2.953,2.2,2.784,5.278,4.713,15.514q.2,1.078.439,2.266s1.417,7.1,4.244,17.465c1.111,4.074,2.2,5.773,2.939,9.74C1498.978,788.638,1499.009,789.921,1498.53,791.2Z" transform="translate(-1338.473 -693.813)" fill="#f4a18d"/>
          <path id="Trazado_32306" data-name="Trazado 32306" d="M1408.032,580c-2.947,1.823-6.294,5.339-5.561,7.43.313.9,1.09.729,2.537,2.109,2.18,2.078,1.488,3.523,3.415,5.823,2.082,2.486,3.878,1.978,4.488,3.915.49,1.555-.687,1.821-.833,4.7-.13,2.559.678,4.89,1.559,7.508a39.078,39.078,0,0,0,2.438,5.481c4.281,8.8,3.069,12.456,6.012,14.076,2.924,1.609,4.625-1.9,8.387-.751,4.648,1.421,7.007,8.7,11.536,23.193.385,1.233.689,2.251.886,2.919a55.118,55.118,0,0,0,4.359-12.306c1.736-7.7,3.784-16.781-.637-21.867-1.618-1.862-3.969-3.033-8.273-7.783a11.142,11.142,0,0,1-2.245-3.283c-1.212-2.852-.623-5.229-.473-7.9a29.172,29.172,0,0,0-1.447-10.012c-.851-3.127-2.682-10.155-8.977-13.654A17.273,17.273,0,0,0,1408.032,580Z" transform="translate(-1286.798 -577.503)" fill="#ba68c8"/>
          <path id="Trazado_32307" data-name="Trazado 32307" d="M1274.585,823.4c-1.109,2.132,3.844,6.456,3.282,7.13-.144.174-.63.074-1.289-.229h0a14.35,14.35,0,0,1-3.452-2.4,12.4,12.4,0,0,1-4.29-7.587c-.007-.056-.013-.113-.019-.17-.035-.329-.077-.743-.1-1.206-.075-1.594.1-3.778,1.734-5.164a4.814,4.814,0,0,1,2.847-1.105,5.09,5.09,0,0,1,.762.007,5.141,5.141,0,0,1,1.224.253c.088.029.172.061.258.1a5.049,5.049,0,0,1,.762.383,5.477,5.477,0,0,1,2.658,5.17,5.414,5.414,0,0,1-1.549,2.817,5.2,5.2,0,0,1-1.912,1.287A1.626,1.626,0,0,0,1274.585,823.4Z" transform="translate(-1189.648 -746.557)" fill="#f4a18d"/>
          <path id="Trazado_32308" data-name="Trazado 32308" d="M1317.082,960.636c-.4-1.5-1.617-6-4.184-8.781-5.416-5.872-15.91-3.091-16.616-2.894a16.974,16.974,0,0,0-2.6-11.918,12.258,12.258,0,0,0-3.073-3.162s-5.582-3.9-17.273-.2a1.953,1.953,0,0,0-.248.1c-.006-.026,2.718-1.219,19.164-4.246,10.412-1.917,13.078-2.109,15.961-4.589,4.772-4.1,5.809-10.753,6.025-15.053a90.825,90.825,0,0,1,25.892-5.629,40.321,40.321,0,0,0,4.379,10.241c3.168,5.226,4.832,5.169,8.2,9.639,7.79,10.349,6.08,20.236,12.848,22.72,1.617.593,3.732.77,3.97,1.947.305,1.509-2.748,3.3-4.339,4.3-9.694,6.1-8.105,9.985-15.992,14.4-.264.148-.632.351-1.094.588-8.41,4.312-18.03,3.026-18.03,3.026a31.838,31.838,0,0,1-12.043-4.172A28.031,28.031,0,0,0,1317.082,960.636Z" transform="translate(-1192.834 -812.414)" fill="#895cd8"/>
          <path id="Trazado_32309" data-name="Trazado 32309" d="M1004.427,1160.751c-.028-1.145-1.793-1.14-2.985-3.361-.845-1.576-.355-2.319-1.182-3.649a6.51,6.51,0,0,0-3.545-2.432c-1.977-.786-7.513-2.99-10.363-7-2.076-2.92-1.853-5.62-3.41-5.768-1.27-.12-2.541,1.57-3.069,2.6-.42.815-1.1,2.63.148,5.9,1.218,3.193,2.547,3.255,6.673,8.807,2.315,3.116,3.473,4.675,4.092,6.057,1,2.223,1.074,3.51,2.387,4.038,1.294.519,2.813-.127,5.8-1.443C1002.318,1163.026,1004.459,1162.023,1004.427,1160.751Z" transform="translate(-979.306 -980.833)" fill="#ece5de"/>
          <path id="Trazado_32310" data-name="Trazado 32310" d="M1074.642,1208.462a3.456,3.456,0,0,0-.332,4.616,12.885,12.885,0,0,0,4.21,3.411c2.8,1.69,5.74,3.429,9.141,3.887,2.136.288,3.735.572,5.539-.095,4.477-1.653,5.846-7.314,6.05-8.21a4.74,4.74,0,0,1-2.762.073,5.547,5.547,0,0,1-3.411-3.461l-3.069,2.019a28.805,28.805,0,0,0-8.867-2.753C1078.4,1207.569,1076.043,1207.281,1074.642,1208.462Z" transform="translate(-1047.833 -1030.495)" fill="#ece5de"/>
          <path id="Trazado_32311" data-name="Trazado 32311" d="M1074.046,1207.59c-.968,2.131.389,4.251,1.392,5.589a16.224,16.224,0,0,0,4.926,4.061c2.484,1.442,4.835,1.342,6.989,1.44a25.611,25.611,0,0,0,7.011-.66,13.661,13.661,0,0,1-5.971-4.3c-.42-.564-1.4-1.828-2.887-3.62a15.48,15.48,0,0,0-1.612-1.653c-1.838-1.646-4.346-3.893-6.867-3.375A4.56,4.56,0,0,0,1074.046,1207.59Z" transform="translate(-1047.924 -1028.614)" fill="#ccc6c0"/>
          <path id="Trazado_32312" data-name="Trazado 32312" d="M1392.534,643.174a13.568,13.568,0,0,1-1.5,2.61,10.43,10.43,0,0,1-2.113,2.309c-.781.6-1.173.692-1.321,1.2a2.056,2.056,0,0,0,.88,2.008c.258.17.333.107,1.848.2,1,.062,1.206.1,1.42-.1a1.359,1.359,0,0,0,.165-1.606.992.992,0,0,0-1.056-.4Z" transform="translate(-1276.035 -624.714)" fill="#f4a18d"/>
          <path id="Trazado_32313" data-name="Trazado 32313" d="M1407.737,638.444c.692,0,.673-.1,1.5-.1.956,0,1.442.005,1.849.3a2.618,2.618,0,0,1,.88,1.707,6.627,6.627,0,0,0-3.609-.9c-1.617.092-2.809.851-3.169.3a1.21,1.21,0,0,1,.264-1.305C1405.862,638.052,1406.33,638.451,1407.737,638.444Z" transform="translate(-1288.773 -621.19)" fill="#7b1fa2"/>
          <g id="Grupo_33763" data-name="Grupo 33763" transform="translate(113.878 29.835)">
            <path id="Trazado_32314" data-name="Trazado 32314" d="M1400.843,685.32a17.972,17.972,0,0,1-3.957,3.879c.032-.1.061-.193.089-.291a3.2,3.2,0,0,0,.118-1.638,2.781,2.781,0,0,0-.664-1.2l-.032,0c-.006-.017-.013-.034-.019-.051,0,0,0,0,0,0-.018-.054-.037-.111-.052-.171.232.035.477.062.732.075A9.014,9.014,0,0,0,1400.843,685.32Z" transform="translate(-1396.285 -684.848)" fill="#fbeee8"/>
            <path id="Trazado_32315" data-name="Trazado 32315" d="M1400.673,683.913a8.811,8.811,0,0,1-3.716.592q-.393-.024-.783-.085a1.846,1.846,0,0,0,.042.22c.015.061.033.118.052.171,0,0,0,0,0,0,.006.017.013.034.019.051l.032,0c.206.028.411.046.619.059a9.066,9.066,0,0,0,3.166-.379,17.433,17.433,0,0,1-3.239,3.154c-.027.1-.057.193-.089.291s-.06.184-.092.275c.907-.43,2.287-1.754,4.183-4.008l.518-.618Z" transform="translate(-1396.174 -683.642)" fill="#db917f"/>
          </g>
          <path id="Trazado_32316" data-name="Trazado 32316" d="M1397.449,664.884s.021.062.061.164c.02.052.047.114.071.19l.018.06a.35.35,0,0,1,.009.034l.008.031a.951.951,0,0,1,.023.146,1.352,1.352,0,0,1-.114.7,1.223,1.223,0,0,1-.229.346c-.015.014-.021.023-.042.042l-.034.032c-.02.02-.058.048-.087.07a1.261,1.261,0,0,1-.189.11,1.08,1.08,0,0,1-.829.036l-.047-.02-.026-.011-.019-.009c-.026-.013-.05-.025-.078-.041-.055-.031-.1-.059-.147-.088-.091-.057-.172-.112-.248-.156a.582.582,0,0,0-.379-.111.3.3,0,0,0-.112.041l-.039.023.025-.039a.2.2,0,0,1,.036-.044.248.248,0,0,1,.062-.051.6.6,0,0,1,.485-.023,3,3,0,0,1,.292.1c.049.019.1.04.146.056l.077.027.02.007.014,0,.034.009a.886.886,0,0,0,.58-.061.871.871,0,0,0,.133-.074c.019-.016.033-.022.059-.044l.036-.029.024-.022a1.1,1.1,0,0,0,.191-.24,1.474,1.474,0,0,0,.192-.544,1.157,1.157,0,0,0,.012-.126l0-.032c0-.006,0-.019,0-.028v-.058c0-.078,0-.145,0-.2A1.061,1.061,0,0,1,1397.449,664.884Z" transform="translate(-1281.459 -640.321)" fill="#db7e67"/>
          <path id="Trazado_32317" data-name="Trazado 32317" d="M1413.131,647.789l-.058.033a1.782,1.782,0,0,1-.169.083,2.033,2.033,0,0,1-.277.1,1.989,1.989,0,0,1-.381.071,1.96,1.96,0,0,1-.469-.017,1.911,1.911,0,0,1-.256-.06l-.059-.018-.068-.026c-.047-.018-.088-.037-.132-.057-.175-.083-.326-.194-.457-.269a1.8,1.8,0,0,0-.424-.175,2.416,2.416,0,0,0-.462-.1,1.906,1.906,0,0,0-.445.007,1.845,1.845,0,0,0-.211.04l-.013,0h0l.005,0-.008,0-.029.009-.057.017c-.041.012-.064.023-.1.033a2.184,2.184,0,0,0-.355.171,3.059,3.059,0,0,0-.5.378c-.115.107-.18.175-.18.175s.006-.023.02-.065a1.743,1.743,0,0,1,.072-.178,2.063,2.063,0,0,1,.392-.571,1.92,1.92,0,0,1,.374-.3c.037-.022.082-.05.115-.065l.053-.027.027-.013.007,0,.015-.006.016-.007a1.834,1.834,0,0,1,.262-.091,1.906,1.906,0,0,1,.578-.063,2.358,2.358,0,0,1,.581.1,2.01,2.01,0,0,1,.549.25c.168.111.29.221.41.3.03.019.063.04.091.055l.043.024.055.027a2.054,2.054,0,0,0,.193.083,2.26,2.26,0,0,0,.382.1,2.893,2.893,0,0,0,.346.043c.105.005.2.008.277.008Z" transform="translate(-1290.91 -627.321)" fill="#755c59"/>
          <path id="Trazado_32318" data-name="Trazado 32318" d="M1411.361,647.595a2.014,2.014,0,0,1,.358,2.1c-.287.689-.937.869-1.375.429a1.677,1.677,0,0,1-.427-1.175c.009-.475.246-.936.541-.963Z" transform="translate(-1292.285 -627.892)" fill="#755c59"/>
          <path id="Trazado_32319" data-name="Trazado 32319" d="M1424.647,1009.232l-.1.247c-.03.083-.078.181-.133.3s-.126.251-.208.4a8.629,8.629,0,0,1-1.88,2.245,12.252,12.252,0,0,1-1.685,1.23c-.648.391-1.372.77-2.145,1.166s-1.6.811-2.423,1.312q-.621.373-1.23.823a10.409,10.409,0,0,0-1.153,1.023l-.262.3-.066.074-.031.035-.032.04-.128.161c-.161.212-.32.431-.472.665-.306.463-.592.958-.9,1.459a12.5,12.5,0,0,1-1.039,1.491l-.075.089-.038.045-.027.03-.019.021-.155.164a4.457,4.457,0,0,1-.329.328c-.12.106-.235.224-.36.32l-.373.3a12.219,12.219,0,0,1-3.455,1.69c-1.24.4-2.529.682-3.828.965s-2.642.538-4.014.712a21.457,21.457,0,0,1-4.2.162,12.305,12.305,0,0,1-4.208-1,9.868,9.868,0,0,1-1.9-1.137l-.111-.083-.113-.094-.205-.173c-.136-.109-.276-.246-.414-.376-.068-.066-.14-.13-.2-.2l-.192-.2-.191-.2-.182-.212a19.25,19.25,0,0,1-2.38-3.713c-.669-1.295-1.26-2.609-1.9-3.871-.319-.63-.65-1.249-1.006-1.842a14.152,14.152,0,0,0-1.161-1.684,9.263,9.263,0,0,0-1.4-1.406,4.647,4.647,0,0,0-.39-.292c-.135-.089-.263-.189-.405-.265s-.275-.167-.419-.236l-.421-.2-.463-.183-.445-.145c-.151-.045-.308-.083-.461-.126s-.312-.072-.468-.108c-.626-.133-1.261-.233-1.894-.342s-1.266-.227-1.886-.4a7.53,7.53,0,0,1-1.785-.721,3.854,3.854,0,0,1-.408-.257l-.1-.067-.05-.034-.025-.017c-.013-.01,0,0-.036-.026l-.174-.146-.175-.146-.087-.073c-.029-.025-.057-.057-.086-.085l-.339-.348a8.263,8.263,0,0,1-1.036-1.525,21.5,21.5,0,0,1-1.252-3.2,27.6,27.6,0,0,0-1.074-2.908,11.513,11.513,0,0,0-1.437-2.356,12.5,12.5,0,0,0-1.684-1.744c-.145-.119-.28-.244-.424-.351l-.419-.32c-.282-.2-.547-.39-.813-.551a19.658,19.658,0,0,0-2.543-1.362c-.3-.14-.541-.232-.7-.3l-.241-.1.245.09c.161.06.4.142.712.269a18.011,18.011,0,0,1,2.606,1.267c.273.154.546.342.837.531l.434.311c.15.1.291.226.442.342a12.745,12.745,0,0,1,1.771,1.725,11.858,11.858,0,0,1,1.551,2.377,26.515,26.515,0,0,1,1.159,2.925c.18.514.369,1.033.574,1.555a14.785,14.785,0,0,0,.712,1.537,8.01,8.01,0,0,0,.984,1.4l.3.3c.026.024.047.05.076.074l.088.071.176.143.177.143c-.017-.013.009.005.011.006l.022.015.046.03.09.059a3.29,3.29,0,0,0,.371.226,6.929,6.929,0,0,0,1.66.638c.589.15,1.2.255,1.833.352s1.274.189,1.926.322c.163.036.327.067.49.108s.327.082.492.129l.5.158.466.179.485.227c.158.075.307.17.461.255s.3.189.446.286a5.22,5.22,0,0,1,.429.315,9.952,9.952,0,0,1,1.524,1.5,19.619,19.619,0,0,1,2.28,3.649c.654,1.281,1.247,2.591,1.907,3.858a18.6,18.6,0,0,0,2.29,3.555l.169.2.178.19.177.19c.06.062.122.117.182.176.123.117.238.234.381.349l.205.173.093.079.1.077a9.123,9.123,0,0,0,1.752,1.053,11.593,11.593,0,0,0,3.951.952,21.919,21.919,0,0,0,4.067-.13c1.343-.156,2.664-.4,3.96-.662s2.572-.538,3.778-.9a11.609,11.609,0,0,0,3.308-1.548l.352-.269c.119-.088.219-.189.328-.282a4.1,4.1,0,0,0,.32-.308l.158-.162.02-.02.011-.012.036-.041.071-.082a12.685,12.685,0,0,0,1.019-1.409c.314-.487.615-.981.942-1.452.16-.236.333-.465.511-.688l.132-.159.033-.039.038-.042.072-.077.285-.306a10.8,10.8,0,0,1,1.229-1.043,14.35,14.35,0,0,1,1.285-.814c.858-.484,1.7-.872,2.482-1.245s1.512-.724,2.164-1.089a12.023,12.023,0,0,0,1.7-1.158,10.209,10.209,0,0,0,1.2-1.153,7.783,7.783,0,0,0,.739-.994c.087-.145.166-.272.223-.388s.112-.21.145-.291Z" transform="translate(-1253.223 -875.406)" fill="#f8e8e7"/>
          <path id="Trazado_32320" data-name="Trazado 32320" d="M1426.865,1001.492s-.342.128-.943.34c-.3.1-.665.236-1.085.378l-1.406.486-1.657.583c-.588.207-1.2.44-1.837.676s-1.284.5-1.94.771-1.317.56-1.967.872-1.3.629-1.917.97-1.226.69-1.792,1.058-1.109.733-1.6,1.109c-.123.095-.247.184-.365.279l-.347.28c-.231.18-.44.371-.649.546l-.578.528-.507.493c-.154.161-.3.314-.432.451s-.249.275-.357.394c-.217.237-.376.435-.489.566l-.173.2.136-.229c.093-.147.216-.373.4-.638.093-.133.19-.286.306-.444s.245-.326.383-.508l.459-.559c.168-.19.349-.388.54-.593a17.146,17.146,0,0,1,1.308-1.24c.239-.213.5-.414.758-.626.131-.1.269-.2.406-.306s.276-.2.42-.3.286-.2.433-.3l.448-.289q.453-.288.928-.559c.629-.367,1.29-.7,1.954-1.016s1.343-.6,2.016-.866l.5-.194.5-.182c.332-.123.662-.232.988-.342.651-.214,1.286-.4,1.889-.575q.452-.131.88-.244l.827-.21c.53-.134,1.018-.244,1.451-.34s.812-.174,1.124-.237.558-.107.726-.14Z" transform="translate(-1290.036 -882.311)" fill="#2b2b3d"/>
          <path id="Trazado_32321" data-name="Trazado 32321" d="M1462.494,867.556l.13.005c.084.006.209.01.365.024.078,0,.166.015.26.018s.195.006.3.009l.34.012.379,0c.132,0,.268,0,.409,0l.437-.02c.075,0,.15,0,.227-.01l.232-.021c.156-.016.316-.023.477-.041s.325-.043.49-.064.332-.054.5-.08c.337-.05.673-.134,1.011-.2.334-.091.67-.17.994-.279.162-.053.326-.1.482-.157s.313-.115.467-.167.3-.125.445-.181l.217-.087c.071-.03.139-.064.208-.095l.4-.182c.13-.058.249-.127.368-.185l.341-.171.3-.167c.1-.052.183-.1.268-.147s.156-.093.223-.133c.133-.083.243-.143.316-.187l.115-.064-.086.1c-.058.063-.139.16-.25.277-.056.058-.115.126-.184.194s-.148.136-.231.212l-.266.24c-.1.081-.2.158-.312.244s-.223.173-.346.256l-.387.25c-.067.043-.134.087-.2.127l-.216.118c-.146.079-.3.16-.451.237a10.009,10.009,0,0,1-.983.408c-.338.133-.7.219-1.051.319-.361.072-.719.157-1.08.193a9.954,9.954,0,0,1-1.057.082c-.172,0-.341,0-.506-.006l-.245-.007c-.081,0-.16-.013-.238-.021l-.455-.047c-.146-.019-.287-.047-.421-.071s-.263-.047-.385-.076l-.344-.094c-.108-.03-.208-.056-.3-.084s-.171-.063-.246-.089c-.148-.054-.263-.1-.343-.134Z" transform="translate(-1330.499 -784.172)" fill="#2b2b3d"/>
          <path id="Trazado_32322" data-name="Trazado 32322" d="M1420,797.506c.193-.213.393-.42.6-.62l.316-.3c.107-.1.216-.191.326-.284.221-.185.443-.37.675-.541s.466-.34.706-.5.485-.314.733-.461.5-.288.757-.421c.127-.069.256-.133.387-.2s.261-.125.393-.184.263-.118.4-.173l.2-.083c.07-.028.145-.055.222-.08a1.63,1.63,0,0,1,.53-.089,1.082,1.082,0,0,1,.31.048c.026.008.052.018.077.027l.019.007.03.014.024.012.024.012.039.022c.027.016.058.034.08.05a1.375,1.375,0,0,1,.393.448,2.664,2.664,0,0,1,.2.463l.27.835.259.829.254.83.249.832q.125.416.243.834c.081.278.161.557.236.836l-.539-.108.813-.921.828-.909c.138-.151.28-.3.42-.449s.279-.3.422-.447c.284-.3.569-.591.863-.879-.223.348-.456.688-.689,1.028-.116.171-.236.337-.355.506s-.236.337-.356.5l-.725,1-.739.985-.336.448-.2-.556q-.148-.408-.29-.818t-.282-.82l-.276-.823-.271-.824-.266-.826-.259-.819a1.14,1.14,0,0,0-.3-.534c-.006,0-.007,0-.01-.007s0,0-.006-.006l-.024-.012-.024-.012-.006,0,0,0,.014.006-.006,0-.022-.009a.353.353,0,0,0-.107-.019.977.977,0,0,0-.3.043c-.058.016-.117.035-.179.056l-.194.071c-.13.048-.26.1-.389.147-.26.1-.516.208-.771.317s-.51.225-.761.347-.5.252-.748.38-.493.266-.736.408-.486.285-.725.436-.476.3-.713.463l-.352.241Z" transform="translate(-1299.614 -732.841)" fill="#2b2b3d"/>
          <path id="Trazado_32323" data-name="Trazado 32323" d="M1531.849,1043.409l-1.054-.6-1.05-.6-1.044-.612c-.348-.2-.7-.407-1.042-.616l.314-.173-.009,1.564c0,.522-.01,1.043-.016,1.564l-.021,1.564-.013.781-.008.391c0,.132,0,.255-.01.4a2,2,0,0,1-.222.921,1.269,1.269,0,0,1-.168.223l0,0-.017.017-.005,0-.009.008-.018.016c-.013.011-.021.02-.037.034a1.218,1.218,0,0,1-.129.093,1.3,1.3,0,0,1-.491.174,2.546,2.546,0,0,1-.88-.051c-.139-.029-.249-.055-.38-.088l-.378-.1a17.021,17.021,0,0,1-2.918-1.086l.533-.232a7.675,7.675,0,0,1-.457,1.085,9.931,9.931,0,0,1-.59,1,14.494,14.494,0,0,1-1.426,1.783l-.2.209-.2.2-.392.392c-.277.256-.547.524-.832.765-.141.122-.281.248-.424.368l-.434.354c-.144.12-.295.229-.444.342s-.3.226-.45.333c-.306.212-.609.43-.924.628s-.628.4-.949.584c-.158.1-.324.18-.486.27s-.324.18-.491.261l-.5.249c-.165.083-.335.156-.5.234-.334.156-.679.289-1.019.43-.171.068-.345.129-.518.194s-.344.128-.521.181l-.525.169-.529.151-.265.073-.267.063-.534.125.517-.184.258-.092.255-.1.51-.2.5-.215c.168-.069.334-.147.5-.223s.332-.15.5-.23c.325-.165.654-.321.971-.5.16-.088.323-.168.48-.26l.473-.273c.159-.089.311-.189.466-.285s.311-.189.46-.292l.454-.3c.153-.1.3-.209.447-.312.3-.206.586-.432.875-.651.145-.11.283-.229.425-.343s.282-.229.418-.35l.414-.356c.136-.12.268-.246.4-.368.272-.243.521-.5.781-.755l.382-.4.191-.2.178-.2a14.052,14.052,0,0,0,1.336-1.7,9.068,9.068,0,0,0,.534-.926,8.025,8.025,0,0,0,.409-.979l.146-.422.388.19a16.33,16.33,0,0,0,2.781,1.062l.358.1.359.089a1.9,1.9,0,0,0,.628.061.471.471,0,0,0,.375-.214,1.309,1.309,0,0,0,.138-.582l.078-1.553.085-1.561c.028-.52.055-1.041.089-1.562l.1-1.561.023-.37.292.2c.335.226.666.459,1,.689l1,.692.991.7Z" transform="translate(-1364.23 -910.298)" fill="#2b2b3d"/>
          <path id="Trazado_32324" data-name="Trazado 32324" d="M1514.128,986.1l-.163-.2c-.106-.127-.255-.322-.463-.547-.1-.113-.212-.243-.34-.375s-.269-.274-.417-.425-.321-.3-.495-.458l-.567-.482a16.27,16.27,0,0,0-1.359-.96,14.169,14.169,0,0,0-1.621-.874,15.022,15.022,0,0,0-1.832-.684,14.319,14.319,0,0,0-1.965-.408l-.507-.05c-.175-.022-.337-.023-.5-.031-.327-.021-.663-.01-.994-.01a14.884,14.884,0,0,0-1.938.211,13.939,13.939,0,0,0-1.777.446,16.059,16.059,0,0,0-1.544.595l-.663.328c-.206.113-.4.218-.588.322s-.346.216-.5.309-.292.2-.419.281c-.256.167-.443.318-.577.415l-.2.15.174-.184c.117-.117.276-.3.51-.507.116-.1.239-.223.383-.343s.3-.243.474-.378.363-.259.562-.4.423-.262.65-.4c.235-.124.476-.265.735-.39s.529-.251.816-.358a12.1,12.1,0,0,1,1.835-.579l.495-.1c.166-.037.337-.053.506-.08.34-.059.689-.077,1.038-.107.353-.007.7-.03,1.068-.007.179.008.366.009.534.03l.529.049a13.224,13.224,0,0,1,2.085.459c.333.116.667.221.983.362.159.069.321.126.472.2l.456.222a12.324,12.324,0,0,1,1.646,1.017c.253.174.484.367.708.549s.423.382.622.561.372.372.536.552.313.36.452.528.26.333.372.484.2.3.293.429c.181.255.289.474.376.617Z" transform="translate(-1353.9 -866.719)" fill="#2b2b3d"/>
          <path id="Trazado_32325" data-name="Trazado 32325" d="M1416.964,964.007l.149.016c.1.013.24.026.421.053.09.014.19.024.3.045s.225.049.351.077l.4.09c.14.036.283.084.435.129s.31.093.471.151l.493.192c.085.033.172.066.257.1l.257.12c.173.082.351.165.528.256.348.195.713.389,1.059.629.358.221.692.491,1.035.747.323.281.657.551.951.856.309.288.579.608.846.908.129.156.25.313.368.467l.175.228c.057.076.108.155.16.232l.3.448c.094.146.174.295.255.434s.157.273.225.4l.18.378c.055.119.11.228.155.331s.079.2.114.29c.069.175.116.315.151.408l.051.145-.09-.124c-.057-.082-.144-.2-.247-.353-.053-.076-.108-.161-.174-.25s-.138-.185-.214-.288l-.241-.326-.28-.35c-.1-.121-.193-.252-.3-.378l-.338-.391c-.059-.066-.114-.137-.175-.2l-.189-.2c-.129-.133-.252-.277-.387-.415l-.416-.411c-.137-.143-.29-.271-.436-.409-.291-.278-.61-.532-.92-.8-.324-.247-.639-.505-.971-.73-.165-.113-.322-.237-.49-.339s-.328-.211-.487-.318-.327-.191-.483-.288l-.234-.141c-.078-.045-.158-.084-.234-.127l-.45-.245c-.146-.079-.292-.143-.43-.213l-.4-.2-.363-.162c-.115-.051-.223-.1-.322-.145s-.2-.079-.28-.114c-.17-.066-.3-.125-.393-.163Z" transform="translate(-1297.406 -855.363)" fill="#2b2b3d"/>
          <path id="Trazado_32326" data-name="Trazado 32326" d="M1403.007,913.545a8.164,8.164,0,0,1-4.608,3.95c-.514.148-1.024.293-1.526.433q-.677.19-1.34.37l-.452.123a168.808,168.808,0,0,1-20.376,4.259,90.554,90.554,0,0,0-10.211,1.877q-.4.1-.787.2c-.455.118-.9.237-1.348.36q-.391.108-.776.219-.3.086-.6.175a84.03,84.03,0,0,0-12.59,4.844c-.9.434-1.738.853-2.494,1.247a7.571,7.571,0,0,1-1.8-1.247,5.458,5.458,0,0,1-1.846-3.546,5.729,5.729,0,0,1,1.458-4.128c1.542-1.713,3.734-1.953,8.943-2.12,4.648-.15,6.3-.068,7.57-.075.462,0,.872-.016,1.357-.057s.95-.1,1.384-.18c.155-.028.307-.058.456-.091h0c3.948-.859,5.771-3.253,11.287-6.108,2.448-1.268,9.166-4.745,16.076-5.03q.587-.025,1.174-.017a18.072,18.072,0,0,1,3.354.346,14.772,14.772,0,0,1,3.829,1.323A14.981,14.981,0,0,1,1403.007,913.545Z" transform="translate(-1243.089 -815.818)" fill="#f4a18d"/>
        </g>
        <g id="Grupo_33765" data-name="Grupo 33765" transform="translate(52.173 78.63)">
          <rect id="Rectngulo_7912" data-name="Rectngulo 7912" width="68.074" height="3.405" transform="translate(32.128 35.905)" fill="#362d3c"/>
          <path id="Trazado_32327" data-name="Trazado 32327" d="M1241.4,896.586l-52.929.107-18.182-39.355,52.929-.108Z" transform="translate(-1170.294 -857.231)" fill="#403744"/>
          <path id="Trazado_32328" data-name="Trazado 32328" d="M1279.333,920.915l-11.173.023-3.838-8.307,11.173-.023Z" transform="translate(-1238.636 -897.041)" fill="#ffe695"/>
        </g>
        <path id="Trazado_32329" data-name="Trazado 32329" d="M1526.377,895.555q-.151.428-.318.849t-.341.838c-.114.279-.236.554-.356.83s-.245.55-.369.824l-.235-.314a5.387,5.387,0,0,1,.869-.137,5.562,5.562,0,0,1,1.753.129c.072.015.143.034.214.053l.113.031.1.034.2.068c.068.024.139.055.208.082.141.053.272.119.405.18s.26.138.385.215.249.156.368.242.235.177.348.271.221.193.326.295.2.21.3.32a5.2,5.2,0,0,1,.519.7,8.168,8.168,0,0,0-1.311-1.083c-.117-.077-.236-.149-.357-.218s-.242-.136-.366-.2-.251-.116-.377-.171-.255-.106-.382-.146c-.065-.022-.126-.045-.192-.065l-.205-.057-.1-.028-.093-.022c-.067-.016-.132-.033-.2-.046a5.617,5.617,0,0,0-.809-.11,6.406,6.406,0,0,0-1.63.09l-.437.076.2-.391c.139-.266.275-.534.419-.8s.283-.53.432-.791.294-.524.447-.783S1526.216,895.81,1526.377,895.555Z" transform="translate(-1375.499 -806.152)" fill="#db7e67"/>
        <path id="Trazado_32330" data-name="Trazado 32330" d="M1325.617,1128.541s-.027-.133-.081-.361a9.091,9.091,0,0,0-.265-.92c-.065-.186-.141-.383-.23-.587s-.2-.412-.31-.624l-.086-.15-.1-.16c-.071-.1-.137-.223-.21-.321l-.22-.3c-.079-.1-.165-.193-.247-.289s-.173-.186-.258-.28a3.732,3.732,0,0,0-.272-.262c-.091-.086-.185-.167-.28-.245s-.186-.158-.284-.227a9.422,9.422,0,0,0-1.1-.714c-.17-.091-.328-.174-.47-.244s-.267-.128-.373-.173c-.209-.093-.332-.143-.332-.143l.094.01c.061.009.152.018.265.04s.251.049.407.091l.248.07.271.094a5.929,5.929,0,0,1,.594.255,5.5,5.5,0,0,1,.632.36c.108.066.212.143.317.221l.16.117.151.131c.1.088.2.176.3.275s.2.188.284.3.176.21.261.319l.24.342a3.729,3.729,0,0,1,.2.338l.094.167c.03.061.06.122.09.183a5.583,5.583,0,0,1,.433,1.336,5.27,5.27,0,0,1,.1.982c0,.119,0,.212-.007.275S1325.617,1128.541,1325.617,1128.541Z" transform="translate(-1227.291 -969.334)" fill="#db7e67"/>
        <path id="Trazado_32331" data-name="Trazado 32331" d="M1178.086,1144.141s.982-.483,2.477-1.147c.373-.167.778-.347,1.209-.532s.883-.384,1.354-.58.956-.407,1.453-.608l1.5-.615,1.51-.6c.5-.2.992-.384,1.467-.569.953-.366,1.847-.7,2.615-.974,1.536-.557,2.576-.887,2.576-.887s-.981.483-2.476,1.147c-.747.335-1.622.715-2.563,1.112-.471.2-.955.407-1.453.607l-1.5.615-1.511.6c-.5.2-.992.383-1.468.569s-.939.355-1.377.52-.854.315-1.239.454C1179.125,1143.81,1178.086,1144.141,1178.086,1144.141Z" transform="translate(-1123.784 -980.181)" fill="#db7e67"/>
      </g>
    </g>
  </g>
</svg>
