<svg id="Grupo_1098949" data-name="Grupo 1098949" xmlns="http://www.w3.org/2000/svg" xmlns:xlink="http://www.w3.org/1999/xlink" width="305.432" height="346.592" viewBox="0 0 305.432 346.592">
  <defs>
    <clipPath id="clip-path">
      <rect id="Rectángulo_388842" data-name="Rectángulo 388842" width="305.432" height="346.592" fill="none"/>
    </clipPath>
  </defs>
  <path id="Trazado_774487" data-name="Trazado 774487" d="M126.53,0l-3.75,2.006.448,1.77,2.985-1.611h.052v15h2.246V0Z" transform="translate(-19.766 0)"/>
  <g id="Grupo_1098948" data-name="Grupo 1098948" transform="translate(0 0)">
    <g id="Grupo_1098947" data-name="Grupo 1098947" clip-path="url(#clip-path)">
      <path id="Trazado_774488" data-name="Trazado 774488" d="M152.3,17.482a8.558,8.558,0,0,1-3.672.739c-3.856,0-6.365-2.614-6.365-6.524a6.5,6.5,0,0,1,6.867-6.787,7.757,7.757,0,0,1,3.221.66l-.527,1.8a5.394,5.394,0,0,0-2.694-.607c-2.932,0-4.516,2.165-4.516,4.833,0,2.958,1.9,4.781,4.437,4.781a6.587,6.587,0,0,0,2.852-.634Z" transform="translate(-22.904 -0.79)"/>
      <path id="Trazado_774489" data-name="Trazado 774489" d="M156.823,8.628c0-1.32-.026-2.4-.106-3.459h2.034l.106,2.06h.08a4.4,4.4,0,0,1,4.014-2.351,3.779,3.779,0,0,1,3.619,2.562h.053a5.238,5.238,0,0,1,1.426-1.664,4.36,4.36,0,0,1,2.826-.9c1.691,0,4.2,1.11,4.2,5.547v7.527H172.8V10.715c0-2.456-.9-3.935-2.774-3.935a3.009,3.009,0,0,0-2.746,2.113,3.82,3.82,0,0,0-.185,1.162v7.9h-2.271V10.292c0-2.033-.9-3.512-2.668-3.512A3.175,3.175,0,0,0,159.279,9.1a3.221,3.221,0,0,0-.185,1.137v7.711h-2.271Z" transform="translate(-25.23 -0.785)"/>
      <line id="Línea_580" data-name="Línea 580" x1="248.187" transform="translate(0.839 117.074)" fill="none" stroke="#000" stroke-miterlimit="10" stroke-width="2"/>
      <line id="Línea_581" data-name="Línea 581" x1="248.187" transform="translate(0.839 110.281)" fill="none" stroke="#000" stroke-miterlimit="10" stroke-width="2" stroke-dasharray="5 5"/>
      <path id="Trazado_774490" data-name="Trazado 774490" d="M252.446,301.165l-124.877,58-124.877-58V83.827H252.446Z" transform="translate(-0.433 -13.495)" fill="none" stroke="#000" stroke-miterlimit="10" stroke-width="2"/>
      <path id="Trazado_774491" data-name="Trazado 774491" d="M231.333,284.5l-98.752,45.864L33.829,284.5V83.827h197.5Z" transform="translate(-5.446 -13.495)" fill="none" stroke="#000" stroke-miterlimit="10" stroke-width="2"/>
      <line id="Línea_582" data-name="Línea 582" x2="23.887" transform="translate(0.839 48.888)" fill="none" stroke="#000" stroke-miterlimit="10" stroke-width="2"/>
      <line id="Línea_583" data-name="Línea 583" y1="23.887" transform="translate(0.839 36.944)" fill="none" stroke="#000" stroke-miterlimit="10" stroke-width="2"/>
      <line id="Línea_584" data-name="Línea 584" y1="23.887" transform="translate(24.725 36.944)" fill="none" stroke="#000" stroke-miterlimit="10" stroke-width="2"/>
      <line id="Línea_585" data-name="Línea 585" x2="23.887" transform="translate(225.887 48.888)" fill="none" stroke="#000" stroke-miterlimit="10" stroke-width="2"/>
      <line id="Línea_586" data-name="Línea 586" y1="23.887" transform="translate(225.887 36.944)" fill="none" stroke="#000" stroke-miterlimit="10" stroke-width="2"/>
      <line id="Línea_587" data-name="Línea 587" y1="23.887" transform="translate(249.774 36.944)" fill="none" stroke="#000" stroke-miterlimit="10" stroke-width="2"/>
      <path id="Trazado_774492" data-name="Trazado 774492" d="M89.554,12.488s-60.434,2.9-69.839,25.721" transform="translate(-3.174 -2.01)" fill="none" stroke="#000" stroke-miterlimit="10" stroke-width="2"/>
      <path id="Trazado_774493" data-name="Trazado 774493" d="M15.414,40.616,17.8,48.634l5.751-6.076Z" transform="translate(-2.481 -6.539)"/>
      <path id="Trazado_774494" data-name="Trazado 774494" d="M197.981,12.488s60.434,2.9,69.839,25.721" transform="translate(-31.873 -2.01)" fill="none" stroke="#000" stroke-miterlimit="10" stroke-width="2"/>
      <path id="Trazado_774495" data-name="Trazado 774495" d="M275.822,42.558l5.75,6.076,2.389-8.018Z" transform="translate(-44.404 -6.539)"/>
      <line id="Línea_588" data-name="Línea 588" x1="64.267" y2="77.853" transform="translate(240.517 104.795)"/>
      <line id="Línea_589" data-name="Línea 589" x1="56.602" y2="68.566" transform="translate(248.182 104.795)" fill="none" stroke="#000" stroke-miterlimit="10" stroke-width="2"/>
      <path id="Trazado_774496" data-name="Trazado 774496" d="M289.439,198.027l-2.772,16.5,15.677-5.847Z" transform="translate(-46.15 -31.88)"/>
    </g>
  </g>
</svg>
