<svg xmlns="http://www.w3.org/2000/svg" xmlns:xlink="http://www.w3.org/1999/xlink" width="331.979" height="190.982" viewBox="0 0 331.979 190.982">
  <defs>
    <clipPath id="clip-path">
      <rect id="Rectángulo_8188" data-name="Rectángulo 8188" width="331.979" height="190.982" fill="#ba68c8"/>
    </clipPath>
  </defs>
  <g id="Grupo_37431" data-name="Grupo 37431" transform="translate(-786.886 -4.733)" style="isolation: isolate">
    <g id="Grupo_37430" data-name="Grupo 37430" transform="translate(786.886 4.733)" clip-path="url(#clip-path)">
      <g id="Grupo_37429" data-name="Grupo 37429" transform="translate(23.771 -134.303)">
        <g id="Grupo_37363" data-name="Grupo 37363" transform="translate(120.792 39.223)">
          <path id="Trazado_69709" data-name="Trazado 69709" d="M972.328-74.458c-.374.654-.748.617-.934,1.382-.188.6.186,1.2.186,1.774a52.839,52.839,0,0,0,4.3,12.795,55.015,55.015,0,0,0,8.031,10.945c6.725,6.817,15.5,11.8,25.4,15.558,1.868.691,4.11,1.625,6.724,2.335a36.575,36.575,0,0,0,7.1,1.252c3.735.337,7.471.056,10.272-1.756a35.243,35.243,0,0,0,10.273-10.161c3.923-5.864,6.725-12.812,8.967-19.163,5.042-15.017,8.031-34.367,4.856-51.457-1.308-7.135-3.55-13.989-7.472-19.779a28.461,28.461,0,0,0-5.6-6.444,35.228,35.228,0,0,0-4.669-3.25,1.092,1.092,0,0,0-1.494.168,1.094,1.094,0,0,0,.186,1.457,47.805,47.805,0,0,1,3.549,4.016,51.661,51.661,0,0,1,4.481,6.369,55.852,55.852,0,0,1,7.1,18.23c2.988,16.417.185,35.039-4.483,49.533-2.054,6.07-4.67,12.719-8.406,18.323a30.1,30.1,0,0,1-9.152,9.208,11.6,11.6,0,0,1-7.844.952,37.279,37.279,0,0,1-6.351-1.924c-2.428-.859-4.669-1.7-6.351-2.391-9.151-3.492-17.37-8.18-23.533-14.456a50.1,50.1,0,0,1-7.658-9.75,52.458,52.458,0,0,1-5.043-11.375,5.041,5.041,0,0,0-.56-1.606c-.374-.6-.748-.448-1.308-.879,0-.149-.187-.242-.374-.224C972.328-74.738,972.328-74.607,972.328-74.458Z" transform="translate(-971.342 140.652)" fill="#ba68c8" fill-rule="evenodd"/>
        </g>
        <g id="Grupo_37364" data-name="Grupo 37364" transform="translate(191.329 40.382)">
          <path id="Trazado_69710" data-name="Trazado 69710" d="M1067.019-138.5a.317.317,0,0,1-.133-.357.308.308,0,0,1,.289-.223.431.431,0,0,1,.358.335,2.206,2.206,0,0,0,.132.624c.112.245.379.423.558.78.868,1.6,1.627,4.5,2.785,5.526,2.339,2.162,4.613,4.323,6.842,6.6,2.139,2.228,4.232,4.545,6.461,6.819,2.518,2.7,5.594,5.3,8.156,8.244a24.034,24.034,0,0,1,4.478,7c3.142,8.111,3.81,15.464,2.317,22.461-1.448,6.885-4.968,13.392-9.714,20.01a.582.582,0,0,1-.8.179.6.6,0,0,1-.179-.8c3.967-6.752,6.617-13.258,7.621-19.943a37.136,37.136,0,0,0-2.851-20.455,21.606,21.606,0,0,0-3.856-5.838c-2.539-2.874-5.549-5.482-8.045-8.177-1.293-1.427-2.584-2.808-3.765-4.256-2.852-3.41-5.438-6.885-8.312-10.272a12.032,12.032,0,0,1-2.05-5.081c-.244-1.337-.155-2.518-.29-3.075Z" transform="translate(-1066.872 139.082)" fill="#ba68c8" fill-rule="evenodd"/>
        </g>
        <g id="Grupo_37365" data-name="Grupo 37365" transform="translate(224.512 90.563)">
          <path id="Trazado_69711" data-name="Trazado 69711" d="M1118.24-70.808a43.683,43.683,0,0,1-1.939,10.7,51.674,51.674,0,0,1-4.411,9.916.549.549,0,0,0,.2.758.549.549,0,0,0,.758-.2,42.658,42.658,0,0,0,4.881-10.049,35.743,35.743,0,0,0,1.114-11.119.336.336,0,0,0-.313-.312A.3.3,0,0,0,1118.24-70.808Z" transform="translate(-1111.813 71.12)" fill="#ba68c8" fill-rule="evenodd"/>
        </g>
        <g id="Grupo_37366" data-name="Grupo 37366" transform="translate(33.861 303.509)">
          <path id="Trazado_69712" data-name="Trazado 69712" d="M865.874,220.43a1.083,1.083,0,0,1-.2.067,5.827,5.827,0,0,1-2.115.691c-2.72.2-7.131-1.092-8.8-1.293a1.3,1.3,0,0,1-1.136-1.448,1.278,1.278,0,0,1,1.447-1.159c1.671.179,6.306.179,8.869,1.159a6.8,6.8,0,0,1,1.85,1.248,1,1,0,0,1,.155.133h.089c.089-.021.2.246,0,.491A.228.228,0,0,1,865.874,220.43Z" transform="translate(-853.608 -217.279)" fill="#ba68c8" fill-rule="evenodd"/>
        </g>
        <g id="Grupo_37367" data-name="Grupo 37367" transform="translate(168.846 662.066)">
          <path id="Trazado_69713" data-name="Trazado 69713" d="M1037.662,703.534c.179-.089.49.111.847.445,1.246,1.181,3.231,3.61,3.521,3.833a16.426,16.426,0,0,0,3.9,2.719,36.515,36.515,0,0,0,4.611,2.05,1.125,1.125,0,0,1,.825,1.4,1.154,1.154,0,0,1-1.4.847,22.694,22.694,0,0,1-6.461-1.872,13.812,13.812,0,0,1-3.721-2.83c-.292-.312-2.674-3.1-3.188-4.991-.446-1.627.068-2.473.668-2.206a.458.458,0,0,1,.446.424A.424.424,0,0,1,1037.662,703.534Z" transform="translate(-1036.423 -702.884)" fill="#ba68c8" fill-rule="evenodd"/>
        </g>
        <g id="Grupo_37368" data-name="Grupo 37368" transform="translate(131.719 654.21)">
          <path id="Trazado_69714" data-name="Trazado 69714" d="M988.052,693.063a7.559,7.559,0,0,0,.111,2.05,20.9,20.9,0,0,0-.043,2.852,9.071,9.071,0,0,0,.579,2.608,1.031,1.031,0,0,1-.625,1.336,1.049,1.049,0,0,1-1.336-.624,9.438,9.438,0,0,1-.557-2.585,14.713,14.713,0,0,1,.246-3.766,9.271,9.271,0,0,1,.868-2.117c.512-.69.958-.758,1.047-.2a.32.32,0,0,1-.111.4h.022c.021.022,0,.022-.022.044h-.178Zm.178-.044-.044-.045a.127.127,0,0,0-.113.067c.025,0,.046.022.089.022l.046-.022Z" transform="translate(-986.14 -692.244)" fill="#ba68c8" fill-rule="evenodd"/>
        </g>
        <g id="Grupo_37369" data-name="Grupo 37369" transform="translate(170.876 419.759)">
          <path id="Trazado_69715" data-name="Trazado 69715" d="M1039.384,383.174a7.246,7.246,0,0,0,1.693,1.293,3.937,3.937,0,0,0,.846.222,27.069,27.069,0,0,0,11.409-.2c6.06-1.292,12.3-3.967,18.248-5.971,4.213-1.427,8.223-2.674,12.123-2.541a.4.4,0,1,0,.089-.8,26.727,26.727,0,0,0-9.338-.089,76.819,76.819,0,0,0-10.717,2.785c-3.453,1.092-6.931,2.228-10.3,3.12a32.565,32.565,0,0,1-10.962,1.359,8.74,8.74,0,0,0-1.093-.089,17.678,17.678,0,0,0-1.827.334.278.278,0,0,0-.379.2A.321.321,0,0,0,1039.384,383.174Z" transform="translate(-1039.171 -374.72)" fill="#ba68c8" fill-rule="evenodd"/>
        </g>
        <g id="Grupo_37370" data-name="Grupo 37370" transform="translate(225.676 409.973)">
          <path id="Trazado_69716" data-name="Trazado 69716" d="M1113.884,367.384l11.231-4.679a.665.665,0,0,0,.378-.825.653.653,0,0,0-.825-.379,48.755,48.755,0,0,0-7.085,2.362,13.335,13.335,0,0,0-4.078,3.052.318.318,0,0,0-.046.446A.312.312,0,0,0,1113.884,367.384Z" transform="translate(-1113.389 -361.466)" fill="#ba68c8" fill-rule="evenodd"/>
        </g>
        <g id="Grupo_37371" data-name="Grupo 37371" transform="translate(216.231 429.447)">
          <path id="Trazado_69717" data-name="Trazado 69717" d="M1101.045,391.353l5.482-2.407a.578.578,0,0,0,.333-.735.544.544,0,0,0-.712-.334,18.531,18.531,0,0,0-2.852,1.226,24.306,24.306,0,0,0-2.541,1.738.295.295,0,1,0,.291.512Z" transform="translate(-1100.597 -387.841)" fill="#ba68c8" fill-rule="evenodd"/>
        </g>
        <g id="Grupo_37372" data-name="Grupo 37372" transform="translate(195.575 302.693)">
          <path id="Trazado_69718" data-name="Trazado 69718" d="M1074.318,216.2c-.513-.156-.246.468-.624,1.537-.268.78-.647,0-.936.891-.713,2.161,1.6,5.95,1.915,8.089.313,1.582.513,3.142.692,4.724.757,6.64.535,13.28,1.76,19.787a.632.632,0,0,0,.712.557.624.624,0,0,0,.535-.713c-.446-5.794.356-11.52.356-17.336a44.613,44.613,0,0,0-.6-7.665c-.492-2.161-1.025-6.44-2.675-8.089-.647-.646-.714.267-1.2-.334-.4-.468-.379-.958-.111-.87a.3.3,0,0,0,.178-.579Z" transform="translate(-1072.622 -216.174)" fill="#ba68c8" fill-rule="evenodd"/>
        </g>
        <g id="Grupo_37373" data-name="Grupo 37373" transform="translate(115.802 23.469)">
          <path id="Trazado_69719" data-name="Trazado 69719" d="M1037.612-161.643c-.374.542-.56.336-.746.971a1.235,1.235,0,0,0,.186,1.121c.186,2.353.186,4.5.186,6.574a30.219,30.219,0,0,1-1.868,9.32c-1.867,5.136-5.415,9.88-9.9,15.148-3.735,4.427-7.471,8.853-11.581,12.924a61.779,61.779,0,0,1-8.591,7.359c-9.9,7.359-21.479,12.85-29.511,21.236a37.281,37.281,0,0,0-10.833,22.32,27.722,27.722,0,0,0-.374,5.529,54.036,54.036,0,0,0,.374,5.454.785.785,0,0,0,.934.728.9.9,0,0,0,.746-.859,24.92,24.92,0,0,1,0-5.267,24.71,24.71,0,0,1,.747-5.155c1.868-8.573,6.163-14.55,11.393-19.555,8.4-7.826,19.611-13.205,29.7-20.228a79.192,79.192,0,0,0,9.151-7.844c4.11-4.165,8.033-8.7,11.769-13.242a80.2,80.2,0,0,0,5.789-7.508,35.9,35.9,0,0,0,5.6-13.5,31.829,31.829,0,0,0,.374-7.359,25.842,25.842,0,0,0-1.682-7.041,1.033,1.033,0,0,0-.186-.747c-.56-.5-.56-.243-1.122-.523,0-.131-.186-.224-.372-.187S1037.612-161.792,1037.612-161.643Z" transform="translate(-964.583 161.987)" fill="#ba68c8" fill-rule="evenodd"/>
        </g>
        <g id="Grupo_37374" data-name="Grupo 37374" transform="translate(64.072)">
          <path id="Trazado_69720" data-name="Trazado 69720" d="M999.671-191.587c-.56-.243-1.12-.5-1.68-.691a34.436,34.436,0,0,0-6.911-1.233c-11.581-1.121-23.535,1.42-34.367,6.574-13.449,6.518-24.655,17.482-30.258,31.136-3.735,9.4-3.922,19.873-6.349,29.6-.748,2.353-1.494,4.651-2.428,6.874-5.231,11.561-20.359,23.963-22.787,36.832-1.122,5.883.186,11.9,5.977,17.931,1.68,1.625,3.362,3.25,5.042,4.726,1.308,1.009,2.429,1.961,3.735,2.8a.678.678,0,0,0,.934-.149.56.56,0,0,0-.186-.859c-1.12-.916-2.242-1.924-3.362-2.988-1.494-1.607-2.99-3.343-4.483-5.062-5.043-5.436-6.163-10.7-5.229-15.876,2.615-12.682,17.93-24.693,23.161-36.067a51.965,51.965,0,0,0,2.614-7.34c2.616-9.6,2.616-19.929,6.537-29.175,5.043-12.944,15.876-23.161,28.577-29.6a68.357,68.357,0,0,1,32.685-7.4c2.242.075,4.483.355,6.911.5.56.038,1.122-.018,1.682,0,.186.038.374-.075.374-.205C999.858-191.4,999.671-191.55,999.671-191.587Z" transform="translate(-894.523 193.773)" fill="#ba68c8" fill-rule="evenodd"/>
        </g>
        <g id="Grupo_37375" data-name="Grupo 37375" transform="translate(77.827 117.585)">
          <path id="Trazado_69721" data-name="Trazado 69721" d="M915.826-28.294l-.374,1.643a32.564,32.564,0,0,0-.186,6,11.389,11.389,0,0,0,1.681,4.221c.186.112.186.206.372.355.188.336,0,.523,0,.9a.36.36,0,0,1,.188.374.509.509,0,0,1-.56.018,3.365,3.365,0,0,1-1.121-.392c-1.308-.859-1.68-2.428-2.053-3.81a18.792,18.792,0,0,1-.374-7.938l.748-4.651a19.069,19.069,0,0,1,.746-2.54c.56-.43,1.308-.747,1.868.317a6.879,6.879,0,0,1,.934,2.988c.374,2.149.374,4.763.56,6.314a17.664,17.664,0,0,0,3.176,6.967A29.731,29.731,0,0,0,927.22-12.1c.372.205,4.107,3.157,5.6,4.053l.186.075a1,1,0,0,0-.186-.672,30.09,30.09,0,0,1-.562-3.4v-.205c-.186-.524,0-.15-.186-.617a1.676,1.676,0,0,1,1.867.112c.934.746,3.362,2.671,3.55,2.876a21.492,21.492,0,0,0,3.547,2.26,15.949,15.949,0,0,0,3.549,1.531,33.557,33.557,0,0,0,12.887,1.513,31.872,31.872,0,0,0,5.043-.934,26.75,26.75,0,0,0,7.1-2.8,1.034,1.034,0,0,1,1.308.243.965.965,0,0,1-.374,1.158,23.668,23.668,0,0,1-7.283,3.885A25.662,25.662,0,0,1,957.664-2a35.991,35.991,0,0,1-13.822-1.7,26.808,26.808,0,0,1-4.11-1.887,35.58,35.58,0,0,1-3.548-2.6c-.187-.187-1.867-1.7-2.989-2.634.188.654.561,1.438.747,2.092a2.087,2.087,0,0,1-.186,1.887,1.572,1.572,0,0,1-1.5-.056c-1.68-.784-5.79-3.474-6.163-3.66a27.019,27.019,0,0,1-6.163-5.716,16.884,16.884,0,0,1-3.736-7.826C916.013-25.157,916.013-26.725,915.826-28.294ZM933.01-11.6c.374-.038.56-.094.56-.131-.186.018-.374-.3-.374-.056C933.01-11.728,933.01-11.653,933.01-11.6Z" transform="translate(-913.153 34.524)" fill="#ba68c8" fill-rule="evenodd"/>
        </g>
        <g id="Grupo_37376" data-name="Grupo 37376" transform="translate(104.078 22.015)">
          <path id="Trazado_69722" data-name="Trazado 69722" d="M1031.379-163.26c.246.111.757.735.268.713-.891,0-.157,2.295-.222,3.788a51.093,51.093,0,0,1-.581,6.016,40.835,40.835,0,0,1-4.857,11.7,31.045,31.045,0,0,1-8.98,9.181,202.486,202.486,0,0,1-18.384,10.54c-9.335,4.836-18.894,9.56-27.272,15.419-9.449,6.6-17.448,14.6-21.75,26.093a.448.448,0,0,1-.579.29.473.473,0,0,1-.289-.6c3.788-12.055,11.5-20.879,20.99-28.054C977.99-114.417,987.6-119.43,997-124.4c6.284-3.32,12.523-6.574,18.161-10.272a28,28,0,0,0,8.378-7.977,38.493,38.493,0,0,0,4.991-10.762c.289-.892.712-5.7,1.358-8.4a5.265,5.265,0,0,1,.335-1.091c.535-1,1.114-1.226,1.358-.936a.315.315,0,0,1,.156.4A.344.344,0,0,1,1031.379-163.26Z" transform="translate(-948.705 163.957)" fill="#ba68c8" fill-rule="evenodd"/>
        </g>
        <g id="Grupo_37377" data-name="Grupo 37377" transform="translate(122.52 22.075)">
          <path id="Trazado_69723" data-name="Trazado 69723" d="M1024.655-163.662c-2.317,5.5-7.039,10-12.566,13.994a119.6,119.6,0,0,1-12.255,7.442c-4.546,2.518-8.957,4.88-12.791,6.818a65.67,65.67,0,0,0-6.307,4.056c-1.358.958-2.65,1.938-3.989,2.7a13.338,13.338,0,0,1-2.65,1.226.515.515,0,0,0-.4.624.5.5,0,0,0,.622.4,19.468,19.468,0,0,0,6.063-1.938c2.851-1.382,5.636-3.253,8.021-4.278,3.943-1.85,8.6-3.877,13.191-6.462a75.573,75.573,0,0,0,12.188-8.423c5.416-4.613,9.694-9.983,11.454-15.955a.327.327,0,0,0-.2-.4A.3.3,0,0,0,1024.655-163.662Z" transform="translate(-973.682 163.876)" fill="#ba68c8" fill-rule="evenodd"/>
        </g>
        <g id="Grupo_37378" data-name="Grupo 37378" transform="translate(129.244 34.767)">
          <path id="Trazado_69724" data-name="Trazado 69724" d="M988.467-146.352c0,.423-.6.958-1.314,1.627-1.449,1.4-3.521,3.1-4.212,3.654a.419.419,0,0,0-.066.58.4.4,0,0,0,.579.066,35.4,35.4,0,0,0,4.389-3.632,3.679,3.679,0,0,0,1.226-2.339.319.319,0,0,0-.333-.29A.317.317,0,0,0,988.467-146.352Z" transform="translate(-982.788 146.687)" fill="#ba68c8" fill-rule="evenodd"/>
        </g>
        <g id="Grupo_37379" data-name="Grupo 37379" transform="translate(98.989 82.412)">
          <path id="Trazado_69725" data-name="Trazado 69725" d="M947.108-82.119a7.941,7.941,0,0,0-2.518,2.072,32.128,32.128,0,0,0-2.742,3.944.234.234,0,0,0,.089.334.228.228,0,0,0,.335-.066,38.566,38.566,0,0,1,2.739-3.855,7.981,7.981,0,0,1,2.364-1.894.281.281,0,0,0,.132-.4A.276.276,0,0,0,947.108-82.119Z" transform="translate(-941.813 82.159)" fill="#ba68c8" fill-rule="evenodd"/>
        </g>
        <g id="Grupo_37380" data-name="Grupo 37380" transform="translate(93.191 119.285)">
          <path id="Trazado_69726" data-name="Trazado 69726" d="M943.182-8.646c-.693.312-1.071-.357-1.539-1.07a20.7,20.7,0,0,1-1.737-3.431,40.4,40.4,0,0,1-3.277-8.936,20.982,20.982,0,0,1-.49-9.359.605.605,0,0,0-.425-.758.59.59,0,0,0-.733.424,18.367,18.367,0,0,0-.914,8.133,34.829,34.829,0,0,0,3.721,11.587c.557.847,1.8,3.12,3.231,3.967.912.557,1.826.713,2.518-.066a.316.316,0,0,0,.065-.424A.293.293,0,0,0,943.182-8.646Z" transform="translate(-933.961 32.222)" fill="#ba68c8" fill-rule="evenodd"/>
        </g>
        <g id="Grupo_37381" data-name="Grupo 37381" transform="translate(88.865 113.934)">
          <path id="Trazado_69727" data-name="Trazado 69727" d="M928.48-39.2a12.074,12.074,0,0,0-.379,2.629,7.425,7.425,0,0,0,.579,2.652.439.439,0,0,0,.557.267.438.438,0,0,0,.268-.557,8.953,8.953,0,0,1-.446-1.916,11.266,11.266,0,0,1,.021-2.986.333.333,0,0,0-.244-.357A.308.308,0,0,0,928.48-39.2Z" transform="translate(-928.101 39.468)" fill="#ba68c8" fill-rule="evenodd"/>
        </g>
        <g id="Grupo_37382" data-name="Grupo 37382" transform="translate(168.099 0.615)">
          <path id="Trazado_69728" data-name="Trazado 69728" d="M1081.545-52.95c.372-.392.934-.933,1.12-1.158l5.229-3.642a76.623,76.623,0,0,0,11.02-10.085,43.7,43.7,0,0,0,5.416-8.087,51.93,51.93,0,0,0,5.231-19.929,35.968,35.968,0,0,0-3.924-19.723c-3.362-6.351-8.779-11.244-12.887-17.053a45.493,45.493,0,0,1-2.989-4.856c-3.922-7.546-5.6-16.063-8.031-24.131-1.494-5.3-3.176-10.4-5.977-14.849a28.188,28.188,0,0,0-12.515-10.74,22.19,22.19,0,0,0-4.669-1.438c-2.428-.523-5.042-.8-7.471-1.1-4.67-.6-8.965.019-13.634.71a1.284,1.284,0,0,1-.374.037c-.56-.112-.746-.411-1.306-.71-.187.037-.374-.056-.374-.206s0-.3.186-.317c.56-.5.56-.9,1.308-1.233a8.766,8.766,0,0,1,3.176-.691,41.327,41.327,0,0,1,11.392-.635c2.428.224,5.23.411,7.845.878a26.34,26.34,0,0,1,5.229,1.475,30.788,30.788,0,0,1,14.569,11.748,56.8,56.8,0,0,1,6.911,15.857c2.242,7.808,3.736,16.1,7.471,23.422a38.4,38.4,0,0,0,2.615,4.39c4.11,5.977,9.525,11.076,12.887,17.613a39.884,39.884,0,0,1,4.109,21.8,54.613,54.613,0,0,1-5.977,21.106,40.774,40.774,0,0,1-7.843,10.553,73.154,73.154,0,0,1-10.087,8.031l-5.6,3.306c-.56.28-1.308,1.139-1.868,1.345-.748.224-1.12.168-1.308-.56-.186-.691.374-2.036,1.122-3.6.372-.43.56-.878.934-1.345-.748.877-1.682,1.718-2.43,2.522a29.112,29.112,0,0,1-13.82,7.228c-1.308.243-1.682-.542-1.494-1.27,0-.523,1.867-2.222,2.428-3.026l2.428-3.362-3.176,2.484a41.4,41.4,0,0,1-6.724,3.306,32.914,32.914,0,0,1-7.285,1.625.616.616,0,0,1-.746-.541.672.672,0,0,1,.56-.71,32.123,32.123,0,0,0,6.911-1.923,44.42,44.42,0,0,0,6.349-3.25c.748-.5,3.176-2.858,5.229-3.867a3.69,3.69,0,0,1,1.682-.6c.934-.019,1.12.392.934.8,0,.393-1.308,1.7-1.682,2.335l-3.173,4.576c0,.205-.374.486-.562.766a26.643,26.643,0,0,0,10.46-6.295,37.986,37.986,0,0,0,6.163-7.919,19.64,19.64,0,0,0,2.242-3.81.794.794,0,0,1,.56-.486.643.643,0,0,1,.747.486v.243c-.187.317-.373,1.475-.561,1.923l-.934,3.661c-.56,1.252-3.548,5.118-4.669,7.826A3.081,3.081,0,0,0,1081.545-52.95Zm-14.756,4.5v.393c-.186.075,0,.112,0,.112.186,0,.186-.131.186-.187A.293.293,0,0,0,1066.789-48.449Z" transform="translate(-1035.411 192.94)" fill="#ba68c8" fill-rule="evenodd"/>
        </g>
        <g id="Grupo_37383" data-name="Grupo 37383" transform="translate(122.009 129.815)">
          <path id="Trazado_69729" data-name="Trazado 69729" d="M987.888-17.8c0-.243-.748-.243.56.205.374.131.56.691.748,1.046.374.766.934,1.551,1.308,2.447a32.063,32.063,0,0,1,2.614,10.684c.56,5.809-.186,11.636-2.8,15.54a17.648,17.648,0,0,1-5.6,5.025,39,39,0,0,1-4.67,2.335c-1.68.634-3.362,1.083-4.855,1.513a1.565,1.565,0,0,1-2.056-.841,1.392,1.392,0,0,1,.934-1.961c1.308-.691,2.8-1.513,4.3-2.335,1.306-.747,2.614-1.494,3.921-2.391a13.237,13.237,0,0,0,4.109-3.96c1.494-2.521,2.054-6.089,2.054-9.806a46.919,46.919,0,0,0-2.054-12.888c-.187-1.009-.933-1.943-.747-2.839.374-1.83-.374.355.933-.934,0-.131,0-.3.188-.354.186-.075.372-.038.372.093C987.888-17.442,988.074-17.667,987.888-17.8Z" transform="translate(-972.989 17.96)" fill="#ba68c8" fill-rule="evenodd"/>
        </g>
        <g id="Grupo_37384" data-name="Grupo 37384" transform="translate(0 162.568)">
          <path id="Trazado_69730" data-name="Trazado 69730" d="M938.3,35.291c0-.84.374-.467,0-1.177-.186-.224-.56-.261-.746-.374a99.973,99.973,0,0,0-11.395-5.1,36.332,36.332,0,0,0-14.194-2.186,35.334,35.334,0,0,0-15.316,5.23c-6.723,4.034-12.886,9.825-18.117,15.035a112.362,112.362,0,0,0-14.381,18.136c-6.165,9.563-11.394,19.836-16.81,30-5.231,10.086-11.395,19.78-16.81,29.735-1.5,2.5-2.8,5.025-4.11,7.583-4.109,7.994-8.965,15.95-12.7,24.3a114.237,114.237,0,0,0-5.978,17.445,1.069,1.069,0,0,0,.747,1.139.914.914,0,0,0,1.122-.653,101.9,101.9,0,0,1,5.043-12.514c.934-1.887,1.868-3.755,2.8-5.622,3.922-7.584,8.217-15.036,12.14-22.433L850.894,96.7c5.229-10.029,10.46-20.172,16.624-29.585a117.012,117.012,0,0,1,14.008-17.389c5.043-4.969,10.833-10.5,17.369-14.344a31.005,31.005,0,0,1,13.449-4.633,31.85,31.85,0,0,1,10.085.9,91.176,91.176,0,0,1,13.636,4.52c.372.131.56.411.933.374.746-.094.372-.261,1.12-.71,0,.075.186,0,.374-.15C938.493,35.534,938.493,35.347,938.3,35.291Z" transform="translate(-807.749 -26.399)" fill="#ba68c8" fill-rule="evenodd"/>
        </g>
        <g id="Grupo_37385" data-name="Grupo 37385" transform="translate(0.374 311.068)">
          <path id="Trazado_69731" data-name="Trazado 69731" d="M808.816,227.861a4.015,4.015,0,0,0-.56,2.017,2.565,2.565,0,0,0,.186,1.176,52.644,52.644,0,0,0,4.3,11.282c3.176,6.8,7.472,13.243,11.395,19.164a204.368,204.368,0,0,0,31.938,36.738A276.041,276.041,0,0,0,878.483,316.8c3.735,2.671,7.285,5.3,11.206,7.751,1.682,1.046,3.362,2,5.044,2.989a1.317,1.317,0,0,0,1.867-.355,1.218,1.218,0,0,0-.373-1.923c-1.308-1.1-2.616-2.242-3.922-3.325-3.176-2.522-6.538-4.912-9.713-7.359A310.324,310.324,0,0,1,851.96,288.47a211.732,211.732,0,0,1-24.467-29.287c-3.176-4.8-6.538-10.012-9.713-15.371-2.8-4.763-4.11-10.217-6.911-14.643-.374-.691-.934-.859-1.494-1.438-.186-.149-.186-.243-.374-.205S808.816,227.711,808.816,227.861Z" transform="translate(-808.256 -227.517)" fill="#ba68c8" fill-rule="evenodd"/>
        </g>
        <g id="Grupo_37386" data-name="Grupo 37386" transform="translate(85.491 376.924)">
          <path id="Trazado_69732" data-name="Trazado 69732" d="M997.735,322.246a19.336,19.336,0,0,0-3.924-1.121c-2.239-.448-4.855-.579-7.1-.915-2.8-.3-5.6-.71-8.4-.766a22.2,22.2,0,0,0-9.713,1.774c-3.362,1.419-6.723,3.362-10.273,4.819a111.882,111.882,0,0,1-14.008,4.726,22.213,22.213,0,0,1-4.108,1.065,10.864,10.864,0,0,1-2.056-.131,1.1,1.1,0,0,1-1.308-.747,1.037,1.037,0,0,1,.748-1.289,20.618,20.618,0,0,1,1.868-1.176c5.6-2.5,11.954-3.325,17.558-5.622,3.173-1.2,5.975-2.8,8.965-4.034a27.085,27.085,0,0,1,6.538-1.887,28.77,28.77,0,0,1,5.977-.149c2.8.187,5.6.672,8.4,1.064,2.428.262,5.042.318,7.471.71a20.436,20.436,0,0,1,5.042,1.419,14.8,14.8,0,0,1,2.8,1.625,2.3,2.3,0,0,1,.934,1.513,1.823,1.823,0,0,1-1.494,1.7c-.934.205-3.362.411-3.548.43l-10.834-.056a28.972,28.972,0,0,0-10.085,1.662,39.517,39.517,0,0,0-9.339,4.912c-.748.523-2.056,1.252-3.362,2.073l7.1-.617c4.669-.336,9.713-.785,14.754-.859a65.288,65.288,0,0,1,10.087.58,25.371,25.371,0,0,1,5.789,1.288,4.554,4.554,0,0,1,2.616,2.335,2.115,2.115,0,0,1-1.682,1.905c-1.868.579-7.283,1.475-7.283,1.494-3.549.43-7.285.728-11.02.915-1.868.112-3.922.15-5.977.28,2.8.075,5.6.15,8.405.374a80.073,80.073,0,0,1,11.02,1.624,28.128,28.128,0,0,1,5.6,1.495,5.041,5.041,0,0,1,2.242,1.943c.56,1.083.186,1.718-.934,2.036a15.842,15.842,0,0,1-2.242.149l-7.285.281c-5.229-.318-10.273-1.4-15.5-1.867-1.308-.112-2.428-.188-3.735-.206l-4.482.243c1.868.448,3.922.915,5.789,1.513a28.154,28.154,0,0,1,6.911,3.082,16.075,16.075,0,0,1,3.548,2.633,4.131,4.131,0,0,1,1.308,2.11,1.206,1.206,0,0,1-1.12,1.215,4.817,4.817,0,0,1-.934-.075c-2.242-.261-7.471-1.252-7.844-1.364-3.362-.84-7.1-1.737-10.647-2.26a35.809,35.809,0,0,0-6.911-.429,22.69,22.69,0,0,0-6.537,1.4c-5.229,1.867-10.273,4.987-15.5,6.761-2.987.9-6.163,1.569-8.965.971a8.739,8.739,0,0,1-5.417-3.623,11.858,11.858,0,0,1-1.868-4.95c0-.691-.372-1.4-.186-2.092.186-.71.374-.5.748-1.121,0-.149,0-.3.186-.336.186-.056.375.038.375.187.746.224.746-.093,1.307.467,1.306,1.457.934,4.015,2.24,5.547a6.26,6.26,0,0,0,3.364,2.017c2.24.411,4.669-.242,6.909-.989,5.417-1.513,10.46-4.408,15.69-6.015a25.705,25.705,0,0,1,7.657-1.27,38.932,38.932,0,0,1,7.471.729c3.549.672,7.285,1.718,10.647,2.708.374.093,3.735.84,6.163,1.288a22.341,22.341,0,0,0-2.8-1.923,25.64,25.64,0,0,0-6.349-3.082c-3.55-1.2-7.286-1.98-10.647-2.97-.748-.243-.748-.859-.56-1.065,0-.112.186-.261.374-.43a11.05,11.05,0,0,1,1.494-.728,16.979,16.979,0,0,1,2.053-.262l6.537-.523a45.763,45.763,0,0,1,5.977.3c4.483.448,8.965,1.345,13.448,1.607l5.79.093c-1.494-.411-2.988-.617-3.922-.8a82.648,82.648,0,0,0-8.593-1.176c-4.3-.448-8.591-.71-12.886-.953l-6.538-.094c-.933,0-2.428.672-3.175.616a1.376,1.376,0,0,1-1.495-1.531c0-.43.56-1.215,1.868-1.644a59.438,59.438,0,0,1,5.977-1.345,75.388,75.388,0,0,1,9.151-1.308c4.483-.373,8.964-.41,13.634-.859,0,0,2.99-.43,5.231-.84l-.374-.094a33.014,33.014,0,0,0-4.483-.878,61.468,61.468,0,0,0-9.713-.523c-4.856.075-9.9.542-14.568.878l-7.1.653a26.408,26.408,0,0,0-2.615.6,2.188,2.188,0,0,1-1.68-.354,1.426,1.426,0,0,1-.374-1.774,6.091,6.091,0,0,1,1.682-2.335c1.494-1.233,3.547-2.372,4.481-3.1a46.751,46.751,0,0,1,9.9-5.417,32.838,32.838,0,0,1,11.207-2.055Z" transform="translate(-923.532 -316.707)" fill="#ba68c8" fill-rule="evenodd"/>
        </g>
        <g id="Grupo_37387" data-name="Grupo 37387" transform="translate(46.571 307.688)">
          <path id="Trazado_69733" data-name="Trazado 69733" d="M926.418,306.249c0-.672.372-.5.186-1.177-.186-.877-1.12-1.4-1.682-2.11a79.814,79.814,0,0,1-8.4-12.831c-2.614-4.52-5.229-9.1-8.031-13.579-1.68-2.5-3.362-4.931-5.043-7.34-3.922-5.585-8.217-11.019-11.953-16.7-4.669-6.724-8.778-13.859-13.074-20.751-1.494-2.092-2.8-4.2-4.3-6.145a31.048,31.048,0,0,1-2.056-2.391c-.374-.3-.746-.373-.934-.186a.6.6,0,0,0-.186.9c.374,1.083.934,2.185,1.308,3.25,2.239,4.184,4.669,8.2,6.909,12.29,2.8,5.155,5.978,10.2,9.153,15.129l16.81,24.151c2.242,3.418,4.11,6.93,6.164,10.366a111.044,111.044,0,0,0,6.725,10.328,61,61,0,0,0,6.537,7.192c0,.075.186.186.186.2.748.188.56-.074,1.308-.2,0,.112.186.112.374,0A.208.208,0,0,0,926.418,306.249Z" transform="translate(-870.821 -222.938)" fill="#ba68c8" fill-rule="evenodd"/>
        </g>
        <g id="Grupo_37388" data-name="Grupo 37388" transform="translate(45.564 228.101)">
          <path id="Trazado_69734" data-name="Trazado 69734" d="M870.774,195.157c.934-.281.934.075,1.681-.486.56-.523.56-1.382.934-2.073a74.807,74.807,0,0,1,8.4-12.514c3.176-4.091,6.349-8.125,9.339-12.178,5.229-7.116,10.647-14.139,16.062-21.031,3.55-4.352,7.1-8.592,10.647-12.888,1.494-1.83,2.988-3.7,4.483-5.528,1.306-1.644,2.8-3.25,4.108-4.912,2.056-2.5,3.923-5.062,5.977-7.565.188-.187,0-.5-.186-.691a.35.35,0,0,0-.56,0c-2.8,2.335-5.417,4.613-8.033,7.079-3.922,3.7-7.471,7.621-11.019,11.618-8.965,9.955-17,20.564-25.029,31.248-4.67,6.407-10.085,12.645-14.008,19.611-1.68,2.783-4.3,5.51-4.109,8.685.188.878.374.672.933,1.438-.186.131,0,.3.188.336C870.588,195.363,870.774,195.288,870.774,195.157Z" transform="translate(-869.457 -115.151)" fill="#ba68c8" fill-rule="evenodd"/>
        </g>
        <g id="Grupo_37389" data-name="Grupo 37389" transform="translate(79.719 257.509)">
          <path id="Trazado_69735" data-name="Trazado 69735" d="M917.244,155.26a8.229,8.229,0,0,0-1.308,2.745c-.748,3.343.56,6.631,1.494,9.675a39.471,39.471,0,0,0,6.725,13.018c4.108,5.66,9.339,10.666,14.568,15.671a171.963,171.963,0,0,1,14.382,14.961c3.548,4.576,6.724,9.376,8.217,15.166a1.154,1.154,0,0,0,1.308.785.933.933,0,0,0,.748-1.2,40.1,40.1,0,0,0-6.351-16.585c-5.043-7.994-12.514-14.756-19.425-21.815a84.308,84.308,0,0,1-11.767-14.345,41.363,41.363,0,0,1-6.163-14.214c-.186-.523-.186-1.046-.374-1.55a14.305,14.305,0,0,0-1.494-2.316c0-.15-.186-.28-.374-.28C917.244,155,917.244,155.11,917.244,155.26Z" transform="translate(-915.715 -154.98)" fill="#ba68c8" fill-rule="evenodd"/>
        </g>
        <g id="Grupo_37390" data-name="Grupo 37390" transform="translate(98.731 326.7)">
          <path id="Trazado_69736" data-name="Trazado 69736" d="M968.433,249.033c.934-.934-.934.336.934.149,0-.149,0-.261.186-.261.188.018.374.149.374.3,1.682.486,0-1.064.748,0,0,.075.186.188.186.3.374.485,0,1.232,0,1.849a51.7,51.7,0,0,1-4.481,17.949c-3.55,8.722-8.779,16.642-13.636,24.71-2.24,3.642-4.482,7.3-6.724,11.095a25.922,25.922,0,0,1-1.867,3.38c-.374.5-.748.859-1.12,1.345a.812.812,0,1,1-1.5-.616,5.64,5.64,0,0,1,.188-1.774,26.058,26.058,0,0,1,1.12-3.81,91,91,0,0,1,5.977-11.917c4.669-8.087,9.9-15.67,13.822-24.075a60.015,60.015,0,0,0,5.229-16.642c.186-.56-.188-1.326.374-1.737C968.247,249.182,968.433,249.107,968.433,249.033Z" transform="translate(-941.463 -248.686)" fill="#ba68c8" fill-rule="evenodd"/>
        </g>
        <g id="Grupo_37391" data-name="Grupo 37391" transform="translate(68.679 407.528)">
          <path id="Trazado_69737" data-name="Trazado 69737" d="M918.188,358.342c-1.12.131-.56-.392-1.494.168a.252.252,0,0,0-.186.28,30.4,30.4,0,0,0-1.682,3.773c-6.351,15.11-12.515,29.866-13.822,44.957a61.973,61.973,0,0,0,6.911,34.554,82.752,82.752,0,0,0,6.538,10.067c3.361,4.819,7.285,9.377,11.02,13.822a1.251,1.251,0,0,0,1.68.187,1.217,1.217,0,0,0,.188-1.551c-3.362-4.669-6.911-9.488-9.9-14.475a78.27,78.27,0,0,1-5.6-10.029,58.548,58.548,0,0,1-6.537-32.22c1.306-14.7,7.283-28.988,12.887-43.949A31.165,31.165,0,0,0,919.682,360v-.3c-.372-1.028-.372-.355-.934-1.177,0-.131,0-.3-.186-.355S918.188,358.192,918.188,358.342Z" transform="translate(-900.763 -358.155)" fill="#ba68c8" fill-rule="evenodd"/>
        </g>
        <g id="Grupo_37392" data-name="Grupo 37392" transform="translate(92.216 514.207)">
          <path id="Trazado_69738" data-name="Trazado 69738" d="M933.625,502.978c-.56.71-.746.317-.934,1.232a4.572,4.572,0,0,0,.374,2.186c1.122,5.528,2.428,11.057,4.11,16.6.934,3.642,2.053,7.284,3.176,10.908a415.772,415.772,0,0,0,17.556,44.116C963.7,590,970.42,602.38,976.023,615.044c2.428,5.865,4.858,11.824,6.725,17.781.746,2.073,1.12,4.184,1.868,6.2.186.542.56.99.746,1.513a1.248,1.248,0,0,0,1.494.9,1.443,1.443,0,0,0,.934-1.419,6.563,6.563,0,0,0-.186-1.905,33.734,33.734,0,0,0-.933-4.3,127.445,127.445,0,0,0-4.483-13.877c-5.79-15.073-13.635-29.773-19.984-43.893-3.176-7-6.351-14.251-9.153-21.61-3.549-9.153-6.911-18.509-9.9-27.848-2.056-6.314-4.11-12.571-5.977-18.808-.561-1.4-.374-3.1-1.308-4.2-.56-.71-.746-.336-1.68-.729,0-.149-.188-.242-.188-.205C933.813,502.679,933.625,502.828,933.625,502.978Z" transform="translate(-932.641 -502.633)" fill="#ba68c8" fill-rule="evenodd"/>
        </g>
        <g id="Grupo_37393" data-name="Grupo 37393" transform="translate(131.211 651.951)">
          <path id="Trazado_69739" data-name="Trazado 69739" d="M998.246,689.645c.747-1.27-.934.56.933-.056,0-.15,0-.3.188-.318s.372.093.372.224c1.308.206,0-.784,1.122.168a2.816,2.816,0,0,1,.186,1.289,63.469,63.469,0,0,1,.56,14.569,47.38,47.38,0,0,1-.746,5.118,151.324,151.324,0,0,1-5.229,19.687c-3.364,11.785-6.538,23.627-4.858,36.1a140.946,140.946,0,0,0,6.537,25.122c4.483,12.4,10.086,24.412,14.568,36.926a142.028,142.028,0,0,1,7.471,28.8,127.685,127.685,0,0,1,1.868,20.677,70.887,70.887,0,0,1-.372,8.89c.186.635-.374,1.158-1.121,1.177a1.152,1.152,0,0,1-1.12-1.14c-.374-3.511-.748-6.966-1.122-10.459-.934-8.106-1.868-16.175-3.548-24.131a156.362,156.362,0,0,0-6.163-22.264c-4.67-12.495-10.461-24.486-14.943-36.869A135.086,135.086,0,0,1,986.1,767.1a59.855,59.855,0,0,1-.186-16.324c1.868-14.569,7.658-28.615,10.647-42.847a68.559,68.559,0,0,0,1.681-16.362c0-.56-.374-1.2-.186-1.662Z" transform="translate(-985.452 -689.185)" fill="#ba68c8" fill-rule="evenodd"/>
        </g>
        <g id="Grupo_37394" data-name="Grupo 37394" transform="translate(153.879 848.356)">
          <path id="Trazado_69740" data-name="Trazado 69740" d="M1026.448,955.483c-.372.579-.746.43-.933,1.158-.372,1.27,0,2.671,0,4.016a84.984,84.984,0,0,1-2.614,17.987c-1.868,9.133-4.483,18.3-5.791,27.531a63.962,63.962,0,0,0-.372,13.373c.186,2.8-.748,7.452-.562,11.207a8.361,8.361,0,0,0,1.867,5.79c2.242,2.615,5.792,4.258,9.713,5.174,5.229,1.195,11.206,1.214,15.316,1.307,3.549-.056,7.1-.093,10.646-.485a41.523,41.523,0,0,0,6.911-1.438.877.877,0,0,0,.372-.729c-.186-.318-.372-.523-.746-.429a35.614,35.614,0,0,1-6.725.578c-3.361,0-6.723-.373-10.272-.728-4.108-.242-9.711-.486-14.569-1.774-2.988-.822-5.789-2.017-7.657-4.109a8.139,8.139,0,0,1-.934-3.325c0-3.828,1.12-8.517.934-11.356-.934-11.8,2.8-23.422,5.415-35.058a112.5,112.5,0,0,0,2.43-15.6c.186-4.016,1.494-8.48-.374-11.992-.56-.728-.747-.653-1.494-1.176a.261.261,0,0,0-.188-.224C1026.637,955.2,1026.448,955.334,1026.448,955.483Z" transform="translate(-1016.151 -955.182)" fill="#ba68c8" fill-rule="evenodd"/>
        </g>
        <g id="Grupo_37395" data-name="Grupo 37395" transform="translate(195.368 849.753)">
          <path id="Trazado_69741" data-name="Trazado 69741" d="M1076.077,1041.559c.748-.168,1.122.056,1.682-.43,3.547-2.5,3.735-7.246,4.481-11,1.121-6.126.562-12.495,0-19.275q-1.4-16.082-3.922-31.958c-.934-5.622-2.054-11.225-3.176-16.828a34.1,34.1,0,0,0-.934-4.184.9.9,0,0,0-.933-.8,1.01,1.01,0,0,0-.934.99V962.4c.188,5.734.748,11.449,1.494,17.127,1.308,10.59,3.176,21.069,4.3,31.714.56,5.342,1.12,10.385.746,15.3a29.537,29.537,0,0,1-3.547,12.776c0,.131-.188.243-.188.392,0,.8.188.766.56,1.551-.186.131-.186.3,0,.392C1075.891,1041.728,1076.077,1041.69,1076.077,1041.559Z" transform="translate(-1072.342 -957.074)" fill="#ba68c8" fill-rule="evenodd"/>
        </g>
        <g id="Grupo_37396" data-name="Grupo 37396" transform="translate(191.607 648.172)">
          <path id="Trazado_69742" data-name="Trazado 69742" d="M1071.569,893.7c.374-.374.562-.43.748-.878.934-2.522.186-5.342.374-8.031.186-8.013,0-16.026,0-24.057-.374-18.6-.933-37.225.374-55.753,1.68-27.792,5.789-55.753,8.031-83.657.56-8.442,1.12-16.884,1.308-25.308,0-2.186,0-4.37-.188-6.538-.186-1.494-.56-2.877-.746-4.351a1.141,1.141,0,0,0-1.122-1.065,1.125,1.125,0,0,0-1.12,1.065c-.188,1.457-.748,2.82-.934,4.3-.374,3.306-.374,6.668-.56,10.012-.748,11.113-1.5,22.263-2.616,33.414-2.428,23.963-5.789,47.927-7.285,71.8a326.876,326.876,0,0,0-.186,35.768q.279,12.019,1.12,24.02c.374,7.994.934,15.969,1.308,23.944a32.374,32.374,0,0,1,.188,4.259v.318c.186.43.561.411.746.747,0,.15.188.28.374.28C1071.383,893.984,1071.569,893.854,1071.569,893.7Z" transform="translate(-1067.249 -684.066)" fill="#ba68c8" fill-rule="evenodd"/>
        </g>
        <g id="Grupo_37397" data-name="Grupo 37397" transform="translate(198.084 476.502)">
          <path id="Trazado_69743" data-name="Trazado 69743" d="M1080.589,640.776a10.705,10.705,0,0,0,1.308-2.073c2.24-6.294,1.868-13.354,1.868-20.209a197.507,197.507,0,0,0-.748-20.956c-.934-10.46-2.053-20.882-2.242-30.95-.186-18.434.748-37.13,1.308-55.79.374-8.013.374-16.044.374-24.038,0-8.05,0-16.1-.748-24.056-.374-3.456-.934-6.837-1.494-10.254a.841.841,0,0,0-.934-.878,1.019,1.019,0,0,0-.934,1.027c0,3.437-.186,6.818-.186,10.273,0,7.919.186,15.876,0,23.852-.188,7.957-.374,15.932-.748,23.907-.747,18.734-1.681,37.5-1.308,56.034.188,10.179,1.308,20.732,2.428,31.3.748,6.873,1.5,13.747,1.868,20.583.374,6.687-.746,13.243-.746,19.8,0,.822.374,1.494.374,2.316,0,.149.186.28.372.317C1080.4,641.019,1080.589,640.907,1080.589,640.776Z" transform="translate(-1076.021 -451.569)" fill="#ba68c8" fill-rule="evenodd"/>
        </g>
        <g id="Grupo_37398" data-name="Grupo 37398" transform="translate(173.142 149.042)">
          <path id="Trazado_69744" data-name="Trazado 69744" d="M1048.965,8.346c-1.308.018-.56-.635-1.682.038-.372.261-.372.9-.56,1.363a49.8,49.8,0,0,0-4.482,19.2,69.106,69.106,0,0,0,.56,8.778,61.537,61.537,0,0,0,3.735,12.533,1.612,1.612,0,0,0,2.053,1.009,1.549,1.549,0,0,0,.934-2.017,96.83,96.83,0,0,1-1.867-10.124,91.632,91.632,0,0,1-.56-10.1,54.441,54.441,0,0,1,2.988-17.95c0-.448.374-.878.374-1.363-.186-1.233-.186-.187-1.12-1.139.186-.131,0-.3,0-.355C1049.151,8.16,1048.965,8.216,1048.965,8.346Z" transform="translate(-1042.241 -8.079)" fill="#ba68c8" fill-rule="evenodd"/>
        </g>
        <g id="Grupo_37399" data-name="Grupo 37399" transform="translate(174.711 78.3)">
          <path id="Trazado_69745" data-name="Trazado 69745" d="M1047.169-87.455c-.752.438-.743-.027-1.225.711-.214.3-.1.739-.14,1.122-.613,5.718-1.077,11.464-1.318,17.21-.1,2.544-.167,5.116-.083,7.689.129,3.858.566,7.689,1.049,11.547a1.46,1.46,0,0,0,1.587,1.367,1.49,1.49,0,0,0,1.384-1.587c-.1-4.542.167-9.084.25-13.626.112-6.84.214-13.681.241-20.521,0-1.012.409-2.161-.064-3.064-.4-.766-.437-.329-1.142-.821a.3.3,0,0,0-.26-.3A.277.277,0,0,0,1047.169-87.455Z" transform="translate(-1044.365 87.729)" fill="#ba68c8" fill-rule="evenodd"/>
        </g>
        <g id="Grupo_37400" data-name="Grupo 37400" transform="translate(137.56 102.828)">
          <path id="Trazado_69746" data-name="Trazado 69746" d="M1005.451-54.386a8.664,8.664,0,0,1,4.189,1.271c2.985,1.782,5.528,5.57,6.53,9.76,1.558,6.551-.513,13.436-7.109,15.018-6.684,1.559-12.345-3.343-14.284-9.871-1.893-6.373-.154-13.593,6.017-15.776A9.637,9.637,0,0,1,1005.451-54.386Zm3.521,14.952Z" transform="translate(-994.051 54.509)" fill="#ba68c8" fill-rule="evenodd"/>
        </g>
        <g id="Grupo_37401" data-name="Grupo 37401" transform="translate(186.315 101.372)">
          <path id="Trazado_69747" data-name="Trazado 69747" d="M1061.789-34.869a8.345,8.345,0,0,1-1.514-7c.712-3.655,3.253-8.155,4.078-9.8.557-1.07,2.293-3.989,3.964-4.524a4,4,0,0,1,3.811.423c2.073,1.359,3.188,3.922,3.164,7.176-.044,4.39-2.05,10.183-2.918,12.255a10.359,10.359,0,0,1-3.743,4.256,4.22,4.22,0,0,1-4.613-.089A6.968,6.968,0,0,1,1061.789-34.869Z" transform="translate(-1060.081 56.481)" fill="#ba68c8" fill-rule="evenodd"/>
        </g>
        <g id="Grupo_37402" data-name="Grupo 37402" transform="translate(176.406 168.306)">
          <path id="Trazado_69748" data-name="Trazado 69748" d="M1047.5,35.325c-.933,1.607-.933-.411-.746,1.438,0,.28.186.448.375.654,2.613,3.007,6.349,4.426,10.272,5.285,8.591,1.849,19.237-.111,26.521,3.231,7.471,3.306,11.207,9.993,13.263,17.688,1.867,6.873,2.428,14.587,2.613,21.778a116.773,116.773,0,0,0,.748,11.973,15.647,15.647,0,0,0,.56,3.007.754.754,0,0,0,.747.709.838.838,0,0,0,.747-.784,15.334,15.334,0,0,0,.374-2.988c.374-3.624.374-7.7.56-11.973,0-7.508-.186-15.577-2.054-22.805-2.242-9.152-6.911-16.9-15.5-20.937-7.659-3.512-18.492-2.242-27.643-3.755a20.924,20.924,0,0,1-8.593-3.324c-.186-.131-.374-.318-.56-.318-1.682-.094.374-.056-1.307.747-.186-.111-.375-.111-.375-.018C1047.319,35.045,1047.319,35.213,1047.5,35.325Z" transform="translate(-1046.661 -34.169)" fill="#ba68c8" fill-rule="evenodd"/>
        </g>
        <g id="Grupo_37403" data-name="Grupo 37403" transform="translate(209.75 206.881)">
          <path id="Trazado_69749" data-name="Trazado 69749" d="M1092.568,86.816c-.562.579-.562.112-.748.822a7.643,7.643,0,0,0,.56,1.943,52.768,52.768,0,0,0,4.483,8.872,81.962,81.962,0,0,0,11.581,14.663c5.6,5.174,13.075,9.04,17.93,14.606,2.8,3.343,4.856,7.359,4.3,12.869a29.083,29.083,0,0,1-.56,4.015,26.96,26.96,0,0,1-.748,3.866c-.56,1.42-.933,2.858-1.494,4.24a29.111,29.111,0,0,1-2.054,3.922,42.171,42.171,0,0,1-3.735,4.688,30.439,30.439,0,0,1-4.484,4.072c-4.3,3.642-2.988,4.184-5.23,6.107a31.4,31.4,0,0,1-2.615,1.943.692.692,0,0,0-.372.934.679.679,0,0,0,.934.242,28.493,28.493,0,0,0,3.174-1.867c2.242-1.737.934-2.372,5.417-5.64a33.95,33.95,0,0,0,4.855-4.109,31,31,0,0,0,4.3-4.857c.746-1.064,1.305-2.2,2.053-3.38.748-1.7,1.494-3.512,2.242-5.285.374-1.382.746-2.8,1.12-4.24a33.287,33.287,0,0,0,.748-4.277,20.114,20.114,0,0,0-4.483-16.025c-4.67-5.865-12.14-10.142-17.744-15.614a86.7,86.7,0,0,1-8.031-8.536,134.845,134.845,0,0,1-8.219-11.561c-.56-.915-.746-2.129-1.867-2.651-.56-.374,0,.018-.934.018,0-.131-.186-.187-.372-.131C1092.568,86.518,1092.38,86.685,1092.568,86.816Z" transform="translate(-1091.82 -86.412)" fill="#ba68c8" fill-rule="evenodd"/>
        </g>
        <g id="Grupo_37404" data-name="Grupo 37404" transform="translate(225.812 294.227)">
          <path id="Trazado_69750" data-name="Trazado 69750" d="M1115.441,205.009c-1.306.636-.746-.429-1.494.748-.374.71,0,1.662,0,2.484,0,3.735-.186,7.489-.186,11.281-.188,5.716-.188,11.488-.188,17.183a92.222,92.222,0,0,0,3.176,21.5,63.115,63.115,0,0,0,7.1,15.614c2.615,4.782,5.6,9.433,8.033,14.307a57.746,57.746,0,0,1,3.173,7.545c.562,1.718,1.308,3.363,1.868,5.155a1.462,1.462,0,0,0,1.682,1.27,1.7,1.7,0,0,0,1.308-1.7c-.188-2.036-.374-4-.748-5.939a44.53,44.53,0,0,0-2.988-8.349c-2.428-5.062-5.23-9.918-7.845-14.812-2.615-4.706-5.229-9.45-6.723-14.568-3.55-11.823-2.8-24.505-2.989-36.982a81.727,81.727,0,0,0-.56-9.582,32.654,32.654,0,0,0-.374-4.277c-.186-.13,0-.317-.186-.411-.934-1.027-.188-.094-1.494-.523,0-.149-.188-.261-.374-.243S1115.441,204.86,1115.441,205.009Z" transform="translate(-1113.573 -204.708)" fill="#ba68c8" fill-rule="evenodd"/>
        </g>
        <g id="Grupo_37405" data-name="Grupo 37405" transform="translate(202.762 390.287)">
          <path id="Trazado_69751" data-name="Trazado 69751" d="M1131.182,335.068a8.3,8.3,0,0,0-.933,1.98c-.562,2.671,0,5.417.372,8.05.374,1.551.561,3.082.933,4.613,1.308,5.809,3.364,11.487,4.11,17.52a271.1,271.1,0,0,1,2.8,30.837,282.564,282.564,0,0,1-.56,30.986,192.827,192.827,0,0,1-5.977,37.15,170.014,170.014,0,0,1-13.26,35.189c-5.6,11.132-12.888,25.719-19.986,40.119-4.483,9.376-9.153,18.622-13.074,26.784q-.841,1.905-1.682,3.755c-.56,1.345-.934,2.651-1.494,3.922a.836.836,0,0,0,.188.934.691.691,0,0,0,.933-.281c.747-.972,1.68-1.924,2.428-3.007.56-1.009,1.308-2.073,1.868-3.176,2.8-4.688,5.6-9.9,8.4-15.3,1.867-3.343,3.735-6.78,5.415-10.255,7.659-14.7,15.13-30,21.107-41.482a188.568,188.568,0,0,0,13.635-36.011,202.291,202.291,0,0,0,6.349-38.008,251.68,251.68,0,0,0,.374-31.509,240.433,240.433,0,0,0-3.176-31.342,39.833,39.833,0,0,0-1.494-6.555c-.934-3.792-2.053-7.509-3.175-11.245a73.4,73.4,0,0,1-2.614-11.112v-.747c-.374-.71-.56-1.121-.934-1.793,0-.15-.188-.281-.375-.281A.339.339,0,0,0,1131.182,335.068Z" transform="translate(-1082.355 -334.805)" fill="#ba68c8" fill-rule="evenodd"/>
        </g>
        <g id="Grupo_37406" data-name="Grupo 37406" transform="translate(65.51 695.964)">
          <path id="Trazado_69752" data-name="Trazado 69752" d="M971.418,748.852a4.979,4.979,0,0,0-2.43.822,6.52,6.52,0,0,0-1.119.972c-2.8,2.8-7.286,8.012-12.888,14.811-2.428,3.119-5.042,6.594-7.844,10.348a374.9,374.9,0,0,0-28.764,46.078c-5.043,9.731-10.273,19.125-14.756,29.025a153.02,153.02,0,0,0-7.1,20.658,1.189,1.189,0,0,0,.748,1.438,1.262,1.262,0,0,0,1.494-.766,138.834,138.834,0,0,1,6.164-14.792c5.417-11.394,11.394-22.339,17.369-33.526A328.027,328.027,0,0,1,940.6,793.211c4.855-7.209,9.711-13.877,14.008-19.816,5.975-8.443,11.206-15.223,14.38-19.331a12.5,12.5,0,0,0,2.056-2.559,10.443,10.443,0,0,0,.561-2.223.373.373,0,0,0,.186-.392C971.6,748.777,971.418,748.759,971.418,748.852Z" transform="translate(-896.471 -748.792)" fill="#ba68c8" fill-rule="evenodd"/>
        </g>
        <g id="Grupo_37407" data-name="Grupo 37407" transform="translate(63.504 814.25)">
          <path id="Trazado_69753" data-name="Trazado 69753" d="M898.8,909.069c0,.056.186.112.56.131,0-.15.186-.224.186-.206.187.038.374.187.187.337.372.093.56.131.56.131l.186.093v.206c0,.822-.374,1.643-.374,2.5a133.508,133.508,0,0,0-1.868,24.935c.188,6.294.934,12.439,2.99,17.613.934,2.223,1.868,4.445,2.988,6.667,1.122,2.055,2.242,4.072,3.361,6.127,1.682,3.193,3.363,6.406,4.858,9.469a1.163,1.163,0,0,1-.374,1.644,1.227,1.227,0,0,1-1.681-.411c-2.24-3.343-5.042-6.705-7.283-10.31a76.811,76.811,0,0,1-6.163-11.488,53.224,53.224,0,0,1-3.176-19.293,109.329,109.329,0,0,1,4.109-25.439c.186-.84.372-1.68.56-2.465.186-.056.186-.15.186-.168Z" transform="translate(-893.755 -908.991)" fill="#ba68c8" fill-rule="evenodd"/>
        </g>
        <g id="Grupo_37408" data-name="Grupo 37408" transform="translate(38.646 607.603)">
          <path id="Trazado_69754" data-name="Trazado 69754" d="M949.945,629.123l.374.149c.186.112.374.224.56.318,0,0,.186-.206.374-.131a.387.387,0,0,1,.186.374,1.992,1.992,0,0,0,.748.374v.018l.186.187c0,.374-.374.71-.56,1.065-1.494,3.68-2.053,7.751-3.176,11.618a25.437,25.437,0,0,1-4.109,8.76,26.418,26.418,0,0,1-5.79,5.417c-4.67,3.362-10.273,6.014-14.568,9.283a78.731,78.731,0,0,0-14.382,14.363A69.609,69.609,0,0,0,899.515,698.4a94.844,94.844,0,0,0-5.6,19.574c-1.681,10.179-2.428,20.49-4.3,31.005-2.242,12.7-5.043,25.065-9.339,36.832A119.792,119.792,0,0,1,868.7,809.923a78.652,78.652,0,0,1-6.723,9.208,1.071,1.071,0,0,1-1.5.261,1.166,1.166,0,0,1-.186-1.513c1.868-3.213,3.735-6.5,5.417-9.769a164.365,164.365,0,0,0,10.458-23.758,210.937,210.937,0,0,0,8.591-36.179c1.868-10.534,2.616-20.863,4.483-31.043a103.774,103.774,0,0,1,5.79-20.545,83.851,83.851,0,0,1,11.021-18.528,85.369,85.369,0,0,1,15.316-15.073c4.481-3.249,10.085-5.92,14.754-9.227a25.8,25.8,0,0,0,5.231-4.52c4.3-5.006,5.041-12.047,7.657-17.987a8.253,8.253,0,0,1,.934-1.924v-.205Z" transform="translate(-860.088 -629.123)" fill="#ba68c8" fill-rule="evenodd"/>
        </g>
        <g id="Grupo_37409" data-name="Grupo 37409" transform="translate(18.632 783.393)">
          <path id="Trazado_69755" data-name="Trazado 69755" d="M861.419,868.009c-1.122-.6-.187-.673-1.308-.8a1.505,1.505,0,0,0-.748.261c-1.68.616-3.362,1.139-5.043,1.606-2.8.729-5.6,1.457-8.217,2.353a22.1,22.1,0,0,0-6.537,3.493c-5.044,4.277-6.911,10.1-6.537,16.623.374,7.247,3.176,15.409,6.163,22.824,1.308,3.531,2.616,6.893,3.735,9.9.56,1.494,1.308,2.839,1.682,4.165a1.152,1.152,0,0,0,1.306,1.065,1.234,1.234,0,0,0,1.122-1.457,22.816,22.816,0,0,0-.56-4.8,69.158,69.158,0,0,0-3.176-10.422c-2.428-7.079-5.229-14.681-5.6-21.5-.187-5.025.934-9.582,4.856-12.907,2.8-2.409,6.725-3.231,10.46-4.37a35.369,35.369,0,0,0,5.229-1.867,8,8,0,0,0,3.362-1.943c.186-.094.186-.15.186-.281.374-1.158,0-.3-.186-1.475a.375.375,0,0,0,.186-.393C861.6,867.971,861.419,867.933,861.419,868.009Z" transform="translate(-832.982 -867.2)" fill="#ba68c8" fill-rule="evenodd"/>
        </g>
        <g id="Grupo_37410" data-name="Grupo 37410" transform="translate(24.757 840.232)">
          <path id="Trazado_69756" data-name="Trazado 69756" d="M898.329,990.408c-.56-.467-.934-1.083-1.308-1.382l-5.043-6.575a1.144,1.144,0,0,1,.188-1.494,1.062,1.062,0,0,1,1.494.224l5.6,5.847c.56.71,2.054,1.7,2.428,2.391.748,1.046.748,1.924-.56,2.6a18.8,18.8,0,0,1-6.537,2.578c-3.362.747-6.911.99-9.9,1.438-7.285.859-17.37,2.914-25.589,1.606-6.351-1.009-11.954-3.922-15.128-10.161-2.8-5.659-3.176-11.8-2.242-18.08a54.533,54.533,0,0,1,1.867-9.32c1.12-4.576,2.614-9.041,3.735-13.336a1.82,1.82,0,0,1,.186-.99c.374-.69.748-.784,1.308-1.345,0-.149.186-.242.374-.224s.186.149.186.3c.374.691.748.9.934,1.681.188.5-.186,1.009-.186,1.531-.56,4.315-1.494,8.835-2.428,13.392a62.568,62.568,0,0,0-1.868,12.925,26.72,26.72,0,0,0,2.24,11.431c2.429,4.819,6.725,6.892,11.768,7.733,7.843,1.363,17.37-.355,24.281-1.009,3.174-.206,6.538-.168,9.9-.673A18.6,18.6,0,0,0,898.329,990.408Z" transform="translate(-841.278 -944.179)" fill="#ba68c8" fill-rule="evenodd"/>
        </g>
        <g id="Grupo_37411" data-name="Grupo 37411" transform="translate(199.915 243.841)">
          <path id="Trazado_69757" data-name="Trazado 69757" d="M1124.571,139.434c-.375-.579-.188-.84-.748-1.27-.186-.261-.748-.317-1.12-.448a19.521,19.521,0,0,0-8.219-1.214,30.779,30.779,0,0,0-11.954,3.549,58.739,58.739,0,0,0-13.635,9.88,59.745,59.745,0,0,0-7.657,8.872c-.934,1.457-1.867,2.9-2.615,4.258a.89.89,0,0,0,.188,1.139.771.771,0,0,0,1.12-.149c1.12-1.121,2.242-2.223,3.549-3.456,2.428-2.485,5.042-5.192,8.031-7.826a68.743,68.743,0,0,1,12.7-9.451,30.786,30.786,0,0,1,10.647-3.492,19.52,19.52,0,0,1,7.1.337,4.807,4.807,0,0,0,1.12.224c.562-.018.748-.28,1.308-.448.188.056.188-.019.374-.149C1124.757,139.658,1124.757,139.49,1124.571,139.434Z" transform="translate(-1078.501 -136.468)" fill="#ba68c8" fill-rule="evenodd"/>
        </g>
        <g id="Grupo_37412" data-name="Grupo 37412" transform="translate(127.262 244.973)">
          <path id="Trazado_69758" data-name="Trazado 69758" d="M1053.439,165.387a11.13,11.13,0,0,0-1.12-3.4c-4.3-7.583-14.382-12.794-23.907-17.165a80.6,80.6,0,0,0-18.865-5.921,53.942,53.942,0,0,0-13.446-.766c-8.033.784-12.7,5.622-14.756,12.01a29.806,29.806,0,0,0,.933,19.686,23.574,23.574,0,0,0,4.67,7.079c.186.262.56.28.934.075a.7.7,0,0,0,0-.84,27.822,27.822,0,0,1-3.735-7.957c-1.308-4.2-2.054-8.779-1.308-12.981,1.122-6.967,5.417-12.776,13.634-12.944a54.7,54.7,0,0,1,12.14,1.252,91.454,91.454,0,0,1,17.744,5.622c9.339,3.885,16.81,10.2,23.535,15.035,1.12.729,2.054.934,2.988,1.532.187.131.374.149.374.056A.361.361,0,0,0,1053.439,165.387Z" transform="translate(-980.103 -138.001)" fill="#ba68c8" fill-rule="evenodd"/>
        </g>
        <g id="Grupo_37413" data-name="Grupo 37413" transform="translate(107.834 282.654)">
          <path id="Trazado_69759" data-name="Trazado 69759" d="M981,190.841v.019c0,.093-.186.093-.374.131a21.317,21.317,0,0,1-2.428,1.064c-3.549,1.476-7.286,3.027-10.833,4.763a52.517,52.517,0,0,0-9.9,5.958c-.561.411-.933,1.121-1.681,1.271-.56.13-.374-.112-.934-.244-.186.262-.56.244-.934-.018a.629.629,0,0,1,.186-.915c-.186-.58-.372-.467-.186-1.028,0-.205.186-.3.374-.448a35.259,35.259,0,0,1,9.151-6.332,84.45,84.45,0,0,1,15.13-5.566c.56-.149,1.12-.617,1.68-.411a.763.763,0,0,0,.374.13h-.186c-.374.056.374.56.374.6.186.224,0,.317,0,.411v.411Z" transform="translate(-953.792 -189.034)" fill="#ba68c8" fill-rule="evenodd"/>
        </g>
        <g id="Grupo_37414" data-name="Grupo 37414" transform="translate(111.925 294.033)">
          <path id="Trazado_69760" data-name="Trazado 69760" d="M959.848,215.568a15.639,15.639,0,0,0,2.24-.261c5.6-1.83,11.02-4.613,17-5.51a136.722,136.722,0,0,1,20.358-1.084c9.527-.093,19.051.374,28.579.467q6.161.028,12.326-.187c6.723-.355,14.008.131,21.105-.523a52.3,52.3,0,0,0,14.008-3.194c.188-.056.374-.281.188-.485a.261.261,0,0,0-.374-.244,52.232,52.232,0,0,1-10.461,1.084c-1.494.018-3.173-.056-4.855-.075-6.537-.131-13.26-.541-19.8-.5-9.339.168-18.865-.336-28.39-.541-4.11-.094-8.219-.075-12.328-.019-7.843.206-16.81.56-25.027,2.653a39.971,39.971,0,0,0-12.7,5.192,8.143,8.143,0,0,0-1.122.784,7.869,7.869,0,0,0-1.12,2.017c-.188.075-.188.243,0,.374C959.474,215.624,959.66,215.661,959.848,215.568Z" transform="translate(-959.333 -204.445)" fill="#ba68c8" fill-rule="evenodd"/>
        </g>
        <g id="Grupo_37415" data-name="Grupo 37415" transform="translate(114.085 250.557)">
          <path id="Trazado_69761" data-name="Trazado 69761" d="M982.092,180.346a3.266,3.266,0,0,0-.562.168c-.371.149-.933-.3-1.305-.486a28.7,28.7,0,0,1-11.581-10.049,39.39,39.39,0,0,1-4.483-9.058,44.562,44.562,0,0,1-1.868-14.663.621.621,0,0,1,.561-.691.669.669,0,0,1,.748.617,43.362,43.362,0,0,0,4.3,12.869,52.951,52.951,0,0,0,2.615,4.969,32.751,32.751,0,0,0,11.581,11.636c.372.242.934.3,1.12.747.934,1.923.748.859.374.691-.188-.112-.56.075-.747,1.251.188.056.188.224.188.355-.187.149-.187.205-.374.149C980.6,182.139,984.894,179.468,982.092,180.346Z" transform="translate(-962.258 -145.565)" fill="#ba68c8" fill-rule="evenodd"/>
        </g>
        <g id="Grupo_37416" data-name="Grupo 37416" transform="translate(97.124 236.851)">
          <path id="Trazado_69762" data-name="Trazado 69762" d="M939.661,129.916a9.478,9.478,0,0,0,1.867.392,8.75,8.75,0,0,0,1.306-.187,89.316,89.316,0,0,1,11.954-1.606.81.81,0,0,0,.748-.785.744.744,0,0,0-.748-.728,68.7,68.7,0,0,0-10.833.933,16.152,16.152,0,0,0-2.8.467c-.56.242-.934.634-1.682.971,0,.018-.186.168-.186.318S939.473,129.935,939.661,129.916Z" transform="translate(-939.287 -127.002)" fill="#ba68c8" fill-rule="evenodd"/>
        </g>
        <g id="Grupo_37417" data-name="Grupo 37417" transform="translate(190.439 222.372)">
          <path id="Trazado_69763" data-name="Trazado 69763" d="M1073.4,156.276h0v-.186c0-.6.188-1.177.188-1.757.186-2.391.372-4.688.56-6.929a94.628,94.628,0,0,0-.56-10.4,101.608,101.608,0,0,0-3.55-14.326c-1.308-4.595-2.8-9.32-4.3-14.344a.628.628,0,0,1,.374-.9.758.758,0,0,1,.934.43c2.054,4.856,4.107,9.4,5.79,13.877a86.165,86.165,0,0,1,4.3,14.681,54.832,54.832,0,0,1,.748,11.132,52.563,52.563,0,0,1-1.122,7.378c-.186.6-.372,1.176-.56,1.774v.187h-.186c9.524,2.2,4.855,4.875.186,5.678-.186.953-1.308.859-2.8.224-1.68-.056-2.8-.485-2.614-1.438-3.923-2.708-6.911-7.1,2.614-5.08l.56.8c.188.243.188.5.374.747l.188.037c.186-.168.56-.317.746-.485l.748-.486c-.188-.075-.561-.15-.934-.243-.188.149-.188.243-.374.205-.186-.018-.186-.168-.186-.317C1074.145,156.444,1073.771,156.351,1073.4,156.276Z" transform="translate(-1065.666 -107.393)" fill="#ba68c8" fill-rule="evenodd"/>
        </g>
        <g id="Grupo_37418" data-name="Grupo 37418" transform="translate(141.776 284.868)">
          <path id="Trazado_69764" data-name="Trazado 69764" d="M1000.038,193.192a12.589,12.589,0,0,0,1.582,1.315,12.243,12.243,0,0,0,2.561,1.2,37.077,37.077,0,0,0,6.374,1.582,39.9,39.9,0,0,0,4.324.49,95.858,95.858,0,0,0,23.151-1.716.5.5,0,0,0,.425-.557.467.467,0,0,0-.536-.423,117.307,117.307,0,0,1-23.665-1.805c-1-.178-1.982-.334-2.985-.468-2.364-.267-4.681-.6-7.063-.758a14.278,14.278,0,0,0-1.939.022,20.924,20.924,0,0,0-2.05.446.37.37,0,0,0-.447.245A.351.351,0,0,0,1000.038,193.192Z" transform="translate(-999.76 -192.033)" fill="#ba68c8" fill-rule="evenodd"/>
        </g>
        <g id="Grupo_37419" data-name="Grupo 37419" transform="translate(216.965 288.18)">
          <path id="Trazado_69765" data-name="Trazado 69765" d="M1101.773,197.619a1.719,1.719,0,0,0,1.2.178,4.369,4.369,0,0,0,.936-.4.467.467,0,0,0,.268-.58.446.446,0,0,0-.581-.267l-1.582.512a.3.3,0,1,0-.244.557Z" transform="translate(-1101.591 -196.519)" fill="#ba68c8" fill-rule="evenodd"/>
        </g>
        <g id="Grupo_37420" data-name="Grupo 37420" transform="translate(123.128 186.461)">
          <path id="Trazado_69766" data-name="Trazado 69766" d="M1013.418,65.916c-.2-.089-.111-.445-.646-.779a24.763,24.763,0,0,0-3.789-1.4c-1.626-.6-3.253-1.092-3.989-1.314a85.409,85.409,0,0,0-11.7-2.3c-5.949-.735-12.077-.913-17.6-1.359a1.075,1.075,0,0,0-.224,2.139c3.856.58,8,1.181,12.19,1.738,2.718.38,5.414.713,8.089,1.114,2.918.446,5.792.914,8.488,1.582,1.4.267,6.106,2.317,8.156,1.827.646-.156.579-.467.935-.624.09-.044.179,0,.246-.022a.3.3,0,0,0,.222-.379A.331.331,0,0,0,1013.418,65.916Z" transform="translate(-974.505 -58.757)" fill="#ba68c8" fill-rule="evenodd"/>
        </g>
        <g id="Grupo_37421" data-name="Grupo 37421" transform="translate(122.899 164.544)">
          <path id="Trazado_69767" data-name="Trazado 69767" d="M974.568,29.473a4.574,4.574,0,0,0-.374,1.55.58.58,0,0,0,.186.5A40.494,40.494,0,0,0,977,37.56c.748,2.017,1.494,4.053,2.428,6.126a219.4,219.4,0,0,1,7.845,25.14c1.681,6.724,2.987,13.523,4.3,20.3,1.122,6.93,2.428,13.785,3.362,20.508a1.317,1.317,0,0,0,1.308,1.009,1.078,1.078,0,0,0,.934-1.288c-.56-6.538-1.12-13.243-2.053-19.985a228.541,228.541,0,0,0-5.978-29.623,171.679,171.679,0,0,0-5.789-17.314,105.875,105.875,0,0,0-5.417-10.89,5.79,5.79,0,0,0-1.12-1.737c-.748-.5-.934-.336-1.681-.6-.186-.13-.374-.168-.374-.111C974.568,29.174,974.568,29.342,974.568,29.473Z" transform="translate(-974.195 -29.074)" fill="#ba68c8" fill-rule="evenodd"/>
        </g>
        <g id="Grupo_37422" data-name="Grupo 37422" transform="translate(127.312 165.066)">
          <path id="Trazado_69768" data-name="Trazado 69768" d="M1001.907,112.53c.56-.374.748-.243.934-.766.56-1.009.374-2.3.374-3.456,1.12-13.205-.56-26.111-3.735-38.57A167.251,167.251,0,0,0,987.151,37.5a29.412,29.412,0,0,0-2.987-5.268c-.56-.746-1.308-1.232-1.868-1.887a1.114,1.114,0,0,0-1.494-.429,1.2,1.2,0,0,0-.56,1.475,12.914,12.914,0,0,0,.56,2.634,30.87,30.87,0,0,0,2.614,5.361c4.857,10.179,9.339,20.545,12.329,31.322a119.874,119.874,0,0,1,4.855,37.467c0,1.121-.374,2.316,0,3.38.188.56.374.467.748.916,0,.149.185.281.374.3A.3.3,0,0,0,1001.907,112.53Z" transform="translate(-980.171 -29.781)" fill="#ba68c8" fill-rule="evenodd"/>
        </g>
        <g id="Grupo_37423" data-name="Grupo 37423" transform="translate(199.103 176.203)">
          <path id="Trazado_69769" data-name="Trazado 69769" d="M1078.335,45.184c-.374.56-.561.28-.934,1.009,0,.392.188.822.188,1.232a97.272,97.272,0,0,0,4.855,17.875,84.65,84.65,0,0,0,4.3,9.432,59.83,59.83,0,0,0,5.977,8.443.772.772,0,0,0,1.12.242.975.975,0,0,0,.374-1.176c-1.68-3.007-2.8-6.108-4.3-9.171-1.308-3.044-2.8-6.032-3.922-9.1a135.224,135.224,0,0,1-5.417-17.146c-.186-.392-.186-.84-.374-1.158-.56-.579-.56-.243-1.308-.579a.26.26,0,0,0-.186-.224C1078.522,44.9,1078.335,45.035,1078.335,45.184Z" transform="translate(-1077.401 -44.864)" fill="#ba68c8" fill-rule="evenodd"/>
        </g>
        <g id="Grupo_37424" data-name="Grupo 37424" transform="translate(191.617 175.55)">
          <path id="Trazado_69770" data-name="Trazado 69770" d="M1068.211,44.261c-.374.411-.56.355-.746.9a.683.683,0,0,0-.187.578c-.186,4.446,1.308,8.685,3.175,12.7,2.8,6.462,7.285,12.309,11.207,18.024,2.053,2.746,3.921,5.6,5.977,8.144a22.389,22.389,0,0,0,2.987,2.951,27,27,0,0,0,2.242,1.55.817.817,0,0,0,1.12-.093,1.077,1.077,0,0,0,0-1.065,16.526,16.526,0,0,1-1.68-2.092c-.748-1.027-1.494-2.017-2.242-3.064-2.054-2.671-3.735-5.472-5.6-8.255-3.176-4.651-6.537-9.451-9.339-14.494a42.889,42.889,0,0,1-5.229-14.158,1.357,1.357,0,0,0-.187-.84c-.186-.5-.372-.411-.934-.8a.338.338,0,0,0-.186-.261C1068.4,43.981,1068.211,44.112,1068.211,44.261Z" transform="translate(-1067.262 -43.979)" fill="#ba68c8" fill-rule="evenodd"/>
        </g>
        <g id="Grupo_37425" data-name="Grupo 37425" transform="translate(128.876 394.002)">
          <path id="Trazado_69771" data-name="Trazado 69771" d="M982.476,351.793c.188.225.188.392.374.56,1.12,1.139,2.988,1.419,4.67,2.017,3.922,1.475,8.219,2.465,12.326,3.679,5.417,1.663,11.021,3.456,16.624,4.688a64.177,64.177,0,0,0,11.581,1.569,87.739,87.739,0,0,0,12.326-.541c5.977-.654,11.954-1.794,18.117-2.783,10.087-1.7,20.172-3.96,29.51-7.938a63.1,63.1,0,0,0,15.876-9.433c.374-.317.934-.523,1.122-.989.186-.635,0-.411-.187-1.1a.948.948,0,0,0,.188-1.177.8.8,0,0,0-1.122-.094c-.746-.261-.374-.486-1.12-.392-.56.094-.933.766-1.494,1.159a73.6,73.6,0,0,1-19.425,10.31,139.176,139.176,0,0,1-24.1,5.865c-5.975,1.009-11.767,2.129-17.744,2.858a93.655,93.655,0,0,1-11.952.746,62.984,62.984,0,0,1-11.021-1.12c-5.6-.99-11.206-2.465-16.622-3.829-2.989-.728-5.977-1.363-8.967-2.11-2.614-.673-5.041-1.887-7.657-2.409a7.588,7.588,0,0,0-1.12-.038c0-.056-.187,0-.374.131C982.29,351.55,982.29,351.719,982.476,351.793Z" transform="translate(-982.29 -339.837)" fill="#ba68c8" fill-rule="evenodd"/>
        </g>
        <g id="Grupo_37426" data-name="Grupo 37426" transform="translate(201.531 396.144)">
          <path id="Trazado_69772" data-name="Trazado 69772" d="M1081.062,424.069c.748.075.934.3,1.494.187,1.682-.261,2.99-1.438,4.483-2.259a36.6,36.6,0,0,0,7.658-5.66,33.983,33.983,0,0,0,3.735-4.613c2.429-3.661,4.484-7.844,6.725-11.449a140.567,140.567,0,0,0,8.779-16.567c4.669-10.5,8.777-21.292,13.26-31.828.561-1.046.934-2.091,1.494-3.156a50.3,50.3,0,0,1,1.682-4.894.765.765,0,0,0-.374-1.009.66.66,0,0,0-.934.318,61.393,61.393,0,0,0-3.549,5.23,60.662,60.662,0,0,0-2.614,5.6c-6.725,14.9-11.767,30.687-20.36,44.7-1.867,3.082-3.547,6.594-5.6,9.843a30,30,0,0,1-4.3,5.7,39.63,39.63,0,0,1-6.351,4.855c-1.494,1.009-2.988,1.961-4.482,2.989a3.181,3.181,0,0,0-.56.374c-.374.448-.188.653-.374,1.158-.188.075-.188.243-.188.374C1080.876,424.088,1081.062,424.144,1081.062,424.069Z" transform="translate(-1080.689 -342.737)" fill="#ba68c8" fill-rule="evenodd"/>
        </g>
        <g id="Grupo_37427" data-name="Grupo 37427" transform="translate(112.03 415.076)">
          <path id="Trazado_69773" data-name="Trazado 69773" d="M1047.3,430.8l-.188-.093c-.186-.206-.186-.748-.372-1.121a37.879,37.879,0,0,0-4.109-6.182c-.934-1.308-2.056-2.652-3.176-3.941-3.362-3.811-7.1-7.3-10.087-10.124-2.428-2.26-4.855-4.37-7.471-6.388-3.922-3.063-7.843-5.9-11.953-8.722-8.592-5.921-18.3-12.459-28.576-17.053a86.26,86.26,0,0,0-14.382-4.838c-2.242-.541-4.3-1.158-6.351-1.513-.746-.056-1.308-.617-1.12-1.27a1.087,1.087,0,0,1,1.12-1.121,39.279,39.279,0,0,1,7.1.243c5.231.747,10.273,2.69,15.316,4.875,10.461,4.595,20.36,11.263,29.139,17.277,4.3,2.877,8.4,5.772,12.326,8.891,2.616,2.092,5.23,4.258,7.658,6.612,4.3,4.071,10.272,9.357,14.008,15.2a26.794,26.794,0,0,1,3.549,7.49,1.778,1.778,0,0,1,.373.821l-.187.112-.186.056c-.186.056-.561.206-.748.281-.186.037,0,.3-.186.355s-.374-.188-.374-.188a3.213,3.213,0,0,0-1.12.337Z" transform="translate(-959.474 -368.378)" fill="#ba68c8" fill-rule="evenodd"/>
        </g>
        <g id="Grupo_37428" data-name="Grupo 37428" transform="translate(197.599 354.454)">
          <path id="Trazado_69774" data-name="Trazado 69774" d="M1078.769,286.492c-.068-.29-.468-.446.536.579.221.2.089.58.133.891a54.876,54.876,0,0,1,.334,6.885c-.046,1.56-.357,3.053-.513,4.59a1.207,1.207,0,0,1-2.407.178,40.044,40.044,0,0,1-1.068-4.568,64.081,64.081,0,0,1-.357-6.841c0-.312-.156-.646.021-.891.847-1.136.493-.936.447-.646-.043.223.111.49,1.181.156a.289.289,0,0,1,.244-.289.314.314,0,0,1,.313.245C1078.725,286.959,1078.836,286.692,1078.769,286.492Z" transform="translate(-1075.363 -286.275)" fill="#ba68c8" fill-rule="evenodd"/>
        </g>
      </g>
    </g>
  </g>
</svg>
