<svg xmlns="http://www.w3.org/2000/svg" width="235" height="193.28" viewBox="0 0 235 193.28">
  <g id="Grupo_35585" data-name="Grupo 35585" transform="translate(-845.998 -1331.08)" style="isolation: isolate">
    <g id="Grupo_35582" data-name="Grupo 35582" transform="translate(845.998 1331.08)">
      <path id="Trazado_67913" data-name="Trazado 67913" d="M1252.224,1479.836s5.057,14.918-7.362,16.857-44.012,7.1-44.012,7.1l-13.568,32.654s6.369,59.916,7.226,61.635,8.4,37.528,8.4,37.528l108.356,3.674,28.231-88.549s8.583-38.84-49.233-53.08l-17.091.492Z" transform="translate(-1147.71 -1462.588)" fill="#ffb685"/>
      <path id="Trazado_67914" data-name="Trazado 67914" d="M1723.487,1366.081c.681,1.625,13.328,18.6,18.9,18.82s19.111-18.866,19.111-18.866Z" transform="translate(-1621.742 -1361.982)" fill="#ed784f"/>
      <path id="Trazado_67915" data-name="Trazado 67915" d="M1485.233,1395.907c-.719,1.8.135,20.2-2.515,24.285-2.411,3.72-33.63,5.68-32.37,7.851s32.426,3.02,36.815,5.051,10.4,11.144,15.3,10.958,9.6-8.664,15.494-10.035,29.113-.962,30.313-2.4-25.129-6.817-28.971-9.861c-3.257-2.577-1.568-24.417-3.077-24.8s-9.893,13.794-15.232,14.122C1497.006,1411.322,1485.6,1395,1485.233,1395.907Z" transform="translate(-1380.241 -1388.358)" fill="#ffb685"/>
      <path id="Trazado_67916" data-name="Trazado 67916" d="M2367.161,1854.72h32.305c-5.341-40.172-14.265-108.63-15.725-121.377-2.048-17.886-17.024-30.62-30.9-28.3-3.042.51-8.786,1.419-15.446,2.495l11.793,63.4C2353.152,1789.243,2361,1826.811,2367.161,1854.72Z" transform="translate(-2164.467 -1661.439)" fill="#ff966c"/>
      <path id="Trazado_67917" data-name="Trazado 67917" d="M877.6,1818.311c6.4-28.241,15.118-69.186,19.314-88.562l11.794-63.4c-6.661-1.075-12.405-1.984-15.447-2.494-13.876-2.318-28.854,10.414-30.9,28.3-1.523,13.3-11.128,86.9-16.361,126.153Z" transform="translate(-845.998 -1625.031)" fill="#ff966c"/>
      <path id="Trazado_67918" data-name="Trazado 67918" d="M1184.98,1672.036c8-1.7,18.187,2.959,34.76,4.356s21.2,1.7,28.687,6.989,13.055,4.82,22.2-.721,11.658-9.121,28.2-9.355,21.045,2.578,34,4.9c9.489,1.7,14,24.422,3.749,31.349s-17.921,14.145-13.1,27.581-2.05,40.149-27.833,40.358-41.256-26.182-25.764-45.287c-14.518,7.89-17.455,30.339-6.893,41.688-4.872,2.45-19.1,1-21.912-1.516,10.6-9.211,10.423-33.172-2.367-41.474,8.226,8.131,7.334,38.047-16.215,41.074-24.393,3.135-44.361-10.791-41-27.942s11.585-29.678,1.224-34.489S1168.059,1675.635,1184.98,1672.036Z" transform="translate(-1135.615 -1632.177)" fill="#ffb685"/>
      <path id="Trazado_67919" data-name="Trazado 67919" d="M1717.991,1331.08a60.635,60.635,0,0,1-6.429,6.367c-5.438,4.614-11.885,8.252-18.047,8.252-3.958,0-8.047-1.5-11.915-3.792-1.021-.6-2.025-1.264-3.008-1.966l-.281-.2a58.176,58.176,0,0,1-9.392-8.659Z" transform="translate(-1573.502 -1331.08)" fill="#ff966c"/>
      <path id="Trazado_67920" data-name="Trazado 67920" d="M1734.323,1331.08a53.725,53.725,0,0,1-4.08,4.056c-5.275,4.709-11.857,8.68-17.9,8.68s-12.635-3.947-17.935-8.637a53.961,53.961,0,0,1-4.153-4.1Z" transform="translate(-1592.358 -1331.08)" fill="#ffb685"/>
      <path id="Trazado_67921" data-name="Trazado 67921" d="M2482.656,1734.867c-3.431,14.458,4.9,45.333,6.43,71.011,1,16.834,4.246,36.365,7.465,51.55h22.4c-1.84-12.382-3.955-28.373-5.42-42.432-2.449-23.525-10.536-59.3-10.781-76.454s-13-31.552-24.212-30.671C2466.578,1708.814,2486.086,1720.41,2482.656,1734.867Z" transform="translate(-2285.773 -1664.149)" fill="#ffb685"/>
      <path id="Trazado_67922" data-name="Trazado 67922" d="M1396.177,2659.983a186.531,186.531,0,0,0,9.326-29.054c-8.661,1.63-28.316-5.447-33.313-12.629-7.278.646-33.047-2.65-33.047-2.65-8.115,9.705-33.139,14.814-49.038,6.718,1.143,7.834,5.376,23.135,8.118,37.615Z" transform="translate(-1238.611 -2466.703)" fill="#ffb685"/>
      <path id="Trazado_67923" data-name="Trazado 67923" d="M883.049,1819.488c3.534-15.7,7.4-37.668,8.509-56.327,1.529-25.678,9.862-56.554,6.43-71.011s16.079-26.053,4.119-26.995c-11.212-.881-23.968,13.517-24.213,30.669s-8.332,52.93-10.781,76.455c-1.661,15.944-4.159,34.374-6.143,47.208Z" transform="translate(-859.234 -1626.386)" fill="#ffb685"/>
      <g id="Grupo_35581" data-name="Grupo 35581" transform="translate(36.279 33.658)">
        <path id="Trazado_67924" data-name="Trazado 67924" d="M1424.174,1959.461c.852,17.941,24.1,61.116,40.793,71.612,25.9-14.767,43.781-54.7,48.313-74.568,5.33,16.523,6.213,27.793,6.213,27.793-2,19.985-16.034,41.809-36.7,47.352-11.278,1.369-36.91-2.025-36.91-2.025-21.239-9.427-29.873-49.372-28.985-55.312C1420.227,1962.588,1424.174,1959.461,1424.174,1959.461Z" transform="translate(-1386.922 -1917.644)" fill="#170b08" opacity="0.6"/>
        <path id="Trazado_67925" data-name="Trazado 67925" d="M1187.9,2096.8l-29.021,25.423s4.388,45.031,57.833,30.894L1220,2150.4s-27.731-28-28.79-51.087Z" transform="translate(-1158.882 -2041.672)" fill="#170b08"/>
        <path id="Trazado_67926" data-name="Trazado 67926" d="M2024.535,2127.186l27.97,28.806s-8.257,46.44-62.46,27.358l-3.177-3.094s31.037-26.819,34.037-50.729Z" transform="translate(-1890.862 -2068.534)" fill="#170b08"/>
        <path id="Trazado_67927" data-name="Trazado 67927" d="M1664.856,2557.482c4.83,2.721,30.646,3.659,40.627,2.767,3.879,1.916-.557,3.215-.557,3.215-12.212,2.964-36.615-1.477-40.75-2.2S1664.856,2557.482,1664.856,2557.482Z" transform="translate(-1604.106 -2448.937)" fill="#170b08"/>
        <path id="Trazado_67928" data-name="Trazado 67928" d="M2100.065,1693.5s-13.287-47.824-20.75-57.909c-3.122-2.279-3.919-2.961-3.919-2.961,5.93-1.645,9.82,1.735,28.693,60.11C2105.846,1702.015,2100.065,1693.5,2100.065,1693.5Z" transform="translate(-1969.126 -1631.063)" fill="#170b08"/>
        <path id="Trazado_67929" data-name="Trazado 67929" d="M1401.272,1679.571s17.1-45.49,25.375-55.043c3.3-2.057,4.151-2.683,4.151-2.683-5.773-2.042-9.818-.228-33.469,56.693C1394.8,1687.671,1401.272,1679.571,1401.272,1679.571Z" transform="translate(-1369.164 -1621.355)" fill="#170b08"/>
        <path id="Trazado_67930" data-name="Trazado 67930" d="M1267.117,2118.494c3.684,16.464,17.582,41.281,25.138,48.99-23.572,14.681-47.691-4.056-45.3-22.941C1249.3,2126.074,1263.974,2118.135,1267.117,2118.494Z" transform="translate(-1236.6 -2060.84)" fill="#38201b"/>
        <path id="Trazado_67931" data-name="Trazado 67931" d="M2079.063,2142.91c-4.709,16.23-18.886,38.544-26.914,45.822,22.611,15.961,44.811-1.963,44.435-18.837C2096.169,2151.3,2082.223,2142.723,2079.063,2142.91Z" transform="translate(-1948.575 -2082.433)" fill="#38201b"/>
        <path id="Trazado_67932" data-name="Trazado 67932" d="M1453.011,1668.061c.373-2.134-24.091,46.833-22,47.619S1452.529,1670.815,1453.011,1668.061Z" transform="translate(-1399.342 -1662.585)" fill="#38201b"/>
        <path id="Trazado_67933" data-name="Trazado 67933" d="M2129.875,1665.818c-.224-2.151,20.777,48.213,18.641,48.869S2130.165,1668.6,2129.875,1665.818Z" transform="translate(-2017.287 -1660.603)" fill="#38201b"/>
        <path id="Trazado_67934" data-name="Trazado 67934" d="M1748.284,2582.6c-15.234-.6-13.851,1.83,1.485,2.676S1760.919,2583.093,1748.284,2582.6Z" transform="translate(-1670.442 -2471.059)" fill="#38201b"/>
      </g>
      <path id="Trazado_67935" data-name="Trazado 67935" d="M2404.174,2015.705l-17.409,21.731,18.67,19.386Z" transform="translate(-2208.112 -1936.323)" fill="#ff966c"/>
      <path id="Trazado_67936" data-name="Trazado 67936" d="M1173.958,1942.408l23.289,19.164-26.166,22.922Z" transform="translate(-1133.387 -1871.524)" fill="#ff966c"/>
    </g>
    <g id="Grupo_35583" data-name="Grupo 35583" transform="translate(947.779 1444.05)">
      <path id="Trazado_67937" data-name="Trazado 67937" d="M1723.884,2327.388a3.455,3.455,0,0,0,1.032-.893c.349-.389.707-.772,1.042-1.174a26.782,26.782,0,0,0,1.8-2.445,27.541,27.541,0,0,0,2.694-5.407,23.065,23.065,0,0,0,1.43-11.9c-.054-.316-.516-.217-.534.072a39.907,39.907,0,0,1-2.17,11.677,30.342,30.342,0,0,1-2.633,5.3c-.507.823-1.07,1.6-1.638,2.386-.479.658-1.223,1.476-1.1,2.355.005.038.052.045.08.033Z" transform="translate(-1723.791 -2305.373)" fill="#d2734e"/>
    </g>
    <g id="Grupo_35584" data-name="Grupo 35584" transform="translate(967.912 1444.05)">
      <path id="Trazado_67938" data-name="Trazado 67938" d="M1905.77,2327.353c.122-.879-.622-1.7-1.1-2.355-.568-.782-1.13-1.563-1.638-2.386a30.334,30.334,0,0,1-2.633-5.3,39.9,39.9,0,0,1-2.17-11.677c-.017-.287-.479-.392-.534-.073a23.064,23.064,0,0,0,1.43,11.9,27.539,27.539,0,0,0,2.694,5.406,26.736,26.736,0,0,0,1.8,2.445c.335.4.693.785,1.042,1.174a3.452,3.452,0,0,0,1.032.893c.028.013.075.005.08-.033Z" transform="translate(-1897.429 -2305.37)" fill="#d2734e"/>
    </g>
  </g>
</svg>
