<svg id="Grupo_1098937" data-name="Grupo 1098937" xmlns="http://www.w3.org/2000/svg" xmlns:xlink="http://www.w3.org/1999/xlink" width="335" height="268.387" viewBox="0 0 335 268.387">
  <defs>
    <clipPath id="clip-path">
      <rect id="Rectángulo_388822" data-name="Rectángulo 388822" width="335" height="268.386" fill="none"/>
    </clipPath>
  </defs>
  <path id="Trazado_774263" data-name="Trazado 774263" d="M144.6,251.181h-3.179v2.948h3.543v.885h-4.6v-8.177h4.416v.885h-3.361v2.584H144.6Z" transform="translate(-54.186 -95.285)"/>
  <g id="Grupo_1098936" data-name="Grupo 1098936">
    <g id="Grupo_1098935" data-name="Grupo 1098935" clip-path="url(#clip-path)">
      <path id="Trazado_774264" data-name="Trazado 774264" d="M148.833,255.288a2.8,2.8,0,0,0,1.407.424c.777,0,1.141-.387,1.141-.873,0-.51-.3-.789-1.092-1.08-1.055-.376-1.553-.958-1.553-1.662a1.811,1.811,0,0,1,2.027-1.723,2.923,2.923,0,0,1,1.443.364l-.266.776a2.285,2.285,0,0,0-1.2-.34c-.631,0-.983.364-.983.8,0,.486.352.7,1.116,1,1.019.388,1.54.9,1.54,1.771,0,1.031-.8,1.76-2.2,1.76a3.352,3.352,0,0,1-1.65-.4Z" transform="translate(-57.35 -96.65)"/>
      <path id="Trazado_774265" data-name="Trazado 774265" d="M156.241,252.425c0-.752-.024-1.359-.049-1.917h.959l.048,1.007h.024a2.309,2.309,0,0,1,2.086-1.141c1.42,0,2.487,1.2,2.487,2.985,0,2.11-1.286,3.154-2.669,3.154a2.059,2.059,0,0,1-1.808-.922H157.3v3.191h-1.056Zm1.056,1.565a2.43,2.43,0,0,0,.048.437,1.648,1.648,0,0,0,1.6,1.249c1.128,0,1.784-.922,1.784-2.268,0-1.177-.619-2.185-1.747-2.185a1.7,1.7,0,0,0-1.614,1.322,1.746,1.746,0,0,0-.072.437Z" transform="translate(-60.294 -96.65)"/>
      <path id="Trazado_774266" data-name="Trazado 774266" d="M169.683,256.38l-.085-.74h-.036a2.189,2.189,0,0,1-1.8.874,1.674,1.674,0,0,1-1.8-1.687c0-1.42,1.262-2.2,3.53-2.184v-.122a1.21,1.21,0,0,0-1.334-1.359,2.918,2.918,0,0,0-1.529.437l-.243-.7a3.651,3.651,0,0,1,1.93-.521c1.8,0,2.232,1.225,2.232,2.4v2.2a8.238,8.238,0,0,0,.1,1.407Zm-.158-3c-1.165-.024-2.487.182-2.487,1.323a.944.944,0,0,0,1.007,1.019,1.461,1.461,0,0,0,1.42-.982,1.119,1.119,0,0,0,.061-.34Z" transform="translate(-64.068 -96.65)"/>
      <rect id="Rectángulo_388818" data-name="Rectángulo 388818" width="1.068" height="8.613" transform="translate(107.724 151.116)"/>
      <path id="Trazado_774267" data-name="Trazado 774267" d="M184.129,246.127v7.1c0,.522.012,1.116.048,1.517h-.958l-.049-1.019h-.025a2.173,2.173,0,0,1-2,1.153c-1.42,0-2.511-1.2-2.511-2.985-.012-1.953,1.2-3.154,2.633-3.154a1.963,1.963,0,0,1,1.771.9h.024v-3.506Zm-1.068,5.132a1.921,1.921,0,0,0-.048-.449,1.571,1.571,0,0,0-1.541-1.238c-1.1,0-1.759.971-1.759,2.269,0,1.189.582,2.172,1.734,2.172a1.606,1.606,0,0,0,1.566-1.274,1.885,1.885,0,0,0,.048-.461Z" transform="translate(-68.956 -95.011)"/>
      <path id="Trazado_774268" data-name="Trazado 774268" d="M192.638,256.38l-.085-.74h-.036a2.189,2.189,0,0,1-1.8.874,1.674,1.674,0,0,1-1.8-1.687c0-1.42,1.262-2.2,3.53-2.184v-.122a1.21,1.21,0,0,0-1.334-1.359,2.918,2.918,0,0,0-1.529.437l-.243-.7a3.651,3.651,0,0,1,1.93-.521c1.8,0,2.232,1.225,2.232,2.4v2.2a8.241,8.241,0,0,0,.1,1.407Zm-.158-3c-1.165-.024-2.487.182-2.487,1.323A.944.944,0,0,0,191,255.725a1.461,1.461,0,0,0,1.42-.982,1.119,1.119,0,0,0,.061-.34Z" transform="translate(-72.929 -96.65)"/>
      <path id="Trazado_774269" data-name="Trazado 774269" d="M201.76,250.592l1.152,3.3a15.074,15.074,0,0,1,.473,1.5h.037c.134-.485.3-.97.5-1.5l1.14-3.3h1.116l-2.3,5.871h-1.019l-2.232-5.871Z" transform="translate(-77.444 -96.734)"/>
      <path id="Trazado_774270" data-name="Trazado 774270" d="M211.621,247.485a.661.661,0,0,1-1.322,0,.65.65,0,0,1,.667-.667.633.633,0,0,1,.655.667m-1.189,1.65H211.5v5.871h-1.068Z" transform="translate(-81.18 -95.277)"/>
      <path id="Trazado_774271" data-name="Trazado 774271" d="M213.943,255.288a2.8,2.8,0,0,0,1.407.424c.777,0,1.141-.387,1.141-.873,0-.51-.3-.789-1.092-1.08-1.055-.376-1.553-.958-1.553-1.662a1.811,1.811,0,0,1,2.027-1.723,2.923,2.923,0,0,1,1.443.364l-.266.776a2.285,2.285,0,0,0-1.2-.34c-.631,0-.983.364-.983.8,0,.486.352.7,1.116,1,1.019.388,1.54.9,1.54,1.771,0,1.031-.8,1.76-2.2,1.76a3.352,3.352,0,0,1-1.65-.4Z" transform="translate(-82.484 -96.65)"/>
      <path id="Trazado_774272" data-name="Trazado 774272" d="M222.248,247.845v1.687h1.528v.812h-1.528v3.167c0,.728.206,1.14.8,1.14a2.383,2.383,0,0,0,.619-.072l.049.8a2.62,2.62,0,0,1-.946.146,1.479,1.479,0,0,1-1.152-.449,2.174,2.174,0,0,1-.413-1.529v-3.2h-.911v-.812h.911v-1.408Z" transform="translate(-85.039 -95.674)"/>
      <path id="Trazado_774273" data-name="Trazado 774273" d="M230.091,256.38l-.085-.74h-.036a2.189,2.189,0,0,1-1.8.874,1.674,1.674,0,0,1-1.8-1.687c0-1.42,1.262-2.2,3.53-2.184v-.122a1.21,1.21,0,0,0-1.334-1.359,2.918,2.918,0,0,0-1.529.437l-.243-.7a3.651,3.651,0,0,1,1.93-.521c1.8,0,2.232,1.225,2.232,2.4v2.2a8.239,8.239,0,0,0,.1,1.407Zm-.158-3c-1.165-.024-2.487.182-2.487,1.323a.944.944,0,0,0,1.007,1.019,1.461,1.461,0,0,0,1.42-.982,1.119,1.119,0,0,0,.061-.34Z" transform="translate(-87.387 -96.65)"/>
      <path id="Trazado_774274" data-name="Trazado 774274" d="M145,268.755h1.068v3.664h.024a1.987,1.987,0,0,1,.764-.752,2.193,2.193,0,0,1,1.092-.3c.788,0,2.051.485,2.051,2.511v3.494h-1.068V274c0-.946-.352-1.747-1.359-1.747a1.534,1.534,0,0,0-1.432,1.068,1.3,1.3,0,0,0-.072.51v3.542H145Z" transform="translate(-55.974 -103.746)"/>
      <path id="Trazado_774275" data-name="Trazado 774275" d="M158.137,279.009l-.085-.74h-.036a2.189,2.189,0,0,1-1.8.874,1.674,1.674,0,0,1-1.8-1.687c0-1.42,1.262-2.2,3.53-2.184v-.122a1.21,1.21,0,0,0-1.334-1.359,2.918,2.918,0,0,0-1.529.437l-.243-.7a3.651,3.651,0,0,1,1.93-.521c1.8,0,2.232,1.225,2.232,2.4v2.2a8.237,8.237,0,0,0,.1,1.407Zm-.158-3c-1.165-.024-2.487.182-2.487,1.323a.944.944,0,0,0,1.007,1.019,1.461,1.461,0,0,0,1.42-.982,1.119,1.119,0,0,0,.061-.34Z" transform="translate(-59.611 -105.386)"/>
      <path id="Trazado_774276" data-name="Trazado 774276" d="M167.825,278.8a3.933,3.933,0,0,1-1.687.34,2.79,2.79,0,0,1-2.924-3,2.984,2.984,0,0,1,3.155-3.118,3.568,3.568,0,0,1,1.48.3l-.242.825a2.475,2.475,0,0,0-1.238-.279,2.214,2.214,0,0,0-.037,4.416,3.022,3.022,0,0,0,1.31-.292Z" transform="translate(-63.005 -105.393)"/>
      <path id="Trazado_774277" data-name="Trazado 774277" d="M173.071,270.114a.661.661,0,0,1-1.322,0,.65.65,0,0,1,.667-.667.633.633,0,0,1,.655.667m-1.189,1.65h1.068v5.871h-1.068Z" transform="translate(-66.299 -104.013)"/>
      <path id="Trazado_774278" data-name="Trazado 774278" d="M178.76,279.009l-.085-.74h-.036a2.189,2.189,0,0,1-1.8.874,1.674,1.674,0,0,1-1.8-1.687c0-1.42,1.262-2.2,3.53-2.184v-.122a1.21,1.21,0,0,0-1.334-1.359,2.918,2.918,0,0,0-1.529.437l-.243-.7A3.651,3.651,0,0,1,177.4,273c1.8,0,2.232,1.225,2.232,2.4v2.2a8.237,8.237,0,0,0,.1,1.407Zm-.158-3c-1.165-.024-2.487.182-2.487,1.323a.944.944,0,0,0,1.007,1.019,1.461,1.461,0,0,0,1.42-.982,1.119,1.119,0,0,0,.061-.34Z" transform="translate(-67.572 -105.386)"/>
      <path id="Trazado_774279" data-name="Trazado 774279" d="M190.889,279.009l-.085-.74h-.036a2.189,2.189,0,0,1-1.8.874,1.674,1.674,0,0,1-1.8-1.687c0-1.42,1.262-2.2,3.53-2.184v-.122a1.21,1.21,0,0,0-1.334-1.359,2.918,2.918,0,0,0-1.529.437l-.243-.7a3.651,3.651,0,0,1,1.93-.521c1.8,0,2.232,1.225,2.232,2.4v2.2a8.237,8.237,0,0,0,.1,1.407Zm-.158-3c-1.165-.024-2.487.182-2.487,1.323a.944.944,0,0,0,1.007,1.019,1.461,1.461,0,0,0,1.42-.982,1.119,1.119,0,0,0,.061-.34Z" transform="translate(-72.254 -105.386)"/>
      <path id="Trazado_774280" data-name="Trazado 774280" d="M196.628,274.969c0-.691-.012-1.286-.048-1.832h.934l.037,1.152h.048A1.762,1.762,0,0,1,199.224,273a1.145,1.145,0,0,1,.3.036v1.007a1.622,1.622,0,0,0-.364-.037,1.5,1.5,0,0,0-1.432,1.372,3.044,3.044,0,0,0-.048.5v3.13h-1.056Z" transform="translate(-75.884 -105.386)"/>
      <path id="Trazado_774281" data-name="Trazado 774281" d="M202.376,274.969c0-.691-.012-1.286-.048-1.832h.934l.037,1.152h.048A1.762,1.762,0,0,1,204.973,273a1.146,1.146,0,0,1,.3.036v1.007a1.622,1.622,0,0,0-.364-.037,1.5,1.5,0,0,0-1.432,1.372,3.039,3.039,0,0,0-.048.5v3.13h-1.055Z" transform="translate(-78.103 -105.386)"/>
      <path id="Trazado_774282" data-name="Trazado 774282" d="M209.26,270.114a.661.661,0,0,1-1.322,0,.65.65,0,0,1,.667-.667.633.633,0,0,1,.656.667m-1.189,1.65h1.068v5.871h-1.068Z" transform="translate(-80.269 -104.013)"/>
      <path id="Trazado_774283" data-name="Trazado 774283" d="M211.908,277.37c.025-.4.048-.995.048-1.517v-7.1h1.055v3.688h.025a2.186,2.186,0,0,1,2-1.08c1.456,0,2.487,1.213,2.474,3,0,2.1-1.322,3.142-2.632,3.142a2.091,2.091,0,0,1-1.965-1.1h-.037l-.048.971Zm1.1-2.353a2.02,2.02,0,0,0,.049.388,1.648,1.648,0,0,0,1.6,1.249c1.116,0,1.784-.909,1.784-2.256,0-1.177-.607-2.184-1.747-2.184a1.7,1.7,0,0,0-1.625,1.31,2.084,2.084,0,0,0-.061.437Z" transform="translate(-81.801 -103.746)"/>
      <path id="Trazado_774284" data-name="Trazado 774284" d="M225.4,279.009l-.085-.74h-.036a2.189,2.189,0,0,1-1.8.874,1.674,1.674,0,0,1-1.8-1.687c0-1.42,1.262-2.2,3.53-2.184v-.122a1.21,1.21,0,0,0-1.334-1.359,2.918,2.918,0,0,0-1.529.437l-.243-.7a3.651,3.651,0,0,1,1.93-.521c1.8,0,2.232,1.225,2.232,2.4v2.2a8.237,8.237,0,0,0,.1,1.407Zm-.158-3c-1.165-.024-2.487.182-2.487,1.323a.944.944,0,0,0,1.007,1.019,1.461,1.461,0,0,0,1.42-.982,1.119,1.119,0,0,0,.061-.34Z" transform="translate(-85.576 -105.386)"/>
      <path id="Trazado_774285" data-name="Trazado 774285" d="M1.45,1.165A11.876,11.876,0,0,1,3.7.967a3.935,3.935,0,0,1,2.616.693A2,2,0,0,1,7.1,3.342,2.262,2.262,0,0,1,5.493,5.434v.028a2.456,2.456,0,0,1,1.965,2.39A2.569,2.569,0,0,1,6.653,9.76a4.786,4.786,0,0,1-3.295.89,14.527,14.527,0,0,1-1.908-.112Zm1.23,3.9H3.8c1.3,0,2.064-.679,2.064-1.6,0-1.117-.848-1.555-2.092-1.555A5.285,5.285,0,0,0,2.68,2Zm0,4.566a6.587,6.587,0,0,0,1.032.056c1.272,0,2.445-.467,2.445-1.852C6.157,6.537,5.041,6,3.7,6H2.68Z" transform="translate(-0.56 -0.373)"/>
      <path id="Trazado_774286" data-name="Trazado 774286" d="M16.389,12.2l-.1-.862h-.043a2.546,2.546,0,0,1-2.092,1.017,1.949,1.949,0,0,1-2.092-1.965c0-1.654,1.47-2.559,4.114-2.544V7.707a1.41,1.41,0,0,0-1.555-1.583,3.412,3.412,0,0,0-1.781.509l-.283-.82A4.249,4.249,0,0,1,14.806,5.2c2.092,0,2.6,1.427,2.6,2.8v2.559A9.638,9.638,0,0,0,17.52,12.2Zm-.184-3.492c-1.358-.028-2.9.212-2.9,1.541a1.1,1.1,0,0,0,1.173,1.187,1.7,1.7,0,0,0,1.655-1.145,1.316,1.316,0,0,0,.071-.4Z" transform="translate(-4.657 -2.009)"/>
      <path id="Trazado_774287" data-name="Trazado 774287" d="M24.033,2.257V4.222h1.781v.947H24.033v3.69c0,.848.241,1.329.934,1.329a2.764,2.764,0,0,0,.72-.085l.056.933a3.045,3.045,0,0,1-1.1.169,1.726,1.726,0,0,1-1.343-.523,2.537,2.537,0,0,1-.48-1.781V5.169H21.757V4.222h1.061V2.582Z" transform="translate(-8.399 -0.871)"/>
      <path id="Trazado_774288" data-name="Trazado 774288" d="M33.174,12.2l-.1-.862h-.043a2.546,2.546,0,0,1-2.092,1.017,1.949,1.949,0,0,1-2.092-1.965c0-1.654,1.47-2.559,4.114-2.544V7.707a1.41,1.41,0,0,0-1.555-1.583,3.412,3.412,0,0,0-1.781.509l-.283-.82A4.249,4.249,0,0,1,31.591,5.2c2.092,0,2.6,1.427,2.6,2.8v2.559a9.638,9.638,0,0,0,.113,1.639Zm-.184-3.492c-1.358-.028-2.9.212-2.9,1.541a1.1,1.1,0,0,0,1.173,1.187,1.7,1.7,0,0,0,1.655-1.145,1.316,1.316,0,0,0,.071-.4Z" transform="translate(-11.136 -2.009)"/>
      <path id="Trazado_774289" data-name="Trazado 774289" d="M43.462,10.193V4.3H42.5V3.35h.961V3.026A3.226,3.226,0,0,1,44.254.637,2.381,2.381,0,0,1,45.922,0a2.878,2.878,0,0,1,1.06.2l-.169.961A1.848,1.848,0,0,0,46.021,1c-1.06,0-1.329.933-1.329,1.979V3.35h1.653V4.3H44.692v5.9Z" transform="translate(-16.406)"/>
      <path id="Trazado_774290" data-name="Trazado 774290" d="M55.243,8.725a3.344,3.344,0,0,1-3.407,3.633,3.253,3.253,0,0,1-3.28-3.521A3.341,3.341,0,0,1,51.949,5.2a3.24,3.24,0,0,1,3.293,3.521M49.814,8.8c0,1.5.863,2.629,2.078,2.629,1.187,0,2.078-1.116,2.078-2.657,0-1.16-.58-2.63-2.049-2.63S49.814,7.494,49.814,8.8" transform="translate(-18.744 -2.009)"/>
      <path id="Trazado_774291" data-name="Trazado 774291" d="M61.045,7.495c0-.806-.014-1.5-.056-2.135h1.089L62.12,6.7h.056a2.053,2.053,0,0,1,1.895-1.5,1.319,1.319,0,0,1,.353.042V6.421A1.834,1.834,0,0,0,64,6.378a1.745,1.745,0,0,0-1.668,1.6,3.513,3.513,0,0,0-.056.58V12.2h-1.23Z" transform="translate(-23.543 -2.009)"/>
      <path id="Trazado_774292" data-name="Trazado 774292" d="M67.745,7.495c0-.806-.014-1.5-.056-2.135h1.089L68.82,6.7h.056a2.053,2.053,0,0,1,1.895-1.5,1.319,1.319,0,0,1,.353.042V6.421a1.834,1.834,0,0,0-.424-.042,1.745,1.745,0,0,0-1.668,1.6,3.51,3.51,0,0,0-.057.58V12.2h-1.23Z" transform="translate(-26.13 -2.009)"/>
      <path id="Trazado_774293" data-name="Trazado 774293" d="M80.039,8.725a3.344,3.344,0,0,1-3.407,3.633,3.253,3.253,0,0,1-3.28-3.521A3.341,3.341,0,0,1,76.745,5.2a3.24,3.24,0,0,1,3.293,3.521M74.61,8.8c0,1.5.863,2.629,2.078,2.629,1.187,0,2.078-1.116,2.078-2.657,0-1.16-.58-2.63-2.049-2.63S74.61,7.494,74.61,8.8" transform="translate(-28.316 -2.009)"/>
      <path id="Trazado_774294" data-name="Trazado 774294" d="M1.329,25.53l1.343,3.845a17.6,17.6,0,0,1,.551,1.753h.042c.155-.565.354-1.131.58-1.753L5.174,25.53h1.3L3.788,32.373H2.6L0,25.53Z" transform="translate(0 -9.855)"/>
      <path id="Trazado_774295" data-name="Trazado 774295" d="M12.822,21.91a.771.771,0,0,1-1.541,0,.759.759,0,0,1,.778-.778.738.738,0,0,1,.763.778m-1.386,1.922H12.68v6.843H11.436Z" transform="translate(-4.355 -8.157)"/>
      <path id="Trazado_774296" data-name="Trazado 774296" d="M15.53,31a3.258,3.258,0,0,0,1.64.495c.905,0,1.329-.452,1.329-1.018,0-.594-.354-.919-1.272-1.258-1.23-.438-1.81-1.117-1.81-1.937a2.11,2.11,0,0,1,2.361-2.007,3.417,3.417,0,0,1,1.682.424l-.311.905a2.667,2.667,0,0,0-1.4-.4c-.735,0-1.145.424-1.145.933,0,.565.41.82,1.3,1.16,1.188.452,1.8,1.046,1.8,2.064,0,1.2-.933,2.05-2.559,2.05a3.9,3.9,0,0,1-1.922-.467Z" transform="translate(-5.875 -9.758)"/>
      <path id="Trazado_774297" data-name="Trazado 774297" d="M25.207,22.33v1.965h1.781v.947H25.207v3.69c0,.848.241,1.329.934,1.329a2.764,2.764,0,0,0,.72-.085l.056.933a3.045,3.045,0,0,1-1.1.169,1.726,1.726,0,0,1-1.343-.523,2.537,2.537,0,0,1-.48-1.781V25.242H22.931v-.947h1.061v-1.64Z" transform="translate(-8.852 -8.62)"/>
      <path id="Trazado_774298" data-name="Trazado 774298" d="M34.348,32.274l-.1-.862h-.043a2.546,2.546,0,0,1-2.092,1.017,1.949,1.949,0,0,1-2.092-1.965c0-1.654,1.47-2.559,4.114-2.544v-.142A1.41,1.41,0,0,0,32.581,26.2,3.412,3.412,0,0,0,30.8,26.7l-.283-.82a4.249,4.249,0,0,1,2.248-.608c2.092,0,2.6,1.427,2.6,2.8v2.559a9.639,9.639,0,0,0,.113,1.639Zm-.184-3.492c-1.358-.028-2.9.212-2.9,1.541a1.1,1.1,0,0,0,1.173,1.187,1.7,1.7,0,0,0,1.655-1.145,1.316,1.316,0,0,0,.071-.4Z" transform="translate(-11.589 -9.758)"/>
      <path id="Trazado_774299" data-name="Trazado 774299" d="M45.033,20.327h1.244V24.6h.028a2.317,2.317,0,0,1,.891-.877,2.571,2.571,0,0,1,1.273-.353c.919,0,2.388.565,2.388,2.927v4.071H49.614V26.434c0-1.1-.41-2.035-1.583-2.035a1.787,1.787,0,0,0-1.668,1.244,1.507,1.507,0,0,0-.085.594v4.128H45.033Z" transform="translate(-17.384 -7.847)"/>
      <path id="Trazado_774300" data-name="Trazado 774300" d="M60.342,32.274l-.1-.862H60.2a2.546,2.546,0,0,1-2.092,1.017,1.949,1.949,0,0,1-2.092-1.965c0-1.654,1.47-2.559,4.114-2.544v-.142A1.41,1.41,0,0,0,58.575,26.2a3.412,3.412,0,0,0-1.781.509l-.283-.82a4.249,4.249,0,0,1,2.248-.608c2.092,0,2.6,1.427,2.6,2.8v2.559a9.638,9.638,0,0,0,.113,1.639Zm-.184-3.492c-1.357-.028-2.9.212-2.9,1.541a1.1,1.1,0,0,0,1.173,1.187,1.7,1.7,0,0,0,1.655-1.145,1.316,1.316,0,0,0,.071-.4Z" transform="translate(-21.623 -9.758)"/>
      <path id="Trazado_774301" data-name="Trazado 774301" d="M71.633,32.029a4.586,4.586,0,0,1-1.965.4,3.251,3.251,0,0,1-3.407-3.492A3.477,3.477,0,0,1,69.936,25.3a4.163,4.163,0,0,1,1.725.354l-.283.961a2.879,2.879,0,0,0-1.442-.325,2.368,2.368,0,0,0-2.417,2.587,2.346,2.346,0,0,0,2.375,2.558,3.527,3.527,0,0,0,1.526-.34Z" transform="translate(-25.578 -9.766)"/>
      <path id="Trazado_774302" data-name="Trazado 774302" d="M77.748,21.91a.771.771,0,0,1-1.541,0,.758.758,0,0,1,.778-.778.739.739,0,0,1,.763.778m-1.386,1.922h1.244v6.843H76.362Z" transform="translate(-29.418 -8.157)"/>
      <path id="Trazado_774303" data-name="Trazado 774303" d="M84.378,32.274l-.1-.862h-.043a2.546,2.546,0,0,1-2.092,1.017,1.949,1.949,0,0,1-2.092-1.965c0-1.654,1.47-2.559,4.114-2.544v-.142A1.41,1.41,0,0,0,82.611,26.2a3.412,3.412,0,0,0-1.781.509l-.283-.82a4.249,4.249,0,0,1,2.248-.608c2.092,0,2.6,1.427,2.6,2.8v2.559a9.638,9.638,0,0,0,.113,1.639Zm-.184-3.492c-1.357-.028-2.9.212-2.9,1.541a1.1,1.1,0,0,0,1.173,1.187,1.7,1.7,0,0,0,1.655-1.145,1.316,1.316,0,0,0,.071-.4Z" transform="translate(-30.902 -9.758)"/>
      <path id="Trazado_774304" data-name="Trazado 774304" d="M98.514,32.274l-.1-.862h-.043A2.545,2.545,0,0,1,96.28,32.43a1.949,1.949,0,0,1-2.092-1.965c0-1.654,1.47-2.559,4.114-2.544v-.142A1.41,1.41,0,0,0,96.747,26.2a3.412,3.412,0,0,0-1.781.509l-.283-.82a4.249,4.249,0,0,1,2.248-.608c2.092,0,2.6,1.427,2.6,2.8v2.559a9.639,9.639,0,0,0,.113,1.639Zm-.183-3.492c-1.358-.028-2.9.212-2.9,1.541a1.1,1.1,0,0,0,1.173,1.187,1.7,1.7,0,0,0,1.655-1.145,1.317,1.317,0,0,0,.071-.4Z" transform="translate(-36.359 -9.758)"/>
      <path id="Trazado_774305" data-name="Trazado 774305" d="M105.2,27.567c0-.806-.014-1.5-.056-2.135h1.089l.042,1.343h.056a2.053,2.053,0,0,1,1.895-1.5,1.319,1.319,0,0,1,.353.042v1.173a1.834,1.834,0,0,0-.424-.042,1.745,1.745,0,0,0-1.668,1.6,3.513,3.513,0,0,0-.056.58v3.647H105.2Z" transform="translate(-40.589 -9.758)"/>
      <path id="Trazado_774306" data-name="Trazado 774306" d="M111.9,27.567c0-.806-.014-1.5-.056-2.135h1.089l.042,1.343h.056a2.053,2.053,0,0,1,1.895-1.5,1.319,1.319,0,0,1,.353.042v1.173a1.834,1.834,0,0,0-.424-.042,1.745,1.745,0,0,0-1.668,1.6,3.509,3.509,0,0,0-.057.58v3.647H111.9Z" transform="translate(-43.176 -9.758)"/>
      <path id="Trazado_774307" data-name="Trazado 774307" d="M119.927,21.91a.77.77,0,0,1-1.54,0,.758.758,0,0,1,.777-.778.738.738,0,0,1,.763.778m-1.385,1.922h1.244v6.843h-1.244Z" transform="translate(-45.7 -8.157)"/>
      <path id="Trazado_774308" data-name="Trazado 774308" d="M123.013,30.363c.028-.467.056-1.159.056-1.767v-8.27h1.23v4.3h.029a2.549,2.549,0,0,1,2.332-1.258c1.7,0,2.9,1.414,2.884,3.492,0,2.445-1.541,3.661-3.067,3.661a2.438,2.438,0,0,1-2.291-1.286h-.042l-.056,1.131Zm1.286-2.743a2.32,2.32,0,0,0,.057.452,1.918,1.918,0,0,0,1.866,1.456c1.3,0,2.078-1.06,2.078-2.63,0-1.371-.707-2.544-2.036-2.544a1.984,1.984,0,0,0-1.895,1.527,2.45,2.45,0,0,0-.071.509Z" transform="translate(-47.486 -7.846)"/>
      <path id="Trazado_774309" data-name="Trazado 774309" d="M138.736,32.274l-.1-.862h-.043A2.546,2.546,0,0,1,136.5,32.43a1.949,1.949,0,0,1-2.092-1.965c0-1.654,1.47-2.559,4.114-2.544v-.142a1.41,1.41,0,0,0-1.555-1.583,3.412,3.412,0,0,0-1.781.509l-.283-.82a4.249,4.249,0,0,1,2.248-.608c2.092,0,2.6,1.427,2.6,2.8v2.559a9.638,9.638,0,0,0,.113,1.639Zm-.184-3.492c-1.357-.028-2.9.212-2.9,1.541a1.1,1.1,0,0,0,1.173,1.187,1.7,1.7,0,0,0,1.655-1.145,1.316,1.316,0,0,0,.071-.4Z" transform="translate(-51.885 -9.758)"/>
      <path id="Trazado_774310" data-name="Trazado 774310" d="M289.729,149.4a11.072,11.072,0,0,1,2.1-.185,3.68,3.68,0,0,1,2.442.647,1.867,1.867,0,0,1,.739,1.571,2.111,2.111,0,0,1-1.5,1.953v.026a2.294,2.294,0,0,1,1.835,2.231,2.4,2.4,0,0,1-.753,1.782,4.468,4.468,0,0,1-3.076.832,13.425,13.425,0,0,1-1.782-.106Zm1.149,3.643h1.043c1.214,0,1.927-.634,1.927-1.492,0-1.043-.792-1.452-1.954-1.452a4.843,4.843,0,0,0-1.016.08Zm0,4.263a6.166,6.166,0,0,0,.963.053c1.188,0,2.283-.435,2.283-1.729,0-1.214-1.043-1.716-2.3-1.716h-.95Z" transform="translate(-111.842 -57.601)"/>
      <path id="Trazado_774311" data-name="Trazado 774311" d="M303.68,159.708l-.092-.806h-.04a2.379,2.379,0,0,1-1.953.95,1.82,1.82,0,0,1-1.954-1.835c0-1.545,1.372-2.39,3.84-2.377v-.131a1.317,1.317,0,0,0-1.452-1.479,3.182,3.182,0,0,0-1.663.476l-.265-.766a3.969,3.969,0,0,1,2.1-.568c1.954,0,2.429,1.334,2.429,2.614v2.389a8.936,8.936,0,0,0,.106,1.532Zm-.171-3.261c-1.267-.026-2.706.2-2.706,1.439a1.027,1.027,0,0,0,1.095,1.108,1.589,1.589,0,0,0,1.545-1.069,1.22,1.22,0,0,0,.066-.37Z" transform="translate(-115.668 -59.128)"/>
      <path id="Trazado_774312" data-name="Trazado 774312" d="M310.817,150.421v1.835h1.663v.885h-1.663v3.446c0,.791.224,1.241.871,1.241a2.608,2.608,0,0,0,.674-.079l.053.871a2.86,2.86,0,0,1-1.03.158,1.609,1.609,0,0,1-1.254-.488,2.369,2.369,0,0,1-.449-1.663V153.14h-.99v-.885h.99v-1.531Z" transform="translate(-119.162 -58.066)"/>
      <path id="Trazado_774313" data-name="Trazado 774313" d="M319.352,159.708l-.092-.806h-.04a2.378,2.378,0,0,1-1.953.95,1.82,1.82,0,0,1-1.954-1.835c0-1.545,1.373-2.39,3.841-2.377v-.131a1.317,1.317,0,0,0-1.452-1.479,3.184,3.184,0,0,0-1.663.476l-.264-.766a3.967,3.967,0,0,1,2.1-.568c1.954,0,2.428,1.334,2.428,2.614v2.389a8.936,8.936,0,0,0,.106,1.532Zm-.171-3.261c-1.267-.026-2.706.2-2.706,1.439a1.028,1.028,0,0,0,1.1,1.108,1.59,1.59,0,0,0,1.545-1.069,1.218,1.218,0,0,0,.066-.37Z" transform="translate(-121.718 -59.128)"/>
      <path id="Trazado_774314" data-name="Trazado 774314" d="M329.282,153.41,330.536,157a16.336,16.336,0,0,1,.515,1.637h.039c.146-.529.33-1.057.541-1.637l1.241-3.591h1.214l-2.508,6.389H330.47l-2.429-6.389Z" transform="translate(-126.631 -59.22)"/>
      <path id="Trazado_774315" data-name="Trazado 774315" d="M340.015,150.029a.72.72,0,0,1-1.439,0,.708.708,0,0,1,.726-.726.69.69,0,0,1,.713.726m-1.294,1.8h1.162v6.389h-1.162Z" transform="translate(-130.698 -57.634)"/>
      <path id="Trazado_774316" data-name="Trazado 774316" d="M342.543,158.52a3.047,3.047,0,0,0,1.531.462c.845,0,1.241-.422,1.241-.95,0-.554-.33-.858-1.188-1.175-1.149-.41-1.69-1.043-1.69-1.809a1.971,1.971,0,0,1,2.2-1.874,3.19,3.19,0,0,1,1.571.4l-.29.845a2.492,2.492,0,0,0-1.307-.37c-.686,0-1.069.4-1.069.871,0,.528.383.766,1.214,1.083,1.109.422,1.677.976,1.677,1.927,0,1.122-.871,1.914-2.39,1.914a3.644,3.644,0,0,1-1.8-.435Z" transform="translate(-132.118 -59.128)"/>
      <path id="Trazado_774317" data-name="Trazado 774317" d="M351.58,150.421v1.835h1.663v.885H351.58v3.446c0,.791.224,1.241.871,1.241a2.608,2.608,0,0,0,.674-.079l.053.871a2.86,2.86,0,0,1-1.03.158,1.609,1.609,0,0,1-1.254-.488,2.369,2.369,0,0,1-.449-1.663V153.14h-.99v-.885h.99v-1.531Z" transform="translate(-134.897 -58.066)"/>
      <path id="Trazado_774318" data-name="Trazado 774318" d="M360.116,159.708l-.092-.806h-.04a2.378,2.378,0,0,1-1.953.95,1.82,1.82,0,0,1-1.954-1.835c0-1.545,1.373-2.39,3.841-2.377v-.131a1.317,1.317,0,0,0-1.452-1.479,3.184,3.184,0,0,0-1.663.476l-.264-.766a3.967,3.967,0,0,1,2.1-.568c1.954,0,2.428,1.334,2.428,2.614v2.389a8.932,8.932,0,0,0,.106,1.532Zm-.171-3.261c-1.267-.026-2.706.2-2.706,1.439a1.028,1.028,0,0,0,1.1,1.108,1.59,1.59,0,0,0,1.545-1.069,1.219,1.219,0,0,0,.066-.37Z" transform="translate(-137.454 -59.128)"/>
      <path id="Trazado_774319" data-name="Trazado 774319" d="M374.358,159.478a4.283,4.283,0,0,1-1.835.37,3.035,3.035,0,0,1-3.181-3.261,3.246,3.246,0,0,1,3.432-3.392,3.877,3.877,0,0,1,1.61.33l-.265.9a2.691,2.691,0,0,0-1.346-.3,2.409,2.409,0,0,0-.04,4.8,3.3,3.3,0,0,0,1.426-.317Z" transform="translate(-142.575 -59.137)"/>
      <path id="Trazado_774320" data-name="Trazado 774320" d="M384.229,156.46a3.122,3.122,0,0,1-3.182,3.392,3.037,3.037,0,0,1-3.062-3.287,3.119,3.119,0,0,1,3.168-3.392,3.026,3.026,0,0,1,3.076,3.287m-5.069.066c0,1.4.806,2.455,1.94,2.455,1.109,0,1.941-1.043,1.941-2.482,0-1.082-.542-2.455-1.914-2.455s-1.967,1.267-1.967,2.482" transform="translate(-145.911 -59.128)"/>
      <path id="Trazado_774321" data-name="Trazado 774321" d="M389.648,155.047c0-.659-.013-1.2-.053-1.729h1.03l.066,1.056h.026a2.351,2.351,0,0,1,2.113-1.2c.884,0,2.257.529,2.257,2.719v3.815h-1.162v-3.683c0-1.03-.383-1.888-1.478-1.888a1.651,1.651,0,0,0-1.558,1.188,1.686,1.686,0,0,0-.079.541v3.842h-1.162Z" transform="translate(-150.393 -59.128)"/>
      <rect id="Rectángulo_388819" data-name="Rectángulo 388819" width="1.162" height="9.372" transform="translate(248.323 91.207)"/>
      <path id="Trazado_774322" data-name="Trazado 774322" d="M411.887,159.708l-.092-.806h-.04a2.379,2.379,0,0,1-1.953.95,1.82,1.82,0,0,1-1.954-1.835c0-1.545,1.372-2.39,3.84-2.377v-.131a1.317,1.317,0,0,0-1.452-1.479,3.182,3.182,0,0,0-1.663.476l-.265-.766a3.969,3.969,0,0,1,2.1-.568c1.954,0,2.429,1.334,2.429,2.614v2.389a8.935,8.935,0,0,0,.106,1.532Zm-.171-3.261c-1.267-.026-2.706.2-2.706,1.439a1.027,1.027,0,0,0,1.095,1.108,1.589,1.589,0,0,0,1.545-1.069,1.219,1.219,0,0,0,.066-.37Z" transform="translate(-157.439 -59.128)"/>
      <path id="Trazado_774323" data-name="Trazado 774323" d="M421.817,153.41,423.071,157a16.327,16.327,0,0,1,.515,1.637h.039c.146-.529.33-1.057.541-1.637l1.242-3.591h1.214l-2.508,6.389H423l-2.429-6.389Z" transform="translate(-162.352 -59.22)"/>
      <path id="Trazado_774324" data-name="Trazado 774324" d="M432.549,150.029a.72.72,0,0,1-1.439,0,.708.708,0,0,1,.726-.726.69.69,0,0,1,.713.726m-1.294,1.8h1.162v6.389h-1.162Z" transform="translate(-166.418 -57.634)"/>
      <path id="Trazado_774325" data-name="Trazado 774325" d="M435.076,158.52a3.047,3.047,0,0,0,1.531.462c.845,0,1.241-.422,1.241-.95,0-.554-.33-.858-1.188-1.175-1.149-.41-1.69-1.043-1.69-1.809a1.971,1.971,0,0,1,2.2-1.874,3.19,3.19,0,0,1,1.571.4l-.29.845a2.492,2.492,0,0,0-1.307-.37c-.686,0-1.069.4-1.069.871,0,.528.383.766,1.214,1.083,1.109.422,1.677.976,1.677,1.927,0,1.122-.871,1.914-2.39,1.914a3.644,3.644,0,0,1-1.8-.435Z" transform="translate(-167.837 -59.128)"/>
      <path id="Trazado_774326" data-name="Trazado 774326" d="M444.114,150.421v1.835h1.663v.885h-1.663v3.446c0,.791.224,1.241.871,1.241a2.609,2.609,0,0,0,.674-.079l.053.871a2.86,2.86,0,0,1-1.03.158,1.609,1.609,0,0,1-1.254-.488,2.369,2.369,0,0,1-.449-1.663V153.14h-.99v-.885h.99v-1.531Z" transform="translate(-170.618 -58.066)"/>
      <path id="Trazado_774327" data-name="Trazado 774327" d="M452.65,159.708l-.092-.806h-.04a2.378,2.378,0,0,1-1.953.95,1.82,1.82,0,0,1-1.954-1.835c0-1.545,1.373-2.39,3.841-2.377v-.131A1.317,1.317,0,0,0,451,154.031a3.184,3.184,0,0,0-1.663.476l-.264-.766a3.967,3.967,0,0,1,2.1-.568c1.954,0,2.428,1.334,2.428,2.614v2.389a8.936,8.936,0,0,0,.106,1.532Zm-.171-3.261c-1.267-.026-2.706.2-2.706,1.439a1.028,1.028,0,0,0,1.1,1.108,1.59,1.59,0,0,0,1.545-1.069,1.218,1.218,0,0,0,.066-.37Z" transform="translate(-173.174 -59.128)"/>
      <path id="Trazado_774328" data-name="Trazado 774328" d="M289.664,167.295h1.162v3.987h.026a2.144,2.144,0,0,1,.831-.818,2.387,2.387,0,0,1,1.188-.33c.858,0,2.231.528,2.231,2.733v3.8h-1.162V173c0-1.03-.383-1.9-1.478-1.9a1.67,1.67,0,0,0-1.558,1.162,1.411,1.411,0,0,0-.079.554v3.855h-1.162Z" transform="translate(-111.817 -64.58)"/>
      <path id="Trazado_774329" data-name="Trazado 774329" d="M303.959,178.452l-.092-.806h-.04a2.378,2.378,0,0,1-1.953.95,1.82,1.82,0,0,1-1.954-1.835c0-1.545,1.373-2.39,3.841-2.377v-.131a1.317,1.317,0,0,0-1.452-1.479,3.184,3.184,0,0,0-1.663.476l-.264-.766a3.967,3.967,0,0,1,2.1-.568c1.954,0,2.428,1.334,2.428,2.614v2.389a8.936,8.936,0,0,0,.106,1.532Zm-.171-3.261c-1.267-.026-2.706.2-2.706,1.439a1.028,1.028,0,0,0,1.1,1.108,1.59,1.59,0,0,0,1.545-1.069,1.218,1.218,0,0,0,.066-.37Z" transform="translate(-115.776 -66.364)"/>
      <path id="Trazado_774330" data-name="Trazado 774330" d="M314.5,178.222a4.283,4.283,0,0,1-1.835.37,3.035,3.035,0,0,1-3.181-3.261,3.246,3.246,0,0,1,3.432-3.392,3.877,3.877,0,0,1,1.61.33l-.265.9a2.691,2.691,0,0,0-1.346-.3,2.409,2.409,0,0,0-.04,4.8,3.3,3.3,0,0,0,1.426-.317Z" transform="translate(-119.469 -66.372)"/>
      <path id="Trazado_774331" data-name="Trazado 774331" d="M320.214,168.773a.72.72,0,0,1-1.439,0,.709.709,0,0,1,.726-.726.69.69,0,0,1,.713.726m-1.294,1.8h1.162v6.389h-1.162Z" transform="translate(-123.054 -64.87)"/>
      <path id="Trazado_774332" data-name="Trazado 774332" d="M326.4,178.452l-.092-.806h-.04a2.378,2.378,0,0,1-1.953.95,1.82,1.82,0,0,1-1.954-1.835c0-1.545,1.373-2.39,3.841-2.377v-.131a1.317,1.317,0,0,0-1.452-1.479,3.185,3.185,0,0,0-1.663.476l-.264-.766a3.967,3.967,0,0,1,2.1-.568c1.954,0,2.428,1.334,2.428,2.614v2.389a8.933,8.933,0,0,0,.106,1.532Zm-.171-3.261c-1.267-.026-2.706.2-2.706,1.439a1.028,1.028,0,0,0,1.1,1.108,1.59,1.59,0,0,0,1.545-1.069,1.218,1.218,0,0,0,.066-.37Z" transform="translate(-124.44 -66.364)"/>
      <path id="Trazado_774333" data-name="Trazado 774333" d="M339.6,178.452l-.092-.806h-.04a2.378,2.378,0,0,1-1.953.95,1.82,1.82,0,0,1-1.954-1.835c0-1.545,1.373-2.39,3.841-2.377v-.131a1.317,1.317,0,0,0-1.452-1.479,3.185,3.185,0,0,0-1.663.476l-.264-.766a3.967,3.967,0,0,1,2.1-.568c1.954,0,2.428,1.334,2.428,2.614v2.389a8.936,8.936,0,0,0,.106,1.532Zm-.171-3.261c-1.267-.026-2.706.2-2.706,1.439a1.028,1.028,0,0,0,1.1,1.108,1.59,1.59,0,0,0,1.545-1.069,1.218,1.218,0,0,0,.066-.37Z" transform="translate(-129.536 -66.364)"/>
      <path id="Trazado_774334" data-name="Trazado 774334" d="M345.8,176.667c.026-.436.053-1.082.053-1.65v-7.722H347v4.013h.026a2.379,2.379,0,0,1,2.178-1.175c1.584,0,2.706,1.321,2.693,3.261,0,2.284-1.439,3.419-2.864,3.419a2.277,2.277,0,0,1-2.139-1.2h-.039l-.053,1.056Zm1.2-2.561a2.166,2.166,0,0,0,.053.422,1.792,1.792,0,0,0,1.742,1.36c1.214,0,1.94-.99,1.94-2.455,0-1.28-.66-2.376-1.9-2.376a1.852,1.852,0,0,0-1.769,1.426,2.289,2.289,0,0,0-.066.476Z" transform="translate(-133.487 -64.58)"/>
      <path id="Trazado_774335" data-name="Trazado 774335" d="M360.481,178.452l-.092-.806h-.04a2.379,2.379,0,0,1-1.953.95,1.82,1.82,0,0,1-1.954-1.835c0-1.545,1.373-2.39,3.841-2.377v-.131a1.317,1.317,0,0,0-1.452-1.479,3.184,3.184,0,0,0-1.663.476l-.264-.766a3.967,3.967,0,0,1,2.1-.568c1.954,0,2.428,1.334,2.428,2.614v2.389a8.933,8.933,0,0,0,.106,1.532Zm-.171-3.261c-1.267-.026-2.706.2-2.706,1.439a1.028,1.028,0,0,0,1.1,1.108,1.59,1.59,0,0,0,1.545-1.069,1.219,1.219,0,0,0,.066-.37Z" transform="translate(-137.595 -66.364)"/>
      <path id="Trazado_774336" data-name="Trazado 774336" d="M364.224,178.806a1.886,1.886,0,0,0,1.268-.488c.316-.37.435-.871.435-2.4v-5.347h1.162v5.795a3.5,3.5,0,0,1-.766,2.627,2.95,2.95,0,0,1-1.98.726Zm3-10.032a.682.682,0,0,1-.726.713.693.693,0,0,1-.713-.713.712.712,0,0,1,.739-.726.687.687,0,0,1,.7.726" transform="translate(-140.599 -64.87)"/>
      <path id="Trazado_774337" data-name="Trazado 774337" d="M376.618,175.2a3.122,3.122,0,0,1-3.182,3.392,3.037,3.037,0,0,1-3.062-3.287,3.119,3.119,0,0,1,3.168-3.392,3.026,3.026,0,0,1,3.076,3.287m-5.069.066c0,1.4.806,2.455,1.94,2.455,1.109,0,1.941-1.043,1.941-2.482,0-1.082-.542-2.455-1.914-2.455s-1.967,1.267-1.967,2.482" transform="translate(-142.973 -66.364)"/>
      <path id="Trazado_774338" data-name="Trazado 774338" d="M326.065,166.644,317.8,284.266S268.569,310.2,212.577,310.2s-94.083-24.8-94.083-24.8l-8.507-124.386c21.42-5.637,16.535-51.107,16.535-51.107H306.9v18.414" transform="translate(-42.457 -42.424)" fill="none" stroke="#000" stroke-miterlimit="10" stroke-width="2"/>
      <line id="Línea_550" data-name="Línea 550" y2="190.149" transform="translate(161.1 73.489)" fill="none" stroke="#000" stroke-miterlimit="10" stroke-width="2"/>
      <line id="Línea_551" data-name="Línea 551" y2="12.401" transform="translate(176.884 73.489)" fill="none" stroke="#000" stroke-miterlimit="10" stroke-width="2"/>
      <line id="Línea_552" data-name="Línea 552" y2="143.552" transform="translate(176.884 120.087)" fill="none" stroke="#000" stroke-miterlimit="10" stroke-width="2"/>
      <path id="Trazado_774339" data-name="Trazado 774339" d="M270.3,139.891H436.049l2.63,31.191L381.4,178.6s-7.758-11.65-26.908-11.65S328.2,178.6,328.2,178.6l-57.9-6.764Z" transform="translate(-104.34 -54.001)" fill="none" stroke="#000" stroke-miterlimit="10" stroke-width="2"/>
      <line id="Línea_553" data-name="Línea 553" x2="15.783" transform="translate(161.1 69.731)" fill="none" stroke="#000" stroke-miterlimit="10" stroke-width="2" stroke-dasharray="5 5"/>
      <path id="Trazado_774340" data-name="Trazado 774340" d="M89.816,99.847s-4.9-4.885-15.045,7.891L13.893,99.847l2.63-31.566H182.246V93.835" transform="translate(-5.363 -26.358)" fill="none" stroke="#000" stroke-miterlimit="10" stroke-width="2"/>
      <line id="Línea_554" data-name="Línea 554" y2="3.382" transform="translate(250.147 85.89)" fill="none" stroke="#000" stroke-miterlimit="10" stroke-width="2"/>
      <line id="Línea_555" data-name="Línea 555" y2="5.637" transform="translate(250.147 107.31)" fill="none" stroke="#000" stroke-miterlimit="10" stroke-width="2"/>
      <line id="Línea_556" data-name="Línea 556" x1="53.509" y1="14.293" transform="translate(107.591 71.597)" fill="none" stroke="#000" stroke-miterlimit="10" stroke-width="2"/>
      <path id="Trazado_774341" data-name="Trazado 774341" d="M177.284,114.077l-2.55,1.474,1.475,2.549-1.707-.456-1.474-2.549,2.549-1.474Z" transform="translate(-66.793 -43.86)"/>
      <line id="Línea_557" data-name="Línea 557" x2="28.354" y2="9.332" transform="translate(11.161 41.923)" fill="none" stroke="#000" stroke-miterlimit="10" stroke-width="2"/>
      <path id="Trazado_774342" data-name="Trazado 774342" d="M59.515,82.969l2.629-1.326-1.327-2.628,1.679.552,1.327,2.628-2.628,1.327Z" transform="translate(-22.974 -30.501)"/>
      <line id="Línea_558" data-name="Línea 558" x2="28.354" y2="9.332" transform="translate(50.59 53.877)" fill="none" stroke="#000" stroke-miterlimit="10" stroke-width="2"/>
      <path id="Trazado_774343" data-name="Trazado 774343" d="M123.735,102.439l2.629-1.326-1.327-2.628,1.679.552,1.327,2.628-2.628,1.327Z" transform="translate(-47.765 -38.017)"/>
      <line id="Línea_559" data-name="Línea 559" x2="17.08" y2="4.526" transform="translate(179.773 41.923)" fill="none" stroke="#000" stroke-miterlimit="10" stroke-width="2" stroke-dasharray="3 3"/>
      <path id="Trazado_774344" data-name="Trazado 774344" d="M315.9,75.379l2.547-1.478-1.48-2.546,1.709.452,1.479,2.546-2.546,1.48Z" transform="translate(-121.944 -27.544)"/>
      <line id="Línea_560" data-name="Línea 560" x1="31.645" y1="8.876" transform="translate(272.187 67.856)" fill="none" stroke="#000" stroke-miterlimit="10" stroke-width="2" stroke-dasharray="3 3"/>
      <path id="Trazado_774345" data-name="Trazado 774345" d="M445.385,108.029l-2.568,1.442,1.443,2.567-1.7-.477-1.442-2.567,2.566-1.442Z" transform="translate(-170.281 -41.517)"/>
      <line id="Línea_561" data-name="Línea 561" x1="18.055" y1="5.773" transform="translate(313.653 80.117)" fill="none" stroke="#000" stroke-miterlimit="10" stroke-width="2" stroke-dasharray="3 3"/>
      <path id="Trazado_774346" data-name="Trazado 774346" d="M512.979,128.134l-2.618,1.348,1.35,2.617-1.684-.538-1.349-2.617L511.3,127.6Z" transform="translate(-196.362 -49.255)"/>
      <line id="Línea_562" data-name="Línea 562" x2="53.918" y2="15.787" transform="translate(207.386 49.807)" fill="none" stroke="#000" stroke-miterlimit="10" stroke-width="2" stroke-dasharray="3 3"/>
      <path id="Trazado_774347" data-name="Trazado 774347" d="M420.816,106.457l2.584-1.413-1.414-2.583,1.7.5,1.413,2.583-2.583,1.413Z" transform="translate(-162.445 -39.552)"/>
      <line id="Línea_563" data-name="Línea 563" x2="25.099" y2="16.157" transform="translate(88.557 32.052)" fill="none" stroke="#000" stroke-miterlimit="10" stroke-width="2"/>
      <path id="Trazado_774348" data-name="Trazado 774348" d="M179.931,77.013l2.878-.623-.624-2.878,1.486.957.624,2.877-2.877.624Z" transform="translate(-69.457 -28.377)"/>
      <rect id="Rectángulo_388820" data-name="Rectángulo 388820" width="20.207" height="6.15" transform="translate(83.858 55.502)" fill="none" stroke="#000" stroke-miterlimit="10" stroke-width="2"/>
      <rect id="Rectángulo_388821" data-name="Rectángulo 388821" width="8.696" height="3.808" transform="translate(90.253 51.693)" fill="none" stroke="#000" stroke-miterlimit="10" stroke-width="2"/>
      <line id="Línea_564" data-name="Línea 564" y2="4.885" transform="translate(94.601 41.923)" fill="none" stroke="#000" stroke-miterlimit="10" stroke-width="2"/>
      <line id="Línea_565" data-name="Línea 565" y2="3.829" transform="translate(94.601 63.648)" fill="none" stroke="#000" stroke-miterlimit="10" stroke-width="2"/>
    </g>
  </g>
</svg>
